<svg version="1.1" xmlns="http://www.w3.org/2000/svg" xmlns:xlink="http://www.w3.org/1999/xlink" x="0px" y="0px" viewBox="0 0 1920 1080" style="enable-background:new 0 0 1920 1080;" xml:space="preserve">
  <style type="text/css">.track{fill:none;stroke:#231F20;stroke-width:20;stroke-miterlimit:10;}</style>
  <path class="track" d="M1650,447.3c-9.6-20.6-24.4-39.3-45.2-57.1c-56.8-48.5-172.3-145.9-230.1-194.2c-56.4-47.2-90.2-71.4-124.7-89.3c-63.7-33-121.9,0.5-143.8,13.1c-8.3,4.8-19.2,11.2-30.8,18c-18.8,11.1-38.2,22.5-50.9,29.5C958.3,204,908.9,226.1,864.4,239c-7.9,2.3-20.9,5.1-33.3,7.9c-9.8,2.1-19,4.1-25.5,5.8c-43.4,11.3-71.7,38-92.3,57.5c-2.6,2.5-5.1,4.8-7.5,7c-24.2,22.3-71.8,69.5-94.3,96.5c-44.6,53.6-19.2,100.5-4,128.5c1.1,2.1,2.2,4.1,3.3,6.1c2.2,4.1,5,9.2,7.9,14.6c9,16.4,21.4,38.9,25.6,51.8c16.2,49.7-8,73.2-27.4,92.1l-1.2,1.1c-31.4,30.6-84.5,29-105.8,26.9c-20.7-2-46.8-5.5-72.1-8.8c-4.5-0.6-8.9-1.2-13.3-1.7c-13.6-1.8-24.8-3.4-33.7-4.6c-25.4-3.6-38.1-5.4-56.2-4.3c-36.8,2.2-64.9,17.3-83.5,44.8c-29.9,44.3-25.2,108.5-15.2,138.6c12.1,36.3,35.3,63.6,68.9,81.3c32.5,17.1,64.9,20,81.4,20.2c66.2,0.7,180.7,0.3,272.7-0.1c29.2-0.1,55.8-0.2,77.2-0.3c60.3-0.1,153.4,0.7,243.5,1.5c72.6,0.6,141.2,1.2,190.3,1.3l25.5,0.1c17.9,0,33.7,0.1,47.8,0.1c67.8,0,96.8-0.9,140.4-6.2c36.8-4.5,69.7-20.1,97.9-46.3c18.6-17.3,35.1-39.1,50.5-66.8c14.3-25.8,31.7-72.2,43.3-102.9c1.8-4.8,3.4-9.2,4.9-13.1c20.6-54.2,59-166.1,75.7-223.9C1665.8,509.5,1663.8,477,1650,447.3z"></path>
</svg>