<?xml version="1.0" encoding="utf-8"?>
<!-- Generator: Adobe Illustrator 27.0.1, SVG Export Plug-In . SVG Version: 6.00 Build 0)  -->
<svg version="1.1" id="Barber_ShortB_Config" xmlns="http://www.w3.org/2000/svg" xmlns:xlink="http://www.w3.org/1999/xlink"
	 x="0px" y="0px" viewBox="0 0 1920 1080" style="enable-background:new 0 0 1920 1080;" xml:space="preserve">
<style type="text/css">
	.track-surface{fill:none;stroke:#FFFFFF;stroke-width:30;stroke-miterlimit:10;}
</style>
<path class="track-surface" d="M451.5,773.6c-40.8,0-63.9-11.4-79.9-22.1c-32-21.3-51.9-49.7-68.1-74.5c-17.4-26.7-40-28.4-61.9-30
	c-11.1-0.8-21.6-1.6-30.7-5.8c-25.8-11.9-42.7-31.7-49.1-57.1c-10.2-40.7,9-85.7,24.4-106.1c56.5-74.6,134.3-81.1,188-79.4
	c106.8,3.2,280,3.7,432.8,4.2c95.9,0.3,186.6,0.6,253.7,1.5c38.4,0.5,59.4-7.4,74.9-15.1c15.5-7.8,37.3-23.8,50.4-33.3l4.1-3
	c91.1-66.5,172.9-45.5,203.8-33.4l78.3,30.7c75,29.4,75,29.4,99.6,38.7c18.5,7,52.9,19.9,147,56c6,2.3,36.1,14.9,41.5,39
	c1.9,8.5,1.4,21.5-11.9,35.2c-12,12.4-38.2,18.4-87.4,28.8c-7.6,1.6-15.6,3.3-23.7,5.1l0,0c-52.9,11.5-114.1,23.2-173.3,34.4
	c-27.5,5.2-53.4,10.2-77.8,15c-69.8,13.7-168,31.6-272,50.6c-150.4,27.4-305.8,55.8-405.4,76.7l-7.3,1.6
	C644,743.2,537.1,765.7,479.7,772C470.3,773,460.9,773.6,451.5,773.6z"/>
</svg>
