<?xml version="1.0" encoding="utf-8"?>
<!-- Generator: Adobe Illustrator 27.0.1, SVG Export Plug-In . SVG Version: 6.00 Build 0)  -->
<svg version="1.1" id="Dual_pit_road_Config" xmlns="http://www.w3.org/2000/svg" xmlns:xlink="http://www.w3.org/1999/xlink"
	 x="0px" y="0px" viewBox="0 0 1920 1080" style="enable-background:new 0 0 1920 1080;" xml:space="preserve">
<style type="text/css">
	.st0{fill:none;stroke:#FFFFFF;stroke-width:30;stroke-miterlimit:10;}
</style>
<path class="st0" d="M592.6,145.4c-57.4,0-145.4,21-230.3,80.7c-64.8,45.6-146.5,127.8-167.5,261c-10.4,65.9-2.6,169.5,50.5,262.5
	c41.5,72.7,126.6,165,296.6,191.7c141,22.2,298.3,20.1,516,17.1c82-1.1,175-2.3,277.7-2.3h0.3c9.6,0,235.7-2.1,342.4-123
	c71.8-81.5,145.4-201.7,76-410.1c-15.6-46.8-53.2-97.2-103.2-138.1c-40.6-33.2-108.3-75.5-199.6-88.1
	c-194.5-26.8-537.8-39.6-765-48.1c-30.6-1.1-59.2-2.2-85.3-3.2C598.4,145.4,595.6,145.3,592.6,145.4L592.6,145.4z"/>
</svg>
