<?xml version="1.0" encoding="utf-8"?>
<!-- Generator: Adobe Illustrator 27.0.0, SVG Export Plug-In . SVG Version: 6.00 Build 0)  -->
<svg version="1.1" id="IndyCar_2008-2011_-_Config" xmlns="http://www.w3.org/2000/svg" xmlns:xlink="http://www.w3.org/1999/xlink"
	 x="0px" y="0px" viewBox="0 0 1920 1080" style="enable-background:new 0 0 1920 1080;" xml:space="preserve">
<style type="text/css">
	svg {height: 100%;width: 100%;}.track-surface {fill: none;stroke: white;stroke-width: 30;}
</style>
<path class="track-surface" d="M1732.8,701.2c-7.1-10.1-18.6-16.1-30.9-16.2c-59.8-0.8-259.9-3.6-324.4-4.5l-27.4-0.3
	c-64.2-0.7-152.2-1.8-230.6-6.9c-49.5-3.2-76.6-28.4-90.6-49c-17.6-25.8-23.8-58.9-15.7-84.1c9.2-28.8,25.8-49.3,49.5-60.9
	c25.8-12.7,55.4-11.9,73.2-5.4c12.6,4.6,28.9,10.8,46.2,17.4c47.1,17.9,105.8,40.3,142.2,49.8c53.6,14,80.7,9.3,105.9,2.8
	c43.6-11.3,71.4-35.6,87.1-54c14.9-17.5,65.3-77.7,85.3-115.1c10.6-19.7,8.4-35,4.8-44.4c-6-15.4-19.8-25-29.7-28.5
	c-31.8-11.1-80.3-26.8-127.2-41.9c-19.7-6.4-38.3-12.4-54.8-17.7c-44.8-14.6-68,4.4-83.3,16.9c-1.4,1.2-2.8,2.3-4.2,3.4
	c-6.5,5.1-16.7,14.2-24.9,21.6c-2.8,2.5-5.4,4.8-7.5,6.6c-43.1,37.9-72.1,25.3-102.7,12l-5.5-2.4c-27-11.6-52.7-15.9-67.9-18.5
	c-25-4.2-69-9.9-91.8-12.2c-45-4.5-64.3-3.2-86,1c-24.6,4.8-42.4,15.7-52.8,32.3c-18.3,29.3-8.1,68.1-4.3,82.7
	c11.8,44.9,4.4,71.5-2.2,94.9l-0.6,2.1c-7.4,26.6-19.4,47.5-36.7,63.6c-24.5,22.9-77,62.6-101.4,80.4c-37,27-56.5,27-73.6,27
	c-45.8-0.1-201.3-0.6-276.5-3.5h-0.3c-9.2-0.1-35.5-0.9-46.3-3.3l-10.3-2.4c-24.9-5.7-62.4-14.3-83.7-16.5
	c-3.8-0.4-37.5-3.4-49.2,13.2c-3.5,4.9-6.4,13.4-0.4,25.5c10.6,21.7,66.5,59.2,114.1,89.5c3.3,2.1,6,3.8,7.4,4.7
	c24.9,16.4,66.3,40.9,98.3,58.2c29.4,15.9,56.2,23.6,81.6,23.6c2.7,0,5.3-0.1,8-0.2c27.2-1.8,47.5-12.5,60.4-20.4
	c56.3-34.6,85.5-45.3,116.9-52.2c9.5-2.1,16.6-1.8,19.8,0.9c4.1,3.4,4,12.4,3.9,19c0,1.7,0,3.3,0,4.7c0.8,30.8,23.5,30.8,30.9,30.8
	h0.7c14.5,0,38.6,1.1,59.8,2c10,0.4,19.4,0.8,26.4,1.1c74.4,2.5,298.8,6.1,301.1,6.1h0.6c60.7-2.3,82.1-22.7,101-40.6
	c3.9-3.7,7.5-7.1,11.5-10.4c28.7-23.8,61.4-33.5,97.4-28.5c6.6,0.9,16.1,2.4,26.2,4.1c11.8,1.9,24,3.9,32.1,4.9
	c55.6,7.1,73.2-4.5,91.8-16.7l1.5-1c18.8-12.2,31.3-11.6,43.5-11c1.2,0.1,2.4,0.1,3.5,0.2l0,0l15.8,0.5c18.4,0.6,41.4,1.3,54.5,2.1
	c8.2,0.5,16.8,3.5,34.2,16.9c8.2,6.3,24,16.2,34.4,22.8l4.3,2.7c6,3.8,15.3,6.5,25,6.5c5.4,0,10.8-0.9,15.9-2.7
	c11.8-4.3,20.2-13.2,24.2-25.8c1.2-3.8,3.8-11.5,7.6-22.9C1741.9,724.1,1740,711.3,1732.8,701.2z"/>
</svg>
