<?xml version="1.0" encoding="utf-8"?>
<!-- Generator: Adobe Illustrator 27.0.0, SVG Export Plug-In . SVG Version: 6.00 Build 0)  -->
<svg version="1.1" id="Layer_1" xmlns="http://www.w3.org/2000/svg" xmlns:xlink="http://www.w3.org/1999/xlink" x="0px" y="0px"
	 viewBox="0 0 1920 1080" style="enable-background:new 0 0 1920 1080;" xml:space="preserve">
<style type="text/css">
	svg {height: 100%;width: 100%;}.track-surface {fill: none;stroke: white;stroke-width: 30;}
</style>
<path class="track-surface" d="M1660.1,470.1c-2.4-135.9-69.2-218.5-124.8-263.8c-32.9-26.8-70.6-48.1-111.8-63.2
	c-37.1-13.6-75.4-21.2-110.7-22.3c-170.2-5.1-562.8-8.6-739.2,2.6c-120,7.6-194.1,68.8-235.1,118.9c-23.7,28.9-43.5,63-57.1,98.3
	c-12.4,32.1-19.7,64.7-21.1,94.2c-3.7,78.7,12.3,149.4,47.4,210.2c34.5,59.7,79.9,96.4,111.9,116.7l0,0
	c58.8,37.3,209,128.4,333.2,170.3c68.8,23.2,138.8,32,201.5,32c54.2,0,102.9-6.5,140.6-16.2c184-46.8,297.2-117.5,372.1-164.2
	c5-3.1,9.7-6.1,14.3-8.9c56.1-34.8,102.3-81.4,133.4-135.1C1645.5,586.9,1661.1,528.2,1660.1,470.1z"/>
</svg>
