<?xml version="1.0" encoding="utf-8"?>
<!-- Generator: Adobe Illustrator 27.0.0, SVG Export Plug-In . SVG Version: 6.00 Build 0)  -->
<svg version="1.1" id="Layer_1" xmlns="http://www.w3.org/2000/svg" xmlns:xlink="http://www.w3.org/1999/xlink" x="0px" y="0px"
	 viewBox="0 0 1920 1080" style="enable-background:new 0 0 1920 1080;" xml:space="preserve">
<style type="text/css">
	.track-surface{fill:none;stroke:#231F20;stroke-width:20;stroke-miterlimit:10;}
</style>
<path class="track-surface" d="M1700.9,551.9c-13.8-50.1-44.5-97.6-91.2-141.7c-42-39.6-86.8-66.2-109.8-78.6c-5.5-3-11.7-6.3-18.5-10
	c-41.4-22.3-104-56.1-138.3-73.3c-51.9-26.1-147.5-71.2-198.1-88.3c-79-26.6-178.2-33.2-272.2-18.1
	c-92.8,14.8-271.7,45.7-356.7,65.4c-34.3,7.8-83.8,20.6-118.1,40.4C320.1,292.3,262.5,358,231.2,437.8c-25.4,65-32,136.5-18.1,196.2
	c24.4,104.5,44.5,138.5,96.6,194.1c36.1,38.6,83.5,68.4,140.7,88.5c42.6,14.9,89.7,23.7,129.4,24c204.3,1.5,343,2.8,444.5,3.8
	c108.1,1,173.1,1.6,228.7,1.6c54.9,0,100.6-0.6,169.4-2.1c53-1.1,104.5-14.9,148.9-40.2c37.1-21,68.1-49,87.1-78.9
	C1713.7,738,1727.7,648.7,1700.9,551.9z"/>
</svg>
