<?xml version="1.0" encoding="utf-8"?>
<!-- Generator: Adobe Illustrator 27.0.0, SVG Export Plug-In . SVG Version: 6.00 Build 0)  -->
<svg version="1.1" id="Layer_1" xmlns="http://www.w3.org/2000/svg" xmlns:xlink="http://www.w3.org/1999/xlink" x="0px" y="0px"
	 viewBox="0 0 1920 1080" style="enable-background:new 0 0 1920 1080;" xml:space="preserve">
<style type="text/css">
	.st0{fill:none;stroke:#231F20;stroke-width:20;stroke-miterlimit:10;}
</style>
<path class="st0" d="M1638.6,558.9c-12-15.3-24.3-26-38.9-33.8c-20-10.8-43.5-15.1-69.7-12.8c-0.4,0-0.9,0.1-1.4,0.1
	c-12.3,0.9-44.9,3.5-67,43.6c-2.4,4.4-4,8.8-5.7,13.7c-3.1,8.7-6.3,17.7-15.2,27.4c-19.6,21.4-72.6,50.7-138.8,43.5
	c-23.2-2.6-79.2-19.3-141.4-66c-14.1-10.6-27.5-24.5-46.1-43.7c-8-8.3-17.2-17.7-27.5-28c-1.4-1.4-2.9-3.1-4.4-4.7
	c-10.6-11.5-25.1-27.3-63.8-26.3c-28.9,0.7-68.7,1.1-111,1.4c-72.4,0.6-154.5,1.3-204.6,4.3c-26.1,1.5-58.6,3.5-90.6,66.9
	c-1.7,3.4-3.6,7.2-5.8,11.3c-12.7,25.3-32,63.5-43.9,84.2c-18.8,32.7-43.7,46.4-73.8,40.7c-20.3-3.8-55.8-20.9-65.4-92
	c-4.2-31,5.4-78.8,31.5-106.2c27.9-29.4,72.8-51.4,123.1-60.3c2.2-0.4,4.2-0.7,6.3-1.1c22-4,41.1-7.5,91.4,1.1
	c1.4,0.2,3,0.5,4.5,0.8c13.5,2.8,32,6.5,59.7-15.4c19.3-15.2,29.2-21.4,90.8-37.6c20.1-5.3,45.1-11.7,71.6-18.6
	c98.9-25.6,234.4-60.5,308-84.9c11.3-3.7,33.8-16.2,38.2-36.7c2-9.2,0.8-23.4-15.8-38.7c-12.6-11.6-53.4-27.3-58-29.1l-0.4-0.1
	c-78.8-26.5-177.7-33.1-271.5-18.1c-92.6,14.8-271,45.6-355.9,65.2c-34.2,7.8-83.6,20.5-117.8,40.3
	c-77.6,44.3-135,109.8-166.2,189.5c-25.4,64.8-32,136.1-18.1,195.7c24.3,104.3,44.4,138.2,96.4,193.7c36,38.3,83.2,67.8,140.3,87.4
	c41.5,14.3,88.5,22.9,128.8,23.7l0,0c160.6,3.2,461.1,4,607.3,3.4c25-0.1,42.2,0.4,56,0.8c8,0.2,14.9,0.4,21.1,0.4
	c15.3,0,27.3-1.2,46.7-6c4.7-1.1,9.9-2.4,15.4-3.7c36.2-8.6,85.6-20.5,135.5-41.1c59.8-24.6,105.8-56.2,137-93.8
	c27-32.7,43.3-64.6,49.5-97.5C1688.7,653,1675,605,1638.6,558.9z"/>
</svg>
