<?xml version="1.0" encoding="utf-8"?>
<!-- Generator: Adobe Illustrator 27.0.0, SVG Export Plug-In . SVG Version: 6.00 Build 0)  -->
<svg version="1.1" id="Layer_1" xmlns="http://www.w3.org/2000/svg" xmlns:xlink="http://www.w3.org/1999/xlink" x="0px" y="0px"
	 viewBox="0 0 1920 1080" style="enable-background:new 0 0 1920 1080;" xml:space="preserve">
<style type="text/css">
	.st0{fill:none;stroke:#231F20;stroke-width:20;stroke-miterlimit:10;}
</style>
<path class="st0" d="M1767.7,244.3c-3.7-53.2-33.3-82.5-57.4-97.7c-30.3-19.1-64.9-24.5-87.3-23.1c-14.6,0.9-41.4,3.4-59.2,5.1
	l-6.9,0.7c-40.1,3.8-53,9.3-62.5,26.4c-8.5,15.4-19.3,19.9-27,21.1c-11.2,1.7-32.5,4-45.1,5.4l-3.8,0.4c-17.8,2-22.5-8.8-23.6-12.1
	c-2.5-8-9.8-21.2-30.6-19c-57.1,6.1-138.2,14.3-224.1,22.9c-114,11.4-231.8,23.2-307.5,31.8c-71.3,8-102.7,17.5-132.8,31.3
	c-92.6,42.2-129.2,90.5-161.5,133.1c-37.6,49.6-56.6,69.6-81.1,85.4c-45.7,29.5-79,34.3-108.4,38.5c-4.2,0.6-8.2,1.2-12.2,1.8
	c-50,8-89.7,29.4-117.7,63.5c-28.1,34.1-36,70.7-38.2,89.4c-5.4,45.6-14.8,121.8-22.4,183c-1.9,15.1-3.6,29.4-5.2,42.2
	c-3.5,28.6,0.9,50.1,13.3,64c16.3,18.4,41.5,18.4,53.6,18.4l70.5-0.2c192.9-0.5,433.1-1,581.4,0.2c0.6,0,1.3,0,1.9,0
	c42.1,0,72.9-11.3,91.7-33.5c13.4-15.8,20.2-36.7,20.5-62.2c0.1-13.6,1.2-134.8-1.6-193.2c-2.9-62.1,38-84.6,62.6-92.6
	c76.9-24.7,220.7-68.1,279-85.6c25.6-7.7,51.6-15.4,79.1-23.6c102.6-30.5,208.7-62,283.1-88.6
	C1756.6,353.1,1770.3,282.3,1767.7,244.3z"/>
</svg>
