<?xml version="1.0" encoding="utf-8"?>
<!-- Generator: Adobe Illustrator 27.0.0, SVG Export Plug-In . SVG Version: 6.00 Build 0)  -->
<svg version="1.1" id="Layer_1" xmlns="http://www.w3.org/2000/svg" xmlns:xlink="http://www.w3.org/1999/xlink" x="0px" y="0px"
	 viewBox="0 0 1920 1080" style="enable-background:new 0 0 1920 1080;" xml:space="preserve">
<style type="text/css">
	svg {height: 100%;width: 100%;}.track-surface {fill: none;stroke: white;stroke-width: 30;}
</style>
<path class="track-surface" d="M1774.5,656.8c-11-43.5-46.4-55.4-75.7-52c-27.2,3.2-61.3,7.4-97.3,11.9c-60,7.5-127.9,16-186.2,22.1l0,0
	c-23.1,2.5-50.9-18.6-57.2-30.9c-19.3-37.7,2.6-69.9,18.6-82.9c46.6-38.1,94.9-85.6,126.8-117l6.4-6.4
	c23.1-22.8,39.2-44.2,49.2-65.4c9-19.3,12.8-38.1,11.4-57.3c-3.3-47-29.4-72.9-50.7-86.3c-26.8-16.9-57.3-21.6-77.1-20.4
	c-12.9,0.8-36.6,3-52.3,4.5l-6.1,0.6c-35.4,3.4-46.8,8.2-55.2,23.3c-7.5,13.6-17,17.6-23.8,18.6c-9.9,1.5-28.7,3.5-39.8,4.8
	l-3.4,0.4c-15.7,1.8-19.9-7.8-20.8-10.7c-2.2-7.1-8.7-18.7-27-16.8c-50.4,5.4-122.1,12.6-197.9,20.2
	c-100.7,10.1-204.7,20.5-271.6,28.1c-63,7.1-90.7,15.5-117.3,27.6c-81.8,37.3-114.1,79.9-142.6,117.5c-33.2,43.8-50,61.5-71.6,75.4
	c-40.4,26.1-69.8,30.3-95.7,34c-3.7,0.5-7.2,1.1-10.8,1.6c-44.2,7.1-79.2,26-103.9,56.1c-24.8,30.1-31.8,62.4-33.7,79
	c-4.7,40.2-13,107.5-19.7,161.5c-1.7,13.3-3.2,26-4.6,37.3c-3.1,25.3,0.8,44.2,11.7,56.5C171,908,193.2,908,203.9,908l62.3-0.2
	c170.4-0.4,382.5-0.9,513.5,0.2c0.5,0,1.1,0,1.7,0c37.2,0,64.4-10,81-29.6c11.8-14,17.8-32.4,18.1-54.9c0.1-12,1.1-119-1.4-170.6
	c-2.7-58.5,37.6-76.6,55.1-81.7c22.9-6.6,51-15.5,80.6-24.9c57.3-18.1,122.3-38.7,165.3-48c20-4.3,34.7-1.5,43.5,8.3
	c11.7,13.2,12.2,38.1,6.5,54.9c-9.5,28.6-29.8,80.5-58.5,150.1c-8.2,19.9-12.2,37.6-11.9,52.7c0.3,14,4.2,25.8,11.5,35.1
	c14.9,18.9,39.7,22.6,56.4,20c28.4-4.5,64.7-10.2,103.2-16.3c119-18.9,267.2-42.4,351.7-54.8c49.1-7.2,72.1-27.6,82.7-43.5
	C1775.2,690.2,1778.5,672.6,1774.5,656.8z"/>
</svg>
