<?xml version="1.0" encoding="utf-8"?>
<!-- Generator: Adobe Illustrator 27.0.0, SVG Export Plug-In . SVG Version: 6.00 Build 0)  -->
<svg version="1.1" id="Layer_1" xmlns="http://www.w3.org/2000/svg" xmlns:xlink="http://www.w3.org/1999/xlink" x="0px" y="0px"
	 viewBox="0 0 1920 1080" style="enable-background:new 0 0 1920 1080;" xml:space="preserve">
<style type="text/css">
	.st0{fill:none;stroke:#231F20;stroke-width:20;stroke-miterlimit:10;}
</style>
<path class="st0" d="M1747.9,653c-5.2-20.6-16.7-35.8-33.1-43.9c-15.6-7.8-31.8-7.3-40.1-6.4c-26.3,3.1-59.3,7.2-94.1,11.5
	c-58,7.3-123.7,15.5-180.2,21.4c-22.4,2.4-49.2-18-55.4-29.9c-18.5-36.5,2.6-67.6,18-80.2c45.1-36.8,91.8-82.8,122.7-113.2l6.2-6.2
	c22.4-22,37.9-42.7,47.6-63.2c8.7-18.7,12.4-36.8,11-55.4c-3.2-45.5-28.5-70.5-49-83.5c-25.9-16.3-55.5-20.9-74.6-19.7
	c-12.6,0.8-35.6,3-50.9,4.4l-5.6,0.5L1206,206.4l0,0c-40.5,4.4-95.9,10.2-154.7,16.4c-106.1,11-226.4,23.7-299.4,32
	c-60.9,6.8-87.7,15-113.5,26.7c-79.1,36.1-110.4,77.3-138,113.7c-32.1,42.4-48.4,59.5-69.3,73c-39,25.2-67.5,29.3-92.6,32.9
	c-3.6,0.5-7,1-10.4,1.5c-42.7,6.8-76.6,25.1-100.6,54.3c-24,29.1-30.8,60.4-32.6,76.4c-4.6,39-12.6,104.1-19.1,156.3
	c-1.6,12.9-3.1,25.1-4.4,36.1c-3,24.4,0.8,42.8,11.4,54.7c13.9,15.7,35.5,15.7,45.8,15.7l60.2-0.2c164.8-0.4,370-0.9,496.7,0.2
	c0.5,0,1.1,0,1.6,0c36,0,62.3-9.7,78.3-28.6c11.4-13.5,17.3-31.4,17.5-53.1c0.1-11.6,1-115.1-1.4-165.1c-2.6-56.6,36.4-74.1,53.3-79
	c22-6.4,49.1-15,77.8-24c55.5-17.6,118.4-37.4,160.2-46.5c19.4-4.2,33.6-1.5,42.1,8c11.4,12.7,11.8,36.8,6.3,53.1
	c-9.2,27.7-28.8,77.9-56.6,145.2c-7.9,19.2-11.8,36.4-11.5,51c0.3,13.5,4,24.9,11.1,34c14.4,18.3,38.4,21.9,54.6,19.3
	c27.4-4.4,62.5-9.9,99.6-15.7c115.3-18.3,258.6-41,340.4-53c47.5-6.9,69.7-26.7,80-42C1748.5,685.3,1751.8,668.2,1747.9,653z"/>
</svg>
