<?xml version="1.0" encoding="utf-8"?>
<!-- Generator: Adobe Illustrator 27.0.0, SVG Export Plug-In . SVG Version: 6.00 Build 0)  -->
<svg version="1.1" id="Layer_1" xmlns="http://www.w3.org/2000/svg" xmlns:xlink="http://www.w3.org/1999/xlink" x="0px" y="0px"
	 viewBox="0 0 1920 1080" style="enable-background:new 0 0 1920 1080;" xml:space="preserve">
<style type="text/css">
	svg {height: 100%;width: 100%;}.track-surface {fill: none;stroke: white;stroke-width: 30;}
</style>
<path class="track-surface" d="M1673.3,278.9c-3.3-47-29.4-72.9-50.7-86.3c-26.8-16.9-57.4-21.6-77.1-20.4c-14.2,0.9-43.1,3.4-58.5,5.1
	c-24.6,2.6-62.6,7.1-99.4,11.4c-27,3.2-52.5,6.2-70.6,8.2l0,0c-57.1,6.4-144,15-228.1,23.4c-89.1,8.9-181.2,18.1-241.4,24.8
	c-63,7.1-90.7,15.5-117.3,27.6c-81.8,37.3-114.1,79.9-142.6,117.5c-33.2,43.8-50,61.5-71.6,75.4c-40.4,26.1-69.8,30.3-95.7,34
	c-3.7,0.5-7.2,1.1-10.8,1.6c-44.2,7.1-79.2,26-103.9,56.1c-24.8,30.1-31.8,62.4-33.7,79c-4.8,40.4-13.1,107.6-19.7,161.6
	c-1.7,13.3-3.2,26-4.6,37.3c-3.1,25.3,0.8,44.2,11.7,56.5c14.4,16.3,36.7,16.3,47.3,16.3l62.3-0.2c170.4-0.4,382.5-0.9,513.5,0.2
	c0.5,0,1.1,0,1.7,0c37.2,0,64.4-10,81-29.6c11.8-14,17.8-32.4,18.1-54.9c0.1-12,1.1-119-1.4-170.6c-2.6-54.8,33.6-74.7,55.3-81.8
	c67.9-21.8,194.9-60.1,246.4-75.6c22.6-6.8,45.5-13.6,69.9-20.8c90.6-26.9,184.4-54.8,250.1-78.2
	C1663.5,374.9,1675.6,312.4,1673.3,278.9z"/>
</svg>
