<?xml version="1.0" encoding="utf-8"?>
<!-- Generator: Adobe Illustrator 27.0.0, SVG Export Plug-In . SVG Version: 6.00 Build 0)  -->
<svg version="1.1" id="Layer_1" xmlns="http://www.w3.org/2000/svg" xmlns:xlink="http://www.w3.org/1999/xlink" x="0px" y="0px"
	 viewBox="0 0 1920 1080" style="enable-background:new 0 0 1920 1080;" xml:space="preserve">
<style type="text/css">
	.track-surface{fill:none;stroke:#231F20;stroke-width:20;stroke-miterlimit:10;}
</style>
<path class="track-surface" d="M1755.7,392.5c-20.2-47.9-48.7-90.9-84.7-127.7c-32.4-33.2-70.8-60.7-111.1-79.5
	c-38.5-18.2-78.2-28.2-114.6-29.3c-336.5-9.4-727.4-7.7-948.2-2.1c-53.4,1.3-104.3,14.1-151.4,37.7c-42.9,21.5-81.4,51.4-114.6,89
	c-61.1,69.1-98.8,159.8-101,242.7c-1.5,58.8,7.6,113.6,27.2,162.9c17.4,43.8,43.1,83.3,76.5,117.6c38.2,39.3,86.7,71.6,140.3,93.5
	c45.4,18.5,92.2,28.7,131.7,28.8l0,0c248.8,0.4,416.4,1.7,551.1,2.9c104.6,0.8,192.7,1.5,285.7,1.5c30.9,0,62.4-0.1,95.1-0.2
	c50.8-0.3,98.1-9.6,140.6-27.8c38.5-16.5,73.2-40.2,103.2-70.5c35.3-35.8,64-81.2,83-131.4c16.7-44.2,25.9-92.1,25.5-134.8
	C1789.7,504,1778.1,445.8,1755.7,392.5z"/>
</svg>
