<?xml version="1.0" encoding="utf-8"?>
<!-- Generator: Adobe Illustrator 27.0.1, SVG Export Plug-In . SVG Version: 6.00 Build 0)  -->
<svg version="1.1" id="Road_Long__Config" xmlns="http://www.w3.org/2000/svg" xmlns:xlink="http://www.w3.org/1999/xlink" x="0px"
	 y="0px" viewBox="0 0 1920 1080" style="enable-background:new 0 0 1920 1080;" xml:space="preserve">
<style type="text/css">
	.st0{fill:none;stroke:#FFFFFF;stroke-width:30;stroke-miterlimit:10;}
</style>
<path class="st0" d="M1620.2,295c-17.7-14.9-39.2-20.7-54.1-23c-24.8-3.9-57.3-7.8-91.6-11.8c-32.1-3.7-65.4-7.8-91.5-11.8
	c-50.6-7.8-79.7,6.2-101.4,20.6c-9,5.9-19.8,13.2-31.8,21.1c-40.9,27.2-92,61-120.8,81.9c-36.9,26.9-60.9,15.8-81.9,6l-0.5-0.3
	c-31.8-14.7-68.9-33.2-108.1-52.8c-65.6-32.8-133.5-66.6-186.2-87.5c-30-11.9-61.4-9.5-90.7,6.8c-37.2,20.6-61.8,58.5-65.3,77.9l0,0
	c-1.7,9.4-3.1,17.3-4.1,24.4c-3.3,20.3-5.2,31.6-10.3,41.6c-11.1,21.9-40.5,31.4-87.4,28.4c-26.9-1.7-71-2.8-96.3-2.3
	c-56.1,1.2-75.5,32-82,57.5c-3.1,12-7.4,27.6-12,44.2c-14.9,52.7-33.2,118.4-34.8,157.9c-2.8,73.1,27.6,115.1,53.5,137.4
	c29.8,25.6,66.4,36.7,90.7,38.4c4.3,0.3,8.6,0.4,12.8,0.4c42,0,83-14.7,111.3-40.7c19.4-17.8,30.4-38.4,30.8-58.1l0.4-21.7
	c0.7-33.2,1.6-78.7,2.3-103.8c0.5-18.3,5.6-32.2,15.4-41.3c14.6-13.6,35.6-12.8,35.7-12.8h0.4l141.7-1.6
	c118.8,2.5,277.5,2.9,445.5,3.5c84.7,0.3,172.3,0.5,261.4,1.1c0.4,0,0.8,0,1.2,0c41.6,0,83.5-12.7,118-36
	c34.1-22.9,55.3-52.3,58.3-80.7c2-18.3,2-48,2.1-71.7c0-6.8,0-13.1,0.1-18.2C1651.4,336.9,1641,312.4,1620.2,295z"/>
</svg>
