<?xml version="1.0" encoding="utf-8"?>
<!-- Generator: Adobe Illustrator 27.0.1, SVG Export Plug-In . SVG Version: 6.00 Build 0)  -->
<svg version="1.1" id="Road_Short__Config" xmlns="http://www.w3.org/2000/svg" xmlns:xlink="http://www.w3.org/1999/xlink" x="0px"
	 y="0px" viewBox="0 0 1920 1080" style="enable-background:new 0 0 1920 1080;" xml:space="preserve">
<style type="text/css">
	.track-surface{fill:none;stroke:#FFFFFF;stroke-width:30;stroke-miterlimit:10;}
</style>
<path class="track-surface" d="M1629.5,396.5c-23.7-19.9-52.6-27.8-72.5-30.9c-33.2-5.2-76.8-10.4-122.9-15.8c-43.1-5-87.7-10.4-122.7-15.8
	c-67.8-10.4-106.9,8.3-136,27.6c-12,7.9-26.6,17.8-42.7,28.3c-54.9,36.4-123.4,81.8-162,109.8c-49.5,36.1-81.6,21.2-109.8,8.1
	l-0.7-0.4c-42.7-19.7-92.4-44.5-145-70.9c-87.9-44-179.1-89.4-249.8-117.3c-38-15.1-75.7-14.4-112,2.2
	C302,345,268.1,395,258.9,421.1c-22.6,63.7-2.7,136.7,21.2,180c19.4,35.2,46.8,67.6,66.7,91.3c3.2,3.8,6.1,7.4,8.8,10.6
	c32.5,39.3,94.9,61.9,125.8,62.4c157.7,3.4,367.8,3.9,590.5,4.7c115.9,0.4,235.9,0.7,358,1.4c0.5,0,1.1,0,1.6,0
	c55.8,0,112-17,158.3-48.3c45.6-30.7,74.1-70.2,78.2-108.2c2.7-24.6,2.7-64.4,2.9-96.2c0-9.2,0-17.6,0.2-24.4
	C1671.4,452.6,1657.5,419.8,1629.5,396.5z"/>
</svg>
