<?xml version="1.0" encoding="utf-8"?>
<!-- Generator: Adobe Illustrator 27.0.1, SVG Export Plug-In . SVG Version: 6.00 Build 0)  -->
<svg version="1.1" id="Road_Combined__Config" xmlns="http://www.w3.org/2000/svg" xmlns:xlink="http://www.w3.org/1999/xlink"
	 x="0px" y="0px" viewBox="0 0 1920 1080" style="enable-background:new 0 0 1920 1080;" xml:space="preserve">
<style type="text/css">
	.st0{fill:none;stroke:#FFFFFF;stroke-width:30;stroke-miterlimit:10;}
</style>
<path class="st0" d="M1663.4,470.3c-2.4-136.4-69.5-219.3-125.3-264.8c-33-26.9-70.8-48.2-112.2-63.4
	c-37.2-13.6-75.7-21.3-111.1-22.4c-11.8-0.4-23.3-0.7-34.7-1.1c-155.8-4.7-290.4-8.9-571.1,3.7c-4.2,0.2-12.1,0.6-18.2,7.1
	c-5.5,6-8.1,15.4-8.1,29.7c0,13.2,1.6,24,5,33.1c4.6,12.4,19.2,25.9,39.1,36.1c55.4,28.6,144.1,71.9,197.7,96.6
	c23.4,10.7,45.7,9.6,66.5-3.2c16.6-10.3,40.3-27.9,63.2-44.9c19.4-14.5,37.8-28.1,51.1-36.9c15.7-10.3,35.9-13.8,61.6-10.7
	c20.1,2.4,40.9,5.6,61.2,8.6c22,3.3,44.7,6.8,65.8,9.2c30.3,3.5,46.5,20.7,48,51.5c1.4,28,1.3,46.9-0.3,56.1
	c-5.9,35.3-45.7,71-110.5,71c-60.9,0-147.5-0.7-239.2-1.4c-100.1-0.8-203.4-1.6-271-1.4h-0.1c-17.5,0-43.9-10.5-60.7-33.8
	c-6.7-9.2-22.3-30.8-27.9-40.3l-1.2-1.9c-6.7-11.4-12-20.4-15.3-51.4c-0.8-6.8-1-16.9-1.3-27.6c-0.3-13-0.6-26.5-1.9-35.6
	c-1.3-9-7.9-18.1-17.7-24.4c-8.3-5.3-26.2-13.1-52.8-5.1c-5,1.5-10.4,3.1-16.3,4.8c-38.8,11.6-92.1,27.4-121,39.7
	c-42.3,17.9-82.3,46.3-98.6,63.9c-27.7,29.9-47.1,92.3-48.8,123.8c-4.3,78.8,11.7,149.8,47.5,211c34.8,59.5,80.9,96.6,113.3,117.1
	c59.1,37.4,209.8,128.9,334.5,170.9c69.1,23.3,139.3,32.1,202.3,32.1c54.4,0,103.3-6.6,141.1-16.2c184.6-47,298.2-117.8,373.4-164.7
	c5-3.1,9.8-6.2,14.5-9.1c56.4-34.9,102.7-81.7,133.9-135.6C1648.6,587.5,1664.3,528.7,1663.4,470.3z"/>
</svg>
