<?xml version="1.0" encoding="utf-8"?>
<!-- Generator: Adobe Illustrator 27.0.0, SVG Export Plug-In . SVG Version: 6.00 Build 0)  -->
<svg version="1.1" id="Layer_1" xmlns="http://www.w3.org/2000/svg" xmlns:xlink="http://www.w3.org/1999/xlink" x="0px" y="0px"
	 viewBox="0 0 1920 1080" style="enable-background:new 0 0 1920 1080;" xml:space="preserve">
<style type="text/css">
	.st0{fill:none;stroke:#231F20;stroke-width:20;stroke-miterlimit:10;}
</style>
<path class="st0" d="M1410.2,908H522.8c-88.7,0-156.2-29-197.1-53.4c-50.2-29.9-90.5-70.3-110.5-111
	c-20.7-42.2-33.6-95.4-35.4-145.9c-2.3-65.2,14.1-123,47.2-167.4c37.6-50.4,84.1-88.6,138.3-113.6c45.7-21.1,87.4-28.5,114.8-32.3
	c42.4-5.8,536.9-67,774.4-96.5c58.7-7.3,100.7-12.4,114.4-14.2c37.5-4.7,78.9,0,119.7,13.5c42.1,14,82.4,36.5,119.8,67.1
	C1685,317,1730.3,404.7,1739.2,508c4.4,50.7-3.6,106.6-23.2,161.7c-19,53.7-48.4,103.3-82.8,139.5c-33.8,35.7-69.6,61-109.4,77.4
	C1488.9,901,1451.7,908,1410.2,908z"/>
</svg>
