<?xml version="1.0" encoding="utf-8"?>
<!-- Generator: Adobe Illustrator 27.0.0, SVG Export Plug-In . SVG Version: 6.00 Build 0)  -->
<svg version="1.1" id="Layer_1" xmlns="http://www.w3.org/2000/svg" xmlns:xlink="http://www.w3.org/1999/xlink" x="0px" y="0px"
	 viewBox="0 0 1920 1080" style="enable-background:new 0 0 1920 1080;" xml:space="preserve">
<style type="text/css">
	svg {height: 100%;width: 100%;}.track-surface {fill: none;stroke: white;stroke-width: 30;}
</style>
<path class="track-surface" d="M1679.5,474.4c-14.5-17.1-35-29.5-59.3-36.2c-64.5-17.5-154.9-30.1-248.3-34.4l0,0
	c-54.2-2.6-102.9,6-130.1,22.8c-63.9,39.6-82,47-120,49.2c-53,3-98.5,2-131.6-3.1c-58.9-9-84-32-108.6-58.9
	c-31-33.9-61.5-49.2-105.3-53c-41.5-3.6-59-4.1-102.3-1.4l-3.6,0.3c-20.1,1.2-42.9,2.6-81.4,12c-5.2,1.2-126.7,30.9-167,46.7
	c-2.5,1-5.2,2-7.9,3c-29.1,11.3-73,28.3-105.7,51c-42.2,29.2-69.3,57.8-82.7,87.3c-10.9,24.3-12.7,49.6-5.3,77.2
	c14.1,52.9,70.2,77.9,103.7,78.2l76.6,0.7c199.9,1.6,502,4.2,665,6.7c0.5,0,1,0,1.5,0c29.1,0,55.7-13.3,86.1-42.8
	c27.5-26.8,60.8-55.1,110.3-52.9c35.8,1.6,91.3,5.3,134.9,9.2l1.6,0.1c18.3,1.6,32.8,2.9,74.9,14.8c40,11.5,107.1,30.7,163.5,0.3
	c27.3-14.8,63.8-41.3,65.4-101.5C1704.9,519.9,1696.6,494.6,1679.5,474.4z"/>
</svg>
