<?xml version="1.0" encoding="utf-8"?>
<!-- Generator: Adobe Illustrator 27.0.0, SVG Export Plug-In . SVG Version: 6.00 Build 0)  -->
<svg version="1.1" id="Layer_1" xmlns="http://www.w3.org/2000/svg" xmlns:xlink="http://www.w3.org/1999/xlink" x="0px" y="0px"
	 viewBox="0 0 1920 1080" style="enable-background:new 0 0 1920 1080;" xml:space="preserve">
<style type="text/css">
	.st0{fill:none;stroke:#231F20;stroke-width:20;stroke-miterlimit:10;}
</style>
<path class="st0" d="M1572.5,307.1c-22.8-65.7-90-103-189.9-104.8c-52.8-1-146.2,0.8-153.9,1c-60.8-0.5-121.6,6.7-180.8,21.2
	C1038,226.9,808,283,731.7,313c-4.7,1.8-9.8,3.9-15,5.7c-55.1,21.5-138.1,53.6-200.2,96.5C436.5,470.6,385.3,524.6,360,580.5
	c-20.7,46-24.1,93.9-10.1,146.2c26.6,99.9,132.7,147.5,196.1,148c10.3,0.3,166.1,3.4,287.9,3.4c42.4,0,80.5-0.3,107.1-1.3
	c68.3-2.6,181.9-52.5,195.1-175.4c4.1-37.8,27.9-160.4,161.7-154.7c30.8,1.3,90,0.3,141-20.2c66.5-26.6,100.6-69.6,117.7-100.9
	C1578.7,386,1584.4,341.7,1572.5,307.1z"/>
</svg>
