<?xml version="1.0" encoding="utf-8"?>
<!-- Generator: Adobe Illustrator 27.0.0, SVG Export Plug-In . SVG Version: 6.00 Build 0)  -->
<svg version="1.1" id="Layer_1" xmlns="http://www.w3.org/2000/svg" xmlns:xlink="http://www.w3.org/1999/xlink" x="0px" y="0px"
	 viewBox="0 0 1920 1080" style="enable-background:new 0 0 1920 1080;" xml:space="preserve">
<style type="text/css">
	.track-surface{fill:none;stroke:#231F20;stroke-width:20;stroke-miterlimit:10;}
</style>
<path class="track-surface" d="M1538.6,320.4c-114.9-31.2-276.1-53.6-442.5-61.4c-48-2.2-166.8-2.7-232.6,41.2c-96.9,64.5-123,75.2-214.8,87.4
	c-37.3,5.1-110.8,18.8-186,54.1l-4.6,2.2c-50.7,23.9-126.9,59.7-167.5,97.2c-32.9,30.4-74,98.9-52.8,162.7
	C249,737.3,287,815.9,398.5,820.8c16.8,0.7,40.4,1,64.5,1c32.9,0,67.5-0.7,89.6-2.2l0,0c60.6-4.1,97.6-20.5,152.7-67.7
	c5.8-5.1,11.7-10.2,17.5-15.3c48-42.1,93.3-82.1,180.4-79.9c65.7,1.7,158.3,9.3,240.1,16.3l2.9,0.2c32.6,2.9,58.4,5.1,133.4,26.3
	c71.3,20.5,191.2,54.5,291.5,0.5c48.7-26.3,113.7-73.5,116.6-180.9C1690.8,420.9,1635.1,346.4,1538.6,320.4z"/>
</svg>
