<?xml version="1.0" encoding="utf-8"?>
<!-- Generator: Adobe Illustrator 27.0.1, SVG Export Plug-In . SVG Version: 6.00 Build 0)  -->
<svg version="1.1" id="Oval_-_Config" xmlns="http://www.w3.org/2000/svg" xmlns:xlink="http://www.w3.org/1999/xlink" x="0px"
	 y="0px" viewBox="0 0 1920 1080" style="enable-background:new 0 0 1920 1080;" xml:space="preserve">
<style type="text/css">
	.st0{fill:none;stroke:#FFFFFF;stroke-width:30;stroke-miterlimit:10;}
</style>
<path class="st0" d="M1507.4,409.5c-22.1-70-62.1-129.2-119-176c-45.5-37.5-101.9-67-167.6-87.8c-74.5-23.6-158.6-35.5-250-35.5
	h-3.9c-67.2,0-129.3,5-184.6,14.8c-56,9.9-106.8,25.1-151,45.1c-90,40.9-156.2,103.3-196.7,185.6c-42.2,86-51.5,185.6-26.1,280.5
	c20.9,77.9,57.9,143.5,110.2,195.1c43.5,42.9,97.8,76.3,161.4,99.4c99.9,36.2,200.5,39.2,258.7,39.2c6.4,0,12.2,0,17.5-0.1
	c4.2,0,7.9,0,11.3,0h0.2c191.5-0.7,337.4-47.9,433.6-140.1c37.5-36,67.4-79.1,88-126.8c16-37.3,26.8-76.6,32.2-116.8
	C1529.9,526.1,1524.9,465.1,1507.4,409.5z"/>
</svg>
