<?xml version="1.0" encoding="utf-8"?>
<!-- Generator: Adobe Illustrator 27.0.0, SVG Export Plug-In . SVG Version: 6.00 Build 0)  -->
<svg version="1.1" id="Layer_1" xmlns="http://www.w3.org/2000/svg" xmlns:xlink="http://www.w3.org/1999/xlink" x="0px" y="0px"
	 viewBox="0 0 1920 1080" style="enable-background:new 0 0 1920 1080;" xml:space="preserve">
<style type="text/css">
	.st0{fill:none;stroke:#231F20;stroke-width:20;stroke-miterlimit:10;}
</style>
<path class="st0" d="M1684.7,480.1c-3-57.2-17.8-109.4-44.2-155.2c-23.1-40.2-54.8-75.3-94.4-104.4c-34.3-25.2-73.2-45.1-115.8-59.2
	c-37.2-12.3-75.1-19.4-109.7-20.5c-109.2-3.5-289.4-3.8-448.5-4c-82.8-0.1-161-0.2-218.5-0.7c-54.8-0.6-160.6,6.7-253.2,61.5
	c-46.8,27.9-84.5,64.5-111.7,109.1C257.1,358.3,239,421,234.9,493.3l0,0c-0.7,12.1-2.3,76.2,32.2,150.9
	c17.6,37.9,41.6,72.5,71.7,102.6c36.1,36.2,81,66.4,133.5,89.6c53.1,23.4,158.2,60.1,237.1,86.7c48.5,16.4,57.7,16.8,70.5,17.5
	l2.2,0.1c42.8,2.3,106.8,3.3,170.5,3.3c62.6,0,124.9-0.8,166.6-2.1c39.2-1.1,56.9-3.3,75.4-9.6c63.2-21.1,176-59.6,222.3-80.6
	c56.9-25.8,105.2-55.2,143.6-87.1c34.9-28.9,62.6-60.9,82.6-95C1675.3,614.7,1688.5,554.5,1684.7,480.1z"/>
</svg>
