<?xml version="1.0" encoding="utf-8"?>
<!-- Generator: Adobe Illustrator 27.0.0, SVG Export Plug-In . SVG Version: 6.00 Build 0)  -->
<svg version="1.1" id="Layer_1" xmlns="http://www.w3.org/2000/svg" xmlns:xlink="http://www.w3.org/1999/xlink" x="0px" y="0px"
	 viewBox="0 0 1920 1080" style="enable-background:new 0 0 1920 1080;" xml:space="preserve">
<style type="text/css">
	.track-surface{fill:none;stroke:#231F20;stroke-width:20;stroke-miterlimit:10;}
</style>
<path class="track-surface" d="M1687.9,480c-3-57.4-17.9-109.9-44.4-155.9c-23.2-40.4-55.1-75.6-94.9-104.9c-34.5-25.3-73.6-45.3-116.3-59.5
	c-37.3-12.3-75.4-19.4-110.2-20.6c-1.4-0.1-142.1-5.4-249.6-2.8c-19.5,0.5-35.1,6.8-46.3,18.9c-17.6,18.9-17.8,44.6-17.5,52.1
	c0.8,19.3,10,34.9,26.4,45.1c16.7,10.4,34.4,11.2,39.3,11.2c22.3,0,57.5,0.7,88.6,1.3c18.5,0.4,35.9,0.7,49.1,0.8
	c54.9,0.7,124.3,12,165.5,22c13.4,3.3,44.4,15.5,43.2,57.6c-0.8,31-18.1,44.4-34.9,53.5c-31.7,17.1-73.1,5.3-97.8-1.7
	c-30.4-8.7-41.6-9.6-54.7-10.7l-1.1-0.1c-30.1-2.6-68.3-5.1-93-6.3c-39.2-1.8-66,18.9-89.2,41.4c-22.1,21.5-36.4,24.1-46.5,23.9
	c-111.4-1.7-317.8-3.4-454.4-4.6l-52.5-0.5c-17.4-0.2-46.2-14.3-53-39.6c-6.3-23.3-4.8-52.5,52.7-92.2l0,0
	c20.7-14.3,49.6-25.5,68.6-32.9c1.9-0.7,3.5-1.4,5.2-2.1c26.4-10.4,110.8-31,111.7-31.2c27.4-6.7,41.7-7.1,54.1-6.9
	c17.6,0.3,46.8,0.2,72.5,0.1c18.4-0.1,35.8-0.1,47.1-0.1c0.3,0,0.6,0,0.7,0c20.9,0,36.7-5.3,47-15.8c10.8-11,12.8-25,12.5-34.7
	c-0.9-33.3-34-47.4-55.9-48.7c-54.7-3.4-200.7-2-208.1-1.9c-55.1-0.6-161.3,6.8-254.2,61.8c-47,28-84.8,64.8-112.1,109.6
	c-31.7,51.8-49.9,114.8-54,187.5c-0.7,12.1-2.3,76.6,32.3,151.6c17.6,38.1,41.8,72.8,72,103.1c36.2,36.4,81.3,66.7,134.1,90
	c53.3,23.5,158.9,60.4,238.2,87.1c48.7,16.4,58,16.9,70.8,17.6l2.2,0.1c43,2.3,107.3,3.3,171.2,3.3c62.9,0,125.5-0.8,167.3-2.1
	c39.4-1.1,57.1-3.4,75.7-9.6c63.6-21.2,177.2-59.9,223.3-81c57.1-26,105.7-55.5,144.3-87.5c35-29,62.9-61.2,83-95.4
	C1678.5,615.2,1691.8,554.7,1687.9,480z"/>
</svg>
