<?xml version="1.0" encoding="utf-8"?>
<!-- Generator: Adobe Illustrator 27.0.1, SVG Export Plug-In . SVG Version: 6.00 Build 0)  -->
<svg version="1.1" id="Chicagoland_Config" xmlns="http://www.w3.org/2000/svg" xmlns:xlink="http://www.w3.org/1999/xlink" x="0px"
	 y="0px" viewBox="0 0 1920 1080" style="enable-background:new 0 0 1920 1080;" xml:space="preserve">
<style type="text/css">
	.st0{fill:none;stroke:#FFFFFF;stroke-width:30;stroke-miterlimit:10;}
</style>
<path class="st0" d="M1622.7,458.2c-5.4-67.9-35.6-133.4-84.8-184.3c-29.4-30.4-65.6-56.1-107.7-76.2c-46.7-22.2-101-38-161.6-46.7
	c-186.2-30-399.1-26.5-524.9-14.4c-34.5,3.3-80.3,8.4-127.7,18.5C561.5,166.7,513.4,183,473,203.7
	c-110.3,56.3-169.7,147-176.6,269.9c-1.9,33.9,2,67.6,11.8,100c11.3,38,30.6,74.7,57.3,109.1c64.1,82.2,171.3,152.7,318.7,209.1
	c39.3,15,81.4,30.7,126.6,42.2c47.8,12.2,93.3,18.2,138.8,18.2c1.4,0,2.8,0,4.1,0h5c51-0.4,91.3-0.7,150.2-16.2
	c62.8-16.5,141.6-49.1,255.3-105.9c40.4-20.2,115.7-57.7,173.1-119.2c29.9-32,52.4-67.6,66.7-105.9
	C1620.7,560.5,1627,511,1622.7,458.2z"/>
</svg>
