<?xml version="1.0" encoding="utf-8"?>
<!-- Generator: Adobe Illustrator 27.0.0, SVG Export Plug-In . SVG Version: 6.00 Build 0)  -->
<svg version="1.1" id="Layer_1" xmlns="http://www.w3.org/2000/svg" xmlns:xlink="http://www.w3.org/1999/xlink" x="0px" y="0px"
	 viewBox="0 0 1920 1080" style="enable-background:new 0 0 1920 1080;" xml:space="preserve">
<style type="text/css">
	.track-surface{fill:none;stroke:#231F20;stroke-width:20;stroke-miterlimit:10;}
</style>
<path class="track-surface" d="M1756,488.4c-0.7-48.3-13.1-140.7-88.1-216.6c-34.1-34.4-77.2-61.5-128.3-80.6c-56.9-21.2-124.4-32.6-200.7-34
	c-156.7-2.7-424.7-2.7-640.1-2.7c-46.8,0-90.9,0-130.2,0c-0.2,0-0.3,0-0.5,0c-36.3,0-91.8,3.3-150.4,18.6
	c-71,18.6-128.3,50.3-170.4,94c-59.3,61.6-87.2,146.4-82.8,252.1c1.7,42.6,13.5,83.6,35.1,121.6c20.4,36,49.6,69.7,86.9,99.9
	c69.9,56.9,168.4,102.2,284.8,130.9l4.4,1.1c64.8,16,153.7,37.9,267.5,47.6c38.3,3.3,77.1,4.9,116.2,4.9
	c98.1,0,198.2-10.3,299.3-30.8c93.4-18.9,213.4-48.2,312.8-106.2C1695.6,715.8,1757.7,614.9,1756,488.4z"/>
</svg>
