<?xml version="1.0" encoding="utf-8"?>
<!-- Generator: Adobe Illustrator 27.0.0, SVG Export Plug-In . SVG Version: 6.00 Build 0)  -->
<svg version="1.1" id="Layer_1" xmlns="http://www.w3.org/2000/svg" xmlns:xlink="http://www.w3.org/1999/xlink" x="0px" y="0px"
	 viewBox="0 0 1920 1080" style="enable-background:new 0 0 1920 1080;" xml:space="preserve">
<style type="text/css">
	.track-surface{fill:none;stroke:#231F20;stroke-width:20;stroke-miterlimit:10;}
</style>
<path class="track-surface" d="M1482.3,768.6c-0.1-15.7-0.3-39.3-0.1-51.9c1.9-91.9,0.6-274.6-1.9-364.7c-0.8-28-2.3-86.2-2.3-117.3
	c0-30.2-14-47.1-27.1-50.2c-42.9-9.8-86.1-20.4-127.9-30.6l-9.9-2.4c-19-4.4-38.5-7.6-57.9-9.4l-0.6-0.1h-0.6
	c-0.4,0-34.6,0.6-46,0.6c-11.6,0-18,5-21.3,9.3c-4,5.2-5.6,12.1-4.1,18.2c3.2,13.1,1.4,17.9,0.5,19.5c-0.5,0.9-1.5,1.9-4.4,2.5
	c-5.6,1.4-8-0.3-13.1-13.5c-1.3-3.3-2.4-6.5-4.1-9.1c-14.9-24.2-33.5-21.3-41.4-20.2h-0.3c-7.9,1.2-18.7,2.8-28.1,11.2
	c-9.8,8.9-15.7,23.5-17.7,44.5c-0.2,2.4-0.7,6-1.1,9.9c-0.6,4.8-1.2,9.6-1.4,13c-0.8,9.4-13.2,14.9-23.7,17.8
	c-50.3,13.9-137.6,39.6-207.9,60.3c-21.4,6.3-40.9,12-56.6,16.6c-62.2,18.2-139.7,40.8-237.4,127.7c-32.4,28.8-58.3,61.8-76.8,97.8
	c-23.9,46.4-34.7,96.7-32.1,149.4c2.2,46.3,18.9,69.6,49.2,111.8l3.2,4.5c9.4,13.2,33.3,35.6,87.4,37.3c24.5,0.8,37.6,4.7,48.1,7.8
	c1.5,0.4,2.8,0.9,4.1,1.2c15.2,4.4,26.6,7.3,34,8.8c47.7,9.4,73.6,9.8,95.8,1.4c7-2.7,11.1-2.5,12.6-1.4c1.9,1.5,2.5,6,2.4,8.2v0.5
	v0.6c0.3,8.7,4.6,13.5,8.1,16.1c9.3,6.7,22.3,3.9,26,2.9c3.3-0.6,26.5-4.9,34.7-6.4c61.2-11.6,87.2-7.9,107.1,15
	c13.5,15.6,25.1,23.1,36.4,23.6c12.1,0.5,20-7.1,25.1-12.1c0.4-0.4,0.8-0.8,1.2-1.2c0.8,0.3,1.9,1,2.8,1.9c23.3,23.1,43.2,14,54,9.2
	c1.3-0.6,2.5-1.2,3.6-1.6c3.8-1.6,7.5-3.2,11-4.9c19.2-8.7,39-17.7,82.2-9.8c13.7,2.5,31.7,7.1,48.9,11.6
	c20.7,5.4,40.2,10.3,54.7,12.5c10.8,1.6,25.8,3.1,43.2,3.1c26.8,0,59.2-3.6,91.3-16.2c32.5-12.7,55.1-36.4,67.1-70.4
	c9.6-27.3,10.7-55.5,10.5-77.1L1482.3,768.6z"/>
</svg>
