<?xml version="1.0" encoding="utf-8"?>
<!-- Generator: Adobe Illustrator 27.0.0, SVG Export Plug-In . SVG Version: 6.00 Build 0)  -->
<svg version="1.1" id="Layer_1" xmlns="http://www.w3.org/2000/svg" xmlns:xlink="http://www.w3.org/1999/xlink" x="0px" y="0px"
	 viewBox="0 0 1920 1080" style="enable-background:new 0 0 1920 1080;" xml:space="preserve">
<style type="text/css">
	svg {height: 100%;width: 100%;}.track-surface {fill: none;stroke: white;stroke-width: 30;}
</style>
<path class="track-surface" d="M1728.9,676.2c-0.1-14.5-0.3-36.3-0.1-48c1.2-54.9,0.2-144.2-0.7-223c-0.5-43.3-0.9-84.2-1-114.3
	c0-16.2-1.4-35.5-11.4-55.9c-10.9-22.2-30.2-42.2-59-61.3c-26.6-17.7-77.7-49.5-108-64.9c-9.1-4.6-22.7-11.6-43.6-10.7
	c-15.8,0.7-36.6,2.3-56.8,3.7c-18.7,1.4-36.4,2.7-49,3.2c-11.8,0.5-43.2,1.9-47.9,49.8c-0.2,2.3-0.6,5.6-1,9.2
	c-0.5,4.4-1.1,8.9-1.3,12c-0.3,3.9-0.9,11.2-21.6,16.4c-44.1,11-119.8,33.8-180.7,52.1c-24.1,7.2-46.9,14.1-64.3,19.1
	c-64.4,18.8-129.8,41.9-219.4,116c-21.9,18.1-52.4,43.8-84.6,71c-46,38.8-93.5,78.8-124.6,104.1c-5.9,4.8-11.9,9.7-17.9,14.6
	C561.2,630.6,476.4,699.9,308.9,780c-9.7,4.7-23.1,10.3-37.2,16.1c-20.3,8.5-41.2,17.2-54.4,24.5c-6.9,3.9-21.5,11.9-25.6,27.8
	c-2.9,11.1,0,23.7,8.5,37.4c9.6,15.4,28.6,39,42.5,56.3c2,2.4,3.8,4.8,5.5,6.9c9.1,11.4,26.3,33,56.5,33c14.6,0,32.2-5,53.3-18.7
	c16.1-10.5,35.6-24.2,56.2-38.8c33.8-24,72-51.1,108.4-72.6c5.1-3.1,10.1-5.9,15.1-8.9c40.8-24.2,79.3-47.1,161.1-90.9
	c7.2-3.9,17.8-10,29.2-16.5c14.1-8.1,28.7-16.5,38.2-21.5c17.8-9.2,32.3-7.6,45.7,5.2c17.8,16.9,37.2,32.2,79.8,33.2
	c3.2,0.1,6.4,0,9.8-0.1c17.3-0.4,37-0.8,56.7,18c1.4,1.4,2.9,2.8,4.4,4.3c12.6,12.5,29.9,29.7,66.6,33.5
	c19.6,2.1,34.1-0.2,73.4-11.4c8.5-2.4,19.9-5.9,32-9.7c17.6-5.4,37.5-11.6,50.6-15c22.4-5.8,67.4-6.7,94.5,26.4l0.5,0.5
	c10.5,12.9,26.3,32.3,69.1,22.6c6.8-1.5,12.9-4,19.4-6.6c15.9-6.4,33.9-13.7,68.3-7.4c12.7,2.3,29.3,6.6,45.2,10.7
	c19.2,5,37.2,9.6,50.7,11.5c25.5,3.7,75.5,7.1,124.5-12.1c30.1-11.7,51-33.7,62.2-65.2c8.9-25.1,9.9-51.4,9.7-71.3L1728.9,676.2z"/>
</svg>
