<?xml version="1.0" encoding="utf-8"?>
<!-- Generator: Adobe Illustrator 27.0.0, SVG Export Plug-In . SVG Version: 6.00 Build 0)  -->
<svg version="1.1" id="Layer_1" xmlns="http://www.w3.org/2000/svg" xmlns:xlink="http://www.w3.org/1999/xlink" x="0px" y="0px"
	 viewBox="0 0 1920 1080" style="enable-background:new 0 0 1920 1080;" xml:space="preserve">
<style type="text/css">
	svg {height: 100%;width: 100%;}.track-surface {fill: none;stroke: white;stroke-width: 30;}
</style>
<path class="track-surface" d="M1496.2,775.7c-0.1-15.6-0.4-41.7-0.1-55.2c1.3-60.9,0.2-159.9-0.8-247.3c-0.5-48.1-1-93.4-1.1-126.9
	c0-40.6-9.5-84.5-78.2-130.1c-29.5-19.6-86.2-54.9-119.8-72c-10.1-5.1-25.3-12.9-48.4-11.9c-17.5,0.8-40.6,2.5-63,4.1
	c-20.8,1.5-40.4,3-54.4,3.6c-13.1,0.6-47.9,2.1-53,55.1c-0.2,2.3-0.6,5.7-1,9.2c-0.6,5.3-1.2,10.7-1.5,14.4c-0.3,4.3-1,12.4-24,18.2
	c-48.9,12.2-132.9,37.5-200.5,57.8c-26.7,8-52,15.6-71.2,21.2c-63.9,18.7-143.5,41.9-243.7,131.1c-33.3,29.7-59.8,63.5-78.8,100.5
	c-24.5,47.6-35.6,99.3-33,153.4c2.3,47.4,19.4,71.3,50.5,114.7l3.3,4.7l0,0c9.8,13.7,34.5,36.9,89.8,38.3c3.5,0.1,7.1,0,10.9-0.1
	c19.2-0.4,41-0.9,62.9,20c1.6,1.5,3.2,3.1,4.9,4.8c14,13.9,33.2,32.9,73.9,37.2c21.8,2.3,37.8-0.2,81.4-12.6
	c9.4-2.7,22.1-6.6,35.5-10.8c19.5-6,41.6-12.9,56-16.6c24.8-6.4,74.8-7.4,104.8,29.3l0.4,0.5c9.5,11.6,22.9,28.1,53,28.1
	c7,0,14.8-0.9,23.7-2.9c7.5-1.7,14.3-4.4,21.5-7.3c17.6-7.1,37.6-15.2,75.8-8.2c14.1,2.6,32.4,7.3,50.1,11.8
	c21.3,5.5,41.4,10.7,56.3,12.8c11.1,1.6,26.5,3.2,44.4,3.2c27.5,0,60.8-3.7,93.7-16.6c33.4-13,56.6-37.4,68.9-72.3
	c9.9-28,11-57,10.8-79.1L1496.2,775.7z"/>
</svg>
