<?xml version="1.0" encoding="utf-8"?>
<!-- Generator: Adobe Illustrator 27.0.1, SVG Export Plug-In . SVG Version: 6.00 Build 0)  -->
<svg version="1.1" id="Road_Course_-_Config" xmlns="http://www.w3.org/2000/svg" xmlns:xlink="http://www.w3.org/1999/xlink"
	 x="0px" y="0px" viewBox="0 0 1920 1080" style="enable-background:new 0 0 1920 1080;" xml:space="preserve">
<style type="text/css">
	.st0{fill:none;stroke:#FFFFFF;stroke-width:30;stroke-miterlimit:10;}
</style>
<path class="st0" d="M1641.1,259.8c-2.3-27.9-9.2-60.4-62.2-94.2l-0.3-0.2c-2.2-1.3-4.5-2.6-6.8-4c-38.5-22.6-96.6-56.8-148.8-52.1
	c-37.3,3.4-65.7,22.7-90.7,39.8c-11.6,7.9-22.5,15.4-32.8,20l-0.2,0.1c-31.2,14.8-180.9,35.5-220.5,32.9h-0.3
	c-32.9-1.3-70.6-21-93.1-32.9c-7.7-4-13.8-7.2-18.2-9c-0.8-0.3-1.8-0.7-2.8-1.1c-20.2-8.3-73.8-30.5-159.2,35.1l-1.2,1
	c-16.7,14-37.5,31.3-46,76.8l-0.1,0.7c-0.7,6.2-7.4,65.8-10.7,95.1l-0.1,0.7c-2.2,58.6-48.3,72.1-97.8,78l-2.5,0.3
	c-90.4,11.7-152.4,22.7-179.3,31.7c-37.9,12.6-85.7,31.9-98.7,52c-4.3,6.6-8.2,16.2-12.3,26.3c-4.5,11.1-9.6,23.7-14.6,30.1
	c-5.8,7.4-14.6,13.1-23.1,18.7c-10.9,7.1-22.1,14.5-28.4,25.8c-21,37.7-13.4,75,23.9,117.2l0.2,0.3c16.9,17.8,102,119.1,102.9,120.2
	l0.3,0.3c18.1,18.9,37.9,36.1,59.1,51.3c29.7,21,63.8,35,99.7,41.1c25.8,4.3,65,9.5,105.2,9.5H1390c24.6,0.1,49-4.7,71.8-14.2
	c29.1-12.1,55.2-28.1,65.9-37.7c72.5-63.1,72.8-111.5,72.1-120.4c1.9-25.2-14.7-54.1-29.3-79.6c-6.2-10.8-12-21-14.9-28.5
	c-3-7.8-1.8-22.9-0.3-29.1l0.1-0.3c1.1-5.2,7.1-20.6,18.7-39.5s19.8-43.2,25.3-59.2c0.6-1.9,1.2-3.6,1.8-5.2l0.8-2.4
	c4.3-12.5,9.2-26.6,8.7-45.6c0.7-26.8-9.6-49.9-29.7-66.9l-0.5-0.4c-48.6-35.7-105.5-53.7-169.2-53.7H1213
	c-46.5,0-92.9,4.9-138.4,14.7l-203.6,43.7l-0.6,0.1l-0.6,0.2c-6.5,2.2-25.5,6.4-35.9-1.1c-5.9-4.3-8.8-12.5-8.7-24.4
	c0.4-33.2,2.1-58.2,3.5-73.4c1.2-14.1,7.4-27.3,17.5-37.2c17.2-16.8,43.8-27.9,76.7-31.9c80-8.4,311.3,14.7,332.5,18.5
	c25.4,4.5,62.5,14.6,98.3,24.4c46.4,12.6,94.3,25.7,121.5,28c9.8,0.8,97,7,140.9-32.7c16.3-14.7,24.7-33.7,25.1-56.5v-0.5
	L1641.1,259.8z"/>
</svg>
