<?xml version="1.0" encoding="utf-8"?>
<!-- Generator: Adobe Illustrator 27.0.1, SVG Export Plug-In . SVG Version: 6.00 Build 0)  -->
<svg version="1.1" id="Indianapolis_Oval_-_Config" xmlns="http://www.w3.org/2000/svg" xmlns:xlink="http://www.w3.org/1999/xlink"
	 x="0px" y="0px" viewBox="0 0 1920 1080" style="enable-background:new 0 0 1920 1080;" xml:space="preserve">
<style type="text/css">
	.st0{fill:none;stroke:#FFFFFF;stroke-width:30;stroke-miterlimit:10;}
</style>
<path class="st0" d="M1777.6,410.6c-12-98.1-48.6-170.4-108.7-214.8c-42.7-31.6-96.2-48.4-158.8-50.2
	c-113.8-3.3-332.7-3.1-463.6-2.9c-13.3,0-25.8,0-37.1,0c-125,0.1-379.7-0.3-508.4-0.8c-141.3-0.6-212.5,21.1-282.1,86
	c-54.7,50.9-79.3,136.2-79,193.9c0.1,21.9-0.3,49.8-0.8,79.3c-1,61.2-2,130.5,1.3,174.3c5.2,68.9,35.8,131.5,86.1,176
	c0.5,0.4,0.9,0.8,1.2,1.1c53.3,47.9,142.4,74.9,199.4,76c307.3,5.9,539,9.4,765.9,9.4c98.2,0,195.5-0.7,297.5-2
	c59.8-0.8,111.9-14.2,154.7-39.8c35.2-21.1,64.4-50.5,86.7-87.4c39.2-65.3,45.3-134.1,46.3-153.7
	C1780.5,602.8,1785.4,474.4,1777.6,410.6z"/>
</svg>
