<?xml version="1.0" encoding="utf-8"?>
<!-- Generator: Adobe Illustrator 27.0.1, SVG Export Plug-In . SVG Version: 6.00 Build 0)  -->
<svg version="1.1" id="Indianapolis_Bike_-_Config" xmlns="http://www.w3.org/2000/svg" xmlns:xlink="http://www.w3.org/1999/xlink"
	 x="0px" y="0px" viewBox="0 0 1920 1080" style="enable-background:new 0 0 1920 1080;" xml:space="preserve">
<style type="text/css">
	.st0{fill:none;stroke:#FFFFFF;stroke-width:30;stroke-miterlimit:10;}
</style>
<path class="st0" d="M1764.4,375.7c-3.3-35.7-11.3-56.2-17.9-70.2c-26.3-55.6-66.1-89.2-137.4-115.8c-36.1-13.5-107-22.9-145.8-25.9
	c-33.9-2.7-66.2-1-85.2,1.4c-52.4,6.7-47.8,43.8-45.9,59.6c0.1,1,0.2,2,0.4,3l0.5,4.5c3.5,31.4,7.7,70.6,5.7,97.2
	c-0.6,7.9-3.8,9.6-17.2,9.4c-1.2,0-2.3,0-3.2,0c-23.8,0.4-42.1,7.1-54.4,20c-14.6,15.3-17.1,35.6-16.7,49.9c0.3,8.6-0.2,23.1-0.6,36
	c-0.2,6.4-0.4,12.4-0.4,16.9c-0.9,56.1-36.6,62.7-51.9,62.9c-146.6,2.1-375.8,0.7-541.5-1.2c-28.3-0.3-50.7,1.3-67.9,10.5
	c-19,10.1-30.5,22.4-34.2,36.4c-3.1,11.7-0.6,24,7.4,36.5c9.1,14.3,25,43.6,29.8,58.9c6.6,21,1.6,36.8-3.7,46.3
	c-7,12.5-17.6,20.2-25.3,23.2c-38.8,15.3-58.2-6.6-66.3-21c-12.7-22.3-38.1-58.2-58.5-87c-6.6-9.3-12.8-18-17.5-24.9
	c-23.1-33.3-48.4-38.1-74.5-40.3c-12.2-1-54.5-4.1-89.3-0.8c-33.7,3.2-42.4,6.2-55.7,10.7l-0.4,0.1c-17.5,5.9-30.4,16.4-37.2,30.4
	c-9.9,20-4.5,39.6-2.6,45.2c3.1,9,8.9,22.4,14.6,35.3c4,9.1,7.8,17.7,10.1,23.7c13.9,36,32.8,49.3,46.6,59l1.5,1.1
	c19.6,13.9,48.7,21.3,89,22.7c6.1,0.2,15.5-0.5,23.9-1c4.6-0.3,8.9-0.6,11.9-0.7c19.7-0.7,33.7,3.6,41.6,12.7
	c10.6,12.3,8.9,31.9,6.9,42.6c-5.4,29.4,5,46.3,11.7,53.7c11.3,12.5,34.6,13.4,39.2,13.4c300.9,4.1,429.5,4.6,592.3,5.2
	c104.4,0.4,222.6,0.9,409.5,2.3c0.1,0,0.2,0,0.3,0c5.7,0,23.2-1.5,35.7-5.2c26.7-8,50.4-20.4,70.5-36.8c18.3-14.9,33.2-32.7,44.3-53
	c20.3-37,26.2-79.7,15.8-114.3c-5.5-18.3-20.5-53.7-29-71.9c-6.4-13.7-8.1-24.9-4.9-31.7c2.2-4.5,6.3-6.4,9.5-7.2
	c7.3-1.8,16.9-4.8,27-8c15.1-4.8,32.3-10.2,43.2-11.9c2.7-0.4,7.5-0.8,9.8,1.2c3.4,3,3.2,12.1,3.1,16.4v0.7
	c-0.3,13.8,3.7,23.9,12,30.2c7.3,5.5,16,6.3,20.2,6.7c1.2,0.1,2.4,0.2,3.6,0.2c22.9,0,34.5-20.6,36.8-35.2c1.4-9.1,2.8-27,3.4-36.2
	c1-17.4,2.5-35.1,4-52.3C1764.6,465.3,1768.6,419.5,1764.4,375.7z"/>
</svg>
