<?xml version="1.0" encoding="utf-8"?>
<!-- Generator: Adobe Illustrator 27.0.0, SVG Export Plug-In . SVG Version: 6.00 Build 0)  -->
<svg version="1.1" id="Layer_1" xmlns="http://www.w3.org/2000/svg" xmlns:xlink="http://www.w3.org/1999/xlink" x="0px" y="0px"
	 viewBox="0 0 1920 1080" style="enable-background:new 0 0 1920 1080;" xml:space="preserve">
<style type="text/css">
	.st0{fill:none;stroke:#231F20;stroke-width:20;stroke-miterlimit:10;}
</style>
<path class="st0" d="M1661.6,683.7c-14.8-37-41.7-69.9-73.7-90.2c-173.3-109.9-512.1-319.8-706.1-436.4
	c-64.3-38.5-124.8-34.4-164.3-24c-50.8,13.3-88.7,41.7-107.2,63.9c-85.1,101.4-238.8,286.7-317.3,382.6l0,0
	c-25.5,31.2-41.5,70.3-46.4,113c-3.8,33.4-0.6,68.3,8.7,95.7c21.5,63.2,63.8,101.4,95.4,122.4c37.1,24.5,81.2,39.3,117.8,39.4
	c551,1.5,688.6,2.3,834.2,3.1c46.4,0.3,94.4,0.5,156.9,0.8c0.5,0,1.1,0,1.6,0c50.4,0,94.5-12.2,130.9-36.4
	c30.3-20,53.6-47.9,65.8-78.3C1679.5,785.4,1680.7,731.6,1661.6,683.7z"/>
</svg>
