<?xml version="1.0" encoding="utf-8"?>
<!-- Generator: Adobe Illustrator 27.0.0, SVG Export Plug-In . SVG Version: 6.00 Build 0)  -->
<svg version="1.1" id="Layer_1" xmlns="http://www.w3.org/2000/svg" xmlns:xlink="http://www.w3.org/1999/xlink" x="0px" y="0px"
	 viewBox="0 0 1920 1080" style="enable-background:new 0 0 1920 1080;" xml:space="preserve">
<style type="text/css">
	.track-surface{fill:none;stroke:#231F20;stroke-width:20;stroke-miterlimit:10;}
</style>
<path class="track-surface" d="M1282.2,680.7c13.1-19.4,37.6-55.8,51.1-72.5c12.9-16,11.8-36.5,6.6-50.4c-3.9-10.2-11.2-28.9-15.1-38
	c-10.2-23.9-21.3-32.5-30.9-38.8c-133.1-85.9-334-211.8-498.6-307.3c-39-22.7-71.9-17.1-98,16.5c-9.6,12.5-28.3,39.1-37,54.7
	c-3.2,5.8-6.8,11.7-10.2,17.4c-6.9,11.4-13.2,22-16.7,31.7c-15,41-40.4,117.4-53.1,161.6c-10.6,36.8,3.3,55.8,12.5,63.9
	c9.8,8.5,26.3,21,41,32.1c6,4.5,11.7,8.8,15.8,12.1c28.9,22.2,54.8,21.9,70.4,21.7c24.9-0.3,59.7-2.2,93.5-4
	c35.1-1.9,71.4-3.9,95.3-4c0.4,0,0.7,0,1.2,0c37.8,0,55.5,7.9,72.7,15.7c3.7,1.7,7.5,3.5,11.5,5c28.9,11.7,75.4,32.4,98.4,44.6
	c14,7.3,13.2,11.1,11.5,19.1c-0.3,1.3-0.6,2.4-0.7,3.6c-0.7,3.9-2.3,6.6-5.3,8.6c-5.2,3.5-12.8,4-16.4,3.3
	c-26.9-5.5-65-12.5-105.5-19.9c-43.6-7.9-88.8-16.3-120.4-22.7c-32.7-6.8-48.9,2.9-60.6,13.1c-10.9,9.6-27.8,26-42.7,40.6
	c-8.8,8.6-17.1,16.7-23.2,22.4c-5.9,5.5-14.1,14.8-24.3,27.5c-4,4.9-10.8,17.4-12.9,21.3c-11.1,19.7-6.3,34-4,40.9
	c6.9,20.7,11.2,26.8,12.7,28.6c16,21.9,39.9,22.3,52.8,22.4h1.2c18.7,0.4,41.2,0.6,64.9,0.9c58.4,0.7,124.6,1.4,168.5,4.2
	c26.6,1.6,35.1,6.8,45.9,13.2c18.3,11.1,54.5,31.9,75.5,43.3c8.3,4.6,17.6,6.9,26.8,6.9c10.9,0,21.9-3.3,31.4-9.9l0.3-0.1
	c25.2-18.3,73.8-55.3,95.8-74.1c20.6-17.6,26.5-43.3,23.3-59.7c-2.6-13.4-8.1-39-11.8-51.9c-6-21.2-1-30.9,4.5-39.1L1282.2,680.7z"
	/>
</svg>
