<?xml version="1.0" encoding="utf-8"?>
<!-- Generator: Adobe Illustrator 27.0.0, SVG Export Plug-In . SVG Version: 6.00 Build 0)  -->
<svg version="1.1" id="Layer_1" xmlns="http://www.w3.org/2000/svg" xmlns:xlink="http://www.w3.org/1999/xlink" x="0px" y="0px"
	 viewBox="0 0 1920 1080" style="enable-background:new 0 0 1920 1080;" xml:space="preserve">
<style type="text/css">
	.track-surface{fill:none;stroke:#231F20;stroke-width:20;stroke-miterlimit:10;}
</style>
<path class="track-surface" d="M1374.7,439.5c-26.2-65.4-73.7-123.4-130.4-159.4c-1.3-0.8-123.7-77.1-163.4-103.5
	c-26.2-17.3-42.7-13.5-56.2-8.7c-1.3,0.5-2.4,1-3.4,1.1c-4.8,1.4-11.7,4-18.5,6.4c-5.1,1.8-10.4,3.7-13.8,4.8
	c-17.7,5.6-36.9,15.4-57,47.7c-1.3,1.9-2.4,4-3.9,6.3c-8.2,13.5-18.5,30.4-35.5,44c-3.2,2.6-7.6,6.1-12,10c-9.8,8-21.8,18-28.9,23.3
	c-7.4,5.6-12,15.1-13.3,26.5c-1.6,14.8,2.9,29.7,12.2,40.8c7.6,9,18.8,20.6,30.5,32.8c11.2,11.6,22.8,23.5,29.9,32.1
	c2.7,3.4,6.3,6.9,10.4,10.9c6.4,6.3,13.7,13.5,18.2,20.4c3.9,5.8,4,8.5,3.9,9c-2.2,5.3-15.3,5.8-34.2,1.1l-2.4-0.6
	c-20.7-5.1-59.3-14.5-78.4-19.9c-24.7-7.1-58.6-8.7-101.5,41.4c-30,35.2-66.8,69.2-131.1,80.3c-17.2,2.9-57.3,9.6-70.8,64.1
	c-12.9,51.9,7.9,114.9,67.1,204c31,46.7,74.7,56.5,139.4,57.8c60.7,1.1,88,1.4,133.5,1.8c34.5,0.3,77.6,0.8,152.3,1.8
	c2.4,0,4.7,0,6.9,0c87.6,0,164-21.2,227.5-62.8c53.5-35.2,94.8-84.3,116.3-138.3C1406.6,619.3,1408.8,524.2,1374.7,439.5z"/>
</svg>
