<?xml version="1.0" encoding="utf-8"?>
<!-- Generator: Adobe Illustrator 27.0.0, SVG Export Plug-In . SVG Version: 6.00 Build 0)  -->
<svg version="1.1" id="Layer_1" xmlns="http://www.w3.org/2000/svg" xmlns:xlink="http://www.w3.org/1999/xlink" x="0px" y="0px"
	 viewBox="0 0 1920 1080" style="enable-background:new 0 0 1920 1080;" xml:space="preserve">
<style type="text/css">
	.st0{fill:none;stroke:#231F20;stroke-width:20;stroke-miterlimit:10;}
</style>
<path class="st0" d="M1156.2,338.7c23.8-28.2,46.3-54.8,62.4-74.5c17.5-21.3,24.8-56.3-7-90.6c-9.8-10.6-30.4-21.4-53.8-21.7
	c-29.8-0.2-82.6,8.3-107.5,14.3h-0.1c-13.7,3.3-36.4,8.9-53.4,18.7c-13.5,7.8-33.4,28.4-49.3,45.6l0,0
	c-54.7,59-158.1,181.8-207.2,244c-51.9,65.9-85.4,189.6-8.9,321.6c25.6,44.1,66.8,79.7,119,102.7c43.7,19.3,94.4,29.1,148.8,29.1
	c17.5,0,35.3-1,53.4-3l1-0.1c17.4-1.9,41.3-6.2,49.2-21.8c2.7-5.3,4.5-14-2.1-25c-12.3-20.8-26.2-57.7-28-83.6
	c-0.1-1.8-0.2-3.6-0.5-5.3c-1.6-19.2-3-37.3,13.5-64.9c7.6-12.5,21.5-24.8,37.3-32.8c13.3-6.8,37.8-21.8,50.1-29.7
	c31.5-20.1,44-48.3,34.2-77.3c-5.4-15.9-18.6-36.8-50.9-45.4c-11.3-3-33.3-6.7-44.9-6.8c-3.6,0-9.1-0.2-15-0.5
	c-9.4-0.3-19.9-0.8-26.4-0.7c-17.3,0.3-30.1-2.7-36.6-18.2c-3.5-8.3-5.4-19,7-34.9C1068,443.4,1114.8,387.8,1156.2,338.7z"/>
</svg>
