<?xml version="1.0" encoding="utf-8"?>
<!-- Generator: Adobe Illustrator 27.0.0, SVG Export Plug-In . SVG Version: 6.00 Build 0)  -->
<svg version="1.1" id="Layer_1" xmlns="http://www.w3.org/2000/svg" xmlns:xlink="http://www.w3.org/1999/xlink" x="0px" y="0px"
	 viewBox="0 0 1920 1080" style="enable-background:new 0 0 1920 1080;" xml:space="preserve">
<style type="text/css">
	svg {height: 100%;width: 100%;}.track-surface {fill: none;stroke: white;stroke-width: 30;}
</style>
<path class="track-surface" d="M1652.8,378.3c-22.2-48.5-53.8-92.4-94.1-130.3c-34.9-32.9-76-60.7-118.7-80.2c-39.7-18.2-78.8-28.6-113.1-30.1
	c-20.4-1-42.5-1.9-65.8-3.1c-181.4-8.5-455.8-21.3-666-10.5c-56.3,2.9-108.1,16.3-154.2,39.7c-41.5,21.2-78.2,50.5-109.3,87.3
	c-38,44.9-67.2,100.8-84.5,161.8c-15.2,53.7-20.6,109.4-15.1,156.9l0,0c7.4,64.7,25.8,123.6,54.5,174.8
	c25.4,45.5,58.8,85.1,99.4,117.7c35.4,28.5,75.5,51,118.8,66.8c38,13.9,77.3,22,113.7,23.6c103.5,4.5,254.8,7.3,399.7,7.3
	c94.6,0,186.6-1.3,260.9-4.2c83.4-3.3,156.1-22,216.3-55.7c50.7-28.3,92.7-67.4,124.8-116c25.2-38.1,44.1-81.6,56.2-129.2
	c11.3-44.7,13.3-80.2,13.5-97.4C1690.6,493.9,1678.2,433.6,1652.8,378.3z"/>
</svg>
