<?xml version="1.0" encoding="utf-8"?>
<!-- Generator: Adobe Illustrator 27.0.0, SVG Export Plug-In . SVG Version: 6.00 Build 0)  -->
<svg version="1.1" id="Layer_1" xmlns="http://www.w3.org/2000/svg" xmlns:xlink="http://www.w3.org/1999/xlink" x="0px" y="0px"
	 viewBox="0 0 1920 1080" style="enable-background:new 0 0 1920 1080;" xml:space="preserve">
<style type="text/css">
	.track-surface{fill:none;stroke:#231F20;stroke-width:20;stroke-miterlimit:10;}
</style>
<path class="track-surface" d="M1546.1,687c-15.2-37.9-42.7-71.5-75.4-92.3h-0.1c-0.7-0.5-71.6-44.7-94.6-59.9c-14.9-9.9-24.3-7.8-32-5.1
	c-0.8,0.3-1.6,0.6-2.2,0.7c-1.4,0.4-11.2,2.5-12.9,2.9c-8.9,1-15.5-0.2-19.6-3.7c-6.3-5.5-6.6-16.4-6.8-22.2c0-0.8,0-1.6-0.1-2.2
	c-0.7-16.1-14.4-26.4-15.9-27.5l-0.3-0.2L748,148.1c-65.7-39.4-127.4-35.1-167.6-24.5c-51.4,13.6-90.2,42.6-109.4,65.2
	c-7.2,8.5-17.3,19.8-27.9,31.8c-24.7,27.7-52.6,59.2-67.2,79.8c-4.4,6.2-8,17.2-3.9,27.7c2.5,6.6,9,15.2,25.6,18.8
	c15.6,3.3,38.2-1.4,58.1-5.7c8.5-1.8,16.4-3.4,22-4.1c9.2-1,29.5,0.6,40.7,14c8.8,10.5,10.1,26.5,3.8,47.4
	c-5.9,19.7-71.3,90.9-110.4,133.5c-18.9,20.6-33.8,36.7-40.2,44.8c-7.9,10-16.6,31.2-8.5,48.4c7,14.7,23.5,22.4,49.2,22.9
	c3.7,0.1,7.9,0,12.4-0.1c27.4-0.5,69-1.2,80.6,28.4c3.7,9.5,4.4,21.1-15.5,42c-5.9,6.1-19.6,13.1-31.7,19.3
	c-11.3,5.8-21.9,11.2-28.8,16.8c-17,13.9-30.5,39.9-35.2,67.9c-5.4,32.5,1.2,63.9,18.5,88.6c16.1,22.8,49.5,49.4,68.5,49.5
	c380.3,2,518.4,2.1,629.5,2.4c68.7,0.1,128,0.2,228.6,0.7c0.6,0,1.1,0,1.7,0c51.7,0,96.7-12.5,134-37.2c31-20.5,54.9-49,67.4-80.2
	C1564.6,791.1,1565.9,736,1546.1,687z"/>
</svg>
