<?xml version="1.0" encoding="utf-8"?>
<!-- Generator: Adobe Illustrator 27.0.0, SVG Export Plug-In . SVG Version: 6.00 Build 0)  -->
<svg version="1.1" id="Layer_1" xmlns="http://www.w3.org/2000/svg" xmlns:xlink="http://www.w3.org/1999/xlink" x="0px" y="0px"
	 viewBox="0 0 1920 1080" style="enable-background:new 0 0 1920 1080;" xml:space="preserve">
<style type="text/css">
	svg {height: 100%;width: 100%;}.track-surface {fill: none;stroke: white;stroke-width: 30;}
</style>
<path class="track-surface" d="M831.7,198.3c-2.2,0.7-12.6,3-32.6-7.2l-1-0.5c-2.5-1-5-2.2-7.4-3.3c-19.9-9-44.6-20.1-94.2-6.6l-0.8,0.2
	c-1.4,0.5-3.2,1-5.3,1.7c-19.1,5.9-58.9,18.1-97.6,52.7c-8.5,7.7-16.2,16.2-23,25.5l-4.7,6.4l-0.4,0.5
	c-15.5,23.3-25.9,49.6-30.5,77.2c-4.1,23.1-5.9,40.4-7.2,54.3c-1.5,15.5-2.6,26.7-6.2,37.6l-0.3,0.9c-6.8,26.6-45.8,75.6-66.8,101.9
	c-5.2,6.6-9.8,12.3-13.1,16.7c-1.4,1.8-2.8,3.7-4.2,5.5c-17.2,22.4-36.8,47.8-39.7,108.1v0.3c-0.6,21.4,1.6,51.1,23.4,108.2l0.3,0.9
	l0.4,0.8c4.3,8.1,8.4,35.5,9.3,62.4c0.8,22.8,14.7,53.9,51.3,66.4c5.5,1.9,11.3,2.9,17.1,2.9c20.3,0,36.7-12.6,46.4-26.8
	c8.5-14.4,26-20.7,41.7-15.2c5.3,1.7,10.6,3.7,15.7,6c5.5,2.3,11.2,4.7,17.7,6.9c16.4,5.5,34.3,4.3,49.7-3.5
	c15.7-8.1,23.2-19.9,31.1-32.4l2.4-3.8l0.4-0.7c6.4-11.3,21.6-21.1,27.1-24c35-17.7,93.7-47.4,148-57.6h0.3
	c47.6-10.1,132.6-21.7,173.4-27.3c10.6-1.5,18.3-2.5,21.6-3c28.9-4.7,56.8-13.9,82.8-27.4c2-1.1,4.6-2.4,7.2-3.7
	c26.3-12.1,132.6-62,164.6-77c6.9-3.2,13.1-5.9,19-8.2c16.7-6.4,71.6-32.1,74-92.7v-0.8c-0.3-21.2,2.5-55.8,9.8-66.2l0.3-0.5
	c10.4-16.3,19.6-20.3,31.4-25.3c4.8-2,9.6-4.2,14.1-6.8c17.7-10.1,56.9-39.6,42.2-96.6l-0.3-0.9c-14.3-43.5-53.8-53.3-77.4-59.1
	l-5-1.2c-25.1-6.5-157.8-39.2-300.3-49.7l-2.9-0.2l0,0c-6.7-0.8-21.1-2-39.4-3.5c-28.8-2.4-76.9-6.4-86-8.8l-0.5-0.1
	c-13.9-3-27.1-8.6-39-16.5l-2.6-1.6c-11.4-7-38.1-23.3-71.7-12C894.9,171.8,854,194.4,831.7,198.3z"/>
</svg>
