<?xml version="1.0" encoding="utf-8"?>
<!-- Generator: Adobe Illustrator 27.0.0, SVG Export Plug-In . SVG Version: 6.00 Build 0)  -->
<svg version="1.1" id="Layer_1" xmlns="http://www.w3.org/2000/svg" xmlns:xlink="http://www.w3.org/1999/xlink" x="0px" y="0px"
	 viewBox="0 0 1920 1080" style="enable-background:new 0 0 1920 1080;" xml:space="preserve">
<style type="text/css">
	.st0{fill:none;stroke:#231F20;stroke-width:20;stroke-miterlimit:10;}
</style>
<path class="st0" d="M1512.6,737.9c-21.1-27.1-56.3-30.3-66.7-30.7c-199.7-6.6-579.7-13.9-795.9-16.5c-52.1-0.6-65.6-18.9-71.9-36.9
	c-11.2-31.5,23.4-71.5,43.3-84.8c45.4-30.3,60.8-76.7,55.9-107.1c-10.5-65.6,16.8-86.9,43.1-101.7c8.8-4.9,22.3-10.3,35.5-15.6
	c17.7-7,34.5-13.8,44-20.8c24.7-18.1,31-41.8,32.1-58.6c1.5-24.3-7.8-50-22.9-64.1C754.5,150,659.5,167.6,637,174.9
	c-53.3,17.7-104.7,68.8-121.9,121.3c-16.2,49.1-43,129.4-68.8,207.2c-16.9,50.9-34.5,103.5-48.7,146.2l0,0
	c-9.3,27.9-6.7,53.2,7.5,75.2c29.7,45.8,102.3,62.3,134.5,67.6v0.4l14.8,1.5c127.6,12.7,364.9,34.9,521.9,49.4l51.5,4.8
	c67.6,6.3,93,15.1,124.2,27.9c43.7,18,81.5,33.6,107.9,36.6c6.4,0.7,12.9,1,19.2,1c33.1,0,65.2-9.9,92.1-28.5
	c27.9-19.3,47.8-46.3,53.5-72.2C1531.3,782.2,1527.3,756.9,1512.6,737.9z"/>
</svg>
