<?xml version="1.0" encoding="utf-8"?>
<!-- Generator: Adobe Illustrator 27.0.1, SVG Export Plug-In . SVG Version: 6.00 Build 0)  -->
<svg version="1.1" id="Mosport_-_Config" xmlns="http://www.w3.org/2000/svg" xmlns:xlink="http://www.w3.org/1999/xlink" x="0px"
	 y="0px" viewBox="0 0 1920 1080" style="enable-background:new 0 0 1920 1080;" xml:space="preserve">
<style type="text/css">
	.st0{fill:none;stroke:#FFFFFF;stroke-width:30;stroke-miterlimit:10;}
</style>
<path class="st0" d="M1716.5,725.5c-14.1-9.4-31.4-12.9-42.9-15.2c-0.9-0.2-1.9-0.4-2.8-0.6c-27.6-5.7-69.2-17.3-91-27
	c-65.6-29-103.7-91.1-117.4-139.6c-7.3-26-16.7-61.8-26.7-99.6c-12.6-48.1-25.7-97.9-35.2-130.1c-23.7-80.1-50.6-119.8-92.7-137.2
	c-47.4-19.6-88-17.2-120.7,6.9c-26.2,19.3-41.5,48-51.9,71c-33.7,74.3-64.8,128.9-87.4,154C1007,453.7,964.4,461.4,928,463
	c-44,1.9-91.2-18.4-123.2-53.1c-13-14.1-33.5-42.8-48.5-63.8c-4.7-6.6-9-12.6-12.6-17.6c-16.2-22-29.4-40.3-41.1-56.2
	c-45-61.7-60.1-82.5-91.5-113.2c-31.1-30.4-65.2-45.2-101.2-44.1c-55.6,1.8-94.8,40.5-105.4,52.4c-53.7,59.6-155.6,178.5-205.7,240
	c-15.9,19.5-21.2,40-15.8,61c3.5,13.7,11.6,27,23.8,39.4c9.1,9.2,22.7,22.4,35.8,35.2c8.7,8.5,17,16.5,23.2,22.7
	c33.9,33.6,27.1,67,15.9,95.3l-1,2.6c-12.5,31.6-18.8,47.6-18.8,68.3c0,56.9,16.1,103.5,48,138.7c25.3,27.9,59.7,47,97.1,53.7
	c63.3,11.4,154.7,23.4,279.3,36.5c29,3,48.4,4.1,63.7,4.1c14.2,0,24.9-0.9,36.3-1.8c2.3-0.2,4.6-0.4,7-0.6
	c87.2-6.9,214.6-26.4,302.9-40.4c30.7-4.8,53.5-9.3,71.7-13.9c35-8.8,80.8-23.1,129.2-38.2c56.2-17.6,114.4-35.6,165.6-48.5
	c108.8-27.3,153-6.9,195.7,12.8c6.6,3,13.6,6.3,20.6,9.2c10.2,4.3,19.4,4.6,27.4,0.9c10.8-4.8,15.9-15.4,17.9-21.3
	c0.7-1.8,1.4-4,2.2-6.3c4.2-11.8,9.9-28,11.7-37.9C1741.9,756.1,1734.5,737.6,1716.5,725.5z"/>
</svg>
