<?xml version="1.0" encoding="utf-8"?>
<!-- Generator: Adobe Illustrator 27.0.1, SVG Export Plug-In . SVG Version: 6.00 Build 0)  -->
<svg version="1.1" id="GP_-_Config" xmlns="http://www.w3.org/2000/svg" xmlns:xlink="http://www.w3.org/1999/xlink" x="0px"
	 y="0px" viewBox="0 0 1920 1080" style="enable-background:new 0 0 1920 1080;" xml:space="preserve">
<style type="text/css">
	.st0{fill:none;stroke:#FFFFFF;stroke-width:30;stroke-miterlimit:10;}
</style>
<path class="st0" d="M375.4,286.4c6.6-47.6,16.1-68.6,28.5-85.3c37.4-50.7,88.9-65.5,153-44.1c23.4,7.8,68.6,26.3,90.4,36.4
	c30.6,14.2,84.8,44.7,128.7,69.7c20.8,11.8,33.3,25.2,37.3,39.9c3,11.2,1.2,22.8-5.6,34.6c-10,17.5-23.5,27.1-40,28.7
	c-13.1,1.3-25-2.9-33.9-6.7c-10.4-4.4-26-12-41-19.3c-12.5-6.1-24.3-11.8-32.5-15.5c-34.3-15.2-41.3-17.7-62.6-22.5
	c-13-2.9-39.7-5.5-53.4-4.2c-29.9,2.6-39.5,24.9-45,46.3c-5.7,22.3-13.2,57.9-16.7,77.1c-6.8,37.7-9,102-9.2,109.2
	c-0.8,27-0.1,62,1.8,83.3c4,46.2,10,66,14.5,74.5c11.8,22.7,27.1,35.8,45.6,38.7c21.2,3.4,43.3-7.3,55-18.6
	c15.7-15.3,37.3-42.5,58.1-68.8c17.8-22.5,34.7-43.7,47.8-57.6c47.4-50.1,64.8-66,86-84.7c37.7-33.1,113.7-91.2,167.7-132
	c16.1-12.2,36.4-28.3,57.9-45.3c62.7-49.6,140.6-111.3,191.4-138.6c38.9-20.9,75.4-26.1,108.7-15.5c22.2,7.1,42.6,21.1,62.2,42.8
	c21.6,23.9,55.2,58.8,87.8,92.5c31.2,32.4,60.7,62.9,80.6,84.8c23.3,25.6,21,54.3,17.4,69c-4.5,19.1-16.7,59.2-25.5,78.3
	c-15.2,33.1-22.2,42.7-32.7,57.2l-0.7,1c-12.6,17.3-42,43.5-59.7,59.1l-1.8,1.6c-35.7,31.8-68,53-101.5,66.7
	c-21.5,8.8-38.6,14-57.1,17.5c-23,4.3-44.8,7.8-59.7,4.3c-26.7-6.3-47.2-23.5-62.3-36c-2.4-2-4.6-3.8-6.6-5.5
	c-24.5-19.7-60.4-50-92-76.7c-15.2-12.8-29.6-24.9-40.5-34.1c-28.4-23.6-54.3-1.5-80.6,25.4c-2.8,2.9-5.4,5.6-7.9,7.9
	c-30.4,29.4-95.9,91.4-132.4,126c-8,7.6-18,17-28.6,26.9C729.8,809.1,679.8,856,652.6,884c-32.5,33.5-62,48.4-95.6,48.4
	c-24,0-49.9-8.8-74.8-25.6c-20.4-13.7-39.9-32.7-53.4-52c-51.3-73.6-62.8-162.9-65.3-197.9c-3-40.8-1.4-116.4-0.4-166.5
	c0.1-7.7,0.3-14.8,0.4-21.1c2-109.9,5.3-133.6,11.2-176.5L375.4,286.4z"/>
</svg>
