<?xml version="1.0" encoding="utf-8"?>
<!-- Generator: Adobe Illustrator 27.0.1, SVG Export Plug-In . SVG Version: 6.00 Build 0)  -->
<svg version="1.1" id="Indy_-_Config" xmlns="http://www.w3.org/2000/svg" xmlns:xlink="http://www.w3.org/1999/xlink" x="0px"
	 y="0px" viewBox="0 0 1920 1080" style="enable-background:new 0 0 1920 1080;" xml:space="preserve">
<style type="text/css">
	.st0{fill:none;stroke:#FFFFFF;stroke-width:30;stroke-miterlimit:10;}
</style>
<g id="Layer_18">
	<path class="st0" d="M1606.1,591.5c0,39.5-14.6,82.1-42.2,123.2c-22.6,33.6-53.8,65.6-85.6,87.8
		c-121.2,84.5-268.2,103.4-325.7,107.5c-67.1,4.9-191.6,2.4-274.1,0.7c-12.7-0.2-24.4-0.5-34.7-0.7c-181-3.3-219.9-8.6-290.6-18.4
		l-10.6-1.5c-78.4-10.8-112.9-26.6-140.4-47c-83.4-61.6-107.8-146.3-72.7-251.9c12.8-38.5,43.3-112.9,60-148.8
		C412.8,392.3,463,303,504.2,230.7c19.5-34.3,41.5-54.8,65.7-61.4c18.4-4.9,37.5-1.9,57,9.2c28.8,16.5,44.7,38.7,47.2,65.8
		c2.1,21.5-4.8,41.2-11,55.7c-7.3,17.2-19.8,42.8-31.7,67.5c-10,20.5-19.4,39.9-25.4,53.5c-25,56.5-29.2,68-37,103
		c-4.8,21.4-9,65.3-7,87.9c4.3,49.2,41,65,76.2,74.1c36.7,9.4,95.2,21.8,126.9,27.6c62,11.3,167.9,14.8,179.7,15.1
		c44.4,1.3,102.1,0.1,137.1-2.9c76-6.6,108.6-16.5,122.6-23.8l0.4-0.2c0.5-0.2,51.8-25.9,66.1-79.9c5.7-21.4,25.6-75.8,87.5-117.6
		c5.9-4.2,87-61.1,149.9-49.5c33.5,6.2,60.2,24.6,77,53.3C1602.4,536.8,1606.1,569.4,1606.1,591.5z"/>
</g>
</svg>
