<?xml version="1.0" encoding="utf-8"?>
<!-- Generator: Adobe Illustrator 27.0.1, SVG Export Plug-In . SVG Version: 6.00 Build 0)  -->
<svg version="1.1" id="Chicane__Config" xmlns="http://www.w3.org/2000/svg" xmlns:xlink="http://www.w3.org/1999/xlink" x="0px"
	 y="0px" viewBox="0 0 1920 1080" style="enable-background:new 0 0 1920 1080;" xml:space="preserve">
<style type="text/css">
	.track-surface{fill:none;stroke:#FFFFFF;stroke-width:30;stroke-miterlimit:10;}
</style>
<path class="track-surface" d="M1519.5,614.2c-17-17.3-39.8-30.3-69.6-39.7c-24.5-7.7-61.4-17.7-112.7-30.6c-10.5-2.7-47.9-9.4-88.4,13.5
	c-16.3,9.2-35.1,20.2-53.7,33.7c-0.8,0.6-1.7,1.2-2.7,2c-12,9.3-13.5,7.3-15.5,4.8c-0.6-0.7-1.2-1.6-1.9-2.7
	c-5-7.4-15.6-22.9-39.5-18.5l0,0c-59.2,10.9-99-1.8-122-14.4c-71.2-38.9-89-43.3-122.7-49.4c-31.7-5.6-64-7.3-96.1-5
	c-17.9,1.3-45.1,4.5-71.5,7.4c-20.2,2.3-39.2,4.5-53.5,5.8c-26.8,2.5-33.6-16.5-35.2-24.8c-2.2-11.1-1-20.1,3.5-26.5
	c6.2-8.9,17.6-12,23.9-13c8.7-1.4,20.7-2.8,33.6-4.2c22.8-2.6,48.8-5.5,65.3-9.8c46.4-12,50.4-44.1,52.9-63.4c0.1-1,0.3-2.1,0.4-3.1
	c6.3-47.5,13.3-65.1,24.7-82.5c7.2-10.9,16.9-25,27.2-39.9c19.4-28.1,41.4-60,56.5-85.2c22.9-38,5.9-65.6-6.2-78.6
	C905,77.8,890,71.7,874,72.9c-14.8,1-29.6,8.6-36.5,18.6c-17.2,24.9-35.9,52-55.7,80.5C660.7,346.9,495.1,586.3,390.2,744.7
	c-49.6,75-11.7,156.9,15.3,189.7c26.2,32,72,47.8,91.5,54.6c24.3,8.5,67.2,18.1,89.8,18.3c0.6,0,1,0,1.6,0
	c26.3,0,46.6-6.8,60.3-20.4c18.4-18.2,20.4-43.5,20.4-61c0-30.7,1.6-74.6,3.3-120.9c1.8-49.4,3.7-100.4,3.4-134.5
	c-0.3-36.9,16-40.8,23.7-42.6c21.8-5.2,34.7,7.4,37.8,16.6c2.1,6.4,5.8,18.4,7,24.3c1.9,8.9,6.7,13.5,10.3,15.8
	c9.1,5.7,20.1,2.9,25.9,1.3l0.9-0.2c59.3-15.1,97.6-23.8,127.7-28.9c90.3-15.2,131.9-15.1,180.7-13.4c70.7,2.6,94.2,7.3,121.6,12.9
	c5.2,1,10.7,2.2,16.5,3.2c54.7,10.4,87.9,18.3,117.5,33c21.6,10.7,31.7,30.7,32,41.6c0.8,28.9-24.7,46.2-43.1,49.3
	c-35.3,5.9-66.9,5.7-94.6,5.5c-4.5,0-8.8-0.1-13.1-0.1c-22.7,0-45.1,2.7-63,7.3c-22,5.8-36,15.8-41.7,29.6
	c-6.3,15.3,0.4,29.2,3.5,34.4c39.1,65.1,114.9,116,184.3,123.7c21.4,2.4,39.4-8,48.3-17.7c17.3-18.6,38-45.6,49.6-62.5
	c10.8-15.9,16.4-23.5,22.5-29.7c17.1-17.1,33-31.8,47.1-44.8c14.8-13.7,27.7-25.6,38-36.6c22.3-24,36.6-52,38.3-75.1
	C1556.6,675.1,1545.2,640.2,1519.5,614.2z"/>
</svg>
