<?xml version="1.0" encoding="utf-8"?>
<!-- Generator: Adobe Illustrator 27.0.1, SVG Export Plug-In . SVG Version: 6.00 Build 0)  -->
<svg version="1.1" id="Club__Config" xmlns="http://www.w3.org/2000/svg" xmlns:xlink="http://www.w3.org/1999/xlink" x="0px"
	 y="0px" viewBox="0 0 1920 1080" style="enable-background:new 0 0 1920 1080;" xml:space="preserve">
<style type="text/css">
	.track-surface{fill:none;stroke:#FFFFFF;stroke-width:30;stroke-miterlimit:10;}
</style>
<path class="track-surface" d="M888.3,981c84.8-1.6,107.7-58.1,112.6-75.4c15.3-53,11.2-106.8,8.6-142.5l-0.4-6.6c-2-27.4-6.9-69.2-11.4-109.7
	c-3.5-30.9-6.9-60.1-8.9-82.1c-3.8-41.1,25.4-51.5,38.1-54c17.1-3.4,30.8-1.6,40.7,5.3c13.7,9.5,18.4,27.1,20,36.8
	c2.2,13.3,4.2,31.8,6.4,51.5c3.9,35,8.5,74.8,15,100.2c18.4,71.2,67.8,77.5,97.3,81.1c1.6,0.1,3.2,0.4,4.8,0.6
	c72.9,9.6,99.8,20.4,126.6,37.9c16.5,10.9,37.8,25.5,60.3,41c43.5,29.9,92.6,63.9,131.7,87.2c58.5,35,100.8,9,120.8-9.6
	c18.5-17.2,27.9-40.3,26.1-64.8c-1.6-22.8-13.1-45.4-28.6-56c-39.5-27.3-82.4-57-127.9-88.4C1253.1,549,887.6,296,645.9,136
	c-115-76-240.6-17.8-291.1,23.5c-49,40.3-73.4,110.4-83.7,140.3c-13,37.3-27.7,103.1-28,137.7c0,0.9,0,1.6,0,2.5
	c0,40.4,10.5,71.5,31.4,92.5c27.9,28.2,66.7,31.4,93.5,31.4c47.1,0,114.1,2.5,185,5.1c75.9,2.8,154.4,5.7,206.7,5.3
	c56.6-0.4,62.6,24.5,65.4,36.3c8,33.4-11.4,53.3-25.5,57.9c-9.8,3.2-28.4,8.9-37.3,10.8c-13.6,2.9-20.6,10.1-23.9,15.5
	c-8.6,13.7-4.5,30.2-2.5,39.1c0.1,0.7,0.3,1.3,0.4,1.9c9.9,42.9,15.2,63.8,19,78.9c4.2,16.8,6.6,26,11.5,50.2
	c9.5,45.8,27.9,78.5,54.7,97.3C840,975.3,861.9,981.4,888.3,981z"/>
</svg>
