<?xml version="1.0" encoding="utf-8"?>
<!-- Generator: Adobe Illustrator 27.0.1, SVG Export Plug-In . SVG Version: 6.00 Build 0)  -->
<svg version="1.1" id="Grand_Prix__Config" xmlns="http://www.w3.org/2000/svg" xmlns:xlink="http://www.w3.org/1999/xlink" x="0px"
	 y="0px" viewBox="0 0 1920 1080" style="enable-background:new 0 0 1920 1080;" xml:space="preserve">
<style type="text/css">
	.st0{fill:none;stroke:#FFFFFF;stroke-width:30;stroke-miterlimit:10;}
</style>
<path class="st0" d="M1463.3,606.7c-15.4-15.6-35.8-27.3-62.6-35.6c-25.7-8.1-71.2-20.4-101.4-27.5c-53.2-12.5-91.6-1.8-122.2,10.3
	c-17.3,6.8-32.4,11.5-44.5,15.3c-3.9,1.2-7.6,2.4-11,3.5c-49.5,16.2-83.7,3.5-113.4-12.6c-64.8-35.1-80.6-39-110.3-44.3
	c-28.5-5-57.5-6.6-86.4-4.5c-16.1,1.2-40.5,4-64.3,6.7c-18.1,2.1-35.2,4-48.1,5.2c-24.1,2.2-30.2-14.9-31.6-22.3
	c-2-10-0.9-18,3.1-23.9c5.6-8,15.9-10.8,21.5-11.7c7.8-1.3,18.6-2.5,30.2-3.8c20.5-2.3,43.9-5,58.7-8.8c41.7-10.8,45.4-39.8,47.5-57
	c0.1-0.9,0.3-1.9,0.3-2.8c5.6-42.7,12-58.5,22.2-74.2c6.4-9.7,15-22.1,24-35.3c17.5-25.5,37.4-54.3,51.1-77.2
	c20.5-34.3,5.3-59.1-5.6-70.8c-10.1-10.9-23.6-16.3-38-15.3c-13.3,0.9-26.6,7.7-32.8,16.8c-16,23.1-33.3,48.1-51.6,74.7
	C689.8,368,541.6,582.3,447.7,724l0,0c-44.6,67.5-10.5,141.1,13.8,170.6c23.6,28.7,64.7,43,82.2,49.1c21.9,7.6,60.4,16.2,80.7,16.4
	c0.5,0,0.9,0,1.5,0c23.7,0,41.9-6.2,54.2-18.4c16.5-16.3,18.4-39.1,18.4-54.8c0-27.6,1.5-66.9,3-108.4c1.6-44.5,3.3-90.4,3.1-121.1
	c-0.3-33.2,14.4-36.7,21.3-38.3c19.6-4.7,31.2,6.7,33.9,15c1.9,5.7,5.2,16.7,6.3,21.9c1.7,8,6,12.1,9.2,14.2
	c8.2,5.1,18,2.6,23.3,1.2l0.8-0.2c54.1-13.8,87.4-21.3,114.8-25.9c81.2-13.7,118.6-13.6,162.4-12.1c63.4,2.2,84.6,6.6,109.3,11.6
	c4.7,0.9,9.6,2,14.9,2.9c49.2,9.3,79,16.4,105.7,29.7c19.4,9.6,28.5,27.6,28.7,37.4c0.7,26-22.2,41.5-38.7,44.3
	c-31.7,5.3-60.1,5.1-85.1,5c-4,0-8-0.1-11.8-0.1c-20.4,0-40.5,2.4-56.7,6.6c-19.7,5.2-32.3,14.2-37.4,26.6
	c-5.6,13.8,0.3,26.2,3.1,30.9c35.1,58.6,103.3,104.3,165.7,111.2c19.2,2.1,35.4-7.2,43.4-15.9c15.6-16.8,34.2-40.9,44.6-56.2
	c9.7-14.3,14.7-21.1,20.3-26.7c15.4-15.4,29.7-28.6,42.3-40.3c13.3-12.3,24.9-23,34.1-32.9c20.1-21.5,32.9-46.8,34.5-67.5
	C1496.6,661.5,1486.3,630.1,1463.3,606.7z"/>
</svg>
