<?xml version="1.0" encoding="utf-8"?>
<!-- Generator: Adobe Illustrator 27.0.1, SVG Export Plug-In . SVG Version: 6.00 Build 0)  -->
<svg version="1.1" id="Concord_Half_Config" xmlns="http://www.w3.org/2000/svg" xmlns:xlink="http://www.w3.org/1999/xlink"
	 x="0px" y="0px" viewBox="0 0 1920 1080" style="enable-background:new 0 0 1920 1080;" xml:space="preserve">
<style type="text/css">
	.st0{fill:none;stroke:#FFFFFF;stroke-width:30;stroke-miterlimit:10;}
</style>
<path class="st0" d="M390.5,586c0-71.9,23-132.4,68.2-180.2c37.9-39.8,84.7-63.6,118.9-81c6.3-3.2,12.3-6.3,17.8-9.1
	c163.1-86.6,249.2-119,358.2-160.1l9-3.4c67.9-25.7,130.6-35.5,186.3-29.4c57.6,6.3,107.4,30.3,144.3,69.4
	c61,64.9,112.1,148.9,144,207.9c36.2,66.8,66.4,135.5,79,179.3l0,0c26.1,91.2,8.9,163.7-10.3,208.5
	c-22.6,53.1-61.6,98.2-104.4,120.6c-121.9,63.8-230.5,52.1-302.3,44.3c-4.1-0.5-8.2-0.8-12.2-1.3c-118.7-12.3-345.2-46.3-454.4-80.1
	c-89.4-27.6-154.9-69.8-194.7-125.3c-31.3-43.7-46.8-94.8-47.5-156C390.5,588.6,390.5,587.3,390.5,586z"/>
</svg>
