<?xml version="1.0" encoding="utf-8"?>
<!-- Generator: Adobe Illustrator 27.0.0, SVG Export Plug-In . SVG Version: 6.00 Build 0)  -->
<svg version="1.1" id="Layer_1" xmlns="http://www.w3.org/2000/svg" xmlns:xlink="http://www.w3.org/1999/xlink" x="0px" y="0px"
	 viewBox="0 0 1920 1080" style="enable-background:new 0 0 1920 1080;" xml:space="preserve">
<style type="text/css">
	svg {height: 100%;width: 100%;}.track-surface {fill: none;stroke: white;stroke-width: 30;}
</style>
<path class="track-surface" d="M1328.9,600.7c-1.5-11.9-7-18.5-11.5-21.8c-6.3-4.9-14.8-6.9-23.3-5.7c-7.9,1.1-31.1,3.8-31.4,3.8
	c-42,4.9-81-16.2-81.3-16.5l-0.1-0.1c-65.7-35.6-81.8-39.5-111.8-44.9c-28.9-5.1-58.3-6.7-87.7-4.6c-16.3,1.2-41.1,4.1-65.2,6.8
	c-18.4,2.1-35.7,4.1-48.8,5.3c-24.4,2.3-30.6-15.1-32.1-22.6c-2-10.1-1-18.3,3.1-24.2c5.6-8.1,16.1-10.9,21.8-11.9
	c7.9-1.3,18.9-2.5,30.6-3.8c20.8-2.3,44.5-5,59.6-8.9c42.3-10.9,46-40.3,48.2-57.8c0.1-1,0.3-1.9,0.3-2.9
	c5.7-43.3,12.1-59.3,22.5-75.3c6.5-9.8,15.2-22.5,24.4-35.8c17.8-25.8,38-55.1,51.8-78.3c20.8-34.8,5.4-59.9-5.7-71.8
	c-10.2-11-23.9-16.6-38.5-15.5c-13.5,1-27,7.8-33.3,17c-16.2,23.4-33.8,48.8-52.4,75.8C858.4,365.5,708,582.9,612.8,726.6
	c-45.2,68.3-10.6,143,14,173c23.9,29.1,65.6,43.6,83.4,49.8c22.2,7.7,61.3,16.5,81.8,16.6c0.5,0,1,0,1.5,0c24,0,42.5-6.2,55-18.6
	c16.7-16.6,18.6-39.6,18.6-55.6c0-28,1.5-67.8,3-109.9c1.6-45.1,3.4-91.7,3.1-122.9c-0.3-33.6,14.6-37.2,21.6-38.8
	c19.9-4.8,31.6,6.8,34.4,15.2c1.9,5.8,5.3,16.8,6.4,22.2c1.7,8.1,6.1,12.3,9.4,14.4c8.3,5.2,18.3,2.6,23.6,1.2l0.8-0.2
	c54.9-14,88.6-21.6,116.4-26.3c86.4-14.6,124.2-14.2,164.6-12.2c1.9,0.1,4.2,0.3,6.7,0.3c12.7,0.7,29.9,1.7,39.9,1.3
	c13.4-0.5,20.9-6.2,24.9-10.8C1327.4,619,1330,609.8,1328.9,600.7z"/>
</svg>
