<?xml version="1.0" encoding="utf-8"?>
<!-- Generator: Adobe Illustrator 27.0.1, SVG Export Plug-In . SVG Version: 6.00 Build 0)  -->
<svg version="1.1" id="Oostelijk__Config" xmlns="http://www.w3.org/2000/svg" xmlns:xlink="http://www.w3.org/1999/xlink" x="0px"
	 y="0px" viewBox="0 0 1920 1080" style="enable-background:new 0 0 1920 1080;" xml:space="preserve">
<style type="text/css">
	.st0{fill:none;stroke:#FFFFFF;stroke-width:30;stroke-miterlimit:10;}
</style>
<path class="st0" d="M1275.5,282.4c-29.4-29.8-68.7-52.3-120-68.4c-47.9-15.1-137.3-43.1-195.6-53c-32-5.4-94.5-0.8-156.6,22
	c-60.5,22.3-99.1,55.4-111,95.9c-4.6,15.1-2.5,32,5.4,45.3c6.1,10.2,18.5,23.3,44,28.5l0,0c130.7,26.9,185.3,42.1,233.9,65.3
	c36.6,17.4,54.3,53,54.8,71.7c1.3,49.9-42.6,79.7-74.3,84.9c-60.8,10.2-115.3,9.8-163.2,9.5c-7.7,0-15.3-0.2-22.6-0.2
	c-39.2,0-77.7,4.6-108.7,12.6c-37.9,10-62.2,27.2-71.8,51c-10.8,26.4,0.7,50.3,6.1,59.4C663,819.3,793.7,907.1,913.4,920.3
	c3.6,0.3,7.2,0.7,10.7,0.7c32.1,0,58.9-16.1,72.6-31c29.8-32.1,65.6-78.6,85.6-107.7c18.7-27.4,28.2-40.5,38.9-51.2
	c29.5-29.5,56.9-54.8,81.2-77.2c25.6-23.6,47.7-44.1,65.6-63.1c38.5-41.3,63.1-89.7,66.1-129.6
	C1339.5,387.4,1319.8,327.2,1275.5,282.4z"/>
</svg>
