<?xml version="1.0" encoding="utf-8"?>
<!-- Generator: Adobe Illustrator 27.0.1, SVG Export Plug-In . SVG Version: 6.00 Build 0)  -->
<svg version="1.1" id="Full_-_Config" xmlns="http://www.w3.org/2000/svg" xmlns:xlink="http://www.w3.org/1999/xlink" x="0px"
	 y="0px" viewBox="0 0 1920 1080" style="enable-background:new 0 0 1920 1080;" xml:space="preserve">
<style type="text/css">
	.track-surface{fill:none;stroke:#FFFFFF;stroke-width:30;stroke-miterlimit:10;}
</style>
<path class="track-surface" d="M1608.2,861.1c-7.1-27.7-54.1-111.9-54.6-112.7c-4.3-7.6-74.7-131.2-75.4-132.4c-0.4-0.8-11.1-19.1-31.5-40.7
	c-18.8-20-49.7-46.7-90.5-60.4c-27.7-11.9-83.7-20.3-86-20.7c-13.3-2-131.6-15.1-136.6-15.7c-1-0.1-23.8-3.2-24.6-20.2
	c-0.3-8.5,4-16.5,11.3-20.9c8.7-5.4,25.6-10.8,53-17l0.2,0c2.6-0.7,5.2-1.4,7.9-2.1c16-4.4,32.6-8.9,52.9-7h0.2c1.3,0.1,3,0.2,5,0.4
	c21.2,2,77.5,7.2,95.5-27.5l0.1-0.1c3.6-7.5,9.5-22.4,8-39.1c-1.3-14.3-8.8-34.5-36.8-48.8c-20.6-10.6-122.8-42-135.2-44.9
	c-11.7-2.7-29.4-6.9-49.5-4.8c-18.8,2-117,11.2-118,11.3h-0.2c-0.4,0.1-44.7,5.4-86.1-14.7l-0.2-0.1c-30.4-13.4-77.7-58.1-95.5-74.9
	c-3.4-3.2-5.6-5.3-6.8-6.4c-0.6-0.5-1.6-1.5-3-2.8c-7.5-7.1-25.1-23.8-48-37.7c-29.1-17.6-56.8-24.7-82.2-21
	c-7.4,1-27,3.5-47.6,15.4c-24.2,14-42.5,36.4-54.5,66.4c-11.1,25.2-15.2,82.2-16.7,103.7c-0.2,2.4-0.3,4.3-0.4,5.6
	c-0.2,1.9-0.2,4.3-0.3,6.8c-0.3,7.2-0.6,16.1-2.9,23c-2.3,6.6-9.2,11.2-17.7,11.7c-6.8,0.4-15.6-2.9-34.5-29.3l-0.4-0.5
	c-0.6-0.7-1.2-1.4-1.9-2.2c-9.6-11.4-32-38-77-33.3l-0.4,0.1c-32.1,5.1-57,24.7-74,58.1c-8,15.4-31.5,75.4-42.2,133
	c-1.7,9.2-2.5,18.6-2.3,28c0.5,22,4.3,63.2,23.9,91.5l0.3,0.5c31.6,44.2,72.5,60.3,101.3,66.1c16.6,3.6,62,9.1,91,9.5
	c8.5,0,11.3,0.2,11.9,0.3l0.3,0.1l687.4,1.4c1-0.1,97.3-0.4,136.9,52c1.5,2,3.2,4.2,5.1,6.6c12.6,15.8,33.8,42.2,43.7,104.2
	c3.2,21.6,17.5,82,18.1,84.5v0.2c4,13.5,10.2,26.3,18.3,37.8c17.7,25.3,41.8,39.1,69.8,40h0.3c34.9-0.3,60.8-12,77-34.5
	C1616.1,915.7,1612.2,873.5,1608.2,861.1z"/>
</svg>
