<?xml version="1.0" encoding="utf-8"?>
<!-- Generator: Adobe Illustrator 27.0.1, SVG Export Plug-In . SVG Version: 6.00 Build 0)  -->
<svg version="1.1" id="Mid_Ohio_Full_-_Config" xmlns="http://www.w3.org/2000/svg" xmlns:xlink="http://www.w3.org/1999/xlink"
	 x="0px" y="0px" viewBox="0 0 1920 1080" style="enable-background:new 0 0 1920 1080;" xml:space="preserve">
<style type="text/css">
	.st0{fill:none;stroke:#FFFFFF;stroke-width:30;stroke-miterlimit:10;}
</style>
<path class="st0" d="M1637.2,861.8c-20.5-34.2-73.8-32.7-96.6-32.1c-33.1,0.9-63,1.7-90.2,2.5c-250.5,6.9-271,7.5-414.8,5.9
	c-25.7-0.3-64.4-12.3-88.7-38.1c-17.3-18.4-25.5-41.4-24.2-68.4c4.7-100,14.1-227,21.7-329.1c2-27.1,3.9-52.6,5.5-74.7
	c2.3-32.8,24.7-41.2,41.1-47.4c31.2-11.7,46.2-29.3,47.4-55.1c2.5-56.9-43.9-74.4-71.7-75.8c-52.5-2.6-82,17.9-103.6,32.8
	c-2.2,1.5-4.4,3-6.5,4.4c-45.8,30.8-59.9,33.1-73.7,32.8c-40.3-0.7-61.5-21.1-78.5-37.5c-1.2-1.2-2.5-2.4-3.7-3.5
	c-20.5-19.4-44.5-33.8-71.2-42.8c-36.8-12.7-69-18.8-98.5-18.7c-18.5,0.1-44.4-0.1-71.7-0.2c-38.6-0.2-78.5-0.5-105.6-0.1
	c-65,1-75.4,42.1-75.8,66.4c-0.1,6.7-0.4,15.7-0.7,25.1c-0.7,20-1.4,42.6-0.9,58.4c1.3,36.8,17.1,50.5,28.6,60.5l0.8,0.7
	c22.5,19.6,43.3,39.4,57,54.3c29,31.6,23.5,60.2,16,84.5c-8.8,28.5-7.4,50.9,4.2,66.4c11.3,15.2,31.5,22.8,60.1,22.6
	c18.6-0.1,53.8-1.5,71.7-2.7c29.4-1.9,51.3,3.6,61.8,15.4c7.6,8.6,9.9,21.4,6.7,38.1c-1.8,10-13,27.2-21.2,39.7c-3,4.6-5.9,9-8,12.6
	l0,0c-14.6,24.7-18.7,47.6-12.1,68.1c5.6,17.6,19.7,32.9,37.6,40.8c68.2,30.1,299.9,131.8,420.7,174.5
	c41.2,14.6,87.7,20.1,117.4,20.5c47.1,0.5,106.9,0.8,171.4,0.8c97.9,0,206.5-0.7,297.8-2.4c21.5-0.4,38-10,47.8-27.8
	C1648,909.3,1645.1,874.8,1637.2,861.8z"/>
</svg>
