<?xml version="1.0" encoding="utf-8"?>
<!-- Generator: Adobe Illustrator 27.0.1, SVG Export Plug-In . SVG Version: 6.00 Build 0)  -->
<svg version="1.1" id="Mid_Ohio_Chicane_-_Config" xmlns="http://www.w3.org/2000/svg" xmlns:xlink="http://www.w3.org/1999/xlink"
	 x="0px" y="0px" viewBox="0 0 1920 1080" style="enable-background:new 0 0 1920 1080;" xml:space="preserve">
<style type="text/css">
	.track-surface{fill:none;stroke:#FFFFFF;stroke-width:30;stroke-miterlimit:10;}
</style>
<path class="track-surface" d="M1637.1,861.5c-17.5-29.1-46.4-41-77.2-31.7c-17.7,5.3-31.8,22-41.1,33.1c-0.8,0.9-1.5,1.7-2.1,2.5
	c-17.2,20.3-30.2,21.1-42.8,22c-3.4,0.2-8.9,0.3-14.2,0.3c-5.6,0-10.9,0.1-14.8,0.3c-31.8,1.9-43.2-10.8-52.4-21
	c-23-25.6-45.3-29.4-64.1-29.7c-48.3-0.9-125.8-0.4-194.2,0.1c-37.4,0.2-72.7,0.5-98.7,0.5c-25.3,0-63.7-11.8-88.2-37.5
	c-17.6-18.5-25.9-41.7-24.6-68.9c4.7-100.2,14.2-227.4,21.8-329.6c2-26.9,3.9-52.3,5.4-74.2c2.3-32.8,24.7-41.2,41.1-47.4
	c31.2-11.7,46.2-29.3,47.4-55.1c2.5-56.9-43.9-74.4-71.7-75.8c-52.5-2.6-82,17.9-103.6,32.8c-2.2,1.5-4.4,3-6.5,4.4
	c-45.8,30.8-59.9,33.1-73.7,32.8c-40.2-0.6-61.4-21.1-78.5-37.5c-1.3-1.2-2.5-2.4-3.7-3.5c-20.5-19.4-44.5-33.8-71.2-42.8
	c-36.9-12.7-69.1-18.8-98.4-18.6c-18.3,0.1-43.9-0.1-71-0.2c-38.9-0.2-79.1-0.5-106.3-0.1c-65.1,1-75.5,42.1-75.8,66.4
	c-0.1,6.8-0.4,15.7-0.7,25.2c-0.7,20-1.4,42.6-0.9,58.3c1.3,36.8,17.1,50.5,28.6,60.5l0.8,0.7c22.5,19.6,43.3,39.4,57,54.3
	c29,31.6,23.5,60.2,16,84.5c-8.8,28.5-7.4,50.9,4.2,66.4c11.3,15.2,31.5,22.7,60.1,22.6c18.6-0.1,53.8-1.5,71.7-2.7
	c29.4-1.9,51.3,3.5,61.8,15.4c7.6,8.6,9.9,21.4,6.7,38.1c-1.9,10-13.1,27.2-21.3,39.7c-3,4.6-5.9,9-8,12.6
	c-14.6,24.7-18.7,47.6-12.1,68.1c5.6,17.6,19.7,32.9,37.6,40.8c87.5,38.7,303.8,133.2,420.7,174.5c41.2,14.6,87.7,20.1,117.4,20.5
	c47.1,0.5,106.9,0.8,171.5,0.8c97.8,0,206.5-0.7,297.7-2.4c21.5-0.4,38-10,47.8-27.8C1647.9,909.1,1645,874.6,1637.1,861.5z"/>
</svg>
