<?xml version="1.0" encoding="utf-8"?>
<!-- Generator: Adobe Illustrator 27.0.1, SVG Export Plug-In . SVG Version: 6.00 Build 0)  -->
<svg version="1.1" id="Mid_Ohio_Short_-_Config" xmlns="http://www.w3.org/2000/svg" xmlns:xlink="http://www.w3.org/1999/xlink"
	 x="0px" y="0px" viewBox="0 0 1920 1080" style="enable-background:new 0 0 1920 1080;" xml:space="preserve">
<style type="text/css">
	.st0{fill:none;stroke:#FFFFFF;stroke-width:30;stroke-miterlimit:10;}
</style>
<path class="st0" d="M1359.7,841.8c-9.5-13.1-25.1-15.5-33.5-15.8c-5.5-0.2-12.5-0.2-19.8-0.2c-11.9-0.1-25.4-0.1-35.9-0.7
	c-31-1.8-110.7-23.2-107-100.5c4.4-94.6,13.4-214.7,20.6-311.2c1.9-25.4,3.7-49.4,5.1-70.1c2.2-31,23.3-38.9,38.8-44.8
	c29.5-11,43.6-27.7,44.8-52c2.4-53.7-41.5-70.3-67.7-71.6c-49.6-2.5-77.4,16.9-97.8,31c-2.1,1.4-4.2,2.8-6.1,4.2
	c-43.2,29.1-56.6,31.3-69.6,31c-38-0.6-58-19.9-74.1-35.4c-1.2-1.1-2.4-2.3-3.5-3.3c-19.4-18.3-42-31.9-67.2-40.4
	c-34.8-12-65.3-17.8-92.9-17.6c-17.3,0.1-41.5-0.1-67-0.2c-36.7-0.2-74.7-0.5-100.4-0.1c-61.5,0.9-71.3,39.8-71.6,62.7
	c-0.1,6.4-0.4,14.8-0.7,23.8c-0.7,18.9-1.3,40.2-0.8,55.1c1.2,34.8,16.1,47.7,27,57.1l0.8,0.7c21.2,18.5,40.9,37.2,53.8,51.3
	c27.4,29.8,22.2,56.8,15.1,79.8c-8.3,26.9-7,48.1,4,62.7c10.7,14.4,29.7,21.4,56.8,21.3c17.6-0.1,50.8-1.4,67.7-2.5
	c27.8-1.8,48.4,3.3,58.4,14.5c7.2,8.1,9.3,20.2,6.3,36c-1.8,9.4-12.4,25.7-20.1,37.5c-2.8,4.3-5.6,8.5-7.6,11.9
	c-13.8,23.3-17.7,44.9-11.4,64.3c5.3,16.6,18.6,31.1,35.5,38.5c13.3,5.9,28.5,12.7,44.7,19.8c104,46.3,261,116.3,352.9,145l0,0
	c12.2,3.8,41.8,12.5,59.6,12.5c0.5,0,0.9,0,1.4,0c34.9-0.9,56.9-16.8,65.5-46.9C1369.2,868.9,1367.9,853,1359.7,841.8z"/>
</svg>
