<?xml version="1.0" encoding="utf-8"?>
<!-- Generator: Adobe Illustrator 27.0.1, SVG Export Plug-In . SVG Version: 6.00 Build 0)  -->
<svg version="1.1" id="Mid_Ohio_Oval_-_Config" xmlns="http://www.w3.org/2000/svg" xmlns:xlink="http://www.w3.org/1999/xlink"
	 x="0px" y="0px" viewBox="0 0 1920 1080" style="enable-background:new 0 0 1920 1080;" xml:space="preserve">
<style type="text/css">
	.track-surface{fill:none;stroke:#FFFFFF;stroke-width:30;stroke-miterlimit:10;}
</style>
<path class="track-surface" d="M1637.6,534.1c-5.7-103-56.5-224-266.2-218c-234.4,7-546.4,16.1-907.5,26.4c-59.9,1.7-109.3,29.4-143.4,79.9
	c-29.1,43.1-39.1,91.6-38.5,122.4c1,60.9,28.8,117.4,77.6,159.2c38.5,32.8,88.9,54.8,128.4,55.8c121,3,233.7,4.3,339.1,4.3
	c154.8,0,294.6-2.3,424-4.7c41.8-0.7,82.9-1.3,123.4-2c96-1.3,167.5-26.8,212.3-75.2C1622.9,644.4,1641,591.6,1637.6,534.1z"/>
</svg>
