<?xml version="1.0" encoding="utf-8"?>
<!-- Generator: Adobe Illustrator 27.0.0, SVG Export Plug-In . SVG Version: 6.00 Build 0)  -->
<svg version="1.1" id="Laguna_Seca_-_Config" xmlns="http://www.w3.org/2000/svg" xmlns:xlink="http://www.w3.org/1999/xlink"
	 x="0px" y="0px" viewBox="0 0 1920 1080" style="enable-background:new 0 0 1920 1080;" xml:space="preserve">
<style type="text/css">
	.st0{fill:none;stroke:#231F20;stroke-width:10;stroke-miterlimit:10;}
</style>
<path class="st0" d="M1341.3,317.5l-210.2-207.9l0,0c-1.4-1.4-12.8-11.9-33.8-9.2c-20.1,2.3-65.3,10.3-67.3,10.7h-0.2
	c-1.7,0.3-41,8.9-70,28.2c-8.2,5.3-125.8,85.7-132.3,90.2c-2.7,1.7-37.2,23.7-66.1,52.2c-5.6,4.9-13.7,8.4-21,11.1
	c-8.3,3.1-48.5,17.9-52.3,19.3c-7.6,2.1-20,9.4-20.3,23.8v0.3c0.1,6.4,3.2,13.2,6.1,19.8c2.1,4.6,4.9,10.9,4.5,13.4v0.2
	c-0.3,2.5-4.5,12.7-7.7,16.1c-0.9,1-4.6,4.4-19.1,17.1c-10.6,9.3-22.1,17.6-34.2,24.9c-11.8,7.1-28.5,18.6-41.3,32.8
	c-25.3,25.4-29.1,52.2-29.1,65.8c0,0.5,0,1.1,0,1.8c-0.2,9.8-0.8,35.7,23.5,55c18.1,14.2,138.3,105.8,139.5,106.7
	c0.2,0.1,16.7,13.3,13.2,31.6c-4.1,17.6-7.9,24.3-8.4,24.9l-0.2,0.3l-96,194.3c-1.6,2.7-8.7,15.6-2.3,26.7
	c5.2,9,16.7,12.9,35.2,12.1c21.9,0,247.6,0.5,292.7,0.6h0.3c8.7,0,17.4-0.9,26-2.6l158.3-32.6l0.3-0.1c19.2-5.5,37.4-14.4,53.5-26.2
	c22.8-16.4,120.8-90.1,121.9-90.9c1.2-1,29.3-22.9,21.1-47.8c-8.2-28.1-33.9-37.8-48.2-37.3c-13.7,0.5-25.6,6.4-32.4,16.4
	c-6.4,9.3-28.8,40.1-36.4,47.7c-7.8,7.8-48.8,39.3-58.9,44.3l-0.5,0.2c-7.3,4.2-35.9,17.7-47.8,23.3c-6.9,3.3-14.7,4.6-22.4,3.7
	l-1.2-0.2c-9.9-1.7-18.3-8.1-22.6-17.2c-13.3-27.2-43.9-103.3-44.2-104l-28.7-65.5c-3.2-7.2-5-14.8-5.5-22.6
	c-0.6-12.8,1.5-30.6,15.5-42.8l0.4-0.4c14.6-15,62.5-55.7,82.4-72.5c8.4-7.1,17.3-13.7,26.6-19.6c11.8-7.5,29.5-18.2,47.3-26.6
	c3.5-1.7,7.3-3.2,11.5-4.7c31-11.2,165.9-59.5,172.5-61.9c4.1-1.2,35.4-11.6,39.6-54.4v-0.3C1373.7,368.7,1364.3,341.4,1341.3,317.5
	z"/>
</svg>
