<svg version="1.1" xmlns="http://www.w3.org/2000/svg" xmlns:xlink="http://www.w3.org/1999/xlink" x="0px" y="0px" viewBox="0 0 1920 1080" style="enable-background:new 0 0 1920 1080;" xml:space="preserve">
  <style type="text/css">.track{fill:none;stroke:#231F20;stroke-width:20;stroke-miterlimit:10;}</style>
  <path class="track" d="M1760.8,344.2c-2.6-38.9-11.9-68.6-28.3-90.8c-16-21.7-36.7-32.9-52.9-40.2c-7.9-3.6-20.1-8.2-31.8-12.7c-10.4-4-20.3-7.8-26.9-10.6c-32.6-14.1-40.9-18.2-55.3-38.2c-12-16.5-23.9-42.4-36.6-69.7l-3.5-7.6c-16.3-35.2-58.4-49.1-92.8-47.3c-48.7,2.6-71.7,20.6-82.4,35.3c-11.2,15.2-14.9,34.4-10.3,52.7c7.3,28.3,33.6,36,47.8,40.1l0.6,0.2c27.3,8,52.4,30.5,59.3,43.1c8,14.5,10.1,26.4,6.1,35.3c-7,16-33.1,22.3-44.2,24.9c-5.5,1.3-12.4,3.1-19.8,4.9c-23.2,5.8-55,13.7-72.6,16.7c-52.2,9-93.6,35.8-123.2,79.5c-18.5,27.3-34.9,54.6-49.3,78.7c-14.5,24.2-27.1,45.1-39,61.7c-17.7,24.6-56.4,75-77.8,102.8C993,648.3,978,682.3,966,709.6c-6.5,14.7-12,27.3-19.4,38.5c-36.5,55.7-98.5,54.3-160.1,44.6c-39.5-6.2-102-17.8-162.5-29c-37.1-6.9-72.1-13.3-98.7-18c-59-10.3-93.5-3.8-129.9,3c-2.3,0.4-4.6,0.9-7,1.3c-35.1,6.5-66.8,20.5-91.5,40.3c-22.5,18-37.5,39.4-42.2,60.2c-4.4,19.5-2,35.7,7.2,48.2c16.6,22.3,50.1,24.7,62.8,25.6c92.3,6.4,213.2,14.1,341.2,22.3c296.7,18.9,633.1,40.3,836.3,59.6c7.2,0.7,14.2,1,21,1c36.1,0,66.7-9.6,90.9-28.7c21.6-17,38.2-41.2,51-74c5.5-14.1,12.6-37.2,18.8-57.6c3.6-11.9,7.1-23.1,9.8-31.2c11.9-35.6,22.8-76,27-100.5c4.5-26,9.1-56.7,14.3-92.3c5.1-35,11-74.7,17.9-117C1764.8,434.1,1763.4,381.7,1760.8,344.2z"></path>
</svg>