<?xml version="1.0" encoding="utf-8"?>
<!-- Generator: Adobe Illustrator 27.0.0, SVG Export Plug-In . SVG Version: 6.00 Build 0)  -->
<svg version="1.1" id="Layer_1" xmlns="http://www.w3.org/2000/svg" xmlns:xlink="http://www.w3.org/1999/xlink" x="0px" y="0px"
	 viewBox="0 0 1920 1080" style="enable-background:new 0 0 1920 1080;" xml:space="preserve">
<style type="text/css">
	.track-surface{fill:none;stroke:#231F20;stroke-width:20;stroke-miterlimit:10;}
</style>
<path class="track-surface" d="M1594.9,449.5c-8.6-18.6-22-35.4-40.7-51.4c-51.2-43.7-155.2-131.4-207.3-174.9
	c-50.8-42.5-81.3-64.3-112.3-80.4c-57.4-29.7-109.8,0.5-129.5,11.8c-7.5,4.3-17.3,10.1-27.7,16.2c-16.9,10-34.4,20.3-45.9,26.6
	c-59.6,33.1-104.1,53-144.2,64.6c-7.1,2.1-18.8,4.6-30,7.1c-8.8,1.9-17.1,3.7-23,5.2c-39.1,10.2-64.6,34.2-83.1,51.8
	c-2.3,2.3-4.6,4.3-6.8,6.3c-21.8,20.1-64.7,62.6-84.9,86.9c-40.2,48.3-17.3,90.5-3.6,115.8c1,1.9,2,3.7,3,5.5
	c2,3.7,4.5,8.3,7.1,13.2c8.1,14.8,19.3,35,23.1,46.7c14.6,44.8-7.2,65.9-24.7,83l-1.1,1c-28.3,27.6-76.1,26.1-95.3,24.2
	c-18.6-1.8-42.2-5-64.9-7.9c-4.1-0.5-8-1.1-12-1.5c-12.3-1.6-22.3-3.1-30.4-4.1c-22.9-3.2-34.3-4.9-50.6-3.9
	c-33.1,2-58.5,15.6-75.2,40.4c-26.9,39.9-22.7,97.7-13.7,124.9c10.9,32.7,31.8,57.3,62.1,73.2c29.3,15.4,58.5,18,73.3,18.2
	c59.6,0.6,162.8,0.3,245.7-0.1c26.3-0.1,50.3-0.2,69.5-0.3c54.3-0.1,138.2,0.6,219.3,1.4c65.4,0.5,127.2,1.1,171.4,1.2l23,0.1
	c16.1,0,30.4,0.1,43.1,0.1c61.1,0,87.2-0.8,126.5-5.6c33.2-4.1,62.8-18.1,88.2-41.7c16.8-15.6,31.6-35.2,45.5-60.2
	c12.9-23.2,28.6-65,39-92.7c1.6-4.3,3.1-8.3,4.4-11.8c18.6-48.8,53.1-149.6,68.2-201.7C1609.1,505.6,1607.3,476.3,1594.9,449.5z"/>
</svg>
