<?xml version="1.0" encoding="utf-8"?>
<!-- Generator: Adobe Illustrator 27.0.0, SVG Export Plug-In . SVG Version: 6.00 Build 0)  -->
<svg version="1.1" id="Layer_1" xmlns="http://www.w3.org/2000/svg" xmlns:xlink="http://www.w3.org/1999/xlink" x="0px" y="0px"
	 viewBox="0 0 1920 1080" style="enable-background:new 0 0 1920 1080;" xml:space="preserve">
<style type="text/css">
	.st0{fill:none;stroke:#231F20;stroke-width:20;stroke-miterlimit:10;}
</style>
<path class="st0" d="M1631,306c-56.5-37-131.3-57.2-222.4-60.1c-195-6.2-714.1-8.4-940.1-2.3c-48.4,1.3-92.4,10.5-130.6,27.2
	c-34.1,14.9-63.8,36-88.6,62.5c-28.8,31-50.4,68.6-64.1,111.9c-11,34.6-16.1,71.5-14.7,103.9c2.3,53.1,15,100.3,37.5,139.9
	c19.6,34.5,46.8,63.7,80.9,86.7c72.6,49,156.2,56.8,188.7,57.9c143.1,4.7,329.3,6.4,502.5,6.4c176.6,0,339.6-1.8,429.8-3.8l2.5-0.1
	c70.3-1.5,131.8-13.8,182.9-36.6c44.1-19.7,79.4-47.1,104.9-81.2c31.1-41.7,47.6-93.7,49.3-154.7
	C1752.6,446.2,1712.8,359.5,1631,306z"/>
</svg>
