<?xml version="1.0" encoding="utf-8"?>
<!-- Generator: Adobe Illustrator 27.0.1, SVG Export Plug-In . SVG Version: 6.00 Build 0)  -->
<svg version="1.1" id="dover_-_Config" xmlns="http://www.w3.org/2000/svg" xmlns:xlink="http://www.w3.org/1999/xlink" x="0px"
	 y="0px" viewBox="0 0 1920 1080" style="enable-background:new 0 0 1920 1080;" xml:space="preserve">
<style type="text/css">
	.track-surface{fill:none;stroke:#FFFFFF;stroke-width:30;stroke-miterlimit:10;}
</style>
<path class="track-surface" d="M1146.7,891.6c-64.5,0-133.1-0.3-200.8-0.5c-127.9-0.5-260.2-1.1-359.3,0.3c-31.9,0.4-112.3-12.8-188.3-65.9
	c-40.3-28.2-72.8-63.3-96.7-104.3c-28.3-48.7-44.1-105.6-47.2-169.3c-5.7-121,44.9-201.7,88.4-248.2c31.6-33.7,70.9-61.8,113.9-81.3
	c39.6-18,80.1-27.9,117-28.6l17.7-0.3c199-3.9,471.5-9.4,751,1.4c133.8,5.1,211.8,76.5,253.8,135.5c23.6,33.1,42.4,71.9,54.7,112.1
	c10.6,35.3,16.1,71.5,15.1,101.8c-4.4,135.6-65.6,217.5-116.1,262.3c-30,26.6-64.1,47.5-101.3,62.2c-33.5,13.2-68,20.6-99.6,21.3
	C1292.6,891.1,1222.6,891.6,1146.7,891.6z"/>
</svg>
