<?xml version="1.0" encoding="utf-8"?>
<!-- Generator: Adobe Illustrator 27.0.1, SVG Export Plug-In . SVG Version: 6.00 Build 0)  -->
<svg version="1.1" id="Classic_Pits_-_Config" xmlns="http://www.w3.org/2000/svg" xmlns:xlink="http://www.w3.org/1999/xlink"
	 x="0px" y="0px" viewBox="0 0 1920 1080" style="enable-background:new 0 0 1920 1080;" xml:space="preserve">
<style type="text/css">
	.track-surface{fill:none;stroke:#FFFFFF;stroke-width:30;stroke-miterlimit:10;}
</style>
<path class="track-surface" d="M1636.9,504c-2.2-24.7-7-62.6-11.7-99.2c-3.7-29.2-7.1-56.7-9.2-76.5c-4-39.1-28.7-43.9-39.2-45.9
	c-8.5-1.6-18.1-4-26.7-6.2c-3.5-0.8-6.8-1.7-9.7-2.4c-15-3.6-24.5-7.7-28.2-12.3c-2.4-3-2.3-6.3-2-12.3l0.1-0.8
	c2-29.5-25.8-44.4-43.9-46.9c-10.6-1.5-30.5-5.6-43.7-8.5c-2.8-0.6-5.4-1.1-7.5-1.6c-14.9-3.1-34.9-7.3-56.5-11.9
	c-44.4-9.4-94.7-20-125.1-26.2c-35.6-7.3-109.2-22.1-146.9-29.5c-17.6-3.5-70.7-13.5-71.3-13.7l-0.7-0.1
	c-29.4-2.9-52.8-0.8-79.9,1.7c-3.7,0.4-7.5,0.7-11.4,1c-4.8,0.5-21,1.9-28.9,2.6c-18.7,1.8-49.6,4.1-72.3,5.7
	c-24.9,1.8-29.9,0.3-37.9-3c-3.7-1.5-9.5-3.6-15-5.6c-3.8-1.4-7.3-2.6-9.9-3.7c-42.7-16.4-71.5,1.1-89.5,15.7
	c-10.1,8.2-15.4,9.8-20.5,10.9c-10.9,2.3-33.1,7-44.7,9.7c-6.7,1.5-14.7,3.3-23.5,5.3c-37.5,8.4-88.9,19.8-117.2,27.4
	c-38.6,10.4-67.5,27.7-93,44.8c-2.5,1.7-5.7,3.8-9.2,6.1c-12.2,8.1-27.4,18.1-35.9,24.7c-2.3,1.8-5.7,4.1-9.3,6.6
	c-11,7.5-24.6,16.8-30.3,25.7c-5,7.9-3.8,13.4-1.8,16.6c4.4,7.5,15,7.4,17.2,7.2c55.9-3,169-8.3,225.7-10.3
	c13.5-0.5,31.2-1.5,49.8-2.5c24.6-1.4,50.1-2.8,66.6-3.1c2.4-0.1,3.7,0.3,4,0.5c0.2,1.3-0.8,4.4-2.2,6.7c-2.9,3.5-7.6,9.5-8.6,13.5
	c-3,11.2,0.8,18.6,4.5,22.8c3.9,4.5,9,7.1,13.1,8.8c17.4,7.5,40.7,17.4,54.3,22.5c11.4,4.3,34.1,11.9,46.8,15.8
	c12.1,3.7,38.1,8.8,48.9,10.7c24.4,4.3,53.4,8,79,11.2c22.9,2.9,44.5,5.5,59.8,8.4c15.8,2.9,29,10.6,40.4,23.8
	c1.9,2.2,4.4,5.1,7.1,8.1c3.3,3.8,6.7,7.6,8.9,10.1c2,2.3,4.3,5,6.8,7.9c14.2,16.4,35.7,41.4,46.6,55.5c31.5,40.7,30,77,28.8,103.5
	v0.8c-0.3,6.5-0.8,14.8-1.1,23.5c-1.4,26.2-3.1,58.8-2.5,77.8c1.1,38.8,7,71.7,18.3,103.4c15.4,42.7,24.6,57.7,34.5,73.6l2,3.2
	c11.4,18.5,30.5,40.8,41.8,50.8c19,17,37.8,21.7,52.9,21.7c11.7,0,21-2.8,26.6-5c16.2-6.3,55.7-22.5,72.4-36.3
	c27.3-22.5,15.7-44.9,10.1-55.7c-11.4-22.1-34.8-66.7-49-92.6c-20.5-37.3,16.9-65,18-65.8c18.8-11.4,29.4-24.8,31.7-39.8
	c2.3-14.8-3.9-30.5-18-46.5c-7.7-8.6-19.7-21.7-31.4-34.3c-10.7-11.6-21.7-23.6-28.8-31.5c-5.2-5.8-12.2-13.5-19.6-21.6
	c-15.5-16.9-34.8-37.9-46.4-52.2c-33.8-41.9-25.7-81.6-15.6-98.6c17.9-30,25-37.9,35-48.1c16-16.3,52.4-9.7,67.5-6
	c7.1,1.7,21.1,6.6,28.8,9.7c28.6,11.7,78,26.1,104.2,33c43,11.3,78.7,16.2,110.3,20.5l6.7,0.9c22.2,3,25.6,14.2,26,25.8
	c0.6,15.9,3.5,61.6,3.7,64.8c0.6,16.8,5.4,29.1,14.4,36.7c9.6,8.1,21.2,8.5,29.3,7.5C1628.6,540.2,1638.3,520.7,1636.9,504z"/>
</svg>
