<?xml version="1.0" encoding="utf-8"?>
<!-- Generator: Adobe Illustrator 27.0.1, SVG Export Plug-In . SVG Version: 6.00 Build 0)  -->
<svg version="1.1" id="GP_Pits_-_Config" xmlns="http://www.w3.org/2000/svg" xmlns:xlink="http://www.w3.org/1999/xlink" x="0px"
	 y="0px" viewBox="0 0 1920 1080" style="enable-background:new 0 0 1920 1080;" xml:space="preserve">
<style type="text/css">
	.st0{fill:none;stroke:#FFFFFF;stroke-width:30;stroke-miterlimit:10;}
</style>
<path class="st0" d="M1635.9,504c-2.2-24.7-6.9-62.5-11.6-99.1c-3.7-29.2-7.1-56.7-9.2-76.4c-4-39-28.6-43.8-39.1-45.9
	c-8.4-1.6-18.1-4-26.6-6.2c-3.5-0.8-6.8-1.7-9.7-2.4c-15-3.6-24.5-7.7-28.1-12.3c-2.4-3-2.3-6.3-2-12.3l0.1-0.8
	c2-29.5-25.8-44.4-43.8-46.8c-10.6-1.5-30.5-5.6-43.6-8.4c-2.8-0.6-5.3-1.1-7.5-1.6c-14.9-3.1-34.8-7.3-56.4-11.9
	c-44.4-9.4-94.6-20-125-26.2c-35.6-7.3-109-22-146.7-29.5c-17.5-3.5-70.6-13.5-71.2-13.7l-0.7-0.1c-29.4-2.9-52.7-0.8-79.7,1.7
	c-3.7,0.4-7.5,0.7-11.4,1c-4.8,0.5-20.9,1.9-28.9,2.6c-18.7,1.8-49.5,4.1-72.2,5.7c-24.9,1.8-29.8,0.3-37.8-3
	c-3.7-1.5-9.5-3.6-15-5.6c-3.8-1.4-7.3-2.6-9.9-3.7c-42.6-16.4-71.4,1.1-89.4,15.7c-10,8.2-15.4,9.8-20.5,10.9
	c-10.9,2.3-33,7-44.7,9.7c-6.7,1.5-14.6,3.3-23.5,5.3c-37.4,8.3-88.7,19.8-117,27.4c-38.6,10.4-67.4,27.7-92.9,44.7
	c-2.5,1.7-5.7,3.8-9.2,6.1c-12.2,8.1-27.4,18.1-35.8,24.7c-2.3,1.8-5.7,4.1-9.3,6.6c-11,7.5-24.6,16.8-30.2,25.7
	c-5,7.9-3.8,13.4-1.8,16.6c4.4,7.5,15,7.4,17.2,7.2c55.8-3,168.8-8.3,225.3-10.3c13.5-0.5,31.1-1.5,49.7-2.5
	c24.6-1.4,50-2.8,66.5-3.1c2.4-0.1,3.7,0.3,4,0.5c0.2,1.3-0.8,4.4-2.2,6.7c-2.9,3.5-7.6,9.5-8.6,13.5c-3,11.2,0.8,18.6,4.5,22.8
	c3.9,4.5,9,7.1,13,8.8c17.4,7.5,40.6,17.4,54.2,22.4c11.4,4.3,34.1,11.9,46.7,15.8c12.1,3.7,38.1,8.8,48.8,10.7
	c24.4,4.3,53.3,8,78.9,11.2c22.9,2.9,44.5,5.5,59.7,8.3c15.8,2.9,29,10.6,40.3,23.7c1.9,2.2,4.4,5.1,7.1,8.1
	c3.3,3.8,6.7,7.6,8.9,10.1c2,2.3,4.3,5,6.8,7.9c14.2,16.4,35.6,41.4,46.5,55.4c31.4,40.6,29.9,76.9,28.8,103.4v0.8
	c-0.3,6.5-0.8,14.7-1.1,23.5c-1.4,26.2-3.1,58.7-2.5,77.7c1.1,38.7,6.9,71.6,18.3,103.2c15.4,42.7,24.6,57.6,34.4,73.5l2,3.2
	c11.4,18.5,30.5,40.7,41.7,50.8c19,17,37.7,21.7,52.8,21.7c11.6,0,21-2.8,26.5-5c16.1-6.3,55.6-22.4,72.3-36.2
	c27.3-22.5,15.7-44.8,10-55.6c-11.4-22-34.7-66.6-49-92.5c-20.5-37.2,16.9-64.9,18-65.7c18.8-11.4,29.4-24.8,31.6-39.8
	c2.3-14.8-3.8-30.5-18-46.4c-7.7-8.6-19.7-21.7-31.3-34.2c-10.7-11.5-21.7-23.5-28.7-31.4c-5.2-5.8-12.2-13.5-19.6-21.6
	c-15.5-16.9-34.7-37.8-46.3-52.2c-33.8-41.8-25.6-81.5-15.6-98.4c17.9-29.9,25-37.8,35-48c15.9-16.3,52.3-9.7,67.4-6
	c7.1,1.7,21.1,6.6,28.8,9.7c28.5,11.6,77.9,26.1,104,32.9c43,11.3,78.6,16.1,110.1,20.5l6.7,0.9c22.1,3,25.5,14.2,26,25.8
	c0.6,15.9,3.5,61.5,3.7,64.7c0.6,16.8,5.4,29.1,14.4,36.7c9.6,8.1,21.2,8.5,29.3,7.5C1627.6,540.2,1637.3,520.7,1635.9,504z"/>
</svg>
