<?xml version="1.0" encoding="utf-8"?>
<!-- Generator: Adobe Illustrator 27.0.1, SVG Export Plug-In . SVG Version: 6.00 Build 0)  -->
<svg version="1.1" id="Full_-_Config" xmlns="http://www.w3.org/2000/svg" xmlns:xlink="http://www.w3.org/1999/xlink" x="0px"
	 y="0px" viewBox="0 0 1920 1080" style="enable-background:new 0 0 1920 1080;" xml:space="preserve">
<style type="text/css">
	.st0{fill:none;stroke:#FFFFFF;stroke-width:30;stroke-miterlimit:10;}
</style>
<path class="st0" d="M1750.4,827.5c-8.9-35.6-30.8-121.4-41.2-149.7c-12.7-37.6-47.1-43.7-52.2-44.4c-9.7-2.2-184.1-41.5-207.3-47.2
	l-0.8-0.2c-21.7-3.1-39.1-0.6-51.7,7.7c-8.9,5.7-15.3,14.8-17.6,25.2c-0.1,0.4-0.3,0.9-0.4,1.3c-7.2,24.5,3.6,50.6,26.2,63.4
	l72,40.9c21.9,14.2,19.1,29.9,17,41.4l-0.2,0.9c-3.3,9.5-9,16.2-17,19.7c-3.8,1.7-7.9,2.6-12,2.7c-14.2-0.7-341.5-15.7-366.7-16.3
	c-31.8-8.2-40-22.1-43.5-28l-0.2-0.3c-7.7-11.9-3.7-36.2-1.4-44.6l28.8-113.9c2.3-7.5,2.8-8.4,4.4-11.4c0.3-0.6,0.7-1.2,1.1-1.9
	c12.3-17.5,30.5-12.9,31.2-12.7h0.1c4.7,1.3,114.7,31.1,142.4,34.8c25,3.5,40.5-20.2,43.4-29.2l0.1-0.2c7.6-26.7-6.6-43.5-13.1-49.5
	c-1.3-1.2-5.3-4.9-64.6-27.4l-0.2-0.1l-174.9-61.4l-0.3-0.1c-28.3-8.7-122.9-45.8-126.5-47.2c-55.1-23.1-533.8-224.2-544.5-227.5
	c-43.6-13.4-101.5-15.2-137.9-4.4c-25.9,6.5-46.2,21.9-60.4,45.8c-7.6,13-13,27.2-15.8,42l-0.1,0.8c-3.2,31.8,10.9,50.4,23.3,60.4
	c9.1,7.4,20.4,12.8,33.6,16.1l0.6,0.2c1.7,0.4,8.1,1.6,27.4,5c37.4,6.5,115.1,20.2,128,25l0.5,0.2l0.5,0.1
	c11.6,2.8,38.2,14.6,61.7,25c21.2,9.4,41.2,18.3,51.3,21.2c24.5,7.5,57.1,8.3,92.1,2.2h0.1c1.8-0.3,3.9-0.8,6.4-1.3
	c16.4-4,33.2-5.6,50.1-4.9c14.7,0.5,31.4,3,49.7,7.6c19.9,5.1,39.2,12.4,57.5,21.8l63.2,32.4c12.6,6.5,25.1,13.5,37.1,21
	c11.7,7.2,31.8,19.7,36.4,22.5c37.2,24.9,43.8,52.6,48.2,70.9c0.3,1.3,0.6,2.5,0.9,3.7c7.4,45.9-24.6,83.3-24.9,83.7l-0.2,0.2
	c-9.7,11.7-95,115.1-101.5,124.5l-0.2,0.4l-0.2,0.4c-19,34.2-24.4,71-16.3,109.5l0.1,0.6l0.2,0.6c8.9,24.9,31.2,41.6,64.7,48.4
	c15.1,3,30.6,3.9,46,2.9l632.9,1.4c2.9,0.1,29.9,0.9,61,0.9c29,0,61.7-0.7,81.9-3.2h0.1c53.9-7.4,66.6-42.6,71.4-55.9
	c0.2-0.7,0.5-1.3,0.7-1.9c1.5-4.1,2.5-9.2,3-15.8C1754.4,850.6,1753.3,838.8,1750.4,827.5z"/>
</svg>
