<?xml version="1.0" encoding="utf-8"?>
<!-- Generator: Adobe Illustrator 27.0.1, SVG Export Plug-In . SVG Version: 6.00 Build 0)  -->
<svg version="1.1" id="Short_-_Config" xmlns="http://www.w3.org/2000/svg" xmlns:xlink="http://www.w3.org/1999/xlink" x="0px"
	 y="0px" viewBox="0 0 1920 1080" style="enable-background:new 0 0 1920 1080;" xml:space="preserve">
<style type="text/css">
	.track-surface{fill:none;stroke:#FFFFFF;stroke-width:30;stroke-miterlimit:10;}
</style>
<path class="track-surface" d="M1656,635.3c-13-51.7-44.8-176.2-59.7-217.2c-18.4-54.6-68.3-63.5-75.8-64.5c-14-3.2-267.2-60.3-300.9-68.5
	l-1.2-0.2c-31.6-4.6-56.8-0.8-75,11.2c-13,8.3-22.1,21.5-25.5,36.5c-0.2,0.6-0.4,1.3-0.6,1.9c-10.4,35.6,5.2,73.4,38,92l104.6,59.4
	c31.8,20.6,27.7,43.5,24.7,60.1l-0.2,1.3c-4.8,13.9-13.1,23.5-24.6,28.6c-5.5,2.5-11.4,3.8-17.5,3.9c-20.6-1-495.7-22.7-532.4-23.6
	c-46.1-11.9-58-32-63.1-40.7l-0.3-0.5c-11.1-17-5.5-51.6-2.2-64.2c17-47.3,6.3-74-5.7-88l-0.8-0.9c-37.8-36.5-93.6-38.4-111.9-39.1
	l-2.2-0.1h-0.4c-47.8,0.9-83.5,49-87.6,54.7c-15.4,18.8-137.6,166.9-147,180.4l-0.4,0.5l-0.3,0.6c-27.5,49.6-35.5,103.1-23.7,158.9
	l0.2,0.8l0.3,0.8c12.9,36.2,45.3,60.5,93.9,70.3c22,4.3,44.4,5.7,66.7,4.1l918.7,2c4.2,0.1,43.3,1.3,88.5,1.3
	c42.2,0,89.6-1,118.9-4.7h0.1c78.2-10.7,96.7-61.9,103.7-81.2c0.4-1,0.7-1.9,1-2.7c2.2-5.9,3.6-13.4,4.3-22.9
	C1661.8,668.8,1660.2,651.7,1656,635.3z"/>
</svg>
