<?xml version="1.0" encoding="utf-8"?>
<!-- Generator: Adobe Illustrator 27.0.0, SVG Export Plug-In . SVG Version: 6.00 Build 0)  -->
<svg version="1.1" id="Layer_1" xmlns="http://www.w3.org/2000/svg" xmlns:xlink="http://www.w3.org/1999/xlink" x="0px" y="0px"
	 viewBox="0 0 1920 1080" style="enable-background:new 0 0 1920 1080;" xml:space="preserve">
<style type="text/css">
	svg {height: 100%;width: 100%;}.track-surface {fill: none;stroke: white;stroke-width: 30;}
</style>
<path class="track-surface" d="M812.3,594.1c0,0-43-72.5-57.3-96.7c-10.1-17-10.4-31.9-9.4-44.1c0.3-3.5,0.8-8.3,1.3-13.3
	c1-10.6,2.4-22.6,2.6-30.1c0.9-22.6-1.6-36.5-17.8-40.2c-7.3-1.6-13.5-0.7-18.5,2.6c-8.7,5.8-10.7,16.9-11.9,23.6
	c-0.2,0.8-0.3,1.7-0.5,2.5c-1.9,9.1-4.6,21.8-7.5,35.3c-3.9,18.2-7.9,37-10.4,49.1c-4.4,22.2-13.2,41.4-26.2,57.3
	c-25.3,31-64.3,44.4-92.6,50.2c-54.9,11.1-90.2,5.6-121.4,0.6l-1.9-0.3c-45.7-7.3-73.9-29.7-95.6-50.8
	c-18.8-18.2-54.3-58.1-69.5-75.1c-18.9-21.1-37.5-24.4-50-23.6c-37.9,2.7-61,22.3-71.4,33.6c-12.7,14.1-18.6,28.8-16.5,41.5
	c5.1,31.9,39.4,53.2,49.8,59c23.7,13.2,84.8,30.9,113.8,38.4c17.4,4.5,57.3,12.7,76.7,16c21,3.4,42.4,5.7,63.8,6.5
	c120.2,5,354.1,3.4,399.7,3.1c28.1-0.2,42.8-10.5,55.4-20.9c41-34,58.6-56.5,72.2-79.9c8.4-14.4,22.9-40.8,33.5-60.2
	c2.5-4.5,4.7-8.7,6.7-12.2c7.6-14,21.6-39,31.8-57.2c3.1-5.7,6-10.8,8.3-14.9c5.6-10.1,8.9-8.9,12.5-7.5c0.6,0.2,1.3,0.5,2.1,0.8
	c3.2,1.2,8.7,3.2,11,4.4c13.9,7.4,26.2,4.6,33.9-7.5c3.2-5.1,12-19.8,13.1-21.8c17-24.8,33.1-28.7,47.4-32.2
	c56.4-13.6,96.6,9.6,123.1,25c14.3,8.3,43.3,25.3,57.8,33.8c25,14.8,60.6,35.9,98.2,58.3c47.2,28,95.8,57.1,128,75.8
	c36.1,21.2,89.5,54.9,136.6,84.7c16.8,10.7,32.7,20.7,46,29c19.8,12.4,21.4,32.4,22.6,46.9l0.1,0.8c0.6,7.2,1.2,20.3,0.8,26.3
	c-1,16.9-4.1,22.6-7.8,28.5c-6.1,9.5-15.4,12.9-22.1,14.1c-11.9,2.2-24.2-1-29.9-5.1c-20.1-14.6-56.4-43.9-80.5-63.1
	c-3.9-3.1-7.5-6-10.7-8.5c-35-28-57.3-21.4-77.3-12.4c-31,14.1-49.5,2.6-59.5-9.5c-5.2-6.3-12.4-17.2-19.3-27.7
	c-5.4-8.2-10.6-15.9-14.5-21.2c-29.1-38.5-66.1-27.4-90.6-20.1c-4.2,1.2-8,2.4-11.3,3.2c-35.5,8.2-50.7-0.1-60-8.2
	c-21.9-19.1-20.8-39.3-19.9-54v-0.6c0.7-11.7,1.9-33.6,0.2-45c-4.2-29.4-19.3-49.4-44.8-59.4c-19.6-7.7-41.1-7.8-57.7-7
	c-110,5.2-148.4,78.7-159.8,110c-5,13.7-13.4,34.7-21.6,55.1c-6.8,17-13.2,33-17.4,44.3c-4,10.5-8.3,16.8-12.9,18.7
	c-10,4.1-23.3,10.1-37.5,16.5c-16.9,7.6-34.2,15.5-47,20.5c-12,4.7-18.4,1.9-20.5-2.4c-1.4-2.9-5.7-10.5-5.8-10.8L812.3,594.1z"/>
</svg>
