<?xml version="1.0" encoding="utf-8"?>
<!-- Generator: Adobe Illustrator 27.0.1, SVG Export Plug-In . SVG Version: 6.00 Build 0)  -->
<svg version="1.1" id="Iowa_Oval__Config" xmlns="http://www.w3.org/2000/svg" xmlns:xlink="http://www.w3.org/1999/xlink" x="0px"
	 y="0px" viewBox="0 0 1920 1080" style="enable-background:new 0 0 1920 1080;" xml:space="preserve">
<style type="text/css">
	.track-surface{fill:none;stroke:#FFFFFF;stroke-width:30;stroke-miterlimit:10;}
</style>
<path class="track-surface" d="M1572.7,272.3c-39.4-41.1-89.8-73-150.1-94.6c-48.6-17.5-103.1-27.8-153.7-28.8c-130.1-2.5-328.7-5.8-549.1-4.4
	c-84.5,0.5-159.8,12.4-223.4,35.2c-57.2,20.5-105.5,49.8-143.9,87.2c-85.8,84-98.7,184.2-98.7,236.4c0,124.3,67,213.1,123.2,265.7
	c71.6,67,156.6,105.6,212.4,119.5C716.2,919.9,843,935.8,967,935.8c17.3,0,34.6-0.3,51.8-1c117.9-4.2,236.2-23.2,351.7-56.2
	c78.1-22.3,151.2-68.9,205.7-131.1c56.2-63.9,88-139.6,89.6-212.9C1668.4,427.7,1637,339.5,1572.7,272.3z"/>
</svg>
