<?xml version="1.0" encoding="utf-8"?>
<!-- Generator: Adobe Illustrator 27.0.1, SVG Export Plug-In . SVG Version: 6.00 Build 0)  -->
<svg version="1.1" id="Iowa_Road__Config" xmlns="http://www.w3.org/2000/svg" xmlns:xlink="http://www.w3.org/1999/xlink" x="0px"
	 y="0px" viewBox="0 0 1920 1080" style="enable-background:new 0 0 1920 1080;" xml:space="preserve">
<style type="text/css">
	.track-surface{fill:none;stroke:#FFFFFF;stroke-width:30;stroke-miterlimit:10;}
</style>
<path class="track-surface" d="M1586.6,348.1c-23.9-47.2-58.4-87.5-102.7-119.9c-37.9-27.8-82.2-49.2-131.7-63.8
	c-41.8-12.3-85.9-19.3-127.7-20.2l-19.7-0.4c-138.3-2.8-327.8-6.5-535.8-4c-79,0.9-147.6,57.9-184.5,88.7
	c-5.7,4.7-10.7,8.9-14.7,11.9c-40.1,30.7-66.1,51.9-90,86.8c-8.3,12.1-19.6,29.5-31.7,47.8c-12.6,19.2-25.6,39.1-34.7,52.4
	c-17.5,25.4-23.7,53.7-17.1,77.3c5,17.8,15.6,31.1,30.8,38.2c19.1,9,39.7,6.3,51.6,1.1c34.2-14.8,114-49.5,152.5-69.6
	c20.3-10.7,33.1-28.8,38.2-53.7c4-19.5,2.4-38.8,1.3-51.6l-0.1-1.9c-1.5-18.8,3.2-34.5,14.3-46.7c13.6-15,34.5-22,48.3-22.3
	c19.8-0.3,49.9-1.4,79-2.4c29-1,59.1-2.1,78.7-2.4c48.8-0.9,63.8,32.9,68.4,53.1c4.2,18.5,9.8,55.7,10.5,74.4
	c1,26-19.1,39.1-40.8,49.4c-89.9,42.4-262.5,120.9-355.3,161.3c-80.1,34.8-72.4,87.4-68.2,115.5c5.8,39.8,22,73,48.1,99
	c22.1,21.9,50.9,37.9,83.4,46.2c127,32.3,254.6,48.6,380.2,48.6c18.1,0,36.1-0.3,54.1-1c118.4-4.4,238.2-23.8,355.9-57.5
	c78.1-22.4,152.3-70.6,208.8-135.8c57.2-66,89.1-141.3,90.1-212.3C1627.1,464.4,1613.8,401.7,1586.6,348.1z"/>
</svg>
