<?xml version="1.0" encoding="utf-8"?>
<!-- Generator: Adobe Illustrator 27.0.1, SVG Export Plug-In . SVG Version: 6.00 Build 0)  -->
<svg version="1.1" id="Iowa_Legends_Oval__Config" xmlns="http://www.w3.org/2000/svg" xmlns:xlink="http://www.w3.org/1999/xlink"
	 x="0px" y="0px" viewBox="0 0 1920 1080" style="enable-background:new 0 0 1920 1080;" xml:space="preserve">
<style type="text/css">
	.track-surface{fill:none;stroke:#FFFFFF;stroke-width:30;stroke-miterlimit:10;}
</style>
<path class="track-surface" d="M1222.8,240c-36.8-0.6-75.8-1.7-117.2-2.9c-128.1-3.4-273.4-6.9-429.6-1.1c-124,4.6-310.1,88.4-313,299.2
	c-1.7,119.5,92.5,291.7,307.3,302.7l0,0c121.8,6.3,233.7,9.2,336,9.2c67.2,0,130.4-1.1,187.8-4c5.7,0,12.6-0.6,19.5-0.6
	c53.4-1.7,134.4-4,205.6-41.3c63.2-32.7,137.8-104.5,137.8-259.6C1557.6,358.9,1428.9,243.5,1222.8,240z"/>
</svg>
