<?xml version="1.0" encoding="utf-8"?>
<!-- Generator: Adobe Illustrator 27.0.1, SVG Export Plug-In . SVG Version: 6.00 Build 0)  -->
<svg version="1.1" id="Iowa_Infield_Legends__Config"
	 xmlns="http://www.w3.org/2000/svg" xmlns:xlink="http://www.w3.org/1999/xlink" x="0px" y="0px" viewBox="0 0 1920 1080"
	 style="enable-background:new 0 0 1920 1080;" xml:space="preserve">
<style type="text/css">
	.track-surface{fill:none;stroke:#FFFFFF;stroke-width:30;stroke-miterlimit:10;}
</style>
<path class="track-surface" d="M1448.7,282.4c-51.1-74.1-115.3-112.9-191.5-115.3c-61.8-1.7-116,20.9-148.3,34.7
	c-149.7,63.2-384.5,178.2-539.6,254.4l-25.1,12.4l0,0c-46.7,23-83.8,68.7-101.6,125.3c-17.8,57-13.7,119.1,11,170.9
	c41.2,86.2,105.4,121.9,151.7,136.6c24.7,7.9,51.1,11.7,77.2,11.7c28.5,0,56.3-4.5,81-13.7c137.6-50.8,332.3-140.4,474.7-205.6
	c30.9-14.1,59.4-27.1,84.1-38.4c104-47.4,142.8-118.8,157.2-170.3C1502.2,401.5,1477.2,323.6,1448.7,282.4z"/>
</svg>
