<?xml version="1.0" encoding="utf-8"?>
<!-- Generator: Adobe Illustrator 27.0.0, SVG Export Plug-In . SVG Version: 6.00 Build 0)  -->
<svg version="1.1" id="Layer_1" xmlns="http://www.w3.org/2000/svg" xmlns:xlink="http://www.w3.org/1999/xlink" x="0px" y="0px"
	 viewBox="0 0 1920 1080" style="enable-background:new 0 0 1920 1080;" xml:space="preserve">
<style type="text/css">
	svg {height: 100%;width: 100%;}.track-surface {fill: none;stroke: white;stroke-width: 30;}
</style>
<path class="track-surface" d="M809.5,594.9c0,0-43.8-73.9-58.4-98.4c-10.3-17.3-10.7-32.5-9.6-44.9c0.3-3.8,0.9-9.1,1.4-14.7
	c1.1-10.4,2.3-22.1,2.6-29.4c1-23.2-1.6-37.4-18.2-41c-7.4-1.6-13.7-0.7-18.8,2.8c-8.8,5.9-10.9,17.2-12.1,24
	c-0.2,0.9-0.3,1.7-0.5,2.4c-1.7,8.1-4,18.9-6.5,30.4c-4.2,19.7-9.1,41.9-11.7,55.6c-3.4,17.7-15.7,43.6-26.1,55.5
	c-3.7,4.2-7.6,4.1-12.6,2.7c-9.4-2.7-16.7-2.5-22.6,0.8c-7.5,4.2-9.6,12-10.9,16.6c-0.1,0.4-0.2,0.8-0.3,1.2
	c-2.8,9.9-8.4,15.3-13.9,19.6c-5.2,3.9-18.2,8.8-35,13.1c-50.6,12.7-86.6,6.6-115.5,1.8c-3.3-0.6-6.5-1.1-9.6-1.6
	c-46.5-7.4-75.3-30.3-97.4-51.8c-19.1-18.5-55.3-59.2-70.8-76.4c-19.2-21.5-38.2-25-50.8-24c-38.6,2.8-62.2,22.6-72.8,34.2
	c-13,14.2-19,29.2-16.9,42.2c5.3,32.5,40.2,54.2,50.8,60c24.1,13.4,86.3,31.5,115.9,39.1c17.8,4.6,58.4,13,78.1,16.3
	c21.4,3.5,43.2,5.8,64.9,6.6c122.4,5.1,360.5,3.5,407,3.2c30.8-0.3,46.2-12.9,56.4-21.3c41.8-34.6,59.6-57.5,73.5-81.3
	c9-15.5,25.2-44.9,35.8-64.3l5.1-9.2c2.9-5.3,6.4-12.2,10.2-19.5c9.5-18.4,21.2-41.5,30.1-52.9c9.9-12.8,25.2-29.5,35.3-35.8
	c5.5-3.4,7.5-2.9,7.6-2.8c0.1,0,0.6,0.2,1.2,1.8c1.5,3.3,6.1,13.3,15.1,14.2c8.5,0.9,14-6.7,16.7-10.4c0.2-0.3,0.4-0.6,0.6-0.8
	c16.5-22,32.7-28.4,46.4-31.9c56.4-14.3,97.9,9.6,125.2,25.5c17.7,10.2,54.6,32,58.9,34.4c25.6,15.2,62,36.8,100.6,59.7
	c47.7,28.4,97.1,57.7,129.7,76.8c37.3,21.8,94.7,58.2,140.9,87.4c16.4,10.4,32,20.2,45,28.3c20.2,12.7,21.8,32.9,23,47.8l0.1,0.8
	c0.6,7.2,1.2,20.6,0.9,26.8c-1.1,17.1-4.2,23.2-8,29c-6.2,9.7-15.7,13.2-22.5,14.4c-12.1,2.2-24.7-1.1-30.4-5.2
	c-20.5-14.9-57.3-44.6-81.8-64.2c-4-3.3-7.8-6.2-10.9-8.8c-35.6-28.5-58.4-21.8-78.7-12.6c-31.6,14.4-50.4,2.7-60.6-9.7
	c-5.3-6.4-12.7-17.6-19.8-28.3c-5.5-8.3-10.7-16.1-14.7-21.5c-29.6-39.2-67.3-27.9-92.3-20.5c-4.2,1.2-8.2,2.4-11.5,3.3
	c-36.1,8.4-51.6-0.1-61.1-8.4c-22.3-19.5-21.1-40-20.3-55v-0.2c0.7-12,1.9-34.5,0.2-46.2c-4.3-30-19.7-50.3-45.6-60.5
	c-20-7.9-42-8-58.8-7.1c-112,5.3-151.2,80.1-162.7,112c-5.2,14.1-13.8,35.8-22.2,56.8c-6.8,17-13.3,33-17.6,44.5
	c-4,10.7-8.5,17.1-13.2,19c-10.1,4.1-23.6,10.3-37.9,16.7c-17.3,7.8-35.1,15.8-48.1,21c-12.2,4.8-18.7,1.8-20.9-2.5
	c-1.4-2.9-5.8-10.6-5.9-10.9L809.5,594.9z"/>
</svg>
