<?xml version="1.0" encoding="utf-8"?>
<!-- Generator: Adobe Illustrator 27.0.0, SVG Export Plug-In . SVG Version: 6.00 Build 0)  -->
<svg version="1.1" id="Layer_1" xmlns="http://www.w3.org/2000/svg" xmlns:xlink="http://www.w3.org/1999/xlink" x="0px" y="0px"
	 viewBox="0 0 1920 1080" style="enable-background:new 0 0 1920 1080;" xml:space="preserve">
<style type="text/css">
	svg {height: 100%;width: 100%;}.track-surface {fill: none;stroke: white;stroke-width: 30;}
</style>
<path class="track-surface" d="M1280.1,648.5c0,0-68.2-115-90.9-153.3c-16-26.9-16.4-50.5-15-70c0.4-5.5,1.2-13.2,2.1-21.1
	c1.6-16.7,3.7-35.9,4.2-47.7c1.5-35.9-2.5-57.9-28.3-63.7c-11.5-2.5-21.4-1-29.3,4.2c-13.8,9.1-16.9,26.8-18.8,37.4
	c-0.3,1.3-0.4,2.7-0.7,3.9l-3.1,15c-7.5,35.7-18.5,89.7-25.3,118.6c-6.1,26.5-23.9,67.7-40.8,86.7l-0.4,0.6
	c-0.3,0.4-35.9,45.8-90.3,65.9c-14.4,5.4-42.2,13.6-57.3,17.5c-78.8,19.7-134.9,10.3-179.9,2.8c-5.1-0.9-10.2-1.6-15-2.5
	c-72.4-11.5-117.2-47.1-151.6-80.6c-29.8-28.9-86.1-92.1-110.2-119c-29.9-33.5-59.5-38.7-79.3-37.4c-60.1,4.3-96.9,35.3-113.3,53.2
	c-20.2,22.7-29.5,45.9-26.2,66.1c8.1,50.5,62.5,84.3,79,93.5c37.5,20.9,134.4,49,180.5,60.9c27.7,7.2,90.9,20.2,121.6,25.4
	c33.3,5.4,67.3,9,101.1,10.3c190.5,7.9,561.3,5.4,633.7,4.9c44.6-0.3,67.9-16.6,87.8-33.2c65-53.8,92.9-89.6,114.4-126.7
	c16.3-28,47.3-84.8,62.4-115c2.1-4.2,4.5-8.8,6.9-13.9c12.7-25.6,30.1-60.6,44-79.4c4.8-6.4,8.8-6.6,10-6.7
	c5.4-0.3,10.8,3.6,12.6,5.5c5.7,6.1,13.6,14.1,21.2,21.7c8.1,8.1,16.4,16.4,21.7,22.1c1.9,2.1,2.8,4,2.7,5.4
	c-0.3,4.2-7.3,9.6-9.6,11.4c-46.5,36.5-81.8,90.2-96,127.1c-6.3,16.4-15.6,39.5-25.3,64c-13.8,34.7-28,70.6-36.8,93.9
	c-6.3,16.6-13.2,26.6-20.5,29.6c-15.9,6.4-36.9,16-59.5,26.2c-26.8,12.1-54.3,24.5-74.5,32.4c-19,7.5-29.2,2.8-32.4-3.7
	c-2.2-4.6-9-16.6-9.3-17.2L1280.1,648.5z"/>
</svg>
