<?xml version="1.0" encoding="utf-8"?>
<!-- Generator: Adobe Illustrator 27.0.0, SVG Export Plug-In . SVG Version: 6.00 Build 0)  -->
<svg version="1.1" id="Layer_1" xmlns="http://www.w3.org/2000/svg" xmlns:xlink="http://www.w3.org/1999/xlink" x="0px" y="0px"
	 viewBox="0 0 1920 1080" style="enable-background:new 0 0 1920 1080;" xml:space="preserve">
<style type="text/css">
	.st0{fill:none;stroke:#231F20;stroke-width:20;stroke-miterlimit:10;}
</style>
<path class="st0" d="M1281.1,648.7c0,0-68.4-115.3-91.2-153.7c-16-27-16.5-50.7-15-70.2c0.4-5.5,1.2-13.2,2.1-21.1
	c1.6-16.8,3.7-36,4.2-47.8c1.5-36-2.5-58-28.3-63.9c-11.5-2.5-21.4-1-29.4,4.2c-13.8,9.1-16.9,26.8-18.9,37.5
	c-0.3,1.3-0.4,2.7-0.7,3.9c-1.9,9.3-4.2,21.1-6.7,33.6c-6.6,33.6-14.8,75.4-21.6,99.9c-8.8,32.4-18.3,51.6-26.7,68.4
	c-1.3,2.7-2.7,5.4-4,8.1c-2.2,4.8-9.1,19.2-30.4,14.5c-33.3-7.2-42.9,10.9-47.7,19.6c-5.5,10.2-17.8,28.8-27,36
	c-8.4,6.6-38.2,19.9-54.6,25.2c-72,23.2-126.5,12.9-170.3,4.5c-8.5-1.6-16.5-3.1-24.3-4.3c-72.6-11.5-117.5-47.2-152-80.8
	c-29.8-28.9-86.4-92.4-110.5-119.3c-30-33.6-59.7-38.8-79.5-37.5c-60.3,4.3-97,35.4-113.5,53.4c-20.4,22.9-29.7,46.2-26.4,66.4
	c8.1,50.7,62.7,84.6,79.2,93.7c37.6,21,134.8,49.2,181,61c27.7,7.2,91.2,20.2,121.9,25.5c33.4,5.4,67.5,9,101.4,10.3
	c191,7.9,562.8,5.4,635.4,4.9c44.7-0.3,68.1-16.6,88-33.3c65.2-54,93.1-89.8,114.7-127c16.3-28,47.4-85,62.5-115.3
	c2.1-4.2,4.5-8.8,6.9-13.9c12.7-25.6,30.1-60.7,44.1-79.6c4.8-6.4,8.8-6.6,10-6.7c5.4-0.3,10.8,3.6,12.6,5.5
	c5.7,6.1,13.6,14.1,21.3,21.7c8.1,8.1,16.5,16.5,21.7,22.2c1.9,2.1,2.8,4,2.7,5.4c-0.3,4.2-7.3,9.6-9.6,11.4
	c-46.6,36.6-82,90.4-96.3,127.4c-6.3,16.5-15.6,39.6-25.3,64.2c-13.8,34.8-28,70.8-36.9,94.2c-6.3,16.6-13.2,26.7-20.5,29.7
	c-15.9,6.4-37,16-59.7,26.2c-26.8,12.1-54.4,24.6-74.7,32.5c-19,7.5-29.2,2.8-32.5-3.7c-2.2-4.6-9-16.6-9.3-17.2L1281.1,648.7z"/>
</svg>
