<?xml version="1.0" encoding="utf-8"?>
<!-- Generator: Adobe Illustrator 27.0.1, SVG Export Plug-In . SVG Version: 6.00 Build 0)  -->
<svg version="1.1" id="Indianapolis_Indy_Pits_-_Config"
	 xmlns="http://www.w3.org/2000/svg" xmlns:xlink="http://www.w3.org/1999/xlink" x="0px" y="0px" viewBox="0 0 1920 1080"
	 style="enable-background:new 0 0 1920 1080;" xml:space="preserve">
<style type="text/css">
	.track-surface{fill:none;stroke:#FFFFFF;stroke-width:30;stroke-miterlimit:10;}
</style>
<path class="track-surface" d="M1775.5,411c-12-97.8-48.5-170-108.5-214.2c-42.6-31.5-95.9-48.3-158.4-50c-113.5-3.3-331.9-3.1-462.4-2.9
	c-13.2,0-25.7,0-37,0c-124.7,0.1-378.7-0.3-507.1-0.8c-140.9-0.6-211.9,21.1-281.4,85.8c-54.6,50.8-79.1,135.9-78.8,193.4
	c0.1,21.8-0.3,49.6-0.8,79.1c-1,61-2,130.2,1.3,173.9c5.2,68.8,35.7,131.2,85.9,175.6c0.5,0.4,0.9,0.8,1.2,1.1
	c53.1,47.8,142.1,74.7,198.9,75.8c306.5,5.9,537.6,9.4,763.9,9.4c97.9,0,195-0.7,296.7-2c59.7-0.8,111.7-14.2,154.4-39.7
	c35.2-21.1,64.2-50.3,86.5-87.2c39.1-65.1,45.2-133.8,46.2-153.3C1778.4,602.6,1783.4,474.6,1775.5,411z"/>
</svg>
