<?xml version="1.0" encoding="utf-8"?>
<!-- Generator: Adobe Illustrator 27.0.1, SVG Export Plug-In . SVG Version: 6.00 Build 0)  -->
<svg version="1.1" id="LongBeach_-_Config" xmlns="http://www.w3.org/2000/svg" xmlns:xlink="http://www.w3.org/1999/xlink" x="0px"
	 y="0px" viewBox="0 0 1920 1080" style="enable-background:new 0 0 1920 1080;" xml:space="preserve">
<style type="text/css">
	.st0{fill:none;stroke:#FFFFFF;stroke-width:30;stroke-miterlimit:10;}
</style>
<path class="st0" d="M1147.9,850c-14.4,0-29.1-0.7-44.3-2.2c-92.7-8.5-185.2-54.2-234.9-78.7c-6.5-3.2-12.1-5.9-16.8-8.2
	c-33.8-16-248.3-124.6-313.2-157.5l-0.2-0.1c-7.5-4.1-14.4-7.8-21.9-11.9l-6.8-3.7c-10.9-5.9-25.7-10.3-34.2,2.1l-1.4,2.1
	c-22.1,31.9-43,62-127.3,78.7c-0.5,0.1-0.7,0.2-0.7,0.2c-5.4,1.8-11.9,9.5-16.6,15.1c-3.4,4-6,7.2-8.8,9.2
	c-17.6,13-38.7,7.1-48.9-6.1l-0.2-0.3c-3.9-5.4-6.6-12.2-9-18.2c-1.4-3.4-3.4-8.5-4.6-9.9c-5.5-3.9-57.5-37.2-104.3-67.1
	c-12.1-7.5-29.6-29.3-17.9-63c11.1-33.6,33.9-83.5,61.4-114c11.7-12.9,24.9-19.6,40.5-20.5c27-2.7,77.1,25.6,91.8,34.3
	c70.8,42.2,226.2,126.9,348.7,192.2c0.6,0.3,1.3,0.6,2,1c7.1,3.6,19.1,9.5,30.6,4.8c10.7-4.4,19.7-17,26.9-37.6
	c0.1-0.2,0.1-0.4,0.2-0.7c3-11,7.9-34.1,7.6-65.3c-1.4-26.4-9.6-197.7-9.8-201.8c-0.1-1.2-0.8-12.9-0.4-26c0.7-26.6,5.1-35,8.4-38.9
	c10.8-13.1,21.4-19.3,52.3-19c27,0.3,196.1-4.7,285.9-8.1h0.1c9.6-0.2,158-2.3,186.3,1.1l0.5,0.1c23.5,1.5,230,14.9,240.4,15.7
	c8.1,0.6,15.4,1.1,22.5,1.5c32.3,2,53.6,3.3,66.5,16.7c14.9,15.5,14.3,30.6,13.8,44c-0.7,16.2-2.7,87.1-1.4,98.1
	c0.1,1,0.2,2.1,0.3,3.4c1.3,14,4,43.1,39.7,55.4h0.1c10.5,3.8,23.3,7.7,39.7,8.2h0.7c3.6-0.2,35.5-2.1,58.2-22.6
	c0.6-0.5,1.2-1.1,1.9-1.5c9.7-7.1,23-4.9,29.8,1.2c5.9,5.4,13.4,17.2-3,35.7c-0.3,0.3-0.6,0.6-0.9,0.9l-0.3,0.3
	c-17.2,19.6-94.7,80-230.2,179.5c-4.4,3.2-7.6,5.6-9.2,6.8l-0.1,0.1c-1.2,0.8-115.5,83.6-139,100.3l-0.3,0.2
	C1362,799.5,1270.3,850,1147.9,850z"/>
</svg>
