<?xml version="1.0" encoding="utf-8"?>
<!-- Generator: Adobe Illustrator 27.0.0, SVG Export Plug-In . SVG Version: 6.00 Build 0)  -->
<svg version="1.1" id="Layer_1" xmlns="http://www.w3.org/2000/svg" xmlns:xlink="http://www.w3.org/1999/xlink" x="0px" y="0px"
	 viewBox="0 0 1920 1080" style="enable-background:new 0 0 1920 1080;" xml:space="preserve">
<style type="text/css">
	.track-surface{fill:none;stroke:#231F20;stroke-width:20;stroke-miterlimit:10;}
</style>
<path class="track-surface" d="M1381.8,984c-55.5,0-131.2-1.7-199.2-3.3c-46.2-1.1-89.8-2-121.5-2.4c-126.6-1.3-374.5-4.7-507.7-6.5l-3.6,0
	c-25.2-0.3-74.4-2.1-98.7-3.2c-26.9-1.2-72-3.3-87.2-69.4c-10.3-45.1-22.2-122.6-26.4-164c-3.1-30.5-3.8-90.4-3.5-120.9
	c0-1,0-2.1,0-3.3c0-12.8,0-34.3,15.1-48.1c10.4-9.5,25.9-13.3,46.2-11.5c25.2,2.3,75.4,9.7,101.1,13.8
	c33.1,5.3,77.3,12.5,100.4,16.8h0.3c4.6,1.1,112.5,24.6,129.3,30.4l6.7,1.9c20.6,6,46.2,13.5,129.9,43.7l0.4,0.1
	c21.3,8.6,58.4,22.9,88.3,34.4c9.6,3.7,18.4,7.1,25.4,9.8l8.1,3.1c32.4,12.6,58,22.5,121.8,41.5l3.2,1c35.6,10.6,76,22.7,123.3,33.1
	c2.4,0.5,4.9,1.2,7.5,1.8c10.7,2.7,22.8,5.8,29.2,1.1c4.6-3.4,7.3-11.6,7.8-23.9c0-6.5-0.8-137.1-3.9-181.7v-0.6
	c-1-13.9-1.8-27-33.1-26.4c-31.9,0.6-88.7,3.1-119.1,4.7c-20.8,1.1-41.9-0.7-71-34.3c-46.4-53.6-116.5-148-162.5-212.5
	c-0.8-1.2-1.7-2.4-2.5-3.7c-3.9-5.8-8.2-12.5-14.3-13.4c-5.2-0.9-12.4,2.2-21,8.9l-0.3,0.2l-70.5,50.5c-7.7,5.7-24.9,15-35.5,17.3
	c-11.6,2.5-23.5,3.8-35.4,3.9c-38.2,0-63.7-14.8-79.4-29c-20.9-19-28.9-40.7-29.8-43.3c-5.7-15-16.8-53.6,0.4-91.2
	c12.4-27.1,36.6-47.4,72-60.4c22.2-8.1,64.4-14.9,92.3-19.4l7.8-1.3c23.9-3.9,60.7-10.3,96.3-16.5c31.3-5.4,60.9-10.6,81.5-14
	c37.7-6.2,69.5,2.3,97.2,26.3c12.3,10.6,31.4,26.2,49.9,41.4c20,16.4,40.6,33.3,53.9,44.8c17.2,14.9,42.1,38.4,59,57.4
	c24.4,27.4,50.2,48.7,76.7,63.5c9.3,5.2,17.7,10.1,25.9,14.8c31.5,18.3,58.7,34.1,115.4,55.2c20.1,7.5,54.2,18.3,84.3,27.8
	c13.8,4.3,26.8,8.4,36.5,11.6c29.4,9.7,42.6,35,35.2,67.9c-4.6,20.4-16.7,47.8-28.4,74.4l-2.7,6.1c-7.3,16.5-25.8,39.2-44.1,53.9
	c-23.6,19-45.1,42.3-42.3,84.2l0.1,2.2c0.5,8.1,0.5,8.5,8.6,40.3c2.4,9.5,6.1,23.3,10,37.8c4.3,16.2,8.8,32.9,11.5,43.9l0.1,0.6
	c7,27.9,21.5,85.9-21.3,118.2c-13,9.8-29.8,13.2-66.7,13.8C1400.6,984,1391.5,984,1381.8,984z"/>
</svg>
