<?xml version="1.0" encoding="utf-8"?>
<!-- Generator: Adobe Illustrator 27.0.1, SVG Export Plug-In . SVG Version: 6.00 Build 0)  -->
<svg version="1.1" id="International_-_Config" xmlns="http://www.w3.org/2000/svg" xmlns:xlink="http://www.w3.org/1999/xlink"
	 x="0px" y="0px" viewBox="0 0 1920 1080" style="enable-background:new 0 0 1920 1080;" xml:space="preserve">
<style type="text/css">
	.st0{fill:none;stroke:#FFFFFF;stroke-width:30;stroke-miterlimit:10;}
</style>
<path class="st0" d="M1772,214.5c0-20.9-9.1-34-16.8-41.3c-9.3-8.9-21.7-14.1-32.3-13.7h-0.2c-16.2,1-28.6,6.6-36.8,16.5
	c-9.2,11-12.6,26.5-10.1,46.1l0.2,1.2c11.7,62.3,15.4,112.5,11.1,149.1c-0.1,0.5-0.1,1-0.2,1.5c-7.4,47.4-24.2,76.3-37.1,92.1
	c-13.8,17.1-26.1,23.1-26.2,23.2l-48,23l-0.4,0.2c-29.9,16.2-144.8,58.7-146,59.2l-0.2,0.1l-66.5,28.7l-0.2,0.1
	c-2,0.9-195.5,89.1-212.1,95.8l-0.2,0.1c-25.3,11-62.4,19.1-95.4-4.7l-1.1-0.9c-34.6-26.7-36.6-71.4-36.7-71.8v-0.5
	c-0.3-3.4-8.1-85.3-10.2-102.3c-1.6-12.2-5.6-26.6-5.8-27.2l-0.1-0.5l-47.2-113.8l-0.1-0.3c-0.7-1.4-66.3-144.3-74-162.3
	c-7.5-18.5-14.2-27.1-19.2-32.5c-17.8-19.6-61.5-22.8-71.7-21.9c-10.8,1-59.8,10.8-66.3,12.2l-110.8,17.2l-78.4,7.7l-7.8,0.6h-0.1
	c-64.4,5.3-113.4,2.3-131.6,0.8c-25.6-3.3-49.4-13.6-59.5-18.1c-2.2-1-3.9-1.7-5.1-2.2c-31.4-11.6-83.9-21.3-97-23.4
	c-35.5-8-50.5,0.3-58.5,4.7l-1.3,0.7l-0.1,0.1c-31.9,17.7-23,60.6-21.6,66.9l16.4,160.9l0.1,0.5c0.8,4.9,18.6,119.3,19.5,124.9
	c9.1,59.8,9.8,124.8,9.8,130.5c-1.6,17.9,3,48.4,9.6,64.6c5.9,17.8,21.9,35.9,50.2,57c30.3,22.5,53.4,20.9,56.3,20.6
	c3.4-0.3,69.5-6.6,77.6-7.6c2.5-0.3,6.2-1.1,11.2-2.3c13.2-3,35.3-7.9,57.9-8.3h0.4c22.1-1.4,74.5,9.3,75,9.4h0.2
	c1.1,0.2,111.2,20.7,123,23.4l0.3,0.1c27,5.1,53.2,14.2,77.6,26.9l1.5,0.7c26,16.4,74.3,43.7,74.8,44l0.3,0.2
	c0.6,0.3,60.1,30.6,90.6,45.4l15.4,7.2c8.9,4.2,18.5,6.8,28.3,7.8c2.4,0.2,4.8,0.4,7.2,0.4c18.6,0,34.2-7.5,45.3-21.9
	c15.4-19,48.1-58.4,48.5-58.8l0.6-0.6l0.4-0.9c1-1.8,9-14.7,30.1-7.3c6.1,2.7,20.4,10.3,22.4,11.3c2,1,7.8,4,16.4,2.8
	c5.7-0.8,25-11.3,57.3-31.3l245.4-146.1c0.8-0.5,80.2-47.5,135.8-80.6c2.7-1.4,5.5-2.6,8.4-3.5l44-4.1c25.9-2.5,30.6-15,31.3-18.1
	c0.3-1.3,5.5-22.1,6.8-28.6c1.6-3.1,10.6-12.8,24.5-25.3l0.2-0.1c29.8-28.3,59.3-67.2,64.8-76.8l0.1-0.1
	c18.1-33.2,23.5-71.3,26.1-89.5c0.5-3.4,0.9-6.3,1.2-7.6l0.1-0.7c0.1-0.6,0.2-1.4,0.3-2.4C1771.7,276.8,1772.7,236.8,1772,214.5z"/>
</svg>
