<?xml version="1.0" encoding="utf-8"?>
<!-- Generator: Adobe Illustrator 27.0.1, SVG Export Plug-In . SVG Version: 6.00 Build 0)  -->
<svg version="1.1" id="Fosters_-_Config" xmlns="http://www.w3.org/2000/svg" xmlns:xlink="http://www.w3.org/1999/xlink" x="0px"
	 y="0px" viewBox="0 0 1920 1080" style="enable-background:new 0 0 1920 1080;" xml:space="preserve">
<style type="text/css">
	.st0{fill:none;stroke:#FFFFFF;stroke-width:30;stroke-miterlimit:10;}
</style>
<path class="st0" d="M1518.5,803.7c-1.3-5.3-4.9-12.8-14.9-19c-10.5-8.3-98.1-75.5-101.8-78.4c-38.4-29.5-40.7-79.1-40.7-79.5v-0.6
	c-0.4-3.8-8.9-94.3-11.3-113.1c-1.8-13.5-6.2-29.4-6.4-30l-0.2-0.5L1291,356.7l-0.1-0.3c-0.7-1.6-73.2-159.4-81.8-179.4
	c-8.3-20.5-15.7-30-21.3-35.9c-19.7-21.7-68-25.2-79.2-24.2c-12,1.1-66.1,12-73.3,13.4l-122.5,19.1l-86.7,8.5l-8.7,0.6h-0.1
	c-71.2,5.8-125.3,2.6-145.5,0.9c-28.3-3.6-54.6-15.1-65.8-20c-2.5-1.1-4.3-1.9-5.6-2.4c-34.7-12.8-92.8-23.5-107.2-25.8
	c-39.2-8.8-55.8,0.3-64.7,5.2l-1.4,0.8l-0.1,0.1c-35.3,19.5-25.5,67-23.8,73.9l18.1,177.8l0.1,0.5c0.8,5.4,20.5,131.9,21.5,138
	c10,66.1,10.8,137.9,10.8,144.2c-1.8,19.8,3.3,53.4,10.6,71.3c6.5,19.7,24.2,39.7,55.5,63c33.4,24.8,58.9,23.1,62.2,22.8
	c3.5-0.3,76.8-7.3,85.7-8.4c2.8-0.3,6.8-1.2,12.4-2.5c14.6-3.3,39.1-8.8,64-9.2h0.5c24.4-1.6,82.4,10.3,82.9,10.4h0.2
	c1.2,0.2,122.9,22.9,136,25.9l0.3,0.1c29.9,5.7,58.8,15.7,85.7,29.7l1.6,0.8c28.7,18.1,82.2,48.3,82.7,48.6l0.4,0.2
	c0.7,0.3,66.5,33.9,100.2,50.2l17.1,8l0.2,0.1c9,4,18.5,6.8,28.2,8.3c6.3,1,12.7,1.5,19.1,1.5c22.5-0.1,44.7-6.2,64.1-17.6
	l111.8-65.8c4.3-2.5,18.8-11.4,22.8-21.4l17.6-43.6C1517.1,821.5,1520.8,813.3,1518.5,803.7z"/>
</svg>
