<?xml version="1.0" encoding="utf-8"?>
<!-- Generator: Adobe Illustrator 27.0.1, SVG Export Plug-In . SVG Version: 6.00 Build 0)  -->
<svg version="1.1" id="Island_-_Config" xmlns="http://www.w3.org/2000/svg" xmlns:xlink="http://www.w3.org/1999/xlink" x="0px"
	 y="0px" viewBox="0 0 1920 1080" style="enable-background:new 0 0 1920 1080;" xml:space="preserve">
<style type="text/css">
	.st0{fill:none;stroke:#FFFFFF;stroke-width:30;stroke-miterlimit:10;}
</style>
<path class="st0" d="M1778.4,521.4l-0.4-0.5c-18.1-21.9-38.3-14.6-44.9-12.3l-0.7,0.2l-0.6,0.3c-33.5,18.1-161.9,65.6-163.2,66.1
	l-0.2,0.1l-74.4,32.1l-0.2,0.1c-2.2,1-218.5,99.6-237,107l-0.3,0.1c-28.3,12.3-69.8,21.4-106.6-5.3l-1.3-1
	c-38.7-29.9-40.9-79.8-41-80.3v-0.6c-0.4-3.9-9-95.4-11.4-114.3c-1.8-13.7-6.3-29.7-6.5-30.4l-0.2-0.5l-52.8-127.3l-0.1-0.3
	c-0.7-1.6-74.1-161.2-82.8-181.4c-8.4-20.7-15.9-30.3-21.5-36.3c-19.9-21.9-68.8-25.5-80.1-24.5c-12.1,1.1-66.8,12.1-74.1,13.6
	l-123.9,19.3l-87.7,8.6l-8.8,0.6h-0.1c-72,5.9-126.7,2.6-147.1,0.9c-28.6-3.6-55.2-15.3-66.5-20.2c-2.5-1.1-4.3-1.9-5.7-2.4
	c-35.1-13-93.8-23.8-108.4-26.1c-39.7-8.9-56.4,0.3-65.4,5.3l-1.4,0.8l-0.1,0.1c-35.7,19.8-25.7,67.7-24.1,74.8l18.3,179.9l0.1,0.5
	c0.9,5.5,20.8,133.5,21.8,139.6c10.1,66.8,10.9,139.5,11,145.8c-1.8,20,3.3,54.1,10.8,72.1c6.6,19.9,24.4,40.1,56.2,63.7
	c33.9,25.1,59.6,23.4,62.9,23c3.7-0.3,77.7-7.4,86.7-8.5c2.8-0.3,6.9-1.3,12.5-2.5c14.8-3.3,39.5-8.9,64.7-9.3h0.5
	c24.7-1.6,83.3,10.4,83.9,10.6h0.2c1.2,0.2,124.3,23.1,137.5,26.2l0.3,0.1c30.2,5.8,59.4,15.9,86.7,30l1.6,0.8
	c29.1,18.3,83.1,48.8,83.6,49.1l0.4,0.2c0.7,0.3,67.2,34.2,101.3,50.8l17.3,8.1c10,4.7,20.7,7.6,31.7,8.8c2.7,0.3,5.4,0.4,8,0.4
	c20.8,0,38.2-8.4,50.6-24.5c17.2-21.2,53.8-65.3,54.2-65.7l0.7-0.7l0.5-1.1c1.1-2,10-16.4,33.6-8.1c6.8,3.1,22.8,11.5,25.1,12.7
	s8.7,4.5,18.3,3.2c6.4-0.9,27.9-12.6,64.1-34.9L1558,694.5l78.2-46.4c82.6-49,127.7-76,134-80.1c6.8-4.4,11.4-11.5,12.7-19.4
	C1784.8,538.4,1782.1,526.5,1778.4,521.4z"/>
</svg>
