<?xml version="1.0" encoding="utf-8"?>
<!-- Generator: Adobe Illustrator 27.0.1, SVG Export Plug-In . SVG Version: 6.00 Build 0)  -->
<svg version="1.1" id="International_Brittens_-_Config"
	 xmlns="http://www.w3.org/2000/svg" xmlns:xlink="http://www.w3.org/1999/xlink" x="0px" y="0px" viewBox="0 0 1920 1080"
	 style="enable-background:new 0 0 1920 1080;" xml:space="preserve">
<style type="text/css">
	.track-surface{fill:none;stroke:#FFFFFF;stroke-width:30;stroke-miterlimit:10;}
</style>
<path class="track-surface" d="M1814.7,196.9c0-22-9.6-35.8-17.6-43.5c-9.8-9.4-22.8-14.9-34-14.4h-0.2c-17,1.1-30.1,6.9-38.8,17.4
	c-9.6,11.6-13.2,27.9-10.7,48.5l0.2,1.3c12.3,65.6,16.2,118.4,11.7,157c-0.1,0.6-0.1,1.1-0.2,1.5c-7.8,49.9-25.5,80.3-39,96.9
	c-14.5,18-27.4,24.3-27.6,24.4l-50.6,24.2l-0.4,0.2c-31.5,17.1-152.4,61.8-153.7,62.3l-0.2,0.1l-70,30.2l-0.2,0.1
	c-2.1,0.9-205.8,93.8-223.2,100.8l-0.2,0.1c-26.7,11.6-65.7,20.1-100.4-5l-1.2-0.9c-36.4-28.1-38.6-75.1-38.6-75.6V622
	c-0.4-3.6-8.5-89.8-10.8-107.7c-1.7-12.9-5.9-28-6.1-28.6l-0.1-0.5L953,365.4l-0.1-0.3c-0.7-1.5-69.8-151.9-77.9-170.8
	c-7.9-19.5-15-28.5-20.2-34.2c-18.8-20.7-64.8-24-75.5-23.1c-11.4,1-62.9,11.4-69.8,12.8l-116.7,18.1l-82.6,8.1l-8.3,0.6h-0.1
	c-67.8,5.5-119.3,2.4-138.5,0.8c-26.9-3.4-52-14.4-62.7-19.1c-2.4-1-4.1-1.8-5.4-2.3c-33.1-12.2-88.4-22.4-102.1-24.6
	c-37.4-8.4-53.1,0.3-61.6,5l-1.3,0.7l-0.1,0.1c-33.6,18.6-24.2,63.8-22.7,70.4l17.2,169.4l0.1,0.5c0.8,5.1,19.5,125.6,20.5,131.5
	c9.5,62.9,10.3,131.4,10.3,137.3c-1.7,18.9,3.1,50.9,10.1,68c6.2,18.7,23,37.8,52.9,60c31.9,23.6,56.2,22,59.2,21.7
	c3.5-0.3,73.1-6.9,81.7-8c2.6-0.3,6.5-1.2,11.8-2.4c13.9-3.1,37.2-8.3,60.9-8.7h0.4c23.2-1.5,78.4,9.8,79,9.9h0.2
	c1.2,0.2,117.1,21.8,129.5,24.7l0.3,0.1c28.4,5.4,56,14.9,81.7,28.3l1.5,0.8c27.4,17.2,78.3,46,78.8,46.3l0.3,0.2
	c0.6,0.3,63.3,32.2,95.4,47.8l16.3,7.6l0.2,0.1c8.6,3.8,17.6,6.4,26.8,7.9c6,1,12.1,1.5,18.1,1.5c21.5-0.1,42.5-5.9,61-16.8
	l163.6-96.3l258.3-153.8c0.8-0.5,84.4-50,142.9-84.9c2.8-1.5,5.8-2.7,8.8-3.7l46.3-4.3c27.3-2.6,32.2-15.8,33-19.1
	c0.4-1.4,5.8-23.3,7.2-30.1c1.7-3.2,11.2-13.4,25.8-26.7l0.2-0.2c31.3-29.8,62.4-70.7,68.2-80.9l0.1-0.2c19.1-35,24.8-75,27.5-94.3
	c0.5-3.5,0.9-6.6,1.3-8l0.1-0.8c0.1-0.6,0.2-1.5,0.3-2.6C1814.4,262.5,1815.4,220.4,1814.7,196.9z"/>
</svg>
