<?xml version="1.0" encoding="utf-8"?>
<!-- Generator: Adobe Illustrator 27.0.1, SVG Export Plug-In . SVG Version: 6.00 Build 0)  -->
<svg version="1.1" id="International_Hislop_-_Config"
	 xmlns="http://www.w3.org/2000/svg" xmlns:xlink="http://www.w3.org/1999/xlink" x="0px" y="0px" viewBox="0 0 1920 1080"
	 style="enable-background:new 0 0 1920 1080;" xml:space="preserve">
<style type="text/css">
	.track-surface{fill:none;stroke:#FFFFFF;stroke-width:30;stroke-miterlimit:10;}
</style>
<path class="track-surface" d="M1776.8,212.5c0-21.1-9.2-34.2-16.9-41.6c-9.3-8.9-21.8-14.2-32.5-13.7h-0.2c-16.3,1-28.7,6.6-37,16.6
	c-9.2,11.1-12.6,26.7-10.2,46.4l0.2,1.2c11.7,62.7,15.5,113.2,11.2,150c-0.1,0.5-0.1,1-0.2,1.5c-7.4,47.7-24.4,76.7-37.3,92.6
	c-13.9,17.2-26.2,23.3-26.4,23.3l-48.3,23.1l-0.4,0.2c-30.1,16.3-145.7,59.1-146.9,59.5l-0.2,0.1l-66.9,28.9l-0.2,0.1
	c-2,0.9-196.6,89.6-213.3,96.3l-0.2,0.1c-25.5,11.1-62.8,19.2-96-4.8l-1.1-0.9c-34.8-26.9-36.9-71.8-36.9-72.2v-0.5
	c-0.3-3.5-8.1-85.8-10.3-102.9c-1.6-12.3-5.7-26.7-5.8-27.3l-0.1-0.5l-47.5-114.5l-0.1-0.3c-0.7-1.4-66.7-145.1-74.5-163.2
	c-7.5-18.6-14.3-27.3-19.3-32.7c-17.9-19.7-61.9-22.9-72.1-22c-10.9,1-60.1,10.9-66.7,12.2l-111.5,17.3l-78.9,7.7l-7.9,0.6h-0.1
	c-64.8,5.3-114,2.3-132.4,0.8c-25.7-3.3-49.7-13.7-59.9-18.2c-2.3-1-3.9-1.7-5.1-2.2c-31.6-11.7-84.4-21.4-97.5-23.5
	c-35.7-8-50.8,0.3-58.9,4.8l-1.3,0.7l-0.1,0.1c-32.1,17.8-23.2,61-21.7,67.3l16.5,161.9l0.1,0.5c0.8,4.9,18.7,120,19.6,125.6
	c9.1,60.1,9.8,125.5,9.9,131.2c-1.6,18,3,48.7,9.7,64.9c5.9,17.9,22,36.1,50.5,57.3c30.5,22.6,53.7,21,56.6,20.7
	c3.4-0.3,69.9-6.6,78-7.7c2.5-0.3,6.2-1.1,11.3-2.3c13.3-3,35.6-8,58.2-8.3h0.4c22.2-1.4,75,9.4,75.5,9.5h0.2
	c1.1,0.2,111.9,20.8,123.7,23.6l0.3,0.1c27.2,5.2,53.5,14.3,78,27l1.5,0.8c26.2,16.5,74.8,44,75.3,44.2l0.3,0.2
	c0.6,0.3,60.5,30.8,91.2,45.7l15.5,7.3c9,4.2,18.6,6.9,28.5,7.9c2.5,0.2,4.8,0.4,7.2,0.4c18.7,0,34.4-7.5,45.6-22.1
	c15.4-19.1,48.4-58.7,48.7-59.1l0.6-0.6l0.5-1c1-1.8,9-14.7,30.3-7.3c6.1,2.8,20.5,10.4,22.5,11.4c2,1,7.8,4,16.5,2.8
	c5.8-0.8,25.1-11.4,57.7-31.4l246.8-146.9c0.8-0.5,80.6-47.8,136.6-81.1l58.4-35c14.2-8.5,27.5-18.3,39.8-29.3l17.3-15.7l0.2-0.2
	c29.9-28.5,59.6-67.6,65.2-77.3l0.1-0.1c18.2-33.4,23.7-71.7,26.3-90.1c0.5-3.4,0.9-6.3,1.2-7.7l0.1-0.7c0.1-0.6,0.2-1.4,0.3-2.5
	C1776.5,275.3,1777.5,235,1776.8,212.5z"/>
</svg>
