<?xml version="1.0" encoding="utf-8"?>
<!-- Generator: Adobe Illustrator 27.0.1, SVG Export Plug-In . SVG Version: 6.00 Build 0)  -->
<svg version="1.1" id="International_No_Chicane_-_Config"
	 xmlns="http://www.w3.org/2000/svg" xmlns:xlink="http://www.w3.org/1999/xlink" x="0px" y="0px" viewBox="0 0 1920 1080"
	 style="enable-background:new 0 0 1920 1080;" xml:space="preserve">
<style type="text/css">
	.st0{fill:none;stroke:#FFFFFF;stroke-width:30;stroke-miterlimit:10;}
</style>
<path class="st0" d="M1787,214c0-21.1-9.2-34.3-16.9-41.7c-9.4-9-21.9-14.3-32.6-13.8h-0.2c-16.3,1-28.8,6.6-37.1,16.7
	c-9.2,11.1-12.7,26.8-10.2,46.5l0.2,1.2c11.8,62.9,15.5,113.5,11.2,150.4c-0.1,0.5-0.1,1-0.2,1.5c-7.5,47.8-24.4,76.9-37.4,92.9
	c-13.9,17.2-26.3,23.3-26.4,23.4l-48.5,23.2l-0.4,0.2c-30.2,16.3-146.1,59.2-147.3,59.7l-0.2,0.1l-67.1,29l-0.2,0.1
	c-2,0.9-197.2,89.9-213.9,96.6l-0.2,0.1c-25.5,11.1-63,19.3-96.2-4.8l-1.1-0.9c-34.9-27-37-72-37-72.4v-0.5
	c-0.3-3.5-8.1-86.1-10.3-103.2c-1.6-12.3-5.7-26.8-5.9-27.4l-0.1-0.5l-47.6-114.8l-0.1-0.3c-0.7-1.5-66.8-145.5-74.7-163.7
	c-7.6-18.7-14.3-27.3-19.4-32.8c-18-19.8-62.1-23-72.3-22.1c-10.9,1-60.3,10.9-66.8,12.3l-111.8,17.4l-79.1,7.8l-7.9,0.6H529
	c-65,5.3-114.4,2.3-132.7,0.8c-25.8-3.3-49.8-13.8-60-18.3c-2.3-1-3.9-1.7-5.2-2.2c-31.7-11.7-84.7-21.5-97.8-23.6
	c-35.8-8-50.9,0.3-59,4.8l-1.3,0.7l-0.1,0.1c-32.2,17.8-23.2,61.1-21.7,67.5l16.5,162.3l0.1,0.5c0.8,4.9,18.7,120.3,19.6,126
	c9.1,60.3,9.8,125.9,9.9,131.6c-1.6,18.1,3,48.8,9.7,65.1c5.9,17.9,22,36.2,50.7,57.5c30.6,22.7,53.8,21.1,56.8,20.8
	c3.4-0.3,70.1-6.7,78.3-7.7c2.5-0.3,6.2-1.1,11.3-2.3c13.3-3,35.6-8,58.4-8.4h0.4c22.3-1.4,75.2,9.4,75.7,9.5h0.2
	c1.1,0.2,112.2,20.9,124.1,23.6l0.3,0.1c27.3,5.2,53.6,14.3,78.3,27.1l1.5,0.8c26.2,16.5,75,44.1,75.5,44.3l0.3,0.2
	c0.6,0.3,60.6,30.9,91.4,45.8l15.7,7.3l0.2,0.1c8.2,3.6,16.9,6.2,25.7,7.6c5.8,0.9,11.6,1.4,17.4,1.4c20.6-0.1,40.8-5.6,58.5-16.1
	l156.7-92.2l247.5-147.4c0.8-0.5,80.9-47.9,136.9-81.3l58.5-35.1c14.2-8.5,27.6-18.4,40-29.4l17.4-15.7l0.2-0.2
	c30-28.5,59.8-67.7,65.4-77.5l0.1-0.1c18.3-33.5,23.7-71.9,26.4-90.3c0.5-3.4,0.9-6.3,1.2-7.7l0.1-0.7c0.1-0.6,0.2-1.4,0.3-2.5
	C1786.8,276.9,1787.8,236.6,1787,214z"/>
</svg>
