<?xml version="1.0" encoding="utf-8"?>
<!-- Generator: Adobe Illustrator 27.0.1, SVG Export Plug-In . SVG Version: 6.00 Build 0)  -->
<svg version="1.1" id="Fosters_With_Hislop_-_Config"
	 xmlns="http://www.w3.org/2000/svg" xmlns:xlink="http://www.w3.org/1999/xlink" x="0px" y="0px" viewBox="0 0 1920 1080"
	 style="enable-background:new 0 0 1920 1080;" xml:space="preserve">
<style type="text/css">
	.track-surface{fill:none;stroke:#FFFFFF;stroke-width:30;stroke-miterlimit:10;}
</style>
<path class="track-surface" d="M1546.2,817.3c-1.3-5.5-5.2-13.5-15.7-19.9c-11-8.7-102.9-79.3-106.9-82.3l0,0c-40.3-31-42.7-83-42.7-83.5v-0.6
	c-0.4-4-9.4-99-11.9-118.7c-1.9-14.2-6.5-30.8-6.7-31.5l-0.2-0.6l-54.8-132.1l-0.2-0.4c-0.8-1.7-76.9-167.3-85.9-188.3
	c-8.7-21.5-16.5-31.4-22.3-37.7c-20.7-22.8-71.4-26.5-83.2-25.4c-12.6,1.1-69.3,12.6-76.9,14.1l-128.6,20l-91,8.9l-9.1,0.6h-0.1
	c-74.8,6.1-131.5,2.7-152.7,0.9c-29.7-3.8-57.3-15.8-69.1-21c-2.6-1.1-4.5-2-5.9-2.5c-36.5-13.4-97.4-24.7-112.5-27.1
	c-41.2-9.2-58.6,0.3-67.9,5.5l-1.5,0.8l-0.1,0.1c-37.1,20.5-26.7,70.3-25,77.6l19,186.7l0.1,0.5c0.9,5.7,21.5,138.4,22.6,144.9
	c10.5,69.4,11.3,144.8,11.4,151.4c-1.8,20.8,3.4,56.1,11.2,74.9c6.8,20.6,25.4,41.7,58.3,66.1c35.1,26,61.8,24.3,65.3,23.9
	c3.7-0.3,80.6-7.7,90-8.8c2.9-0.4,7.1-1.3,13-2.6c15.3-3.4,41-9.2,67.1-9.6h0.5c25.6-1.7,86.4,10.8,87.1,11h0.2
	c1.3,0.2,129,24,142.7,27.2l0.3,0.1c31.4,6,61.7,16.5,90,31.2l1.7,0.9c30.2,19,86.2,50.7,86.8,51l0.4,0.2
	c4.2,2.2,103.7,52.8,123.2,61.2c10.3,4.8,21.4,7.8,32.7,9c2.8,0.3,5.6,0.4,8.3,0.4c21.6,0,39.7-8.7,52.5-25.4
	c17.8-22,55.8-67.7,56.2-68.2l0.7-0.9l0.5-1c1.8-2.9,4.3-5.4,7.2-7.3c7.2-4.6,16.5-5,27.6-1.1c7.6,3.4,26,13.2,26.2,13.3l0.4,0.2
	c2.6,1.2,11.7,5.1,19.9,2.6c10.5-3.5,19.4-10.5,25.2-19.9l0.4-0.7l18.8-46.5C1544.7,835.9,1548.7,827.4,1546.2,817.3z"/>
</svg>
