<?xml version="1.0" encoding="utf-8"?>
<!-- Generator: Adobe Illustrator 27.0.1, SVG Export Plug-In . SVG Version: 6.00 Build 0)  -->
<svg version="1.1" id="Island_Historic_-_Config" xmlns="http://www.w3.org/2000/svg" xmlns:xlink="http://www.w3.org/1999/xlink"
	 x="0px" y="0px" viewBox="0 0 1920 1080" style="enable-background:new 0 0 1920 1080;" xml:space="preserve">
<style type="text/css">
	.track-surface{fill:none;stroke:#FFFFFF;stroke-width:30;stroke-miterlimit:10;}
</style>
<path class="track-surface" d="M1809.4,520.2l-0.4-0.5c-18.8-22.7-39.7-15.2-46.6-12.7l-0.7,0.2l-0.7,0.4c-34.7,18.8-168,68.1-169.4,68.6
	l-0.2,0.1l-77.2,33.3l-0.2,0.1c-2.3,1-226.8,103.4-246,111.1l-0.3,0.1c-29.4,12.8-72.4,22.2-110.7-5.5l-1.3-1
	c-40.2-31-42.5-82.8-42.5-83.3v-0.6c-0.4-4-9.4-99-11.9-118.7c-1.9-14.2-6.5-30.8-6.7-31.5l-0.2-0.6l-54.8-132.1l-0.2-0.4
	c-0.8-1.7-76.9-167.4-85.9-188.3c-8.7-21.5-16.5-31.4-22.3-37.7c-20.7-22.8-71.4-26.5-83.2-25.4c-12.5,1.1-69.3,12.6-76.9,14.1
	l-128.6,20l-91,8.9l-9.1,0.6h-0.1c-74.8,6.1-131.5,2.7-152.7,0.9c-29.7-3.8-57.3-15.8-69.1-21c-2.6-1.1-4.5-2-5.9-2.5
	c-36.5-13.4-97.4-24.7-112.5-27.1c-41.2-9.2-58.6,0.3-67.9,5.5l-1.5,0.8l-0.1,0.1c-37.1,20.5-26.7,70.3-25,77.6l19,186.7l0.1,0.5
	c0.9,5.7,21.5,138.6,22.6,144.9c10.5,69.3,11.3,144.8,11.4,151.3c-1.8,20.8,3.4,56.1,11.2,74.9c6.8,20.6,25.4,41.7,58.3,66.1
	c35,26,61.7,24.3,65.3,23.9c3.5-0.4,80.6-7.7,90-8.8c2.9-0.4,7.1-1.3,13-2.6c15.3-3.4,41-9.2,67.1-9.6h0.5
	c25.6-1.7,86.5,10.8,87.1,11h0.2c1.3,0.2,129,24,142.7,27.2l0.3,0.1c31.4,6,61.7,16.5,90,31.2l1.7,0.9c30.2,19,86.2,50.7,86.8,51
	l0.4,0.2c0.7,0.3,69.7,35.5,105.2,52.7l18,8.4l0.2,0.1c9.5,4.2,19.4,7.1,29.6,8.7c6.6,1.1,13.3,1.6,20,1.6
	c23.7-0.1,46.9-6.5,67.2-18.5l180.3-106.1L1580.6,700l81.1-48.1c85.7-50.9,132.5-78.9,139.1-83.1c7-4.6,11.8-11.9,13.2-20.2
	C1816.1,537.9,1813.2,525.5,1809.4,520.2z"/>
</svg>
