<?xml version="1.0" encoding="utf-8"?>
<!-- Generator: Adobe Illustrator 27.0.0, SVG Export Plug-In . SVG Version: 6.00 Build 0)  -->
<svg version="1.1" id="Oval_-_Config" xmlns="http://www.w3.org/2000/svg" xmlns:xlink="http://www.w3.org/1999/xlink" x="0px"
	 y="0px" viewBox="0 0 1920 1080" style="enable-background:new 0 0 1920 1080;" xml:space="preserve">
<style type="text/css">
	.track-surface{fill:#FFFFFF;stroke:#231F20;stroke-width:10;stroke-miterlimit:10;}
</style>
<path class="track-surface" d="M1645.8,492.7c-29.1-72.3-80.6-136.7-153-191.4c-42.8-35.2-255.4-142.8-323.4-160.1
	c-23.6-8-128.2-36.5-225.8-34.5h-0.1c-4.7,0.2-117.1,4.5-246,52.8l-0.2,0.1c-173.1,70.1-295.7,145.7-364.3,224.9
	c-35.6,41.1-57.9,79.8-70.1,122.1c-12.5,43-15.5,92.5-9.5,155.9v0.3c3.2,26.1,16.1,73.3,42.1,120.7c15.1,27.8,33.8,53.5,55.5,76.5
	c25.1,26.5,54.3,48.6,86.6,65.5l0.7,0.4c10.5,5.3,35.3,17.7,89.9,28.5c64.7,12.8,149.8,19.3,253,19.3h12.6h461.1h0.5
	c2.2-0.1,54.9-2.8,119.4-17.1c87.4-19.5,151.2-49.8,189.4-90.3l3.3-3.5c24.9-25.9,91.1-94.7,102.4-257.7v-0.7
	C1669.9,588.6,1667.5,546.7,1645.8,492.7z"/>
</svg>
