<?xml version="1.0" encoding="utf-8"?>
<!-- Generator: Adobe Illustrator 27.0.1, SVG Export Plug-In . SVG Version: 6.00 Build 0)  -->
<svg version="1.1" id="Irwindale_Inner_Oval__Config"
	 xmlns="http://www.w3.org/2000/svg" xmlns:xlink="http://www.w3.org/1999/xlink" x="0px" y="0px" viewBox="0 0 1920 1080"
	 style="enable-background:new 0 0 1920 1080;" xml:space="preserve">
<style type="text/css">
	.st0{fill:none;stroke:#FFFFFF;stroke-width:30;stroke-miterlimit:10;}
</style>
<path class="st0" d="M1609.1,553.2c-3.9-135-60.3-244.2-162.9-316c-111.3-77.9-232.5-83.6-267-83.4c-28,0.2-63.2-0.2-100.5-0.3
	c-126.8-0.7-300.3-1.7-396.5,8c-124.8,12.6-225.6,65.1-291.9,151.6c-32.5,42.4-56.4,93.2-69.1,146.7c-11.1,46.8-13.5,95.4-6.8,136.9
	l0,0c16.9,103.1,68.2,188.9,148.5,247.8c60.8,44.8,139.3,73.5,209.5,76.7c82,3.8,180.2,5.8,278.9,5.8c116.6,0,234.2-2.6,327.5-7.9
	c63.6-3.6,119.5-18.8,166.5-45.5c41.4-23.4,75.7-55.5,102.4-95.5C1606.6,690.1,1610.3,591.5,1609.1,553.2z"/>
</svg>
