<?xml version="1.0" encoding="utf-8"?>
<!-- Generator: Adobe Illustrator 27.0.1, SVG Export Plug-In . SVG Version: 6.00 Build 0)  -->
<svg version="1.1" id="New_Smyrna_-_Config" xmlns="http://www.w3.org/2000/svg" xmlns:xlink="http://www.w3.org/1999/xlink"
	 x="0px" y="0px" viewBox="0 0 1920 1080" style="enable-background:new 0 0 1920 1080;" xml:space="preserve">
<style type="text/css">
	.st0{fill:none;stroke:#FFFFFF;stroke-width:30;stroke-miterlimit:10;}
</style>
<path class="st0" d="M1744.8,403.7c-32.7-76.7-93.8-137.7-170.4-170.4c-39.3-16.7-81.6-25.3-124.3-25.3H470
	c-42.7-0.1-85,8.5-124.3,25.3C269,265.9,207.9,327,175.2,403.7C158.5,443,149.9,485.2,150,528V552c-0.1,42.7,8.5,85,25.3,124.3
	C207.9,753,269,814.1,345.7,846.8C385,863.5,427.2,872.1,470,872H1450c42.7,0.1,85-8.5,124.3-25.3c76.7-32.7,137.7-93.8,170.4-170.4
	c16.7-39.3,25.3-81.6,25.3-124.3V528C1770.1,485.2,1761.5,443,1744.8,403.7z"/>
</svg>
