<?xml version="1.0" encoding="utf-8"?>
<!-- Generator: Adobe Illustrator 27.0.0, SVG Export Plug-In . SVG Version: 6.00 Build 0)  -->
<svg version="1.1" id="Layer_1" xmlns="http://www.w3.org/2000/svg" xmlns:xlink="http://www.w3.org/1999/xlink" x="0px" y="0px"
	 viewBox="0 0 1920 1080" style="enable-background:new 0 0 1920 1080;" xml:space="preserve">
<style type="text/css">
	.st0{fill:none;stroke:#231F20;stroke-width:20;stroke-miterlimit:10;}
</style>
<path class="st0" d="M1757.2,316.2c-25.6-53.5-62-87.9-81.3-103.5c-97.4-78.9-213-79.3-289.6-79.5c-6.4,0-12.4,0-18.1-0.1l-35.4-0.4
	c-136.4-1.5-277.5-3-470.6-3.5c-9.8,0-35.8-0.1-54.9,21.6c-12.7,14.4-20.8,17.9-27.6,19.4c-8.8,2-35.5,4.8-45.1,5.7
	c-24.2,1.5-31-5.6-36.4-13.6c-21.6-32.8-44.4-33.7-61-34.4l-2-0.1c-38.4-1.6-153.7-2-154.9-2h-0.3H480
	c-109.3,6.1-177.4,41.6-208.2,62.3c-46.5,31.1-82.1,70.7-106.1,118c-22.8,44.8-29.1,85.8-30.8,106.1c-7,83.6,15.7,158.6,67.4,222.9
	c47.1,58.5,108.5,95.5,151.6,116.3c58.9,28.3,150,65.2,223.2,94.8c31.8,12.9,61.9,25.1,85.1,34.8c113.3,47.7,214.2,72.1,300,72.8
	c1,0,1.9,0,2.9,0c47.3,0,105-9.2,167.2-26.7c57.5-16.2,117.5-38.9,173.4-65.8c26-12.5,49-39.9,58.6-70c7.2-22.6,6-44.4-3.5-61.5
	c-8.9-16.1-23.4-28.5-43.1-36.9c-20.9-8.8-48.4-13.4-81.7-13.4c-13,0-24.3,0-49.6-21c-15.1-12.6-27.3-18.4-73-18.1
	c-20.2,0.1-123.9,0.5-173.7-4.3c-9-0.8-31.5-9.7-31.5-25.4c0-6.1,0-22.4,43.3-33.2c31.4-7.7,57.7-9.3,131.9-10.7
	c65.8-1.2,158.1-1.2,216,1.6c10.4,0.5,64.1,1.7,99.3-23.5c3.5-2.5,6.7-4.7,9.8-7c30.4-21.6,50.5-35.9,128.3-109.7
	c5.3-5,52.5-48.4,83-26.9c10.4,7.4,19.6,30.6-0.3,61.6c-39.8,62.2-146.1,147.2-177.8,171.8c-14.6,11.3-47.4,41.3-37.7,75.6
	c5.6,19.7,31.1,31.4,60.7,45.1c2.7,1.3,5.6,2.6,8.4,3.8l0,0c40.9,19,75.5,6.7,88.4,0.5c84.9-40.5,200.3-112.1,221.6-266
	C1791.8,430.3,1783.1,370.4,1757.2,316.2z"/>
</svg>
