<?xml version="1.0" encoding="utf-8"?>
<!-- Generator: Adobe Illustrator 27.0.1, SVG Export Plug-In . SVG Version: 6.00 Build 0)  -->
<svg version="1.1" id="Daytona_Short_-_Config" xmlns="http://www.w3.org/2000/svg" xmlns:xlink="http://www.w3.org/1999/xlink"
	 x="0px" y="0px" viewBox="0 0 1920 1080" style="enable-background:new 0 0 1920 1080;" xml:space="preserve">
<style type="text/css">
	.track-surface{fill:none;stroke:#FFFFFF;stroke-width:30;stroke-miterlimit:10;}
</style>
<path class="track-surface" d="M1708.5,287.8c-2.5-24.8-14.2-44.8-34.2-58.1c-75.7-50.3-175.5,18.2-217.9,61.5
	c-48.2,49.4-148.9,141.1-200.1,184.1c-78.4,65.8-80.9,67.2-137.2,77.7c-19.4,3.6-60.6,1.1-85.4-0.5c-4.9-0.4-9.3-0.5-13.1-0.7
	c-150.7-8.3-317.9-5.2-428.6-3.2c-149.4,2.7-202.8,5.9-268.3,22.1C247.9,589.5,211,622.2,211,670.9c0,54.5,61.7,82.9,94.8,85.9
	c100.9,9.5,306.2,8.8,346.3,8.6c87.2-0.5,100.7,10.6,121,27.5c53.9,44.8,84.5,52,121.9,49.6l0,0c34.7-2.2,77.7,10.4,97.6,17.1v0.7
	l12.8,4c9,2.7,19.2,3.6,28.9,3.6c16.7,0,31.6-2.7,34.2-3.2l0.9-0.2l0.9-0.4c0.9-0.4,94.9-28.6,129.5-37.6
	c41.2-10.8,66-22.3,85.2-39.9c88.6-80.7,195.1-179.1,312.3-296.3C1674.4,413.7,1713.8,341.6,1708.5,287.8z"/>
</svg>
