<?xml version="1.0" encoding="utf-8"?>
<!-- Generator: Adobe Illustrator 27.0.0, SVG Export Plug-In . SVG Version: 6.00 Build 0)  -->
<svg version="1.1" id="Layer_1" xmlns="http://www.w3.org/2000/svg" xmlns:xlink="http://www.w3.org/1999/xlink" x="0px" y="0px"
	 viewBox="0 0 1920 1080" style="enable-background:new 0 0 1920 1080;" xml:space="preserve">
<style type="text/css">
	svg {height: 100%;width: 100%;}.track-surface {fill: none;stroke: white;stroke-width: 30;}
</style>
<path class="track-surface" d="M1078.8,958c-4.1,0-8.3-0.6-12.3-1.6c-19.8-4.8-42.3-10.1-66.8-15.9c-138.6-33-328.3-78.1-449.3-111
	c-20.8-5.7-39.9-26-36.4-53.8c0.7-5.6,2.9-14,5-21.4c0.8-2.9,1.6-5.8,2-7.8c2.4-10,13.9-42.1,60.5-35.5
	c56.7,8,122.8,16.6,192.7,25.8c97.9,12.8,199.1,26.1,279.4,38.2l1.2,0.2c5.8,0.9,14.6,2.3,19.2-1.7c4.3-3.8,5.1-12.2,5-18.6
	c-0.2-11.8-1.7-36.9-3.4-49.1c-2.4-16.3-6.9-46.6-57.9-46.6h-0.9c-113,0.8-310.4,0.8-439.8,0c-20.5-0.1-33.8-8-39.8-23.2
	c-5.3-13.6-3.2-26.8,6.2-39.1c5.2-6.9,43.9-56.4,45.5-58.5c2.2-2.8,54.2-68.9,64.4-81.2c16.6-19.9,53.6-51.4,114.5-39l28.6,5.9
	c54.7,11.2,136.5,28.1,180.6,37.5c16,3.4,45,4.1,53.5-28.6c0.6-2,1.1-4.2,1.6-6.5c5-21.2,12.6-53.4,56.9-66.4
	c10.1-2.9,40.7-11.9,68.5,16.5c16.6,17.1,42.6,42.5,67.7,67c21.7,21.2,44.1,43.2,59.6,58.9c7.6,7.7,14.3,9.2,23,5.1
	c2.3-1.1,9.4-4.5,10.6-21c5.5-77.7,11.7-221.9,13.6-321.4c0.1-5.1,1.4-22.4,13.3-33.7c6.9-6.5,16.2-9.7,26.7-9.3
	c6.5,0.3,16.1,1.6,23.7,9.7c7.4,8,11,20.6,10.9,38.4c-0.5,113.4-2,336.5-3,459.3c-0.1,16.3-0.4,37.2-0.6,59.3
	c-0.6,49.5-1.4,111.1-1,153.4v1.3c0.1,7.8,0.3,22.3-9.6,31.8c-6.2,6-15.1,8.6-26.3,8c-10.7-0.6-36.7-7.3-62-13.8
	c-11.3-2.9-22-5.7-30.2-7.5l-11.9-2.8c-23.6-5.5-48-11.2-55.1-13.1c-2.8-0.8-7.1-2-19.1,5.1c-3.9,2.3-8.7,5.1-14.2,8.4
	c-16.8,9.7-39.8,23.1-52.5,31.5c-5.7,3.7-10.2,6.6-6.7,21.2c2.5,10.1-0.5,26.4-10.6,36.5C1098.9,953,1090.9,958,1078.8,958z"/>
</svg>
