<?xml version="1.0" encoding="utf-8"?>
<!-- Generator: Adobe Illustrator 27.0.0, SVG Export Plug-In . SVG Version: 6.00 Build 0)  -->
<svg version="1.1" id="Layer_1" xmlns="http://www.w3.org/2000/svg" xmlns:xlink="http://www.w3.org/1999/xlink" x="0px" y="0px"
	 viewBox="0 0 1920 1080" style="enable-background:new 0 0 1920 1080;" xml:space="preserve">
<style type="text/css">
	svg {height: 100%;width: 100%;}.track-surface {fill: none;stroke: white;stroke-width: 30;}
</style>
<path class="track-surface" d="M1243,889.4c4.1,3,24.9,6.2,37.3,9.1l6.1,1.4c3.9,0.9,10.4,2.6,18.6,4.7c21.8,5.6,62.4,15.9,72.9,16.6
	c6.2,0.4,10.6-0.7,13.1-3.1c4.4-4.2,4.2-13.2,4.1-19.2v-1.5c-0.4-44.6,0.4-109.6,1-161.8c0.3-23.2,0.6-45.2,0.7-62.3
	c1-129.3,2.7-364,3.2-483.3c0.1-30.6-10.7-30.9-17.9-31.3c-6-0.2-10.6,1.3-14.1,4.5c-5.7,5.3-7.8,15.1-7.9,21.8
	c-2,105-8.5,257.2-14.3,339.2c-1.7,23.7-12.9,33.8-22.1,38.2c-16.8,8-32.3,4.9-46.3-9.2c-16.3-16.4-39.8-39.5-62.5-61.7
	c-26.5-25.9-53.9-52.8-71.6-70.9c-18.7-19.2-38-16.7-52.8-12.4c-35.9,10.5-41.6,34.5-46.5,55.7c-0.6,2.6-1.2,5-1.8,7.4
	c-11.1,42.4-47.6,50.6-78.1,44.2c-46.4-9.8-133.4-27.6-190.9-39.4l-30.1-6.1c-54.1-11.1-87,16.9-101.7,34.5
	c-9.5,11.3-39.9,50.1-60.1,75.8l-7.3,9.3c-7.6,9.7-16.2,20.3-23.9,29.6c-10.6,13-21.6,26.5-24.2,30.7c-6.2,10.3-7.7,18.7-4.3,24.7
	c4.4,8,16.4,11.5,21.9,11.6c153.1,2.8,338.4,2.6,461.1-0.6c38.6-1,65.1,14,78.9,44.6c6.7,14.8,12.1,15.6,19.7,16.7l0.4,0.1
	c17.3,2.6,51.3,8.9,66.8,11.9c32.1,6.2,50.3,23.8,54.1,52.5c1,7.1,2.8,17.5,4.8,28.4c2.5,13.8,5.1,31.9,6.1,37.7
	C1236.8,883.4,1238.9,886.4,1243,889.4z"/>
</svg>
