<?xml version="1.0" encoding="utf-8"?>
<!-- Generator: Adobe Illustrator 27.0.0, SVG Export Plug-In . SVG Version: 6.00 Build 0)  -->
<svg version="1.1" id="Layer_1" xmlns="http://www.w3.org/2000/svg" xmlns:xlink="http://www.w3.org/1999/xlink" x="0px" y="0px"
	 viewBox="0 0 1920 1080" style="enable-background:new 0 0 1920 1080;" xml:space="preserve">
<style type="text/css">
	.track-surface{fill:none;stroke:#231F20;stroke-width:20;stroke-miterlimit:10;}
</style>
<path class="track-surface" d="M1673.5,709c-0.2-13.1-0.4-26.6-0.4-36.4c0-47.8-24.9-63.7-39.7-73.3l-0.4-0.2c-26.4-17-84.9-56.7-118.1-84.7
	c-19-16.2-17.5-29.7-14.4-41.9c6.1-23.8,4.1-43.4-5.9-58.7c-9.2-13.7-24.4-22.7-44.1-25.5c-297.3-44.1-783.1-107.6-1044.1-141.6
	c-108-14.2-136.8,62.2-143.2,86c-3.5,13.5-7.9,35.1-11.6,54.3c-1.5,7.4-2.8,14.2-3.9,19.6c-14,66.8,60.7,121.3,104.8,131.8l0,0
	c142.7,34,308.4,74.9,483.4,118.3c260.2,64.4,529,130.7,723.1,174.4c12,2.6,23.1,4.1,33.4,4.1c20.7,0,38.2-5.5,51.9-16.4
	c19-15.3,29.7-40.8,29.7-71.8C1674.2,736.7,1673.7,723.4,1673.5,709z"/>
</svg>
