<?xml version="1.0" encoding="utf-8"?>
<!-- Generator: Adobe Illustrator 27.0.1, SVG Export Plug-In . SVG Version: 6.00 Build 0)  -->
<svg version="1.1" id="Grand_Prix__Config" xmlns="http://www.w3.org/2000/svg" xmlns:xlink="http://www.w3.org/1999/xlink" x="0px"
	 y="0px" viewBox="0 0 1920 1080" style="enable-background:new 0 0 1920 1080;" xml:space="preserve">
<style type="text/css">
	.track-surface{fill:none;stroke:#FFFFFF;stroke-width:30;stroke-miterlimit:10;}
</style>
<path class="track-surface" d="M1696,526c-64.6-90.8-95.8-135.5-122.6-182.7c-8.5-14.9-15.2-29.8-18.6-40.6c-8.6-28.3-17.8-68.8-25.1-101.2
	c-2.5-11-4.8-21.4-6.8-29.8c-7.1-29.8-19.9-49.7-39.1-60.6c-16.9-9.7-35.2-10.3-48.4-10.8c-19.1-0.6-54.6-0.1-76.4,0.8
	c-17,0.7-38.5,7.9-44.2,38.2c-1.3,6.9-2.5,15.4-3.2,21l-0.1,1c-1.3,9.6-5.3,11.2-17.5,11.6c-24.6,0.6-29.1,21.3-30.7,29.1l-0.3,1.1
	c-4.9,22.5-18.1,73-26.9,97.8c-23.7,67.9-63.3,94.8-91.1,109.1c-117,60.3-140,70.5-208.1,100.7l-11.8,5.2
	c-17,7.6-20.8,18.5-23.1,25.8c-0.3,0.7-0.5,1.5-0.7,2.1c-2.6,7-6.7,8.3-13.1,8.2c-224.6-3.8-273.6-3.8-348-3.8
	c-44.1,0-99,0.1-206.4-0.7c-34.2-0.3-60,11.6-77,35.1c-10.8,14.9-17.5,34.2-20.7,58.8c-0.5,4.6-1.3,9.7-1.9,15
	c-5.8,45.5-14.7,114.2-17.2,155.1l0,0c-3.2,51.8,13.7,91.6,50,118.5c33.1,24.4,81.4,45.7,97.7,48.3c9.2,1.5,17.6,2.1,25.1,2.1
	c16.3,0,29.2-3.3,38.8-9.8c13.7-9.3,18.1-23.4,20.9-31.9c2.4-7.3,4.4-16,6.2-23.7c0.5-2.5,1.1-4.7,1.6-6.8c2-8.2,3.1-16.7,3.1-25.2
	v-0.1v-0.1c-0.5-38.9-3.2-114.1-5.3-170.3c-1.6-42.9,11.8-53.9,26.9-62.2c8.9-4.8,26-8.7,33.1-9.4c9.5-1.1,19.1-1.5,28.6-1.3
	c120.2,4.1,215.3,7.1,299.2,9.7c81.2,2.6,151.3,4.7,219,7.2c31.9,1.2,48.7-10.8,49.6-35.4c0.1-2.1,0.5-5.9,0.9-9.3
	c0.3-2.8,0.6-5.5,0.7-7.5c0.9-12.7,6.4-13.9,17.8-13.8h0.5c94.5,1.3,171,1.9,238.5,2.4c59.6,0.5,111.1,0.9,158.4,1.6
	c30.1,0.5,41.2-4.8,52.7-11.8c11.3-6.8,24-7.5,33.2-8h0.3c6.9-0.4,16.6,0,25.9,0.3c11.3,0.4,22,0.7,29.9,0.1
	c16-1.4,26.4-7,30.9-16.8C1707.8,543.7,1698,528.8,1696,526z"/>
</svg>
