<?xml version="1.0" encoding="utf-8"?>
<!-- Generator: Adobe Illustrator 27.0.0, SVG Export Plug-In . SVG Version: 6.00 Build 0)  -->
<svg version="1.1" id="Full_Course_-_Config" xmlns="http://www.w3.org/2000/svg" xmlns:xlink="http://www.w3.org/1999/xlink"
	 x="0px" y="0px" viewBox="0 0 1920 1080" style="enable-background:new 0 0 1920 1080;" xml:space="preserve">
<style type="text/css">
	.st0{fill:none;stroke:#231F20;stroke-width:10;stroke-miterlimit:10;}
</style>
<path class="st0" d="M1811,437.6c-0.6-12.6-15.2-34.7-25.3-45.3c-10.3-10.8-21.7-15.7-37.3-15.7c-13.4,0-67.1,9-84.8,12.2
	c-14.7,2.7-29.2,6.3-43.4,11l-0.2,0.1c-0.7,0.3-70.7,26.1-90,33.1c-2.6,0.9-5.1,1.9-8,3.2c-27,11.3-48,1.5-48.8,1.1l-0.1-0.1
	c-4.7-2.1-113.1-52.3-132.5-60.3c-32.2-14-64-9-67.1-8.4c-2.2,0.3-27.3,3.6-38,4.9h-0.3c-26.7,4.6-49-4.2-57.4-7.6l-1.5-0.6
	c-27.9-11.3-56.4-6.9-57.5-6.7c-1.7,0.3-42.5,6.5-54.2,9.5h-0.1c-22.6,6.1-54.5,0-54.8-0.1h-0.2c-1.6-0.3-163.9-27-173.9-28.8
	l-0.3,0c-65-9.6-98.2-9.5-136.6-9.4c-13.1,0-26.7,0.1-42.4-0.3h-0.2c-8.1,0-21.5,0-30.5-6l-0.3-0.2c-29.1-17.3-52-15.6-61.9-14.7
	c-25.6,0.4-36.4-7.6-42.8-12.4c-1-0.8-2-1.5-3-2.1c-25.3-17.4-33.1-19.2-48.6-16.5l-0.5,0.1l-0.5,0.1c-41,13.2-58.3,28-66.6,35.1
	c-0.9,0.8-1.8,1.5-2.5,2.1l-0.2,0.2c-8,7-13.9,14.4-17.4,22c-3.8,8.4-4.4,17.9-1.7,26.7c1.6,5.1,4.5,15.1,6.3,23.9l0.1,0.4
	c3.1,11.4-2.3,20-16,25.4C331.6,427,279,437,261.7,440.3l-2.6,0.5c-33.8,5.7-40.4-4.4-45.7-12.5c-0.6-0.9-1.2-1.9-1.8-2.7
	c-5.1-7.3-20.3-37.4-24.7-70.4c-4-28.8,6.2-48.2,11.1-57.6c0.4-0.7,0.8-1.4,1.1-2.1c4.9-9.5,23.4-53.7,27.9-66.7l0.5-1.3
	c3.6-10.3,14.5-41.6,7.4-73.5c-2.4-10.2-6.9-19.9-13.2-28.3C206.6,105.6,191,96.6,174,98.2h-0.3c-31.9,4.2-37.2,43.2-37.4,44.8
	c0,0.3-4.4,33.8-5.5,40.8c-0.9,5.6-18.9,136.5-20.7,170.4c-1.9,17-1.2,87.9-1.1,92.6c-1.7,55.7,14.2,113.9,18.5,126.4
	c6.3,18.2,78.8,192.8,93.9,228.9c2.8,6.6,5.8,13.3,9,19.7l0,0l8.1,16.4c3.9,7.8,8.3,15.4,13.1,22.7c15,22.8,50.6,76.9,58.5,87.1
	l0.3,0.4c16.8,19,49.3,30.2,96.6,33.1c2.8,0.3,5.6,0.5,8.3,0.5c4.4,0,8.8-0.4,13.2-1.3c11.3-2.4,21.3-8.9,28.1-18.1
	c5.3-7,15-20.1,21.3-28.9c3.8-5.6,8.7-10.3,14.3-14.1c3.8-2.5,7.8-4.5,12-6.1c29.7-11.4,60.3-20.3,91.4-26.7
	c12.3-2.3,25.6-4.6,41.5-3.9c25.9,1.2,39.4,20.8,47.5,32.6c0.9,1.4,1.9,2.7,2.7,3.8l0.4,0.6c22.4,25.2,49.9,18.5,62,8.4
	c3.6-3.1,8.5-8.5,14.1-14.9c7-7.9,15.7-17.7,20.8-21l0.4-0.2c17.3-12.5,41-20.7,55.1-25.5l3.8-1.3c17.2-6,435-155.2,487-177.8
	c148.9-58.9,288.3-136.5,292.9-139.1c59.1-30.5,150-76.9,158.7-79.8l0.7-0.3c0.9-0.5,2.2-0.9,3.5-1.5
	C1795.9,463,1812.8,455.9,1811,437.6z"/>
</svg>
