<?xml version="1.0" encoding="utf-8"?>
<!-- Generator: Adobe Illustrator 27.0.1, SVG Export Plug-In . SVG Version: 6.00 Build 0)  -->
<svg version="1.1" id="Homestead_Oval__Config" xmlns="http://www.w3.org/2000/svg" xmlns:xlink="http://www.w3.org/1999/xlink"
	 x="0px" y="0px" viewBox="0 0 1920 1080" style="enable-background:new 0 0 1920 1080;" xml:space="preserve">
<style type="text/css">
	.st0{fill:none;stroke:#FFFFFF;stroke-width:30;stroke-miterlimit:10;}
</style>
<path class="st0" d="M1296.3,932.2c-5.3,0-10.6,0-15.9-0.1c-143.6-2.4-247.7-2.9-331.3-3.3c-145.9-0.7-242.3-1.1-406.4-10.9
	c-86.3-5.2-162.3-23.2-225.9-53.7C260.8,837.4,214.3,801,178.3,756c-73.6-92.2-87.3-201.1-75.6-272.2
	c10.3-62.2,35.2-116.9,74.1-162.8c34.1-40,78.9-73.4,133.5-99.4c46.5-22.1,99.4-38.7,157.6-49.2c48.2-8.8,99.4-13.2,148.3-12.7
	c65.3,0.6,152.5,0.7,245,0.8c132.9,0.2,270.5,0.3,376.4,1.8l6.8,0.1c46.3,0.6,132.4,1.6,222.3,19.8
	c110.5,22.2,195.7,63.8,253.6,123.5c62.4,64.4,92.9,150.3,90.7,255.3c-1.1,54.2-14.6,105.2-40.1,151.5
	c-25.2,45.7-61.4,85.7-107.8,118.8c-46.8,33.4-102.7,59.1-166.3,76.2C1435.5,923.8,1368.1,932.2,1296.3,932.2z"/>
</svg>
