<?xml version="1.0" encoding="utf-8"?>
<!-- Generator: Adobe Illustrator 27.0.0, SVG Export Plug-In . SVG Version: 6.00 Build 0)  -->
<svg version="1.1" id="Layer_1" xmlns="http://www.w3.org/2000/svg" xmlns:xlink="http://www.w3.org/1999/xlink" x="0px" y="0px"
	 viewBox="0 0 1920 1080" style="enable-background:new 0 0 1920 1080;" xml:space="preserve">
<style type="text/css">
	.track-surface{fill:none;stroke:#231F20;stroke-width:20;stroke-miterlimit:10;}
</style>
<path class="track-surface" d="M1645.8,526.9c-60.2-84.6-89.2-126.3-114.2-170.2c-7.9-13.9-14.2-27.8-17.3-37.9c-8-26.4-16.6-64.1-23.4-94.3
	c-2.3-10.3-4.5-20-6.4-27.8c-6.6-27.8-18.5-46.3-36.4-56.5c-15.8-9-32.8-9.6-45.1-10c-17.8-0.6-50.9-0.1-71.2,0.8
	c-15.9,0.7-35.8,7.4-41.2,35.6c-1.2,6.5-2.3,14.3-3,19.5l-0.1,0.9c-1.2,8.9-4.9,10.4-16.3,10.8c-22.9,0.6-27.1,19.9-28.6,27.1
	l-0.3,1c-4.6,21-16.9,68-25,91.1c-22.1,63.3-59,88.3-84.9,101.6c-109,56.2-130.4,65.7-193.9,93.8l-11,4.8c-15.9,7-19.4,17.2-21.6,24
	c-0.3,0.7-0.4,1.4-0.7,2c-2.4,6.5-6.3,7.7-12.2,7.6c-209.3-3.6-255-3.6-324.3-3.6c-41.1,0-92.2,0.1-192.3-0.7
	c-31.8-0.3-56,10.8-71.7,32.7c-10,13.9-16.3,31.8-19.3,54.8c-0.5,4.3-1.2,9-1.8,14c-5.4,42.4-13.7,106.4-16,144.5
	c-3,48.2,12.7,85.3,46.6,110.4c30.8,22.8,75.8,42.6,91,45c8.6,1.4,16.4,2,23.4,2c15.2,0,27.2-3.1,36.2-9.2
	c12.7-8.7,16.9-21.8,19.4-29.7c2.2-6.8,4.1-14.9,5.8-22.1c0.5-2.3,1-4.4,1.5-6.4c1.9-7.6,2.9-15.5,2.9-23.5v-0.1V859
	c-0.5-36.3-3-106.3-4.9-158.7c-1.5-40.1,11-50.3,25-57.9c8.3-4.5,24.2-8.1,30.8-8.7c8.8-1,17.8-1.4,26.7-1.2
	c41.8,1.1,77.5,2.1,109.4,3c140.5,3.7,204.6,5.4,373.4,12.9c11.5,0.5,24.6-5.4,32.3-10.6c15.3-10.1,44-31.7,57.9-42.7
	c9.9-7.8,18.8-8.3,21.3-8.2c138.3,2.5,321.3,3.7,323.1,3.7c28,0.4,38.4-4.5,49.1-11c10.5-6.4,22.3-7,30.9-7.5h0.3
	c6.5-0.3,15.5,0,24.1,0.3c10.5,0.3,20.5,0.7,27.8,0.1c14.9-1.3,24.6-6.5,28.8-15.6C1656.8,543.5,1647.7,529.6,1645.8,526.9z"/>
</svg>
