<?xml version="1.0" encoding="utf-8"?>
<!-- Generator: Adobe Illustrator 27.0.1, SVG Export Plug-In . SVG Version: 6.00 Build 0)  -->
<svg version="1.1" id="Langley_Oval__Config" xmlns="http://www.w3.org/2000/svg" xmlns:xlink="http://www.w3.org/1999/xlink"
	 x="0px" y="0px" viewBox="0 0 1920 1080" style="enable-background:new 0 0 1920 1080;" xml:space="preserve">
<style type="text/css">
	.st0{fill:none;stroke:#FFFFFF;stroke-width:30;stroke-miterlimit:10;}
</style>
<path class="st0" d="M1530.7,542.1c-0.9-64.7-14.9-123.4-41.7-174.2c-23-43.7-55.4-81.7-96.1-112.8
	c-71.7-54.7-156.6-78.1-212.2-81.8c-71.9-4.7-180.2-3.4-285-2.1c-54.8,0.7-106.5,1.3-151.5,1.1C692.8,172,644,182,599.2,202
	c-40.4,18-76.9,43.9-108.5,76.7c-33.1,34.5-60.1,76.4-77.8,121c-17,42.7-25.1,86.1-23.3,125.5c2.9,62.7,15.9,119.3,38.9,168.2
	c20.8,44.4,49.8,83,86.3,114.5c32.1,27.8,70,50.2,112.4,66.4c37,14.2,76.6,23.5,117.8,27.7c66,6.7,172.8,8.1,269.7,8.1
	c38,0,74.4-0.2,106.3-0.4c17.5-0.1,33.5-0.2,47.5-0.2c95.3-0.3,185.5-38.8,254-108.4c34-34.6,61.8-76.4,80.5-120.9
	C1521.7,635.3,1531.3,587.6,1530.7,542.1z"/>
</svg>
