<?xml version="1.0" encoding="utf-8"?>
<!-- Generator: Adobe Illustrator 27.0.1, SVG Export Plug-In . SVG Version: 6.00 Build 0)  -->
<svg version="1.1" id="Grand_Prix_Config" xmlns="http://www.w3.org/2000/svg" xmlns:xlink="http://www.w3.org/1999/xlink" x="0px"
	 y="0px" viewBox="0 0 1920 1080" style="enable-background:new 0 0 1920 1080;" xml:space="preserve">
<style type="text/css">
	.st0{fill:none;stroke:#FFFFFF;stroke-width:30;stroke-miterlimit:10;}
</style>
<path class="st0" d="M1598.3,589.5l93.6,19.5c9.5,2.2,18.9,5,28,8.5c20.4,8.3,33.2,14.4,39.5,34.4l0.1,0.4c13.8,38.1-5.4,52.8-7,54
	l-0.4,0.3c-1.5,1.1-149.1,108-158.7,115l-0.3,0.2c-36.1,28.5-73.6,25.9-74,25.9h-0.4l-816.6-2.2l-405.9-1.1
	c-17.7-0.5-65.8-2.3-76.8-4.8l-0.6-0.1c-8.9-1.4-58.3-18.1-62.8-58.7c-2.6-23.5,4.2-42.8,10.4-54.9c3.9-7.6,9.2-14.5,15.6-20.1
	l164.3-146.9l0.3-0.3l0.3-0.3c15-15.3,32.2-28.2,51-38.3c29.7-15.8,50.6-17.3,86.2-14.7c15.5,1.4,33-1.8,52.2-9.5
	c20.3-8.2,39-20.1,55-35.1c41.3-38.2,179.5-165.5,225.1-197.6c45.2-31.8,82-9.2,97.7,0.5c1.4,0.8,2.6,1.6,3.7,2.2
	c73.4,53.5,143.7,131.8,150.9,148.5l0.4,1.1l0.7,0.9c26,33.9,25.6,97.2,25.5,121.1c0,3.3,0,5.9,0,7.9c0,35.1,18.2,64.2,52.5,84
	c15.8,9,33,15.4,50.8,19.1c8.7,1.8,178.7,36.3,200,39.7h0.2c27.7,3.9,54.6-4.2,67.5-8.1c1.7-0.5,3.1-0.9,4.2-1.2l0.2-0.1
	c84.6-25.5,97.6-82.8,98.4-86.7c11-50.7,27.7-127.4,28.7-131c0,0.1,0,0.2-0.1,0.2c1-3.5,9.8-49.7,13-75.7
	c3.5-28.5-7.4-48.7-7.9-49.5l-0.2-0.3c-4.5-7.4-44.3-72.9-49.4-79.4l-0.4-0.6l-0.5-0.5c-24.6-23.1-50.4-24.5-67.7-21.6
	c-11.3,1.9-22.1,6-31.9,12.1l-0.1,0.1L1236.6,404c-16.8,12.4-25.4,30.1-25.4,52.7c-2,27.3,11.5,42.8,23.2,51.1
	c7.7,5.3,16.3,9.1,25.4,11.1l266,55.5L1598.3,589.5z"/>
</svg>
