<?xml version="1.0" encoding="utf-8"?>
<!-- Generator: Adobe Illustrator 27.0.0, SVG Export Plug-In . SVG Version: 6.00 Build 0)  -->
<svg version="1.1" id="Oval_-_Config" xmlns="http://www.w3.org/2000/svg" xmlns:xlink="http://www.w3.org/1999/xlink" x="0px"
	 y="0px" viewBox="0 0 1920 1080" style="enable-background:new 0 0 1920 1080;" xml:space="preserve">
<style type="text/css">
	.track-surface{fill:none;stroke:#231F20;stroke-width:10;stroke-miterlimit:10;}
</style>
<path class="track-surface" d="M1688.9,422c-0.6-1.2-1.2-2.8-2.1-4.7c-10.5-24.5-42.4-99-155.6-161.1l-0.2-0.1
	c-57.2-29.3-174.2-37.5-179.2-37.8c-29.2-2-779.2-79.8-793.5-81.3c-3.3-0.4-39-4.8-90,8.1c-31.2,8-61.2,20.4-88.9,36.8
	c-35.3,20.8-68.4,48.4-98.1,81.9l-0.5,0.6c-1.6,2.1-3.8,4.7-6.3,7.8c-22,26.6-73.6,88.9-74.3,213.2c-0.1,2.7-0.6,35.3,12,81
	c17.2,61.9,50.5,118.1,96.4,163.1l0.2,0.2C339.6,758,402,802.7,586,862.9c24.6,8.1,151.4,48.9,238.4,59.4
	c80.4,9.7,174,17.3,175.6,17.4l47.9,4h0.4c0.7,0,7.5,0.3,19.2,0.3c17,0,44.3-0.5,77.8-3c11.1-0.8,22.4-2.1,33.5-3.8l179.8-27.4
	l107.2-16.5h0.2c2.5-0.4,61.5-11.1,126.2-63l2.3-1.9c30.7-25.3,82.2-67.6,118-193.3l0.1-0.3c0.3-1.1,6.9-28.2,7.4-67.9
	C1720.3,530.1,1715.2,475.2,1688.9,422z"/>
</svg>
