<?xml version="1.0" encoding="utf-8"?>
<!-- Generator: Adobe Illustrator 27.0.0, SVG Export Plug-In . SVG Version: 6.00 Build 0)  -->
<svg version="1.1" id="Road_Course_-_Config" xmlns="http://www.w3.org/2000/svg" xmlns:xlink="http://www.w3.org/1999/xlink"
	 x="0px" y="0px" viewBox="0 0 1920 1080" style="enable-background:new 0 0 1920 1080;" xml:space="preserve">
<style type="text/css">
	svg {height: 100%;width: 100%;}.track-surface {fill: none;stroke: white;stroke-width: 30;}
</style>
<path class="track-surface" d="M1728.5,402.5c-0.6-1.3-1.3-3-2.2-4.9c-11.1-25.8-44.8-104.4-164.2-169.9l-0.2-0.1
	c-60.3-30.9-183.7-39.5-189-39.9c-14.4-1-197.9-19.6-530.7-54l-54.1-5.6c-16.1-1.7-32.4-1.2-48.4,1.4c-39,6.3-112.1,25.4-164.9,81.8
	c-16.4,17.6-35.1,37.5-37.1,71.7c-2.4,40.3,7.6,73.2,29.6,97.7c19.7,21.9,45.3,32.6,63.4,37.7c5.5,1.6,11.2,2.8,16.8,3.6
	c9.9,1.5,22.1,3.4,41.3,5.7c13.7,1.7,49,1.3,53,1.3c21.3,1.1,42.3-1.6,63.7-4.8c3.8-0.6,7.2-1.1,10.3-1.7c7.8-1.5,29.7-6,60.1-12.2
	c84.9-17.3,226.8-46.3,298-59.1c31.2-5.7,104.2-18.9,159.6,45.2l0.5,0.7c18.5,22.8,45.5,70.3,18.7,132.8l-1,1.8
	c-7.2,13.9-29,56.1-110.6,54.4h-0.2c-45.4,0-302.1-12.5-304.7-12.6l-270.6-12c-9.3-0.4-18.6-1.3-27.8-2.6
	c-26-3.7-90.9-14.5-130.7-34.7l-0.2-0.1c-36.8-17.8-51.9-47.1-58.3-59.6c-0.5-1-1-1.8-1.3-2.5c-4.5-8.5-52.1-92.1-55.9-98.9
	c-5.5-10.6-13-20-22.2-27.6c-14.3-12-39.3-25-76.8-19.4c-8.7,1.3-17.3,3.1-25.8,5.5c-48.5,13.7-87.4,53.3-101.7,103.4
	c-6.2,21.6-7.8,45.1-5.2,73.9v0.2c5.6,49.4,27.7,144.7,112.6,228l0.2,0.2c32.6,29.9,98.3,76.9,292.4,140.5
	c25.9,8.5,159.6,51.5,251.5,62.6c85,10.3,184.2,18.3,185.1,18.4l50.6,4.3h0.4c0.7,0,7.9,0.3,20.3,0.3c18,0,46.7-0.6,82.1-3.2
	c11.7-0.9,23.6-2.2,35.3-4l189.7-28.9l113-17.4h0.2c2.6-0.4,64.9-11.7,133.1-66.4l2.4-2c32.4-26.7,86.7-71.3,124.4-203.9l0.1-0.3
	c0.3-1.2,7.3-29.7,7.8-71.7C1761.6,516.4,1756.3,458.5,1728.5,402.5z"/>
</svg>
