<?xml version="1.0" encoding="utf-8"?>
<!-- Generator: Adobe Illustrator 27.0.0, SVG Export Plug-In . SVG Version: 6.00 Build 0)  -->
<svg version="1.1" id="Layer_1" xmlns="http://www.w3.org/2000/svg" xmlns:xlink="http://www.w3.org/1999/xlink" x="0px" y="0px"
	 viewBox="0 0 1920 1080" style="enable-background:new 0 0 1920 1080;" xml:space="preserve">
<style type="text/css">
	.st0{fill:none;stroke:#231F20;stroke-width:20;stroke-miterlimit:10;}
</style>
<path class="st0" d="M401.5,553.4c5.3,9.3,69.3,121.7,75.4,133.2c0.5,1,1.1,2.1,1.8,3.4c8.7,16.9,29,56.3,78.6,80.3l0.2,0.1
	c53.5,27.2,140.9,41.8,176,46.8c12.4,1.8,25,2.9,37.5,3.5l364.6,16.3c3.5,0.2,349.3,17,410.5,17h0.3c110,2.2,139.4-54.6,149.1-73.2
	l1.3-2.4c36.2-84.3-0.2-148.2-25.2-178.9l-0.7-0.9c-74.5-86.4-173-68.5-215-60.9c-95.9,17.4-287.2,56.4-401.5,79.7
	c-40.9,8.4-70.5,14.4-81,16.4c-4.1,0.8-8.8,1.6-13.9,2.3c-28.9,4.2-57.2,7.9-85.9,6.4c-5.4,0.1-52.9,0.6-71.4-1.7
	c-25.9-3.1-42.4-5.6-55.7-7.6c-7.6-1.2-15.1-2.8-22.5-4.9c-24.3-6.9-58.9-21.3-85.5-50.8c-29.8-33.1-43.3-77.4-40-131.8
	c2.8-45.9,27.7-72.7,49.8-96.4c2.6-3,33.9-39.7,44.3-55.8c10.7-16.7,6.5-25.2,5.1-28c-11.6-23.1-70-35.6-104.1-38l-0.9-0.1
	c-0.4,0-47-6.2-114,9.9c-61.7,14.9-153.9,52.4-243,146.5c-11.8,12.5-20.7,29.4-25.8,48.8c-4.4,17.1-4.1,39.3,22.8,47.7l7.3,2.3
	l1.8,0.4c15.7,3.8,31.8,5.6,47.9,5.4h1.9C368,488.2,398.1,546.2,401.5,553.4z"/>
</svg>
