<?xml version="1.0" encoding="utf-8"?>
<!-- Generator: Adobe Illustrator 27.0.0, SVG Export Plug-In . SVG Version: 6.00 Build 0)  -->
<svg version="1.1" id="Layer_1" xmlns="http://www.w3.org/2000/svg" xmlns:xlink="http://www.w3.org/1999/xlink" x="0px" y="0px"
	 viewBox="0 0 1920 1080" style="enable-background:new 0 0 1920 1080;" xml:space="preserve">
<style type="text/css">
	.track-surface{fill:none;stroke:#231F20;stroke-width:20;stroke-miterlimit:10;}
</style>
<path class="track-surface" d="M1685.8,373c-2.4-29.4-18.2-56.7-47.4-81.2c-145.2-121.7-315.3-90.9-387.8-77.6c-71.3,12.9-180.7,34.1-325,62.9
	c-4.7,0.9-112.7,22.9-129.4,129.4v0.3c-5.1,35.7,25.1,73.2,45.9,89c6.3,5.7,10.6,14.4,10.1,20.6c-0.1,1.5-0.5,5.6-7.8,10.1
	c-5.6,3.2-11.9,5.1-18.4,5.5l-453.1,32.8c-11.4,0.3-84.2,3.4-119.7,44.4c-15.1,17.4-21.4,39.3-18.4,63.5
	c5.7,48.3,47.8,110.9,148.9,141.9h0.3c44.4,12.9,260.4,38,284.9,40.9l1.6,0.1c2.9,0.1,291,14.1,512.3,23.2
	c6.7,0.3,13.2,0.4,19.6,0.4c123.7,0,173.6-52.2,180.4-60c1.2-1.3,2.9-3,4.8-5c16.8-16.9,51.8-52.2,32.7-108l-0.7-1.7
	c-4.9-10.4-10.7-20.3-17.3-29.6c-15.5-23.1-23.9-37.3-15.9-59.2c2.4-5,12.9-16.3,39.2-27.7c13.6-5.9,24.5-11,34.3-16l141.4-73.1
	c19.2-9.8,36.5-23.2,50.8-39.4C1676.3,431.8,1687.9,402,1685.8,373z"/>
</svg>
