<?xml version="1.0" encoding="utf-8"?>
<!-- Generator: Adobe Illustrator 27.0.1, SVG Export Plug-In . SVG Version: 6.00 Build 0)  -->
<svg version="1.1" id="North_Config" xmlns="http://www.w3.org/2000/svg" xmlns:xlink="http://www.w3.org/1999/xlink" x="0px"
	 y="0px" viewBox="0 0 1920 1080" style="enable-background:new 0 0 1920 1080;" xml:space="preserve">
<style type="text/css">
	.track-surface{fill:none;stroke:#FFFFFF;stroke-width:30;stroke-miterlimit:10;}
</style>
<path class="track-surface" d="M1105.7,655.8l124.7,26c17.3,3.6,44.7,12.3,59.8,19.1c21.4,9.5,35.2,19.6,42.6,43l0.2,0.5
	c19.5,53.8-7.6,74.5-9.9,76h-0.1l-107.4,77.9c-0.9,0.7-1.8,1.3-2.6,2c-6,4.5-13.2,7.1-20.7,7.6c-14.6,0.8-28.8-7.6-42.6-25
	c-1-1.3-2.1-2.8-3.3-4.3c-21.7-28.3-66.8-87.1-80-171.9c-0.4-2.6-0.6-5.3-0.7-7.9c-0.2-6.5-0.3-15.4-0.4-26.4
	c-0.1-9.7,0.9-19.4,3-28.9c22.2-102.1,36.1-165.4,37.1-169.3c0,0.2-0.1,0.3-0.1,0.3c1.4-4.8,13.8-70,18.3-106.7
	c4.9-40.2-10.5-68.6-11.2-69.8l-0.3-0.5c-0.4-0.7-44.2-72.7-62-100.6c-6.1-9.7-14.1-18.1-23.5-24.8c-25.7-18.1-55.7-24.1-86.6-17.3
	c-13.9,3-27.2,8.4-39.2,16l-0.2,0.1L596,394.3c-23.4,17.3-35.5,41.8-35.9,73c0,0.9,0,1.8-0.1,2.8v0.9c-1.8,37.5,17.3,58.8,33.6,70.1
	c10.6,7.3,22.5,12.4,35.1,15.2l374.9,78.2L1105.7,655.8z"/>
</svg>
