<?xml version="1.0" encoding="utf-8"?>
<!-- Generator: Adobe Illustrator 27.0.1, SVG Export Plug-In . SVG Version: 6.00 Build 0)  -->
<svg version="1.1" id="South_Config" xmlns="http://www.w3.org/2000/svg" xmlns:xlink="http://www.w3.org/1999/xlink" x="0px"
	 y="0px" viewBox="0 0 1920 1080" style="enable-background:new 0 0 1920 1080;" xml:space="preserve">
<style type="text/css">
	.st0{fill:none;stroke:#FFFFFF;stroke-width:30;stroke-miterlimit:10;}
</style>
<path class="st0" d="M1564.8,887.5h-18.3l-682.7-1.8L421,884.5h-0.1c-7.2-0.2-70.7-2-87.4-5.6c-8.9-1.5-28.1-8-45.7-20.4
	c-23-16.2-36.6-37.4-39.2-61.2c-2.6-24.6,2-49.2,13.3-71.2c5.4-10.5,12.6-19.9,21.5-27.8l178.8-159.8c3.3-3.5,25.9-27.1,60.7-45.6
	c39.8-21.1,69.8-20.9,104.9-18.3h0.2c13.7,1.2,29.8-1.8,47.8-9c20-8.1,38.1-19.6,53.9-34.4C775,389.3,926.6,249.7,977.3,214
	c25.7-18.1,52.6-24.8,80.1-20.1c22.2,3.8,39.3,14.3,48.4,20c1.5,0.9,2.8,1.8,3.8,2.3l0.5,0.3l0.5,0.3c48.3,35.1,90.8,76.5,111.8,98
	c24,24.6,51.8,55.9,59.1,71.3c31.8,42.6,31.4,115.7,31.2,143.3c0,3.5,0,6.2,0,8.1v0.3c0,75.3,95.2,92.6,96.2,92.8l0.3,0.1
	c1.1,0.2,115,23.5,180.5,36.5l0.5,0.1c2.8,0.7,69.7,18.4,78.7,76.8c9.1,59.1-2.2,78.9-20.4,102.3
	C1629,871.6,1585.9,887.5,1564.8,887.5z"/>
</svg>
