<?xml version="1.0" encoding="utf-8"?>
<!-- Generator: Adobe Illustrator 27.0.1, SVG Export Plug-In . SVG Version: 6.00 Build 0)  -->
<svg version="1.1" id="North_A_Config" xmlns="http://www.w3.org/2000/svg" xmlns:xlink="http://www.w3.org/1999/xlink" x="0px"
	 y="0px" viewBox="0 0 1920 1080" style="enable-background:new 0 0 1920 1080;" xml:space="preserve">
<style type="text/css">
	.st0{fill:none;stroke:#FFFFFF;stroke-width:30;stroke-miterlimit:10;}
</style>
<path class="st0" d="M1118.8,668.3l127.1,26.5c17.6,3.7,45.5,12.6,61,19.5c21.8,9.7,35.9,20,43.4,43.8l0.2,0.5
	c19.8,54.8-7.8,75.9-10.1,77.5h-0.1l-109.5,79.4c-0.9,0.7-1.8,1.3-2.6,2c-6.1,4.6-13.5,7.2-21.1,7.7c-14.8,0.8-29.4-7.8-43.4-25.5
	c-1.1-1.3-2.2-2.8-3.4-4.4c-22.1-28.8-68.1-88.8-81.6-175.3c-0.4-2.7-0.6-5.4-0.7-8.1c-0.2-6.6-0.3-15.6-0.4-27
	c-0.1-9.9,0.9-19.7,3.1-29.4c22.6-104.1,36.8-168.6,37.8-172.6c0,0.2-0.1,0.3-0.1,0.4c1.1-3.5,5.5-27.7,8.2-42.9l0.1-1
	c1.8-17.3,2.1-35.8-7.4-54c-6.1-11.9-11-20.1-14.9-25.3c-18.8-26.8-50.4-88.1-52.6-98.1l-0.2-1.3c0-0.3-5.7-24.5-4-45v-0.4
	c2.5-21.9-9.6-42.8-29.8-51.6c-56.1-24.6-106,8.6-108.1,10l-0.2,0.1L599.2,401.7c-23.9,17.6-36.2,42.6-36.6,74.4
	c0,0.9,0,1.9-0.1,2.8v0.9c-1.8,38.2,17.6,59.9,34.3,71.5c10.6,7.2,22.4,12.4,34.9,15.2c30.7,9.9,54-3.8,61.6-14.9
	c0.6-0.9,1.3-1.9,2-3c4-6.1,9.6-14.5,23.4-28.9c13.8-14.4,25-16.5,34-18.1c5.1-0.4,10.1,0.9,28.1,6.9c21.2,7.1,36.4,0.1,46.5-4.5
	c1.6-0.7,3.1-1.4,4.3-1.9l0.7-0.3c67.2-31.6,86.7-67.3,94.9-82.6c0.5-1,1-1.9,1.5-2.7c7.1-12.5,26.4-70.5,30.2-81.9l0.3-1.2
	c3.5-15.6,11.9-32.9,16.5-34.4h0.4c0.6,0.1,2.9,1.6,6.1,6.5c2.9,4.7,5.4,9.6,7.4,14.7c0.3,0.7,0.6,1.3,0.8,1.9
	c18.9,66.5,14.5,102.8,11.7,126.9l-0.1,0.7c-3.1,27.8-30.3,44-33.7,45.9c-22.7,9.5-81.4,33.9-91.3,37.2c-15.1,5-36.6,20.5-37.2,39.3
	v0.8c0.9,33.7,25.9,46,43.5,46.3l131.1,27.4L1118.8,668.3z"/>
</svg>
