<?xml version="1.0" encoding="UTF-8"?><!-- Generator: Adobe Illustrator 24.0.1, SVG Export Plug-In . SVG Version: 6.00 Build 0)  --><svg xmlns="http://www.w3.org/2000/svg" xmlns:xlink="http://www.w3.org/1999/xlink" contentScriptType="text/ecmascript" zoomAndPan="magnify" contentStyleType="text/css" id="Homestead_Road_A__Config" style="enable-background:new 0 0 1920 1080;" version="1.1" xml:space="preserve" preserveAspectRatio="xMidYMid meet" viewBox="0 0 1920 1080" x="0px" y="0px">

<title>active</title>

<path class="track-surface" d="M 1290.5 952.8 C 1289.7 952.8 1288.9 952.8 1288.1 952.8 C 1155.2999 950.3 1065.2 949.7 978.0 949.1 C 855.8 948.3 740.4 947.5 526.1 941.3 L 526.1 941.3 C 451.19998 939.1 391.8 903.6 355.09998 874.2 C 331.89996 855.60004 309.59998 833.2 320.3 808.3 C 323.19998 801.6 331.4 788.2 334.9 782.8 C 348.0 763.1 338.6 745.7 329.0 732.7 C 325.1 727.5 320.8 721.60004 316.0 715.10004 C 288.0 677.30005 245.8 620.10004 218.4 587.7 C 201.09999 567.2 194.0 545.4 197.5 522.7 C 200.3 504.0 209.5 489.1 216.1 478.1 L 217.5 475.80002 C 246.1 428.6 271.6 382.10004 294.1 341.0 C 316.1 300.8 335.1 266.0 352.5 239.0 C 369.8 212.0 393.5 189.7 422.9 172.8 C 446.19998 159.40001 473.1 149.3 502.8 142.90001 C 551.2 132.40001 590.8 134.90001 595.3 135.3 C 760.4 136.7 1250.3999 138.0 1255.3 138.0 L 1255.9 138.0 C 1345.0 143.3 1411.0 178.8 1416.4 181.8 C 1424.8 185.90001 1555.2001 249.70001 1598.9 274.4 C 1629.5 291.69998 1643.8 318.4 1635.3 342.5 C 1619.9 385.8 1580.5 381.4 1559.3 379.0 C 1557.4 378.8 1555.7001 378.6 1554.0 378.4 C 1453.2 368.9 1333.4 356.69998 1206.6 343.8 C 992.69995 322.0 771.39996 299.5 608.89996 286.5 C 589.19995 284.9 562.69995 290.6 537.89996 301.7 C 511.79996 313.40002 490.99997 329.6 480.79996 346.1 C 475.99997 354.0 471.19995 361.5 466.59995 368.80002 C 448.79996 397.00003 430.49994 426.2 399.99994 484.90002 C 391.49994 501.2 390.69995 515.2 397.59995 526.60004 C 406.99994 542.2 428.99994 550.2 438.79996 550.30005 C 525.7999 551.10004 639.89996 550.10004 760.69995 549.2001 C 911.89996 548.00006 1068.2999 546.7001 1180.1 548.80005 C 1221.2 549.60004 1256.7 557.7001 1288.6 573.60004 C 1316.2 587.30005 1336.4 604.4 1354.2999 619.50006 L 1356.1 621.10004 C 1374.7 636.80005 1397.9 633.80005 1408.9 627.9 C 1427.2001 618.2 1431.4 600.80005 1432.4 593.80005 C 1433.4 586.7001 1434.9 577.2001 1436.5 567.2001 C 1439.3 550.1001 1442.4 530.7001 1443.7 517.1001 C 1448.2 469.8001 1462.3999 454.0001 1482.2 444.7001 C 1511.1 431.3001 1537.1 436.40012 1559.5 459.7001 C 1568.3 468.90012 1585.6 488.5001 1593.7 498.7001 C 1603.0 510.3001 1620.1 537.2001 1627.5 551.1001 C 1640.6 575.5001 1659.2 624.8001 1672.5 661.8001 C 1689.8 710.1001 1659.0 737.20013 1647.4 747.4001 C 1613.6 777.00006 1509.1 852.4001 1504.6 855.6001 C 1504.1 855.9001 1451.2999 894.7001 1432.7999 907.9001 C 1393.2 936.0 1328.9 952.8 1290.5 952.8 z"/>
  <style type="text/css">.track-surface{fill:none;stroke:#FFFFFF;stroke-width:30;stroke-miterlimit:10;}</style>
</svg>
