<?xml version="1.0" encoding="utf-8"?>
<!-- Generator: Adobe Illustrator 27.0.1, SVG Export Plug-In . SVG Version: 6.00 Build 0)  -->
<svg version="1.1" id="North_B_Config" xmlns="http://www.w3.org/2000/svg" xmlns:xlink="http://www.w3.org/1999/xlink" x="0px"
	 y="0px" viewBox="0 0 1920 1080" style="enable-background:new 0 0 1920 1080;" xml:space="preserve">
<style type="text/css">
	.st0{fill:none;stroke:#FFFFFF;stroke-width:30;stroke-miterlimit:10;}
</style>
<path class="st0" d="M1305.6,341.7l-0.3-0.6c-2.6-4.3-63.8-105-83.4-134.9c-3.9-6-8.6-11.3-14.2-15.8l-11.4-9.3l-1-0.8
	c-30-21.4-67.4-29.7-103.6-23.2c-5.4,1-10.7,3-15.3,6c-32.7,20.9-44.2,59.6-48.5,74.2c-0.3,1.1-0.6,2.1-0.9,2.8l-0.4,1.5
	c-6.7,31.7-40.9,78.2-55.5,98.1l-2.3,3.1c-4.8,6.8-8.1,14.6-9.4,22.8c-3.8,22.6,4.1,45.6,20.9,61.2c18.5,17.5,30.7,29.1,34.4,32.7
	c2.6,2.8,4.8,6,6.8,9.3l0.2,0.4c2.2,3.8,2.1,8.6-0.3,12.3c-18.8,30.6-51.8,57.2-98.1,78.9l-0.3,0.2l-3.7,1.9
	c-7.8,4-23.7,12.2-30.4,8.2c-3.3-6.9-0.7-32.1,4.3-39.2l0,0c0.5-0.8,1-1.5,1.5-2.3c9.8-15.9,8.4-36.1-3.3-50.6
	c-8.8-10.8-18.3-21-28.3-30.6c-30.4-29.6-73.6-21.3-75.4-21l-107.1,27.4c-47.3,12.1-80.6,54.3-81.6,103.1v0.8c0,0.9,0,2.4-0.1,3.3
	c-2.9,48.6,21.5,76.2,42.5,90.9c13.7,9.4,29,16.1,45.2,19.6l313.3,65.4l121.4,25.4c0.3,0.1,0.7,0.2,1,0.3c-0.4,0.2-0.8,0.5-1.3,0.8
	c-20,11.1-58.4,30.5-69.7,36.1c-6.7,3.3-12.5,8.4-16.5,14.7c-9.3,14.6-7.3,31,5.1,43.8c15.5,16,49.6,45.8,57.8,51
	c0.3,0.2,1.2,0.9,1.9,1.4c6.3,4.7,18.8,14.1,36.3,14.1c2.2,0,4.4-0.2,6.6-0.4c10.1-1.4,19.6-5.9,27.1-12.8l0.5-0.4
	c56.2-46,73.6-104.3,74.4-106.8l4.6-20.9c28.1-129.4,45.8-210,47.4-216.4l0.2-0.7l23-134.8l0.1-0.8
	C1326.2,379.6,1306.5,343.2,1305.6,341.7z"/>
</svg>
