<?xml version="1.0" encoding="utf-8"?>
<!-- Generator: Adobe Illustrator 27.0.1, SVG Export Plug-In . SVG Version: 6.00 Build 0)  -->
<svg version="1.1" id="Moto_Config" xmlns="http://www.w3.org/2000/svg" xmlns:xlink="http://www.w3.org/1999/xlink" x="0px"
	 y="0px" viewBox="0 0 1920 1080" style="enable-background:new 0 0 1920 1080;" xml:space="preserve">
<style type="text/css">
	.st0{fill:none;stroke:#FFFFFF;stroke-width:30;stroke-miterlimit:10;}
</style>
<path class="st0" d="M1601.7,589.7l94,19.6c9.6,2.2,19,5,28.1,8.6c20.5,8.4,33.4,14.5,39.7,34.6l0.1,0.4c13.9,38.3-5.4,53.1-7,54.2
	l-0.4,0.3c-1.5,1.1-149.9,108.6-159.5,115.6l-0.3,0.2c-36.3,28.6-74,26.1-74.4,26h-0.4l-820.9-2.2l-408-1.1
	c-17.8-0.5-66.1-2.3-77.2-4.8l-0.6-0.1c-9-1.4-58.7-18.2-63.1-59c-2.6-23.6,4.2-43.1,10.4-55.2c3.9-7.7,9.2-14.5,15.7-20.2
	l165.2-147.7l0.4-0.3l0.3-0.3c15-15.4,32.3-28.4,51.3-38.5c29.8-15.9,50.8-17.4,86.7-14.8c15.6,1.4,33.2-1.8,52.5-9.5
	c20.5-8.3,39.2-20.2,55.3-35.3c41.5-38.4,180.5-166.4,226.3-198.7c45.4-32,82.4-9.2,98.2,0.5c1.4,0.8,2.6,1.6,3.7,2.2
	c73.8,53.8,144.5,132.5,151.7,149.3l0.5,1.1l0.7,0.9c26.2,34.1,25.8,97.7,25.6,121.7c0,3.3,0,5.9,0,7.9c0,35.3,18.3,64.5,52.8,84.4
	c15.9,9.1,33.1,15.5,51.1,19.2c8.8,1.8,179.7,36.5,201.1,39.9h0.2c27.9,3.9,54.9-4.2,67.9-8.2c1.7-0.5,3.1-0.9,4.3-1.2l0.2-0.1
	c85-25.6,98.1-83.2,98.9-87.2c11.1-51,27.9-128,28.8-131.7c0,0.1,0,0.2-0.1,0.2c1-3.5,9.8-49.9,13-76.1c3.5-28.7-7.5-48.9-8-49.8
	l-0.2-0.3c-0.3-0.5-29.7-48.9-43.1-69.9c-6.2-9.8-14.7-18-24.7-23.9c-8.3-4.7-17.4-7.9-26.8-9.2c-17.7-2.6-35.5,4.7-46.2,19
	c-3.5,4.7-6.2,9.9-8,15.4c-3.3,9.8-11.6,26.3-24.7,48.8c-7.2,12.5-16.8,23.5-28.3,32.3c-12.6,9.6-32.9,22.4-58.3,28.8h-0.2
	c-5.6,1.5-20.8,5.2-36.8,9c-20.9,5-44.5,10.6-57.9,14.2c-11.2,3-21,9.8-27.7,19.3c-7.4,10.7-11.1,23.2-11.1,38.2
	c-2,27.4,11.6,43.1,23.3,51.4c7.7,5.4,16.4,9.2,25.5,11.1l267.4,55.8L1601.7,589.7z"/>
</svg>
