<?xml version="1.0" encoding="utf-8"?>
<!-- Generator: Adobe Illustrator 27.0.1, SVG Export Plug-In . SVG Version: 6.00 Build 0)  -->
<svg version="1.1" id="Grand_Prix_-_Config" xmlns="http://www.w3.org/2000/svg" xmlns:xlink="http://www.w3.org/1999/xlink"
	 x="0px" y="0px" viewBox="0 0 1920 1080" style="enable-background:new 0 0 1920 1080;" xml:space="preserve">
<style type="text/css">
	.track-surface{fill:none;stroke:#FFFFFF;stroke-width:30;stroke-miterlimit:10;}
</style>
<path class="track-surface" d="M1596.7,505.9c-14.6-8.1-35-19.9-44.9-26.2c-23.7-15-20.4-28-14.4-41c30.6-66.6,24.8-130.7-17.2-190.5
	c-35.8-50.9-93.4-77.7-175.8-81.8c-90.5-4.4-214.3-8.6-345.4-12.9c-124.6-4.1-253.5-8.5-351.4-13.1c-37.6-1.7-62.7,3.5-79,16.4
	c-18.3,14.6-21.9,36.3-23,53.5c-1.6,25.5,2.2,73.1,4.5,101.7c0.3,3.1,0.5,6,0.7,8.6c6.9,87.2,69.5,115.1,107.1,131.8l3.3,1.4
	c38.8,17.4,92.7,39.7,149.7,63.5c72.8,30.3,148.1,61.6,195.7,83.9c53.5,25.2,56.6,57.6,58.8,81.3c4.9,52.6-9.3,88-43.3,108.3
	c-27,16.1-79.9,36.7-118.1,48.8c-25,7.9-34.2,4.3-40-0.1c-11.9-9.2-10.9-23.3-8.8-29.5c1-2.9,2.2-6.6,3.5-10.5
	c2.6-7.9,5.8-17.8,8.2-23.9c22.7-57.4-13.5-76.9-28.9-85.2c-38.2-20.5-70.7,4.2-80.5,19.5c-10.6,16.5-28,42-45.2,66.6l-1.9,2.7
	c-15.9,22.7-29.7,42.2-43.1,50.3c-14.7,8.8-46.8,25.7-63.3,32.9c-16.9,7.4-28.1,4.6-33-0.5c-12.2-12.9-8.8-18.2-4-25.8
	c6.1-9.4,14.9-22,24.4-35.4c15.1-21.5,30.8-43.7,38.6-57.8c22.4-40.3,29.4-71.5,23.3-104.1c-12.2-65.9-66.6-93.8-98.1-104.6
	c-15.1-5.2-35.4-12.3-57-20c-42.2-14.9-90.2-31.8-119.8-41.4c-18.4-6-34-5-46.3,2.8C315.6,486,312,505,311.2,510.6
	c-1.1,8.1-2.8,19.7-4.6,32c-3.2,21.5-6.8,45.9-8.3,61c-3.3,34.7-0.9,43,4.3,57.2l0.4,1.1c10.5,28.5,31,74,45.6,97.8
	c36.1,58.4,55.8,80,76.7,102.8c3.5,3.8,7,7.7,10.7,11.8l0,0c35.2,39.4,93.8,60,133.4,62.5c41.6,2.6,106.8,3.3,168.5,3.3
	c52.4,0,102.2-0.5,133.1-0.9c79.5-0.9,104.2-10.9,137.8-27.3c154.8-75.4,348.8-176.8,576.6-301.3c32.7-17.8,37.7-42.6,37.8-55.8
	C1623.3,534.3,1612.7,514.8,1596.7,505.9z"/>
</svg>
