<?xml version="1.0" encoding="utf-8"?>
<!-- Generator: Adobe Illustrator 27.0.1, SVG Export Plug-In . SVG Version: 6.00 Build 0)  -->
<svg version="1.1" id="Moto_-_Config" xmlns="http://www.w3.org/2000/svg" xmlns:xlink="http://www.w3.org/1999/xlink" x="0px"
	 y="0px" viewBox="0 0 1920 1080" style="enable-background:new 0 0 1920 1080;" xml:space="preserve">
<style type="text/css">
	.st0{fill:none;stroke:#FFFFFF;stroke-width:30;stroke-miterlimit:10;}
</style>
<path class="st0" d="M1587.3,506.4c-14.3-8-34.5-19.6-44.3-25.8c-23.4-14.8-20-27.6-14.2-40.4c30.1-65.7,24.4-128.8-16.9-187.7
	c-35.3-50.2-92-76.6-173.2-80.6c-89.1-4.4-211.1-8.5-340.3-12.7c-122.8-4.1-249.7-8.4-346.1-12.9c-37.1-1.7-61.8,3.4-77.8,16.2
	c-18.1,14.3-21.6,35.7-22.6,52.7c-1.6,25.1,2.2,72,4.5,100.1c0.3,3,0.5,5.9,0.7,8.5c6.8,85.9,68.5,113.4,105.5,129.8l3.2,1.4
	c38.2,17.1,91.3,39.1,147.5,62.5c71.7,29.8,145.9,60.7,192.8,82.7c52.7,24.8,55.8,56.7,58,80.1c4.8,51.8-9.1,86.7-42.7,106.7
	c-26.6,15.9-78.7,36.2-116.3,48.1c-24.6,7.8-33.7,4.3-39.4-0.1c-11.6-9-10.9-22.5-8.6-29.2c1-2.8,2.1-6.3,3.3-10.1
	c2.6-7.9,5.8-17.8,8.2-23.8c22.3-56.4-13.3-75.6-28.5-83.9c-37.6-20.2-69.6,4.2-79.3,19.2c-10.5,16.2-27.6,41.3-44.6,65.6l-1.9,2.8
	c-15.7,22.3-29.2,41.5-42.5,49.4c-14.4,8.6-46.1,25.3-62.3,32.4c-16.6,7.3-27.6,4.6-32.5-0.5c-12.1-12.6-8.6-18-3.9-25.3l0.1-0.1
	c6-9.2,14.7-21.7,23.9-34.8c14.9-21.2,30.3-43,38-56.9c22-39.7,29-70.4,23-102.5c-12.1-64.9-65.7-92.5-96.6-103.1
	c-14.9-5.1-35.1-12.3-56.2-19.8c-41.6-14.6-88.7-31.3-117.9-40.7c-18.1-5.9-33.5-4.9-45.6,2.8c-16.2,10.4-19.9,29.1-20.6,34.6
	c-1,8-2.8,19.4-4.6,31.5c-3.1,21.2-6.7,45.2-8.2,60c-3.3,35.7-1,43.5,4.8,57.7c10.6,26.5,31.5,73.8,44.8,96
	c15.5,25.7,26,36.6,37.3,39c27.8,6,28.1,17.5,28.3,30.8c0,1.7,0.1,3.5,0.2,5.2c1,19,9.8,27.9,15.5,33.8c1.3,1.4,2.6,2.6,3.4,3.7
	c33.3,41.8,92.3,59.5,132.6,62c41,2.6,105.2,3.2,166,3.2c51.6,0,100.7-0.5,131.1-0.9c78.3-0.9,102.6-10.7,135.8-26.9
	c152.5-74.3,343.6-174.2,568-296.8c32.2-17.6,37.2-42,37.2-55C1613.5,534.5,1603.1,515.3,1587.3,506.4z"/>
</svg>
