<?xml version="1.0" encoding="utf-8"?>
<!-- Generator: Adobe Illustrator 27.0.1, SVG Export Plug-In . SVG Version: 6.00 Build 0)  -->
<svg version="1.1" id="Oval_-_Config" xmlns="http://www.w3.org/2000/svg" xmlns:xlink="http://www.w3.org/1999/xlink" x="0px"
	 y="0px" viewBox="0 0 1920 1080" style="enable-background:new 0 0 1920 1080;" xml:space="preserve">
<style type="text/css">
	.st0{fill:none;stroke:#FFFFFF;stroke-width:30;stroke-miterlimit:10;}
</style>
<path class="st0" d="M950.2,954c-11.9,0-41.4-0.8-84.2-7.4c-50.9-7.9-130.9-25.9-223.2-67.1l-0.3-0.1
	c-103.7-51-201.7-99.2-269.1-167.1c-73.2-73.7-103-163.7-93.7-283.3v-0.5c4-30.7,17.1-91.1,60.6-150.4
	c46-62.7,112.6-106.9,197.8-131.2c60.4-17.2,282-20.9,403.4-20.4c15.4,0.1,34.2-0.1,56.1-0.2c130.5-1,348.9-2.7,434.9,37
	c104.8,48.4,210.3,170.1,209.5,332.7c-0.4,77.7-36.4,151.1-107.2,218.3c-59,56-140.6,106.5-242.5,150.3l-2.1,0.9
	c-92.3,41.5-197,88.4-332.5,88.4h-1.9C955.2,954,953.3,954,950.2,954z"/>
</svg>
