<?xml version="1.0" encoding="utf-8"?>
<!-- Generator: Adobe Illustrator 27.0.1, SVG Export Plug-In . SVG Version: 6.00 Build 0)  -->
<svg version="1.1" id="Road_Course_-_Config" xmlns="http://www.w3.org/2000/svg" xmlns:xlink="http://www.w3.org/1999/xlink"
	 x="0px" y="0px" viewBox="0 0 1920 1080" style="enable-background:new 0 0 1920 1080;" xml:space="preserve">
<style type="text/css">
	.track-surface{fill:none;stroke:#FFFFFF;stroke-width:30;stroke-miterlimit:10;}
</style>
<path class="track-surface" d="M950.6,950c-11.8,0-41-0.8-83.4-7.3c-50.4-7.8-129.7-25.7-221.1-66.4l-0.3-0.1
	c-102.7-50.5-199.7-98.2-266.5-165.4c-72.5-73-102-162.1-92.8-280.5v-0.5c3.9-30.4,17-90.2,60-148.9
	c45.5-62.1,111.5-105.8,195.9-130c59.8-17.1,279.2-20.7,399.5-20.2c15.3,0.1,33.9-0.1,55.6-0.2c129.2-1,345.5-2.7,430.7,36.7
	c51,23.6,99.1,63.3,135.4,111.8c42.3,56.7,67,123.3,71.4,192.8c1.4,22-14.7,41.2-36.5,43.8c-22,2.6-40.9-5.2-54.5-22.6
	c-27.8-35.7-68.7-93-72.8-98.8c-54.9-59.3-118.8-87.3-162.7-100.3c-47.4-14.1-81.9-14.2-82.6-14.2H731.2c-0.3,0-34.9-1.6-51.7,14.3
	c-5.8,5.6-8.7,12.6-8.7,21.6c0,5.9,1.8,10.5,5.4,14.1c11.5,11.4,37.7,11.2,46.3,11.2h512c34.3-0.2,67.9,10.1,96.3,29.4
	c21.8,15,39.8,35.2,48,54.1c10.2,23.4,18.2,67.7,22,92.1c0.4,2.7,2.7,5.6,5.3,8.8c0.6,0.7,1.2,1.5,1.8,2.2
	c13.4,17.2,66.7,38.6,102,52.7c7.2,2.9,14,5.6,20,8.1c16.5,6.8,29.7,19.7,38.2,37.1c8.7,18,5.9,39.5-7.2,54.6
	c-30.8,35.8-71.3,70.2-120.4,102.1c-43.9,28.5-94.7,55.3-151.1,79.5l-2.1,0.9c-91.4,41.1-195.1,87.6-329.3,87.6h-1.8
	C955.5,950,953.7,950,950.6,950z"/>
</svg>
