<?xml version="1.0" encoding="utf-8"?>
<!-- Generator: Adobe Illustrator 27.0.1, SVG Export Plug-In . SVG Version: 6.00 Build 0)  -->
<svg version="1.1" id="Road_Course_short_-_Configs"
	 xmlns="http://www.w3.org/2000/svg" xmlns:xlink="http://www.w3.org/1999/xlink" x="0px" y="0px" viewBox="0 0 1920 1080"
	 style="enable-background:new 0 0 1920 1080;" xml:space="preserve">
<style type="text/css">
	.track-surface{fill:none;stroke:#FFFFFF;stroke-width:30;stroke-miterlimit:10;}
</style>
<path class="track-surface" d="M1565.8,789.8c-36.4,0-73.6-29.5-97.2-48.3l-2.8-2.2c-10.6-8.4-17.7-20.5-19.8-33.8
	c-4.8-30.4-17.7-105-33.4-141c-19.6-45.1-92.7-116.7-205.2-116.7H386.4c-7.8,0.2-69.3,0.3-99.2-29.8c-10.8-10.7-16.7-25.5-16.1-40.8
	c0.6-22.8,8.9-41.7,24.7-56.3c35.4-32.6,96.7-30.8,103-30.5h794.8c2.4,0,60.7,0.1,141.4,24c74.4,22.1,182.6,69.6,275.7,170.4
	c31.6,34.3,56,119.1,21.2,245.2l-0.2,0.6c-10,31-26.2,50-48.1,56.7C1577.9,788.9,1571.8,789.8,1565.8,789.8z"/>
</svg>
