<?xml version="1.0" encoding="utf-8"?>
<!-- Generator: Adobe Illustrator 27.0.1, SVG Export Plug-In . SVG Version: 6.00 Build 0)  -->
<svg version="1.1" id="Montreal__Config" xmlns="http://www.w3.org/2000/svg" xmlns:xlink="http://www.w3.org/1999/xlink" x="0px"
	 y="0px" viewBox="0 0 1920 1080" style="enable-background:new 0 0 1920 1080;" xml:space="preserve">
<style type="text/css">
	.st0{fill:none;stroke:#FFFFFF;stroke-width:30;stroke-miterlimit:10;}
</style>
<path class="st0" d="M1239.9,748c-95.9,0-204.7-1-432.8-3.1c-0.5,0-0.9,0-1.4,0c-5.8,0.1-17.8,0.2-24.5-10.8
	c-1.5-2.5-3.1-6.4-5-13.1c-0.1-0.3-0.2-0.5-0.2-0.5c-0.4-0.3-2.6-1.5-10.9-1.5c-29,0-63.6,0.2-100.2,0.4
	c-81.8,0.5-174.7,1-245.5-0.4c-22.8-0.5-50.6-2.1-90.3-16.4c-14.8-5.3-37.6-13.4-56-19.9c-6.9-2.4-13.1-4.6-18-6.4
	c-0.9-0.3-1.7-0.6-2.4-1c-4.7-2-6.2-2.5-10,2.2c-2,2.4-4.9,6.6-7.7,10.6c-3.5,5.1-7.3,10.2-10.2,13.8c-9.9,11.7-21.3,15.8-34,12.1
	c-3.8-1.1-16.9-5.7-23.4-18.6c-3.1-6.2-5.6-16.4-0.3-30.4c9.3-24.7,23-49.7,45.7-83.6c12.3-18.6,25.1-32.8,60.5-59
	c16.9-12.5,48.7-35.6,64.7-46.5c11.2-7.7,28.3-7.9,41.4-0.4c2.1,1.2,4.2,2.4,6.3,3.7c3.4,2.1,7,4.3,9.2,5.2
	c6.1,2.7,7.1,2.4,17.7-3.4c1.5-0.7,2.9-1.5,4.5-2.4c6.8-3.6,14.8-7.7,23.2-12.1c18.7-9.6,39.9-20.5,53.3-28.5
	c5-2.9,11.1-6.5,16.9-13.9c16-20.5,37.3-28.6,48.7-31.8c14.6-4,33.3-7.1,61.7-0.1l4.7,1.2c32.4,8,72.7,17.9,103.9,23.3
	c4.8,0.8,11.8,0.5,15.4-2.9c2.8-2.6,3.9-7.6,3.1-14.6c-1-8.9-3.4-29.6,9.5-45.8c9.1-11.3,23.9-18.1,44-20.3
	c17.7-1.9,34.6-1.8,72.4,0.4c44.8,2.5,78.9,5.3,141.4,20.6c47.2,11.5,112.8,35,167.1,59.9l0.4,0.2l86,43.7
	c15.2,8.1,21.8,22,17.3,36.5c-1.7,5.3-4.9,24.2,24.7,40.5c0.1,0,0.3,0.2,0.6,0.4c14.5,8.4,92.4,52.6,200.4,92.9l3.8,1.5
	c25.1,9.4,48.9,18.4,103.9,21.4c19,1,66.3,3.3,93.2,1.6h0.5c8.3-0.5,25.6-1.6,35.6,7.8c4.5,4.3,6.9,10,6.9,16.6
	c0,7.1-2.3,12.8-6.6,16.9c-5.8,5.4-14.6,7.8-27.1,7.1h-0.2c-10.5-0.8-21.2-2.2-31.5-4.2h-0.2c-9.1-1.8-28.2-4.4-54-0.4
	c-32.5,5.1-77.6,13.8-125.3,22.9c-49.4,9.5-100.5,19.4-141,25.8l-2.2,0.4c-7.6,1.3-12.6,2.1-35,2.2
	C1300.6,747.9,1271,748,1239.9,748z"/>
</svg>
