<?xml version="1.0" encoding="utf-8"?>
<!-- Generator: Adobe Illustrator 27.0.1, SVG Export Plug-In . SVG Version: 6.00 Build 0)  -->
<svg version="1.1" id="GP_-_Config" xmlns="http://www.w3.org/2000/svg" xmlns:xlink="http://www.w3.org/1999/xlink" x="0px"
	 y="0px" viewBox="0 0 1920 1080" style="enable-background:new 0 0 1920 1080;" xml:space="preserve">
<style type="text/css">
	.st0{fill:none;stroke:#FFFFFF;stroke-width:30;stroke-miterlimit:10;}
</style>
<path class="st0" d="M1749.8,873.5c-0.1-8-2.6-234.2-4.2-315.2v-0.2c-0.1-7.5-0.5-22.9-12.2-33.5c-8.5-7.6-20.9-10.9-37-9.7
	c-14.5,0-446.7,1.2-591.3,1c-21.1,0-53.4-0.1-84.5-0.3c-30.3-0.1-61.5-0.3-82.1-0.3c-12.8,0-29.8-4.3-39-16.1
	c-8.2-10.5-9.6-26.1-4.5-46.2c5.3-20.3,16.6-48.7,28.7-78.8c15-37.4,30.5-76,35.6-102.9c3-16,3.5-25.1-1.4-40
	c-3.5-10.9-12.9-32.1-19.7-43.2c-7.8-12.6-16.8-19.5-26.9-20.5c-9.4-0.9-18.5,3.5-27.2,12.8c-8.6,9.4-23.3,26.9-33.9,39.6
	c-3.1,3.6-5.8,7-8.2,9.7c-6.2,7.4-13.4,13.5-38.3,14.5c-9,0.4-23.1,0-36.7-0.3c-13.5-0.3-26.4-0.5-35.3-0.3
	c-11.9,0.4-19.2,0.6-40.7-25.9l-0.9-1.1c-11.4-13.9-30.3-37.2-48.2-50.5c-12.8-9.7-39.6-26.3-54-35.2l-1.3-0.7
	c-9.2-5.7-19.4-11.2-42-14.8c-7-1.2-23.5-3.8-31.2-5.6c-20.5-4.8-45.3-7.5-79.5,22.4c-4.7,4.1-10.4,9-16.5,14.3
	c-29.1,25.1-68.8,59.5-89.8,80.1c-16.4,16-31.7,35.8-24.5,85.6v0.1c0.2,1.2,19.2,121.8,25.1,161.8c1.5,10.2,3.4,22.8-6.1,39
	c-6.9,11.7-12.5,27.5-1.1,56c4.5,11.2,8.6,21.7-17.3,40.5c-4.4,3.1-10.3,7.5-12.7,16.4c-2.2,7.9-1.3,18.4,3,33.6
	c0.9,3.4,1.3,4.5-9.8,21.3c-6.4,9.7-19.1,28.6-25.8,37.7l-0.8,1.1c-4.2,5.5-8.9,11.8-12.3,28.1c-0.6,3.1-1.5,7.5-2.3,12
	c-1,5.8-2.1,11.8-2.9,15.5c-1.8,7.7-4.5,16.5-15.1,23.8c-4.2,2.9-9.9,7.3-16,11.8c-6.5,5-13.4,10.2-17.8,13.2
	c-8,5.4-21.3,16.6-21,31.5c0.2,9.6,5.9,18.1,17.1,25.2c24.2,15.2,73.6,32.9,106.4,44.7c5.7,2.1,10.9,3.9,15.5,5.5
	c15.3,5.6,29.4,8.4,42,8.1l0,0c239.1-4.1,563.2-10.6,749.2-18l1.2-0.1c12-0.5,37-1.5,58.4,5.8c38.6,13.3,114.7,35.4,158.6,45.2
	c2.3,0.5,4.7,0.8,7.5,0.8c10.3,0,23.3-4.1,34.9-15.7l0.1-0.2c7.2-7.5,13.9-15.5,20.1-23.9c7-9.6,12.6-17.2,46-17.2
	c0.5,0,0.9,0,1.5,0c28.6,0.2,81.7-1.5,116.8-2.7l12.5-0.4c39-1.3,109.9-1.8,153.2-1.6c5.6,0,20.6,0.1,30.5-10.3
	C1747.6,894.4,1750.4,885.1,1749.8,873.5z"/>
</svg>
