<?xml version="1.0" encoding="utf-8"?>
<!-- Generator: Adobe Illustrator 27.0.1, SVG Export Plug-In . SVG Version: 6.00 Build 0)  -->
<svg version="1.1" id="Homestead_Road_B__Config" xmlns="http://www.w3.org/2000/svg" xmlns:xlink="http://www.w3.org/1999/xlink"
	 x="0px" y="0px" viewBox="0 0 1920 1080" style="enable-background:new 0 0 1920 1080;" xml:space="preserve">
<style type="text/css">
	.track-surface{fill:none;stroke:#FFFFFF;stroke-width:30;stroke-miterlimit:10;}
</style>
<path class="track-surface" d="M1388.9,948.7c-0.8,0-1.6,0-2.4,0c-124.9-2.4-225.3-2.2-322.3-2c-150.5,0.3-280.4,0.5-448.8-9.6
	c-91.7-5.5-172.5-24.7-240.1-57.1c-59.6-28.5-109.1-67.2-147.3-115c-78.2-98-92.8-213.7-80.4-289.3c10.9-66.1,37.4-124.3,78.9-173
	c36.2-42.5,83.9-78,141.9-105.6c49.4-23.5,105.7-41.1,167.5-52.3c51.2-9.3,105.7-14,157.6-13.5l0,0c164.7,1.4,655.4,2.7,660.4,2.7
	h0.6c89.1,5.3,155.2,40.8,160.5,43.8c8.4,4.1,138.8,67.9,182.5,92.6c30.6,17.3,44.9,44,36.4,68.1c-15.4,43.3-54.8,38.9-76,36.5
	c-1.9-0.2-3.6-0.4-5.3-0.6c-100.8-9.5-220.6-21.7-347.4-34.6C1091.3,318,870,295.5,707.5,282.5c-19.7-1.6-46.2,4.1-71,15.2
	c-26.1,11.7-46.9,27.9-57.1,44.4c-4.8,7.9-9.6,15.4-14.2,22.7c-17.8,28.2-36.1,57.4-66.6,116.1c-8.5,16.3-9.3,30.3-2.4,41.7
	c9.4,15.6,31.4,23.6,41.2,23.7c87,0.8,201.1-0.2,321.9-1.1c151.2-1.2,307.6-2.5,419.4-0.4c41.1,0.8,76.6,8.9,108.5,24.8
	c27.6,13.7,47.8,30.8,65.7,45.9l1.8,1.6c18.6,15.7,41.8,12.7,52.8,6.8c18.3-9.7,22.5-27.1,23.5-34.1c1-7.1,2.5-16.6,4.1-26.6
	c2.8-17.1,5.9-36.5,7.2-50.1c4.5-47.3,18.7-63.1,38.5-72.4c28.9-13.4,54.9-8.3,77.3,15c8.8,9.2,26.1,28.8,34.2,39
	c9.3,11.6,26.4,38.5,33.8,52.4c13.1,24.4,31.7,73.7,45,110.7c17.3,48.3-13.5,75.4-25.1,85.6c-33.8,29.6-138.3,105-142.8,108.2
	c-0.5,0.3-53.3,39.1-71.8,52.3C1491.6,931.9,1427.3,948.7,1388.9,948.7z"/>
</svg>
