<?xml version="1.0" encoding="utf-8"?>
<!-- Generator: Adobe Illustrator 27.0.1, SVG Export Plug-In . SVG Version: 6.00 Build 0)  -->
<svg version="1.1" id="Full_-_Config" xmlns="http://www.w3.org/2000/svg" xmlns:xlink="http://www.w3.org/1999/xlink" x="0px"
	 y="0px" viewBox="0 0 1920 1080" style="enable-background:new 0 0 1920 1080;" xml:space="preserve">
<style type="text/css">
	.st0{fill:none;stroke:#FFFFFF;stroke-width:30;stroke-miterlimit:10;}
</style>
<path class="st0" d="M1776.4,474.4l-0.1-0.6c-0.2-0.7-18.9-71.4-35.9-128.5v-0.2c-18-56.8-103.3-57.8-106.9-57.8l-614.5-2.8
	c-0.5,0-54.6-0.5-86.1-0.5c-61.3-0.7-83.4,6.4-95.8,12.6l-0.1,0.1c-33.8,17.5-135.6,109.1-148.1,120.8c-17.7,16.6-54.7,35-71.3,39.4
	c-28,5.6-54.4,22.1-56.9,23.7c-21.3,12.7-39.7,41.9-59.2,72.8c-5.2,8.3-10.6,16.9-16.2,25.2c-16.9,24.6-40.2,35-69.4,31
	c-17.9-2.4-49.7-23.7-49.2-57.4c0.4-29.6,12.7-38.9,24.5-47.9c1.4-1,2.8-2.1,4.2-3.2c52.1-32.6,48.3-68.1,47-79.9
	c-0.7-6.8-4.2-20.4-19.5-35.3c-14.8-14.5-36.5-26.1-64.5-34.6c-56.6-17.1-101.8,3.4-118.8,11.1c-2,0.9-3.7,1.7-4.7,2.1l-0.8,0.4
	c-53.3,26.4-85,82.8-88.5,95.2c-14.4,49.2,14.9,76.9,16.2,78.1l0.1,0.1c1.5,1.3,144.5,127.8,155.7,138.1c10,9.1,40.5,36.9,92.9,40.8
	c38.2,2.8,72.7-20.9,74.1-21.9l0.2-0.1l135.2-103c16.4-12.5,32.5-25.8,47.9-39.6l29.7-26.6c8.3-7.4,16.4-15.3,24.8-24.1
	c10-10.5,29.8-28.3,49.9-28.3c26.6,0,36,23.1,36.4,24l0.2,0.5l0.3,0.5c0.6,1.1,57.8,109.8,69.6,132.4c0.4,0.7,0.7,1.4,1.1,2.1
	c11.5,20.4,30.8,35.2,53.4,41.2c79.7,21.2,341.8,90.8,367.3,97.8l79.6,21.5l0.6,0.1c7.8,1.4,15.8,2.1,23.7,2.1
	c14.4,0,33.1-2.2,49.7-11.2c28.7-15.6,124.6-81.3,132.8-86.9l5.8-3.1l0.7-0.4c36.8-24.2,92.1-75,115.8-96.7l9.6-8.8l4.9-4.4
	c9.9-8.3,39.6-42.9,48.8-59.1C1782.5,507.5,1777,477.8,1776.4,474.4z"/>
</svg>
