<?xml version="1.0" encoding="utf-8"?>
<!-- Generator: Adobe Illustrator 27.0.1, SVG Export Plug-In . SVG Version: 6.00 Build 0)  -->
<svg version="1.1" id="Chicane_-_Config" xmlns="http://www.w3.org/2000/svg" xmlns:xlink="http://www.w3.org/1999/xlink" x="0px"
	 y="0px" viewBox="0 0 1920 1080" style="enable-background:new 0 0 1920 1080;" xml:space="preserve">
<style type="text/css">
	.st0{fill:none;stroke:#FFFFFF;stroke-width:30;stroke-miterlimit:10;}
</style>
<path class="st0" d="M1752.5,440.2c14-11.5,25.3-40.5,27.5-46.3c1.3-2.5,4.6-9.6,3.9-17.4c-0.5-4.9-1.6-9.8-3.2-14.5
	c-0.8-2.6-1.6-5.2-2.4-8.6l-0.2-0.6c-18.4-58.4-106-59.4-109.7-59.4l-631.1-2.9c-0.6,0-56-0.5-88.4-0.5
	c-62.9-0.7-85.6,6.5-98.4,12.9l-0.1,0.1C815.6,321,711,415.1,698.1,427.1c-18.2,17.1-56.2,35.9-73.2,40.5
	c-28.8,5.7-55.9,22.7-58.5,24.3c-21.9,13-40.8,43-60.8,74.7c-5.4,8.5-10.9,17.3-16.6,25.9c-17.3,25.2-41.3,35.9-71.3,31.9
	c-18.4-2.5-51-24.4-50.5-59c0.4-30.4,13-39.9,25.2-49.2c1.4-1.1,2.9-2.2,4.3-3.3c53.5-33.4,49.6-70,48.3-82c-0.8-7-4.3-20.9-20-36.2
	c-15.2-14.8-37.5-26.8-66.3-35.5c-58.1-17.5-104.5,3.5-122,11.4c-2,1-3.8,1.7-4.8,2.1l-0.8,0.4c-54.7,27.1-87.3,85.1-90.9,97.8
	c-14.8,50.5,15.4,79,16.6,80.2l0.1,0.1c1.5,1.3,148.4,131.3,159.9,141.8c10.3,9.4,41.6,37.9,95.4,42c39.2,2.9,74.6-21.5,76.1-22.5
	l0.2-0.1l138.8-105.8c16.9-12.8,33.4-26.5,49.2-40.7l30.5-27.3c8.5-7.6,16.8-15.7,25.4-24.8c10.3-10.8,30.6-29,51.2-29
	c27.3,0,37,23.7,37.4,24.7l0.2,0.6l0.3,0.5c0.6,1.1,59.3,112.8,71.5,136c0.4,0.7,0.8,1.4,1.2,2.1c11.8,20.9,31.6,36.2,54.9,42.3
	c50.7,13.5,178.5,47.4,271,72.1l85,21.9l0.2,0c15.1,3.6,20,4.5,22.3,4.7l0.8,0.1c1.5,0.1,2.9,0.1,4.4,0.1
	c26.8,0,53.8-13.3,69.5-25.4c3.9-2.6,8.5-7.3,15-13.8c17.1-17.4,45.8-46.5,74.9-47.9c16.4-1,33.3,6.1,46.3,12.3
	c14.6,7.1,30.7,10.5,47,10c17.9-0.6,27.2-5.8,35.5-10.4c1.8-1,3.5-1.9,5.3-2.8l0.6-0.3l0.5-0.4c2.2-1.5,4.5-3,6.9-4.7l0.2-0.1
	l0.1-0.1c37.3-26.2,87.5-72.2,111.6-94.3l9.9-9c20-18.3,21.6-42.2,22.1-50c0-0.5,0.1-0.9,0.1-1.2c0.4-3.7,1.6-22.9-18.9-42.2
	c-14-13.2-19.4-28.4-19.8-37.3C1738.9,464.2,1742.1,448.7,1752.5,440.2z"/>
</svg>
