<?xml version="1.0" encoding="utf-8"?>
<!-- Generator: Adobe Illustrator 27.0.1, SVG Export Plug-In . SVG Version: 6.00 Build 0)  -->
<svg version="1.1" id="Legends_Oval_-_Config" xmlns="http://www.w3.org/2000/svg" xmlns:xlink="http://www.w3.org/1999/xlink"
	 x="0px" y="0px" viewBox="0 0 1920 1080" style="enable-background:new 0 0 1920 1080;" xml:space="preserve">
<style type="text/css">
	.st0{fill:none;stroke:#FFFFFF;stroke-width:30;stroke-miterlimit:10;}
</style>
<path class="st0" d="M1478.1,851.7c69.2-23.7,121.1-81.7,137.2-153.1c6.8-32.2,10.3-65,10.4-97.8c1.8-159.6-23.1-210.7-76.1-258.6
	c-32.5-29.4-202.5-175.6-365.2-176.3C899.5,145,474,243.1,375.3,329.1l-0.5,0.4c-53.5,47.9-80.5,101.7-80.5,159.6
	c0,3.1,0.1,6.1,0.2,9.2c5.6,115,118.1,199,122.9,202.5l0.4,0.3C725.9,920.4,1121.2,976.5,1478.1,851.7L1478.1,851.7z"/>
</svg>
