<?xml version="1.0" encoding="utf-8"?>
<!-- Generator: Adobe Illustrator 27.0.1, SVG Export Plug-In . SVG Version: 6.00 Build 0)  -->
<svg version="1.1" id="First_Chicane_-_Config" xmlns="http://www.w3.org/2000/svg" xmlns:xlink="http://www.w3.org/1999/xlink"
	 x="0px" y="0px" viewBox="0 0 1920 1080" style="enable-background:new 0 0 1920 1080;" xml:space="preserve">
<style type="text/css">
	.st0{fill:none;stroke:#FFFFFF;stroke-width:30;stroke-miterlimit:10;}
</style>
<path class="st0" d="M1425.7,799c-8.1,0-16.1-0.7-24-2.1l-0.8-0.2l-79.8-23.5c-32.6-4.9-375.5-98-390.3-102l-1.2-0.3l-1.1-0.6
	c-0.9-0.5-21.4-12.7-34.6-38c-11.9-22.9-69.8-132.8-70.4-133.9l-0.3-0.5l-0.2-0.5c-0.4-1-9.9-24.3-36.8-24.3
	c-29,0-57.3,36.4-57.6,36.7l-0.5,0.7l-0.7,0.6l-70.1,62.7l-0.3,0.2L495.7,697l-0.2,0.1c-1.5,1-36.3,25-75,22.2
	c-52.9-4-83.8-32.1-94-41.3c-11.4-10.3-156-138.4-157.5-139.7l-0.1-0.1c-1.3-1.2-30.9-29.2-16.4-79c3.5-12.5,35.6-69.6,89.5-96.3
	l0.8-0.4c1-0.4,2.7-1.2,4.8-2.1c17.2-7.8,62.9-28.5,120.1-11.3c28.4,8.6,50.3,20.3,65.3,34.9c15.4,15.1,19,28.8,19.7,35.7
	c1.3,11.9,5.1,47.9-47.6,80.8c-1.4,1.1-2.9,2.2-4.3,3.3c-12,9.1-24.4,18.5-24.8,48.4c-0.5,34.1,31.7,55.6,49.8,58.1
	c29.6,4,53.2-6.5,70.2-31.4c5.6-8.5,11.1-17.2,16.4-25.5c19.7-31.3,38.3-60.8,59.9-73.6c2.5-1.6,29.3-18.3,57.6-23.9
	c16.7-4.5,54.1-23.1,72.1-39.9c12.6-11.9,115.6-104.5,149.8-122.3l0.1-0.1c12.5-6.3,34.9-13.3,96.9-12.7c31.9,0,86.5,0.4,87,0.5
	l621.6,2.9c3.7,0,89.9,1.1,108.1,58.5l0.2,0.6c0.8,3.3,1.6,5.9,2.4,8.5c1.6,4.6,2.6,9.4,3.2,14.3c0.7,7.6-2.5,14.6-3.8,17.1
	c-2.1,5.8-13.3,34.3-27,45.6c-10.2,8.4-13.4,23.6-13,31.8c0.4,8.8,5.7,23.8,19.5,36.8c20.2,19,19.1,38,18.6,41.6
	c0,0.3,0,0.7-0.1,1.2c-0.5,7.7-2.1,31.2-21.8,49.3l-9.7,8.9c-23.9,21.9-79.9,73.3-117.1,97.8l-0.7,0.4l-5.8,3.1
	c-8.2,5.7-105.2,72.1-134.3,87.9C1459.2,796.8,1440.3,799,1425.7,799z"/>
</svg>
