<?xml version="1.0" encoding="utf-8"?>
<!-- Generator: Adobe Illustrator 27.0.1, SVG Export Plug-In . SVG Version: 6.00 Build 0)  -->
<svg version="1.1" id="Second_Chicane_-_Config" xmlns="http://www.w3.org/2000/svg" xmlns:xlink="http://www.w3.org/1999/xlink"
	 x="0px" y="0px" viewBox="0 0 1920 1080" style="enable-background:new 0 0 1920 1080;" xml:space="preserve">
<style type="text/css">
	.track-surface{fill:none;stroke:#FFFFFF;stroke-width:30;stroke-miterlimit:10;}
</style>
<path class="track-surface" d="M1778.3,486.9l-0.1-0.6c-0.2-0.7-19-71.6-36-128.8v-0.2c-18.1-56.9-103.5-58-107.2-58l-616-2.8
	c-0.5,0-54.7-0.5-86.3-0.5c-61.4-0.7-83.6,6.4-96,12.6l-0.1,0.1c-33.8,17.6-135.9,109.4-148.5,121.1c-17.8,16.7-54.9,35.1-71.4,39.5
	c-28.1,5.6-54.6,22.1-57.1,23.7c-21.4,12.7-39.8,42-59.3,72.9c-5.2,8.3-10.7,16.9-16.2,25.3c-16.9,24.6-40.3,35.1-69.6,31.1
	c-18-2.4-49.8-23.8-49.3-57.6c0.4-29.7,12.7-39,24.6-48c1.4-1,2.8-2.1,4.2-3.2c52.2-32.6,48.4-68.3,47.1-80.1
	c-0.7-6.8-4.2-20.4-19.5-35.4c-14.8-14.5-36.6-26.1-64.7-34.6c-56.7-17.1-102,3.4-119,11.2c-2,0.9-3.7,1.7-4.7,2.1l-0.8,0.4
	c-53.4,26.5-85.2,83-88.7,95.4c-14.4,49.3,15,77.1,16.2,78.3l0.1,0.1c1.5,1.3,144.8,128.1,156.1,138.4c10.1,9.1,40.6,37,93.1,40.9
	c38.3,2.8,72.8-21,74.3-22l0.2-0.1L619.1,605c16.4-12.5,32.6-25.9,48-39.7l29.7-26.6c8.3-7.4,16.4-15.3,24.8-24.2
	c10-10.6,29.9-28.3,50-28.3c26.7,0,36.1,23.2,36.5,24.1l0.2,0.5l0.3,0.5c0.6,1.1,57.9,110.1,69.7,132.7c0.4,0.7,0.7,1.4,1.1,2.1
	c11.5,20.4,30.9,35.3,53.5,41.3c49.4,13.1,174.2,46.3,264.5,70.3l83,21.4l0.2,0c14.8,3.5,19.5,4.3,21.7,4.6l0.8,0.1
	c1.4,0.1,2.8,0.1,4.3,0.1c26.1,0,52.5-13,67.8-24.7c3.8-2.5,8.3-7.2,14.6-13.5c16.7-17,44.7-45.3,73.1-46.7c16-0.9,32.5,6,45.1,12
	c14.3,6.9,30,10.3,45.8,9.8c17.5-0.6,26.6-5.7,34.6-10.1c1.8-0.9,3.4-1.9,5.1-2.8l0.6-0.3l7.4-5l0.1-0.1
	c36.4-25.5,85.4-70.5,108.9-92l14.6-13.2c10-8.4,39.7-43,48.9-59.2C1784.4,520,1779,490.2,1778.3,486.9z"/>
</svg>
