<?xml version="1.0" encoding="utf-8"?>
<!-- Generator: Adobe Illustrator 27.0.1, SVG Export Plug-In . SVG Version: 6.00 Build 0)  -->
<svg version="1.1" id="Competition_-_Config" xmlns="http://www.w3.org/2000/svg" xmlns:xlink="http://www.w3.org/1999/xlink"
	 x="0px" y="0px" viewBox="0 0 1920 1080" style="enable-background:new 0 0 1920 1080;" xml:space="preserve">
<style type="text/css">
	.st0{fill:none;stroke:#FFFFFF;stroke-width:30;stroke-miterlimit:10;}
</style>
<path class="st0" d="M906.2,961c-8.6,0-17.3-0.1-26.1-0.3c-186.1-3.9-431.8-56.8-597.7-128.6l-0.7-0.3l-0.7-0.4
	c-2.4-1.5-23.3-15.3-31.7-24.3c-22.8-24.4-63.3-92-65.1-94.9l-0.7-1.2L170,657.6c-6-21.4-5.4-26.6,0.3-43.5
	c6.8-20.2,13.6-36.4,24.1-61c2.6-6.2,5.4-12.8,8.5-20.1c3.4-8.1,11.8-29.6,14.7-37.5c0.2-0.7,0.6-1.8,0.9-3.1
	c2.8-9.2,10.1-33.7,34.6-32.4c10.5,0.5,28.2-0.3,43.8-1.1c11.5-0.6,22.4-1.1,30.3-1.1c12.9,0,18.8-2.8,39.4-13.7
	c8.1-4.3,18-10.4,27.6-16.5c9.9-6.2,20.1-12.6,28.9-17.2c0.9-0.5,1.9-1.1,2.9-1.7c5.9-3.5,13.9-8.3,31.1-7.4
	c5.5,0.3,15,0.5,22.7,0.7l7.3,0.2c8.1,0.2,35.1,3.6,40.4,38.4l0.1,0.7c2.5,16.7,6.3,30.4,26.8,29.5c76.6-3.4,145.8-6.3,206.8-8.9
	c176.8-7.6,304.6-13,428.8-20.6c0.7,0,1.4-0.1,2.2-0.2c9.5-0.7,29.3-2.3,39.5,18.2c0.5,1.1,0.9,2.1,1.4,3.2c1.5,3.4,2.4,5.3,4.2,6.3
	s6.7,2.2,18.7-0.9c68.3-17.3,185.6-51.8,247.8-70.8c5.4-1.7,14.5-9.4,16.6-19c1.6-7.2-1.2-13.9-8.5-20.4
	c-28.9-25.9-71-41.1-112.8-40.9h-0.4c-1.5,0-4.7,0-9.5-0.1c-20.9-0.4-69.9-1.2-118.7,1.6c-12.9,0.7-24.9,8.7-37.5,17.1
	c-16.2,10.8-34.6,23-59.1,23h-7.5c-205-0.2-382.1-0.3-530.7-1.4h-1.6c-5.8,0-16.6,0.1-27.1-3.7c-14.1-5-23.1-15.1-26.2-29.3
	c-1.5-6.8-3.9-57.2,0.8-71.3c2.8-8.5,10.1-30.9,45.2-30.9c95,0,260.5,1.7,374.9,3.4h1.7c13.1,0.3,19.4-1.2,22.4-11
	c3.3-10.9,6.6-33.5,8.7-47l0.6-4.2c0.1-0.6,0.2-1.2,0.3-1.8c0.9-6.2,2.2-15.5,7.5-23.6c6.7-10.2,17.6-15.5,32.4-15.7
	c72.9-0.8,226.9-2.8,228.5-2.8h0.1c43.9-0.1,87.6,3.9,130.7,11.9c55,10.4,104.2,27.6,146.1,51c51.4,28.7,92,66.9,120.8,113.5
	c33.4,54.2,51.2,120.6,52.7,197.3c1,48.4-10.4,98.3-32.8,144.4c-23.6,48.4-58.5,90.2-101,120.8C1518,831.7,1359.4,894.1,1288.9,909
	c-10.6,2.2-21.4,4.6-32.9,7.1C1163.1,936.2,1048.9,961,906.2,961z"/>
</svg>
