<?xml version="1.0" encoding="utf-8"?>
<!-- Generator: Adobe Illustrator 27.0.1, SVG Export Plug-In . SVG Version: 6.00 Build 0)  -->
<svg version="1.1" id="Moto_-_Config" xmlns="http://www.w3.org/2000/svg" xmlns:xlink="http://www.w3.org/1999/xlink" x="0px"
	 y="0px" viewBox="0 0 1920 1080" style="enable-background:new 0 0 1920 1080;" xml:space="preserve">
<style type="text/css">
	.st0{fill:none;stroke:#FFFFFF;stroke-width:30;stroke-miterlimit:10;}
</style>
<path class="st0" d="M906,913c-8.7,0-17.5-0.1-26.4-0.3c-188.5-4-437.4-57.6-605.4-130.3l-0.8-0.3l-0.7-0.5
	c-2.4-1.6-24.1-16-33.2-25.7c-19.3-20.9-62.6-91.1-64.4-94.2l-0.8-1.3L159,599.4c-5.8-16.7-0.2-34.8,0.5-36.8l0.3-0.8
	c4.3-10,7.9-19.4,11.6-29.3c5.9-15.8,12-32.1,22.3-53.5c3.5-7.2,10.9-27.4,14.1-36.1l0.6-1.5c0.2-0.7,0.6-1.9,1-3.1
	c2.8-9.3,10.3-34.1,35.1-32.8c10.7,0.5,28.6-0.3,44.4-1.1c11.7-0.6,22.7-1.1,30.7-1.1c13,0,19-2.9,39.9-13.8
	c8.2-4.3,18.3-10.6,28-16.7c10-6.3,20.4-12.8,29.3-17.4c1-0.5,1.9-1.1,2.9-1.7c5.9-3.5,14-8.4,31.5-7.5c5.5,0.3,15.2,0.5,23,0.7
	l7.4,0.2c8.3,0.2,35.5,3.7,41,38.9l0.1,0.7c2.6,16.9,6.4,30.8,27.1,29.9c77.6-3.4,147.7-6.4,209.5-9
	c179.1-7.7,308.5-13.2,434.3-20.8c0.7,0,1.4-0.1,2.2-0.2c9.6-0.8,29.7-2.3,40,18.4c0.5,1.1,1,2.2,1.5,3.2c1.5,3.4,2.4,5.4,4.2,6.4
	c1.8,1,6.8,2.2,19-0.9c66.6-16.9,186.9-52.1,251.1-71.7c7.1-2.2,15.6-9.7,17.6-18.4c1.6-7.3-1.5-14.5-9.3-21.5
	c-31.3-28.1-69.9-42-114.6-41.4c-1.5,0-4.7,0-9.6-0.1c-21.1-0.4-70.8-1.2-120.2,1.6c-13.1,0.7-25.2,8.8-38,17.3
	c-16.4,10.9-35,23.3-59.9,23.3c-12.4,0-50.9-1-79.1-1.8c-9.7-0.3-17.9-0.5-22.8-0.6c-14.1-0.3-24.7-7.1-29.7-19
	c-3.7-8.9-3.6-18.6-3.6-24.4v-0.7c0-5.3,0-12.7-0.1-20.5c-0.1-12.1-0.2-25.9,0.1-34.4c0.4-12.4,3.6-21.3,9.9-27.2
	c8.3-7.8,19.3-7.3,25.8-7c1.1,0,2.1,0.1,2.9,0.1c19,0,39-0.1,58.4-0.1c85.1-0.2,173.1-0.5,223.4,3.8
	c217.5,18.5,258.1,125.9,275.5,171.6c5.5,14.7,10.2,18.5,12.5,19.5c2.3,1,5,0.2,9.3-1.2l0.4-0.1c3.3-1.1,7.1-2.4,11.2-3.8
	c8.2-2.9,17.5-6.1,24.8-8c17.6-4.4,32.4-2.3,43.8,6.4c14.3,10.8,22.3,31.5,23.2,59.9c5.1,168.9-64.6,230.3-120.6,279.6l-7.8,6.9
	c-41.2,36.6-73,38-96.2,39h-0.2c-77.1,3.3-98.5,28.2-113.8,53.4c-19.4,32-40.3,41.6-51,44.4c-47.2,12.7-79.2,21.5-79.5,21.5
	l-0.6,0.1c-10.7,2.3-21.7,4.7-33.3,7.2C1166.2,887.8,1050.5,913,906,913z"/>
</svg>
