<?xml version="1.0" encoding="utf-8"?>
<!-- Generator: Adobe Illustrator 27.0.1, SVG Export Plug-In . SVG Version: 6.00 Build 0)  -->
<svg version="1.1" id="Interior_-_Config" xmlns="http://www.w3.org/2000/svg" xmlns:xlink="http://www.w3.org/1999/xlink" x="0px"
	 y="0px" viewBox="0 0 1920 1080" style="enable-background:new 0 0 1920 1080;" xml:space="preserve">
<style type="text/css">
	.st0{fill:none;stroke:#FFFFFF;stroke-width:30;stroke-miterlimit:10;}
</style>
<path class="st0" d="M252.1,682.8c-9.6,0-17.5-2.3-23.4-6.9c-10.7-8.3-12.1-21.4-12.6-26.3c-7.4-71.4,27.1-137.8,28.5-140.6
	c12.1-23,31.7-35.1,56.6-35.1c0.4,0,0.8,0,1.2,0c11.9,0.2,27.1,0.4,44,0.6c45.3,0.6,101.7,1.4,136.5,2.4c22.7,0.6,24.7-2.3,27.2-9.1
	c0.8-2.2,0.9-8.6,1-12.8c0.1-3.4,0.1-6.6,0.4-9.4c4.5-39.1,27.1-47.4,45.2-47.4c12.6,0,30.4-0.2,47.6-0.5
	c17.9-0.3,36.5-0.5,50.2-0.5c25.7,0,32.7,19.8,35.3,27.2c0.2,0.5,0.3,0.9,0.5,1.3c1.7,4.7,3.8,10,5.8,15.1
	c2.9,7.3,5.6,14.3,7.3,19.6c4.9,15.6,14.5,17.6,22.4,17.6c43.5,0.1,89.6,0.1,137.6,0.2c197.9,0.2,422.2,0.4,644.4,1.6
	c9.6,0.1,12.2-2.2,12.7-2.9c1.1-1.3,1.3-4.2,1.5-7c0.1-1.5,0.2-3,0.5-4.6c2.2-13.4,11.9-35,51.6-29c37.5,5.6,103.9,26.1,122.6,56.8
	c10.4,17.1,9.1,30.5,6.1,38.8c-5.1,14.3-18.3,23.5-29.1,27.4c-35.3,12.6-78.9,24.6-129.4,38.3c-32.3,8.8-69,18.8-107.3,30.1l0,0
	c-2,0.6-4.5,1.3-7.2,2c-5.7,1.6-12.9,3.5-16.5,4.9c-13.1,5.2-23.4,5.9-31.5,2.2c-10-4.5-13.5-13.9-15.7-20.1
	c-0.5-1.5-1.1-2.9-1.5-3.8c-2.1-4.3-13.1-6.3-22.5-5.7c-6.6,0.4-19.9,0.6-21.5,0.6c-99.4,4.4-179,8.1-249.2,11.3
	c-188.3,8.6-282.8,12.8-407.3,17.2c-18.1,0.6-31-4.8-38.3-16.2c-5.9-9.2-6.5-19.8-6.9-27.5c0-0.8-0.1-1.6-0.1-2.3
	c-0.9-15.4-9.5-20.8-22.1-24.3c-7.4-2-23.8-2.6-32.5-1.8c-17.6,1.7-27.5,7.8-34.1,11.8c-0.6,0.3-1.1,0.7-1.6,1
	c-5.8,3.5-12.3,7.3-19.1,11.2c-12.4,7.3-25.3,14.8-37,22.2c-21.1,13.5-34.8,15.3-46.4,15.2c-9.3-0.1-22.2-0.3-34.7-0.5
	c-15.5-0.3-31.5-0.5-41.1-0.5c-11.7,0-12.4,3.6-13.8,10l-0.1,0.7c-1.2,5.8-5.6,20.1-6.1,21.8l-0.2,0.6
	c-5.6,14.9-24.1,17.4-30.2,18.2h-0.3c-9.9,1.4-17.4,2.6-24.6,3.8c-4.1,0.7-8,1.3-12.1,1.9C259.1,682.5,255.5,682.8,252.1,682.8z"/>
</svg>
