<?xml version="1.0" encoding="utf-8"?>
<!-- Generator: Adobe Illustrator 27.0.1, SVG Export Plug-In . SVG Version: 6.00 Build 0)  -->
<svg version="1.1" id="cota_grand_prix_-_Config" xmlns="http://www.w3.org/2000/svg" xmlns:xlink="http://www.w3.org/1999/xlink"
	 x="0px" y="0px" viewBox="0 0 1920 1080" style="enable-background:new 0 0 1920 1080;" xml:space="preserve">
<style type="text/css">
	.track-surface{fill:none;stroke:#FFFFFF;stroke-width:30;stroke-miterlimit:10;}
</style>
<path class="track-surface" d="M1705.6,850c-3.5,0-6.9-0.4-9.6-0.6c-1-0.1-1.9-0.2-2.3-0.2h-0.2c-57.5-4.2-108-8.4-195.6-18
	c-26.4-2.9-34.6-10.6-39.6-37.8c-5.1-27.7-13.1-89.5-16.9-122l-0.2-1.8c-2.9-24.5-4-31.9-9.1-38.6c-20.1-26.3-27.9-32.5-42.1-43.7
	c-13.4-10.6-27.9-11.7-35.7-12.3c-8.5-0.7-21-1.3-30.3-1.9l-4.3-0.3c-17.4-1-25.3,0.7-32.7,6.9c-3.5,3-11.1,9.5-17.7,15.3
	c-4.4,3.8-8.5,7.4-10.9,9.4c-11.2,9.6-13.4,14.8-13,30.9c1,33.6,4,90.5,5.8,124.5l0.5,9.8c0.6,12.3-2.4,21.2-9.1,26.4
	c-8.6,6.7-19.1,3.9-20.2,3.5l-1-0.3l-0.9-0.5c-0.7-0.4-17.5-10.1-24.5-15.3c-7.8-5.8-11.6-10.5-15.1-18.3
	c-3.4-7.7-7.5-25.8-8.9-32.9c-3.8-19.6-3.5-34.6,0.9-47.2c4.6-13.3-13-28.1-15.1-29.7c-6.4-5.1-16.8-12.1-24.3-15.5
	c-2.6-1.2-7.3-2.8-9.6-1.2c-4.3,3.2-5.9,16.7-4.5,27.2c1.6,13.6,2.9,25.1,4.2,35.9c3.3,28.6,5.9,51.1,10.7,89.6
	c1.7,13.3-0.5,22-6.6,26.7c-4.3,3.3-10,3.8-15.6,1.5c-31.1-12.9-79.6-31.7-126.4-49.9c-40.3-15.6-78.4-30.4-104.8-41.1
	C771,684.3,656,652.1,579.8,630.8l-1.7-0.4c-87.4-24.5-212.6-53.1-352.7-80.5c-17.2-3.4-31.8-7.4-35.3-22.2
	c-3.1-13.1,6.7-24.9,27.2-32.5c62.9-23.2,180.8-74.4,245.6-102.8c27.6-12.2,44.2-7.4,56.3-4c6.8,2,14.4,4.1,22.4,6.3
	c29.4,8.3,65.9,18.5,86.8,25.1c25.8,8.3,30.9,21,32.4,33.6c4,32.4,12.5,38.7,20.1,42.1c18.5,8.2,34.4,1.1,47.3-4.7l2.2-1
	c11.2-5,35-13.3,45.4-16.1c41.1-11.2,56.2,13.8,64.2,27.2l0.1,0.2c35.8,59.3,62.2,68.2,85.4,69c37.9,1.3,64.3-18.2,76.4-36.9
	c26.9-41.6,48.6-41.5,68.5-37.9c39.1,7.2,55.5-4.8,67.5-18.8c25.6-30.1,48.2-30.9,64.8-31.5h1c30.1-1.2,90.9-4.2,121.2-6.3
	c59.4-4.2,72.8-34.3,81.5-64.9c4.4-15.6,8.2-41.1,11.8-65.7c3.2-21.7,6.1-42.1,9.6-55.9c3.5-13.8,9.8-21.4,18.6-22.4
	c15.5-1.8,26.1,18.4,26.3,18.6c5.7,10.9,16.4,32.3,21.6,43.5c45.4,99.7,121.8,272.9,183.1,412.1c18.2,41.3,35.4,80.3,49.3,111.8l0,0
	c4.7,10.6,4.7,19.1,0.2,25.4C1721.9,848.5,1713.2,850,1705.6,850z"/>
</svg>
