<?xml version="1.0" encoding="utf-8"?>
<!-- Generator: Adobe Illustrator 27.0.1, SVG Export Plug-In . SVG Version: 6.00 Build 0)  -->
<svg version="1.1" id="Irwindale_Outer_Oval__Config"
	 xmlns="http://www.w3.org/2000/svg" xmlns:xlink="http://www.w3.org/1999/xlink" x="0px" y="0px" viewBox="0 0 1920 1080"
	 style="enable-background:new 0 0 1920 1080;" xml:space="preserve">
<style type="text/css">
	.track-surface{fill:none;stroke:#FFFFFF;stroke-width:30;stroke-miterlimit:10;}
</style>
<path class="track-surface" d="M1523.4,252c-44.3-28.8-97.1-52.7-152.7-69.2c-48.3-14.3-98.6-22.7-141.4-23.8c-138.7-3.6-417.2-3.6-555.2,1.7
	c-76.7,3-147.7,18.9-211.2,47.4c-59.7,26.8-110.2,63.4-150,108.6c-62.5,71.1-92.5,157.9-84.7,244.3c5.6,61.8,26.9,118,63.4,166.7
	c31.5,42.1,74.1,78.8,126.7,109.1c44.5,25.6,94.9,45.9,149.8,60.5c58.3,15.6,105.7,20.4,135.4,21.7c67.6,3.1,160.8,4.4,254.9,4.4
	c110.5,0,222.1-1.9,294.1-4.9c130.3-5.7,240.9-44.5,319.7-112.3c37.8-32.5,67.4-70.9,87.9-114.1c20.5-43.2,31.6-90.3,32.7-139.8
	C1696.8,397.6,1602.8,303.6,1523.4,252z"/>
</svg>
