<?xml version="1.0" encoding="utf-8"?>
<!-- Generator: Adobe Illustrator 27.0.1, SVG Export Plug-In . SVG Version: 6.00 Build 0)  -->
<svg version="1.1" id="cota_east_-_Config" xmlns="http://www.w3.org/2000/svg" xmlns:xlink="http://www.w3.org/1999/xlink" x="0px"
	 y="0px" viewBox="0 0 1920 1080" style="enable-background:new 0 0 1920 1080;" xml:space="preserve">
<style type="text/css">
	.track-surface{fill:none;stroke:#FFFFFF;stroke-width:30;stroke-miterlimit:10;}
</style>
<path class="track-surface" d="M1505.7,827.5c-5.8,0-12.3-1.1-19.8-3.7c-105.7-37.8-321.6-104.8-436.8-138.6l0,0
	C904.5,642.7,695.9,594.7,429,542.4c-30.4-5.9-55.9-12.9-62-38.9c-5.5-23,11.8-43.8,47.6-57c111.2-41.1,317.8-130.5,431-180.3
	c48.1-21.2,77.4-12.9,98.6-7h0.2c11.8,3.3,24.9,7,38.8,10.9c51.9,14.6,116.3,32.7,153.1,44.4c45.3,14.5,54.2,36.9,56.8,59
	c7,56.8,22,67.9,35.3,74c32.4,14.3,60.4,1.9,82.8-8.3c1.4-0.6,2.6-1.2,3.9-1.7c19.8-8.7,61.7-23.4,79.7-28.2
	c77.9-21.3,100.7,30.5,109.3,50c20.6,46.7,32.9,98.6,41,173.8c0.8,6.5,1.6,13.5,2.6,21c5.1,39.6,12.1,93.7-2.8,146.4
	c-2.6,9.2-9.7,17.4-19,22.3C1521.2,825.2,1514.5,827.5,1505.7,827.5z"/>
</svg>
