<?xml version="1.0" encoding="utf-8"?>
<!-- Generator: Adobe Illustrator 27.0.0, SVG Export Plug-In . SVG Version: 6.00 Build 0)  -->
<svg version="1.1" id="Layer_1" xmlns="http://www.w3.org/2000/svg" xmlns:xlink="http://www.w3.org/1999/xlink" x="0px" y="0px"
	 viewBox="0 0 1920 1080" style="enable-background:new 0 0 1920 1080;" xml:space="preserve">
<style type="text/css">
	.st0{fill:none;stroke:#231F20;stroke-width:20;stroke-miterlimit:10;}
</style>
<path class="st0" d="M1435.2,914c-4.6,0-8.9-0.4-12.3-0.9c-1-0.1-1.9-0.2-2.6-0.2c-69.4-5-130.2-10.2-236-21.7
	c-31.9-3.5-41.8-12.8-47.8-45.6c-6-32.8-15.7-107.7-20.5-147.2l-0.2-2.1c-3.5-29.6-4.8-38.4-10.9-46.6
	c-24.2-31.6-33.6-39.1-50.8-52.7c-16.1-12.7-33-14-43-14.9c-10.2-0.9-25.4-1.6-36.4-2.2l-5.1-0.3c-21-1.2-30.6,0.9-39.5,8.4
	c-4.3,3.6-13.3,11.5-21.3,18.3c-5.4,4.6-10.3,9-13.2,11.5c-13.5,11.6-16.2,17.8-15.6,37.3c1.2,40.6,4.8,109.2,7,150.2l0.6,11.9
	c0.7,14.9-2.9,25.6-10.9,31.9c-10.4,8.1-23,4.7-24.4,4.3l-1.2-0.3l-1.1-0.6c-0.9-0.5-21.1-12.2-29.6-18.4c-9.4-7-14-12.5-18.2-22.1
	c-4.1-9.2-9-31.2-10.7-39.7c-4.6-23.7-4.3-41.8,1.1-57c5.6-16.1-15.7-33.9-18.2-36c-7.5-6-19.9-14.5-29.3-18.6
	c-3.1-1.4-8.8-3.4-11.6-1.4c-5.1,3.9-7.1,20.1-5.5,32.9c1.9,16.4,3.5,30.4,5.1,43.6c4,34.4,7.2,61.6,13,108
	c2,16.1-0.6,26.6-7.9,32.2c-5.1,4-12,4.6-18.6,1.9c-5.8-2.2-180-68.2-245.3-97.2c-20.8-9.2-16.5-29-10.5-45.3
	c1-2.6,3.2-10.7,4.5-15.2l0.2-0.7c0.7-2,1.1-5.1,0.7-6.5c-6.6-1.6-17.1-7.8-13.7-30.9c2.6-17.7,9.1-51.2,12.4-68.1
	c0.2-1.3,0.5-3,0.7-4.8c1.4-9.4,3.2-22.3,12.1-28.7c4.2-3,9.3-4.2,14.7-3.2c53,9.1,84.8-35.7,90.7-44.8
	c32.4-50.2,58.6-50.1,82.7-45.7c47.2,8.7,67-5.8,81.5-22.7c30.8-36.3,58.1-37.3,78.2-38h1.2c36.3-1.4,109.6-5,146.3-7.6
	c71.5-5,87.8-41.4,98.3-78.3c5.4-18.8,9.9-49.7,14.2-79.4c3.9-26,7.4-50.6,11.6-67.2c4.2-16.7,11.8-25.8,22.5-27.1
	c18.6-2.1,31.6,22.2,31.7,22.4c6.9,13.2,19.8,39,26,52.5c54.8,120.1,146.7,328.7,220.6,496.3c22.2,50.2,43,97.6,60,135.9
	c5.7,12.8,5.7,23.1,0.1,30.7C1454.5,912.2,1444.3,914,1435.2,914z"/>
</svg>
