<?xml version="1.0" encoding="utf-8"?>
<!-- Generator: Adobe Illustrator 27.0.0, SVG Export Plug-In . SVG Version: 6.00 Build 0)  -->
<svg version="1.1" id="Layer_1" xmlns="http://www.w3.org/2000/svg" xmlns:xlink="http://www.w3.org/1999/xlink" x="0px" y="0px"
	 viewBox="0 0 1920 1080" style="enable-background:new 0 0 1920 1080;" xml:space="preserve">
<style type="text/css">
	.st0{fill:none;stroke:#231F20;stroke-width:20;stroke-miterlimit:10;}
</style>
<path class="st0" d="M947,334.2c-7.7,1.4-137.4-1.2-213.5-2.1c-156.7-1.8-318.7-3.7-425.6-1.2c-51.4,1.2-82.4,22.1-99.4,39.4
	c-13.5,13.8-19.7,23.2-26.4,33.9c-5.1,8.1-12.7,20.5-17.2,35.4c-2.3,7.9-9.4,32.1,2.2,48.5c24.2,34,51.7,74,78.3,112.8
	c37.8,55,76.9,111.9,105.6,150.1c10.8,14.4,25.9,24,43.8,27.6c15.3,3.1,29.5,1.1,37.6-1.8c29.2-10.2,56.4-26.2,81.2-47.5
	c36.8-31.7,73.9-39.1,102.1-42.1c26.2-2.8,83.2-3.1,107.5-2.1c26.8,1.1,50.7,4.2,66.3,6.5c9.9,1.4,30.1,5.4,40,8
	c15.7,4.1,21.2,8.6,26.5,12.9c40.7,33.5,113.3,95.9,151.9,129.4c15.8,13.7,31.2,20.9,47.2,22c1.4,0.1,2.8,0.1,4.1,0.1
	c11.5,0,21.6-3.2,30.8-6.8c33.9-13.2,68-28.2,101.3-44.6c13.6-6.6,26.4-14.2,37.6-20.9c15.1-8.9,28.2-16.6,39.3-20.2
	c22.7-7.3,47.1-9.5,70.8-6.2c7.1,1,14.9,2.7,23.9,4.6c14.2,3,31.9,6.8,53.5,9.1c40.1,4.2,63.1,1.8,80.2-1.2
	c7.8-1.3,34.2-6,47.1-10.1c25.5-8.1,41.1-16.2,53.5-22.8l1.5-0.8c12.9-6.7,32.4-18.6,42.5-26.7c13.9-11.1,30.6-29.5,40.3-42
	c53.8-68.9,62.9-88,73.7-121.5c6.2-19.4,4.7-36.5-4.5-50.8c-17-26.4-56-34.5-77.8-36.9c-137.6-15.8-254.2-26.5-377.7-37.8
	c-36.4-3.3-74-6.8-111.9-10.4c-0.8-0.4-1.8-0.6-2.7-0.6c-79.3-6.6-102.5-14.5-103.6-35.4c-1.3-23.7,18.5-27.9,27-28.6l68.3-5.4
	c27.3-2,54.6-6.4,81.3-12.7c20.5-4.9,47-11,75-17.3c45.8-10.4,97.6-22.1,140-33c14.2-3.7,24-10.1,28.9-19.4c4-7.4,4.5-16.2,1.6-24.8
	c-8.5-25-30.9-26.4-41.9-23.5c-71.9,13.2-99.4,19-119.4,23.3c-12.1,2.6-21.6,4.5-36.6,7.3c-43.3,7.8-57.4,9.3-75.2,11.2
	c-1.8,0.2-3.7,0.4-5.5,0.6c-50.7,5.4-135.5,14.3-220.9,18.2c-21.4,1-34.6,5.4-41.5,13.9c-4.7,5.7-6.4,13.1-4.9,21.9
	C953.4,313.3,954.7,332.9,947,334.2z"/>
</svg>
