<?xml version="1.0" encoding="utf-8"?>
<!-- Generator: Adobe Illustrator 27.0.0, SVG Export Plug-In . SVG Version: 6.00 Build 0)  -->
<svg version="1.1" id="Layer_1" xmlns="http://www.w3.org/2000/svg" xmlns:xlink="http://www.w3.org/1999/xlink" x="0px" y="0px"
	 viewBox="0 0 1920 1080" style="enable-background:new 0 0 1920 1080;" xml:space="preserve">
<style type="text/css">
	svg {height: 100%;width: 100%;}.track-surface {fill: none;stroke: white;stroke-width: 30;}
</style>
<path class="track-surface" d="M1753.7,445.8c-17-26.5-56.2-34.5-78-37c-73.7-8.4-165.7-17.2-263.1-26.5c-141.4-13.4-287.7-27.3-383.4-41
	c-54.4-7.8-56.6-27.2-58.5-42.9c-1.1-9.3-6.2-16.3-14.4-19.5c-5.9-2.4-12.2-2.3-16-2.3h-0.6c-66.1-0.4-137.9-1.2-214-2.1
	c-153.8-1.9-312.9-3.7-419.9-1.2c-51.6,1.2-82.7,22.2-99.7,39.5c-13.5,13.9-19.7,23.2-26.5,34c-5.1,8.1-12.8,20.5-17.2,35.5
	c-2.3,8-9.4,32.2,2.2,48.7c24.3,34.2,52,74.5,78.9,113.6c37.9,55.1,76.9,112,105.6,150.2c10.8,14.4,26.1,24.1,44,27.7
	c15.4,3.1,29.6,1.1,37.8-1.8c29.2-10.3,56.6-26.3,81.5-47.7c36.9-31.8,74.1-39.2,102.5-42.2c26.3-2.8,83.5-3.1,107.8-2.1
	c26.9,1.1,50.9,4.3,66.6,6.5c9.9,1.4,30.2,5.5,40.2,8.1c15.7,4.1,21.3,8.6,26.6,13c39.9,33,113.1,95.7,152.4,129.8
	c15.8,13.8,31.3,21,47.4,22c1.4,0.1,2.8,0.1,4.1,0.1c11.6,0,21.7-3.2,30.9-6.8c34-13.2,68.2-28.3,101.6-44.7
	c13.6-6.7,26.5-14.3,37.8-20.9c15.2-8.9,28.3-16.7,39.4-20.3c22.8-7.3,47.3-9.5,71-6.2c7.1,1,14.9,2.7,24,4.6
	c14.3,3.1,32,6.8,53.7,9.2c40.3,4.2,63.3,1.8,80.4-1.2c7.8-1.3,34.3-6,47.3-10.2c25.5-8.1,41.1-16.3,53.7-22.9l1.6-0.8
	c13-6.8,32.5-18.7,42.7-26.8c14-11.1,30.7-29.6,40.4-42.1c54-69.1,63.1-88.3,74-121.9C1764.4,477.3,1762.9,460.1,1753.7,445.8z"/>
</svg>
