<?xml version="1.0" encoding="utf-8"?>
<!-- Generator: Adobe Illustrator 27.0.0, SVG Export Plug-In . SVG Version: 6.00 Build 0)  -->
<svg version="1.1" id="Layer_1" xmlns="http://www.w3.org/2000/svg" xmlns:xlink="http://www.w3.org/1999/xlink" x="0px" y="0px"
	 viewBox="0 0 1920 1080" style="enable-background:new 0 0 1920 1080;" xml:space="preserve">
<style type="text/css">
	.track-surface{fill:none;stroke:#231F20;stroke-width:20;stroke-miterlimit:10;}
</style>
<path class="track-surface" d="M1690.2,761.6c-22.5,59.1-54.4,100.2-66.3,110.9c-58.4,52.3-139.2,76.2-240.2,70.8h-1
	c-54.5,0-742.3-7.4-749.3-7.5h-0.6c-1.2,0-125.7,2.2-230.8-41.2c-19-7.8-36.9-18-53.2-30.4c-44.9-34.2-122.6-114.2-138-265.1
	c-0.1-2-2-30.3,5.9-72.8c7.5-40.2,25.4-101.8,68.7-166.8c25.2-35.9,99.1-102.4,217.1-125c15.5-2.9,26.7-4.4,26.8-4.5h0.2L913,166.2
	l146.1-27c5.1-0.8,118.3-17.1,210.3,31l0.2,0.1c84.6,42.6,278.1,199.4,280,201l0.4,0.3c1.2,0.9,118,91.8,150,193.8l0.1,0.4
	c13,56.4,10.9,73.6,3.6,138.2L1690.2,761.6z"/>
</svg>
