<?xml version="1.0" encoding="utf-8"?>
<!-- Generator: Adobe Illustrator 27.0.0, SVG Export Plug-In . SVG Version: 6.00 Build 0)  -->
<svg version="1.1" id="Layer_1" xmlns="http://www.w3.org/2000/svg" xmlns:xlink="http://www.w3.org/1999/xlink" x="0px" y="0px"
	 viewBox="0 0 1920 1080" style="enable-background:new 0 0 1920 1080;" xml:space="preserve">
<style type="text/css">
	.track-surface{fill:none;stroke:#231F20;stroke-width:20;stroke-miterlimit:10;}
</style>
<path class="track-surface" d="M1523.5,824c-242.2,0-362.4-0.7-468.3-1.4c-138.3-0.8-257.6-1.6-597.4-0.6l0,0c-43.3,0.1-83.6-8.6-119.9-25.7
	c-32-15.2-60.8-37-85.5-64.9c-61.4-69.1-87.5-165-80.8-220.3c6.1-51.1,21-95.9,44.1-133.2c20.3-32.7,46.9-59.6,79.1-79.9
	c50.9-32.2,116.4-47.3,175.3-40.5c252.9,29.2,461.1,52,628.3,70.5c283.9,31.2,440.3,48.5,478.9,59.2c33.3,9.3,62.5,23.1,87,41.4
	c21.5,16,39.4,35.3,53.3,57.4c30.9,49.5,32.4,97.3,31.6,115.5c-4.1,92.8-49.1,145.9-86.2,174C1623.4,806,1571.2,824,1523.5,824z"/>
</svg>
