<?xml version="1.0" encoding="utf-8"?>
<!-- Generator: Adobe Illustrator 27.0.0, SVG Export Plug-In . SVG Version: 6.00 Build 0)  -->
<svg version="1.1" id="Layer_1" xmlns="http://www.w3.org/2000/svg" xmlns:xlink="http://www.w3.org/1999/xlink" x="0px" y="0px"
	 viewBox="0 0 1920 1080" style="enable-background:new 0 0 1920 1080;" xml:space="preserve">
<style type="text/css">
	.st0{fill:none;stroke:#231F20;stroke-width:20;stroke-miterlimit:10;}
</style>
<path class="st0" d="M1427.8,843.1c-3.9,0-7.6,0-11.4-0.1c-3,0-5.9-0.1-8.9-0.1c-210.9-1.1-344.2-1.2-473.2-1.3
	c-127.6-0.1-248.2-0.1-435.3-1.2c-46.3-0.3-89.5-9.9-128.2-28.5c-34.2-16.5-64.8-40-91.2-69.8c-38.5-43.7-59.3-91.2-69.8-123.3
	c-13-39.5-18.5-79.1-14.9-108.7c6.5-54.3,22.7-101.9,47.9-141.7c22.1-34.7,51.1-63.4,86.2-85.2c81.6-50.7,165.4-47.3,189.2-45l0,0
	c13.9,1.3,27.9,2.5,42.6,3.8c73,6.2,155.8,13.3,272,38c27.8,5.9,49.8,20.8,63.5,43.1c15.4,24.9,17.7,54.2,13,72.3
	c-8.2,32.2-28.7,55-59.3,66.1c-27.2,9.8-55.3,8-69.6,6.1c-86.8-11.7-207-26.3-347.7-42.5c-23-2.7-42.2,3-56.8,16.6
	c-20.8,19.5-26.7,49.5-26.3,57.7c2.3,50.2,18.8,91,49.1,121.2c29.5,29.4,62.4,39.2,75.3,42.1c66.9,14.9,124.8-3.8,172.2-55.7
	c30.2-32.5,64.4-48.4,104.7-48.4c0.5,0,1,0,1.5,0c65,0.6,256.2-0.1,258.1-0.1c45.3-0.4,76.8-9.8,103.5-56.6
	c28-49.1,74.7-70,139.1-62.3c54.1,6.4,81.3,8,107.5,9.5c45.6,2.6,85,4.8,248.5,31.7c34.2,5.6,63.3,21.9,84.2,47.1
	c17.1,20.5,28.2,46.5,31.4,72.9c4,34-3.3,65.1-21.9,92.4c-14.7,21.6-32.6,34.7-39.4,39.6l-0.9,0.7c-13.8,10.2-34.2,23-53.8,35.5
	c-12.5,7.9-24.5,15.4-33.1,21.3C1503.5,838.8,1463.7,843.1,1427.8,843.1z"/>
</svg>
