<?xml version="1.0" encoding="utf-8"?>
<!-- Generator: Adobe Illustrator 27.0.1, SVG Export Plug-In . SVG Version: 6.00 Build 0)  -->
<svg version="1.1" id="Grand_Prix_-_Config" xmlns="http://www.w3.org/2000/svg" xmlns:xlink="http://www.w3.org/1999/xlink"
	 x="0px" y="0px" viewBox="0 0 1920 1080" style="enable-background:new 0 0 1920 1080;" xml:space="preserve">
<style type="text/css">
	.track-surface{fill:none;stroke:#FFFFFF;stroke-width:30;stroke-miterlimit:10;}
</style>
<path class="track-surface" d="M725,558.9c48.5,44.6,98.1,88.8,140.3,126c21.2,18.8,34.5,19.9,47.8,15.6c34.8-11,62.3-4.7,77.4,17.6
	c14.1,20.9,32.2,21.6,44.2,22.1c1.4,0.1,2.7,0.1,4,0.2c26,1.8,71.9,2.6,85.3,2.8c90.8,1.3,209.6,1.9,324.5,2.4
	c92.3,0.4,179.5,0.9,249.9,1.6c11.2,0.1,36.1,4.4,50,19.9c7.6,8.5,10.9,19.5,9.6,32.5c-2.7,27.3-17.2,51.6-42,70.5
	c-29.8,22.7-72.3,36.2-126.3,40.3c-12.8,1-26.1,3.3-41.5,6.1c-25.8,4.6-55.1,9.8-92.3,10.2c-44.2,0.4-382.2,2.6-593,3.9l-63.6,1.1
	c-5.5,0-21.9,0-27.2-5.6c-0.8-0.9-1.7-2.2-1.6-5c0-0.3,0-0.7,0.1-1c0.3-4.8,0.9-14.7-6.5-20.1c-5.4-3.9-12.9-3.9-22.9,0l-4.9,2
	c-20.2,8-61.9,24.6-83.4,30.4l-15.4,1.4c-71.8,2.7-146,3-196.2-24.1C364,867.8,330.1,772.6,323.6,739.5
	c-5.8-29.5-12.5-77.4-19.5-128c-8.1-58.4-16.5-118.8-24.2-153.9c-0.8-3.6-2.3-9-4.7-12.6c-4.4-6.1-12.2-4-19.3-5.9
	c-3.5-0.9-7.4-1-10.1-1.5c-9.1-1.7-9.6-2.3-10.5-5.8c-0.7-2.8-1.6-6.2-2.6-10c-1.9-7.4-4.3-16.6-6.7-25.6
	c-0.7-2.8-6.1-24.4-9.4-32.1c-8.5-19.7-21.3-51.9-32.6-80.3c-5.8-14.7-11.3-28.5-15.5-38.9c-7.9-19.5-8.9-35.5-2.9-47.6
	c6.8-13.6,20.7-19.1,28.5-21.1c40.6-10.8,115.6-24.7,154.2-30.6c22.9-3.5,36.4,11.4,45.5,24.8l18.2,26.8
	c29.5,43.3,66.2,97.2,88,128.9c5.4,7.8,9.7,14.3,13.2,19.4c11.3,16.7,15.5,22.9,23.9,32c40.1,43.5,84.8,88.6,136.7,137.7L725,558.9z
	"/>
</svg>
