<?xml version="1.0" encoding="utf-8"?>
<!-- Generator: Adobe Illustrator 27.0.0, SVG Export Plug-In . SVG Version: 6.00 Build 0)  -->
<svg version="1.1" id="Layer_1" xmlns="http://www.w3.org/2000/svg" xmlns:xlink="http://www.w3.org/1999/xlink" x="0px" y="0px"
	 viewBox="0 0 1920 1080" style="enable-background:new 0 0 1920 1080;" xml:space="preserve">
<style type="text/css">
	.track-surface{fill:none;stroke:#231F20;stroke-width:20;stroke-miterlimit:10;}
</style>
<path class="track-surface" d="M1390.4,381.4c-2.4-35.7-10.9-63-26-83.4c-14.8-20-33.7-30.2-48.6-36.8c-7.3-3.3-18.6-7.6-29.5-11.8
	c-9.6-3.7-18.5-7.1-24.5-9.7c-29.9-13-37.5-16.7-50.8-35.1c-11-15.2-22-38.9-33.6-64l-3.2-7c-15-32.3-53.6-45.1-85.2-43.4
	c-44.7,2.4-65.9,18.9-75.8,32.4c-10.3,14-13.7,31.6-9.4,48.3c6.7,26,30.9,33.1,43.9,36.8l0.6,0.2c25,7.3,48.1,28,54.5,39.6
	c7.3,13.3,9.3,24.2,5.6,32.4c-6.4,14.7-30.4,20.5-40.6,22.9c-5.1,1.2-11.6,2.8-18.5,4.5c-21.2,5.3-50.3,12.5-66.4,15.3
	c-47.9,8.3-86,32.9-113.2,73c-16.9,25-31.9,50-45.1,72c-13.4,22.3-25,41.6-35.9,56.9c-16.3,22.7-51.8,68.9-71.5,94.4
	c-32.1,41.6-45.8,72.7-56.9,97.8c-6,13.5-11.1,25.2-17.8,35.4l-0.4,0.5l-0.3,0.6c-0.6,1.3-13.2,23.9-64.3,50.1
	c-23.5,12-49,50.2-49.5,87.6v0.7c-0.1,7.3-0.3,19.5,4,30.5c5.7,14.8,17.5,23.1,34,24c241.2,12.9,581.6,42.5,586.9,43
	c6.6,0.6,13,0.9,19.2,0.9c33.3,0,61.3-8.8,83.6-26.4c19.8-15.5,35.2-37.8,46.9-68c5.1-13,11.6-34.3,17.4-53.1
	c3.3-10.8,6.4-21.1,8.9-28.4c10.9-32.7,20.9-69.8,24.8-92.3c4.1-23.9,8.4-52.1,13.1-84.8c4.7-32.1,10.1-68.6,16.4-107.5
	C1394,464,1392.7,415.8,1390.4,381.4z"/>
</svg>
