<?xml version="1.0" encoding="utf-8"?>
<!-- Generator: Adobe Illustrator 27.0.1, SVG Export Plug-In . SVG Version: 6.00 Build 0)  -->
<svg version="1.1" id="Combined_Without_Chicanes_-_Config"
	 xmlns="http://www.w3.org/2000/svg" xmlns:xlink="http://www.w3.org/1999/xlink" x="0px" y="0px" viewBox="0 0 1920 1080"
	 style="enable-background:new 0 0 1920 1080;" xml:space="preserve">
<style type="text/css">
	.st0{fill:none;stroke:#FFFFFF;stroke-width:30;stroke-miterlimit:10;}
</style>
<path class="st0" d="M285.6,614.5c20-9.8,42.9-10.4,151,4c9.6,1.3,26.9,3.7,30-3c2.1-4.7-2.2-13.8-9-17c-19-8.8-46.3,34-63,27
	c-9.5-4-10.2-21.7-10-56c0.7-111.4,4-149,4-149c4.2-48.4,6.8-61.1-3-71c-24.4-24.6-90.8,3.6-90,8c0.8,4.5,72.7-13.4,189-1
	c8.7,0.9,12.2,0.3,17,2c71.9,25.4,55.2,262.1,44,263c-8,0.6-18.5-116.8-17-208c0.6-34.9,2.6-47.7,8-49c25.9-6.1,100.5,263.3,123,258
	c21.4-5.1-25.5-255.1,0-261c2-0.5,5.8,0.2,17,17c36,53.7,42.8,114.8,64,214c5.1,23.9,6.8,30.3,11,31c20.1,3.4,42.8-133.6,75-251
	c1.9-6.8,7-25.3,1-29c-5.5-3.4-18.3,7-24,13c-33.2,35.1,10.5,98.9,29,240c1.4,10.4,2.9,23.6,7,24c12.1,1.3,23.5-109.2,83-252
	c2.3-5.5,3.9-20.7,9-21c13.3-0.9,37.8,97.1,77,254c1.4,5.7,4,16.2,6,16c2.9-0.3,5.8-24,1-44c-14.4-59.7-98.9-91.5-118-78
	c-1.7,1.2-7.3,5.9-13.3,4.6c-5.3-1.2-10.9-7.1-9.8-10.4c3.3-10.2,68,0,113.3,7.1c7.7,1.2,8,1.3,9.8,1.3
	c59-0.4,109.3-149.5,94.7-158.7c-3.1-1.9-10.6,1.4-13.3,6.2c-3.9,6.8,1.6,16.5,2.7,18.7c19.2,37.5-24.4,230.6,17.8,248.9
	c3.2,1.4,5.8,1.3,8.4,1.3c102.4-0.5,204.8-3.8,307.1,0.9c5.6,0.3,18.2,1,19.6-3.1c1.5-4.7-12-14.9-24-18.2
	c-29.8-8.2-50.5,33.7-65.3,28c-17.1-6.6-7.7-66.4-1.8-167.1c5.4-92.8,1.8-115.6-13.8-126.7c-27-19.1-78.7,5.4-77.8,12
	c1.4,9.9,127.3,4.7,206.2-2.7c59.1-5.5,71.6-10.3,97.8-2.7c50.1,14.6,108,62.5,112.4,126.2c7.1,101.4-125.2,178.7-172.9,155.1
	c-66.9-33.2-18.3-290.7,7.1-291.6c5.2-0.2,9.3,10.4,14.7,24.9c26.5,71.1,4.1,124-15.1,284.4c-2.3,19.3-1.9,17.8-2.2,19.1
	c-44.4,176.2-712.7,27.3-1048,97.3c-24.1,5-107,23.8-160-20c-20.6-17.1-48.5-53.4-38.2-84C260.2,627,279.6,617.5,285.6,614.5z"/>
<path class="st0" d="M960,540"/>
</svg>
