<?xml version="1.0" encoding="utf-8"?>
<!-- Generator: Adobe Illustrator 27.0.1, SVG Export Plug-In . SVG Version: 6.00 Build 0)  -->
<svg version="1.1" id="Junior_-_Config" xmlns="http://www.w3.org/2000/svg" xmlns:xlink="http://www.w3.org/1999/xlink" x="0px"
	 y="0px" viewBox="0 0 1920 1080" style="enable-background:new 0 0 1920 1080;" xml:space="preserve">
<style type="text/css">
	.track-surface{fill:none;stroke:#FFFFFF;stroke-width:30;stroke-miterlimit:10;}
</style>
<path class="track-surface" d="M1573.3,408.6c-28.6-31.9-76.8-40.8-100.7-41.1c-116.5-1.3-260.7-2-413.2-2.6c-69.7-0.3-141.6-0.7-211-1.2
	L632.5,362c-1.8,0-44.2,0.2-90.3,5.8c-66,8.3-103.5,23.4-114.6,46.6c-9.9,20.5-8.3,39.1-6.9,57.1c1.5,18.3,2.8,35.5-6.9,56.5
	c-10.2,22-41.9,46.4-60.9,61.1c-12.5,9.7-17.7,13.9-20.5,18.2c-8.7,14-10.7,29.4-5.8,44.1c9.9,29.9,45.2,49.7,57.9,54.8
	c16.7,6.8,69.5,11.4,75.4,11.9h0.7l410.2-6.4c195.9-5.4,353.4-18.2,433.3-25.8c87.7-4.1,160.9-27.6,212.5-67.8
	c45.6-35.8,73.6-84.5,78.7-137C1598.2,452.5,1590.8,428.1,1573.3,408.6z"/>
</svg>
