<?xml version="1.0" encoding="utf-8"?>
<!-- Generator: Adobe Illustrator 27.0.0, SVG Export Plug-In . SVG Version: 6.00 Build 0)  -->
<svg version="1.1" id="Grand_Prix_without_chicanes_-_Config"
	 xmlns="http://www.w3.org/2000/svg" xmlns:xlink="http://www.w3.org/1999/xlink" x="0px" y="0px" viewBox="0 0 1920 1080"
	 style="enable-background:new 0 0 1920 1080;" xml:space="preserve">
<style type="text/css">
	.st0{fill:none;stroke:#231F20;stroke-width:10;stroke-miterlimit:10;}
</style>
<path class="st0" d="M685.3,503.2c-51.5-48.7-96-93.4-135.9-136.7c-7.6-8.3-11.3-13.8-22.4-30.1c-3.5-5.2-7.9-11.7-13.4-19.6
	c-22.1-32.1-59.2-86.6-89-130.4L407.4,161c-6.2-9-25-36.5-60.2-31.2c-38.8,5.9-114.6,19.9-155.8,30.9c-10.2,2.7-28.6,10.1-38,28.9
	c-8,16.1-7.2,36.3,2.4,59.9c3.8,9.3,8.3,21.9,13.1,35.1c11.1,30.6,23.7,65.3,35.5,85.3l0.1,0.2c4.7,7.4,10.1,14.4,16.1,20.8l0.3,0.3
	c7.4,7.1,14.5,14.7,21,22.7c15.9,19.5,19.4,35.8,22,47.8c7.6,34.7,16,95.2,24.1,153.6c7.1,50.5,13.7,98.3,19.6,128.1
	c0.8,4,8.3,40.1,32.1,83c24.6,44.5,56,77.3,93.2,97.4c40.9,22.1,94.9,27.1,149.5,27.1c23.7,0,47.6-1,70.5-1.9
	c19.5-0.8,37.8-1.5,54.7-1.6c72.6-0.3,689.4-4.3,747.2-4.8c38.5-0.3,69.7-5.9,94.8-10.4c15-2.7,27.9-5,40-5.9
	c56.9-4.3,102-18.8,134.2-43.3c28.2-21.5,44.8-49.5,47.9-81c1.8-17.2-2.7-32-13.3-43.8c-17.3-19.3-46.5-24.7-61-24.9
	c-70.5-0.8-157.7-1.2-250-1.6c-114.9-0.5-233.7-1.1-324.4-2.4c-13.3-0.2-58.9-1-84.5-2.7c-1.4-0.1-2.9-0.2-4.5-0.2
	c-11.1-0.5-22.5-1-32.3-15.5c-8.8-13.1-21.5-22.3-36.6-26.6c-16.7-4.8-36.1-3.7-57.8,3.1c-6.3,2-14.1,4.5-33.4-12.6
	c-45.2-40.1-93.5-83-140-125.9L685.3,503.2z"/>
</svg>
