<?xml version="1.0" encoding="utf-8"?>
<!-- Generator: Adobe Illustrator 27.0.0, SVG Export Plug-In . SVG Version: 6.00 Build 0)  -->
<svg version="1.1" id="Grand_Prix_without_1st_chicane_-_Config"
	 xmlns="http://www.w3.org/2000/svg" xmlns:xlink="http://www.w3.org/1999/xlink" x="0px" y="0px" viewBox="0 0 1920 1080"
	 style="enable-background:new 0 0 1920 1080;" xml:space="preserve">
<style type="text/css">
	.st0{fill:none;stroke:#231F20;stroke-width:10;stroke-miterlimit:10;}
</style>
<path class="st0" d="M685.4,503.5c-51.6-48.9-96.1-93.7-136-136.9c-7.6-8.3-11.4-13.8-22.5-30.2c-3.5-5.2-7.9-11.6-13.3-19.5
	c-21.8-31.7-58.5-85.6-88-128.9l-18.2-27c-6.2-9-25-36.5-60.2-31.2c-37.4,5.7-112.8,19.5-155.8,30.9c-10.2,2.7-28.6,10.1-38,28.9
	c-8,16.1-7.2,36.3,2.4,59.9c4.2,10.4,9.7,24.2,15.5,38.8c11.3,28.5,24.1,60.9,32.7,80.8c2.4,5.6,7,23.4,8.6,29.8v0.2
	c2.4,9,4.8,18.2,6.7,25.6c1,3.9,1.9,7.3,2.6,10.1c3.5,13.2,13.4,15.1,22.2,16.7c2.6,0.5,5.3,1,8.3,1.8c5.7,1.5,9.8,6,12.5,13.2
	c1.1,5.4,2.2,11.2,3.4,17.6c4.4,30.8,16.8,117,27.1,183.3c4.3,30.1,8.4,56.7,12.2,75.9c0.8,4,8.3,40.1,32.1,83
	c24.6,44.5,56,77.3,93.2,97.4c40.9,22.1,95,27.2,149.6,27.2c23.6,0,47.3-0.9,70-1.8c19.6-0.8,38.1-1.5,55.1-1.6
	c68.5-0.3,686.5-4.3,747.2-4.8c38.5-0.3,69.7-5.9,94.8-10.4c15-2.7,27.9-5,40-5.9c56.9-4.3,102.1-18.8,134.2-43.3
	c28.2-21.5,44.8-49.5,47.9-81c1.8-17.3-2.7-32.1-13.3-43.9c-17.3-19.3-46.5-24.7-61-24.9c-70.5-0.8-157.7-1.2-249.9-1.6
	c-114.9-0.5-233.7-1.1-324.5-2.4c-17.3-0.3-60-1-84.5-2.7c-1.4-0.1-2.9-0.2-4.5-0.2c-11.1-0.5-22.5-1-32.3-15.5
	c-8.8-13.1-21.5-22.3-36.6-26.6c-16.7-4.8-36.1-3.7-57.8,3.1c-6.3,2-14.1,4.5-33.4-12.6c-45.6-40.4-94.1-83.6-140.1-125.9
	L685.4,503.5z"/>
</svg>
