<?xml version="1.0" encoding="utf-8"?>
<!-- Generator: Adobe Illustrator 27.0.0, SVG Export Plug-In . SVG Version: 6.00 Build 0)  -->
<svg version="1.1" id="Layer_1" xmlns="http://www.w3.org/2000/svg" xmlns:xlink="http://www.w3.org/1999/xlink" x="0px" y="0px"
	 viewBox="0 0 1920 1080" style="enable-background:new 0 0 1920 1080;" xml:space="preserve">
<style type="text/css">
	.st0{fill:none;stroke:#231F20;stroke-width:20;stroke-miterlimit:10;}
</style>
<path class="st0" d="M1729.9,553.7c-1.3-52.6-13.7-99.6-36.8-140.1c-20.1-34.9-48.3-65-83.7-89.2c-79.4-54.1-169.1-62.2-194.7-63.4
	c-122.3-5.5-340-9.9-456.8-11.3c-39-0.5-92.2-1.9-148.5-3.4c-107.3-2.8-228.9-6-302.6-4.5c-77.6,1.7-147.8,23.3-202.8,62.7
	c-46.4,33.2-80.9,77.9-96.7,125.7C188.4,487,185,542.9,197,596.4c9,40.3,26.5,78.6,52.1,113.7c35.7,49.3,91,83.6,164,102
	c61.6,15.5,125.3,17.6,179.4,17.6l185.4,8.8h0.2l601.5-1.4c1.1,0.5,2.3,0.7,3.6,0.7c88.3-1.4,152.9-15.4,203.2-43.9
	c45.4-25.7,82.7-62.6,108.1-106.4C1718.8,645.6,1731,599.3,1729.9,553.7z"/>
</svg>
