<?xml version="1.0" encoding="utf-8"?>
<!-- Generator: Adobe Illustrator 27.0.0, SVG Export Plug-In . SVG Version: 6.00 Build 0)  -->
<svg version="1.1" id="Combined_-_Config" xmlns="http://www.w3.org/2000/svg" xmlns:xlink="http://www.w3.org/1999/xlink" x="0px"
	 y="0px" viewBox="0 0 1920 1080" style="enable-background:new 0 0 1920 1080;" xml:space="preserve">
<style type="text/css">
	.track-surface{fill:none;stroke:#231F20;stroke-width:10;stroke-miterlimit:10;}
</style>
<path class="track-surface" d="M1801.1,697.3c-4-163.7-159.3-213.5-245.1-217.5c-96.9-4.4-269.5-7.8-361.7-9c-30.9-0.4-73.1-1.5-117.7-2.7
	c-84.9-2.3-181.3-4.8-239.5-3.5c-123.7,2.6-201.7,72-224.2,139.6c-31.4,94.1-0.5,165.6,31,208.9c62.4,86.1,191.6,91.8,261,91.8
	c284.5,0,488.3-1.6,589.2-4.6c0,0,92-4.9,123.4-30.9s42.6-48.9,45.5-79.2c1.6-16.6-2.7-30.7-12.8-42c-16.5-18.4-38.6-23.6-52.5-23.8
	c-67.3-0.8-150.5-1.1-238.5-1.5c-109.6-0.5-223-1-309.6-2.3c-16.5-0.3-57.3-1-80.6-2.6c-1.3-0.1-2.8-0.2-4.3-0.2
	c-10.6-0.5-21.5-1-30.8-14.8c-8.4-12.5-20.5-21.3-34.9-25.4c-6.5-1.9-13.5-2.8-20.9-2.8c-10.6,0-22,1.9-34.3,5.7
	c-6,1.9-13.5,4.3-31.9-12c-50.4-44.7-92.4-82.2-133.6-120.1l-46.4-43.5c-49.2-46.7-91.7-89.4-129.8-130.6
	c-7.3-7.9-10.9-13.2-21.5-28.8c-3.3-5-7.5-11.1-12.7-18.6c-16.9-24.6-43.9-64.2-67.7-99.1c-12.2-17.9-24-35.2-33.7-49.4
	c-5.9-8.6-23.9-34.8-57.4-29.8c-35.7,5.4-107.6,18.6-148.7,29.5c-9.7,2.6-27.3,9.6-36.3,27.6c-7.6,15.4-6.9,34.6,2.3,57.2
	c3.6,8.9,7.9,20.8,12.5,33.5c10.6,29.2,30.1,76.3,33.7,88.6c3.6,12.3,12,40.7,15.2,50.7c3.2,10,22.4,5.8,30.7,8.8
	c8.3,3,10.9,20.9,10.9,20.9s15.2,90.6,23,146.3c6.8,48.4,13.1,94,18.7,122.4c0.8,3.8,7.9,38.3,30.6,79.2
	c23.5,42.5,53.4,73.8,88.9,92.9c39,21.1,90.6,25.9,142.7,25.9l1,0c18,0,36.5-0.6,55.2-1.2h0.6l10.1-2l0.4-0.1
	c21.2-5.6,60.5-21.3,81.6-29.6l4.5-1.8c5.4-2.2,7.6-1.8,8.1-1.7c0.7,1.2,0.5,5.3,0.4,6.6c0,0.5-0.1,0.9-0.1,1.2
	c-0.3,6,1.6,11.2,5.5,15.3c8.2,8.5,22.9,9.7,36.2,9.7l789-5.9c70-1.1,121.3-12.2,161.2-34.8c36-20.4,65.6-49.6,85.7-84.4
	C1792.2,770.1,1802,733.4,1801.1,697.3"/>
</svg>
