<?xml version="1.0" encoding="utf-8"?>
<!-- Generator: Adobe Illustrator 27.0.1, SVG Export Plug-In . SVG Version: 6.00 Build 0)  -->
<svg version="1.1" id="fiveflags_Config" xmlns="http://www.w3.org/2000/svg" xmlns:xlink="http://www.w3.org/1999/xlink" x="0px"
	 y="0px" viewBox="0 0 1920 1080" style="enable-background:new 0 0 1920 1080;" xml:space="preserve">
<style type="text/css">
	.st0{fill:none;stroke:#FFFFFF;stroke-width:30;stroke-miterlimit:10;}
</style>
<path class="st0" d="M1267.4,960.3c-94.3,12-200.5,15.7-298.9,15.7c-107.3,0-205.2-4.4-267.8-7.3l-11.5-0.5
	c-40.7-1.8-85.4-10.8-129.1-26c-50.7-17.6-97.2-42.2-138.2-73.3C349.6,814.1,261.5,713.1,252.4,543c-4.5-84.8,32.3-186.8,96.2-266.3
	c37.4-46.6,82.5-84.3,134.2-112.1c58.4-31.5,123.9-49.6,194.9-53.8c133.9-8,443.6-9.8,589.1-0.7c37.6,2.4,79.1,12.2,119.9,28.4
	c45.8,18.2,88.1,43.2,125.6,74.2c64.9,53.6,144.6,150.4,155.4,306.8l0,0c0.5,10.6,2.8,102.3-43.1,200.6
	c-28.1,60.2-68.4,110.5-119.8,149.5C1441.5,917.7,1361.6,948.2,1267.4,960.3"/>
</svg>
