<?xml version="1.0" encoding="utf-8"?>
<!-- Generator: Adobe Illustrator 27.0.1, SVG Export Plug-In . SVG Version: 6.00 Build 0)  -->
<svg version="1.1" id="Industriefahrten" xmlns="http://www.w3.org/2000/svg" xmlns:xlink="http://www.w3.org/1999/xlink" x="0px"
	 y="0px" viewBox="0 0 1920 1080" style="enable-background:new 0 0 1920 1080;" xml:space="preserve">
<style type="text/css">
	.track-surface{fill:none;stroke:#FFFFFF;stroke-width:30;stroke-miterlimit:10;}
</style>
<path class="track-surface" d="M707.9,984.1c-3.5,0-7-0.9-10.2-2.5c-4.2-2-7.2-3.8-9.9-5.3c-1.8-1-3.4-2-5.2-2.9c-5.5-2.9-9.1-4.4-11.5-4.8
	c-1.6-0.3-4.9-0.7-8.2-1.1c-2.7-0.3-5.4-0.6-7.4-0.9c-3.2-0.5-4.5-0.6-5.3-0.7l-0.8-0.1h-0.1c-3.4-0.4-7.2,0.6-10.9,3h-0.1h-0.1
	c-1,0.5-2.1,0.7-3.3,0.7c-6.2,0-12.1-7-13.4-8.6c-1.6-2.1-5-9.1-5.5-10.9c-0.8-1.7-2-3.1-3.5-4.1l-0.2-0.1c-5.5-3.3-8.7-5.9-9.8-7.9
	c-1-1.9-1.6-4-1.9-6.1c-0.1-0.5-0.2-1-0.3-1.5c-0.3-1-1.2-3.5-5-4.3c-1.6-0.3-4.2-0.8-7-1.4c-4.8-1-10.2-2-12.7-2.5l-1.1-0.2
	c-3.6-0.6-7.1-1.3-9.6-4.8c-1.6-2.1-2.4-4.6-2.3-7.2c0-0.3,0-0.6,0-0.8s0-0.8,0-1.3c0-1.6-0.1-4-0.8-5.3l-0.2-0.4
	c-0.9-1.6-1.6-2.9-5.6-5.9l-10-7.3c-11.5-8.5-29.1-21.4-32.5-24.1c-4.3-3.3-8.3-7.1-11.9-11.2c-2.5-3.1-31.8-40.8-33.2-44
	c-1.5-3.1-2.2-5.5-2.5-10.8c-0.1-1.1-0.1-2.1-0.2-3.1c-0.3-3.2-0.4-6.4-0.2-9.6c0.3-3.7,1.2-5.5,2.7-8.5c0.9-2,3.6-7.9,5.8-12.7
	l2.7-5.9c1-2.2,1.8-6.6,2.1-8.9c0.1-0.5,0.2-0.9,0.2-1.2c0.4-2.3,3.1-16.8,3.2-19.1c0.4-5.2,0.5-10.4,0.2-15.5
	c-0.4-5.7-1-16.4-1.4-20.3c-0.6-5.7-1.6-11.3-3-16.8c-2.2-7.2-4.7-14.2-7.5-21.2c-2.7-6.3-19.7-49.1-22.3-56.8
	c-2.3-6.8-8.3-12.7-10.9-15.2c-0.2-0.2-0.4-0.4-0.6-0.6c-2-2-9.7-7.6-17.1-11c-2-0.9-4-1.8-5.9-2.7c-5.1-2.2-9.5-4.1-12.3-6.2
	c-3.8-2.9-5.3-5.4-5.6-9c-0.2-3.3,1.3-9.4,6.4-11.9c2.1-1,9.7-3.9,17.7-6.9c9-3.4,19.2-7.2,21.9-8.6c4.7-2.4,7.3-4,8.3-5.1
	c1-1.1,7.6-7.4,10.2-8.7c1.1-0.6,2.8-1.5,4.4-2.5c2-1.1,3.7-2.1,4.3-2.4c0.8-0.4,4.7-3.9,6.5-5.6l0.6-0.6c1.4-1.2,4.7-4.6,7.7-7.6
	c2-2,4-4,4.9-4.8l1.3-1.3c2.8-2.8,5.7-5.4,8.8-7.9c3.1-2.3,12-9.6,13.6-11.1c1.8-1.6,7.6-7.8,10.2-12.2c2.7-4.6,9.4-19.9,10.9-23.6
	c0.2-0.5,0.4-0.9,0.6-1.3c1.2-2.8,2.1-4.7,1.8-12.9c-0.3-3.8-0.4-7.6-0.2-11.4c0.5-5,3.5-9.3,7.9-11.6c5.7-3,6.2-3.8,6.9-4.9l0,0
	c0.7-1.2,3-4.9,2.3-7.2c-0.5-1.6-1.4-3-2.6-4.1c-0.1-0.1-0.2-0.2-0.3-0.3c-3.1-3.4-3.2-8.7-0.2-12.2c0.7-0.7,11.8-10.7,15.3-12.7
	c2.4-1.4,8-5.4,11.3-7.8l2.7-1.9c1.4-1,2.7-2.3,3.8-3.7l0.8-0.9l0.9-1c2.2-2.5,6.7-7.8,9.6-10.3c1.1-1,3.3-3,5.8-5.3
	c4.7-4.3,10.5-9.7,13.6-12.2c4-3.4,7.6-7.2,10.6-11.5c1.1-1.5,2.1-2.8,3.1-4.1c1.5-1.9,2.8-3.8,4.3-5.7c1.7-2.5,3-5.3,3.7-8.3
	c0.9-3.4,0.9-7-0.1-10.3c-0.7-2.9-1.8-8.1-2.8-12.6c-0.8-3.7-1.5-7.1-1.8-8.3c-0.7-2.7-1.6-4.2-4.3-5.8c-2.9-1.6-5.5-1.3-7.9-1h-0.1
	c-2.7,0.3-6.6,0.8-12.5-2.9c-5.9-3.7-16.9-12-18-12.9c-1-0.8-1.9-1.8-2.7-2.8c-1.1-1.7-1.7-3.6-1.5-5.6c0-1.9,0.6-3.7,1.6-5.3
	c1-1.4,2.6-2.5,5.3-3.7c3.2-1.4,14.1-6.4,18.1-9c4.7-3.1,9.2-6.5,13.5-10.3c3.6-3.4,3.7-4.5,4-8.2c0.1-1.4,0.2-2.5,0.2-3.3
	c0-1.2,0.1-2.5,0.5-3.7c0.6-1.7,4.1-7.4,6.4-10.4c0.8-1,1.6-2.3,2.4-3.5c1.8-2.7,3.5-5.2,4.9-6.5l0.9-0.8c1.6-1.5,3.5-2.7,5.6-3.6
	l0.5-0.2c3.5-1.7,5.3-2.7,10-2.1h0.2c4.5,0.5,8.7,1,14.2,4.8c5.1,3.5,24.1,17,25.4,18.1l0.4,0.3c1.4,1.1,4.1,3.1,5.4,9.1
	c1.4,6.2,5.8,5.6,6.3,5.5c1.2-0.2,2.3-1.3,3.5-3.7l0.2-0.4c1.4-2.7,3.5-6.7,12.1-7.3c8.4-0.6,33.2-1.7,36.1-1.7c0.6,0,1.1,0,1.6-0.1
	c1.9-0.1,3.8-0.2,8.3,1.2c7.3,2.2,16,4.7,18.6,5c2.9,0.4,5.3,0.1,7.9-2.8c2.8-3.2,6-9.2,6.5-11.7c0.7-3.7,0.9-7.4,0.8-11.1
	c0-0.6-0.1-1.1-0.1-1.7c-0.3-3.3-0.7-7.1,4.2-10c5.4-3.2,28.6-11.3,38.5-13.7l0,0c11.5-2.7,30.8-6.4,40.3-8c7.2-1.2,7.4-1.3,8-1.4
	l1.3-0.3c2.4-0.5,4.6-1.4,6.6-2.8c1.1-1,21-15.4,24.3-17.5c2.9-1.8,6.5-4.1,10.9-3.9c2.1,0.1,4.2,0.6,6.1,1.6
	c1.8,0.9,3.3,2.4,4.2,4.2c1.5,3.3,2.5,10.5,2.5,12.7s-0.6,7.8-1.2,12.4c-0.6,4.8-2.2,17.6-1.3,27c0.3,3,0.3,5.4,0.4,7.7
	c-0.1,6.3,0.9,12.5,2.9,18.5c0.9,2.4,1.6,4.2,2.1,5.6c1.2,3.2,1.5,4.1,2.2,5.1c0.2,0.2,0.5,0.6,0.8,1.1c1.9,2.7,6.3,8.9,8.9,11
	c0.6,0.4,1.2,0.9,1.8,1.5c4.9,4.2,10.1,7.9,15.6,11.2c3.2,1.8,11.8,5.6,15.9,7.4l1.9,0.9c1.4,0.6,4.4,1.9,7.4,3.2l5.3,2.3
	c3.1,1.3,8.2,1.9,15.1,1.7c7.2-0.2,15.7-0.3,19.9-0.2c4.5,0.1,17.1,1.9,21,2.5c1.9,0.3,6.7,1,11.8,1.7c6.2,0.9,12.5,1.7,14.6,2.1
	c4.1,1,8.1,2.1,12,3.5l2.7,0.9c1.6,0.5,3.1,1,4.8,1.5c3.9,1.2,8,2.4,12,4c5.6,2.3,11.9,6.3,14.8,9.4c3.4,3.5,7.1,6.6,11.2,9.4
	c2.9,1.8,19.5,10.8,23.6,12.6c4.1,1.7,6.2,2.2,8.8,2c4.2-0.3,8.4-1,12.4-2.2c4.1-1.3,17.1-8.4,20-10.1c3-1.7,18.5-13,23.1-16.9
	c1.7-1.4,2.9-2.7,4.1-3.7c2-1.9,3.4-3.2,5-3.9c3.3-1.3,6.8-2.1,10.3-2.5c1.4-0.2,3.9-0.6,6.5-1c5.2-0.8,11.1-1.7,13.2-1.8l1.4,0
	c2.5,0,4.9-0.2,7.4-0.7l2.2-0.5c2.7-0.7,6.4-1.5,8.3-2.2c3.1-1.1,7.2-1.4,9.4,1c2,2.1,4,4.2,4.1,6.9c0.1,2.1,0.4,7.8-4.5,11.7
	c-3.9,3.1-11.1,8.5-14.2,10.1c-2.7,1.5-5.2,3.5-7.3,5.7c-3,2.9-5.2,4.8-7.1,5.8c-1.5,0.9-2.9,1.8-4.2,2.8c-1.7,1.3-3.4,2.4-5.3,3.5
	c-2.5,1.3-4.6,2.4-5.6,3c-0.8,0.5-1.5,1.1-2,1.9c-0.8,1.2-1,2.6-0.6,4c0.7,2.4,2.8,4,5.3,4.1c0.9,0,4.2-1.3,4.9-3.7
	c0.9-3.1,2.5-7.4,5.6-10c4-3.3,8.4-6.8,10.9-8.1c2.3-1,4.8-1.9,7.3-2.5c1.6-0.5,3.5-1,5.4-1.6c2.6-0.8,6.3-1.9,9.9-2.9
	c4.1-1.2,7.9-2.3,8.8-2.7c3-1,6.1-1.5,9.3-1.4c3.9-0.1,7.8-0.5,11.7-1.3c1.9-0.5,3.9-2,5.3-3.2c0.5-0.4,1-0.8,1.6-1.2
	c0.7-0.4,2.5-1.8,4.5-3.3c1.4-1.1,2.9-2.2,4.2-3.2c2.4-1.8,4.6-3.9,6.5-6.2c0.3-0.5,1.1-1.7,2.5-3.6c1.5-2.1,3.4-4.7,4.1-6
	c1.3-2,2.1-3.8,2.1-6c-0.2-2.8-0.5-5.6-1.1-8.3l-0.2-1.3c-0.7-3.2,0-6.5,2-9.1l2.2-3.2c2.5-3.7,6.3-9.2,7.5-11c1.5-2.3,3.7-4,6.2-5
	c2.5-0.9,5.1-1,7.6-0.4c1.9,0.5,3.6,1.3,5.2,2.4c0.4,0.3,0.7,0.5,1,0.6c0.2,0.1,0.9,0.5,1.7,0.9c2.5,1.5,5,2.8,7.6,4
	c2.5,0.8,5,1.4,7.6,1.8c1.1,0.2,2.2,0.4,3.3,0.7c0.4,0.2,2.2,0.7,3.8,1.2c2,0.6,4.2,1.3,5.2,1.7c0.5,0.2,1.4,0.5,2.5,0.8
	c3.4,1.1,6.2,2.1,7.5,3l0.6,0.5c2.1,1.6,6.1,4.4,7.8,8.2s5.5,8.4,7.2,9.6c1.9,1.3,7.1,3.9,9.1,4.2c1.6,0.2,3.3,0.4,4.9,0.3
	c0.7,0,1.4,0,1.9,0.1c3,0.3,5.9,1.6,8.1,3.7c2.4,2.4,14.9,17.3,17.5,21.4c2,3.4,2.7,7.3,2,11.2c-0.6,2.7-1.7,5.2-3.1,7.6
	c-1.5,2.3-4.7,9.2-6,12.9l-0.3,0.9c-1.2,3.3-2.3,6.6-3.1,10c-0.8,3.3,2.3,7.5,4.3,9.5l0.4,0.4c2.2,2.2,5,5,9.5,6.4
	c3.3,1.1,6.7,1.8,10.1,2.2c4.1,0.2,8.1,5,8.3,7.9v0.2c0.6,6.6,2,22.2,2.1,26.1c0.2,4.1-0.7,7.4-2.8,9.8c-2.7,3-6.6,3.5-8.7,3.7
	c-5,0.3-10,0-15-0.7c-5.4-0.9-7.2-1.2-12.6-2l-2.8-0.4c-5-0.7-8.8-0.2-11.2,1.7c-1.4,1.2-2.4,2.8-2.9,4.7c0,0.2-0.1,0.3-0.1,0.4
	c-0.2,0.7-0.4,1.5-0.6,2.4c-0.3,1.6-0.8,3.1-1.6,4.6c-1.3,2.2-10.7,13.6-13,16.3c-2.5,3-5.7,9.6-7.4,14.3c-2.6,7.1-2.5,8.1-2.3,9.9
	c0,0.2,0,0.4,0.1,0.7c0.1,1.8,0.4,4.6,0.8,7.5c0.1,1.2,0.3,2.5,0.4,3.6c0.3,2.8,0.2,5.6-0.4,8.3c-0.1,0.4-0.1,0.7-0.2,1.1
	c-0.3,3.4-0.4,6.9-0.2,10.3c0,0.3,0,0.6,0,0.9c0.2,3,0.4,8.4-0.3,12.5c-0.5,2.8-2.4,5.6-3.9,7.5c-1.6,2.1-3.5,3.9-5.7,5.4
	c-6.1,4.2-12.4,5-16.1,5.6l-1.2,0.2c-3.2,0.5-6.9,1.1-9.3,3.5c-0.9,0.9-2.8,2.7-5.2,4.9c-5.1,4.8-12.2,11.4-13.8,13.4
	c-4.1,5-7.4,10.6-9.9,16.6c-0.3,0.6-0.5,1.1-0.7,1.6l-0.6,1.3c-1.5,3.2-3.9,8.6-6.9,12.2c-0.5,0.6-1,1.2-1.4,1.7
	c-2.6,3.2-4.9,5.9-8.9,7.7c-2.3,1-4.2,1.7-5.8,2.3c-1,0.3-2,0.7-3,1.2c-2.6,1.7-5.1,3.5-7.4,5.5c-0.2,0.2-0.4,0.4-0.6,0.6
	c-1.9,1.9-5.3,5.4-14.2,7.3c-4.6,0.9-8.4,1.6-11.5,2c-2.6,0.3-5.2,0.8-7.8,1.5c-2,0.6-7.1,2.6-12.1,4.4c-3.9,1.5-8,3-10.6,4
	c-5.8,2.1-12.4,2.7-21,3.4c-0.6,0.1-1.3,0.1-1.9,0.1c-7.6,0-12.9-5.5-15.6-8.3c-0.4-0.4-0.8-0.8-1.3-1.2l-0.1-0.1l-0.1-0.1
	c-0.5-0.5-1.1-1.1-1.6-1.6c-2.5-2.6-5.1-5.2-9.1-6.4c-7.1-2-14.5,3.5-18,6.2c-0.7,0.5-1.2,0.9-1.7,1.2c-0.8,0.5-2.1,1.3-3.6,2.2
	c-3.2,1.9-7.7,4.6-9.9,6.3l0,0c-2.7,2-4.3,4-4.8,6c-0.2,1.1-0.1,2.3,0.5,3.3c0.7,1.4,6.2,8.2,7.8,9.8c2.8,2.8,7.2,5.5,12.9,7.9
	c7.8,3.3,20.5,7.9,23.7,9c1.1,0.4,1.9,0.6,2.6,0.8c1.3,0.3,2.5,0.8,3.7,1.4c2.9,1.5,5,3.7,7.1,7.4c1,1.9,1.9,3.3,2.7,4.5
	c0.6,1,1.2,1.9,1.7,3c0.6,1.4,2.7,9.7,3.4,13.2c0.7,3.6,0.8,7.3,0.3,11v0c-1.3,5.5-4.3,13-10.5,17.3c-1.4,1-4.3,2.5-6.8,3.9
	c-1.1,0.6-2.1,1.1-2.8,1.5c-0.8,0.5-14.6,8.1-32.1,17.7c-28.5,15.8-67.6,37.4-72.4,40.2c-3.3,1.9-20.5,11.8-40.5,23.3
	c-26.9,15.5-57.3,33-59.5,34.2c-3.6,2-28.7,17.1-28.9,17.3l0,0c-4.8,2.9-16.6,9.8-30.2,17.8c-27.8,16.4-62.3,36.7-67.4,39.9
	l-0.4,0.2c-7.2,4.6-10.2,6.5-20.4,18.5c-8.5,10.1-20.5,23.6-25.6,29.4l-2.4,2.7c-2.2,2.5-6.7,8.2-7.6,10.4
	c-1.1,2.8-5.1,11.8-8.9,15.5c-3.7,3.7-13.6,13-15.8,14.8c-1.7,1.5-5,4.9-6.2,8.6l-0.1,0.4c-1.2,3.5-2.2,6.3-6.3,7.8
	c-2.2,0.9-4.6,0.9-6.8,0.1c-0.4-0.1-0.8-0.2-1.2-0.3c-0.3-0.1-0.6-0.1-1-0.2c-1.5-0.4-3.3-0.9-8.9,3.1c-6.7,4.8-7.5,5.2-9.8,4.5
	h-0.1c-2.2-0.6-7.2-4.4-8.4-5.6l-1.2-1.1c-3.4-3-11.2-10.1-13.3-13.1c-1.4-2-3.8-5.7-5.8-8.6c-1.3-2-2.4-3.7-2.7-4.1
	c-0.7-1.1-1.9-1.7-3.2-1.9c-1.6-0.1-3.2,1-5,3.1c-2.9,3.7-5.3,7.7-7.3,11.9c-0.9,1.9-1.9,3.8-2.9,5.4c-3,5-5.4,8.3-13.1,12.2
	l-1.6,0.8c-6.3,3.2-8.9,4.6-12.7,5.8C712.4,983.7,710.2,984.1,707.9,984.1z"/>
</svg>
