<?xml version="1.0" encoding="utf-8"?>
<!-- Generator: Adobe Illustrator 27.0.1, SVG Export Plug-In . SVG Version: 6.00 Build 0)  -->
<svg version="1.1" id="GP" xmlns="http://www.w3.org/2000/svg" xmlns:xlink="http://www.w3.org/1999/xlink" x="0px" y="0px"
	 viewBox="0 0 1920 1080" style="enable-background:new 0 0 1920 1080;" xml:space="preserve">
<style type="text/css">
	.st0{fill:none;stroke:#FFFFFF;stroke-width:30;stroke-miterlimit:10;}
</style>
<path class="st0" d="M651.7,965.4c-5.3,0-9.3-1.5-12.2-3.1c-7.4-4.2-10.7-11.4-11.2-14.3c-3.4-18.9,8.1-28.5,12.1-31.2
	c12.7-11.6,42.2-39.6,63.7-60c12.2-11.6,21.9-20.7,25-23.6l3-2.8c6.7-6.2,11.1-10.3,18.7-18.9c6.2-7,13.1-19.3,10.9-38.1
	c-1.7-6.9-3.1-11.8-4.4-16c-2.1-7-3.6-12.1-4.6-21.6c-1.1-10.6,2.1-26.4,9.5-47.1c1-2.6,4-11.3,7.9-22.3
	c7.9-22.5,18.8-53.3,21.1-59.6c2.3-6,12.5-35.4,28.6-82.7c1.4-4.2,2.2-6.3,2.7-7.8c1-2.7,1-2.8,3-9.4c3.3-15.9-9.8-22.7-23.5-28.3
	c-0.9-0.4-1.7-0.7-2.5-1c-11-4.7-43.9-19.9-53.5-25.6c-17.6-11.2-16.7-24.7-16.3-30.5l0.1-0.9c2.5-17.6,9.1-24.1,13-27.9
	c0.7-0.7,1.4-1.3,1.8-1.9c3.7-4.6,50-58.5,56.5-65.2c2.9-3.1,13.9-16.1,25.6-29.9c13.9-16.4,28.2-33.4,33.4-39
	c21.6-21.5,34.5-26.1,42.5-27.6c18.3-4.6,148.2-35.1,166.9-39.3c5.9-1.3,13.1-3,18.8-4.3l29.1-6.8c2.4-0.5,9.6-2.2,10.9-4.4
	c0.1-0.2,0.5-0.9-0.1-2.9c-5-16,0.1-20.5,5.8-22.7l0.5-0.2c0.6-0.3,2.5-1.1,4.9-2.2c15-6.7,29.6-13.1,34.8-14.2l50.1-10.9
	c4.8-1,9.2-1.9,12.7-2.7c3.5-0.7,6-1.3,7.3-1.5c0.7-0.1,1.4-0.3,2.2-0.5c8.7-1.9,25-5.5,37.9,8.1c6,6,7.4,17.3,7.6,19.5v0.2
	c0.4,3.8,1,10.7-4.8,18.6c-3.8,5.2-8.8,9.7-15.2,15.4c-2.7,2.5-5.8,5.2-9.1,8.3c-10.7,10.5-16.5,16-18.6,17.9
	c-3,2.7-28.7,27.4-55.8,53.5c-30.6,29.4-62.2,59.9-68.1,65.3c-11.4,10.5-72.8,71.8-73.4,72.4c-0.5,0.5-1.4,1.4-2.5,2.5
	c-7.8,8-28.3,29.2-46.9,42.9c-20.8,15.3-47.8,32.5-58.5,39.1c-9.3,5.8-16,8.7-21,5.4c-4.3-2.9-6.4-12.1-2.7-21.3
	c0.7-1.7,1.6-4.1,2.6-6.8c3.7-10.1,8.8-23.9,13.7-30.1c1.1-1.4,2.1-2.6,3-3.8c4.1-5,6.5-8,8.7-14.5c2.6-10.1,1.2-20-3.8-27.9
	c-4.2-6.6-10.7-11.4-17.4-12.7c-12.7-1.5-17.1-1.6-34.8,1.3l-3.7,0.6c-15.5,2.5-26.8,4.3-41.7,10.5c-13.9,5.7-14.6,14.1-14.8,17.2
	v0.6c-0.5,5,0.7,9.2,3.5,12.4c4.7,5.3,12.6,6.6,13.8,6.6c2.5,0,13.6,0.7,20.6,1.3c8,0.7,13.7,3.2,16.9,7.5c4.4,6,2.8,13.6,1.9,17.7
	c-0.1,0.6-0.2,1.1-0.3,1.5c-0.6,3.6-8.1,43.7-13.6,72.9c-2.9,15.4-5.2,27.9-5.8,30.8c-1.1,6.2-5.8,18.9-9.5,29.1
	c-1.6,4.5-3.1,8.4-3.8,10.5c-2.3,7.1-19.9,57.5-23.5,67.7c-7.4,19.9-4.1,28.6-2.6,32.3c4.9,11.5,12,16.7,16.7,20.1l0.6,0.5
	c4.4,3.2,32.7,16.7,40.7,20.3c5.3,2.3,9.1,6.7,11,12.5c2.2,6.8,1.5,14.9-1.9,20.7c-4.6,7.9-17.9,14.4-22.9,16.8
	c-0.7,0.3-1.2,0.6-1.4,0.7l-0.3,0.2c-13.1,5.9-50.6,26-63.5,33.4c-9.2,5.3-26.2,18.4-50.5,39c-1.2,1-2.5,2.1-3.7,3.1
	c-9.7,8.1-19.8,16.5-33.5,35.1c-13.6,18.4-20.8,29.6-28.5,41.6c-1.2,1.8-2.4,3.7-3.6,5.6c-2.1,3.3-3.8,6.1-5.4,8.5
	c-5.3,8.5-7.7,12.4-12.2,14.8l-0.3,0.1C660.4,964.5,655.7,965.4,651.7,965.4z"/>
</svg>
