<?xml version="1.0" encoding="utf-8"?>
<!-- Generator: Adobe Illustrator 27.0.1, SVG Export Plug-In . SVG Version: 6.00 Build 0)  -->
<svg version="1.1" id="Gesamtstrecke_24h" xmlns="http://www.w3.org/2000/svg" xmlns:xlink="http://www.w3.org/1999/xlink" x="0px"
	 y="0px" viewBox="0 0 1920 1080" style="enable-background:new 0 0 1920 1080;" xml:space="preserve">
<style type="text/css">
	.track-surface{fill:none;stroke:#FFFFFF;stroke-width:30;stroke-miterlimit:10;}
</style>
<path class="track-surface" d="M661,984c-1.4,0-2.5-0.4-3.3-0.9c-1.9-1.1-2.9-3-3.1-3.9c-0.8-3.2,0.5-6.6,3.2-8.4c3-2.7,9.5-8.8,14.7-13.8
	c3.6-3.4,6.7-6.3,7.5-7.1c1.9-1.7,3.8-3.5,5.4-5.4c2.1-2.5,3.1-5.8,2.6-9c-0.4-1.8-0.8-2.9-1.1-3.9c-0.5-1.8-1-3.1-1.2-5.5
	c-0.3-2.7,0.5-6.8,2.5-12.1c0.3-0.7,1.1-3.1,2.1-6c1.9-5.4,4.6-13,5.2-14.5c0.9-2.3,6.1-17.6,7.2-20.7c0.4-1.1,0.5-1.7,0.7-2
	c0.2-0.6,0.3-0.7,0.7-2.3c0.7-3.6-2.2-5.1-5.6-6.5l-0.6-0.3c-2.7-1.1-11-4.9-13.5-6.5c-4.7-3-4.5-6.7-4.4-8.1v-0.3
	c0.7-4.6,2.5-6.3,3.4-7.4c0.2-0.2,0.3-0.3,0.4-0.4c0.1-0.2,12.4-14.5,14.2-16.4c0.8-0.8,3.9-4.6,7-8.1c3.2-3.9,6.6-7.7,7.8-9.1
	c5.5-5.5,8.9-6.7,11-7.1c4.3-1.1,37.1-8.8,41.8-9.8c2.4-0.5,5.5-1.3,8.5-2c3-0.7,5.8-1.4,7.4-1.8c2.3-0.5,2.5-0.9,2.7-1.3
	c0.1-0.1,0.1-0.2,0.2-0.4c0.1-0.1,0.2-0.6,0.3-1c0.4-1.4,0.8-3.3,1.9-4.6c1.5-1.8,3.4-3.1,5.7-3.7l9.6-2.1l10.3-2.1
	c1.7-0.4,3.2-1.6,3.9-3.2l0.1-0.2c0.5-0.7,0.9-2.7,0-5.4l-3.3-3.7c-1.2-1.8-3.6-5.3-5.1-7.6c-0.7-1.1-1.2-1.8-1.4-2.1
	c0,0-0.8-1.1-2-1.2c-1-0.1-2.2,0.7-3.4,2.2c-2.5,3.2-4.1,6.3-5.5,9c-0.7,1.5-1.4,2.9-2.3,4.2c-2.3,3.8-4.2,6.5-10.3,9.5l-1.2,0.6
	c-4.8,2.5-6.8,3.5-9.8,4.5c-4.4,1.4-9.2,1.1-13.2-1.1c-3.2-1.5-5.5-2.9-7.6-4.1c-1.3-0.8-2.6-1.5-3.9-2.2c-2.9-1.5-6.4-3.2-8.7-3.7
	c-1.2-0.3-3.9-0.5-6.5-0.9c-1.9-0.3-4-0.5-5.4-0.7c-2.5-0.4-3.4-0.4-4-0.5c-0.3,0-0.4,0-0.6-0.1c-2.5-0.4-5.3,0.4-8.1,2.2l-0.2,0.1
	c-6,2.7-12.2-4.6-13.4-6.2l-0.1-0.1c-1.7-2.6-3.1-5.4-4.2-8.3c-0.5-1.1-1.4-2.2-2.5-2.9c-4.2-2.5-6.9-4.6-7.8-6.3
	c-1-1.7-1.3-3.6-1.5-4.8c-0.1-0.4-0.2-0.9-0.2-1.1c-0.4-1.6-1.8-2.7-3.3-2.9h-0.1c-1.5-0.3-4.2-0.8-6.9-1.4
	c-3.2-0.6-6.6-1.3-8.2-1.7l-0.9-0.2c-2.7-0.5-5.5-1.1-7.6-3.9c-1.8-2.5-1.8-4.5-1.8-5.8c0-0.2,0-0.4,0-0.6c0-0.3,0-0.6,0-1.1
	c0-1.1-0.1-3-0.5-3.8l-0.2-0.4c-0.6-1.2-1.1-2.1-4.1-4.4c-1-0.7-3.6-2.6-6.9-5.1c-9.1-6.7-23-16.9-25.7-19c-3.3-2.5-6.4-5.4-9.1-8.7
	c-1.1-1.4-24.4-31.3-25.6-33.8c-1.2-2.6-1.9-5.6-2-8.5c-0.1-0.8-0.1-1.6-0.2-2.4c-0.2-3-0.4-5.3-0.2-7.4c0.2-2.4,0.9-4.6,2.1-6.7
	c0.6-1.3,2.3-4.9,3.7-8.1c1.2-2.6,2.3-5.2,2.8-6c0.7-1.6,1.3-5,1.6-6.6c0.1-0.4,0.1-0.7,0.2-1c0.3-1.5,2.4-12.8,2.5-14.5
	c0.4-3.9,0.4-7.9,0.2-11.8l-0.1-0.8c-0.4-5.1-0.8-12-1-14.8c-0.4-4.3-1.2-8.6-2.4-12.7c-1.7-5.4-3.6-10.9-5.8-16.1
	c-2-4.6-15.1-37.6-17.1-43.5c-1.8-5.1-6.3-9.5-8.2-11.5l-0.4-0.4c-1.5-1.5-7.3-5.7-13-8.3c-1.6-0.7-3.1-1.4-4.6-2
	c-3.9-1.7-7.4-3.2-9.5-4.9c-3-2.3-4.3-4.4-4.5-7.3c-0.2-2.6,1.1-7.5,5.2-9.5c1.7-0.8,7.5-3,13.8-5.3c6.8-2.5,14.5-5.4,16.6-6.5
	c3.4-1.8,5.5-3,6.2-3.9c0.7-0.8,5.9-5.7,8-6.8c0.9-0.4,2.2-1.2,3.5-1.9c1.5-0.8,2.7-1.6,3.2-1.8c0.7-0.4,3.9-3.2,5.2-4.5l0.2-0.2
	c1.1-1,3.5-3.4,5.8-5.6c1.7-1.7,3.2-3.2,3.9-3.9c2.5-2.5,5-4.8,7.7-7c2.5-1.8,9.3-7.4,10.4-8.5s5.8-5.8,7.8-9.2
	c2.1-3.5,7.2-15.3,8.3-18c0.2-0.4,0.3-0.7,0.4-1c1-2.1,1.6-3.5,1.3-9.6c-0.3-2.9-0.3-5.8-0.2-8.8c0.4-4.1,2.8-7.5,6.4-9.4
	c4.2-2.3,4.6-2.8,5-3.5c0.5-1,2.2-3.6,1.8-5.2c-0.4-1.2-1.1-2.3-2-3.1l-0.3,0.2c-1.2-1.4-1.9-3.2-1.9-5.1c0.1-1.8,0.7-3.4,1.8-4.8
	l0.1-0.1c0.6-0.6,9.2-8.2,11.8-9.8c1.8-1.1,6-4.1,8.6-6c0.9-0.6,1.7-1.2,2-1.5c1.2-1,2.4-2.1,3.3-3.3l0.4-0.4
	c1.5-1.7,5.3-6.2,7.7-8.3c1-0.8,2.7-2.5,4.9-4.5c3.4-3.2,7.8-7.2,10.1-9c3.1-2.5,5.8-5.4,8.1-8.7c1.1-1.4,1.9-2.5,2.8-3.7
	c1-1.3,1.9-2.5,2.9-3.8c1.3-1.8,2.3-3.9,2.8-6.1c0.7-2.5,0.6-5.2-0.1-7.6c-0.6-2.3-1.4-6.2-2.2-9.7c-0.6-2.8-1.1-5.5-1.4-6.4v-0.1
	c-0.4-1.8-1.5-3.2-3.1-4c-2.1-1.2-3.9-1-5.8-0.7h-0.1c-2.1,0.3-5.2,0.6-9.9-2.3c-4.3-2.7-12.9-9.1-13.8-10c-2.5-2-3.6-4.4-3.4-6.9
	c0.3-3.9,1.6-5.5,5.6-7.3c5.1-2.3,11.3-5.3,13.8-6.8c3.6-2.4,7.1-5,10.3-7.9c2.6-2.5,2.6-3.2,2.9-5.9c0.1-1.1,0.1-1.9,0.2-2.5
	c0.1-1.2,0.1-2,0.4-2.9l0.1-0.2c1.4-2.7,3.1-5.4,4.9-7.9c0.6-0.8,1.2-1.8,1.8-2.7c1.4-2.1,2.6-4,3.9-5c1.5-1.5,3.2-2.6,5.1-3.4
	l0.2-0.1c2.7-1.3,4.3-2.1,8.1-1.8h0.1c3.5,0.4,6.9,0.7,11.2,3.7c4.1,2.9,18.5,13.1,19.4,13.9c0.1,0.1,0.2,0.2,0.3,0.3
	c1.1,0.8,3.3,2.5,4.4,7.3c0.9,4.2,3.7,3.9,4.2,3.9c0.5-0.1,1.3-0.4,2.4-2.5l0.1-0.3c1.1-2,2.8-5.4,9.7-6c6.6-0.5,25.5-1.3,27.7-1.3
	c0.4,0,0.8,0,1.1,0c1.6-0.1,3-0.2,6.6,0.9l1.4,0.4c4.3,1.2,10.8,3.2,12.8,3.4h0.1c2.1,0.4,4.2-0.3,5.5-1.9c2.1-2.4,4.6-6.9,4.9-8.8
	c0.5-2.8,0.7-5.6,0.6-8.5c0-0.4-0.1-0.8-0.1-1.2c-0.3-2.5-0.6-5.8,3.5-8.1c4.2-2.5,22-8.7,29.7-10.6c8.8-2,23.6-4.9,30.9-6.1
	c5.5-1,5.6-1,6.1-1.1c0.2,0,0.4-0.1,1-0.2c1.8-0.4,3.4-1.1,4.8-2.1c1.4-1.1,16.4-11.9,18.7-13.4c2.3-1.4,5.1-3.2,8.7-3.1
	c3.9,0.2,7.1,2,8.3,4.7c1.2,2.6,1.8,8.2,1.8,9.9c0,1.8-0.4,6.2-0.9,9.5v0.4c-0.5,4-1.7,13.3-1,20.2c0.3,2.4,0.3,4.2,0.4,6
	c0.1,3.9,0.2,7.4,2.3,13.9c0.7,1.8,1.2,3.3,1.6,4.4c0.9,2.5,1.1,3,1.6,3.6c0.2,0.2,0.4,0.5,0.7,1c1.4,2,4.7,6.7,6.7,8.2
	c4.1,3.7,8.6,6.9,13.3,9.6c2.5,1.3,9.5,4.5,12.4,5.8l1.2,0.5c1.1,0.5,3.4,1.5,5.7,2.5c1.5,0.6,3,1.3,4,1.8c2.3,1,6.1,1.4,11.4,1.2
	c5.5-0.2,12.1-0.3,15.2-0.2c3.5,0.1,13.1,1.4,16.2,1.9c1.5,0.3,5.3,0.8,9.3,1.3c4.6,0.6,9.4,1.3,10.9,1.6c2.3,0.4,5.3,1.4,8.6,2.5
	c0.9,0.3,1.8,0.6,2.7,0.9c1.1,0.4,2.2,0.7,3.4,1.1c3.2,1,6.3,1.9,9.5,3.2c4.3,1.8,9.3,4.9,11.6,7.4c2.5,2.6,5.4,5.1,8.5,7.2
	c2.2,1.3,14.8,8.2,18,9.5c3.1,1.3,4.6,1.7,6.5,1.5c3.2-0.2,6.4-0.8,9.5-1.7c3.1-1,13-6.4,15.2-7.7c2.3-1.3,14.1-9.9,17.6-13
	c1.2-1.1,2.2-2,3.1-2.8c1.6-1.5,2.6-2.5,3.9-3.1c2.6-1,5.3-1.7,8.1-1.9c1.1-0.2,3-0.4,5-0.8c3.9-0.6,8.5-1.3,10.1-1.4
	c2.3,0,4.5-0.2,6.7-0.5c0.4-0.1,0.9-0.2,1.4-0.4c2.1-0.5,5-1.2,6.4-1.7c2.5-0.9,5.9-1.1,7.8,0.9c1.7,1.7,3.2,3.3,3.2,5.6
	c0.1,1.8,0.3,6.2-3.6,9.4c-3.1,2.5-8.5,6.6-11,7.8c-2,1.1-3.9,2.5-5.4,4.3c-1.7,1.8-3.5,3.2-5.5,4.5l-0.1,0.1
	c-0.6,0.3-1.8,1.2-3.1,2.1c-1.5,1.1-3.1,2.2-4.1,2.7c-2.1,1.1-3.6,1.9-4.3,2.3c-1.5,0.8-2.2,2.4-1.8,3.9c0.4,1.6,1.9,2.7,3.6,2.7
	c0.5,0,2.8-1,3.2-2.5c0.7-2.5,1.9-5.9,4.5-7.9l0.3-0.2c2.5-2,6.1-5,8.2-6c1.4-0.7,3.3-1.2,5.7-1.9c1.2-0.4,2.6-0.7,4.2-1.2
	c2-0.6,4.8-1.4,7.5-2.2c3-0.9,6-1.8,6.7-2h0.1c2.3-0.7,4.7-1.1,7.1-1.1c0,0,0,0,0.1,0c3-0.1,6-0.4,8.8-1.1c1.3-0.4,2.7-1.5,3.8-2.4
	c0.5-0.4,1-0.8,1.3-1c0.4-0.3,1.8-1.3,3.2-2.4c1.1-0.9,2.4-1.8,3.4-2.6c1.8-1.3,3.5-2.9,4.8-4.7c0.3-0.4,1-1.3,1.9-2.8
	c1.1-1.6,2.5-3.6,3.2-4.5c1-1.3,1.4-2.8,1.5-4.3c-0.2-2.5-0.5-4.9-1.1-7.3c-0.5-2.6,0-5.3,1.6-7.4l0.9-1.2c1.9-2.8,5.5-8.1,6.6-9.6
	c1.2-1.8,2.9-3.2,5-4c2-0.7,4.1-0.8,6.1-0.4c1.8,0.4,3.2,1.3,4.1,1.9c0.3,0.2,0.5,0.4,0.7,0.4l0.1,0.1c2.3,1.4,4.6,2.6,7.1,3.8
	c1.4,0.5,3.9,1,5.7,1.3c1.6,0.3,2.3,0.4,2.6,0.6c0.3,0.1,1.8,0.6,3,1c1.6,0.4,3.2,1,3.9,1.3c0.4,0.2,1.1,0.4,1.8,0.6
	c2.7,0.9,4.9,1.6,5.9,2.4c0.2,0.1,0.4,0.3,0.5,0.4c1.7,1.2,4.7,3.5,6.1,6.4c1.3,2.7,3.2,5.2,5.4,7.2c2.1,1.3,4.4,2.5,6.7,3.2
	c1.7,0.2,3.3,0.4,5.1,0.3h0.1h0.1c2.5,0.3,4.7,1.3,6.4,3c1.8,1.8,11.5,13.3,13.5,16.5c1.6,2.7,2.2,5.8,1.7,8.8v0.1
	c-0.5,2.1-1.3,4-2.4,6c-1.8,3.2-3.3,6.5-4.6,9.9c-1.1,2.7-1.9,5.5-2.6,8.3c-0.4,2,1.3,4.9,3.2,6.7l0.3,0.3c1.7,1.7,3.8,3.8,7.1,4.8
	c2.5,0.8,5,1.3,7.6,1.7c3.4,0.2,6.7,4.1,6.8,6.5c0.2,1.8,1.6,16.8,1.7,20.2c0.2,3.2-0.6,6-2.3,7.8c-2.2,2.5-5.3,2.9-7,3
	c-3.9,0.2-7.7,0-11.6-0.6c-4.8-0.8-6-1-11.8-1.8c-8.4-1.2-9.6,2.6-10.2,4.5l-0.1,0.4c-0.2,0.5-0.4,1.1-0.4,1.8
	c-0.3,1.2-0.6,2.5-1.2,3.6c-1.1,1.9-9.9,12.4-10,12.5c-2,2.4-4.5,7.8-5.6,10.9c-1.9,5.3-1.8,6-1.8,7.4c0,0.2,0,0.4,0.1,0.5
	c0.1,1.4,0.4,3.9,0.6,6.1l0.3,2.4c0.3,2.5,0.1,4.9-0.4,7.4c-0.3,2.5-0.3,5.2-0.2,7.8v0.6c0.1,2.3,0.4,6.6-0.2,9.7
	c-0.6,3.8-4.9,8.6-7.6,10.3c-4.7,3.2-9.6,3.9-12.5,4.3c-0.4,0.1-0.6,0.1-0.9,0.1c-2.3,0.4-5.1,0.8-6.8,2.5c-0.6,0.6-2.1,2-3.9,3.7
	c-3.8,3.5-9.4,8.8-10.6,10.3c-3.4,4.2-6,8.8-8.1,13.8l-0.4,1c-1.1,2.5-3.1,6.7-5.4,9.5c-0.4,0.4-0.7,0.9-1.1,1.3c-2,2.5-3.8,4.6-7,6
	c-1.8,0.8-3.2,1.3-4.5,1.8c-1,0.4-1.8,0.6-2.1,0.9c-2,1.3-3.9,2.7-5.7,4.2c-0.1,0.1-0.3,0.3-0.4,0.4c-1.5,1.5-4.2,4.2-11.1,5.7
	c-3.6,0.7-6.5,1.2-8.8,1.6c-2.6,0.4-4.6,0.7-5.9,1.1c-1.6,0.5-5.6,2-9.5,3.5c-2.9,1.1-6,2.3-7.9,3c-4.6,1.7-9.6,2.1-16.2,2.6
	c-6.8,0.9-11.6-4-13.8-6.4c-0.4-0.4-0.7-0.8-0.9-0.9l-0.2-0.1l-0.1-0.1c-0.4-0.4-0.8-0.8-1.2-1.2c-1.8-1.9-3.9-3.9-6.7-4.7
	c-5.2-1.5-10.8,2.6-13.4,4.6c-0.5,0.4-1,0.7-1.3,1c-0.6,0.4-1.6,1-2.7,1.6c-2.5,1.5-6,3.5-7.6,4.8c-4.6,3.4-3.6,5.6-3.2,6.5
	c0.4,1,4.6,6.1,5.9,7.4c2.1,2.1,5.4,4.1,9.7,6c6.2,2.5,15.9,6.1,18.1,6.9c0.9,0.3,1.5,0.4,1.9,0.6c1,0.3,1.7,0.4,2.9,1.1
	c2.3,1.1,4,2.9,5.6,5.9c0.8,1.5,1.5,2.6,2,3.5c0.5,1,1,1.7,1.2,2.2c0.5,1.2,2.2,7.7,2.7,10.3c0.5,2.8,0.6,5.7,0.3,8.5v0.2
	c-1.1,4.3-3.3,10.2-8.3,13.5c-1.1,0.7-3.1,1.8-4.8,2.7c-1.1,0.5-1.9,1.1-2.5,1.4c-0.8,0.4-15.3,8.5-32.2,17.8
	c-20.9,11.6-44.7,24.7-48,26.6c-2.4,1.3-14.3,8.2-28.1,16.2c-21.9,12.6-46.7,26.9-48.4,27.9c-2.8,1.5-22,13.1-22.2,13.2
	c-4.2,2.5-15.2,9-27.9,16.6c-20.2,11.9-43.2,25.4-46.8,27.7l-0.2,0.1c-5.7,3.6-7.8,5-15.6,14.2c-6.2,7.3-14.5,16.6-18.9,21.6
	c-1.3,1.4-2.2,2.5-2.5,2.9c-2,2.4-5.2,6.4-5.8,7.9c0,0.1-3.4,8.6-6.9,12.1c-2.8,2.9-10.5,10-12.1,11.4c-2,1.8-3.6,3.9-4.6,6.4v0.1
	c-1,2.8-1.8,5.3-5.2,6.5c-2.7,1-4.4,0.4-5.6,0.1c-0.3-0.1-0.5-0.2-0.9-0.3c-0.3-0.1-0.4-0.1-0.7-0.2c-1.1-0.3-2.3-0.7-6.4,2.3
	l-0.5,0.4l-3.8,2.5c-5.3,3.6-10.3,7.6-15,11.9l-6.3,6c-1.1,1.1-2.7,2.6-3.3,3.2c-0.7,0.7-7.1,6.7-13.8,13.2
	c-7.7,7.4-15.8,15.2-17.3,16.5c-2.8,2.5-17,16.8-18.3,18.1c-0.1,0.1-0.3,0.3-0.5,0.5c-1.9,2-7.2,7.4-11.9,10.9
	c-5.4,4-12.4,8.4-14.7,9.8c-2.5,1.6-4.4,2.4-5.9,1.4l-0.4-0.2l-1.6-3.7c-0.3-1-0.4-2-0.4-3c0-0.4,0.1-0.8,0-1.1
	c-2,0.9-4.9,3.8-5.7,4.9c-1.2,1.8-2,3.8-2.5,5.9l-0.7,3.9c-0.7,3.9-1.3,7.2-1.6,8.5l-0.1,0.4c-0.3,1.6-1.5,4.7-2.4,7.3
	c-0.4,1.1-0.8,2.2-1,2.7c-0.5,1.6-3.8,11-5.3,15.4l-0.5,1.6c-1.8,4.8-1.1,6.7-0.7,7.7c0.9,2,2.3,3.7,4.1,4.8c1,0.7,7,3.7,10.2,5.1
	c1.4,0.6,2.5,1.8,3.1,3.5c0.6,1.8,0.4,4-0.5,5.6c-1.1,1.9-3.8,3.3-6,4.5c-0.2,0.1-0.3,0.1-0.4,0.2l-0.1,0.1
	c-3.2,1.5-12.6,6.5-15.9,8.3c-3.1,1.8-9.4,6.9-12.5,9.7c-3.5,2.7-6.7,6-9.3,9.5c-3.2,4.3-4.9,7-6.7,9.9c-0.4,0.6-0.8,1.3-1.2,1.9
	c-0.6,0.9-1.1,1.7-1.5,2.3c-1.3,2-1.9,3.1-3.2,3.8l-0.1,0.1C663.4,983.8,662,984,661,984z"/>
</svg>
