<?xml version="1.0" encoding="utf-8"?>
<!-- Generator: Adobe Illustrator 27.0.1, SVG Export Plug-In . SVG Version: 6.00 Build 0)  -->
<svg version="1.1" id="Touristenfahrten" xmlns="http://www.w3.org/2000/svg" xmlns:xlink="http://www.w3.org/1999/xlink" x="0px"
	 y="0px" viewBox="0 0 1920 1080" style="enable-background:new 0 0 1920 1080;" xml:space="preserve">
<style type="text/css">
	.st0{fill:none;stroke:#FFFFFF;stroke-width:30;stroke-miterlimit:10;}
</style>
<path class="st0" d="M696.6,1004c-3.7,0-7.3-0.9-10.6-2.6c-4.3-2.1-7.5-3.9-10.4-5.6c-1.9-1.1-3.5-2-5.4-3c-5.7-3-9.6-4.6-12.1-5.1
	c-1.6-0.3-5.1-0.7-8.6-1.1c-2.8-0.3-5.7-0.7-7.7-0.9c-3.3-0.5-4.7-0.6-5.6-0.7l-0.8-0.1h-0.1c-3.6-0.5-7.5,0.6-11.4,3.1H624h-0.1
	c-1.1,0.5-2.2,0.8-3.4,0.8c-6.5,0-12.6-7.3-14-9c-1.7-2.2-5.2-9.6-5.8-11.3c-0.8-1.7-2.1-3.2-3.7-4.3l-0.2-0.1
	c-5.7-3.4-9.1-6.1-10.3-8.2c-1-2-1.7-4.1-2-6.4c-0.1-0.5-0.2-1-0.3-1.5c-0.4-1.1-1.2-3.7-5.2-4.4c-1.7-0.3-4.4-0.9-7.3-1.5
	c-5-1-10.6-2.1-13.3-2.6l-1.1-0.2c-3.8-0.7-7.4-1.3-10.1-5c-1.7-2.1-2.5-4.8-2.4-7.5c0-0.3,0-0.6,0-0.9s0-0.8,0-1.4
	c0-1.7-0.1-4.2-0.8-5.6l-0.2-0.5c-0.9-1.7-1.7-3-5.8-6.1l-10.5-7.6c-12.1-8.9-30.4-22.3-34-25.1c-4.5-3.5-8.7-7.4-12.4-11.7
	c-2.6-3.3-33.2-42.7-34.7-45.9c-1.5-3.3-2.3-5.8-2.6-11.3c-0.1-1.1-0.1-2.2-0.2-3.3c-0.3-3.3-0.4-6.7-0.2-10
	c0.4-3.9,1.3-5.8,2.8-8.9c1-2,3.8-8.3,6-13.2l2.8-6.1c1-2.3,1.9-6.9,2.2-9.3c0.1-0.5,0.2-0.9,0.2-1.2c0.4-2.4,3.2-17.5,3.4-19.9
	c0.4-5.4,0.5-10.8,0.2-16.2c-0.4-6-1.1-17.1-1.4-21.2c-0.6-5.9-1.7-11.8-3.2-17.5c-2.2-7.5-4.9-14.9-7.9-22.1
	c-2.8-6.6-20.6-51.3-23.3-59.3c-2.4-7.1-8.7-13.3-11.3-15.9c-0.2-0.2-0.4-0.4-0.6-0.6c-2.1-2.1-10.1-7.9-17.8-11.4
	c-2.1-1-4.2-1.9-6.2-2.8c-5.3-2.3-9.9-4.3-12.8-6.5c-3.9-3-5.6-5.7-5.8-9.4c-0.2-3.4,1.4-9.8,6.7-12.4c2.2-1.1,10.1-4.1,18.5-7.2
	c9.4-3.5,20.1-7.5,22.9-9c4.9-2.5,7.6-4.2,8.7-5.4c1.1-1.2,8-7.7,10.6-9.1c1.1-0.6,2.9-1.6,4.6-2.6c2.1-1.2,3.9-2.2,4.5-2.5
	c0.9-0.4,4.9-4.1,6.8-5.8l0.7-0.6c1.4-1.3,5-4.8,8.1-7.9c2.1-2.1,4.2-4.1,5.1-5l1.4-1.3c2.9-2.9,6-5.7,9.2-8.2
	c3.2-2.4,12.6-10.1,14.2-11.6c1.9-1.7,8-8.1,10.7-12.7c2.8-4.8,9.8-20.8,11.4-24.6c0.2-0.5,0.4-0.9,0.6-1.3c1.3-3,2.2-4.9,1.9-13.5
	c-0.3-4-0.4-7.9-0.2-11.9c0.5-5.2,3.6-9.8,8.3-12.1c6-3.1,6.5-3.9,7.2-5.1l0,0c0.8-1.3,3.1-5.1,2.4-7.5c-0.5-1.7-1.4-3.2-2.7-4.3
	c-0.1-0.1-0.2-0.2-0.3-0.3c-3.3-3.6-3.4-9.1-0.2-12.8c0.7-0.7,12.4-11.2,16-13.3c2.5-1.5,8.3-5.7,11.8-8.2l2.8-2
	c1.5-1.1,2.8-2.4,3.9-3.8l0.8-0.9l0.9-1c2.3-2.6,7-8.1,10-10.7c1.2-1,3.5-3.1,6.1-5.6c4.9-4.5,11-10.2,14.2-12.7
	c4.2-3.5,8-7.6,11.1-12.1c1.2-1.6,2.2-3,3.3-4.3c1.5-2,3-3.9,4.4-5.9c1.8-2.6,3.1-5.6,3.9-8.7c0.9-3.5,0.9-7.3-0.1-10.8
	c-0.8-3-1.9-8.4-2.9-13.2c-0.8-3.8-1.6-7.4-1.9-8.7c-0.8-2.8-1.7-4.4-4.5-6.1c-3-1.7-5.8-1.3-8.2-1.1h-0.1c-2.8,0.3-6.9,0.9-13-3
	c-6.2-3.9-17.7-12.6-18.8-13.5c-1.1-0.8-2-1.8-2.8-3c-1.2-1.7-1.8-3.8-1.6-5.9c0-2,0.6-3.9,1.7-5.6c1.1-1.4,2.7-2.6,5.6-3.8
	c3.4-1.5,14.7-6.6,18.9-9.4c4.9-3.2,9.6-6.8,14.1-10.8c3.8-3.6,3.9-4.7,4.2-8.5c0.1-1.5,0.2-2.6,0.2-3.5c0-1.3,0.1-2.6,0.5-3.8
	c0.6-1.8,4.3-7.7,6.6-10.8c0.8-1.1,1.7-2.4,2.5-3.7c1.9-2.8,3.6-5.5,5.1-6.7l0.9-0.8c1.7-1.6,3.7-2.8,5.8-3.8l0.5-0.2
	c3.6-1.8,5.6-2.8,10.5-2.2h0.3c4.7,0.5,9.1,1.1,14.9,5c5.4,3.7,25.2,17.8,26.5,18.9l0.4,0.3c1.5,1.1,4.3,3.2,5.7,9.5
	c1.4,6.5,6,5.9,6.5,5.8c1.3-0.2,2.4-1.4,3.7-3.8l0.2-0.4c1.5-2.8,3.7-7,12.7-7.6c8.8-0.7,34.7-1.8,37.7-1.8c0.6,0,1.1,0,1.7-0.1
	c2-0.1,3.9-0.2,8.7,1.2c7.6,2.3,16.7,4.9,19.5,5.2c3,0.4,5.6,0.1,8.3-3c3-3.3,6.3-9.6,6.8-12.2c0.7-3.8,1-7.7,0.9-11.6
	c0-0.6-0.1-1.2-0.1-1.8c-0.4-3.5-0.8-7.4,4.4-10.5c5.7-3.4,29.9-11.8,40.3-14.3l0,0c12.1-2.8,32.2-6.7,42.1-8.3
	c7.5-1.3,7.7-1.3,8.4-1.5l1.4-0.3c2.5-0.5,4.8-1.5,6.9-3c1.2-1,22-16.1,25.4-18.3c3-1.9,6.7-4.3,11.4-4c2.2,0.1,4.4,0.7,6.3,1.7
	c1.9,0.9,3.5,2.5,4.4,4.4c1.6,3.4,2.6,11,2.6,13.2c0,2.3-0.6,8.2-1.2,12.9c-0.6,5-2.3,18.4-1.3,28.2c0.3,3.1,0.4,5.6,0.4,8.1
	c-0.1,6.6,0.9,13.1,3.1,19.3c0.9,2.5,1.6,4.4,2.2,5.9c1.2,3.4,1.5,4.3,2.3,5.3c0.2,0.3,0.5,0.7,0.8,1.2c2,2.8,6.5,9.3,9.3,11.5
	c0.6,0.5,1.2,1,1.9,1.6c5.1,4.4,10.6,8.3,16.3,11.7c3.3,1.9,12.3,5.8,16.6,7.7l2,0.9c1.4,0.6,4.6,2,7.7,3.3l5.6,2.4
	c3.2,1.4,8.5,2,15.8,1.8c7.5-0.2,16.4-0.3,20.8-0.2c4.7,0.1,17.9,1.9,22,2.7c2,0.3,7,1,12.3,1.8c6.4,0.9,13.1,1.8,15.2,2.2
	c4.2,1,8.4,2.2,12.6,3.7l2.8,0.9c1.6,0.5,3.3,1,5,1.5c4.1,1.2,8.3,2.5,12.6,4.2c5.8,2.4,12.5,6.6,15.5,9.9c3.5,3.7,7.4,6.9,11.7,9.8
	c3.1,1.9,20.4,11.3,24.6,13.1s6.4,2.3,9.2,2.1c4.4-0.3,8.7-1,13-2.3c4.3-1.4,17.8-8.8,20.9-10.6c3.1-1.8,19.4-13.6,24.1-17.7
	c1.7-1.5,3.1-2.8,4.2-3.9c2.1-2,3.5-3.3,5.2-4c3.5-1.3,7.1-2.2,10.8-2.6c1.5-0.2,4.1-0.6,6.8-1c5.4-0.8,11.6-1.8,13.8-1.9l1.4,0
	c2.6,0,5.2-0.2,7.7-0.7l2.3-0.6c2.8-0.7,6.7-1.6,8.6-2.3c3.2-1.1,7.5-1.4,9.9,1c2.1,2.2,4.1,4.4,4.3,7.2c0.1,2.2,0.4,8.2-4.7,12.2
	c-4.1,3.3-11.6,8.9-14.8,10.6c-2.8,1.6-5.4,3.6-7.7,6c-3.1,3-5.4,5-7.4,6c-1.5,0.9-3,1.9-4.4,2.9c-1.8,1.3-3.6,2.5-5.5,3.6
	c-2.6,1.4-4.8,2.5-5.9,3.2c-0.8,0.5-1.6,1.2-2.1,2c-0.8,1.2-1,2.7-0.6,4.1c0.7,2.5,3,4.2,5.6,4.3c1,0,4.4-1.4,5.1-3.8
	c0.9-3.2,2.6-7.8,5.9-10.4c4.2-3.4,8.8-7.1,11.4-8.5c2.4-1.1,5-2,7.6-2.6c1.7-0.5,3.6-1,5.7-1.7c2.7-0.9,6.6-2,10.3-3
	c4.2-1.2,8.3-2.4,9.2-2.8c3.1-1,6.4-1.5,9.7-1.5c4.1-0.1,8.2-0.6,12.2-1.4c2-0.5,4-2.1,5.5-3.3c0.5-0.5,1.1-0.9,1.7-1.3
	c0.7-0.4,2.7-1.9,4.7-3.5c1.5-1.1,3-2.3,4.3-3.3c2.5-1.8,4.8-4,6.8-6.5c0.3-0.5,1.2-1.8,2.6-3.8c1.6-2.2,3.5-5,4.3-6.2
	c1.3-2.1,2.2-3.9,2.2-6.2c-0.2-2.9-0.6-5.8-1.2-8.7l-0.3-1.4c-0.7-3.3,0-6.8,2-9.5l2.3-3.4c2.6-3.8,6.5-9.6,7.8-11.5
	c1.6-2.4,3.8-4.2,6.5-5.3c2.6-0.9,5.3-1.1,8-0.5c1.9,0.5,3.8,1.4,5.4,2.5c0.4,0.3,0.8,0.5,1,0.6c0.2,0.1,0.9,0.5,1.7,0.9
	c2.6,1.6,5.2,2.9,8,4.2c2.6,0.8,5.3,1.4,8,1.9c1.2,0.2,2.3,0.4,3.4,0.8c0.4,0.2,2.3,0.8,4,1.3c2.1,0.7,4.3,1.4,5.4,1.8
	c0.5,0.2,1.5,0.5,2.6,0.9c3.5,1.1,6.5,2.2,7.8,3.1l0.7,0.5c2.2,1.6,6.4,4.6,8.2,8.5c1.8,3.9,5.8,8.7,7.6,10c2,1.4,7.4,4,9.5,4.4
	c1.7,0.3,3.4,0.4,5.1,0.4c0.7,0,1.4,0,2,0.1c3.2,0.3,6.1,1.6,8.4,3.8c2.5,2.5,15.6,18.1,18.3,22.3c2.1,3.5,2.8,7.7,2.1,11.7
	c-0.7,2.8-1.8,5.5-3.2,7.9c-1.6,2.4-4.9,9.6-6.3,13.5l-0.3,1c-1.3,3.4-2.4,6.9-3.3,10.5c-0.8,3.5,2.4,7.9,4.4,9.9l0.4,0.4
	c2.3,2.3,5.2,5.2,9.9,6.7c3.4,1.1,7,1.9,10.5,2.3c4.3,0.2,8.4,5.2,8.7,8.3v0.2c0.6,6.9,2.1,23.2,2.2,27.2c0.3,4.3-0.8,7.8-3,10.2
	c-2.9,3.1-6.9,3.7-9.1,3.8c-5.2,0.3-10.5,0-15.6-0.8c-5.7-0.9-7.6-1.2-13.1-2.1l-2.9-0.4c-5.3-0.8-9.2-0.2-11.7,1.8
	c-1.5,1.3-2.6,3-3,4.9c0,0.2-0.1,0.3-0.1,0.4c-0.3,0.8-0.5,1.6-0.7,2.5c-0.3,1.7-0.9,3.3-1.6,4.8c-1.3,2.3-11.2,14.2-13.5,17
	c-2.6,3.1-5.9,10-7.7,15c-2.7,7.4-2.6,8.4-2.4,10.4c0,0.2,0,0.4,0.1,0.7c0.1,1.9,0.5,4.8,0.8,7.8c0.1,1.3,0.3,2.6,0.4,3.8
	c0.3,2.9,0.2,5.8-0.4,8.7c-0.1,0.4-0.1,0.8-0.2,1.2c-0.3,3.6-0.4,7.2-0.2,10.8c0,0.3,0,0.6,0,0.9c0.2,3.1,0.4,8.8-0.3,13.1
	c-0.5,2.9-2.5,5.9-4.1,7.9c-1.7,2.2-3.7,4.1-6,5.6c-6.4,4.4-12.9,5.3-16.8,5.8l-1.2,0.2c-3.4,0.5-7.2,1.1-9.7,3.7
	c-0.9,0.9-2.9,2.8-5.5,5.2c-5.4,5-12.7,11.9-14.4,14c-4.3,5.3-7.8,11.1-10.3,17.4c-0.3,0.6-0.5,1.2-0.7,1.7l-0.6,1.3
	c-1.5,3.4-4.1,9-7.3,12.8c-0.5,0.6-1,1.2-1.5,1.8c-2.7,3.3-5.1,6.2-9.3,8.1c-2.4,1.1-4.4,1.8-6,2.4c-1.1,0.3-2.1,0.8-3.1,1.3
	c-2.7,1.8-5.3,3.7-7.8,5.7c-0.2,0.2-0.4,0.4-0.6,0.6c-1.9,2-5.6,5.6-14.8,7.6c-4.8,1-8.8,1.6-12.1,2.1c-2.7,0.3-5.4,0.9-8.1,1.6
	c-2.1,0.7-7.4,2.7-12.6,4.6c-4.1,1.6-8.4,3.2-11.1,4.1c-6.1,2.2-13,2.9-21.9,3.6c-0.7,0.1-1.4,0.1-2,0.1c-7.9,0-13.5-5.8-16.3-8.7
	c-0.4-0.5-0.8-0.9-1.3-1.3l-0.1-0.1l-0.1-0.1c-0.6-0.5-1.1-1.1-1.7-1.7c-2.6-2.7-5.3-5.5-9.5-6.6c-7.4-2.1-15.2,3.7-18.8,6.5
	c-0.7,0.5-1.3,0.9-1.7,1.2c-0.9,0.6-2.2,1.4-3.8,2.3c-3.4,2-8,4.8-10.3,6.6l0,0c-2.9,2.1-4.5,4.2-5,6.2c-0.2,1.2-0.1,2.4,0.5,3.4
	c0.7,1.5,6.5,8.6,8.2,10.3c2.9,2.9,7.6,5.7,13.5,8.2c8.2,3.4,21.4,8.3,24.8,9.4c1.2,0.4,2,0.6,2.7,0.8c1.3,0.3,2.6,0.8,3.8,1.4
	c3.1,1.5,5.3,3.8,7.4,7.7c1.1,2,2,3.5,2.8,4.7c0.6,1,1.2,2,1.7,3.1c0.6,1.5,2.8,10.1,3.6,13.8c0.7,3.8,0.8,7.7,0.3,11.5v0
	c-1.4,5.8-4.5,13.6-11,18c-1.5,1-4.4,2.6-7.1,4.1c-1.1,0.6-2.2,1.2-2.9,1.6c-0.9,0.5-15.3,8.5-33.5,18.5
	c-29.8,16.5-70.6,39.1-75.7,42c-3.4,1.9-21.4,12.3-42.3,24.3c-28.1,16.2-59.9,34.5-62.1,35.7c-3.8,2.1-30,17.9-30.2,18l0,0
	c-5,3-17.3,10.2-31.5,18.6c-29,17.1-65.1,38.4-70.4,41.7l-0.4,0.2c-7.5,4.8-10.7,6.8-21.3,19.4c-8.9,10.5-21.4,24.7-26.8,30.7
	l-2.5,2.9c-2.3,2.7-7,8.6-7.9,10.9c-1.2,3-5.4,12.3-9.3,16.2c-3.9,3.9-14.2,13.6-16.5,15.5c-1.8,1.5-5.2,5.1-6.5,9l-0.1,0.4
	c-1.3,3.7-2.3,6.6-6.6,8.2c-2.3,0.9-4.8,1-7.1,0.1c-0.4-0.1-0.9-0.3-1.3-0.3c-0.3-0.1-0.7-0.1-1-0.2c-1.5-0.4-3.4-0.9-9.3,3.2
	c-7,5.1-7.8,5.4-10.3,4.7h-0.1c-2.3-0.7-7.5-4.6-8.8-5.9l-1.3-1.1c-3.5-3.2-11.7-10.6-13.9-13.7c-1.4-2.1-4-5.9-6.1-9
	c-1.4-2.1-2.5-3.8-2.9-4.3c-0.8-1.1-2-1.8-3.3-2c-1.6-0.1-3.4,1-5.2,3.2c-3,3.8-5.5,8-7.6,12.5c-1,2-1.9,3.9-3,5.7
	c-3.2,5.2-5.6,8.6-13.6,12.7l-1.6,0.8c-6.6,3.4-9.3,4.8-13.3,6.1C701.3,1003.6,699,1004,696.6,1004z"/>
</svg>
