<?xml version="1.0" encoding="utf-8"?>
<!-- Generator: Adobe Illustrator 27.0.1, SVG Export Plug-In . SVG Version: 6.00 Build 0)  -->
<svg version="1.1" id="BES_WEC" xmlns="http://www.w3.org/2000/svg" xmlns:xlink="http://www.w3.org/1999/xlink" x="0px" y="0px"
	 viewBox="0 0 1920 1080" style="enable-background:new 0 0 1920 1080;" xml:space="preserve">
<style type="text/css">
	.st0{fill:none;stroke:#FFFFFF;stroke-width:30;stroke-miterlimit:10;}
</style>
<path class="st0" d="M651.6,965.5c-5.3,0-9.3-1.5-12.2-3.1c-7.4-4.2-10.7-11.4-11.2-14.3c-3.3-18.9,8.2-28.5,12.1-31.2
	c12.7-11.6,42-39.4,63.5-59.8c12.3-11.7,22.1-20.9,25.2-23.9c1.2-1.1,2.2-2.1,3.3-3c6.6-6.1,11-10.1,18.4-18.7
	c6.2-7,13.1-19.3,10.9-38.1c-1.7-7-3.1-11.8-4.4-16.1c-2.1-7-3.6-12.1-4.6-21.5c-1.8-15.8,6.7-39.4,9.5-47.1
	c1-2.7,4.1-11.6,8.1-22.9c7.8-22.3,18.6-52.8,20.9-59c2.2-5.9,11.7-33.1,28-80.8l0.7-1.9c1.4-4.1,2.2-6.3,2.7-7.7
	c1-2.8,1-2.8,3.1-9.5c3.3-15.9-9.8-22.7-23.5-28.3c-0.9-0.4-1.7-0.7-2.5-1c-11-4.7-43.9-19.9-53.5-25.6
	c-17.6-11.2-16.7-24.7-16.3-30.5l0.1-0.9c2.6-17.6,9.1-24.1,13.1-28c0.7-0.7,1.3-1.3,1.8-1.9c2.4-2.9,49.9-58.3,56.5-65.2
	c3-3.1,14.2-16.4,26-30.5c13.7-16.2,27.8-33,32.9-38.5c21.6-21.6,34.5-26.1,42.5-27.6c18.4-4.6,148.3-35.2,166.9-39.3
	c9.1-2.1,21.4-4.9,33.2-7.7c12.3-2.9,23.8-5.6,30.6-7.1c10.3-2.2,11.3-4.3,12.3-6.4c0.2-0.4,0.4-0.7,0.6-1.1
	c0.3-0.6,0.8-2.7,1.2-4.4c1.2-5.4,2.9-12.8,7.2-17.7c6.1-7.2,14.4-12.5,21.7-13.9c1.8-0.4,60.1-12.9,68-14.5
	c0.7-0.1,1.4-0.3,2.2-0.5c8.7-1.9,25-5.5,37.9,8.1c6.2,6.2,7.5,18.2,7.6,19.5v0.3c0.3,3.7,1,10.7-4.8,18.6c-3.7,5.1-8.7,9.6-15,15.2
	c-2.8,2.5-6,5.4-9.3,8.5c-8.9,8.7-16.2,15.7-18.6,17.9c-2.8,2.6-26.3,25.1-51.1,49.1c-31.2,30-66.6,64.1-72.8,69.8
	c-9.7,8.9-54.4,53.5-69.1,68.1c-2.2,2.2-3.7,3.7-4.3,4.3s-1.5,1.5-2.7,2.7c-7.8,8-28.3,29.1-46.7,42.7
	c-21.3,15.7-49.3,33.3-58.5,39.1c-9.3,5.8-16,8.8-21,5.4c-4.3-2.9-6.4-12.1-2.7-21.3c0.7-1.7,1.5-4,2.5-6.6
	c3.7-10.1,8.9-24,13.7-30.2c1.1-1.4,2.1-2.6,3-3.7c4.1-5,6.5-8.1,8.7-14.6c2.6-10.1,1.2-20-3.8-27.9c-4.2-6.6-10.7-11.4-17.4-12.7
	c-12.7-1.5-17.2-1.6-34.8,1.3l-3.8,0.6c-15.5,2.5-26.7,4.3-41.6,10.5c-13.8,5.7-14.6,14.1-14.9,17.2c0,0.2,0,0.4-0.1,0.6
	c-0.5,5,0.7,9.1,3.5,12.3c4.7,5.3,12.6,6.6,13.8,6.6c2.5,0,13.7,0.7,20.6,1.3c8,0.7,13.7,3.2,16.9,7.5c4.4,5.9,2.8,13.6,1.9,17.7
	c-0.1,0.6-0.2,1.1-0.3,1.5c-0.7,3.7-8.4,45.2-14,75.5c-2.7,14.2-4.8,25.5-5.3,28.3c-1.1,6.2-5.8,18.8-9.5,29
	c-1.7,4.5-3.1,8.5-3.8,10.7c-2.3,7.1-19.7,56.9-23.6,67.8c-7.4,19.9-4.1,28.6-2.6,32.3c4.9,11.5,12,16.7,16.7,20.1l0.7,0.5
	c4.4,3.2,32.7,16.7,40.7,20.3c5.3,2.3,9.1,6.7,11,12.5c2.2,6.8,1.5,14.9-1.9,20.7c-4,7-14.2,12.6-22.7,16.7
	c-0.6,0.3-1.3,0.7-1.5,0.8l-0.3,0.2c-13,5.8-50.6,26-63.5,33.4c-9.3,5.3-26.2,18.4-50.5,39c-1.2,1.1-2.5,2.1-3.7,3.2
	c-9.7,8.1-19.7,16.5-33.5,35c-13.6,18.3-20.8,29.5-28.4,41.4c-1.2,1.9-2.4,3.8-3.7,5.8c-2.1,3.3-3.9,6.1-5.4,8.6
	c-5.3,8.5-7.7,12.3-12.1,14.7l-0.3,0.1C660.4,964.6,655.6,965.5,651.6,965.5z"/>
</svg>
