<?xml version="1.0" encoding="utf-8"?>
<!-- Generator: Adobe Illustrator 27.0.1, SVG Export Plug-In . SVG Version: 6.00 Build 0)  -->
<svg version="1.1" id="GP_w_out_arena" xmlns="http://www.w3.org/2000/svg" xmlns:xlink="http://www.w3.org/1999/xlink" x="0px"
	 y="0px" viewBox="0 0 1920 1080" style="enable-background:new 0 0 1920 1080;" xml:space="preserve">
<style type="text/css">
	.track-surface{fill:none;stroke:#FFFFFF;stroke-width:30;stroke-miterlimit:10;}
</style>
<path class="track-surface" d="M651.8,965.3c-5.3,0-9.3-1.5-12.2-3.1c-7.4-4.2-10.7-11.4-11.2-14.3c-3.4-18.9,8.1-28.5,12.1-31.2
	c12.7-11.6,42.2-39.6,63.7-60c12.2-11.6,21.9-20.7,25-23.6l3-2.8c6.7-6.2,11.1-10.3,18.7-18.9c6.2-7,13.1-19.3,10.9-38.1
	c-1.7-6.9-3.1-11.8-4.4-16c-2.1-7-3.6-12.1-4.6-21.6c-1.1-10.6,2.1-26.4,9.5-47.1c1-2.6,4-11.3,7.9-22.3
	c7.9-22.5,18.8-53.3,21.1-59.6c2.3-6,12.5-35.4,28.6-82.7c1.4-4.2,2.2-6.3,2.7-7.8c1-2.7,1-2.8,3-9.4c3.3-15.9-9.8-22.7-23.5-28.3
	c-0.9-0.4-1.7-0.7-2.5-1c-11-4.7-43.9-19.9-53.5-25.6c-17.6-11.2-16.7-24.7-16.3-30.5l0.1-0.9c2.5-17.6,9.1-24.1,13-27.9
	c0.7-0.7,1.4-1.3,1.8-1.9c3.7-4.6,50-58.5,56.5-65.2c2.9-3.1,13.9-16.1,25.6-29.9c13.9-16.4,28.2-33.4,33.4-39
	c21.6-21.6,34.5-26.1,42.5-27.6c18.3-4.6,148.2-35.1,166.9-39.3c9-2,21.2-4.9,32-7.4l15.9-3.7c2.4-0.5,9.6-2.2,10.9-4.4
	c0.1-0.2,0.5-0.9-0.1-2.9c-5-16,0.1-20.5,5.8-22.7l0.5-0.2c0.6-0.3,2.5-1.1,4.9-2.2c15-6.7,29.6-13.1,34.7-14.2l46.3-10
	c10-2.1,20.7-4.4,23.8-5c0.7-0.1,1.4-0.3,2.2-0.5c8.7-1.9,25-5.5,37.9,8.1c6,6,7.4,17.3,7.6,19.5v0.2c0.4,3.8,1,10.7-4.8,18.6
	c-3.8,5.2-8.8,9.7-15.2,15.4c-2.7,2.5-5.8,5.2-9.1,8.3c-10.7,10.5-16.5,16-18.6,17.9c-3,2.7-28.7,27.4-55.9,53.6
	c-30.6,29.4-62.2,59.9-68.1,65.3c-11.4,10.5-72.8,71.8-73.4,72.4c-0.5,0.5-1.4,1.4-2.5,2.5c-7.8,8-28.3,29.2-46.9,42.9
	c-20.8,15.3-47.8,32.5-58.5,39.1c-9.3,5.8-16,8.7-21,5.4l-0.3-0.2l-2.2-2.6l-0.2-0.3c-4.2-8.6-5.4-17.2-5.1-22.4
	c0.5-5.1-0.2-6.7-0.4-7c-0.1,0-0.3,0-0.6,0.1c-8.7,2.3-22.4,16.3-25.7,21.3c-4.9,7.4-8.3,15.6-10.1,24.3l-5.1,27.3
	c-2.2,11.8-3.9,20.9-4.4,23.4c-1.1,6.2-5.8,18.9-9.5,29.1c-1.6,4.5-3.1,8.4-3.8,10.5c-2.3,7.1-19.9,57.5-23.5,67.7
	c-7.3,19.9-4.1,28.6-2.6,32.3c4.9,11.5,12,16.7,16.7,20.2l0.6,0.5c4.4,3.2,32.7,16.7,40.7,20.3c5.3,2.3,9.1,6.7,11,12.5
	c2.2,6.8,1.5,14.9-1.9,20.7c-4.6,7.9-17.9,14.4-22.9,16.8c-0.7,0.3-1.2,0.6-1.4,0.7l-0.3,0.2c-13.1,5.9-50.6,26-63.5,33.4
	c-9.2,5.3-26.2,18.4-50.5,39c-1.2,1-2.5,2.1-3.7,3.1c-9.7,8.1-19.8,16.5-33.5,35.1c-13.8,18.6-21,29.9-28.7,41.9
	c-1.1,1.7-2.2,3.5-3.4,5.3c-2.1,3.3-3.8,6.1-5.4,8.5c-5.3,8.5-7.7,12.4-12.2,14.8l-0.3,0.1C660.5,964.4,655.8,965.3,651.8,965.3z"/>
</svg>
