<?xml version="1.0" encoding="utf-8"?>
<!-- Generator: Adobe Illustrator 27.0.0, SVG Export Plug-In . SVG Version: 6.00 Build 0)  -->
<svg version="1.1" id="Layer_1" xmlns="http://www.w3.org/2000/svg" xmlns:xlink="http://www.w3.org/1999/xlink" x="0px" y="0px"
	 viewBox="0 0 1920 1080" style="enable-background:new 0 0 1920 1080;" xml:space="preserve">
<style type="text/css">
	.st0{fill:none;stroke:#231F20;stroke-width:20;stroke-miterlimit:10;}
</style>
<path class="st0" d="M1389.5,183.5v-0.5c-0.2-2-2.1-20.3-11.6-29.8c-19.7-20.8-44.6-15.3-57.9-12.4c-1.2,0.3-2.3,0.5-3.4,0.8
	c-6.1,1.2-31.2,6.6-55.5,11.8l-51.7,11.2c-7.9,1.7-30.9,11.8-51.8,21.1c-4.3,2-7.8,3.5-8.7,3.8l-0.6,0.3
	c-8.7,3.4-16.7,10.2-8.9,34.8c0.8,3.1,0.3,4,0,4.4c-2,3.4-13,6-16.5,6.7l0,0c-0.5,0.2-1.1,0.2-1.7,0.3l-19.4,4.6
	c-17.6,4.1-41.9,9.8-52.1,12.1c-28.1,6.3-226.5,53-255.1,60.1c-12.1,2.3-31.9,9.3-65,42.2c-7.9,8.4-29.5,34.1-50.3,58.8
	c-18,21.5-35.2,41.7-39.7,46.6c-10.2,10.7-82.7,95.4-86.3,99.6c-0.6,0.8-1.7,1.7-2.8,2.9c-6,6-16,15.9-20,42.8l-0.2,1.4
	c-0.6,8.9-2,29.5,24.9,46.6c14.7,8.9,65,32.1,81.8,39.1c1.2,0.5,2.4,1.1,3.8,1.5c20.9,8.6,41,19.1,35.9,43.3
	c-3.2,10.2-3.2,10.2-4.7,14.5c-0.8,2.1-2,5.5-4.1,11.8c-5.2,15.4-44,127.9-44.5,129.1c-1.4,4.1-4.7,18.8,10.7,37.3
	c3.8,4.9,13.6,11.6,26,11.6c6.4,0,13.6-1.8,20.8-6.6c5.7-3.2,13.9-13.4,20.5-32.7c0.5-1.5,12.4-35.9,13.4-39.1
	c1.1-3.4,3.2-9.2,5.8-16c5.7-15.6,12.8-35,14.5-44.5c0.8-4.3,4.1-21.9,8.3-43.9c8.6-46,20.3-109.1,21.4-114.8
	c0.2-0.6,0.3-1.5,0.5-2.3c1.4-6.3,3.8-17.9-2.9-27.1c-4.9-6.6-13.6-10.4-25.8-11.5c-10.4-0.9-27.7-2-31.5-2c-2,0-13.9-2-21.1-10.1
	c-4.3-4.9-6.1-11.2-5.3-18.8c0-0.3,0-0.6,0.2-0.9c0.5-4.9,1.5-17.6,22.8-26.3c22.8-9.3,39.9-12.2,63.6-16l5.8-0.9
	c26.9-4.4,33.8-4.3,53.2-2c10.2,2,20.2,9.3,26.6,19.4c7.6,12.1,9.6,27.2,5.8,42.6c-3.4,9.9-7.2,14.7-13.3,22.3
	c-1.4,1.7-2.9,3.7-4.6,5.7c-7.3,9.5-15.3,30.7-20.9,46.2c-1.5,4-2.8,7.5-3.8,10.1c-5.7,14.1-2.4,28.3,4.1,32.6
	c7.6,5,17.9,0.6,32.1-8.3c14.1-8.9,56.9-35.8,89.4-59.8c28-20.6,59.5-53,71.4-65.3c1.8-1.8,3.2-3.4,4.1-4.1c0.9-0.9,3.2-3.2,6.6-6.6
	c22.5-22.3,90.6-90.5,105.5-104.1c9.6-8.7,63.6-60.8,111.3-106.7c38.1-36.5,73.8-71.1,78.1-75c3.7-3.4,14.8-14.1,28.4-27.4
	c5.2-4.9,9.9-9.2,14.2-13c9.6-8.7,17.3-15.4,22.9-23.2C1390.9,200,1390,189.3,1389.5,183.5z"/>
</svg>
