<?xml version="1.0" encoding="utf-8"?>
<!-- Generator: Adobe Illustrator 27.0.0, SVG Export Plug-In . SVG Version: 6.00 Build 0)  -->
<svg version="1.1" id="Layer_1" xmlns="http://www.w3.org/2000/svg" xmlns:xlink="http://www.w3.org/1999/xlink" x="0px" y="0px"
	 viewBox="0 0 1920 1080" style="enable-background:new 0 0 1920 1080;" xml:space="preserve">
<style type="text/css">
	svg {height: 100%;width: 100%;}.track-surface {fill: none;stroke: white;stroke-width: 30;}
</style>
<path class="track-surface" d="M1809,301.7c-27.3-57-66-93.6-86.6-110.3c-103.8-84.1-226.8-84.4-308.4-84.6c-6.8,0-13.2,0-19.3-0.1l-37.7-0.4
	c-145.3-1.6-295.5-3.2-501.1-3.7c-10.5,0-38.1-0.1-58.4,23c-13.5,15.3-22.1,19-29.4,20.7c-9.4,2.1-37.8,5.1-48,6.1
	c-25.8,1.7-33-5.9-38.7-14.5c-23-34.9-47.3-35.9-64.9-36.6l-2.1-0.1c-40.9-1.7-163.6-2.1-164.9-2.1h-0.3h-0.3
	c-116.4,6.5-188.9,44.3-221.7,66.3c-49.5,33.1-87.5,75.3-113,125.7c-24.3,47.8-31,91.3-32.8,113c-7.5,89,16.7,168.9,71.8,237.4
	c50.2,62.3,115.5,101.7,161.4,123.8c62.7,30.1,159.8,69.4,237.7,100.9c33.9,13.7,65.9,26.7,90.7,37.1
	c120.6,50.8,228.1,76.8,319.5,77.6c1.1,0,2,0,3.1,0c50.4,0,111.8-9.8,178-28.4c61.2-17.3,125.1-41.4,184.6-70.1
	c27.7-13.3,52.2-42.5,62.4-74.5c7.7-24.1,6.4-47.3-3.7-65.5c-9.5-17.2-24.9-30.4-45.9-39.3c-22.2-9.4-51.5-14.3-87-14.3
	c-13.9,0-25.9,0-52.8-22.3c-16.1-13.4-29-19.6-77.7-19.3c-21.5,0.1-131.9,0.5-185-4.6c-9.6-0.9-33.6-10.3-33.6-27.1
	c0-6.5,0-23.9,46.1-35.3c33.5-8.3,61.4-9.9,140.4-11.4c70.1-1.3,168.4-1.3,230,1.7c11.1,0.5,68.2,1.8,105.7-25
	c3.7-2.6,7.2-5,10.5-7.5c32.4-23,53.8-38.2,136.7-116.9c5.6-5.3,55.9-51.5,88.4-28.6c11.1,7.9,20.9,32.6-0.3,65.6
	c-42.4,66.2-155.6,156.8-189.4,183c-15.5,12-50.5,44-40.2,80.5c5.9,21,33.1,33.5,64.6,48c2.9,1.4,5.9,2.7,8.9,4.1l0,0
	c43.6,20.3,80.4,7.2,94.1,0.6c90.5-43.1,213.3-119.4,236-283.2C1845.8,423.2,1836.6,359.4,1809,301.7z"/>
</svg>
