<?xml version="1.0" encoding="utf-8"?>
<!-- Generator: Adobe Illustrator 27.0.1, SVG Export Plug-In . SVG Version: 6.00 Build 0)  -->
<svg version="1.1" id="Kurz_w_out_Arena" xmlns="http://www.w3.org/2000/svg" xmlns:xlink="http://www.w3.org/1999/xlink" x="0px"
	 y="0px" viewBox="0 0 1920 1080" style="enable-background:new 0 0 1920 1080;" xml:space="preserve">
<style type="text/css">
	.track-surface{fill:none;stroke:#FFFFFF;stroke-width:30;stroke-miterlimit:10;}
</style>
<path class="track-surface" d="M1397,177.2v-0.3c-0.3-3.4-2.3-21-11.8-30.3c-20.1-21.1-45.4-15.5-58.9-12.6c-1.2,0.3-2.3,0.5-3.4,0.8
	c-5.3,1.1-25.2,5.3-59.1,12.6l-49.9,10.9c-7.9,1.7-30.6,11.7-54.1,22.1c-3.7,1.7-6.5,3-7.6,3.4l-0.8,0.3c-8.9,3.6-16.8,10.4-9,35.3
	c0.9,3.1,0.3,4.2,0.2,4.5c-2,3.4-13.2,6.1-16.9,6.8c-0.6,0.2-57.8,13.7-74.3,17.4c-29.1,6.5-231.1,54-259.5,61.1
	c-12.3,2.3-32.5,9.5-66.1,42.9c-8.1,8.7-30.5,35.1-51.9,60.6c-18,21.5-35.1,41.8-39.8,46.5c-9.8,10.3-82.4,94.7-87.8,101.4
	c-0.6,0.8-1.7,1.9-2.8,3c-6.1,6.1-16.3,16.2-20.2,43.4l-0.2,1.4c-0.6,9-2,30,25.3,47.4c14.9,9,66.1,32.7,83.2,39.8
	c1.2,0.5,2.5,1.1,3.9,1.6c21.3,8.7,41.7,19.4,36.5,44c-3.3,10.4-3.3,10.4-4.8,14.8c-0.8,2.2-2,5.6-4.2,12l0,0
	c-5,14.5-39.3,114.3-44.6,129.4l-0.8,2c-1.4,4.2-4.8,19,10.9,37.9c3.9,5,13.8,11.8,26.4,11.8c6.5,0,13.8-1.9,21.1-6.7
	c5.8-3.3,14.3-13.8,20.8-33.3c0.5-1.6,12.7-37,13.7-39.8c1.1-3.4,3.3-9.5,5.9-16.3c5.8-15.9,13.1-35.6,14.8-45.2
	c1.1-5.8,6.2-33.7,12.1-65l2.6-13.8c2.8-13.5,8.1-26.1,15.7-37.8c5.1-7.8,26.4-29.5,40-33.1c0.5-0.2,0.8-0.2,0.9-0.2
	c0.3,0.5,1.4,3,0.6,10.9c-0.5,8.1,1.2,21.5,7.9,34.8l0.6,1.2l9.6,5.8h1.2c5.8,0,13.4-3.1,25.2-10.6c16.6-10.4,58.6-37,91-60.8
	c28.8-21.1,60.8-54.3,72.9-66.7c1.7-1.7,3-3.1,3.9-3.9c0.9-0.9,96.2-96.2,114.1-112.6c9.2-8.4,58.5-55.8,105.9-101.5
	c42.3-40.6,82.1-79,86.8-83.2c3.3-3,12.3-11.7,28.9-27.8c5.1-4.8,10-9.2,14.1-12.9c10-9,17.9-16,23.6-24.1
	C1398.6,194,1397.6,183.1,1397,177.2z"/>
</svg>
