<?xml version="1.0" encoding="utf-8"?>
<!-- Generator: Adobe Illustrator 27.0.1, SVG Export Plug-In . SVG Version: 6.00 Build 0)  -->
<svg version="1.1" id="Mullenbachschleife" xmlns="http://www.w3.org/2000/svg" xmlns:xlink="http://www.w3.org/1999/xlink" x="0px"
	 y="0px" viewBox="0 0 1920 1080" style="enable-background:new 0 0 1920 1080;" xml:space="preserve">
<style type="text/css">
	.track-surface{fill:none;stroke:#FFFFFF;stroke-width:30;stroke-miterlimit:10;}
</style>
<path class="track-surface" d="M1094,229.1c17.5-64.9,26.2-83.1,26.2-83.1s7.6-28.2,30.2-21.8c22.7,6.4,10.7,36.4,10.7,36.4l-26,83
	c0,0-27.6,62.5,26.8,90.4c54.4,27.9,94.9,47,94.9,47s28.9,12.6,30.1,46.6c1.2,34-18.8,51.8-37,61.9
	c-18.2,10.2-164.7,86.3-164.7,86.3s-36,18.9-73,48.6c-37.1,29.8-111.8,93.8-111.8,93.8s-36.6,35.4-71.5,86.7
	c-34.9,51.3-54.2,82.7-71,107.8c-16.8,25.1-22.8,45.2-65.3,44c-42.5-1.2-64.1-34.2-58.8-72.2c5.3-38,20.1-36.3,36.4-51.7
	c16.4-15.4,230.2-216.8,230.2-216.8s81.2-63.6,60-148.5c-21.3-85-31.2-80.3-12.9-136.2c18.2-55.9,22.6-75.2,45.6-75
	s31.4,39.5,31.4,39.5l5.3,35c0,0,5.2,30.2,28.9,18.8l23-11.3c0,0,4.6-4.7,17,2.6c12.4,7.3,3.2-12,3.2-12S1078.7,285.7,1094,229.1z"
	/>
</svg>
