<?xml version="1.0" encoding="utf-8"?>
<!-- Generator: Adobe Illustrator 27.0.1, SVG Export Plug-In . SVG Version: 6.00 Build 0)  -->
<svg version="1.1" id="Gesamtstrecke_Short_w_out_Arena"
	 xmlns="http://www.w3.org/2000/svg" xmlns:xlink="http://www.w3.org/1999/xlink" x="0px" y="0px" viewBox="0 0 1920 1080"
	 style="enable-background:new 0 0 1920 1080;" xml:space="preserve">
<style type="text/css">
	.st0{fill:none;stroke:#FFFFFF;stroke-width:30;stroke-miterlimit:10;}
</style>
<path class="st0" d="M665.7,1000.4c-2,0-3.9-0.8-5.3-2.3c-3.2-3.8-2.5-6.8-2.2-7.7l1.8-5.3c1.5-4.4,3.7-10.7,5.1-14.9l1.3-3.9
	c0.4-1.3,0.6-1.9,0.8-2.3c0.2-0.7,0.3-0.8,0.8-2.6c0.8-4.1-2.5-5.8-6.4-7.4l-0.7-0.3c-3.1-1.3-12.5-5.6-15.4-7.4
	c-5.4-3.4-5.1-7.7-5-9.3v-0.3c0.8-5.3,2.8-7.2,3.9-8.4c0.2-0.2,0.3-0.3,0.5-0.5c0.1-0.2,14.2-16.6,16.2-18.7c0.9-0.9,4.5-5.2,8-9.3
	c3.7-4.4,7.5-8.9,8.9-10.4c6.3-6.3,10.2-7.7,12.5-8.1c4.9-1.2,42.4-10.1,47.7-11.2c2.7-0.6,6.3-1.5,9.7-2.3s6.6-1.6,8.5-2
	c2.6-0.6,2.9-1,3.1-1.5c0.1-0.1,0.1-0.2,0.2-0.4c0.1-0.1,0.2-0.7,0.3-1.1c0.4-1.6,0.9-3.8,2.2-5.3c1.7-2,3.9-3.5,6.5-4.2l13.7-2.9
	l9-1.9c1.9-0.5,3.6-1.8,4.5-3.6l0.1-0.2c0.6-0.8,1-3.1,0-6.2l-4.7-5.5c-1.4-2.1-3.3-4.9-4.7-7c-0.9-1.4-1.6-2.4-1.9-2.8
	c0,0-0.9-1.3-2.3-1.4c-1.2-0.1-2.5,0.8-3.9,2.5c-2.9,3.6-4.7,7.2-6.3,10.3c-0.8,1.7-1.6,3.3-2.6,4.8c-2.6,4.3-4.8,7.4-11.7,10.9
	l-1.4,0.7c-5.5,2.8-7.8,4-11.2,5.1c-5,1.6-10.5,1.2-15.2-1.3c-3.6-1.7-6.3-3.3-8.7-4.7c-1.5-0.9-3-1.7-4.5-2.5
	c-3.3-1.7-7.3-3.7-9.9-4.2c-1.4-0.3-4.4-0.6-7.4-1c-2.2-0.3-4.6-0.6-6.2-0.8c-2.8-0.4-3.9-0.5-4.6-0.6c-0.3,0-0.5,0-0.7-0.1
	c-2.9-0.4-6.1,0.5-9.2,2.5l-0.2,0.1c-6.8,3.1-13.9-5.3-15.3-7.1l-0.1-0.1c-1.9-3-3.5-6.2-4.8-9.5c-0.6-1.3-1.6-2.5-2.9-3.3
	c-4.8-2.9-7.9-5.3-8.9-7.2c-1.1-1.9-1.5-4.1-1.7-5.5c-0.1-0.5-0.2-1-0.2-1.2c-0.5-1.8-2-3.1-3.8-3.3h-0.1c-1.7-0.3-4.8-0.9-7.9-1.6
	c-3.7-0.7-7.5-1.5-9.4-1.9l-1-0.2c-3.1-0.6-6.3-1.2-8.7-4.4c-2.1-2.9-2.1-5.1-2.1-6.6c0-0.2,0-0.5,0-0.7c0-0.3,0-0.7,0-1.2
	c0-1.3-0.1-3.4-0.6-4.3L611,785c-0.7-1.4-1.3-2.4-4.7-5c-1.1-0.8-4.1-3-7.9-5.8c-10.4-7.7-26.2-19.3-29.3-21.7
	c-3.8-2.9-7.3-6.2-10.4-9.9c-1.3-1.6-27.8-35.7-29.2-38.6c-1.4-3-2.2-6.4-2.3-9.7c-0.1-0.9-0.1-1.8-0.2-2.7c-0.2-3.4-0.4-6-0.2-8.5
	c0.2-2.7,1-5.3,2.4-7.7c0.7-1.5,2.6-5.6,4.2-9.2c1.4-3,2.6-5.9,3.2-6.9c0.8-1.8,1.5-5.7,1.8-7.5c0.1-0.5,0.1-0.8,0.2-1.1
	c0.3-1.7,2.7-14.6,2.8-16.6c0.4-4.5,0.4-9,0.2-13.5l-0.1-0.9c-0.4-5.8-0.9-13.7-1.1-16.9c-0.5-4.9-1.4-9.8-2.7-14.5
	c-1.9-6.2-4.1-12.4-6.6-18.4c-2.3-5.3-17.2-42.9-19.5-49.7c-2-5.8-7.2-10.9-9.4-13.1l-0.5-0.5c-1.7-1.7-8.3-6.5-14.8-9.5
	c-1.8-0.8-3.5-1.6-5.2-2.3c-4.5-1.9-8.4-3.6-10.9-5.6c-3.4-2.6-4.9-5-5.1-8.3c-0.2-3,1.2-8.6,5.9-10.9c1.9-0.9,8.6-3.4,15.7-6.1
	c7.8-2.9,16.6-6.2,19-7.4c3.9-2,6.3-3.4,7.1-4.4c0.8-0.9,6.7-6.5,9.1-7.8c1-0.5,2.5-1.4,4-2.2c1.7-0.9,3.1-1.8,3.6-2
	c0.8-0.4,4.4-3.7,5.9-5.1l0.2-0.2c1.2-1.1,4-3.9,6.6-6.4c1.9-1.9,3.6-3.6,4.5-4.4c2.8-2.8,5.7-5.5,8.8-8c2.8-2.1,10.6-8.5,11.9-9.7
	c1.3-1.2,6.6-6.6,8.9-10.5c2.4-4,8.2-17.5,9.5-20.5c0.2-0.4,0.3-0.8,0.5-1.1c1.1-2.4,1.8-4,1.5-11c-0.3-3.3-0.3-6.6-0.2-10
	c0.4-4.7,3.2-8.6,7.3-10.7c4.8-2.6,5.2-3.2,5.7-4c0.6-1.1,2.5-4.1,2-5.9c-0.4-1.4-1.2-2.6-2.3-3.5l0.3,0.1c-1.4-1.6-2.2-3.7-2.2-5.8
	c0.1-2,0.8-3.9,2-5.5l0.1-0.1c0.7-0.7,10.5-9.4,13.5-11.2c2.1-1.2,6.9-4.7,9.8-6.8c1-0.7,1.9-1.4,2.3-1.7c1.4-1.1,2.7-2.4,3.8-3.8
	l0.4-0.5c1.7-1.9,6-7.1,8.8-9.5c1.1-0.9,3.1-2.8,5.6-5.1c3.9-3.6,8.9-8.2,11.5-10.3c3.5-2.9,6.6-6.2,9.2-9.9
	c1.2-1.6,2.2-2.9,3.2-4.2c1.1-1.5,2.2-2.9,3.3-4.3c1.5-2.1,2.6-4.5,3.2-7c0.8-2.9,0.7-5.9-0.1-8.7c-0.7-2.6-1.6-7.1-2.5-11.1
	c-0.7-3.2-1.3-6.3-1.6-7.3v-0.1c-0.4-2-1.7-3.7-3.5-4.6c-2.4-1.4-4.5-1.1-6.6-0.8h-0.1c-2.4,0.3-5.9,0.7-11.3-2.6
	c-4.9-3.1-14.7-10.4-15.8-11.4c-2.8-2.3-4.1-5-3.9-7.9c0.3-4.4,1.8-6.3,6.4-8.3c5.8-2.6,12.9-6,15.7-7.8c4.1-2.7,8.1-5.7,11.7-9
	c3-2.8,3-3.6,3.3-6.7c0.1-1.2,0.1-2.2,0.2-2.9c0.1-1.4,0.1-2.3,0.5-3.3l0.1-0.2c1.6-3.1,3.5-6.2,5.6-9c0.7-0.9,1.4-2,2.1-3.1
	c1.6-2.4,3-4.6,4.4-5.7c1.7-1.7,3.7-3,5.8-3.9l0.2-0.1c3.1-1.5,4.9-2.4,9.2-2h0.1c4,0.4,7.9,0.8,12.8,4.2c4.7,3.3,21.1,15,22.2,15.9
	c0.1,0.1,0.2,0.2,0.3,0.3c1.2,0.9,3.8,2.8,5,8.3c1,4.8,4.2,4.5,4.8,4.4c0.6-0.1,1.5-0.5,2.7-2.9l0.1-0.3c1.2-2.3,3.2-6.2,11.1-6.8
	c7.5-0.6,29.1-1.5,31.6-1.5c0.5,0,0.9,0,1.3,0c1.7-0.1,3.4-0.2,7.5,1l1.6,0.5c4.9,1.4,12.3,3.6,14.6,3.9h0.1
	c2.4,0.5,4.8-0.3,6.3-2.2c2.4-2.7,5.2-7.9,5.6-10c0.6-3.2,0.8-6.4,0.7-9.7c0-0.4-0.1-0.9-0.1-1.4c-0.3-2.9-0.7-6.6,4-9.3
	c4.8-2.8,25.1-9.9,33.9-12.1c10-2.3,26.9-5.6,35.3-7c6.3-1.1,6.4-1.1,7-1.2c0.2,0,0.5-0.1,1.1-0.2c2-0.4,3.9-1.2,5.5-2.4
	c1.6-1.3,18.7-13.6,21.3-15.3c2.6-1.6,5.8-3.7,9.9-3.5c4.4,0.2,8.1,2.3,9.5,5.4c1.4,3,2.1,9.4,2.1,11.3c0,2-0.5,7.1-1,10.9v0.4
	c-0.6,4.6-1.9,15.2-1.1,23.1c0.3,2.7,0.3,4.8,0.4,6.9c0.1,4.5,0.2,8.4,2.6,15.9c0.8,2.1,1.4,3.8,1.8,5c1,2.8,1.2,3.4,1.8,4.1
	c0.2,0.2,0.4,0.6,0.8,1.1c1.6,2.3,5.4,7.6,7.6,9.4c4.7,4.2,9.8,7.9,15.2,11c2.8,1.5,10.8,5.1,14.2,6.6l1.4,0.6
	c1.2,0.6,3.9,1.7,6.5,2.8c1.7,0.7,3.4,1.5,4.6,2c2.6,1.1,7,1.6,13,1.4c6.3-0.2,13.8-0.3,17.4-0.2c4,0.1,15,1.6,18.5,2.2
	c1.7,0.3,6,0.9,10.6,1.5c5.2,0.7,10.7,1.5,12.4,1.8c2.6,0.5,6.1,1.6,9.8,2.8c1,0.3,2.1,0.7,3.1,1c1.3,0.4,2.5,0.8,3.9,1.2
	c3.6,1.1,7.2,2.2,10.9,3.7c4.9,2,10.6,5.6,13.2,8.4c2.9,3,6.2,5.8,9.7,8.2c2.5,1.5,16.9,9.4,20.5,10.9c3.5,1.5,5.2,1.9,7.4,1.7
	c3.6-0.2,7.3-0.9,10.8-1.9c3.5-1.1,14.8-7.3,17.4-8.8s16.1-11.3,20.1-14.8c1.4-1.2,2.5-2.3,3.5-3.2c1.8-1.7,3-2.9,4.5-3.5
	c3-1.1,6.1-1.9,9.2-2.2c1.2-0.2,3.4-0.5,5.7-0.9c4.5-0.7,9.7-1.5,11.5-1.6c2.6,0,5.1-0.2,7.6-0.6c0.4-0.1,1-0.2,1.6-0.4
	c2.4-0.6,5.7-1.4,7.3-1.9c2.9-1,6.7-1.2,8.9,1c1.9,1.9,3.6,3.8,3.7,6.4c0.1,2,0.3,7.1-4.1,10.7c-3.5,2.8-9.7,7.5-12.5,8.9
	c-2.3,1.3-4.4,2.9-6.2,4.9c-1.9,2-4,3.7-6.3,5.1l-0.1,0.1c-0.7,0.3-2.1,1.4-3.5,2.4c-1.7,1.2-3.5,2.5-4.7,3.1
	c-2.4,1.2-4.1,2.2-4.9,2.6c-1.7,0.9-2.5,2.7-2,4.5s2.2,3.1,4.1,3.1c0.6,0,3.2-1.1,3.7-2.8c0.8-2.8,2.2-6.7,5.1-9l0.3-0.2
	c2.8-2.3,7-5.7,9.4-6.9c1.6-0.8,3.8-1.4,6.5-2.2c1.4-0.4,3-0.8,4.8-1.4c2.3-0.7,5.5-1.6,8.6-2.5c3.4-1,6.9-2,7.7-2.3h0.1
	c2.6-0.8,5.4-1.3,8.1-1.3c0,0,0,0,0.1,0c3.4-0.1,6.8-0.5,10.1-1.2c1.5-0.4,3.1-1.7,4.3-2.7c0.6-0.5,1.1-0.9,1.5-1.1
	c0.5-0.3,2.1-1.5,3.6-2.7c1.3-1,2.7-2.1,3.9-3c2.1-1.5,4-3.3,5.5-5.4c0.3-0.5,1.1-1.5,2.2-3.2c1.3-1.8,2.9-4.1,3.6-5.1
	c1.1-1.5,1.6-3.2,1.7-4.9c-0.2-2.8-0.6-5.6-1.2-8.3c-0.6-3,0-6,1.8-8.5l1-1.4c2.2-3.2,6.3-9.2,7.5-11c1.4-2.1,3.3-3.7,5.7-4.6
	c2.3-0.8,4.7-0.9,7-0.4c2,0.5,3.6,1.5,4.7,2.2c0.3,0.2,0.6,0.4,0.8,0.5l0.1,0.1c2.6,1.6,5.3,3,8.1,4.3c1.6,0.6,4.4,1.1,6.5,1.5
	c1.8,0.3,2.6,0.5,3,0.7c0.3,0.1,2,0.7,3.4,1.1c1.8,0.5,3.6,1.1,4.5,1.5c0.5,0.2,1.2,0.4,2.1,0.7c3.1,1,5.6,1.8,6.7,2.7
	c0.2,0.1,0.4,0.3,0.6,0.4c1.9,1.4,5.4,4,7,7.3c1.5,3.1,3.6,5.9,6.2,8.2c2.4,1.5,5,2.8,7.7,3.6c1.9,0.2,3.9,0.3,5.8,0.3h0.1h0.1
	c2.8,0.3,5.4,1.5,7.3,3.4c2.1,2.1,13.1,15.2,15.4,18.8c1.8,3.1,2.5,6.6,1.9,10.1v0.1c-0.6,2.4-1.5,4.6-2.7,6.8
	c-2.1,3.6-3.8,7.4-5.2,11.3c-1.2,3.1-2.2,6.3-3,9.5c-0.5,2.3,1.5,5.6,3.6,7.7l0.3,0.3c1.9,1.9,4.3,4.3,8.1,5.5
	c2.8,0.9,5.7,1.5,8.7,1.9c3.9,0.2,7.6,4.7,7.8,7.4c0.2,2,1.8,19.2,1.9,23.1c0.2,3.7-0.7,6.8-2.6,8.9c-2.5,2.8-6.1,3.3-8,3.4
	c-4.4,0.2-8.8,0-13.2-0.7c-5.5-0.9-6.9-1.1-13.5-2.1c-9.6-1.4-11,3-11.7,5.1l-0.1,0.4c-0.2,0.6-0.4,1.3-0.5,2.1
	c-0.3,1.4-0.7,2.8-1.4,4.1c-1.3,2.2-11.3,14.2-11.4,14.3c-2.3,2.7-5.1,8.9-6.4,12.4c-2.2,6.1-2.1,6.9-2,8.4c0,0.2,0,0.4,0.1,0.6
	c0.1,1.6,0.4,4.4,0.7,7l0.3,2.7c0.3,2.8,0.1,5.6-0.5,8.4c-0.3,2.9-0.3,5.9-0.2,8.9v0.7c0.1,2.6,0.4,7.5-0.2,11.1
	c-0.7,4.3-5.6,9.8-8.7,11.7c-5.4,3.7-11,4.5-14.3,4.9c-0.4,0.1-0.7,0.1-1,0.1c-2.6,0.4-5.8,0.9-7.8,2.9c-0.7,0.7-2.4,2.3-4.4,4.2
	c-4.3,4-10.7,10.1-12.1,11.8c-3.9,4.8-6.9,10.1-9.2,15.7l-0.5,1.1c-1.3,2.9-3.5,7.7-6.2,10.9c-0.4,0.5-0.8,1-1.2,1.5
	c-2.3,2.8-4.3,5.3-8,6.9c-2,0.9-3.7,1.5-5.1,2c-1.1,0.4-2,0.7-2.4,1c-2.3,1.5-4.4,3.1-6.5,4.8c-0.1,0.1-0.3,0.3-0.5,0.5
	c-1.7,1.7-4.8,4.8-12.7,6.5c-4.1,0.8-7.4,1.4-10.1,1.8c-3,0.5-5.2,0.8-6.7,1.3c-1.8,0.6-6.4,2.3-10.9,4c-3.3,1.3-6.8,2.6-9,3.4
	c-5.2,1.9-11,2.4-18.5,3c-7.8,1-13.2-4.6-15.8-7.3c-0.4-0.4-0.8-0.9-1-1l-0.2-0.1l-0.1-0.1c-0.5-0.5-0.9-0.9-1.4-1.4
	c-2.1-2.2-4.4-4.5-7.7-5.4c-5.9-1.7-12.3,3-15.3,5.3c-0.6,0.5-1.1,0.8-1.5,1.1c-0.7,0.4-1.8,1.1-3.1,1.8c-2.9,1.7-6.8,4-8.7,5.5
	c-5.2,3.9-4.1,6.4-3.6,7.4c0.5,1.1,5.2,7,6.7,8.4c2.4,2.4,6.2,4.7,11.1,6.8c7.1,2.9,18.1,7,20.7,7.9c1,0.3,1.7,0.5,2.2,0.7
	c1.1,0.3,1.9,0.5,3.3,1.2c2.6,1.3,4.6,3.3,6.4,6.7c0.9,1.7,1.7,3,2.3,4c0.6,1.1,1.1,1.9,1.4,2.5c0.6,1.4,2.5,8.8,3.1,11.7
	c0.6,3.2,0.7,6.5,0.3,9.7v0.2c-1.2,4.9-3.8,11.6-9.5,15.4c-1.2,0.8-3.5,2-5.5,3.1c-1.2,0.6-2.2,1.2-2.9,1.6
	c-0.9,0.5-17.5,9.7-36.7,20.3c-23.9,13.2-51,28.2-54.8,30.4c-2.7,1.5-16.3,9.4-32.1,18.5c-25,14.4-53.3,30.7-55.3,31.8
	c-3.2,1.7-25.1,14.9-25.3,15.1c-4.8,2.9-17.4,10.3-31.9,18.9c-23.1,13.6-49.3,29-53.4,31.6l-0.2,0.1c-6.5,4.1-8.9,5.7-17.8,16.2
	c-7.1,8.3-16.5,19-21.6,24.7c-1.5,1.6-2.5,2.8-2.9,3.3c-2.3,2.7-5.9,7.3-6.6,9c0,0.1-3.9,9.8-7.9,13.8c-3.2,3.3-12,11.4-13.8,13
	c-2.3,2-4.1,4.5-5.3,7.3v0.1c-1.1,3.2-2,6-5.9,7.4c-3.1,1.1-5,0.5-6.4,0.1c-0.3-0.1-0.6-0.2-1-0.3c-0.3-0.1-0.5-0.1-0.8-0.2
	c-1.2-0.3-2.6-0.8-7.3,2.6l-4.9,3.3c-6,4.1-11.8,8.7-17.1,13.6l-5.7,5.3c-2.3,2.2-4.6,4.4-5.3,5.1c-0.8,0.8-8.1,7.8-15.8,15.1
	c-8.8,8.5-18,17.3-19.7,18.8c-3.2,2.9-19.4,19.2-20.9,20.7c-0.1,0.1-0.3,0.3-0.6,0.6c-2.2,2.3-8.2,8.4-13.6,12.4
	c-6.2,4.6-14.2,9.6-16.8,11.2c-2.9,1.8-5,2.7-6.7,1.6l-0.3-0.2l-1-1.7c-0.8-1.9-1.2-3.9-1.2-6v-0.1c0-0.5,0-0.9,0-1.1
	c-2.3,1-5.6,4.3-6.5,5.6c-1.4,2.1-2.3,4.3-2.8,6.7l-1,5.4c0,0.1,0,0.1,0,0.2c-0.6,3.1-1.1,5.8-1.4,7.4l-0.3,1.6
	c-0.3,1.9-1.7,5.6-2.8,8.6c-0.4,1.2-0.8,2.2-1,2.8c-0.1,0.2-0.2,0.7-0.4,1.3l-2.1,6c-1.1,3.2-2.6,5.6-4.1,6.4
	C668.7,1000,667.2,1000.4,665.7,1000.4z"/>
</svg>
