<?xml version="1.0" encoding="utf-8"?>
<!-- Generator: Adobe Illustrator 27.0.1, SVG Export Plug-In . SVG Version: 6.00 Build 0)  -->
<svg version="1.1" id="Gesamtstrecke_Long" xmlns="http://www.w3.org/2000/svg" xmlns:xlink="http://www.w3.org/1999/xlink" x="0px"
	 y="0px" viewBox="0 0 1920 1080" style="enable-background:new 0 0 1920 1080;" xml:space="preserve">
<style type="text/css">
	.st0{fill:none;stroke:#FFFFFF;stroke-width:30;stroke-miterlimit:10;}
</style>
<path class="st0" d="M633.4,1024.5c-1.5,0-2.8-0.5-3.6-1c-2.1-1.1-3.2-3.2-3.3-4.3c-0.9-3.4,0.6-7.2,3.5-9.2
	c4-3.6,13.9-13.1,19.9-18.7c2.1-2,3.7-3.5,4.4-4.1c2.1-1.8,4.1-3.8,5.9-5.9c2.3-2.7,3.3-6.3,2.9-9.8c-0.5-1.9-0.9-3.2-1.1-4.3
	c-0.6-1.9-1.1-3.3-1.3-6c-0.3-3.1,0.6-7.4,2.6-13.2c0.3-0.8,1.1-3.1,2.1-6c2.2-6.1,5.2-14.6,5.8-16.3c0.8-1.9,4.3-12.3,6.5-18.6
	l2-5.8c0.3-0.9,0.3-0.9,0.7-2l0.3-0.9c0.8-3.8-2.4-5.5-6-7l-0.7-0.3c-3-1.2-11.9-5.4-14.7-7.1c-5.2-3.2-4.9-7.4-4.8-8.9v-0.3
	c0.8-5,2.6-6.9,3.7-8c0.2-0.2,0.3-0.3,0.5-0.5c0.9-1.1,13.7-15.9,15.5-17.8c0.8-0.8,3.4-4,6.4-7.5c3.8-4.6,8.2-9.7,9.7-11.4
	c6-6,9.7-7.3,11.9-7.7c3.1-0.8,18.5-4.4,44.8-10.5l0.8-0.2c5.1-1.1,13.9-3.2,17.5-4c2.5-0.6,2.8-1.1,3-1.4c0.1-0.1,0.1-0.2,0.2-0.3
	c0.1-0.1,0.2-0.7,0.3-1.1c0.4-1.5,0.9-3.6,2.1-5.1c1.6-1.9,3.7-3.3,6.2-4l14.6-3.2l7.1-1.4c1.9-0.5,3.4-1.7,4.4-3.4l0.1-0.2
	c0.6-0.8,1-3,0-6l-5.4-6.5c-1-1.3-1.9-3-2.9-4.3c-1.2-1.8-2.3-3.4-2.6-3.8c0,0-1-1.3-2.2-1.3c-1.4,0-2.8,1.2-3.7,2.4
	c-2.8,3.4-4.5,6.9-6,9.8c-0.8,1.6-1.5,3.2-2.5,4.6c-2.5,4.1-4.6,7.1-11.2,10.4l-1.4,0.8c-5.1,2.6-7.4,3.8-10.5,4.8
	c-4.8,1.5-10,1.1-14.4-1.2c-3.4-1.7-6-3.2-8.3-4.5c-1.4-0.9-2.8-1.6-4.3-2.4c-2.9-1.5-7-3.5-9.5-4c-1.2-0.3-4.1-0.6-6.8-0.9
	c-2.2-0.3-4.6-0.6-6.2-0.8c-2.7-0.4-3.7-0.5-4.4-0.6c-0.3,0-0.5,0-0.7-0.1c-3.5-0.5-6.7,1.1-8.8,2.4l-0.2,0.1
	c-6.5,3-13.3-5.1-14.6-6.8l-0.1-0.1c-1.8-2.9-3.3-5.9-4.6-9.1c-0.6-1.2-1.5-2.4-2.8-3.2c-4.8-2.9-7.5-5.1-8.5-6.9
	c-1.1-1.9-1.4-3.9-1.6-5.3c-0.1-0.5-0.2-1-0.2-1.1c-0.5-1.7-1.9-3-3.6-3.2h-0.1c-1.3-0.3-3.3-0.7-5.5-1.1c-4.1-0.9-8.7-1.7-10.9-2.1
	l-0.9-0.2c-3.2-0.6-6.1-1.1-8.4-4.2c-2-2.8-2-5-2-6.4c0-0.2,0-0.5,0-0.7c0-0.3,0-0.7,0-1.1c0-1.2-0.1-3.2-0.6-4.2l-0.2-0.4
	c-0.7-1.3-1.2-2.3-4.5-4.8c-1.1-0.9-4.5-3.3-8.7-6.4c-9.6-7-24-17.6-26.8-19.8c-3.6-2.8-7-5.9-9.9-9.5c-1.2-1.5-26.6-34.1-27.8-36.9
	c-1.3-2.9-2.1-6.1-2.2-9.3c-0.1-0.9-0.1-1.7-0.2-2.5c-0.2-3.1-0.4-5.7-0.2-8.1c0.2-2.6,1-5.1,2.3-7.4c0.9-1.7,3.3-7.2,5.1-11.2
	c0.9-1.9,1.6-3.5,1.9-4.3c0.8-1.7,1.4-5.4,1.7-7.3c0.1-0.5,0.1-0.8,0.2-1.1c0.3-1.4,2.6-13.9,2.7-15.9c0.4-4.3,0.4-8.6,0.2-12.9
	v-0.1c-0.4-5.4-0.9-13.7-1.1-16.8c-0.5-4.7-1.3-9.4-2.5-13.9c-1.8-5.9-3.9-11.8-6.3-17.6c-2.4-5.4-16.5-41.3-18.6-47.5
	c-1.8-5.5-6.9-10.5-9-12.6l-0.5-0.5c-1.6-1.6-8-6.2-14.1-9.1c-1.6-0.8-3.3-1.4-4.9-2.1c-4.3-1.9-8.1-3.5-10.5-5.4
	c-3.2-2.5-4.7-4.8-4.9-7.9c-0.2-2.9,1.1-8.2,5.6-10.4c1.8-0.9,7.8-3.2,14.8-5.7c7.5-2.9,16.1-6,18.3-7.2c3.8-1.9,6-3.2,6.8-4.2
	c0.9-0.9,6.5-6.2,8.6-7.5c0.9-0.5,2.4-1.3,3.7-2.1c1.6-1,3.1-1.7,3.5-2c0.7-0.4,3.8-3.2,5.4-4.6l0.5-0.5c1.2-1.1,4.6-4.4,7.2-7.1
	c1.4-1.4,2.7-2.7,3.3-3.3c2.7-2.7,5.5-5.3,8.4-7.6c2.7-1.9,10-8,11.4-9.3c1.1-1.1,6.2-6.3,8.5-10c2.2-3.8,7.7-16.5,9.1-19.6
	c0.2-0.4,0.3-0.8,0.5-1.1c1.1-2.3,1.7-3.8,1.4-10.6c-0.3-3.2-0.3-6.3-0.2-9.6c0.4-4.5,3.1-8.2,7-10.2c4.6-2.5,5-3,5.5-3.9
	c1.6-2.6,2.2-4.5,1.9-5.6c-0.4-1.3-1.1-2.5-2.2-3.3l-0.2-0.2c-1.3-1.5-2.1-3.5-2.1-5.5c0.1-2,0.8-3.7,1.9-5.3l0.1-0.1
	c0.6-0.6,9.9-9,12.9-10.7c2-1.1,6.6-4.5,9.4-6.5c1-0.7,1.8-1.3,2.2-1.6c1.3-1.1,2.6-2.3,3.6-3.6l0.8-0.9c1.8-2.1,5.6-6.6,8-8.7
	c0.9-0.8,2.5-2.2,4.3-3.9c3.9-3.6,9.3-8.6,12-10.7c3.3-2.8,6.3-5.9,8.8-9.5c1-1.2,1.8-2.4,2.6-3.4c1.2-1.6,2.4-3.2,3.5-4.8
	c1.4-2,2.4-4.3,3.1-6.7c0.8-2.8,0.7-5.6-0.1-8.3c-0.7-2.5-1.5-6.8-2.4-10.7c-0.7-3.1-1.2-5.9-1.5-6.9V186c-0.4-1.9-1.6-3.5-3.3-4.4
	c-2.3-1.3-4.4-1.1-6.3-0.8c-2.3,0.3-5.7,0.8-10.9-2.5c-4.9-3.1-14.2-10-15.2-10.8c-1-0.9-4-3.3-3.7-7.5c0.3-4.2,1.7-6,6.1-7.9
	c5.5-2.5,12.3-5.7,15-7.5c3.9-2.6,7.6-5.4,11.2-8.6c2.9-2.7,2.9-3.4,3.2-6.4c0.1-1.1,0.1-2.1,0.2-2.8c0.1-1.3,0.1-2.2,0.5-3.2
	l0.1-0.2c1.5-3.1,3.3-5.9,5.4-8.7c0.6-0.8,1.2-1.7,1.9-2.8c1.5-2.3,3-4.5,4.3-5.6c1.6-1.6,3.5-2.9,5.5-3.7l0.4-0.2
	c2.9-1.4,4.7-2.3,8.7-1.8h0.2c3.8,0.5,7.5,0.9,12.1,4c4.4,3,20.1,14.2,21.2,15.2l0.3,0.2c1.2,0.9,3.7,2.7,4.9,8
	c1.1,4.7,4.2,4.2,4.6,4.2c0.6-0.1,1.4-0.6,2.6-2.8l0.2-0.4c1.1-2.2,3.2-5.8,10.5-6.4c7.1-0.6,27.8-1.4,30.2-1.4c0.5,0,0.9,0,1.2,0
	c1.6-0.1,3.2-0.2,7.2,1c4.9,1.4,13.1,3.8,15.5,4.2c2.3,0.5,4.6-0.3,6-2.1c2.3-2.6,5-7.5,5.4-9.6c0.6-3.1,0.8-6.1,0.7-9.3
	c0-0.4-0.1-0.9-0.1-1.3c-0.3-2.8-0.7-6.3,3.8-8.9c4.6-2.7,23.8-9.4,32.4-11.5c9.7-2.3,25.9-5.4,33.7-6.7c6.1-1.1,6.1-1.1,6.7-1.1
	c0.2,0,0.5-0.1,1.1-0.2c1.9-0.4,3.7-1.1,5.4-2.3c1.3-1.1,17.7-12.9,20.4-14.6c2.5-1.5,5.5-3.5,9.5-3.3c4.2,0.2,7.6,2.2,9.1,5.2
	c1.3,2.9,2.2,8.9,2.2,10.8c0,2.3-0.8,8.5-1,10.4v0.3c-0.6,4.4-1.8,14.6-1.1,22.1c0.3,2.5,0.3,4.5,0.3,6.5c0.1,4.3,0.2,8,2.5,15.3
	c0.8,2,1.3,3.5,1.7,4.8c1,2.7,1.2,3.2,1.7,4c0.2,0.2,0.4,0.5,0.7,1c1.5,2.2,5.2,7.4,7.4,9.1c4.5,4,9.4,7.5,14.5,10.5
	c2.6,1.4,9.6,4.6,13.1,6.1c0.8,0.4,1.3,0.6,1.7,0.8c1.1,0.6,3.8,1.6,6.3,2.8c1.6,0.7,3.2,1.3,4.2,1.8c2.5,1.1,6.7,1.5,12.4,1.3
	s13.1-0.3,16.6-0.2c3.8,0.1,14.2,1.5,17.7,2.1c1.5,0.3,5.4,0.8,9.6,1.3c5.3,0.8,10.7,1.4,12.5,1.8c2.7,0.6,6.7,1.8,10.5,3.1l1.8,0.6
	c1.3,0.4,2.7,0.9,4.1,1.2c3.2,1,6.7,2,10,3.3c4.7,1.9,10.1,5.4,12.6,8c2.8,2.9,5.9,5.5,9.3,7.8c2.3,1.3,16.1,9,19.6,10.4
	c3.3,1.4,5,1.8,7.1,1.6c3.4-0.2,6.9-0.9,10.2-1.8c3.2-1.1,13.4-6.6,16.6-8.4c2.5-1.4,15.4-10.8,19.2-14.1c1.3-1.1,2.5-2.2,3.3-3.1
	c1.7-1.6,2.9-2.7,4.3-3.3c2.9-1.1,5.8-1.8,8.8-2.1c1.1-0.2,3.2-0.5,5.4-0.9c4.3-0.7,9.2-1.4,11-1.5c2.5,0,4.9-0.2,7.3-0.6
	c0.4-0.1,1-0.3,1.6-0.4c2.3-0.6,5.4-1.3,7-1.8c2.8-1,6.4-1.2,8.5,1c1.8,1.9,3.4,3.6,3.5,6.1c0.1,1.9,0.3,6.8-3.9,10.2
	c-3.3,2.7-9.3,7.2-11.9,8.5c-2.2,1.2-4.2,2.8-5.9,4.7c-1.8,1.9-3.8,3.5-6,4.9l-0.1,0.1c-0.7,0.3-2.1,1.3-3.4,2.3
	c-1.6,1.1-3.3,2.4-4.4,3c-2,1.1-3.8,2-4.8,2.6c-1.5,0.9-2.3,2.6-1.8,4.3c0.5,1.7,2.1,3,3.9,3c0.6,0,3.1-1,3.5-2.7
	c0.8-2.7,2.1-6.4,4.9-8.6l0.4-0.4c2.6-2.1,6.6-5.4,8.8-6.5c1.5-0.8,3.6-1.3,6.1-2.1c1.3-0.4,2.9-0.9,4.6-1.3
	c2.2-0.7,5.3-1.5,8.2-2.4c3.2-1,6.6-1.9,7.4-2.2h0.1c2.5-0.8,5.2-1.2,7.7-1.2c0,0,0,0,0.1,0c3.2-0.1,6.5-0.5,9.6-1.1
	c1.4-0.4,3.1-1.6,4.2-2.6c0.6-0.5,1-0.8,1.3-1.1c0.6-0.4,2.1-1.5,3.5-2.7c1.2-1,2.5-1.9,3.6-2.8c2-1.4,3.8-3.2,5.4-5.2
	c0.3-0.5,1.1-1.4,2.1-3.1c1.2-1.7,2.8-3.9,3.4-4.9c1.1-1.4,1.5-3.1,1.6-4.7c-0.2-2.7-0.6-5.4-1.1-7.9c-0.6-2.9,0-5.8,1.7-8.1
	c0.6-0.8,1.8-2.7,3.2-4.8c1.9-2.8,4-5.9,4.9-7.1c1.3-2,3.2-3.5,5.4-4.4c2.2-0.8,4.5-1,6.7-0.4c1.9,0.5,3.4,1.4,4.5,2.1
	c0.3,0.2,0.6,0.4,0.8,0.5l0.1,0.1c2.5,1.5,5.1,2.9,7.7,4.1c1.4,0.6,4.2,1.1,6.2,1.4c1.7,0.3,2.5,0.5,2.9,0.7
	c0.3,0.1,1.9,0.6,3.2,1.1c1.7,0.6,3.5,1.1,4.4,1.4c0.5,0.2,1.2,0.4,2.1,0.7c3,1,5.3,1.7,6.4,2.6l0.5,0.4c1.8,1.3,5.3,3.8,6.8,7.1
	c1.4,3,3.4,5.6,5.9,7.8c2.3,1.4,4.8,2.7,7.4,3.4c1.8,0.2,3.6,0.3,5.5,0.3h0.2c2.7,0.3,5.2,1.4,7,3.2c2.1,2.1,12.5,14.5,14.7,18
	c1.7,3,2.4,6.3,1.8,9.6v0.1c-0.6,2.3-1.4,4.5-2.6,6.5c-2,3.4-3.6,7.1-5,10.8c-1.1,3-2.1,6-2.9,9.1c-0.5,2.2,1.4,5.4,3.4,7.4l0.5,0.5
	c1.9,1.9,4,4,7.5,5.1c2.7,0.9,5.4,1.4,8.3,1.8c3.7,0.2,7.3,4.5,7.5,7.1l0.1,0.9c1.1,11.8,1.6,19,1.7,21.2c0.2,3.5-0.7,6.5-2.5,8.5
	c-2.4,2.7-5.8,3.2-7.6,3.2c-4.2,0.2-8.4,0-12.6-0.7c-4.9-0.9-6.3-1.1-11.6-1.8l-1.3-0.2c-9.2-1.3-10.5,2.9-11.2,5l-0.1,0.4
	c-0.2,0.6-0.4,1.2-0.5,1.9c-0.3,1.3-0.7,2.7-1.3,4c-1.2,2.1-10.8,13.6-10.9,13.7c-2,2.4-4.7,7.8-6.1,11.8c-2.1,5.9-2.1,6.6-1.9,8.1
	l0.1,0.6c0.2,1.6,0.5,4.2,0.7,6.9l0.3,2.5c0.3,2.7,0.1,5.4-0.5,8c-0.3,2.9-0.3,5.7-0.2,8.5v0.8c0.1,2.5,0.4,7.1-0.2,10.5
	c-0.8,4.4-5.7,9.6-8.3,11.2c-5.2,3.5-10.4,4.3-13.6,4.7c-0.4,0.1-0.8,0.1-1.1,0.2c-2.6,0.4-5.6,0.9-7.5,2.8
	c-0.8,0.8-2.5,2.4-4.6,4.4c-3.9,3.7-9.9,9.3-11.2,10.9c-3.7,4.6-6.6,9.6-8.8,15c-0.2,0.4-0.4,0.8-0.5,1.1c-1.2,2.8-3.3,7.3-5.9,10.3
	c-0.4,0.5-0.8,1-1.1,1.3c-2.2,2.8-4.2,5.1-7.6,6.7c-1.9,0.9-3.5,1.4-4.8,1.9c-1.1,0.4-2,0.8-2.4,1c-2.2,1.4-4.2,3-6.2,4.6
	c-0.1,0.1-0.3,0.3-0.5,0.5c-1.6,1.6-4.6,4.7-12.1,6.2c-3.9,0.8-7.1,1.3-9.7,1.7c-2.8,0.4-4.9,0.8-6.4,1.2c-1.7,0.6-6,2.2-10.3,3.8
	c-3.2,1.2-6.6,2.5-8.7,3.2c-5,1.8-10.7,2.4-17.7,2.9c-7.5,1-12.6-4.4-15.1-7c-0.4-0.4-0.8-0.9-1-1l-0.2-0.1l-0.1-0.1
	c-0.5-0.5-0.9-0.9-1.3-1.3c-2-2.1-4.2-4.3-7.4-5.2c-5.6-1.6-11.7,2.9-14.6,5.1c-0.6,0.5-1.1,0.8-1.4,1.1c-0.7,0.4-1.7,1.1-2.9,1.7
	c-2.8,1.6-6.5,3.9-8.4,5.4c-5.1,3.7-3.9,6.1-3.4,7.1c0.5,1.1,5,6.7,6.4,8c1.5,1.5,4.7,3.9,10.6,6.5c6.7,2.9,17.4,6.7,19.8,7.5
	c1,0.3,1.6,0.5,2.2,0.7c1,0.3,1.8,0.5,3.2,1.1c2.6,1.2,4.4,3.2,6.1,6.4c0.9,1.6,1.6,2.8,2.2,3.8c0.7,1.1,1.1,1.9,1.4,2.5
	c0.6,1.3,2.5,9.2,3,11.2c0.6,3.2,0.7,6.2,0.3,9.4v0.2c-1.1,4.7-3.6,11.1-9.1,14.7c-1.2,0.9-3.5,2.1-5.6,3.2c-1,0.5-1.8,1-2.4,1.3
	c-0.8,0.4-12.6,7-27.7,15.4c-23.5,13-55.6,30.8-59.6,33.1c-2.8,1.6-18.2,10.4-34.4,19.8c-22.2,12.8-47.3,27.2-49,28.2
	c-3.1,1.6-24,14.2-24.2,14.4c-4.1,2.5-14.1,8.4-25.8,15.3c-22.9,13.5-51.5,30.4-55.7,33l-0.4,0.2c-5.9,3.8-8.4,5.4-16.8,15.4
	c-7.3,8.6-17.4,20-21.7,24.8c-0.9,1-1.4,1.6-1.7,2c-2.2,2.5-5.6,6.9-6.2,8.6c-0.8,1.9-4.2,9.7-7.5,13.2
	c-3.1,3.1-11.4,10.9-13.2,12.4c-2.2,1.9-3.9,4.3-5.1,7l-0.1,0.2c-1.1,3-1.9,5.5-5.6,6.9c-2.9,1.1-4.7,0.5-6,0.1
	c-0.4-0.1-0.7-0.2-1-0.3c-0.3,0-0.6-0.1-0.9-0.2c-1.1-0.3-2.1-0.6-5.2,1.2l-6.6,4.4c-5.7,3.9-11.3,8.3-16.3,13l-10.5,9.9
	c-0.8,0.7-7.2,6.9-13.9,13.4c-8.5,8.2-18.2,17.6-20,19.1c-3.1,2.8-18.9,18.7-20,19.8c-0.1,0.1-0.3,0.4-0.6,0.6
	c-2.1,2.2-7.8,8-13,11.8c-5.7,4.2-13.1,8.9-16.1,10.7c-2.8,1.7-4.8,2.6-6.4,1.4c-1.5-1.1-2-4-1-6.6c0.2-0.5,0.4-1.1,0.7-1.8
	c1.1-2.8,2.5-6.7,3.8-8.4c0.3-0.4,0.6-0.8,0.9-1.1c1.1-1.3,1.7-2.1,2.3-3.7c0.7-2.5,0.3-5.1-1-7.1c-1.1-1.6-2.7-2.9-4.3-3.2
	c-3.3-0.4-4.6-0.4-9.4,0.4l-1.1,0.2c-4.2,0.7-7.3,1.1-11.3,2.9c-3.4,1.4-3.6,3.3-3.7,4.2v0.2c-0.1,1.1,0.1,2.1,0.8,2.9
	c1.1,1.2,3.1,1.6,3.3,1.6l0,0c0.7,0,3.7,0.2,5.6,0.4c2.4,0.2,4.1,1,5.1,2.3c1.3,1.8,0.9,4.1,0.7,5.4c0,0.2-0.1,0.3-0.1,0.4
	c-0.2,1-2,10.6-3.4,18.4c-1,4.9-1.7,9.1-1.8,9.9c-0.3,1.7-1.6,5.3-2.7,8.1c-0.5,1.1-0.8,2.2-1,2.8c-0.6,1.9-5.4,15.7-6.4,18.5
	c-1.9,5.3-1.1,7.4-0.8,8.4c1,2.2,2.5,4,4.5,5.3c1.2,0.9,9,4.6,11.1,5.5c1.6,0.7,2.8,2,3.3,3.8c0.7,2,0.5,4.4-0.6,6.2
	c-1.1,2.1-4.1,3.6-6.5,4.9c-0.2,0.1-0.3,0.1-0.4,0.2l-0.1,0.1c-3.5,1.6-13.8,7.1-17.3,9.1c-2.5,1.4-7.1,5-13.7,10.6
	c-3.8,3-7.3,6.5-10.1,10.3c-3.7,5.1-5.7,8.1-7.8,11.4l-1,1.5c-0.6,0.9-1.1,1.6-1.4,2.3c-1.5,2.4-2.2,3.5-3.5,4.3l-0.1,0.1
	C636,1024.3,634.7,1024.5,633.4,1024.5z"/>
</svg>
