<?xml version="1.0" encoding="utf-8"?>
<!-- Generator: Adobe Illustrator 27.0.1, SVG Export Plug-In . SVG Version: 6.00 Build 0)  -->
<svg version="1.1" id="Imola_Grand_Prix_-_Config" xmlns="http://www.w3.org/2000/svg" xmlns:xlink="http://www.w3.org/1999/xlink"
	 x="0px" y="0px" viewBox="0 0 1920 1080" style="enable-background:new 0 0 1920 1080;" xml:space="preserve">
<style type="text/css">
	.st0{fill:none;stroke:#FFFFFF;stroke-width:30;stroke-miterlimit:10;}
</style>
<path class="st0" d="M1789.9,240.2c-5.4-15.3-23.5-27.8-41.3-28.2c-32.5-0.8-76.2-0.1-122.5,0.8c-52.9,0.9-107.6,1.9-146.6,0.4
	c-33.8-1.2-53.8-5.5-73.3-11.3c-5.9-1.8-13-4-20.6-6.2c-28-8.5-66.3-20.1-91.7-27.2c-34.7-9.8-51.8,13.7-59.9,24.9l-0.5,0.7
	c-5.6,7.8-13.7,21.1-20.8,32.8c-4,6.5-7.7,12.7-10.5,17c-23.7,37-23.4,70.2-21,91.8c3.8,34.8,10.6,104.1,14.2,140.8
	c1.4,14.8-0.7,17.7-3.9,22c-0.7,0.9-1.4,1.9-2.2,3c-8.6,12.8-28.7,35.9-40.8,49.7c-1.4,1.7-2.8,3.2-4,4.6c-6,7-8.5,5.6-13.7,2.6
	l-0.3-0.2c-3.8-2.1-7.8-4.6-11.8-7c-5.1-3.1-9.8-5.9-13.7-8c-12.2-6.4-20.4-7.6-27.1-8.3c-36.1-3.6-77.5-8.4-121.3-13.5
	c-65.3-7.5-139.3-16.2-222.4-23.9c-9.4-0.8-10.5-5-10.7-8.8c-0.6-8.2-3.4-14.1-8.5-17.8c-7.7-5.6-17.3-2.9-21.8-1.7
	c-0.5,0.1-0.8,0.2-1.2,0.3c-45.9,11.6-107.1,28-141.2,39c-64.7,20.9-100.5,47.9-131.4,73.8c-28.4,23.6-87,69.4-116.1,90.6
	c-20.4,15-35.9,20.5-47,23.6c-8.9,2.5-20.3,5.8-32.5,9.4c-23.4,6.9-50,14.6-69.2,19.9c-10.9,2.9-18.5,8.3-22.8,15.7
	c-6.3,11.2-2.8,23.6-0.9,30.2l0.9,3.4c5.1,18,12.7,45.3,18.1,60c7.2,19.5,20.3,25.4,30.2,26.9c11,1.7,22-1.3,29.4-3.3
	c1-0.3,2-0.6,2.9-0.8c59.2-15.1,189.1-45.6,217-51.8c24-5.4,42.7-7.1,60.4-5.4c53.8,5.1,193,22.1,212.2,24.8
	c4.8,0.7,9.2,1.2,13.1,1.7c11.4,1.4,19.7,2.4,26.7,4.9c16.1,5.5,35.2,12,55.6,18.9c51.5,17.7,110,37.7,134.8,44.8
	c32.8,9.3,56.4,11.6,75.3,13.3l4.1,0.4c30,2.9,73.5,4.4,113.1,4.4c23.7,0,46-0.6,63.1-1.8c30.8-2.2,64.8-4.9,82.8-9.3
	c31.9-7.8,35.8-23.8,37-38.2c1.3-16.2,10.7-19.9,19.9-23.4l0.1-0.1c24.8-9.7,51.1-19,72.5-25.7c23.6-7.4,32-22.7,37.6-32.8
	c0.4-0.6,0.7-1.2,1-1.8c26.4-47.2,69.2-125.8,107-195.1c18.5-33.9,35.9-65.9,49.1-89.8c12-21.8,10.9-33.2,8.8-44
	c-1.3-7-5.3-28.2-5.3-28.4c-4.5-24.1,3.8-29.1,13.5-34.9c1.2-0.8,2.4-1.5,3.7-2.3c12.6-8.2,25.8-16.4,39.6-25.1
	c42.1-26.4,85.5-53.6,121.5-83.5C1794.4,263,1792.5,247.9,1789.9,240.2z"/>
</svg>
