<?xml version="1.0" encoding="utf-8"?>
<!-- Generator: Adobe Illustrator 27.0.1, SVG Export Plug-In . SVG Version: 6.00 Build 0)  -->
<svg version="1.1" id="Imola_Moto_-_Config" xmlns="http://www.w3.org/2000/svg" xmlns:xlink="http://www.w3.org/1999/xlink"
	 x="0px" y="0px" viewBox="0 0 1920 1080" style="enable-background:new 0 0 1920 1080;" xml:space="preserve">
<style type="text/css">
	.st0{fill:none;stroke:#FFFFFF;stroke-width:30;stroke-miterlimit:10;}
</style>
<path class="st0" d="M1785.3,241.9c-5.3-15.3-23.4-27.6-41.1-28.1c-32.3-0.8-75.8-0.1-121.8,0.7c-52.6,0.9-107,1.9-145.8,0.4
	c-33.6-1.2-53.5-5.4-72.9-11.2c-5.9-1.8-12.9-3.9-20.5-6.2c-27.8-8.4-65.9-19.9-91.2-27.1c-34.6-9.7-51.5,13.6-59.6,24.7l-0.5,0.7
	c-5.6,7.8-13.6,21-20.7,32.6c-3.9,6.5-7.7,12.6-10.4,16.9c-23.6,36.8-23.2,69.8-20.9,91.3c3.7,34.6,10.6,103.6,14.1,140
	c1.4,14.7-0.7,17.6-3.8,21.9c-0.7,0.9-1.4,1.9-2.2,3c-8.5,12.7-28.6,35.7-40.5,49.4c-1.4,1.7-2.8,3.2-3.9,4.6
	c-6,6.9-8.4,5.5-13.6,2.6l-0.3-0.2c-3.7-2.1-7.8-4.6-11.7-6.9c-5.1-3.1-9.7-5.9-13.6-8c-12.2-6.4-20.3-7.6-27-8.2
	c-35.9-3.6-77.1-8.3-120.6-13.4c-64.9-7.5-138.5-16.1-221.2-23.8c-9.4-0.8-10.4-5-10.7-8.7c-0.6-8.1-3.4-14-8.4-17.7
	c-7.7-5.5-17.2-2.9-21.7-1.7c-0.5,0.1-0.8,0.2-1.2,0.3c-45.6,11.5-106.5,27.8-140.5,38.8c-64.3,20.8-99.9,47.7-130.7,73.4
	c-28.3,23.5-86.5,69-115.5,90.1c-20.3,14.9-35.7,20.4-46.7,23.5c-8.8,2.5-20.2,5.8-32.3,9.4c-23.3,6.8-49.7,14.5-68.8,19.8
	c-10.9,2.9-18.4,8.2-22.7,15.6c-6.3,11.1-2.8,23.5-0.9,30.1l0.9,3.4c5.1,17.9,12.6,44.9,18,59.6c7.1,19.4,20.2,25.3,30,26.8
	c11,1.7,21.9-1.2,29.2-3.3c1-0.3,2.1-0.6,3-0.8c58.8-15,188-45.3,215.8-51.5c25.8-5.8,44.1-7.4,59.7-5.4l0,0
	c12.6,1.7,30.7,4.6,49.7,7.7c24.4,4,49.6,8.1,66.7,10c12.3,1.4,20-2.2,23.1-10.5c1.3-3.6,1.7-8.3,2-12.6c0.1-1.1,0.1-2.2,0.2-2.9
	c1.2,0.5,2.4,1,3.3,1.4c1.1,0.5,2.2,1,3.2,1.4c32.4,11.5,102,36.3,102.6,36.6l0.2,0.1c16,5.4,35,11.9,55.2,18.8
	c51.2,17.6,109.4,37.5,134.1,44.6c32.6,9.3,56.1,11.5,74.9,13.2l4.1,0.4c29.9,2.9,73.1,4.4,112.5,4.4c23.6,0,45.7-0.6,62.7-1.8
	c30.6-2.2,64.4-4.9,82.3-9.3c31.7-7.8,35.6-23.7,36.8-38c1.3-16.1,10.7-19.8,19.8-23.3l0.1-0.1c24.6-9.6,50.8-18.9,72.1-25.6
	c23.5-7.4,31.8-22.6,37.4-32.6c0.4-0.6,0.7-1.2,1-1.8c26.2-46.9,68.8-125.1,106.4-194c18.4-33.7,35.7-65.5,48.8-89.3
	c11.9-21.6,10.9-33.1,8.7-43.7c-1.3-6.9-5.2-28-5.2-28.3c-4.5-24,3.7-28.9,13.4-34.7c1.2-0.7,2.4-1.5,3.7-2.2
	c12.5-8.1,25.7-16.3,39.4-25c41.9-26.2,85-53.3,120.8-83.1C1789.8,264.6,1787.9,249.6,1785.3,241.9z"/>
</svg>
