<?xml version="1.0" encoding="utf-8"?>
<!-- Generator: Adobe Illustrator 27.0.1, SVG Export Plug-In . SVG Version: 6.00 Build 0)  -->
<svg version="1.1" id="_24_Heures_du_Mans_-_Config"
	 xmlns="http://www.w3.org/2000/svg" xmlns:xlink="http://www.w3.org/1999/xlink" x="0px" y="0px" viewBox="0 0 1920 1080"
	 style="enable-background:new 0 0 1920 1080;" xml:space="preserve">
<style type="text/css">
	.st0{fill:none;stroke:#FFFFFF;stroke-width:30;stroke-miterlimit:10;}
</style>
<path class="st0" d="M1791.8,151.2c-5.9-2.2-16.8-5.5-22.7-7.3c-12.9-3.8-19.1-4.1-25.4-4c-15.5,0.2-35.5,0.6-56.9,0.8
	c-24.3,0.4-49.4,0.8-66.6,1c-17.1,0.2-40.6,0.8-65.5,1.6c-38,1.1-81,2.4-108.6,2c-28.9-0.4-37.9,1.5-51.4,5.8
	c-6.3,2.1-17.1,4.8-26.6,7.3c-6.3,1.6-12.3,3.2-16.7,4.4c-20.4,5.8-25.3,3-32.6-1.2c-6.4-3.8-12.5-4.7-18-3
	c-5.7,1.8-10.4,6.3-13.8,13.5c-3.9,8.3-9.8,11.4-14.1,12.5c-42.2,11.1-94.3,25.8-136.2,37.7c-16.8,4.7-32.5,9.2-45.5,12.8
	c-46.6,13-139.8,39.1-186.8,52.4c-7.7,2.2-17.2,4.9-27.6,7.8c-35.2,10-83.5,23.7-110.4,30.9c-9.9,2.6-13.7,7-16.8,10.4l-0.5,0.6
	c-3.1,3.6-6.4,7.1-9.9,10.3c-7.6,6.8-13.3,4.3-19.3-1.4c-6-5.7-16.1-2.5-20.9-1l-0.5,0.2c-36.8,11.5-86.8,24.9-130.7,36.8
	c-23.3,6.2-45.2,12.2-62.7,17.1c-17.2,4.8-43.9,12.2-69.8,19.2c-19.4,5.3-37.7,10.3-50.6,13.9c-21.7,6-62.8,17.6-83.2,23.7
	c-23,6.8-30.5,11.3-37.8,15.6c-1.6,0.9-3.2,2-5,2.9c-18.4,10.2-54.2,30.6-72.3,41.7c-13.5,8.3-22.2,14.9-30.3,22.6
	c-15.2,14.5-22.1,25.6-27.6,34.6c-1.5,2.5-3,4.8-4.5,7.1c-7.5,11.1-7.7,17.3-5.2,26.2l0.7,2.5c3.5,12.5,9.3,33.6,14.8,44l0,0
	c2.1,4,6.6,9.6,10.2,14.1c0.8,1,1.6,2.1,2.3,2.8c4,5.1,8.4,10.1,12.9,14.7l0.2,0.1c6.3,5.8,11.6,5.6,15.2,5.5c0.3,0,0.7,0,1,0
	c3-0.1,6.1-0.1,9.1,0.2c13.9,2,15.5,10.9,15.3,19.5c0,1.4-0.1,3-0.2,4.8c-0.3,8.6-0.8,20.4-0.3,27.1c2.3,30.3,17.7,38.5,29,44.6
	c0.8,0.5,1.7,0.8,2.5,1.3c7.1,3.9,10.4,9.8,13,14.5c0.3,0.6,0.6,1,0.8,1.5c3.5,6.1,9.2,15.8,14.3,24.3c2.7,4.6,5.4,9,7.4,12.5
	c5.7,9.8,13,8.4,15.4,7.9c1.9-0.4,5.5-1.2,7.3-1.8c4.1-1,4.3-0.4,5.5,2.3c0.2,0.5,0.4,0.9,0.6,1.3c3.7,7.4,11.1,21.9,15.5,29.4
	c9.4,16.3,20.4,22.9,30.8,27.7c18.6,8.5,37.1,12.6,50.6,15.7c2.5,0.6,4.7,1,6.8,1.6c11.8,2.7,23.9,4.8,36,6
	c33.8,3.7,133.3,8.9,134.2,9c0.7,0,1.2,0.1,1.9,0.1c5.9,0,9.4-2,10.4-5.9c0.9-4,1.6-4.1,2.9-4.1c6.9-0.8,14.8-2,18.1-2.5
	c7.3-1.1,13-2.4,15.5-7.9c4.1-9.3,7-9.9,10.7-10.7c30.3-6.7,80.9-17.8,108.2-24.6c18.7-4.7,27.6-4.1,36.1-1.8
	c9.7,2.7,21.2,4.1,29.2,3.5c11.2-0.8,33.3-3.5,44.1-5.1c21.4-3.1,28.2,5.7,34.2,13.5c1.2,1.5,2.4,3,3.5,4.3
	c19.8,22.2,33.5,22.8,46.9,21.5c16.7-1.7,26-11.9,32.2-18.7l1-1.1c14.6-15.6,21.2-18.2,31.9-19.7c9.3-1.1,18.8-1.5,28.1-1.2
	c16.8,0.8,23.7,6.8,29.9,12l0.1,0.1c4.1,3.4,10.1,10,15.5,15.8c3.4,3.7,6.7,7.2,9.1,9.7c11.6,11.4,26.6,14.6,42.4,9
	c20.1-7.2,31.4-14.9,40.4-21.1c1.3-0.9,2.6-1.8,4-2.7c13.6-9.1,28-17.2,42.9-24.1c10.8-5,25.7-11.5,41.5-18.5
	c19.4-8.5,39.4-17.3,52.4-23.5c13.8-6.5,28.3-11.2,43.2-14c36.1-6.4,107.6-19.7,146.5-28.1c4.6-1,7.8-3,9.5-6
	c2.4-4.2,0.8-8.8,0.1-10.9l-0.1-0.2c-1.1-3.3-2.5-7.1-3.9-11.1c-6.7-19.4-15.9-45.9-21-61.6c-0.8-2.5-0.8-4.8,0.3-6.8
	c2-3.8,6.7-6,9-6.7c5.5-1.7,10.6-3,15.5-4.4c6.4-1.7,12-3.2,16.6-4.9c13.7-5,18.7-9.9,22.9-15c25-29.4,70.3-84.3,93.6-113.9
	c8.3-10.7,16-22.1,23.1-33.7c15-24.4,34.8-60.6,50.7-89.6c5.7-10.6,11.2-20.5,15.8-28.7c5.7-10.6,10.7-21.8,14.9-33.1
	c5.9-16.5,17-49.2,22.2-65.5c5.5-16.8,12.7-41.1,19.7-64.6c7-23.5,14.2-47.7,19.4-63.5C1804.9,163.2,1801.1,154.5,1791.8,151.2z"/>
</svg>
