<?xml version="1.0" encoding="utf-8"?>
<!-- Generator: Adobe Illustrator 27.0.1, SVG Export Plug-In . SVG Version: 6.00 Build 0)  -->
<svg version="1.1" id="Historic_-_Config" xmlns="http://www.w3.org/2000/svg" xmlns:xlink="http://www.w3.org/1999/xlink" x="0px"
	 y="0px" viewBox="0 0 1920 1080" style="enable-background:new 0 0 1920 1080;" xml:space="preserve">
<style type="text/css">
	.st0{fill:none;stroke:#FFFFFF;stroke-width:30;stroke-miterlimit:10;}
</style>
<path class="st0" d="M1792,151.2c-6.7-2.5-19-6.1-22.7-7.3c-12.9-3.8-19.1-4.1-25.5-4c-15.4,0.2-35.5,0.6-56.8,0.8
	c-24.3,0.4-49.5,0.8-66.7,1c-17.1,0.2-40.6,0.8-65.5,1.6c-38,1.1-81.1,2.4-108.7,2c-29-0.4-38,1.5-51.4,5.8
	c-6.5,2.2-17.6,5-27.4,7.5c-5.9,1.5-11.6,3-15.7,4.1c-20.5,5.8-59.3,16.6-78.5,21.8l0,0c-42.9,11.6-95.8,26.4-138.3,38.4
	c-16.1,4.5-30.9,8.7-43.4,12.2c-46.6,13-140,39.1-186.8,52.4c-7.4,2.1-16.3,4.6-26.1,7.4c-35.7,10.1-84.6,23.9-111.9,31.3
	c-17.3,4.7-51.1,14-67.8,18.9c-35.9,10.7-84.2,23.8-126.8,35.4c-24.9,6.8-48.4,13.2-66.7,18.4c-17.3,4.9-44.5,12.3-70.8,19.5
	c-19,5.2-36.9,10.1-49.7,13.6c-20.7,5.7-62.2,17.5-83.2,23.7c-23,6.8-30.5,11.3-37.8,15.6c-1.6,0.9-3.2,2-5,2.9
	c-19.4,10.7-54.7,30.9-72.3,41.8c-13.5,8.3-22.2,14.9-30.4,22.6c-15.2,14.5-22.1,25.6-27.6,34.6c-1.5,2.5-3,4.8-4.5,7.1
	c-7.5,11.1-7.7,17.3-5.2,26.3l0.8,2.8c3.5,12.4,9.3,33.4,14.7,43.6c2.1,3.9,6.4,9.4,10,13.9c0.9,1.1,1.8,2.3,2.5,3.1
	c4,5.1,8.4,10.1,12.9,14.7l0.2,0.1c6.3,5.8,11.6,5.6,15.2,5.5c0.3,0,0.7,0,1,0c3-0.1,6.1-0.1,9.1,0.2c14,2.1,15.6,10.9,15.3,19.4
	c0,1.2-0.1,2.6-0.2,4.2c-0.3,8.8-0.8,20.8-0.3,27.7c2.3,30.3,17.7,38.6,29,44.6c0.8,0.5,1.7,0.8,2.5,1.3c7.1,3.9,10.4,9.8,13,14.5
	c0.3,0.6,0.6,1,0.8,1.5c3.5,6.1,9.2,15.8,14.3,24.3c2.7,4.6,5.4,9,7.4,12.5c5.2,8.8,11.3,8.7,15.4,7.9c1.9-0.4,5.5-1.2,7.3-1.8
	c4.1-1.1,4.3-0.4,5.5,2.3c0.2,0.5,0.4,0.9,0.6,1.3c3.7,7.4,11.1,21.9,15.5,29.4c9.4,16.3,20.4,22.9,30.8,27.7
	c18.6,8.5,37.1,12.6,50.6,15.7c2.5,0.6,4.7,1,6.8,1.6c11.8,2.7,23.9,4.8,36,6c33.8,3.7,133.3,8.9,134.2,9c0.7,0,1.2,0.1,1.9,0.1
	c5.9,0,9.4-2,10.4-5.9c0.9-4,1.6-4.1,2.9-4.1c6.9-0.8,14.8-2,18.1-2.5c7.3-1.1,13-2.4,15.6-7.9c4.2-9.3,6.8-9.9,10.7-10.7
	c28-6.1,80.2-17.6,108.2-24.6c18.7-4.7,27.6-4.1,36.1-1.8c9.8,2.7,21.2,4.1,29.2,3.5c11.2-0.8,33.3-3.5,44.1-5.1
	c21.4-3.1,28.2,5.7,34.2,13.5c1.2,1.5,2.4,3,3.5,4.3c19.8,22.2,33.6,22.8,46.9,21.5c16.7-1.7,26-11.9,32.2-18.7l1.1-1.1
	c14.6-15.6,21.2-18.2,32-19.7c9.3-1.1,18.8-1.5,28.1-1.2c16.8,0.8,23.8,6.8,29.9,12l0.1,0.1c4.1,3.4,10.1,10,15.6,15.8
	c3.4,3.7,6.7,7.2,9.1,9.7c11.6,11.4,26.6,14.6,42.4,9c20.1-7.2,31.4-14.9,40.4-21.1c1.3-0.9,2.6-1.8,4-2.7
	c13.6-9.1,28-17.2,42.9-24.1c10.8-5,25.7-11.5,41.5-18.5c19.4-8.5,39.4-17.3,52.4-23.5c13.8-6.5,28.3-11.2,43.2-14
	c35.8-6.3,107.2-19.7,146.6-28.1c4.6-1,7.8-3,9.5-6c2.4-4.2,0.8-8.8,0-11l-0.1-0.2c-1.1-3.4-2.5-7.4-4.1-11.7
	c-6.7-19.2-15.8-45.5-20.8-61.2c-0.8-2.5-0.8-4.8,0.3-6.8c2-3.8,6.7-6,9-6.7c5.4-1.6,10.5-3,15.4-4.3c6.5-1.8,12.1-3.3,16.7-5
	c13.7-5,18.7-9.9,22.9-15c24.7-29,69.9-83.9,93.6-114c8.3-10.7,16-22.2,23.1-33.7c15-24.4,34.8-60.5,50.7-89.6
	c5.7-10.6,11.2-20.5,15.8-28.7c5.7-10.7,10.7-21.8,14.9-33.1c5.8-16,16.7-48.4,22.2-65.5c5.6-17.2,13-41.9,20.2-66
	c7.2-23.9,14-46.6,19-62.2C1805,163.2,1801.2,154.5,1792,151.2z"/>
</svg>
