<?xml version="1.0" encoding="utf-8"?>
<!-- Generator: Adobe Illustrator 27.0.0, SVG Export Plug-In . SVG Version: 6.00 Build 0)  -->
<svg version="1.1" id="Layer_1" xmlns="http://www.w3.org/2000/svg" xmlns:xlink="http://www.w3.org/1999/xlink" x="0px" y="0px"
	 viewBox="0 0 1920 1080" style="enable-background:new 0 0 1920 1080;" xml:space="preserve">
<style type="text/css">
	.st0{fill:none;stroke:#231F20;stroke-width:20;stroke-miterlimit:10;}
</style>
<path class="st0" d="M1805.7,302.6c-27-57.5-64.9-93.5-85.2-109.8c-103.5-83.8-226.2-84.2-307.4-84.4c-6.8,0-13.2,0-19.3-0.1
	c-154-1.6-455.3-4.7-608.7-6c-20.3-0.2-46.7-0.5-74.6-0.8c-75.7-0.9-169.8-1.9-224.3-1.4c-109.5,1.2-188.5,21.7-256.5,66.6
	c-49.2,32.5-87.1,74.6-112.5,125c-24.3,47.9-31,91.4-32.8,113C76.9,493.5,101,573.2,156,641.5c50,62.1,115.2,101.4,160.9,123.5
	c62.5,30,159.3,69.2,237,100.6c33.8,13.6,65.7,26.6,90.4,37C723.7,936,841.7,980,955.2,980c2.6,0,5.3,0,7.9-0.1
	c82-1.5,148.3-12.4,208.6-34.3l2-0.8c115.2-41.7,307.8-111.5,405-159.4c51.8-25.5,106.3-55.3,153.9-99.5
	c27.3-25.4,49.5-53.2,65.9-82.7c19.1-34.3,31.1-71.9,35.7-111.9C1842.2,423.3,1832.6,359.8,1805.7,302.6z"/>
</svg>
