<?xml version="1.0" encoding="utf-8"?>
<!-- Generator: Adobe Illustrator 27.0.0, SVG Export Plug-In . SVG Version: 6.00 Build 0)  -->
<svg version="1.1" id="Layer_1" xmlns="http://www.w3.org/2000/svg" xmlns:xlink="http://www.w3.org/1999/xlink" x="0px" y="0px"
	 viewBox="0 0 1920 1080" style="enable-background:new 0 0 1920 1080;" xml:space="preserve">
<style type="text/css">
	.track-surface{fill:none;stroke:#231F20;stroke-width:20;stroke-miterlimit:10;}
</style>
<path class="track-surface" d="M854.9,914c-97.1,0-195-1.9-285.1-14.8c-125.1-18-214.3-55.1-272.9-113.5c-27.8-27.7-49.2-60.9-63.5-98.6
	c-15.1-39.9-22.8-86-22.8-137.3c0-74.3,27.7-139.5,82.5-193.9c44.6-44.3,107.6-81.8,187.2-111.6c63.3-23.6,137.2-42.4,219.7-55.9
	C839.2,165.7,956.8,166,960,166s120.8-0.3,259.9,22.5c82.5,13.5,156.5,32.3,219.7,55.9c79.6,29.7,142.6,67.3,187.2,111.6
	c54.8,54.4,82.5,119.6,82.5,193.9c0,53.1-7.6,100.6-22.9,141.2c-14.3,38.5-35.8,72.2-63.8,100.1c-29.8,29.7-68.4,54-114.4,72.4
	c-41.1,16.3-88.3,28.1-144.6,36.2c-103.4,14.9-219.7,14.4-332.1,14.1c-19-0.1-38.8-0.2-57.9-0.2s-38.8,0.1-57.9,0.2
	C895.4,913.9,875.2,914,854.9,914z"/>
</svg>
