<?xml version="1.0" encoding="utf-8"?>
<!-- Generator: Adobe Illustrator 27.0.1, SVG Export Plug-In . SVG Version: 6.00 Build 0)  -->
<svg version="1.1" id="Eldora_Config" xmlns="http://www.w3.org/2000/svg" xmlns:xlink="http://www.w3.org/1999/xlink" x="0px"
	 y="0px" viewBox="0 0 1920 1080" style="enable-background:new 0 0 1920 1080;" xml:space="preserve">
<style type="text/css">
	.track-surface{fill:none;stroke:#FFFFFF;stroke-width:30;stroke-miterlimit:10;}
</style>
<path class="track-surface" d="M1015.4,953.6c-114.7,0-238.4-4.4-316.3-11c-75.1-6.4-157.5-44.1-220.3-100.9
	c-55.6-50.2-123.4-139.8-130.4-281.1c-3.9-78.9,18.8-163.8,62.4-232.7c26.6-42,60.5-78.2,100.9-107.5
	c45.2-32.7,98.4-56.7,158.2-71.4c91.1-22.3,293.3-22.6,301.9-22.6c70,0,132.2,4.5,189.9,13.8c83.2,13.4,155.8,36.9,215.6,69.8
	c61.3,33.7,108.7,77.6,140.8,130.7c38.6,63.5,56.6,141.8,53.5,232.6c-2.7,80.2-39.6,169-98.8,237.6c-33.3,38.6-72.4,69.9-116.3,93
	c-48.7,25.7-102.3,40.8-159.2,44.7C1147.3,952,1082.9,953.6,1015.4,953.6z"/>
</svg>
