<?xml version="1.0" encoding="utf-8"?>
<!-- Generator: Adobe Illustrator 27.0.0, SVG Export Plug-In . SVG Version: 6.00 Build 0)  -->
<svg version="1.1" id="Layer_1" xmlns="http://www.w3.org/2000/svg" xmlns:xlink="http://www.w3.org/1999/xlink" x="0px" y="0px"
	 viewBox="0 0 1920 1080" style="enable-background:new 0 0 1920 1080;" xml:space="preserve">
<style type="text/css">
	svg {height: 100%;width: 100%;}.track-surface {fill: none;stroke: white;stroke-width: 30;}
</style>
<path class="track-surface" d="M1635.9,314.1c-61.1-55.3-133.3-77.2-180.5-79.2c-207.5-8.8-594.8-8.3-851.1-8c-42.9,0.1-83.5,0.1-118.4,0.1
	c-81.4,0-157.2,32-213.4,90.2c-26.6,27.5-47.6,59.4-62.4,94.9c-15.1,36-23,73.8-23.7,112.4c-1.5,88.1,28.3,166,86.2,225.3
	c29.3,30.1,65.7,54.9,105.2,71.9c35.4,15.2,72.8,23.7,105.3,24c221.5,1.7,378,3.2,503.9,4.4c170.2,1.6,282.6,2.7,423.3,3.1
	c0.3,0,0.7,0,1,0c49.1,0,95.1-9.6,136.9-28.4c38.1-17.2,72-41.8,100.7-73c51.1-55.6,82.8-130.4,84.6-200.1
	C1736.8,431.3,1682.3,356,1635.9,314.1z"/>
</svg>
