<?xml version="1.0" encoding="utf-8"?>
<!-- Generator: Adobe Illustrator 27.0.1, SVG Export Plug-In . SVG Version: 6.00 Build 0)  -->
<svg version="1.1" id="Michigan_2018_-_Config" xmlns="http://www.w3.org/2000/svg" xmlns:xlink="http://www.w3.org/1999/xlink"
	 x="0px" y="0px" viewBox="0 0 1920 1080" style="enable-background:new 0 0 1920 1080;" xml:space="preserve">
<style type="text/css">
	.st0{fill:none;stroke:#FFFFFF;stroke-width:30;stroke-miterlimit:10;}
</style>
<path class="st0" d="M1779.7,429.9c-11.6-60-38.6-115.4-80.3-164.5c-23.1-28.9-55.9-53.3-97.7-72.6c-33-15.3-71.7-27.5-114.9-36.3
	c-73.3-14.8-133.7-14.6-136.2-14.6L598.9,140l0,0c-89.7,0.5-167.1,11-230.2,31.1c-51.3,16.4-78.8,34.6-92,43.3
	c-1.9,1.3-3.5,2.3-4.6,3l-0.6,0.4c-56.3,40.5-96.3,93.2-118.7,156.8c-16.5,46.7-18.3,86-18.4,100.8c-2.3,70.1,17.5,135.9,58.7,195.6
	c30.5,44.1,64,71.6,77.1,81.4c111.2,86.1,302.7,134.8,359.4,147.8c106.4,32.4,285.9,39.4,325,39.4c7.7,0.2,15.4,0.3,23.1,0.3
	c140.2,0,284-30.3,341.3-44l1.6-0.4c148.8-27.5,285.2-104.8,291-108.1l0.4-0.2c38.4-24.4,71.4-53.3,97.8-85.9
	c21.1-25.8,38.4-54.5,51.3-85.3c21.5-51.5,22.8-91,22.9-94.9c0-0.3,0.1-0.7,0.1-1.3C1788,484.4,1783.8,451.3,1779.7,429.9z"/>
</svg>
