<?xml version="1.0" encoding="utf-8"?>
<!-- Generator: Adobe Illustrator 27.0.1, SVG Export Plug-In . SVG Version: 6.00 Build 0)  -->
<svg version="1.1" id="Oval_-_Config" xmlns="http://www.w3.org/2000/svg" xmlns:xlink="http://www.w3.org/1999/xlink" x="0px"
	 y="0px" viewBox="0 0 1920 1080" style="enable-background:new 0 0 1920 1080;" xml:space="preserve">
<style type="text/css">
	.st0{fill:none;stroke:#FFFFFF;stroke-width:30;stroke-miterlimit:10;}
</style>
<path class="st0" d="M1683.1,737.4c-6-54.1-33.5-91.8-55.5-113.9c-22.3-22.4-43.2-33.6-46.6-35.2c-31.5-19.7-659.4-412.5-670-418.8
	c-0.8-0.5-1.9-1.2-3.3-2.1c-9.2-5.9-30.7-19.6-59-30.7c-35.7-14-69.8-19.2-101.3-15.4c-47.4,3.7-84.9,24.7-108.1,41.5
	c-24.5,17.8-38.3,34.7-39.6,36.3L301.4,556.7c-30.5,32.4-50.7,70.1-60,111.8c-7.5,33.6-5.8,61.1-5,72.8c0.1,1,0.1,1.9,0.2,2.6
	l0.1,0.6c7,57.9,29.1,105.7,65.6,142c28.5,28.4,59.4,43.4,80.3,52.2c45.5,22.9,146,19,152.8,18.7l634.2,1.7
	c2.7,0,274.2,0.4,298.4,0.4c4.5,0.3,8.9,0.4,13.3,0.4c82.8,0,135.3-46.4,145.4-56.2C1645.4,885.4,1692.7,819.6,1683.1,737.4z"/>
</svg>
