<?xml version="1.0" encoding="utf-8"?>
<!-- Generator: Adobe Illustrator 27.0.0, SVG Export Plug-In . SVG Version: 6.00 Build 0)  -->
<svg version="1.1" id="Layer_1" xmlns="http://www.w3.org/2000/svg" xmlns:xlink="http://www.w3.org/1999/xlink" x="0px" y="0px"
	 viewBox="0 0 1920 1080" style="enable-background:new 0 0 1920 1080;" xml:space="preserve">
<style type="text/css">
	.st0{fill:none;stroke:#231F20;stroke-width:20;stroke-miterlimit:10;}
</style>
<path class="st0" d="M1329.3,226.6c-55.5-26.7-119.3-46.9-189.5-60.3c-55.1-10.5-113.3-16.3-163.7-16.3
	c-145.4,0-274,24.1-382.1,71.6c-75.1,33-130.4,75.3-168.9,129.3c-21.5,30.1-37.9,64.4-48.7,101.8c-11.2,38.6-16.9,82-16.9,129
	c0,48.7,11.2,95.9,33.3,140.3c20.3,41,49.1,78,85.3,110c34.7,30.5,74.4,54.8,117.4,71.9c43.2,17.1,89,26.1,132.4,26.1h484l1.4-0.1
	c3.5-0.3,87.4-7.7,171.9-55.9c79.9-45.6,175.1-136.8,175.1-312.3C1560.4,415,1480.5,299.1,1329.3,226.6z"/>
</svg>
