<?xml version="1.0" encoding="utf-8"?>
<!-- Generator: Adobe Illustrator 27.0.0, SVG Export Plug-In . SVG Version: 6.00 Build 0)  -->
<svg version="1.1" id="Layer_1" xmlns="http://www.w3.org/2000/svg" xmlns:xlink="http://www.w3.org/1999/xlink" x="0px" y="0px"
	 viewBox="0 0 1920 1080" style="enable-background:new 0 0 1920 1080;" xml:space="preserve">
<style type="text/css">
	.st0{fill:none;stroke:#231F20;stroke-width:20;stroke-miterlimit:10;}
</style>
<path class="st0" d="M1708.8,405.6c-24-18.9-49.5-3.7-63.1,4.6c-1.8,1.1-3.6,2.2-5,2.9c-20.2,11.1-25.2,12.3-41.3,9.3
	c-23.3-4.3-28.5-32.8-29.2-38.5c-5.1-36.4,8.8-67.4,21.4-86.9c14.6-22.8,16.8-45.3,5.8-60.1c-3.7-5.1-11.9-15.3-16.9-20.5
	c-17.3-18.4-30.5-25.5-41.7-30.7c-19.4-9.2-50.1-23.5-77.2-36.1c-17.4-8.2-33.9-15.7-45.9-21.4c-17.2-8.1-42.2-8.2-43.9-8.2
	c-47-0.5-84.1-1-120.1-1.5c-81.9-1.1-152.5-2.1-302.5-2.4c-0.6,0-1.1,0-1.7,0c-11.5-0.1-38.3-0.3-55.3,23
	c-11.3,15.6-20.8,17.7-27.8,19.3c-10.5,2.3-24.1,5-52.2,7.8l-0.8,0.1c-13.3,1.4-51.3,5.1-117.9,7.1c-2,0.1-12.3-0.4-20.2-14.4
	l-0.3-0.5c-0.8-1.3-20.8-32.1-50.6-37.9c-18.6-3.6-55.1-3.9-65.8-4c-0.7,0-1.2,0-1.9,0c-106.7,0-179,37.7-212.7,60.2
	C294.2,208.7,257.6,249.4,233,298c-23.4,46.1-29.9,88.2-31.7,109.1c-7.2,85.9,16.1,163,69.3,229.2c48.4,60.2,111.5,98.2,155.8,119.6
	c60.4,29,153.9,66.9,229,97.3c32.9,13.3,63.9,25.9,87.9,36c116.5,49,220.2,74.1,308.4,74.9c1,0,2,0,3,0c48.6,0,107.9-9.5,171.8-27.5
	c59.1-16.7,120.8-40,178.2-67.6c26.7-12.8,50.4-41,60.2-72c7.4-23.2,6.2-45.6-3.6-63.2c-18.9-34.3-62-51.6-128.3-51.7
	c-13.4,0-25,0-51-21.5c-15.6-12.9-28-18.9-75.1-18.6c-57.3,0.4-138.5-0.7-178.6-4.4c-9.3-0.8-32.4-9.9-32.4-26.1
	c0-6.3,0-23,44.6-34.1c32.3-8.1,59.4-9.7,135.6-11c35.3-0.7,127.5-1.8,222.1,1.7c2.4,0.1,5.5,0.2,8.8,0.3c10,0.3,23.7,0.7,30.5,1.3
	c25.7,2.5,27.5,10.9,29,17.1c2.6,11.2,7.3,29.6,12.1,43.9c4.1,12.5,14.5,25.1,21.8,26.6c30.3,6.3,64.9-19.4,81.6-31.8l0.8-0.7
	c22.7-16.8,58.3-47.5,83.9-78.6c22-26.8,31.8-48.5,39.6-66c0.7-1.7,1.5-3.3,2.2-5C1729,430.5,1717.4,412.4,1708.8,405.6z"/>
</svg>
