<?xml version="1.0" encoding="utf-8"?>
<!-- Generator: Adobe Illustrator 27.0.1, SVG Export Plug-In . SVG Version: 6.00 Build 0)  -->
<svg version="1.1" id="Myrtle_Beach_-_Config" xmlns="http://www.w3.org/2000/svg" xmlns:xlink="http://www.w3.org/1999/xlink"
	 x="0px" y="0px" viewBox="0 0 1920 1080" style="enable-background:new 0 0 1920 1080;" xml:space="preserve">
<style type="text/css">
	.track-surface{fill:none;stroke:#FFFFFF;stroke-width:30;stroke-miterlimit:10;}
</style>
<path class="track-surface" d="M1627.9,449.9c-8.4-40.3-23.3-79-44.2-114.6c-24.3-41.2-56.5-77.3-94.8-106c-44-33.1-97-57.7-157.4-73.1h-0.1
	c-11-2.7-37.3-6.5-137.7-8.4c-58.5-1.1-135-1.3-227.4-0.7c-157.1,1.1-307.7,4.2-309.2,4.3h-0.9c-2.2,0.2-54.4,4.1-119.7,27.5
	c-38.5,13.8-73.7,31.5-104.5,52.6c-38.8,26.6-70.8,58.8-95.2,95.6c-34.4,48.9-54.2,118.8-52.8,187c0.9,43.9,10,87.2,26.8,127.7
	c19.4,47.1,49.2,92.2,88.6,133.8l0.5,0.5l0.6,0.5c31.9,28.4,65.3,51.7,125.1,72.9c63.3,22.5,154.2,41.7,286,60.5h0.3
	c63,8,163.1,21.4,164.1,21.6l1.2,0.1c1,0.1,16.3,1,41.8,1c14.7,0,32.8-0.3,53.5-1.3c52.2-2.5,131.4-10,212.5-31.5
	c92-24.4,167.5-61.5,224.5-110.3c72.2-61.8,114.5-142.2,125.7-238.8l0.1-0.7C1637.7,518.9,1635.1,484.2,1627.9,449.9z"/>
</svg>
