<?xml version="1.0" encoding="utf-8"?>
<!-- Generator: Adobe Illustrator 27.0.1, SVG Export Plug-In . SVG Version: 6.00 Build 0)  -->
<svg version="1.1" id="Dirt_Config" xmlns="http://www.w3.org/2000/svg" xmlns:xlink="http://www.w3.org/1999/xlink" x="0px"
	 y="0px" viewBox="0 0 1920 1080" style="enable-background:new 0 0 1920 1080;" xml:space="preserve">
<style type="text/css">
	.st0{fill:none;stroke:#FFFFFF;stroke-width:30;stroke-miterlimit:10;}
</style>
<path class="st0" d="M856.6,919.2c-109.5,0-200.3-3.4-285.2-16.7c-157.5-24.8-236.9-111.1-275.7-179.1
	c-22.6-39.9-37.9-83.5-45.2-128.7c-6.7-40.1-7.2-80.1-1.6-115.8c8-51.4,27.3-100.4,56.5-143.4c25.9-38.2,59.3-71.9,99.4-100
	c69.2-48.6,154.7-77.2,223.1-74.5c22.5,0.9,47.3,1.8,73.7,2.8c197,7.3,494.7,18.4,664.2,41.8c85.2,11.8,148.2,51.1,186,82
	c47.1,38.5,82.7,86.5,97.8,131.7c28.9,86.9,33.2,166.6,12.8,236.8c-18.9,64.7-54.7,111-83.9,144.2
	c-42.4,48.1-107.8,82.1-194.5,101.1c-40,8.8-80.8,13.6-121.7,14.4c7.3-0.1,13.3-6.1,13.3-13.4l-13.3-0.1v13.5
	c-88.8,0-169.2,1.1-240.1,2C962,918.5,907.3,919.2,856.6,919.2z"/>
</svg>
