<?xml version="1.0" encoding="utf-8"?>
<!-- Generator: Adobe Illustrator 27.0.1, SVG Export Plug-In . SVG Version: 6.00 Build 0)  -->
<svg version="1.1" id="Lanier_Oval__Config" xmlns="http://www.w3.org/2000/svg" xmlns:xlink="http://www.w3.org/1999/xlink"
	 x="0px" y="0px" viewBox="0 0 1920 1080" style="enable-background:new 0 0 1920 1080;" xml:space="preserve">
<style type="text/css">
	.st0{fill:none;stroke:#FFFFFF;stroke-width:30;stroke-miterlimit:10;}
</style>
<path class="st0" d="M1598.5,551c-2.3-69.4-19.1-131.6-50-185.3c-26.6-46.1-63.5-85.7-109.9-117.6c-98.8-68.3-206.8-79.7-237.5-81.6
	c-80.1-4.9-200.1-3.5-316.2-2.2c-60.4,0.7-117.4,1.4-166.9,1.1c-61.2-0.3-118.5,10.9-170.6,33.3C500.2,218.9,458.3,248,423,285
	c-33.7,35.2-60.8,77.4-78.5,122.1c-17,43-24.8,87.3-22.9,128.1c6.3,128.6,53.7,226.2,141.2,290c64.1,46.9,147.5,74.6,255,84.7
	c59.3,5.6,147.9,7.1,236.3,7.1c52.6,0,105-0.5,151.1-0.9c30.2-0.3,58.8-0.6,81.8-0.7c63.2-0.2,123.2-12,178.7-35.2
	c52.7-22,98.7-53.1,136.7-92.4C1567.1,720.7,1601.2,636.5,1598.5,551z"/>
</svg>
