<?xml version="1.0" encoding="utf-8"?>
<!-- Generator: Adobe Illustrator 27.0.0, SVG Export Plug-In . SVG Version: 6.00 Build 0)  -->
<svg version="1.1" id="Layer_1" xmlns="http://www.w3.org/2000/svg" xmlns:xlink="http://www.w3.org/1999/xlink" x="0px" y="0px"
	 viewBox="0 0 1920 1080" style="enable-background:new 0 0 1920 1080;" xml:space="preserve">
<style type="text/css">
	.track-surface{fill:none;stroke:#231F20;stroke-width:20;stroke-miterlimit:10;}
</style>
<path class="track-surface" d="M1751.5,273.3c-2.7-26.2-15-47.3-36.1-61.4c-80-53.2-185.6,19.2-230.4,65c-51,52.3-157.4,149.2-211.6,194.7
	c-82.9,69.6-85.6,71.1-145.1,82.1c-20.5,3.8-64.1,1.1-90.3-0.6c-5.1-0.4-9.9-0.6-13.9-0.8c-159.3-8.7-336.1-5.5-453.3-3.4
	c-158,2.9-214.5,6.3-283.7,23.4C207,592.3,168,626.9,168,678.5c0,57.6,65.2,87.6,100.2,90.9c106.7,10.1,323.8,9.3,366.2,9.1
	c92.2-0.6,106.5,11.2,128,29.1c57,47.3,89.4,54.9,128.9,52.5l0,0c36.7-2.3,82.1,11,103.2,18.1v0.8l13.5,4.2
	c9.5,2.9,20.3,3.8,30.6,3.8c17.7,0,33.5-2.9,36.1-3.4l1-0.2l1-0.4c1-0.4,100.4-30.2,136.9-39.7c43.5-11.4,69.8-23.6,90.1-42.2
	c93.7-85.4,206.3-189.4,330.2-313.3C1715.4,406.4,1757,330.2,1751.5,273.3z"/>
</svg>
