<?xml version="1.0" encoding="utf-8"?>
<!-- Generator: Adobe Illustrator 27.0.1, SVG Export Plug-In . SVG Version: 6.00 Build 0)  -->
<svg version="1.1" id="RX" xmlns="http://www.w3.org/2000/svg" xmlns:xlink="http://www.w3.org/1999/xlink" x="0px" y="0px"
	 viewBox="0 0 1920 1080" style="enable-background:new 0 0 1920 1080;" xml:space="preserve">
<style type="text/css">
	.st0{fill:none;stroke:#FFFFFF;stroke-width:30;stroke-miterlimit:10;}
</style>
<path class="st0" d="M499.4,145.2c-23.8,6.4-46.2,27.6-66.1,62.7C407.9,252.6,322.4,410,321.5,411.6c-38,71.6,3.4,113.9,21.1,132
	c2.3,2.3,4.5,4.7,5.4,5.9c0.7,1.1,1.6,2.1,2.5,3.4c10,12.9,26.7,34.6,19.2,59.6c-4.1,13.6-13.6,39.8-24.5,70.2
	c-14.3,39.4-30.4,83.8-39,113c-3.2,10.7-1.1,21.8,6.1,33.1c29,45.1,137.5,80.8,156.5,83.4l11.6,1.6c76.6,10.6,118.7,16.5,315,20.1
	c11.5,0.2,24.4,0.5,38.3,0.7c89.4,1.8,224.4,4.5,296.7-0.7c62-4.5,219.9-24.7,349.9-115.3c33.1-23.1,65.9-56.6,89.7-91.7
	c28.8-42.4,44.4-86.1,45.3-126.8V600c0-1.1-0.2-2.1-0.5-3c0-3.9-0.2-8.1-0.4-12c-2-25.6-9.3-50.1-21.5-72.7
	c-16.8-31.9-42.3-68.4-90.3-67.5c-39,0.7-78.1,14.5-115.7,41c-31.9,22.4-61.1,53-84.5,88.3c-19.3,29.7-35.5,61.4-48,94.5l-5.4,8.6
	c-0.5,0.7-1.1,1.4-1.6,2.3c-2.1,2.7-4.3,5.4-6.6,8.2c-12.2,13.8-28.7,26.1-49.1,36.9c-23.3,12-69.3,21.1-136.6,26.9
	c-38.5,3.2-101.5,4.7-150.2,3.2c-17.9-0.5-110.3-3.8-177.6-13.4l-12.2-2H715c-59.8-7.5-107.6,2.3-134.5,27.4
	c-22.2,20.8-50,27.9-64.8,24.2c-14.3-3.8-37.2-17-42.1-38.7c-2.9-12.7-1.4-32.2,1.3-67.7c2-27.9,4.8-66.3,7-119.8l8.2-52.3
	c7.3-31.5,12.9-46.4,38.9-104.9c6.6-14.9,16.8-36,27.8-58.2c13.1-26.9,26.5-54.6,34.4-73.2c8.4-20.1,34.4-80.9-35.6-121.1
	C535.5,143.6,516.9,140.3,499.4,145.2z"/>
</svg>
