<?xml version="1.0" encoding="utf-8"?>
<!-- Generator: Adobe Illustrator 27.0.0, SVG Export Plug-In . SVG Version: 6.00 Build 0)  -->
<svg version="1.1" id="Layer_1" xmlns="http://www.w3.org/2000/svg" xmlns:xlink="http://www.w3.org/1999/xlink" x="0px" y="0px"
	 viewBox="0 0 1920 1080" style="enable-background:new 0 0 1920 1080;" xml:space="preserve">
<style type="text/css">
	.st0{fill:none;stroke:#231F20;stroke-width:20;stroke-miterlimit:10;}
</style>
<path class="st0" d="M1659.5,706.4l-1.3-0.9c-17.1-11-39.4-22.9-61-34.2c-13.7-7.2-26.5-13.9-37.3-20.2
	c-37.1-21.4-45.4-43.6-52.9-63.2c-15.1-40-34.2-104.2-52.6-166.2c-15.3-51.7-29.9-100.6-41.8-134.5c-13-37.1-48.8-79-145.3-66.8
	c-56.7,7-84.6,38-102.4,64.3c-22,32.4-40.7,33.3-58.5,34.2c-105.1,5.4-257.6,10.8-368.5-5.2c-31.9-4.5-53.1-19.1-62.8-43.4
	c-24.1-60.3-100.8-54.4-104.2-54l-228.6,27.2l-1.3,0.2c-94.9,23.6-141,64.6-141,125.5c0,68.2,77.2,103.7,118.6,107.5
	c125.3,11.7,382.9,11,433.3,10.8c109.1-0.7,125.8,13.3,151.4,34.4c71.1,59.2,109.6,60.5,150.3,62.1c77.8,3.1,100.3,9.9,131.4,19.3
	l5.6,1.8c87.7,26.5,140.6,90,187.2,145.8c48.4,58,94.3,113.2,167.8,113.2c11,0,22.7-1.3,35.1-3.8c27-5.8,91.8-32.4,121-51.7
	c16.2-10.6,18.4-25,18.4-32.4C1719.3,748.9,1689,725.5,1659.5,706.4z"/>
</svg>
