<?xml version="1.0" encoding="utf-8"?>
<!-- Generator: Adobe Illustrator 27.0.0, SVG Export Plug-In . SVG Version: 6.00 Build 0)  -->
<svg version="1.1" id="Layer_1" xmlns="http://www.w3.org/2000/svg" xmlns:xlink="http://www.w3.org/1999/xlink" x="0px" y="0px"
	 viewBox="0 0 1920 1080" style="enable-background:new 0 0 1920 1080;" xml:space="preserve">
<style type="text/css">
	svg {height: 100%;width: 100%;}.track-surface {fill: none;stroke: white;stroke-width: 30;}
</style>
<path class="track-surface" d="M1723.3,582.3l-63.5-200.7l-0.3-0.8c-15.8-45-59.2-95.7-176.1-81c-68.7,8.5-102.5,46.1-124.1,78
	c-26.7,39.3-49.3,40.4-70.9,41.4c-127.9,6.5-313.3,12.8-446.6-6.3c-38.2-5.5-64.6-23.7-76.1-52.6c-29.4-73.1-122.1-65.7-126.2-65.4
	l-277,33l-1.6,0.3C245.9,356.8,190,406.4,190,480.3c0,82.6,93.5,125.7,143.7,130.3c153,14.5,464.3,13.4,525.1,13.1
	c132.2-0.8,152.7,16.1,183.5,41.7c84.2,70.1,129.2,75.2,183.2,75.2c68.7,0,118.3,7.6,156.5,24.3c18.5,8.2,67.6,20.4,92.4,20.4
	c0.5,0,0.8,0,1.4,0c76.1-1.9,111.2-28.4,139.3-49.6c2.5-1.9,4.9-3.5,7.4-5.5c19.1-14.2,33.8-21,47.2-27c13.1-6,25.6-11.7,36.8-22.6
	C1737.5,650.7,1731.8,605.2,1723.3,582.3z"/>
</svg>
