<?xml version="1.0" encoding="utf-8"?>
<!-- Generator: Adobe Illustrator 27.0.0, SVG Export Plug-In . SVG Version: 6.00 Build 0)  -->
<svg version="1.1" id="_300__Config" xmlns="http://www.w3.org/2000/svg" xmlns:xlink="http://www.w3.org/1999/xlink" x="0px"
	 y="0px" viewBox="0 0 1920 1080" style="enable-background:new 0 0 1920 1080;" xml:space="preserve">
<style type="text/css">
	.track-surface{fill:none;stroke:#231F20;stroke-width:10;stroke-miterlimit:10;}
</style>
<path class="track-surface" d="M1578.8,914.2c-6.7,0-13.4-0.3-20.2-0.8c-34.3-2.8-148.8-23.9-184.9-176.1l-0.1-0.5c-2.1-9-3.5-15-19.2-11.6
	c-44.3,9.5-214,35.4-313.2,48.6l-3.3,0.5c-9.5,1.3-16.4,2.3-43.8,2.3c-83,0.1-171.3-1.3-273.6-3c-135.4-2.2-288.9-4.8-480.7-4.5
	c-18.4,0-42.2-1.7-64-15.4c-21-13.2-50.2-36.2-89.2-97.1l-0.5-0.8c-9.2-14.2-14.7-25.6-14.2-63.8c0.6-52.2,3.9-122.1,7.4-196
	c3-62.4,6-126.9,7.4-181c0.8-30.5,15.8-48.9,40.1-49.1h0.5c9.8,0,39.3,3.5,39.8,44.8c0.8,56.9,0.9,108.1,1,157.6
	c0.2,66.6,0.3,124.2,2,179.2c0.8,25.3,8.9,71,54.1,92c20.7,9.6,52.7,16.8,80.5,8.1c37.8-11.8,75.2-24.5,114.8-37.9
	c119.9-40.8,255.7-87,442.3-118c14.2-2.3,50.8-14.2,50.2-40.3c-0.3-11.4-0.6-24.4-37-34.1c-56.1-15-155.5-32.8-235.5-47.1
	c-29.9-5.4-58.1-10.4-79.9-14.6l-0.8-0.1c-20.1-3.9-40.8-7.8-69.5,27.7c-48.9,60.6-117.2,144.2-164.7,198.1
	c-5.4,6.2-16.7,19-32.9,19.8c-9.7,0.5-19.1-3.4-28-11.5c-9.4-8.6-27.6-25.8-36.6-35.8c-10.7-11.8-17.4-25.1-20.3-58.3
	c-2-23-3.4-60.9-4.7-94.3c-0.7-18.4-1.3-35.7-2-48.3c-1.1-21.1,6.2-54,30.3-77.1c20.4-19.5,48.9-28,82.3-24.7
	c203,20.1,756.3,92.4,992.5,123.3c61.1,8,101.5,13.3,108.2,14c27.6,3.2,63.4,2.3,95.5-32.6c2.3-2.5,5.3-5.8,8.6-9.4
	c9-9.9,20.1-22.3,26.2-28l1.5-1.5c8.2-8,23.5-22.9,54.7-2.8c29.1,18.8,58.6,36.6,87.2,53.9c38.4,23.2,74.6,45.2,107.3,67.6
	c10.9,7.5,27.4,18.8,39,36.9c13.3,20.8,17.5,45.7,12.8,76c-9.3,59.5-29.1,147.8-52.5,211.3c-15.2,41.1-43.7,80.3-78.3,107.6
	C1676.2,898.2,1629.3,914.2,1578.8,914.2z"/>
</svg>
