<?xml version="1.0" encoding="utf-8"?>
<!-- Generator: Adobe Illustrator 27.0.0, SVG Export Plug-In . SVG Version: 6.00 Build 0)  -->
<svg version="1.1" id="_200__Config" xmlns="http://www.w3.org/2000/svg" xmlns:xlink="http://www.w3.org/1999/xlink" x="0px"
	 y="0px" viewBox="0 0 1920 1080" style="enable-background:new 0 0 1920 1080;" xml:space="preserve">
<style type="text/css">
	svg {height: 100%;width: 100%;}.track-surface {fill: none;stroke: white;stroke-width: 30;}
</style>
<path class="track-surface" d="M1512.3,874c-6,0-12-0.3-18.1-0.8c-30.6-2.5-132.8-21.4-165-157.2l-0.1-0.4c-1.9-8-3.2-13.3-17.1-10.4
	c-39.6,8.5-191,31.6-279.6,43.4l-3,0.4c-8.5,1.2-14.6,2-39,2.1c-74.1,0.1-152.9-1.2-244.2-2.7c-120.9-2-257.9-4.3-429-4
	c-16.4,0-37.6-1.5-57.1-13.8c-18.7-11.8-44.8-32.3-79.6-86.6l-0.5-0.7c-8.2-12.7-13.1-22.9-12.7-56.9c0.6-46.6,3.5-109,6.6-174.9
	c2.7-55.7,5.4-113.3,6.6-161.5c0.7-27.2,14.1-43.6,35.8-43.9c8.2-0.1,35.2,2.5,37.7,39.5c1.1,16.4,12.7,19.6,25.1,20.7
	c1,0.1,1.8,0.2,2.6,0.3c63.8,9.1,98.9,13.6,100.7,13.9c208.2,23.1,800.4,100.5,977,123.6l5.4,0.7c35.2,4.6,57,1.4,85.1-29.1
	c2.1-2.2,4.7-5.2,7.6-8.4c8-8.9,18-19.9,23.3-25l1.4-1.3c7.3-7.1,21-20.4,48.8-2.5c26,16.7,52.3,32.7,77.8,48.1
	c34.2,20.7,66.6,40.3,95.8,60.3c9.7,6.7,24.5,16.8,34.8,32.9c11.9,18.6,15.6,40.8,11.4,67.8c-8.3,53.1-26,132-46.9,188.6
	c-13.6,36.7-39,71.7-69.9,96C1599.2,859.7,1557.4,874,1512.3,874z"/>
</svg>
