<?xml version="1.0" encoding="utf-8"?>
<!-- Generator: Adobe Illustrator 27.0.0, SVG Export Plug-In . SVG Version: 6.00 Build 0)  -->
<svg version="1.1" id="Layer_1" xmlns="http://www.w3.org/2000/svg" xmlns:xlink="http://www.w3.org/1999/xlink" x="0px" y="0px"
	 viewBox="0 0 1920 1080" style="enable-background:new 0 0 1920 1080;" xml:space="preserve">
<style type="text/css">
	.st0{fill:none;stroke:#231F20;stroke-width:20;stroke-miterlimit:10;}
</style>
<path class="st0" d="M1718,460.2c-1-39.7-13.8-79.5-100.6-102.7c-110.3-29.5-303.9-64.2-459.6-91.9
	c-57.8-10.3-112.4-20.2-154.3-28.1l-1.7-0.4c-43-8.1-102-19.4-171.9,67.5c-76.8,95.2-220.4,271.6-318.3,382.8
	c-7,7.9-21.5,24.4-36.8,25.4c-7.9,0.4-16.9-3.7-26-12.2c-16.5-15.3-52.1-48.8-68.6-66.9c-13.2-14.3-24.4-31.2-29.5-90.3
	c-6-67.8-10.9-204.5-12.8-274.5c-0.2-5.8-1.6-26.4-12.6-45.2c-11.8-20.2-31-31.2-53.7-31.2c-0.2,0-0.4,0-0.6,0
	c-39.7,0.4-64,26-65.1,68.8c-2.7,101-4.8,291.9-3.5,386.7c0.4,22.3,3.9,66.3,24.8,110.5c21.9,46.3,56.4,80.6,102.3,102
	c16.5,7.8,64,26.9,119.8,26.9c20.5,0,42.3-2.7,64.2-9.5c73.9-22.9,146.5-47.7,223.5-73.9c230.9-78.5,492.7-167.5,851.3-227
	C1634.1,569.8,1719.7,535.6,1718,460.2z"/>
</svg>
