<?xml version="1.0" encoding="utf-8"?>
<!-- Generator: Adobe Illustrator 27.0.0, SVG Export Plug-In . SVG Version: 6.00 Build 0)  -->
<svg version="1.1" id="Layer_1" xmlns="http://www.w3.org/2000/svg" xmlns:xlink="http://www.w3.org/1999/xlink" x="0px" y="0px"
	 viewBox="0 0 1920 1080" style="enable-background:new 0 0 1920 1080;" xml:space="preserve">
<style type="text/css">
	.track-surface{fill:none;stroke:#231F20;stroke-width:20;stroke-miterlimit:10;}
</style>
<path class="track-surface" d="M811.1,148.6c-8.2,1.9-12.5,2.8-35.4-8.9l-1.1-0.5c-2.9-1.2-5.7-2.5-8.5-3.8c-22.7-10.3-51-23.1-107.9-7.5
	l-0.9,0.3c-1.6,0.6-3.7,1.2-6,1.9c-21.9,6.7-67.5,20.7-111.8,60.4c-9.8,8.8-18.6,18.6-26.3,29.2l-5.4,7.3l-0.4,0.6
	c-17.7,26.7-29.6,56.8-34.9,88.4c-4.7,26.5-6.7,46.3-8.2,62.2c-1.8,17.7-3,30.5-7.1,43l-0.3,1.1c-7.8,30.5-52.4,86.6-76.5,116.7
	c-6,7.5-11.2,14-15,19.1c-1.6,2.1-3.2,4.2-4.8,6.3c-19.7,25.7-42.1,54.8-45.4,123.8v0.3c-0.7,24.6,1.8,58.5,26.8,123.9l0.4,1
	l0.5,0.9c4.9,9.3,9.6,40.6,10.7,71.5c0.9,26.1,16.8,61.7,58.8,76.1c6.3,2.2,12.9,3.3,19.5,3.4c23.2,0,42-14.5,53.2-30.6
	c9.7-16.4,29.7-23.7,47.8-17.4c6.1,2,12.1,4.3,18,6.9c6.3,2.7,12.8,5.4,20.2,7.9c18.8,6.3,39.2,4.9,56.9-4
	c18-9.3,26.6-22.8,35.6-37.1l2.8-4.4l0.5-0.8c7.3-12.9,24.7-24.2,31.1-27.5c40.1-20.2,107.3-54.2,169.5-66h0.4
	c54.5-11.5,151.8-24.9,198.6-31.3c12.2-1.7,21-2.9,24.7-3.5c33.1-5.3,65.1-15.9,94.8-31.3c2.2-1.2,5.3-2.8,8.3-4.2
	c30.1-13.8,151.9-71,188.5-88.1c7.9-3.7,15-6.7,21.7-9.4c19.2-7.4,82-36.8,84.7-106.1v-0.9c-0.3-24.3,2.9-63.9,11.2-75.8l0.4-0.6
	c11.9-18.7,22.5-23.2,36-28.9c5.5-2.3,11-4.8,16.2-7.7c20.2-11.5,65.2-45.3,48.3-110.6l-0.3-1c-16.4-49.9-61.6-61-88.6-67.7
	l-5.7-1.4c-28.8-7.4-180.7-44.8-343.8-56.9l-3.3-0.2c-7.7-0.9-24.2-2.2-45.1-4c-32.9-2.7-88.1-7.4-98.5-10.1l-0.5-0.1
	c-15.9-3.5-31.1-9.9-44.7-18.9l-2.9-1.8c-13-8-52.2-23.3-82.2-13.8C855.6,127.3,819.4,146.8,811.1,148.6z"/>
</svg>
