<?xml version="1.0" encoding="utf-8"?>
<!-- Generator: Adobe Illustrator 27.0.1, SVG Export Plug-In . SVG Version: 6.00 Build 0)  -->
<svg version="1.1" id="Irwindale_Inner_Outer_Oval__Config"
	 xmlns="http://www.w3.org/2000/svg" xmlns:xlink="http://www.w3.org/1999/xlink" x="0px" y="0px" viewBox="0 0 1920 1080"
	 style="enable-background:new 0 0 1920 1080;" xml:space="preserve">
<style type="text/css">
	.st0{fill:none;stroke:#FFFFFF;stroke-width:30;stroke-miterlimit:10;}
</style>
<path class="st0" d="M1502,273.9c-63-58.3-147.1-101.5-230.6-118.5c-126.4-25.7-262.3-27.1-404-4.3c-121,19.5-249.3,57.1-381,112
	l-0.4,0.1c-14.1,5.8-63.3,28.5-107.6,75.5c-27.5,29.3-48.1,62.7-61,99.4c-16,45.1-20.3,95.2-12.8,148.8
	c7.4,52.9,28.1,100.2,61.8,140.4c42.2,50.5,105,90.3,186.7,118.5c102.2,35.2,189.6,59.1,275.3,75.2c85.2,16,166,24,245.4,24
	c28.5,0,56.7-1.1,84.7-3.1l0,0c135.5-9.8,249.9-52.1,331.1-122.2c82.9-71.7,127.6-169.8,129.3-283.7
	C1620.6,436.9,1580.1,346.2,1502,273.9z"/>
</svg>
