<?xml version="1.0" encoding="utf-8"?>
<!-- Generator: Adobe Illustrator 27.0.1, SVG Export Plug-In . SVG Version: 6.00 Build 0)  -->
<svg version="1.1" id="Limaland_-_Config" xmlns="http://www.w3.org/2000/svg" xmlns:xlink="http://www.w3.org/1999/xlink" x="0px"
	 y="0px" viewBox="0 0 1920 1080" style="enable-background:new 0 0 1920 1080;" xml:space="preserve">
<style type="text/css">
	.track-surface{fill:none;stroke:#FFFFFF;stroke-width:30;stroke-miterlimit:10;}
</style>
<path class="track-surface" d="M960,920c-107.6,0-215.1-0.5-244.6-1.6c-104.8,3.4-202.5-25.5-275.4-81.3c-86.1-65.9-135.2-166.2-142-289.9
	c-2-37,4.5-78,18.8-118.5c34.1-95.3,103.7-173.7,194.2-219c54-27.2,115.1-42.9,181.5-46.7c67.5-3.9,467.5-3.9,535,0
	c66.4,3.8,127.5,19.5,181.5,46.7c90.5,45.2,160.1,123.7,194.2,219c14.3,40.6,20.8,81.5,18.8,118.5c-6.8,123.8-55.9,224-142,289.9
	c-72.9,55.8-170.7,84.6-275.4,81.3C1175.1,919.5,1067.6,920,960,920z"/>
</svg>
