<?xml version="1.0" encoding="utf-8"?>
<!-- Generator: Adobe Illustrator 27.0.1, SVG Export Plug-In . SVG Version: 6.00 Build 0)  -->
<svg version="1.1" id="Rallycross_-_Config" xmlns="http://www.w3.org/2000/svg" xmlns:xlink="http://www.w3.org/1999/xlink"
	 x="0px" y="0px" viewBox="0 0 1920 1080" style="enable-background:new 0 0 1920 1080;" xml:space="preserve">
<style type="text/css">
	.track-surface{fill:none;stroke:#FFFFFF;stroke-width:30;stroke-miterlimit:10;}
</style>
<path class="track-surface" d="M1665.2,577.4c-0.9-4.4-2.3-8.6-4.1-12.7l-0.3-0.6c-13.5-27.3-37-44.2-68.1-48.8c-13.7-2-27.7-1.7-41.3,1.1
	c-11.8,2.2-183.4,33.6-212.5,40.4c-22.8,3.6-39.3,17.8-46.3,40.3c-3,9.8-4.2,20.1-3.6,30.4c0.2,9,3,114.1,4.9,145.5
	c0.3,11.2-7.2,20.2-8.9,22.1c-6,4.9-15.8,10.6-19.8,10.7c-28-0.6-602-13.3-638.1-13.3c-39.1,0-72.8-10.1-89.3-16.1l-0.2-0.1
	c-43.9-15.2-123.5-58.5-163.1-177.9c-10.5-31.6-12-68.2-4.7-111.7c7.4-44,24.6-67.9,36-83.7l2.8-3.9
	c57.7-77.1,110-123.7,143.7-149.3c8.6-6.5,14.8-15.7,17.7-26c1.2-4.3,1.6-8.8,1.3-13.2c-2-26.2-20.8-42.7-50.1-44.1
	c-14.7-0.6-29.4,2.3-42.8,8.6C313,251.1,223,431.9,262,609.6s196.4,304.2,378.3,304.1h647.2c180.5,0,337.1-124.8,377.4-300.8
	C1667.6,601.2,1667.7,589.1,1665.2,577.4z"/>
</svg>
