<?xml version="1.0" encoding="utf-8"?>
<!-- Generator: Adobe Illustrator 27.0.1, SVG Export Plug-In . SVG Version: 6.00 Build 0)  -->
<svg version="1.1" id="Oval_-_Config" xmlns="http://www.w3.org/2000/svg" xmlns:xlink="http://www.w3.org/1999/xlink" x="0px"
	 y="0px" viewBox="0 0 1920 1080" style="enable-background:new 0 0 1920 1080;" xml:space="preserve">
<style type="text/css">
	.track-surface{fill:none;stroke:#FFFFFF;stroke-width:30;stroke-miterlimit:10;}
</style>
<path class="track-surface" d="M1714.9,480.8c-0.5-22.1-6.8-74-27.5-127.9c-12.1-31.6-27.5-60-45.7-84.3c-22.3-29.8-49.1-53.5-79.4-70.7
	l-3.8-2.4c-29.4-19-98.2-63.4-282.4-59.2c-38.5-0.8-653.5-3-724.8-3.3h-0.8h-0.8c-1.4,0.1-35.7,1.7-82,13.9
	c-53.4,14.2-102.8,40.5-144.4,76.8c-67.9,59.6-110.1,143-117.8,233l-0.1,1.6c-4.5,114.5,31.7,211.4,104.6,280.2l0.7,0.6
	c14.9,13.3,47.1,40,95.9,68.7c57.5,33.7,119.1,60,183.3,78.2c55,17.8,172.6,40.8,177.6,41.8l0.7,0.1c5.4,0.9,111.5,19,206.6,19
	c20.1,0.1,40.3-0.9,60.3-3c50.7-4.2,112.3-10.9,185.6-28c88-20.5,175.4-51.7,267.2-95.2l1.1-0.5c0.8-0.4,3.5-1.6,5.7-2.6
	c21-9.4,76.8-34.3,126.4-86.2c28-29.3,50.4-63.5,66-100.9c18.6-44.7,28-94.9,27.8-149.1L1714.9,480.8z"/>
</svg>
