<?xml version="1.0" encoding="utf-8"?>
<!-- Generator: Adobe Illustrator 27.0.0, SVG Export Plug-In . SVG Version: 6.00 Build 0)  -->
<svg version="1.1" id="Layer_1" xmlns="http://www.w3.org/2000/svg" xmlns:xlink="http://www.w3.org/1999/xlink" x="0px" y="0px"
	 viewBox="0 0 1920 1080" style="enable-background:new 0 0 1920 1080;" xml:space="preserve">
<style type="text/css">
	.track-surface{fill:none;stroke:#231F20;stroke-width:20;stroke-miterlimit:10;}
</style>
<path class="track-surface" d="M1666.7,297c-8.6-20.9-30.1-33.5-47.3-38.3c-24.3-6.8-67.5-20-93.4-27.7l-6.5-2c-23.2-7-91.4-25.9-94.3-26.8
	l-0.9-0.2c-55.8-12.4-84.6,35.8-98.6,59c-1.4,2.5-2.9,4.9-4.1,7c-29.3,46.4-110.7,155.9-149.8,201.9c-36.4,42.3-84.2,72-138.4,85.7
	c-42.1,11-84.2,18-172.6-5c-63.7-16.6-168.3-56.5-252.3-88.4c-31.1-11.9-60.7-23-83.7-31.5c-36.4-13.1-99.9-18.2-159.8,11.2
	c-50.9,25-88,70.4-107.5,131c-17.8,55.6-4.9,127.3,32.8,182.7c41.9,61.6,109.6,98.5,190.6,103.9c142.2,9.4,301.3,11.2,417.4,12.4
	c17.1,0.2,33.5,0.4,49,0.5l0,0c45.4,0.5,103.1,1.8,164.2,2.9c109.8,2.2,231.5,4.7,325.4,4.7c20.7,0,40-0.2,57.6-0.4
	c34-0.5,59.2-10.1,75.1-28.6c11.3-13.1,17.3-30.6,17.3-50.2c0-9.7,0-20.3,0-32c0.2-78.1,0.2-196.2-3.2-260.1
	c-2-34.7,3.4-47,10.4-59.4c6.7-11.7,19.6-29.9,32-47.5c13.5-19.3,27.5-39.1,35.3-52.9C1674.1,326.2,1671.4,308.2,1666.7,297z"/>
</svg>
