<?xml version="1.0" encoding="utf-8"?>
<!-- Generator: Adobe Illustrator 27.0.0, SVG Export Plug-In . SVG Version: 6.00 Build 0)  -->
<svg version="1.1" id="Layer_1" xmlns="http://www.w3.org/2000/svg" xmlns:xlink="http://www.w3.org/1999/xlink" x="0px" y="0px"
	 viewBox="0 0 1920 1080" style="enable-background:new 0 0 1920 1080;" xml:space="preserve">
<style type="text/css">
	.track-surface{fill:none;stroke:#231F20;stroke-width:20;stroke-miterlimit:10;}
</style>
<path class="track-surface" d="M999.8,930c-89,0-171.3-4.1-232-7.1c-13.5-0.7-26.3-1.3-37.3-1.8c-37.8-1.7-79.2-9.5-119.7-22.5
	c-47.6-15.4-91.2-36.8-129.5-63.9c-98.1-69.4-153.3-170.1-159.7-291.1c-2-36.9,4.3-77.9,18.2-118.8c14.9-43.8,38.3-86.3,67.8-122.6
	c33.8-41.6,75-75.4,122.4-100.2c53.3-27.9,113.6-44,179.3-48c127.6-7.6,385.5-3.6,522.3,5c76.2,4.8,160,38.3,224.4,89.6
	c59,47,131.5,132.8,141.8,273.6c1.2,11.7,7.4,92-30.6,179.2c-23.4,53.8-58.9,98.8-105.2,133.8c-56.7,42.8-129.7,70.1-216.8,81.3
	C1165.1,926.7,1079.8,930,999.8,930z"/>
</svg>
