<?xml version="1.0" encoding="utf-8"?>
<!-- Generator: Adobe Illustrator 27.0.1, SVG Export Plug-In . SVG Version: 6.00 Build 0)  -->
<svg version="1.1" id="GP_-_Config" xmlns="http://www.w3.org/2000/svg" xmlns:xlink="http://www.w3.org/1999/xlink" x="0px"
	 y="0px" viewBox="0 0 1920 1080" style="enable-background:new 0 0 1920 1080;" xml:space="preserve">
<style type="text/css">
	.track-surface{fill:none;stroke:#FFFFFF;stroke-width:30;stroke-miterlimit:10;}
</style>
<g id="Layer_10">
	<path class="track-surface" d="M1765.1,442v-0.2c-0.3-1.3-26.9-131.4-32.5-174.8c-1.5-11.8-6.5-21-14.3-26.8c-8.4-6.2-19.6-8-33.4-5.5
		c-64.9,11.9-154.6,27-249.6,43.1c-160.6,27.1-342.6,57.9-452.6,81c-38.5,8.1-81.1,8.4-105-50.4c-1.6-3.8-3.6-10-5.6-16
		c-2.2-6.7-4.6-13.6-6.5-18.2c-0.7-1.8-1.5-3.6-2.2-5.5c-4.9-12.3-11.1-27.7-23.9-39.7c-14.8-13.9-35.5-20.7-63-20.7
		c-16.3,0-38,0.1-61,0.2c-52.8,0.3-118.5,0.6-156.3-0.2l-3.4-0.1c-30.1-0.7-64.3-1.5-117.1,31.4c-51.1,31.8-137.4,89.8-206.8,136.4
		c-21.5,14.4-41.7,28-57.7,38.7c-16.6,11-22.3,29.2-19.2,60.8c1.6,16.4,6.4,39.8,10.9,60.4c0.2,1,0.4,2.4,0.7,3.9
		c2.4,14.3,8,47.8,46.8,56.5c27.7,6.2,65.5,16.2,105.5,26.9c72.6,19.3,154.8,41.1,206.3,47.9c8.3,1.1,19.7-0.6,27-8.7
		c4.4-4.9,9-14.1,5.3-30c-3.2-13.7-8.4-38.4-9.8-50.5c-0.9-7.2-0.6-15.2,12.4-25.9c4.1-3.4,9.5-8.3,15.2-13.4
		c9.6-8.7,20.6-18.6,28.7-24.4c1.4-1,2.8-2.1,4.3-3.3c8.9-7,18.2-14.2,36-8.2l9.3,3.1c26.1,8.8,69.7,23.6,91.7,32.4
		c12.2,4.9,22.5,11.1,14.4,32.8c-0.9,2.4-2.3,5.8-3.7,9.3c-3.1,7.6-6.6,16.2-8.1,21.9c-3.2,11.9-1.6,25.2,0.8,45.4
		c1.1,9.4,4.2,27.5,5.9,35.9c2.7,13.8,8.4,42.7,47.3,46.3c9.8,0.9,23.2,1.3,37.3,1.7c17.5,0.5,35.6,1.1,48.7,2.7
		c50,5.9,90.7,12.8,197.6,52.6c14,5.2,35,14.7,55.3,23.8c20.9,9.4,42.4,19.1,57.1,24.5l2.5,0.9c40.9,15.2,85.9,31.9,151.2,31.9
		c23.5-0.1,47-2.1,70.3-5.8c36.7-5.8,104.1-24.2,144.4-35.2l11.3-3.1c10.1-2.7,40.8-11.1,40.9-41.7c0.1-41-14.6-95.4-42.6-157.1
		c-0.6-1.4-1.3-2.7-2-4.1c-6.3-12.9-12.2-25,10.3-41.5l147.2-82.7C1734.4,499.2,1771.7,478.6,1765.1,442z"/>
</g>
</svg>
