<?xml version="1.0" encoding="utf-8"?>
<!-- Generator: Adobe Illustrator 27.0.1, SVG Export Plug-In . SVG Version: 6.00 Build 0)  -->
<svg version="1.1" id="Rally_Short_-_Configs" xmlns="http://www.w3.org/2000/svg" xmlns:xlink="http://www.w3.org/1999/xlink"
	 x="0px" y="0px" viewBox="0 0 1920 1080" style="enable-background:new 0 0 1920 1080;" xml:space="preserve">
<style type="text/css">
	.track-surface{fill:none;stroke:#FFFFFF;stroke-width:30;stroke-miterlimit:10;}
</style>
<path class="track-surface" d="M1045.1,929c-19.1,0-34.6-4.7-46.1-14.1c-15.8-12.8-23.1-33.2-21.7-60.6l0,0c1.3-25.8,7.2-49,12.3-69.5
	c4.1-16.2,7.7-30.2,8-41.6c-8.3-131.1-51.3-225.4-124.4-272.8c-55-35.7-108.8-32.8-109.3-32.8h-0.8c-1.1,0-109.1,1.7-241.1-0.7
	c-15.3-0.3-28-5.6-37.7-15.9c-24.1-25.4-22.5-74.1-21.3-109.6c0.2-5.8,0.4-11.3,0.4-16c0.1-16-0.2-30.2-0.4-42.8
	c-0.9-42.5-1.4-68.2,16.2-85.3c16.6-16.1,45.2-17.9,85.8-15.7c165.4,9.8,360.3,32.2,579.2,66.5c8.8,1.4,15.2,2.4,17.3,2.7
	c78.5,11.1,117.5,50.9,128.1,72.7l1.2,2.4l0.3,2.7c7.4,69.6,55,99.7,57.9,101.4c6.1,3.6,108.4,64.1,108.4,147.3
	c0,84.2-65,121.3-67.7,122.8l-1.8,1l-1.9,0.5c-5.3,1.4-129.7,32.9-192,42.6c-26.4,4.1-54.7,25.7-68.7,52.5
	c-9.1,17.5-16.6,45.2-0.6,78.3c7.2,14.7,7.4,31.9,0.5,46.8c-6.9,15.1-20.2,26.3-36.2,30.5C1074.8,926.6,1060,928.8,1045.1,929z"/>
</svg>
