<?xml version="1.0" encoding="utf-8"?>
<!-- Generator: Adobe Illustrator 27.0.1, SVG Export Plug-In . SVG Version: 6.00 Build 0)  -->
<svg version="1.1" id="Rally_Long_-_Configs" xmlns="http://www.w3.org/2000/svg" xmlns:xlink="http://www.w3.org/1999/xlink"
	 x="0px" y="0px" viewBox="0 0 1920 1080" style="enable-background:new 0 0 1920 1080;" xml:space="preserve">
<style type="text/css">
	.track-surface{fill:none;stroke:#FFFFFF;stroke-width:30;stroke-miterlimit:10;}
</style>
<path class="track-surface" d="M1298,924.9c-17.5,0-31.6-4.3-42.1-12.9c-14.5-11.7-21.2-30.4-19.9-55.4l0,0c1.2-23.6,6.6-44.8,11.2-63.5
	c3.7-14.8,7-27.6,7.3-38.1c-7.6-119.9-46.9-206.1-113.7-249.4c-50.3-32.6-99.4-30-99.9-29.9h-1c-4.5,0-452.5-1.4-619.8-1.4
	c-73.2,0-124.3-24.3-152-72.1c-22.2-38.3-22.8-81.9-23-102.8c0-2.6,0-4.9-0.1-6.8v-1c1.3-41.6,16.1-76.6,42.7-101.2
	c26.3-24,61.1-36.7,96.7-35.3c26.3,1.3,98.6,11.6,182.4,23.6c114.4,16.4,244.1,35,291.8,35.5h0.7c151.2,9,329.3,29.5,529.5,60.7
	c8.1,1.3,13.9,2.2,15.8,2.4c71.8,10.1,107.4,46.6,117.1,66.5l1.1,2.2l0.3,2.5c6.8,63.6,50.3,91.1,52.9,92.7
	c5.7,3.3,99.1,58.6,99.1,134.7c0,76.9-59.4,110.9-61.9,112.3l-1.6,0.9l-1.8,0.4c-4.8,1.2-118.6,30-175.5,39
	c-24.2,3.8-50,23.5-62.8,48c-8.3,16-15.2,41.4-0.5,71.6c6.6,13.5,6.7,29.2,0.4,42.8c-6.3,13.8-18.4,24-33.1,27.9
	C1325.1,922.6,1311.6,924.6,1298,924.9z"/>
</svg>
