<?xml version="1.0" encoding="utf-8"?>
<!-- Generator: Adobe Illustrator 27.0.0, SVG Export Plug-In . SVG Version: 6.00 Build 0)  -->
<svg version="1.1" id="Layer_1" xmlns="http://www.w3.org/2000/svg" xmlns:xlink="http://www.w3.org/1999/xlink" x="0px" y="0px"
	 viewBox="0 0 1920 1080" style="enable-background:new 0 0 1920 1080;" xml:space="preserve">
<style type="text/css">
	.st0{fill:none;stroke:#231F20;stroke-width:20;stroke-miterlimit:10;}
</style>
<path class="st0" d="M1666.1,805.4c-4.7-19.9-15.7-35.5-31.9-45c-19-11.2-39.8-11.3-52-8c-29.3,8.1-85.6,29.6-108.6,38.5
	c-55.3,21.4-94.8,31.5-127.9,32.5c-141.6,4.3-148.1,3.4-199.5-3.6l-3.2-0.5c-55.9-7.7-107.5-32.9-137.9-67.3
	c-22.8-25.9-59.4-76.2-86.4-113c-6.2-8.5-11.9-16.4-16.8-23.1c-19-25.6-44.5-40.2-73.8-42.4c-29.5-2-54.1,9.1-63.2,13.9
	c-35.5,18.8-90,47-142.7,74.3c-40.6,20.9-79,40.8-106.1,55.1c-28.9,15.2-67.5,15.2-82-11.1c-9.8-17.8-11.7-33.6-5.6-46.9
	c8-17.6,28.3-27.6,40-30.1c19.9-4.2,56.2-11.8,74.5-15.1c50.9-9.1,90.7-27.3,121.7-55.6c3.2-2.9,7.3-6.6,11.6-10.5
	c14-12.8,31.6-28.5,41.4-38.4c43.4-43.3,78.2-55.1,108.7-65.6c2.3-0.8,4.6-1.5,6.8-2.3c29.4-10.2,68.6-21.6,110.1-33.9
	c56.6-16.6,115.1-33.8,152.5-48.8c33.7-13.6,48.7-37.3,55.3-54.8c9-23.9,8.2-51.5-2.1-72.3c-35.6-71-109.4-61-143.6-45.6
	c-94.4,42.2-224.8,97.2-350.8,150.4c-94.1,39.7-183,77.2-257.2,109.4c-40.4,17.6-72.9,40.2-96.6,67.7
	c-20.9,24.2-35.3,52.1-42.8,83.1c-15.3,63.9,2.5,123.2,14.4,152.8c16.3,40.4,48,77.7,89.3,105.1c39.3,26.1,84.2,41.5,126.5,43.6
	c137.8,6.7,206.2,6.4,355.9,5.7c126-0.6,316.4-1.4,659.7,1.5c4.2,0,8.2,0,12.1,0c49.7,0,70.9-3,93.8-12.8
	C1670.5,866.6,1671.1,826.8,1666.1,805.4z"/>
</svg>
