<?xml version="1.0" encoding="utf-8"?>
<!-- Generator: Adobe Illustrator 27.0.0, SVG Export Plug-In . SVG Version: 6.00 Build 0)  -->
<svg version="1.1" id="Layer_1" xmlns="http://www.w3.org/2000/svg" xmlns:xlink="http://www.w3.org/1999/xlink" x="0px" y="0px"
	 viewBox="0 0 1920 1080" style="enable-background:new 0 0 1920 1080;" xml:space="preserve">
<style type="text/css">
	svg {height: 100%;width: 100%;}.track-surface {fill: none;stroke: white;stroke-width: 30;}
</style>
<path class="track-surface" d="M1704,819.8c-4.9-21-16.5-37.4-33.7-47.5c-20-11.8-41.9-12-54.7-8.4c-30.8,8.5-90.3,31.2-114.4,40.6
	c-58.3,22.6-99.9,33.2-134.8,34.3c-138.8,4.2-147.8,3.8-198.1,1.4c-5.1-0.2-10.5-0.5-16.5-0.7l0,0c-33.9-1.6-149.2-21.6-163.5-24.5
	l-1.4-0.4c-26.3-6.4-44.5-17.9-51.7-32.2c-3.5-7-3.9-14.5-1.4-20.7c21.2-49.6,3.8-87.4,3.1-89l-0.5-1.1L898.9,620
	c-20-27-46.9-42.4-77.8-44.6c-31.1-2.1-57,9.6-66.6,14.7c-37.4,19.9-94.8,49.6-150.4,78.3c-42.8,22.1-83.2,43-111.8,58.1
	c-30.5,16-71.1,16-86.4-11.7c-10.4-18.7-12.3-35.4-5.9-49.4c8.4-18.5,29.8-29.1,42.2-31.7c21-4.4,59.2-12.5,78.5-15.9
	c53.6-9.6,95.6-28.7,128.2-58.6c3.3-3.1,7.6-6.9,12.2-11.1c14.8-13.4,33.3-30.1,43.6-40.4c45.7-45.6,82.4-58.1,114.5-69.2
	c2.5-0.9,4.8-1.6,7.2-2.5c30.9-10.7,72.3-22.8,116-35.8c59.7-17.5,121.3-35.6,160.7-51.4c35.5-14.3,51.3-39.3,58.3-57.7
	c9.5-25.2,8.6-54.3-2.2-76.2c-37.5-74.8-115.3-64.2-151.3-48.1c-99.7,44.6-237.2,102.6-370.3,158.7c-99,41.7-192.5,81.1-270.4,115
	c-42.5,18.5-76.8,42.4-101.8,71.4c-22.1,25.5-37.2,54.9-45.1,87.5c-16.2,67.3,2.6,129.8,15.3,161c17.1,42.5,50.6,81.9,94.1,110.7
	c41.4,27.5,88.8,43.8,133.3,46c145.2,7,217.2,6.8,375.1,6c132.8-0.6,333.4-1.5,695.1,1.6c4.4,0,8.6,0,12.7,0
	c52.4,0,74.7-3.2,98.9-13.4C1708.7,884.3,1709.3,842.3,1704,819.8z"/>
</svg>
