<?xml version="1.0" encoding="utf-8"?>
<!-- Generator: Adobe Illustrator 27.0.0, SVG Export Plug-In . SVG Version: 6.00 Build 0)  -->
<svg version="1.1" id="Layer_1" xmlns="http://www.w3.org/2000/svg" xmlns:xlink="http://www.w3.org/1999/xlink" x="0px" y="0px"
	 viewBox="0 0 1920 1080" style="enable-background:new 0 0 1920 1080;" xml:space="preserve">
<style type="text/css">
	.track-surface{fill:none;stroke:#231F20;stroke-width:20;stroke-miterlimit:10;}
</style>
<path class="track-surface" d="M1448.9,202.3c-39.1-78.1-120.4-67.1-158-50.2c-103.9,46.5-247.3,107-386,165.4c-103.5,43.6-201.3,85-283,120.4
	c-44.4,19.3-80.2,44.3-106.3,74.5c-23,26.6-38.9,57.3-47.1,91.4c-16.9,70.3,2.7,135.6,16,168.1c17.9,44.4,52.8,85.5,98.2,115.6
	c43.3,28.7,92.7,45.7,139.2,48h0.3c2.3,0,172.1,4.4,306.8,4.4c46.6,0,89.1-0.5,118.8-1.9c42.7-1.9,77.5-24.7,97.8-64
	c25.2-48.8,23.7-114.8-3.6-157.3c-17.6-27.4-63.5-89-65.3-91.4c-20.9-28.2-48.9-44.3-81.2-46.6c-32.4-2.2-59.5,10-69.5,15.3
	c-39,20.7-99,51.8-157.1,81.7c-44.7,23-86.9,44.9-116.8,60.6c-31.8,16.7-74.3,16.7-90.2-12.2c-10.8-19.6-12.9-36.9-6.2-51.6
	c8.8-19.3,31.2-30.4,44-33.1c21.9-4.6,61.8-13,82-16.6c56-10,99.8-30,133.9-61.2c3.5-3.2,8-7.2,12.7-11.6
	c15.4-14,34.8-31.4,45.6-42.2c47.8-47.6,86-60.6,119.6-72.2c2.6-0.9,5-1.7,7.5-2.6c32.3-11.2,75.4-23.8,121.1-37.3
	c62.3-18.3,126.7-37.2,167.7-53.7c37.1-14.9,53.6-41.1,60.9-60.3C1461.1,255.6,1460.2,225.1,1448.9,202.3z"/>
</svg>
