<?xml version="1.0" encoding="utf-8"?>
<!-- Generator: Adobe Illustrator 27.0.0, SVG Export Plug-In . SVG Version: 6.00 Build 0)  -->
<svg version="1.1" id="Layer_1" xmlns="http://www.w3.org/2000/svg" xmlns:xlink="http://www.w3.org/1999/xlink" x="0px" y="0px"
	 viewBox="0 0 1920 1080" style="enable-background:new 0 0 1920 1080;" xml:space="preserve">
<style type="text/css">
	.track-surface{fill:none;stroke:#231F20;stroke-width:20;stroke-miterlimit:10;}
</style>
<path class="track-surface" d="M1703,378.6c-20.7-36-60.2-92.4-88.3-120.4c-33.2-33.2-65.3-51.8-140.3-55.1c-24.5-1-61.2,1-96.7,16.8
	c-41.3,18.6-71.4,51-89.6,96.5c-29.6,74.5-63,158.7-224.8,210.8c-19.1,4.8-379.2,95.9-517.2,129.9c-2.3,0.5-4.8,1.3-7.4,2
	c-41.8,11-63.8,11-76.3-19.1c-7.4-17.9-17.1-51-23-70.7l-1.3-4.1c-5.6-19.1,3.6-45.7,23.7-67.9c35.5-39,92.6-55.4,153.6-43.9
	c30.4,5.6,116.6,18.1,124.3,19.1c7.7,1.3,83.7,13.5,153.6-10.7c9.2-2.8,101.3-29.9,134.5-40.3c23.7-7.4,57.7-28.1,74.8-61.5
	c12.5-24.8,14-52.8,4.6-81.7c-20.2-60.5-68.1-66.3-133.7-67.9l0,0c-125.3-3.1-340.6-2.8-447.8-1.5c-67.1,0.8-171.7,30.4-245,110.7
	c-60,65.8-87.3,153.6-79.4,254.1c3.8,49.2,23.2,105.4,57.7,191.4c30.4,76.3,81.7,112,163.1,112c18.1,0,38-1.8,59.5-5.4
	c53.1-8.9,115.6-17.9,175.8-26.5c93.1-13.5,189.3-27.3,254.9-41.1c110-23.2,213.1-47.2,362.6-108.2c25.3-10.2,58.9-23.5,94.4-37.3
	c81.9-32.2,184-72,242.7-100l0.8-0.5c28.1-13.5,86.8-41.6,102.8-93.4C1724.4,437.5,1720.1,408.4,1703,378.6z"/>
</svg>
