<?xml version="1.0" encoding="utf-8"?>
<!-- Generator: Adobe Illustrator 27.0.0, SVG Export Plug-In . SVG Version: 6.00 Build 0)  -->
<svg version="1.1" id="Layer_1" xmlns="http://www.w3.org/2000/svg" xmlns:xlink="http://www.w3.org/1999/xlink" x="0px" y="0px"
	 viewBox="0 0 1920 1080" style="enable-background:new 0 0 1920 1080;" xml:space="preserve">
<style type="text/css">
	.track-surface{fill:none;stroke:#231F20;stroke-width:20;stroke-miterlimit:10;}
</style>
<path class="track-surface" d="M1708.9,376.1c-20.8-36.3-60.7-93.1-89-121.4c-32.4-32.4-63.3-49.6-141.4-53h-0.8h-0.8
	c-3.9,0-379.5,2.6-504,2.1c-120.9-0.5-335.8-0.3-450.8,1c-67.6,0.8-173.1,30.6-246.9,111.6c-60.4,66.3-87.9,154.8-80,256.1
	c4.1,49.6,23.4,106.2,58.1,192.9c30.6,76.9,82.3,112.9,164.3,112.9c18.3,0,38.1-1.8,59.4-5.4c5.7-0.8,88.7-12.6,117-15.9
	c85.4-10.3,241.7-37.3,317.3-52.2c109.8-21.9,198.5-48.1,364.9-108.8c89.5-32.7,257.7-98.7,340.7-138.6l0.8-0.5
	c28.3-13.6,87.4-41.9,103.6-94.1C1730.5,435.5,1726.1,406.2,1708.9,376.1z"/>
</svg>
