<?xml version="1.0" encoding="utf-8"?>
<!-- Generator: Adobe Illustrator 27.0.0, SVG Export Plug-In . SVG Version: 6.00 Build 0)  -->
<svg version="1.1" id="Layer_1" xmlns="http://www.w3.org/2000/svg" xmlns:xlink="http://www.w3.org/1999/xlink" x="0px" y="0px"
	 viewBox="0 0 1920 1080" style="enable-background:new 0 0 1920 1080;" xml:space="preserve">
<style type="text/css">
	svg {height: 100%;width: 100%;}.track-surface {fill: none;stroke: white;stroke-width: 30;}
</style>
<path class="track-surface" d="M1701,379c-20.6-35.9-60.1-92.1-88.1-120.1c-33.1-33.1-65.2-51.7-140-55c-24.4-1-61.1,1-96.5,16.8
	c-41.2,18.6-71.3,50.9-89.3,96.2c-29.5,74.3-62.9,158.3-224.2,210.2c-19.1,4.8-378.2,95.7-515.9,129.5c-2.3,0.5-4.8,1.3-7.4,2
	c-41.7,10.9-63.6,10.9-76.1-19.1c-7.4-17.8-17.1-50.9-22.9-70.5l-1.3-4.1c-5.6-19.1,3.6-45.6,23.7-67.7
	c35.4-38.9,92.4-55.2,153.2-43.8c30.3,5.6,116.3,18.1,123.9,19.1c7.6,1.3,83.5,13.5,153.2-10.7c9.2-2.8,101-29.8,134.1-40.2
	c23.7-7.4,57.5-28,74.6-61.3c12.5-24.7,14-52.7,4.6-81.4c-20.1-60.3-68-66.2-133.4-67.7c-125-3.1-339.8-2.8-446.6-1.5
	c-66.9,0.8-171.3,30.3-244.3,110.5c-59.8,65.7-87,153.2-79.1,253.5c3.8,49.1,23.2,105.1,57.5,190.9
	c30.3,76.1,81.4,111.7,162.6,111.7c18.1,0,37.7-1.8,58.8-5.3c7.4-1,89.6-12,118.6-18.8c31.3-7.4,52.7-14.8,97.7-71
	c8.9-11.2,29.8-30.5,50.6-31.3c12.5-0.5,24.2,5.3,36.4,18.3c21.9,22.9,58.8,51.7,127.2,35.1c108.2-26,203.3-50.4,360.1-107.4
	c88.6-32.3,255-97.7,337.2-137.2l0.8-0.5c28-13.5,86.5-41.5,102.6-93.1C1722.4,437.8,1718.1,408.8,1701,379z"/>
</svg>
