<?xml version="1.0" encoding="utf-8"?>
<!-- Generator: Adobe Illustrator 27.0.1, SVG Export Plug-In . SVG Version: 6.00 Build 0)  -->
<svg version="1.1" id="Charlotte_Roval_2018_Config"
	 xmlns="http://www.w3.org/2000/svg" xmlns:xlink="http://www.w3.org/1999/xlink" x="0px" y="0px" viewBox="0 0 1920 1080"
	 style="enable-background:new 0 0 1920 1080;" xml:space="preserve">
<style type="text/css">
	.st0{fill:none;stroke:#FFFFFF;stroke-width:30;stroke-miterlimit:10;}
</style>
<path class="st0" d="M856.1,941c-27.8,0-45.6-0.1-46.3-0.1c-30.5,0-45-29.8-45.4-51c-0.2-8.1-2.5-13.9-6.7-17.3
	c-7.8-6.1-21-3.4-21.2-3.4l-0.6,0.1c-0.5,0.1-55.3,8.7-81.7,11.8c-42.4,5-55.7,5.1-75,1c-94.7-20.7-217.7-78-219-78.5l-0.3-0.1
	c-48.2-24.3-95.9-65.2-130.7-112c-21.1-28.3-37.4-58.6-48.7-90.1c-12.7-35.5-18.9-72.7-18.3-110.2c-0.1-5-0.5-80.9,41.5-159.6
	c25.1-47,60.2-85.1,104.3-113.1c54.8-34.9,123.6-54.2,204.6-57.6c8.7-0.7,158.3-13.1,215-6.4c11.4,1.3,54.8,10.2,61.8,11.7l66.5-0.5
	l38.5-21.1L1335,139c1.1,0,2.2,0,3.3,0c63.9,0,156.1,8.7,238.4,49.2c45.7,22.5,83.6,52.6,112.4,89.3c33.5,42.7,55.4,95.1,65.2,155.6
	c0.9,4.8,13.2,72.3-14.9,154.1c-16.8,48.8-44.5,92.3-82.4,129.6c-47.2,46.3-110.2,82.8-187.6,108.4l-0.2,0.1
	c-22.3,7.4-59.6,19.8-97.4-22.6c-12.4-13.9-17.4-23.4-25.9-44.9c1.6,5.6,2.9,10.7,4.1,15.1c6.7,26.8,2.2,56.5-12.3,81.7
	c-18.3,31.9-52,55.4-97.4,68c-1.9,0.5-4,1.1-6.2,1.8c-17,4.8-40.3,11.6-78.3,13.1C1083.7,940.6,932.5,941,856.1,941z"/>
</svg>
