<?xml version="1.0" encoding="utf-8"?>
<!-- Generator: Adobe Illustrator 27.0.0, SVG Export Plug-In . SVG Version: 6.00 Build 0)  -->
<svg version="1.1" id="Charlotte_Roval_2018_Config"
	 xmlns="http://www.w3.org/2000/svg" xmlns:xlink="http://www.w3.org/1999/xlink" x="0px" y="0px" viewBox="0 0 1920 1080"
	 style="enable-background:new 0 0 1920 1080;" xml:space="preserve">
<style type="text/css">
	svg {height: 100%;width: 100%;}.track-surface {fill: none;stroke: white;stroke-width: 30;}
</style>
<path class="track-surface" d="M714.4,892.7c8.3,0,19.2,1.7,28.4,8.8c9.8,7.6,14.9,19.3,15.3,34.9c0.3,12.5,8.4,38.2,31.6,38.2
	c2.8,0,280.3,0.8,391.7-3.8c40.7-1.7,65.8-8.9,84.1-14.2c2.5-0.7,4.9-1.4,7.2-2c46.3-12.8,80.4-36.2,98.5-67.7
	c19.6-34.2,14.8-65.8,11.8-77.9c-7.6-30.5-26.3-89.5-40-126.3c-27.5-73.8-45.3-89.8-71.2-107.2c-17.1-11.5-66.4-23.1-106.8-30
	c-56.6-9.7-205-45.7-211.3-47.2l-0.8-0.2c-36.8-12.5-64.2-40.8-79.2-81.9c-11.1-30.4-11.6-57-11.6-58.1c0-2.8-0.9-69.3,2.8-97.1
	c3.9-30.3,15.5-52.4,34.2-65.6c12.7-8.9,28.2-13.6,47.4-14.1c8.9-0.3,21.7-0.8,35.3-1.4c15-0.7,30.6-1.3,40.8-1.6
	c91.2-2.4,363.1,1.5,373.5,1.7c45.3-1.9,76.4,0.9,97.8,8.8c21.3,7.8,32.3,20.3,42.5,33.4c24.3,31.1,74.1,101.7,88.6,146
	c10.5,32,2.9,63.3-21.9,90.6c-19.9,21.9-46.5,36.4-64.7,42.6c-73.7,25.3-85.5,31.1-108.5,47.1c-58.5,40.7-52.9,81.7-48.4,114.6
	c0.2,1.4,0.4,2.8,0.6,4.2c3.6,26.7,20.1,75.7,29.7,100.4c13.2,33.9,17,41.9,30.5,57c34.1,38.2,65.9,27.6,89.2,19.9l0.2-0.1
	c153.1-50.8,251.8-137.1,293.2-256.5c30.9-89.2,16.6-164.6,16.5-165.4l-0.1-0.4c-44.3-275-300.4-316.9-451.9-316.9
	c-1.3,0-2.5,0-3.8,0l-494.7,6.3l-43.7,23.7l-82.6,0.7l-1-0.2c-0.6-0.1-56.6-11.7-69.5-13.2c-62.8-7.5-238.2,7.2-240,7.4h-0.4
	c-159.7,6.5-271.8,67.9-333.3,182.4c-46.1,85.8-45.1,171.2-45.1,172v0.2v0.2c-2.7,179,132.6,295.5,213,336.2
	c5,2.3,140.2,64.8,244,87.6c18.3,4,30.2,4.3,78.5-1.4c28.6-3.4,87-12.5,91.6-13.2C704.1,893.5,708.6,892.7,714.4,892.7z
	 M844.7,125.3L844.7,125.3L844.7,125.3z"/>
</svg>
