<?xml version="1.0" encoding="utf-8"?>
<!-- Generator: Adobe Illustrator 27.0.1, SVG Export Plug-In . SVG Version: 6.00 Build 0)  -->
<svg version="1.1" id="Chilibowl_Config" xmlns="http://www.w3.org/2000/svg" xmlns:xlink="http://www.w3.org/1999/xlink" x="0px"
	 y="0px" viewBox="0 0 1920 1080" style="enable-background:new 0 0 1920 1080;" xml:space="preserve">
<style type="text/css">
	.track-surface{fill:none;stroke:#FFFFFF;stroke-width:30;stroke-miterlimit:10;}
</style>
<path class="track-surface" d="M999.2,927.6c-87.6,0-168.4-4-228.1-7c-13.2-0.7-25.6-1.3-36.4-1.8c-37.5-1.7-78.5-9.4-118.7-22.3
	c-47.1-15.2-90.3-36.5-128.3-63.4c-97.5-69-152.4-169-158.8-289.3C327,507,333.2,466,347,425.4c14.8-43.6,38.1-85.7,67.4-121.8
	C448,262.2,488.9,228.7,536,204c52.9-27.7,112.7-43.7,177.9-47.6c125.2-7.5,378.4-3.5,512.6,4.9c75.7,4.7,159,38,222.9,88.9
	c58.7,46.8,130.7,131.9,140.9,271.9c1.2,11.8,7.2,92.1-30.6,178.6c-36.5,83.4-121.5,188.2-319.5,213.6l0,0
	C1161.5,924.4,1077.6,927.6,999.2,927.6z"/>
</svg>
