<?xml version="1.0" encoding="utf-8"?>
<!-- Generator: Adobe Illustrator 27.0.0, SVG Export Plug-In . SVG Version: 6.00 Build 0)  -->
<svg version="1.1" id="Full_-_Config" xmlns="http://www.w3.org/2000/svg" xmlns:xlink="http://www.w3.org/1999/xlink" x="0px"
	 y="0px" viewBox="0 0 1920 1080" style="enable-background:new 0 0 1920 1080;" xml:space="preserve">
<style type="text/css">
	.track-surface{fill:none;stroke:#231F20;stroke-width:10;stroke-miterlimit:10;}
</style>
<path class="track-surface" d="M1840.2,717.9c-0.8-25.3-12.7-58.8-65.4-74.2c-30.2-8.8-64.8-9-85.5-9.1c-4.1,0-7.6,0-10.4-0.1h-1l-1,0.1
	c-2.1,0.2-10.4,0.2-15.3,0.2c-5.2,0-8.5,0-10.6,0.1l-767.5,25.6l-0.8,0.1c-0.3,0-28.1,2.5-44-11.6c-8.3-7.4-12.3-18.5-12.3-34.1
	c0-8.4,2.7-14.8,8.6-20.2c21.6-19.8,76.5-19.7,93.9-18.2l0.9,0.1c48.8,1.6,97.7,0,146.3-5c106.2-11.2,175.7-37.7,206.6-78.8
	c35.7-45.4,37.6-89,33-117.7c-5.8-35.9-24.3-63.7-39.7-77.9c-29.5-28.6-69.7-44-119.3-45.7c-43.6-1.4-83.1,8.3-102.8,14.2l-0.2,0.1
	l-873.9,288l-0.3,0.1c-20.9,8-40.1,19.8-56.6,34.9c-36,33.2-49.9,76.2-40.3,124.5c0.8,6.6,5.6,32.4,29,58.2
	c14.7,16.2,33.9,29.2,57,38.6c27.7,11.2,61.2,17.2,99.5,17.9c16.7,0.3,42,0.8,42.2,0.8h0.3l1411.5-13.1c7.9,0.4,59.8,1.8,92.3-29.4
	C1832.4,769.2,1841,746.2,1840.2,717.9z"/>
</svg>
