<?xml version="1.0" encoding="utf-8"?>
<!-- Generator: Adobe Illustrator 27.0.0, SVG Export Plug-In . SVG Version: 6.00 Build 0)  -->
<svg version="1.1" id="Layer_1" xmlns="http://www.w3.org/2000/svg" xmlns:xlink="http://www.w3.org/1999/xlink" x="0px" y="0px"
	 viewBox="0 0 1920 1080" style="enable-background:new 0 0 1920 1080;" xml:space="preserve">
<style type="text/css">
	.st0{fill:none;stroke:#231F20;stroke-width:20;stroke-miterlimit:10;}
</style>
<path class="st0" d="M1685.4,382.4c-20.2-35.1-58.8-90.2-86.2-117.6c-32.4-32.4-63.8-50.6-137-53.8c-23.9-1-59.8,1-94.4,16.4
	c-40.4,18.2-69.8,49.8-87.4,94.2c-28.9,72.7-61.5,155-219.5,205.8c-18.7,4.7-370.2,93.7-505,126.8c-2.2,0.5-4.7,1.2-7.2,2
	c-40.9,10.7-62.3,10.7-74.5-18.7c-7.2-17.4-16.7-49.8-22.4-69l-1.2-4c-5.5-18.7,3.5-44.6,23.2-66.3c34.6-38.1,90.4-54.1,150-42.8
	c29.6,5.5,113.8,17.7,121.3,18.7c7.5,1.2,81.7,13.2,150-10.5c9-2.7,98.9-29.1,131.3-39.4c23.2-7.2,56.3-27.4,73-60
	c12.2-24.2,13.7-51.6,4.5-79.7c-19.7-59-66.5-64.8-130.5-66.3l0,0c-122.3-3-332.6-2.7-437.2-1.5c-65.5,0.7-167.7,29.6-239.2,108.1
	c-58.5,64.3-85.2,150-77.5,248.1c3.7,48.1,22.7,102.9,56.3,186.8c29.6,74.5,79.7,109.4,159.2,109.4c17.7,0,37.1-1.7,58-5.2
	c51.8-8.7,112.9-17.4,171.6-25.9c90.9-13.2,184.9-26.7,248.9-40.1c107.4-22.7,208-46.1,354-105.6c24.7-10,57.5-22.9,92.2-36.4
	c80-31.4,179.6-70.3,236.9-97.7l0.7-0.5c27.4-13.2,84.7-40.6,100.4-91.2C1706.3,440,1702.1,411.6,1685.4,382.4z"/>
</svg>
