<?xml version="1.0" encoding="utf-8"?>
<!-- Generator: Adobe Illustrator 27.0.0, SVG Export Plug-In . SVG Version: 6.00 Build 0)  -->
<svg version="1.1" id="Full_-_Config" xmlns="http://www.w3.org/2000/svg" xmlns:xlink="http://www.w3.org/1999/xlink" x="0px"
	 y="0px" viewBox="0 0 1920 1080" style="enable-background:new 0 0 1920 1080;" xml:space="preserve">
<style type="text/css">
	svg {height: 100%;width: 100%;}.track-surface {fill: none;stroke: white;stroke-width: 30;}
</style>
<path class="track-surface" d="M1523.6,684.5c-5.3-25.6-21.3-47.7-43.9-60.7c-29.2-17.2-70.8-22.7-123.9-16.4c-22.8,2.7-45.3,7.2-67.4,13.4
	L871.6,733.4c-26.2,7.2-53.6,8.8-80.5,4.7c-56.9-9-63.3-35.1-65-45.1c-0.8-10.3,2-19.1,9-27.6c28.1-34.2,106.3-48.4,134.1-51l1-0.1
	l1-0.2c37.6-6.4,74.8-14.8,111.4-25.3c82.1-23.5,140.2-52.1,172.5-85c28.1-28,49.5-62,62.7-99.4c9.5-27.1,13.9-55.7,12.8-84.4
	c-1.3-33.6-10.2-67.3-26.3-100.2c-18.5-36.5-46.5-67.3-81.2-89.1c-25.6-15.9-54.2-26.1-84-30.1c-35.2-4.8-73.3-1.6-113.4,9.6
	c-35.8,9.9-68.4,29.2-94.3,55.8c-11.7,12-21.8,24-30.7,34.7c-3.6,4.3-7,8.4-10.1,11.9c-20.5,23.6-188.7,255.6-207.8,282L439.8,697.2
	c-7.5,9.6-59.2,79.2-43.2,166.2c6.9,37.4,29.1,69.9,61,89.2s72.5,28.9,121.7,28.9c25.3-0.2,50.6-2.4,75.6-6.5l0.3-0.1
	c108.8-18.8,701.7-125,712.5-126.9c18.1-3.4,35.9-8.5,53.1-15.1c40.2-15.4,69.5-36.4,87.1-62.4
	C1525,745.3,1530.4,715.6,1523.6,684.5z"/>
</svg>
