<?xml version="1.0" encoding="utf-8"?>
<!-- Generator: Adobe Illustrator 27.0.1, SVG Export Plug-In . SVG Version: 6.00 Build 0)  -->
<svg version="1.1" id="Charlotte_Legends_Oval_Config"
	 xmlns="http://www.w3.org/2000/svg" xmlns:xlink="http://www.w3.org/1999/xlink" x="0px" y="0px" viewBox="0 0 1920 1080"
	 style="enable-background:new 0 0 1920 1080;" xml:space="preserve">
<style type="text/css">
	.st0{fill:none;stroke:#FFFFFF;stroke-width:30;stroke-miterlimit:10;}
</style>
<path class="st0" d="M1099,796.1c-80.6,0-162.4-0.8-242.7-1.1c-118.5-0.8-230.3-1.5-331.2-0.8c-1.1,0-2.6,0-3.8,0
	c-172.2,0-247.9-128.3-260.7-238.9c-7.9-70.9,12.8-138.8,58.9-191.3c40.9-46.5,97.9-76.1,148.9-76.9c250.6-4.5,660.6-4.1,974.9,0.8
	l0,0c64.1,0.8,120,31.5,162,88.2c36,48.8,52.1,104.3,54.8,139.5c5.6,68.6-17.3,136.2-64.1,189.4c-44.6,50.3-106.9,83.3-162.8,85.5
	C1328.9,794.6,1215.3,796.1,1099,796.1z"/>
</svg>
