<?xml version="1.0" encoding="utf-8"?>
<!-- Generator: Adobe Illustrator 27.0.1, SVG Export Plug-In . SVG Version: 6.00 Build 0)  -->
<svg version="1.1" id="Charlotte_Legends_RC_Long_Config"
	 xmlns="http://www.w3.org/2000/svg" xmlns:xlink="http://www.w3.org/1999/xlink" x="0px" y="0px" viewBox="0 0 1920 1080"
	 style="enable-background:new 0 0 1920 1080;" xml:space="preserve">
<style type="text/css">
	.st0{fill:none;stroke:#FFFFFF;stroke-width:30;stroke-miterlimit:10;}
</style>
<path class="st0" d="M694.1,959c-59.4,0-121.2-0.7-166-3.8c-17.5-1.2-32.4-8.8-43.2-22.1c-14.5-17.9-18.8-42.2-16.6-58.3
	c6.6-47.8,46-61.7,68.3-62.2c111.2-3,443.7,2.2,453.8,2.3c9.5-0.2,16.5-2.9,20.8-7.7c6.7-7.6,5.5-19.1,5.5-19.2l-0.1-0.8v-0.7
	l3.6-104.5c-3.3-65.1-26.8-114.4-69.8-146.6c-32.3-24.2-64.4-29.4-64.7-29.5l-0.7-0.1l-236.1-52.9c-79.2-15.1-92.1-114.8-94.3-145.1
	c0,0,0,0,0-0.1h-0.2c0-2.9-0.9-71.2,2.9-99.7c4-31.1,15.9-53.8,35.1-67.4c13-9.1,29-14,48.7-14.5c9.1-0.3,22.3-0.8,36.2-1.4
	c15.4-0.7,31.4-1.3,41.9-1.6h0.2l216.8-2c3-0.2,14.8-0.6,28.4,5.4c13.7,6.2,31.8,20.1,40.5,52.4l0.1,0.6
	c0.3,1.4,28.3,143.6,37.5,190.8c6.4,32.6,23.6,47.9,54.4,47.9c0.6,0,1.1,0,1.7,0c15.6-0.3,38-10.4,60-26.9
	c10.9-8.2,24.2-24.1,26.2-41.9c1.3-12.2-3.1-24.2-12.8-35.4c-7.7-8.8-21.8-20.9-35.4-32.8c-13.7-11.8-27.8-23.9-36.4-33.6
	c-19.2-21.5-19.2-42.8-15.8-57c6.1-25.6,27-46,44.6-53c63.5-25.2,95.3,1.1,118,30.3c24.9,31.9,76.1,104.4,91,149.9
	c10.8,32.9,3,65-22.5,93c-20.3,22.3-47.6,37.3-66.3,43.7l-0.8,0.3c-83.2,29-129,45-141.8,83.9c-6.5,19.4-4.5,42,5.1,60.2
	c6.5,12.2,19.4,28.3,44.5,35.5c56.7,16.3,96.3-21.2,110.7-38.1c11.1-12.9,34.4-48.5,36.4-51.6c23.5-40.6,48.4-63.8,74-68.9
	c20.3-4.1,36.1,3.9,45.9,11.4c20.2,15.4,30.2,37.3,29,63.2c-1.4,31.3-18.4,61.6-32.3,81.4c-16.3,23.3-37.5,44.7-55.1,55.6
	c-22.3,13.9-51.1,26.9-79,39.4c-30.1,13.6-58.4,26.4-75.4,38.6l0,0c-24,17.5-43.5,42.2-62.4,66.1c-19.2,24.3-37.3,47.2-58.1,59
	c-35.7,20.3-79.9,37.8-105.8,45.4c-66.6,19.7-94,21.9-136.7,21.9c-17.5,0-39,0.1-61.8,0.3C757.6,958.8,726.2,959,694.1,959z"/>
</svg>
