<?xml version="1.0" encoding="utf-8"?>
<!-- Generator: Adobe Illustrator 27.0.1, SVG Export Plug-In . SVG Version: 6.00 Build 0)  -->
<svg version="1.1" id="Charlotte_Legends_RC_Medium_Config"
	 xmlns="http://www.w3.org/2000/svg" xmlns:xlink="http://www.w3.org/1999/xlink" x="0px" y="0px" viewBox="0 0 1920 1080"
	 style="enable-background:new 0 0 1920 1080;" xml:space="preserve">
<style type="text/css">
	.st0{fill:none;stroke:#FFFFFF;stroke-width:30;stroke-miterlimit:10;}
</style>
<path class="st0" d="M1040.9,951c-9.7,0-17.6-0.7-21.4-1.4c-36-7.5-44.6-38.5-44.1-53.7l4.1-120.4c-3.8-75-30.9-131.8-80.4-168.9
	c-37.3-27.9-74.2-33.8-74.7-34l-0.8-0.1l-272-61C460.4,494,445.5,379.1,443,344.2c0,0,0,0,0-0.1h-0.2c0-3.3-1.1-82,3.3-114.9
	c4.6-35.8,18.3-62,40.5-77.6c15-10.5,33.4-16.1,56.1-16.7c10.5-0.4,25.7-0.9,41.8-1.7c17.7-0.8,36.2-1.5,48.3-1.9h0.2l249.9-2.2
	c3.4-0.2,17-0.7,32.8,6.3c15.7,7.1,36.7,23.2,46.6,60.3l0.1,0.7c0.4,1.7,32.7,165.5,43.2,219.8c7.5,38.3,27.9,56,64.7,55.3
	c18-0.4,43.8-11.9,69.1-31c12.5-9.5,27.9-27.8,30.2-48.3c1.5-14.1-3.5-27.9-14.8-40.8c-8.9-10.2-25.1-24.1-40.8-37.7
	c-15.7-13.6-32.1-27.6-42-38.7c-22.1-24.7-22.1-49.3-18.2-65.7c7-29.5,31.1-53,51.3-61c73.1-29,109.8,1.3,135.9,34.9
	c28.7,36.8,87.7,120.3,104.8,172.7c12.4,37.9,3.4,74.9-25.9,107.2c-23.4,25.7-54.9,42.9-76.4,50.4l-0.9,0.4
	c-95.8,33.4-148.6,51.8-163.4,96.7c-7.5,22.4-5.2,48.4,5.9,69.3c7.5,14.1,22.4,32.7,51.2,40.9c11.2,3.2,21.9,4.6,31.9,4.6
	c48.3,0,81.9-32.4,95.6-48.5c12.8-14.9,39.6-55.8,42-59.5c27.1-46.7,55.7-73.5,85.3-79.4c23.4-4.7,41.6,4.5,52.9,13.1
	c23.3,17.7,34.8,42.9,33.4,72.9c-1.7,36.1-21.2,71-37.3,93.8c-18.8,26.9-43.2,51.5-63.5,64.1c-27.4,17-62.9,33.5-97.2,49.3
	c-31.8,14.7-62,28.6-81,41.1c-21.8,14.2-38,26.7-52.2,37.9c-14.8,11.5-27.4,21.4-41.2,28.7C1086.7,948.4,1060.2,951,1040.9,951z"/>
</svg>
