<?xml version="1.0" encoding="utf-8"?>
<!-- Generator: Adobe Illustrator 27.0.1, SVG Export Plug-In . SVG Version: 6.00 Build 0)  -->
<svg version="1.1" id="Charlotte_Legends_RC_Short_Config"
	 xmlns="http://www.w3.org/2000/svg" xmlns:xlink="http://www.w3.org/1999/xlink" x="0px" y="0px" viewBox="0 0 1920 1080"
	 style="enable-background:new 0 0 1920 1080;" xml:space="preserve">
<style type="text/css">
	.st0{fill:none;stroke:#FFFFFF;stroke-width:30;stroke-miterlimit:10;}
</style>
<path class="st0" d="M1088.6,867.6c-19.7,0-35.3-3.1-46.3-6.5c-16.3-4.9-56.1-25.9-60.5-28.3l-0.5-0.3c-25.2-14.3-42.8-14.7-58.4-15
	c-2.4,0-4.9-0.2-7.2-0.2c-23.9-1-95.8-4.2-96.5-4.4c-98.6-4.5-261.2-19.4-368.7-37.6c-61.5-10.5-108.5-54-136.1-126.2
	c-13.5-34.9-22.2-77.2-25-119.2h-0.3c0-4.9-1.6-121.1,4.9-169.7c6.8-52.9,27.1-91.6,59.8-114.6c22.2-15.6,49.3-23.8,82.8-24.6
	c15.6-0.5,37.9-1.4,61.7-2.4c26.2-1.2,53.5-2.3,71.3-2.8h0.3l369.1-3.3c5.1-0.3,25.2-1,48.4,9.3c23.2,10.5,54.2,34.3,68.9,89.1
	l0.2,1c0.5,2.4,48.2,244.5,63.8,324.7c11,56.6,41.2,82.5,95.6,81.6c26.6-0.5,64.7-17.6,102.1-45.8c18.5-14,41.2-41.1,44.6-71.3
	c2.3-20.8-5.2-41.2-21.8-60.3c-13.1-15-37-35.6-60.3-55.7c-23.2-20.1-47.4-40.7-62-57.1l0,0c-32.7-36.5-32.7-72.9-26.9-97
	c10.3-43.5,46-78.3,75.8-90.2c108-42.8,162.2,1.9,200.8,51.6c42.5,54.3,129.5,177.7,154.8,255.1c13.8,42.1,10.1,83.4-11.2,122.5
	c-34.1,62.7-103.1,100.7-141.4,110.8c-120.7,32-243.1,61.7-335.3,81.4C1117.5,866.2,1102.1,867.6,1088.6,867.6z"/>
</svg>
