<?xml version="1.0" encoding="utf-8"?>
<!-- Generator: Adobe Illustrator 27.0.0, SVG Export Plug-In . SVG Version: 6.00 Build 0)  -->
<svg version="1.1" id="Layer_1" xmlns="http://www.w3.org/2000/svg" xmlns:xlink="http://www.w3.org/1999/xlink" x="0px" y="0px"
	 viewBox="0 0 1920 1080" style="enable-background:new 0 0 1920 1080;" xml:space="preserve">
<style type="text/css">
	.track-surface{fill:none;stroke:#231F20;stroke-width:20;stroke-miterlimit:10;}
</style>
<path class="track-surface" d="M889.1,952c-52.1,0-98.2-0.8-149.1-3h-0.5l-0.5-0.1c-2-0.3-49.6-7.2-121.1-32.7l-8.1-2.9
	c-70.7-25.1-202.3-71.8-265.5-103.7c-49.5-25-98.4-66.8-134.1-114.9c-21.6-29-38.4-60.2-49.9-92.4c-13-36.5-19.4-74.5-18.7-113.1
	c-0.1-5.2-0.5-81.4,42.7-161.3c25.8-47.7,61.8-86.7,107-115.7c56.2-36.2,126.8-57,209.8-61.9c339.4-20.2,569.3-21.3,791.6-22.3
	c17.3-0.1,34.5-0.2,51.7-0.3c65.8-0.3,162,8.2,247.9,50.5c46.9,23.1,85.7,53.9,115.3,91.6c34.4,43.8,56.9,97.6,66.9,159.7
	c7,43.1,10,129.3-47.5,222.1c-25.1,40.6-59.2,77.4-100.9,109.4c-46.4,35.5-102.8,65.3-167.8,88.5c-24.5,8.8-69.2,25.9-112.3,42.4
	c-36.5,14-74.4,28.5-99,37.4c-21.3,7.8-38.7,12.4-85.6,19.1l-0.5,0.1h-0.5c-29.8,0.4-57.1,0.8-82.4,1.2
	C1001.5,951.2,942.3,952,889.1,952z"/>
</svg>
