<?xml version="1.0" encoding="utf-8"?>
<!-- Generator: Adobe Illustrator 27.0.0, SVG Export Plug-In . SVG Version: 6.00 Build 0)  -->
<svg version="1.1" id="Layer_1" xmlns="http://www.w3.org/2000/svg" xmlns:xlink="http://www.w3.org/1999/xlink" x="0px" y="0px"
	 viewBox="0 0 1920 1080" style="enable-background:new 0 0 1920 1080;" xml:space="preserve">
<style type="text/css">
	.st0{fill:none;stroke:#231F20;stroke-width:20;stroke-miterlimit:10;}
</style>
<path class="st0" d="M1643.8,443c-9.3-20-23.7-38.1-43.9-55.4l-0.1-0.1c-1.2-1-112.2-92.6-147.8-124.2
	c-28.2-25.2-37.4-29.1-50.3-34.4c-1-0.4-1.9-0.8-3-1.3c-15.6-6.6-39-16-53.6-21c-10.1-3.4-10.1-7.3-10.1-8.4
	c0.5-30.7-7.5-41.6-21.1-50.4c-13.4-8.4-42.7-26.7-57.9-35.2c-59.9-33.5-115.8-1.2-139.8,12.6c-8.1,4.7-18.6,10.9-29.9,17.5
	c-18.2,10.8-37.1,21.8-49.4,28.6c-64.3,35.6-112.2,57-155.4,69.6c-7.7,2.2-20.3,4.9-32.3,7.7c-9.5,2-18.4,4-24.7,5.6
	c-42.1,11-69.6,36.9-89.5,55.8c-2.5,2.4-4.9,4.7-7.3,6.8c-23.5,21.6-69.7,67.4-91.5,93.6c-43.3,52-18.6,97.5-3.9,124.7
	c1.1,2,2.1,4,3.2,5.9c2.1,4,4.9,8.9,7.7,14.2c8.7,15.9,20.8,37.8,24.8,50.3c15.7,48.2-7.8,71-26.6,89.4l-1.2,1.1
	c-30.5,29.7-82,28.1-102.6,26.1c-20.1-1.9-45.4-5.3-69.9-8.5c-4.4-0.6-8.6-1.2-12.9-1.6c-13.2-1.7-24.1-3.3-32.7-4.5
	c-24.6-3.5-37-5.2-54.5-4.2c-35.7,2.1-63,16.8-81,43.5c-29,43-24.4,105.3-14.7,134.5c11.7,35.2,34.2,61.7,66.8,78.9
	c31.5,16.6,63,19.4,79,19.6c64.2,0.7,175.3,0.3,264.6-0.1c28.3-0.1,54.1-0.2,74.9-0.3c58.5-0.1,148.8,0.7,236.2,1.5
	c70.4,0.6,137,1.2,184.6,1.3l24.7,0.1c17.4,0,32.7,0.1,46.4,0.1c65.8,0,93.9-0.9,136.2-6c35.7-4.4,67.6-19.5,95-44.9
	c18-16.8,34.1-37.9,49-64.8c13.9-25,30.8-70,42-99.8c1.7-4.7,3.3-8.9,4.8-12.7c20-52.6,57.2-161.1,73.4-217.2
	C1659.1,503.3,1657.2,471.8,1643.8,443z"/>
</svg>
