<?xml version="1.0" encoding="utf-8"?>
<!-- Generator: Adobe Illustrator 27.0.1, SVG Export Plug-In . SVG Version: 6.00 Build 0)  -->
<svg version="1.1" id="Charlotte_Roval_Long_Config"
	 xmlns="http://www.w3.org/2000/svg" xmlns:xlink="http://www.w3.org/1999/xlink" x="0px" y="0px" viewBox="0 0 1920 1080"
	 style="enable-background:new 0 0 1920 1080;" xml:space="preserve">
<style type="text/css">
	.st0{fill:none;stroke:#FFFFFF;stroke-width:30;stroke-miterlimit:10;}
</style>
<path class="st0" d="M857.2,937c-27.5,0-45.2-0.1-45.8-0.1c-30.2,0-44.5-29.5-45-50.4c-0.2-8-2.4-13.8-6.6-17
	c-6.5-5.1-17.4-4.2-21-3.4l-0.6,0.1c-0.5,0.1-54.7,8.6-81,11.7c-42,4.9-55.2,5.1-74.3,0.9c-93.8-20.5-215.6-77.2-216.8-77.7L366,801
	c-47.8-24.1-95-64.5-129.4-110.9c-20.4-27.2-36.6-57.3-48.2-89.2c-12.5-35-18.7-72-18.1-109.2c-0.1-4.8-0.3-76.1,41.4-152.6
	c24.6-45.4,60-84,103-112.6c54.1-36.2,121.9-58.6,201.7-66.8c41.7-4.2,83.6-5.6,125.5-4.1c17.4,0.7,28.2,8.1,36.9,14.1
	c7.2,5,12.9,8.9,21.3,8.9c13.7,0,28.6-0.4,43-0.9c7.3-0.2,14.8-0.5,22.3-0.6c9.4-0.2,17.7-4.7,27.3-10c13-7,27.6-15,48.9-15
	c34.4,0,485.4-8.9,489.9-9h0.1c63.4-0.3,156.4,7.9,239.3,48.7c45.3,22.3,82.7,52,111.3,88.5c33.2,42.3,54.9,94.1,64.6,154.1
	c0.7,4,12.7,74.5-15.6,157.7c-16.5,48.9-44.6,93.2-81.8,129c-46.6,45.2-108.9,79.3-185,101.5c-23.8,7-42.4,4.9-56.7-6.1
	c-17.1-13.2-17-28.9-15.5-37.1c2.4-12.7,11.4-24,21.5-27c76-22.6,126.7-56.8,127.2-57.1l0.1-0.1c61.8-40.7,73-90.2,73.1-90.7
	l0.1-0.4c5-19.3,3.8-35.3-3.4-46.4c-4.9-7.5-12.6-12.7-21.4-14.3c-31.2-5.2-41.7,12.8-50.1,27.3c-1,1.6-1.8,3.2-2.7,4.6
	c-32.4,52.8-44.2,69-65.2,82.5c-31.7,20.4-59.3,21.9-76.9,19.5c-21.3-2.8-40.5-13.2-51.2-27.7c-15.6-21.1-21.7-42.3-18.1-63.1
	c5.6-32.7,33.3-52,35.3-53.4c22.9-15.9,35.9-21.6,99-43.3c22.3-7.6,82.1-41.4,64.7-94.4c-11.1-33.8-50.6-91.6-74.5-122.2
	c-14.7-18.8-26.2-33.6-108.3-30.1h-0.2h-0.3c-2.4,0-245.2-3.6-325.6-1.5c-8.7,0.2-22.2,0.8-35.2,1.4c-12,0.5-23.3,1-31.2,1.2
	c-20.4,0.6-48.3,6.9-54.5,54.4c-3,23.1-2.3,81.7-2.3,82.3c0.8,15.5,3.9,30.9,9.2,45.5c11.4,30.8,30.8,51.1,57.8,60.3
	c8,1.9,135.5,32.8,183,40.9c23.1,4,78.9,14.7,100,28.9c25.6,17.2,42.9,32.7,68.8,102c12.1,32.6,28.7,85,35.5,112.1
	c6.6,26.5,2.2,56-12.1,80.9c-18.1,31.6-51.5,54.8-96.5,67.3c-1.9,0.5-4,1.1-6.1,1.7c-16.8,4.8-39.9,11.5-77.5,13
	C1082.5,936.6,932.8,937,857.2,937z"/>
</svg>
