<?xml version="1.0" encoding="utf-8"?>
<!-- Generator: Adobe Illustrator 27.0.0, SVG Export Plug-In . SVG Version: 6.00 Build 0)  -->
<svg version="1.1" id="Grand_Prix_-_Config" xmlns="http://www.w3.org/2000/svg" xmlns:xlink="http://www.w3.org/1999/xlink"
	 x="0px" y="0px" viewBox="0 0 1920 1080" style="enable-background:new 0 0 1920 1080;" xml:space="preserve">
<style type="text/css">
	svg {height: 100%;width: 100%;}.track-surface {fill: none;stroke: white;stroke-width: 30;}
</style>
<path class="track-surface" d="M1721.5,338.7l-0.3-0.3c-17.5-18.8-68.8-37.9-152.5-56.9c-75-17-302.1-63.1-304.4-63.6
	c-1.8-0.4-182.3-35.8-189.9-37.4l-0.8-0.2c-36.6-7.2-66.6-20-84.5-35.9l-0.2-0.2c-0.5-0.4-2.3-2.2-3.8-3.7
	c-11.5-11.3-38.4-37.9-66.7-46.2l-0.4-0.1c-10.7-2.7-21.9-3-32.7-0.9c-17.4,3.5-32.9,13-44.1,26.7l-32.2,39.2
	c-7.9,9.4-19.9,12.3-30.4,14.9c-10.4,2.5-21.1,3.4-31.7,2.7c-13.5-0.8-46.3-2.6-58.9-3c-21.4-1.1-36.8-0.7-55.4,13.9
	c-7.3,5.7-17.7,17.4-26.1,26.8c-4.2,4.7-9,10.1-10.6,11.4l-0.4,0.3l-0.3,0.3c-13.3,13.8-36.8,22.7-37,22.8
	c-6,2.2-145.3,53.3-161.5,59.5c-44,13.7-149.2,78.2-175.6,96.1c-36.6,23.1-46.7,52.9-48.7,73.9c-1.4,13.7,0.2,27.6,4.7,40.6
	c5,12.5,121.2,304.2,125.8,315.4c13.4,36.3,37.8,67.7,72.7,93.3c19.2,14.1,40.2,25.6,62.4,34.4C456,970,541,983.9,566.4,987.2
	c4,0.6,8.1,0.8,12.2,0.9c16.5,0,31.4-4.8,42.7-14.1c12.9-10.5,20.3-25.7,21.4-43.9c1-13.6-4.1-27-13.8-36.6
	c-12.8-12.9-31.1-18.6-40.3-18.6h-0.2c-6.2-0.5-14.7,1.7-26.3,4.6c-11.6,2.9-24.7,6.2-37.2,7.3c-13.5,1.2-26.7-4.7-34.7-15.6
	c-20.2-28-4.2-61.2-3.5-62.5v-0.1L724,303.9c4.4-8.6,12.5-11.1,21.9-13.9c1.6-0.5,3.2-1,4.9-1.5c55.1-14.6,104.6-9.2,118.4-7.2
	c3.7,0.5,7.2,1.9,10.3,4c4.5,3.2,6.1,6.5,5.4,11.2c-0.8,4.3-3.3,8-7,10.4c-13.6,9-46.4,30.7-58.5,39c-15.2,8.9-23.1,19.6-23.3,31.6
	c-0.3,18.7,18.5,31.5,21.3,33.4c49.8,33.9,131,89.8,138.1,96.6l0.5,0.5c31.2,30.3,36.7,70.8,36.7,71.2v0.3
	c0.5,3,11.6,73.9,14.7,90.2v0.1c11.3,54.1,50.7,68,55.6,69.5l161.8,59.9l214.4,79.4c34.6,13.3,53.1,2.2,64.2-4.4
	c1.2-0.7,2.4-1.4,3.4-2c44.5-24.7,70.4-75.5,74.9-87.8l0.2-0.6c6.5-23-9.2-38.5-18.7-43.6c-1.9-1.2-6.6-3.7-20.2-10.4
	c-4.7-2.3-5.5-4.7-5.8-5.5c-1-3,0.1-6.5,0.8-8c4.7-7.6,74.5-120.4,91.4-148.4c12.9-21.3,44-55.3,56.8-68.9c4.3-4.6,8.9-9,13.5-13.2
	c1.3-1.2,2.8-2.5,4.3-3.8c10.8-9.5,25.6-22.6,32.8-37.9C1756.1,403.6,1750.5,366.3,1721.5,338.7z"/>
</svg>
