<?xml version="1.0" encoding="utf-8"?>
<!-- Generator: Adobe Illustrator 27.0.0, SVG Export Plug-In . SVG Version: 6.00 Build 0)  -->
<svg version="1.1" id="International_-_Config" xmlns="http://www.w3.org/2000/svg" xmlns:xlink="http://www.w3.org/1999/xlink"
	 x="0px" y="0px" viewBox="0 0 1920 1080" style="enable-background:new 0 0 1920 1080;" xml:space="preserve">
<style type="text/css">
	svg {height: 100%;width: 100%;}.track-surface {fill: none;stroke: white;stroke-width: 30;}
</style>
<path class="track-surface" d="M1440.2,345.6l-0.3-0.3c-18.7-20.1-73.5-40.5-163-60.9c-80.2-18.2-322.8-67.5-325.3-68
	c-1.9-0.4-194.8-38.3-203-39.9l-120-23.5c-6.2-1.8-12.7-2.5-19.1-2.1c-15.2,1.2-26.2,9.6-30.9,23.7l-0.2,0.7
	c-6.1,24.1-29.2,116.8-30.5,121.8c-0.2,0.6-0.8,2.7-1.8,5.1c-1.5,3.8-4.1,7.1-7.5,9.4l0,0c-14.6,9.6-49.6,32.9-62.5,41.6
	c-16.3,9.5-24.7,20.9-24.9,33.7c-0.4,20,19.8,33.7,22.8,35.7c53.2,36.2,140,96,147.6,103.2l0.5,0.5c33.3,32.4,39.2,75.7,39.3,76.1
	v0.3c0.5,3.2,12.4,79,15.7,96.4v0.2c12.1,57.8,54.2,72.6,59.4,74.2l172.9,64.1l229.1,84.9c12.6,4.8,23.3,6.7,32.2,6.7
	c17.3,0,28.6-6.7,36.4-11.4c1.3-0.8,2.5-1.5,3.7-2.2c47.6-26.5,75.2-80.7,80-93.8l0.2-0.7c7-24.6-9.8-41.1-20-46.6
	c-2-1.2-7.1-4-21.6-11.2c-5-2.5-5.9-5.1-6.2-5.9c-1.1-3.2,0.2-7,0.8-8.5c5-8.2,79.6-128.7,97.7-158.6c13.8-22.8,47.1-59.1,60.7-73.7
	c4.6-4.9,9.5-9.7,14.4-14.1c1.4-1.3,3-2.6,4.6-4.1c11.5-10.2,27.3-24.1,35.1-40.5C1477.2,415,1471.3,375.1,1440.2,345.6z"/>
</svg>
