<?xml version="1.0" encoding="utf-8"?>
<!-- Generator: Adobe Illustrator 27.0.0, SVG Export Plug-In . SVG Version: 6.00 Build 0)  -->
<svg version="1.1" id="Layer_1" xmlns="http://www.w3.org/2000/svg" xmlns:xlink="http://www.w3.org/1999/xlink" x="0px" y="0px"
	 viewBox="0 0 1920 1080" style="enable-background:new 0 0 1920 1080;" xml:space="preserve">
<style type="text/css">
	.track-surface{fill:none;stroke:#231F20;stroke-width:20;stroke-miterlimit:10;}
</style>
<path class="track-surface" d="M1117.7,197.7c-16.4,16.7-42.7,26.7-43.8,27.1c-1.5,0.6-147.8,54.2-162.3,59.8l-0.6,0.2
	c-39.6,12.2-144.3,75.6-171.8,94.4l-0.3,0.2c-57.6,36.2-37.7,90.1-36.9,92.4c1.2,3,123.2,309.1,126.3,316.8l0.1,0.3
	c25.4,69,89.2,103.3,125,117.5c14.7,5.9,93.6,19.5,124.6,23.4h0.1c16.3,2.2,30.7-1,40.7-9.2c8.8-7.2,13.8-17.8,14.6-30.7
	c0.7-8.4-2.4-16.6-8.5-22.4c-9.5-9.6-23.9-13.3-27.2-13.2h-0.8l-0.7-0.1c-2.9-0.3-12.7,2.1-20.5,4.1c-11.7,2.9-26.3,6.6-40.3,7.8
	c-20.2,1.8-39.8-7.1-51.8-23.5c-26.6-36.8-6.7-79-5.1-82.1l238.5-507l0.1-0.2c0.6-1.1,2.1-4.5,3.8-12.4c0.8-4,1.1-8.1,0.8-12.1
	c-0.8-9.8-2.3-29.1-3.6-49.1c-0.8-8.6-3.7-15.6-8.7-21c-4.7-5.1-11.1-8.2-18-9h-0.1c-9.9-1.1-24.6-0.3-37.9,10.2
	c-6,4.7-16.3,16.2-23.8,24.7C1123.8,191.4,1120.2,195.5,1117.7,197.7z"/>
</svg>
