<?xml version="1.0" encoding="utf-8"?>
<!-- Generator: Adobe Illustrator 27.0.1, SVG Export Plug-In . SVG Version: 6.00 Build 0)  -->
<svg version="1.1" id="Fairbury_Config" xmlns="http://www.w3.org/2000/svg" xmlns:xlink="http://www.w3.org/1999/xlink" x="0px"
	 y="0px" viewBox="0 0 1920 1080" style="enable-background:new 0 0 1920 1080;" xml:space="preserve">
<style type="text/css">
	.st0{fill:none;stroke:#FFFFFF;stroke-width:30;stroke-miterlimit:10;}
</style>
<path class="st0" d="M1065.1,914c-98.4,0-228.1-1.7-391.7-5.3c-58.9-1.2-113-12.4-160.8-33.1c-43.6-18.8-82-45.6-114.2-79.5
	C319.4,713,293.7,604.3,296,530.3c1.9-64.8,18.4-123.5,49.2-174.5c26.6-44.3,63.5-82.2,109.7-112.6c38.3-25.3,81.7-44.7,129.2-57.8
	c40.2-11.1,81.2-17,118.6-17c41,0,88.4-0.5,138.6-1.1c139.4-1.5,297.5-3.2,412.1,4.7c66.5,4.6,126.2,20.1,177.6,46
	c45.9,23.2,85.1,54.6,116.3,93.5c26.5,32.9,46.7,70.4,60.1,111.1c11.2,34.3,17.1,69.7,17,102.5c-0.3,79.4-16.4,148.4-48,204.7
	c-28,50-68.3,90.5-119.5,120.2c-89.1,51.9-191.7,60.4-261.1,62.4C1160.4,913.5,1117.1,914,1065.1,914z"/>
</svg>
