<?xml version="1.0" encoding="utf-8"?>
<!-- Generator: Adobe Illustrator 27.0.1, SVG Export Plug-In . SVG Version: 6.00 Build 0)  -->
<svg version="1.1" id="Barcelona_Grand_Prix_-_Config"
	 xmlns="http://www.w3.org/2000/svg" xmlns:xlink="http://www.w3.org/1999/xlink" x="0px" y="0px" viewBox="0 0 1920 1080"
	 style="enable-background:new 0 0 1920 1080;" xml:space="preserve">
<style type="text/css">
	.st0{fill:none;stroke:#FFFFFF;stroke-width:30;stroke-miterlimit:10;}
</style>
<path class="st0" d="M1768.5,602.1c-0.8-19.4-3.8-32.5-16.8-37.3c-7.4-2.7-16.9-3.7-25.2-4.6l-1.1-0.1c-7.9-0.8-7.8-2.8-7.2-8.8
	c3.4-37.1,7.3-82.9,8.5-109.4c1.8-38.9-21.3-53.5-35.1-58.8c-28.6-10.8-100.7-37.6-151.8-51.9c-30.8-8.6-52.9-1-65.9,7
	c-17.3,10.5-30.1,28.3-34,47.4c-5.7,27.7,0.1,51,17.3,69.5c15.4,16.6,36.8,25.2,51.9,29.6c19.1,5.4,31.5,15,33.9,21.7
	c2.3,6.6,5.2,14.5,8.2,22.8c10.5,28.6,23.7,64.4,28.8,88.4c1.8,8.2,0.9,13.7-2.6,16.3c-5.1,3.7-14.5,2.3-17.3,0.7
	c-63.6-36.7-137.6-82-216-130c-100.3-61.3-204-124.8-289-172c-58.9-32.7-116.6-3.9-138.7,27C897,387,871,424.1,845.8,460.1
	c-17.8,25.5-34.6,49.5-47.9,68.3c-26.7,37.7-25.7,64.1-24.7,85.2c0.2,3.6,0.3,7.2,0.3,10.5c-0.1,39.8-23.8,45.4-49.5,45.5
	c-36.4,0.1-87-1.1-115.2-2.9c-59.1-3.5-81-18-104.2-33.2c-3.4-2.2-6.8-4.5-10.3-6.7c-31.2-19.5-63.5-39.6-124.5-89.2
	c-9.4-7.7-19.6-19.6-14.8-33.5c4.2-12.4,19.3-22.2,34.5-22.6c28.7-0.7,70.5-0.1,110.9,0.5c33.5,0.5,65.2,1,89.3,0.7
	c39.8-0.4,69-15.2,86.3-27.5c21.5-15.2,37.4-35.3,43.6-55.3c11.5-36.8,2.5-60.7-7.1-74.3c-15.1-21.5-41.9-32.1-61.7-32.8
	c-48.3-2-124.9-1.9-192.4-1.7c-25.9,0.1-50.3,0.1-70.9,0c-0.4,0-0.7,0-1.1,0c-73.4,0-130.7,28.7-146.6,37.5
	C213,343.4,191.9,362.1,177,384c-13.3,19.5-21.5,41.3-24.5,64.6c-6.4,50.6,13.6,94.8,36.2,116.3c34.9,32.9,77.3,48.4,108.2,59.7
	c7.6,2.8,14.1,5.1,19.6,7.5c47.5,19.5,48.5,52.5,44.8,70.4c-5.4,26-2.2,46.4,9.5,60.7c14.5,17.8,37.4,20.6,49.8,20.6
	c120.9,0.7,265,0.7,417.7,0.6c288.6-0.1,586.9-0.3,788.2,4.6c2.1,0.1,4.1,0.1,6.2,0.1c43.8,0,77.9-11.4,101.4-33.8
	c25.9-24.6,32.1-55.8,32.8-77.7c0.1-3.9,0.3-8.4,0.5-13.4C1768.2,645.4,1769.2,620.3,1768.5,602.1z"/>
</svg>
