<?xml version="1.0" encoding="utf-8"?>
<!-- Generator: Adobe Illustrator 27.0.1, SVG Export Plug-In . SVG Version: 6.00 Build 0)  -->
<svg version="1.1" id="Barcelona_National_-_Config"
	 xmlns="http://www.w3.org/2000/svg" xmlns:xlink="http://www.w3.org/1999/xlink" x="0px" y="0px" viewBox="0 0 1920 1080"
	 style="enable-background:new 0 0 1920 1080;" xml:space="preserve">
<style type="text/css">
	.st0{fill:none;stroke:#FFFFFF;stroke-width:30;stroke-miterlimit:10;}
</style>
<path class="st0" d="M1699.7,600.3c-1-24.1-4.8-40.3-20.8-46.2c-9.2-3.3-20.9-4.6-31.3-5.7l-1.4-0.1c-9.9-1-9.6-3.4-8.9-10.9
	c4.2-46,9-103,10.6-135.8c2.3-48.3-26.4-66.5-43.6-73c-35.5-13.4-125-46.7-188.4-64.4c-38.3-10.7-65.6-1.2-81.8,8.7
	c-21.5,13.1-37.3,35.1-42.2,58.8c-7.1,34.4,0.1,63.4,21.5,86.3c19.1,20.6,45.7,31.3,64.4,36.7c23.7,6.7,39.1,18.7,42.1,27
	c2.9,8.2,6.4,18,10.2,28.3c13.1,35.5,29.4,79.9,35.8,109.7c1.5,7,2.1,16.3-3.2,20.2c-6.3,4.6-18,2.9-21.5,0.8
	c-78.9-45.5-170.8-101.8-268.1-161.3c-124.5-76.2-253.2-154.9-358.8-213.5c-73.1-40.5-144.7-4.9-172.1,33.5
	c-24.3,33.9-56.6,80-87.7,124.7c-22.1,31.6-42.9,61.5-59.4,84.8c-34,48-32.2,81.2-30.8,107.9c0.2,3.9,0.4,7.6,0.5,11.2l0,0
	c0.5,19.7-3.8,34.4-12.5,43.5c-10.9,11.4-27.8,13.2-42.8,13.4c-19.7,0.4-40.5,0-60.8-0.4c-19.9-0.4-40.3-0.7-59-0.4
	c-45.1,0.8-67.3,32.3-69.4,63.2c-1.4,20.8,6.5,42.1,21.8,58.4c12.5,13.3,27.8,21.3,41,21.3h0.1c581.4-2.1,1230.1,4.9,1240.8,4.9
	c2.6,0.1,5.1,0.1,7.6,0.1c54.3,0,96.7-14.1,125.9-42c32.1-30.6,39.8-69.3,40.7-96.4c0.1-4.9,0.4-10.5,0.6-16.6
	C1699.4,654.1,1700.5,622.8,1699.7,600.3z"/>
</svg>
