<?xml version="1.0" encoding="utf-8"?>
<!-- Generator: Adobe Illustrator 27.0.1, SVG Export Plug-In . SVG Version: 6.00 Build 0)  -->
<svg version="1.1" id="Barcelona_Club_-_Config" xmlns="http://www.w3.org/2000/svg" xmlns:xlink="http://www.w3.org/1999/xlink"
	 x="0px" y="0px" viewBox="0 0 1920 1080" style="enable-background:new 0 0 1920 1080;" xml:space="preserve">
<style type="text/css">
	.st0{fill:none;stroke:#FFFFFF;stroke-width:30;stroke-miterlimit:10;}
</style>
<path class="st0" d="M1328.2,255.5c-20.3-28.9-56.3-43.1-82.8-44.1c-64.8-2.7-167.5-2.6-258.3-2.3c-34.7,0.1-67.5,0.1-95.1,0
	c-0.5,0-0.9,0-1.4,0c-98.5,0-175.5,38.6-196.8,50.4c-35.7,19.8-64,44.9-84.1,74.3c-17.9,26.2-28.9,55.4-32.9,86.8
	c-8.6,67.9,18.3,127.3,48.6,156.1c46.9,44.5,104.1,65.2,145.9,80.2c9.9,3.6,18.5,6.7,25.8,9.8c63.8,26.2,65.1,70.5,60.2,94.5
	c-7.2,34.8-3,62.2,12.7,81.5c19.3,23.8,50.1,27.6,66.9,27.6c2.6,0,31.9,0.6,58.8,0.6c14.1,0,27.8-0.1,36.1-0.6
	c47.8-2.7,64.3-40.8,64-72.6c0-6.4,0-15.7,0.1-25.3c0.1-15.7,0.3-31.9-0.1-42.4c-1.3-34.8-33.7-54-53-65.4c-2.7-1.5-5.1-3.1-7.2-4.4
	l-4.5-2.8c-41.8-26.5-85.1-53.9-162.6-116.9c-12.6-10.3-26.4-26.4-19.9-45c5.7-16.6,26-29.8,46.3-30.3c38.6-0.9,94.6-0.1,148.9,0.6
	c45,0.6,87.6,1.3,119.8,0.9c53.5-0.5,92.6-20.4,115.8-36.9c28.8-20.4,50.1-47.4,58.5-74.2C1353.1,305.9,1341,273.8,1328.2,255.5z"/>
</svg>
