<?xml version="1.0" encoding="utf-8"?>
<!-- Generator: Adobe Illustrator 27.0.1, SVG Export Plug-In . SVG Version: 6.00 Build 0)  -->
<svg version="1.1" id="Barcelona_Moto_-_Config" xmlns="http://www.w3.org/2000/svg" xmlns:xlink="http://www.w3.org/1999/xlink"
	 x="0px" y="0px" viewBox="0 0 1920 1080" style="enable-background:new 0 0 1920 1080;" xml:space="preserve">
<style type="text/css">
	.track-surface{fill:none;stroke:#FFFFFF;stroke-width:30;stroke-miterlimit:10;}
</style>
<path class="track-surface" d="M1734.3,509.5l-2.1-0.4c-8.4-1.6-21.2-3.9-28.7-4.7c-0.1,0-0.2,0-0.3,0c-0.4-0.8-0.7-2.9-0.3-8
	c1.7-17.6,4.6-51.2,4.6-51.6v-0.4c1.8-38-20.8-52.3-34.3-57.4c-28-10.6-98.3-36.7-148.2-50.7c-30.1-8.4-51.6-0.9-64.3,6.8
	c-16.9,10.3-29.4,27.6-33.2,46.3c-5.6,27,0.1,49.8,16.9,67.9c15.1,16.2,35.9,24.6,50.7,28.9c18.6,5.2,30.8,14.7,33.1,21.2
	c2.2,6.5,5,14.1,8,22.2c10.3,28,23.1,62.8,28.1,86.3c1.8,8,0.8,13.4-2.5,15.9c-5,3.6-14.1,2.2-16.9,0.7
	c-62.1-35.8-134.3-80-210.8-126.9c-97.9-59.8-199.1-121.8-282.1-167.9c-57.5-31.9-113.8-3.8-135.4,26.4
	c-19.1,26.6-44.5,62.9-69.1,98.1c-17.4,24.9-33.7,48.3-46.7,66.7c-26.1,36.8-25.1,62.5-24.1,83.2c0.2,3.6,0.3,7,0.3,10.3
	c-0.1,38.9-23.3,44.3-48.3,44.4c-35.5,0.1-84.9-1.1-112.5-2.8c-57.7-3.5-79.1-17.6-101.7-32.4c-3.3-2.2-6.6-4.4-10.1-6.5
	c-30.5-19.1-62-38.7-121.5-87c-9.2-7.5-19.2-19.2-14.5-32.8c4.1-12.1,18.9-21.7,33.7-22.1c28-0.7,68.8-0.1,108.2,0.5
	c32.7,0.5,63.7,0.9,87.1,0.7c38.9-0.4,67.3-14.9,84.2-26.8c20.9-14.9,36.5-34.5,42.5-53.9c11.2-35.9,2.4-59.3-6.9-72.5
	c-14.8-21-40.9-31.3-60.2-32.1c-47.1-2-121.9-1.9-187.8-1.7c-25.2,0.1-49.1,0.1-69.2,0c-0.4,0-0.7,0-1,0
	c-71.6,0-127.6,28-143.1,36.6c-26,14.4-46.6,32.6-61.1,54c-13,19.1-21,40.3-23.9,63.1c-6.3,49.4,13.3,92.5,35.3,113.5
	c34.1,32.3,75.7,47.4,106.1,58.3c7.2,2.6,13.5,4.9,18.8,7.1c46.4,19.1,47.3,51.2,43.7,68.7c-5.2,25.3-2.2,45.2,9.3,59.3
	c14.1,17.4,36.6,20.1,48.6,20.1c118,0.7,258.7,0.7,407.7,0.6c281.7-0.1,572.8-0.3,769.3,4.5c2.1,0.1,4,0.1,6.1,0.1
	c42.7,0,76-11.1,99-33c25.2-24,31.3-54.5,32-75.8l0,0c0-0.9,2.8-94.7,3.4-133C1750.4,531.7,1750.7,512.6,1734.3,509.5z"/>
</svg>
