<?xml version="1.0" encoding="utf-8"?>
<!-- Generator: Adobe Illustrator 27.0.0, SVG Export Plug-In . SVG Version: 6.00 Build 0)  -->
<svg version="1.1" id="Layer_1" xmlns="http://www.w3.org/2000/svg" xmlns:xlink="http://www.w3.org/1999/xlink" x="0px" y="0px"
	 viewBox="0 0 1920 1080" style="enable-background:new 0 0 1920 1080;" xml:space="preserve">
<style type="text/css">
	.st0{fill:none;stroke:#231F20;stroke-width:20;stroke-miterlimit:10;}
</style>
<path class="st0" d="M1793,472.7c-2.3-24.3-12-45.3-29-62.4c-11.5-11.7-26.5-21.6-45.7-30.4c-1.3-0.6-144.9-56.4-181.2-56.4
	c-0.3,0-0.5,0-0.8,0c-42.9,1-63.4,20.7-73.1,37.1c-15.2,25.7-13,59.6-3.3,78.4c16.6,32.1,58,43.7,85.3,51.4c4,1.2,7.9,2.2,11.1,3.3
	c69.6,21.5,103.6,62.4,100.7,121.6c-0.8,17.4-5.8,29.6-14.9,36.2c-12,8.8-27.5,5.6-32,4.4c-5.9-1.6-21.3-10.1-33-17.2
	c-36.8-22.5-74.9-45.9-111.8-68.5c-140.7-86.3-286.1-175.6-408.6-243.6c-60.7-33.6-120-4-142.8,27.8c-20.1,28.1-47,66.4-72.9,103.5
	c-18.3,26.2-35.6,51-49.3,70.3c-27.5,38.9-26.4,66-25.4,87.8c0.2,3.7,0.3,7.4,0.3,10.9c-0.1,41-24.6,46.8-51,46.9
	c-37.5,0.1-89.6-1.2-118.7-3c-60.9-3.6-83.4-18.5-107.3-34.2c-3.5-2.3-7-4.6-10.7-6.9c-32.2-20.1-65.4-40.8-128.2-91.8
	c-9.7-7.9-20.2-20.2-15.3-34.6c4.3-12.7,19.9-22.9,35.5-23.3c29.6-0.7,72.6-0.1,114.2,0.5c34.5,0.5,67.2,1,91.9,0.7
	c41-0.4,71-15.7,88.9-28.3c22.1-15.7,38.5-36.4,44.9-56.9c11.8-37.9,2.6-62.5-7.3-76.5c-15.6-22.2-43.2-33-63.5-33.8
	c-49.7-2.1-128.6-2-198.2-1.8c-26.6,0.1-51.8,0.1-73,0c-0.4,0-0.7,0-1.1,0c-75.6,0-134.6,29.6-151,38.7
	c-27.4,15.2-49.1,34.4-64.5,57c-13.7,20.1-22.2,42.5-25.3,66.6c-6.6,52.1,14,97.7,37.3,119.7c36,34.1,79.9,50,112,61.6
	c7.6,2.8,14.2,5.1,19.8,7.5c48.9,20.1,49.9,54.1,46.2,72.5c-5.5,26.7-2.3,47.7,9.8,62.5c14.9,18.3,38.6,21.2,51.3,21.2
	c124.5,0.7,272.9,0.7,430.2,0.6c297.2-0.1,604.5-0.3,811.8,4.7c2.2,0.1,4.2,0.1,6.4,0.1c45.1,0,80.2-11.7,104.5-34.8
	c26.6-25.4,33-57.5,33.7-80c0-1,3-99.9,3.6-140.4C1793.7,538.5,1794.7,489.7,1793,472.7z"/>
</svg>
