<?xml version="1.0" encoding="utf-8"?>
<!-- Generator: Adobe Illustrator 27.0.1, SVG Export Plug-In . SVG Version: 6.00 Build 0)  -->
<svg version="1.1" id="Charlotte_Roval_2019" xmlns="http://www.w3.org/2000/svg" xmlns:xlink="http://www.w3.org/1999/xlink"
	 x="0px" y="0px" viewBox="0 0 1920 1080" style="enable-background:new 0 0 1920 1080;" xml:space="preserve">
<style type="text/css">
	.st0{fill:none;stroke:#FFFFFF;stroke-width:30;stroke-miterlimit:10;}
</style>
<path class="st0" d="M1738.6,435.4c-9.6-59.4-31.1-110.7-63.9-152.6c-28.3-36-65.4-65.5-110.2-87.6c-82.1-40.4-174.2-48.5-237-48.2
	c-2.6,0-263.5,2.3-418.6,8l0,0c-25.2,1-40.8,22.7-49.2,34.5c-0.9,1.2-1.6,2.3-2.4,3.3c-16.5,22-35.6,14.8-60.8,2.2
	c-5.6-2.8-10.9-5.4-15.7-7.2c-34.6-12.3-56.2-14-70.4-15.2c-3.2-0.3-5.9-0.5-8.3-0.8c-55.7-7-175.1-3.5-180.2-3.5h-0.1
	c-79.4,3.2-146.9,22.2-200.7,56.4c-43.2,27.6-77.6,64.8-102.3,110.9C177.5,412.9,178,487.2,178,492.2c-0.5,36.9,5.5,73.3,17.9,108
	c11.1,30.9,27.1,60.6,47.7,88.3c34.1,45.9,80.8,85.9,128.1,109.8l0.3,0.1c1.2,0.6,121.8,56.6,214.6,76.9c18.9,4.1,32,4,73.6-1
	c26-3,79.6-11.5,80.1-11.6l0.6-0.1c0.1,0,13.1-2.7,20.7,3.3c4.1,3.2,6.4,8.9,6.6,16.9c0.5,20.7,14.6,50,44.5,50
	c0.6,0,18.2,0.1,45.4,0.1c74.9,0,223-0.4,294-3.4c37.3-1.6,60.1-8.1,76.8-12.9c2.2-0.6,4.1-1.2,6.1-1.7
	c44.5-12.4,77.5-35.4,95.5-66.6c14.2-24.6,18.5-53.8,12-80.1c-1.1-4.3-2.4-9.3-4-14.8c8.4,21,13.2,30.3,25.4,44
	c37,41.5,73.6,29.4,95.4,22.1l0.2-0.1c75.7-25.2,137.6-60.8,183.8-106.2c37.2-36.5,64.4-79.3,80.8-127.1
	C1751.5,506.3,1739.5,440,1738.6,435.4z"/>
</svg>
