<?xml version="1.0" encoding="utf-8"?>
<!-- Generator: Adobe Illustrator 27.0.0, SVG Export Plug-In . SVG Version: 6.00 Build 0)  -->
<svg version="1.1" id="Charlotte_Roval_2019" xmlns="http://www.w3.org/2000/svg" xmlns:xlink="http://www.w3.org/1999/xlink"
	 x="0px" y="0px" viewBox="0 0 1920 1080" style="enable-background:new 0 0 1920 1080;" xml:space="preserve">
<style type="text/css">
	.track-surface{fill:none;stroke:#231F20;stroke-width:10;stroke-miterlimit:10;}
</style>
<path class="track-surface" d="M1787.5,586.1c-39.6,114.2-134.1,196.8-280.5,245.4l-0.2,0.1c-22.3,7.4-52.7,17.5-85.3-19
	c-12.9-14.4-16.6-22.1-29.2-54.5c-9.2-23.5-25.1-70.5-28.4-96.1c-0.2-1.3-0.4-2.7-0.6-4c-4.3-31.5-9.7-70.7,46.3-109.7
	c22-15.3,33.4-20.9,103.8-45.1c17.4-5.9,42.9-19.8,61.9-40.8c23.7-26.1,31-56.1,21-86.7c-13.9-42.5-61.5-109.9-84.8-139.7
	c-9.9-12.5-20.3-24.5-40.7-32c-20.5-7.6-50.2-10.2-93.6-8.4c-9.9-0.2-270.1-3.9-357.4-1.6c-9.8,0.3-24.6,0.9-39,1.5
	c-13,0.6-25.3,1.1-33.8,1.3c-18.4,0.6-33.2,5-45.4,13.5c-18,12.6-29,33.8-32.7,62.8c-3.4,26.6-2.7,90.2-2.7,92.9
	c0,1.1,0.5,26.5,11.1,55.6c14.4,39.3,40.6,66.4,75.8,78.4l0.8,0.2c6,1.4,148.1,35.9,202.2,45.2c38.7,6.6,85.8,17.7,102.2,28.7
	c24.8,16.6,41.8,32,68.1,102.6c13.1,35.1,31,91.6,38.3,120.8c2.9,11.5,7.5,41.8-11.3,74.5c-17.3,30.1-49.9,52.5-94.2,64.8
	c-2.2,0.6-4.5,1.2-6.9,1.9c-17.5,5.1-41.5,12-80.5,13.6c-106.6,4.4-372.1,3.6-374.8,3.6c-22.2,0-29.9-24.7-30.2-36.6
	c-0.4-14.8-5.3-26.1-14.6-33.4c-8.7-6.8-19.2-8.4-27.2-8.4c-5.6,0-10,0.8-11.5,1.1c-4.5,0.7-60.3,9.5-87.6,12.6
	c-46.2,5.5-57.5,5.2-75.1,1.3c-99.2-21.7-228.6-81.5-233.5-83.8c-77-38.9-206.4-150.3-203.8-321.7V487v-0.2c0-0.9-1-82.5,43.2-164.7
	c58.8-109.6,166.1-168.3,318.9-174.5c3.6-0.1,136.7-3.8,196.5,3.7c3.1,0.4,6.3,0.7,10,1c14.8,1.2,37.3,3.1,73.2,15.8
	c4.3,1.5,9.7,4.2,15.3,7c12.7,6.4,27.3,13.6,42.8,15c19.3,1.8,35.6-6,48.4-23.2c0.9-1.1,1.8-2.5,2.9-3.9c7.9-11,21.1-29.5,39.6-30.1
	c171.4-6.3,460-8.9,462.8-8.9c144.5-0.7,393.4,37.8,436.1,303.2l0.1,0.4C1803.4,428.6,1817.2,500.7,1787.5,586.1z"/>
</svg>
