<?xml version="1.0" encoding="utf-8"?>
<!-- Generator: Adobe Illustrator 27.0.1, SVG Export Plug-In . SVG Version: 6.00 Build 0)  -->
<svg version="1.1" id="lernerville__Config" xmlns="http://www.w3.org/2000/svg" xmlns:xlink="http://www.w3.org/1999/xlink"
	 x="0px" y="0px" viewBox="0 0 1920 1080" style="enable-background:new 0 0 1920 1080;" xml:space="preserve">
<style type="text/css">
	.st0{fill:none;stroke:#FFFFFF;stroke-width:30;stroke-miterlimit:10;}
</style>
<path class="st0" d="M1637,558.5c-1.8-94.4-39.6-177.1-109.2-239.1c-51.5-45.7-119.6-78.6-182.4-87.9
	c-122.8-18.1-259.5-27.9-395.5-28.6c-111.4-0.5-218.8,4.9-302.6,15.6c-117.8,14.9-215,61.7-281,135.2
	c-58.3,65-88.4,148.2-82.4,228.3c7.7,102.1,56.7,182,141.5,231.2c71.6,41.5,145.6,48,166.7,49l0,0c187,9,428.5,14.9,596.6,14.9
	c24.5,0,47.4-0.1,68.3-0.4c131.4-1.6,231.7-37.1,298-105.5c34.5-35.6,58.7-79,71.7-128.9C1636.4,605.2,1637.2,573.8,1637,558.5z"/>
</svg>
