<?xml version="1.0" encoding="utf-8"?>
<!-- Generator: Adobe Illustrator 27.0.1, SVG Export Plug-In . SVG Version: 6.00 Build 0)  -->
<svg version="1.1" id="Lime_Rock_Classic_-_Config" xmlns="http://www.w3.org/2000/svg" xmlns:xlink="http://www.w3.org/1999/xlink"
	 x="0px" y="0px" viewBox="0 0 1920 1080" style="enable-background:new 0 0 1920 1080;" xml:space="preserve">
<style type="text/css">
	.st0{fill:none;stroke:#FFFFFF;stroke-width:30;stroke-miterlimit:10;}
</style>
<path class="st0" d="M1587,390.2L1587,390.2c-1.1-1-110.2-91.8-145-122.9l-0.2-0.1c-4.2-3.6-103.8-88.7-134.8-110.8
	c-1.6-1.1-39.8-28.3-57.7-37c-61.6-29.6-116.1,1.7-136.5,13.5c-7.9,4.6-18.3,10.7-29.3,17.1c-17.9,10.6-36.3,21.4-48.4,28.1
	C972.1,213,925.1,234,882.7,246.3c-7.7,2.2-20.2,4.9-32.2,7.6c-9,2-17.6,3.9-23.7,5.4c-41.3,10.7-68.2,36.2-87.9,54.8
	c-2.5,2.4-4.8,4.6-7,6.6c-23.1,21.3-68.4,66.2-89.7,91.8c-42.4,51-18.3,95.6-3.8,122.2c1,2,2.1,3.9,3.1,5.8
	c2.1,3.9,4.8,8.8,7.5,13.9c8.6,15.6,20.4,37.1,24.4,49.4c15.4,47.3-7.6,69.6-26.1,87.6l-1.1,1c-24.3,23.7-73.5,28.3-100.6,25.6
	c-19.7-1.9-44.5-5.2-68.6-8.4c-4.3-0.6-8.5-1.1-12.7-1.6c-12.9-1.7-23.6-3.2-32.1-4.4c-24.2-3.4-36.2-5.1-53.5-4.1
	c-35,2.1-61.7,16.5-79.4,42.6c-28.4,42.1-24,103.2-14.5,131.8c11.5,34.5,33.6,60.5,65.5,77.3c30.9,16.3,61.7,19,77.4,19.2
	c62.7,0.8,171.3,0.3,258.5-0.1c28.2-0.1,53.7-0.2,74.3-0.3c57.6-0.1,146.8,0.7,232.9,1.4c68.6,0.6,133.4,1.1,179.7,1.2l24.3,0.1
	c17,0,32.1,0.1,45.5,0.1c64.5,0,92.1-0.9,133.6-5.9c34.9-4.3,66.3-19.1,93.1-44c17.7-16.5,33.4-37.2,48-63.5
	c13.4-24.1,29.8-67.6,40.6-96.5c1.9-5,3.6-9.7,5.2-13.8c21.7-56.9,58.3-162.3,73-213C1652.5,480.9,1635.8,431.8,1587,390.2z"/>
</svg>
