<?xml version="1.0" encoding="utf-8"?>
<!-- Generator: Adobe Illustrator 27.0.1, SVG Export Plug-In . SVG Version: 6.00 Build 0)  -->
<svg version="1.1" id="Lime_Rock_Grand_Prix_-_Config"
	 xmlns="http://www.w3.org/2000/svg" xmlns:xlink="http://www.w3.org/1999/xlink" x="0px" y="0px" viewBox="0 0 1920 1080"
	 style="enable-background:new 0 0 1920 1080;" xml:space="preserve">
<style type="text/css">
	.st0{fill:none;stroke:#FFFFFF;stroke-width:30;stroke-miterlimit:10;}
</style>
<path class="st0" d="M1586.2,382.4c-6.3-5.9-105.9-99.4-146.4-123.8l0,0c-12.1-7.2-31.9-13.9-51.1-20.2c-13.4-4.5-25.9-8.6-34-12.4
	l-3.6-1.7c-10.5-4.9-23.7-11.1-30.7-15.7l-0.7-0.5c-14.6-9.7-45-29.9-55.4-43c-14-17.9-32.3-23.6-54.4-17.2
	c-30.5,8.8-37.3-12.9-37.6-13.9c-2.3-7.7-7.4-13.2-14.8-16c-17.1-6.4-39.9,4.5-43.7,6.8c-17.2,10.8-51.7,30.3-72.3,42l-6.7,3.8
	c-59.1,33.4-107.3,55-152.1,67.9c-7.5,2.2-19.8,4.8-31.6,7.5c-9.3,2-18,3.9-24.2,5.5c-41.2,10.7-68.1,36.1-87.7,54.6
	c-2.5,2.4-4.8,4.6-7.1,6.6c-23,21.2-68.2,66-89.6,91.6c-42.4,50.9-18.2,95.4-3.8,122c1,2,2.1,3.9,3.1,5.8c2.1,3.9,4.7,8.7,7.5,13.9
	c8.5,15.6,20.3,37,24.3,49.2c15.4,47.2-7.6,69.5-26,87.5l-1.1,1c-24.2,23.6-73.4,28.2-100.5,25.5c-19.7-1.9-44.4-5.2-68.5-8.4
	c-4.3-0.6-8.5-1.1-12.6-1.6c-12.9-1.7-23.6-3.2-32-4.4c-24.1-3.4-36.2-5.1-53.4-4.1c-35,2.1-61.6,16.4-79.3,42.5
	c-28.4,42.1-23.9,103-14.4,131.6c11.5,34.5,33.5,60.4,65.4,77.2c30.9,16.2,61.6,19,77.3,19.2c62.9,0.7,171.6,0.3,259-0.1
	c27.7-0.1,53-0.2,73.3-0.3c57.3-0.1,145.7,0.7,231.3,1.4c69,0.6,134.1,1.1,180.7,1.2l24.2,0.1c17,0,32,0.1,45.4,0.1
	c64.4,0,91.9-0.9,133.3-5.9c35-4.3,66.2-19.1,93-44c17.7-16.4,33.3-37.1,48-63.4c13.6-24.5,30.1-68.6,41.1-97.7
	c1.7-4.6,3.2-8.7,4.7-12.4c22.2-58.4,58.1-161.7,72.8-212.6C1651.4,473,1634.8,424,1586.2,382.4z"/>
</svg>
