<?xml version="1.0" encoding="utf-8"?>
<!-- Generator: Adobe Illustrator 27.0.1, SVG Export Plug-In . SVG Version: 6.00 Build 0)  -->
<svg version="1.1" id="Lime_Rock_Chicanes_-_Config"
	 xmlns="http://www.w3.org/2000/svg" xmlns:xlink="http://www.w3.org/1999/xlink" x="0px" y="0px" viewBox="0 0 1920 1080"
	 style="enable-background:new 0 0 1920 1080;" xml:space="preserve">
<style type="text/css">
	.track-surface{fill:none;stroke:#FFFFFF;stroke-width:30;stroke-miterlimit:10;}
</style>
<path class="track-surface" d="M1626.7,501.4c-1.4-21.2-10.1-29.7-16.5-35.9c-0.5-0.5-1-1-1.5-1.4c-4.4-4.4-9.9-10-15.7-15.9
	c-19-19.3-42.6-43.4-57.9-56.3c-10.6-9-23.5-20.6-37.2-33c-34.6-31.1-73.9-66.5-101.7-83.7l0,0c-14.7-9.1-42.3-20.4-64.6-29.5
	c-7.1-2.9-13.9-5.7-19.1-7.9c-31-13.4-64.6-37.6-79.4-53.1c-20.5-21.8-33.7-21.7-47.6-19.3l-18.3,3.1c-12.7,2.1-20-1.6-21.5-4.5
	l-0.1-0.1c-3.3-5.8-7-11.6-10.8-17l-0.1-0.2c-15-19.7-43.4-7.8-57.9,2.4c-18.3,12.9-47.6,30.5-65.8,40.6
	c-59.7,33-104.3,53-144.5,64.6c-7.1,2.1-18.9,4.6-30.1,7.1c-8.8,1.9-17.2,3.7-23,5.2c-39.2,10.2-64.7,34.3-83.3,51.9
	c-2.3,2.3-4.6,4.3-6.8,6.3c-21.8,20.1-64.8,62.7-85.1,87.1c-40.3,48.4-17.3,90.7-3.6,116c1,1.9,2,3.7,3,5.5c2,3.7,4.5,8.3,7.1,13.2
	c8.1,14.8,19.3,35.2,23.1,46.8c14.6,44.9-7.2,66.1-24.7,83.2l-1.1,1c-23,22.5-69.8,26.8-95.5,24.3c-18.7-1.8-42.3-5-65.1-7.9
	c-4.1-0.5-8-1.1-12-1.5c-12.3-1.6-22.4-3.1-30.4-4.2c-22.9-3.3-34.4-4.9-50.7-3.9c-33.2,2-58.6,15.6-75.4,40.4
	c-27,40-22.8,98-13.7,125.1c10.9,32.8,31.9,57.4,62.2,73.4c29.3,15.4,58.6,18.1,73.5,18.2c59.8,0.6,163.1,0.3,246.2-0.1
	c26.4-0.1,50.4-0.2,69.7-0.3c54.4-0.1,138.5,0.6,219.8,1.4c65.5,0.5,127.5,1.1,171.8,1.2l23,0.1c16.2,0,30.4,0.1,43.2,0.1
	c61.2,0,87.4-0.8,126.8-5.6c33.2-4.1,62.9-18.1,88.4-41.8c16.8-15.6,31.7-35.3,45.6-60.3c14.7-26.5,35.1-78.5,44.4-104.9
	c6.7-18.9,15.4-42.4,23.9-65.2c10.3-27.6,20-53.7,26.1-71.7c5.1-14.9,20.1-17.5,28.6-17.7c30-0.7,33-25.6,33.9-33.7
	c0.1-0.9,0.2-1.8,0.3-2.3C1628.3,531.3,1627.7,516.2,1626.7,501.4z"/>
</svg>
