<?xml version="1.0" encoding="utf-8"?>
<!-- Generator: Adobe Illustrator 27.0.1, SVG Export Plug-In . SVG Version: 6.00 Build 0)  -->
<svg version="1.1" id="Lime_Rock_West_Bend_Chicane_-_Config"
	 xmlns="http://www.w3.org/2000/svg" xmlns:xlink="http://www.w3.org/1999/xlink" x="0px" y="0px" viewBox="0 0 1920 1080"
	 style="enable-background:new 0 0 1920 1080;" xml:space="preserve">
<style type="text/css">
	.track-surface{fill:none;stroke:#FFFFFF;stroke-width:30;stroke-miterlimit:10;}
</style>
<path class="track-surface" d="M1631.7,508.1c-1.4-21.4-10.2-29.9-16.6-36.2c-0.5-0.5-1-1-1.5-1.5c-4.5-4.5-10-10.1-15.8-16
	c-19.1-19.5-42.9-43.8-58.3-56.8c-9.6-8.2-21.5-18.2-34-28.8c-35.5-30-79.7-67.3-104.6-89.6l-0.2-0.1c-4-3.5-99.2-84.8-128.9-106
	c-1.5-1.1-38-27.1-55.2-35.4c-58.9-28.3-111,1.6-130.5,12.9c-7.5,4.4-17.5,10.2-28,16.4c-17.1,10.1-34.7,20.5-46.3,26.8
	c-60.2,33.4-105.1,53.5-145.6,65.2c-7.2,2.1-19,4.6-30.3,7.2c-8.9,1.9-17.3,3.7-23.2,5.3c-39.5,10.3-65.2,34.6-84,52.3
	c-2.4,2.3-4.6,4.4-6.8,6.4c-22,20.3-65.3,63.2-85.8,87.8c-40.6,48.8-17.5,91.4-3.6,116.9c1,1.9,2,3.7,3,5.5c2,3.7,4.5,8.4,7.2,13.3
	c8.2,14.9,19.5,35.5,23.3,47.1c14.7,45.2-7.3,66.6-24.9,83.8l-1.1,1c-23.2,22.6-70.3,27-96.2,24.5c-18.8-1.8-42.6-5-65.6-8
	c-4.1-0.5-8.1-1.1-12.1-1.5c-12.4-1.6-22.6-3.1-30.7-4.2c-23.1-3.3-34.7-4.9-51.1-3.9c-33.5,2-59,15.7-76,40.7
	c-27.2,40.3-22.9,98.7-13.8,126.1c11,33,32.1,57.9,62.7,74c29.6,15.6,59,18.2,74,18.4c60.2,0.6,164.4,0.3,248-0.1
	c26.6-0.1,50.8-0.2,70.2-0.3c54.8-0.1,139.5,0.6,221.5,1.4c66,0.5,128.4,1.1,173.1,1.2l23.2,0.1c16.3,0,30.7,0.1,43.5,0.1
	c61.7,0,88-0.8,127.7-5.6c33.5-4.1,63.4-18.3,89-42.1c16.9-15.7,31.9-35.6,45.9-60.8c14.8-26.7,35.4-79,44.8-105.7
	c6.6-18.8,15.4-42.3,23.7-64.9c10.5-28.2,20.3-54.8,26.6-72.9c5.1-15,20.3-17.6,28.8-17.8c30.2-0.7,33.2-25.7,34.1-33.9
	c0.1-0.9,0.2-1.8,0.3-2.3C1633.3,538.2,1632.6,523,1631.7,508.1z"/>
</svg>
