<?xml version="1.0" encoding="utf-8"?>
<!-- Generator: Adobe Illustrator 27.0.0, SVG Export Plug-In . SVG Version: 6.00 Build 0)  -->
<svg version="1.1" id="Layer_1" xmlns="http://www.w3.org/2000/svg" xmlns:xlink="http://www.w3.org/1999/xlink" x="0px" y="0px"
	 viewBox="0 0 1920 1080" style="enable-background:new 0 0 1920 1080;" xml:space="preserve">
<style type="text/css">
	.st0{fill:none;stroke:#231F20;stroke-width:20;stroke-miterlimit:10;}
</style>
<path class="st0" d="M1691.8,479.5c-3-57.7-18-110.5-44.6-156.8c-23.3-40.6-55.4-76-95.4-105.4c-34.6-25.4-74-45.5-117-59.8
	c-37.5-12.4-75.8-19.6-110.8-20.7c-110.3-3.6-292.3-3.8-452.9-4c-83.6-0.1-162.6-0.2-220.7-0.8c-55.4-0.6-162.2,6.8-255.7,62.1
	c-47.3,28.2-85.3,65.1-112.8,110.2c-31.9,52.1-50.1,115.5-54.3,188.5l0,0c-0.7,12.2-2.3,77,32.5,152.4
	c17.7,38.3,42.1,73.2,72.4,103.6c36.4,36.6,81.8,67,134.8,90.5c53.6,23.7,159.8,60.7,239.5,87.6c49,16.5,58.3,17,71.2,17.6l2.3,0.1
	c43.2,2.3,107.9,3.3,172.2,3.3c63.2,0,126.2-0.8,168.2-2.2c39.6-1.1,57.4-3.4,76.1-9.7c63.8-21.3,177.8-60.2,224.5-81.4
	c57.4-26.1,106.3-55.8,145-88c35.2-29.2,63.3-61.5,83.4-95.9C1682.4,615.4,1695.7,554.6,1691.8,479.5z"/>
</svg>
