<?xml version="1.0" encoding="utf-8"?>
<!-- Generator: Adobe Illustrator 27.0.1, SVG Export Plug-In . SVG Version: 6.00 Build 0)  -->
<svg version="1.1" id="lankebanen_Club__Config" xmlns="http://www.w3.org/2000/svg" xmlns:xlink="http://www.w3.org/1999/xlink"
	 x="0px" y="0px" viewBox="0 0 1920 1080" style="enable-background:new 0 0 1920 1080;" xml:space="preserve">
<style type="text/css">
	.st0{fill:none;stroke:#FFFFFF;stroke-width:30;stroke-miterlimit:10;}
</style>
<path class="st0" d="M1437.5,709.3c-6.9-31.4-23.6-53.6-49.7-66c-16.9-8-37.5-11.6-61.2-10.8h-0.4l-110.6,12.7h-0.2
	c-34.3,4.6-64-4.5-88-27c-17.1-16.1-26.3-34.7-28-39.1l-0.2-0.4c-33.7-88.6-96.4-199.6-97-200.7l-0.1-0.1
	C957.2,301.4,910,244,861.7,207.4c-25.8-19.5-53.9-30.9-81.5-32.8c-24.3-1.7-46.9,4-63.6,16.1c-24.5,17.7-39.4,46-43.2,82
	c-3.6,34.3,3.7,64.9,6,73.4c6.9,25.3,20.3,70.8,32.4,91.8c18.3,31.7,42,54.2,70.5,67c38.3,17.1,76,26.7,103.5,33.6
	c4.5,1.1,8.7,2.2,12.6,3.2c16.4,4.3,31.8,13.3,43.3,25.4c10.3,10.7,16.2,23,16,32.8c-0.8,34.5-30.9,45.6-60.2,52
	c-0.7,0.1-75.1,14.5-348.7-5.5c-14.7-1.1-50.3-1.1-63.7,21.5c-9.4,15.8-5.1,37.8,12.7,65.4c29.2,45.4,69.7,87.5,120.2,125.1
	c39.2,29.2,84.2,44.2,137.7,46c21.7,0.7,40.8,1.2,61.5,1.2c25.6,0,53.8-0.7,92.7-2.4c28.6-1.2,48.6-19.8,48.6-45
	c0.1-35.9,5.9-58,16.7-63.8c14.5-7.8,29.4-6.2,45.7,5c4.3,3,9.1,6.5,14.2,10.2c16.8,12.4,37.8,27.7,67.1,41.4l0.7,0.3l0.7,0.2
	c27.1,8.1,43.6,4.4,62.7,0.2c2.5-0.6,5.1-1.1,7.8-1.7l18.3-3.9c98.6-20.7,131.8-27.7,179.8-38.9c37.3-8.7,53.4-28.9,60.4-44.4
	C1442.5,741.5,1439.9,720.2,1437.5,709.3z"/>
</svg>
