<?xml version="1.0" encoding="utf-8"?>
<!-- Generator: Adobe Illustrator 27.0.1, SVG Export Plug-In . SVG Version: 6.00 Build 0)  -->
<svg version="1.1" id="lankebanen_Short__Config" xmlns="http://www.w3.org/2000/svg" xmlns:xlink="http://www.w3.org/1999/xlink"
	 x="0px" y="0px" viewBox="0 0 1920 1080" style="enable-background:new 0 0 1920 1080;" xml:space="preserve">
<style type="text/css">
	.st0{fill:none;stroke:#FFFFFF;stroke-width:30;stroke-miterlimit:10;}
</style>
<path class="st0" d="M1432,748.4c-6.9-31.5-23.7-53.5-49.9-65.5c-17.2-7.9-37.9-11-61.4-9.3c-14.9,1.1-36.9,3.2-58.3,5.3
	c-17.9,1.7-36.3,3.5-50.8,4.7c-82.9,7-99-27.5-130.9-96.3l-7.7-16.6c-43.7-93.8-61.8-132.7-89.1-175.3
	c-33.1-51.5-66.8-84.1-99.4-115.6c-7.9-7.6-16.1-15.5-24.1-23.6c-19.5-19.4-58.3-54.3-84.6-76.9c-68.3-58.6-115.8-48.5-143.6-29.8
	c-27.5,18.5-46.1,64.1-21.9,120.5c18.8,43.8,65.7,151.5,96.3,206.7c17.4,31.4,41.1,54,70.6,67.1c38.5,17.2,76.4,26.8,104,33.8
	c4.3,1.1,8.2,2.1,11.9,3.1c41.4,10.8,59.8,37.7,59.3,58.2c-0.9,37.6-37.6,48-59.5,50.8c-90.4,11.9-140.4,8.9-288.5,0.2
	c-18.2-1.1-37.8-2.2-59.2-3.4c-10.5-0.6-40.5,2.2-53.5,22.4c-8.8,13.6-7.8,31,3,51.7c2.9,6.7,34.3,73,162.1,156.4
	c26.2,17.1,71.4,27.7,117.8,27.7c14.6,0,31.5,0.1,49.5,0.2c17.6,0.1,35.5,0.2,52.2,0.2c10.3,0,20.1,0,29-0.1h2.1
	c4.7,0,9.8-0.1,15.3-0.1c22.8-0.1,51.2-0.3,70.8-1.3c18.3-1,36.3-4.7,53.4-11.1c9.9-3.5,23-8.3,36.8-13.4
	c30.4-11.1,64.9-23.8,86.2-30.5c67-21.2,108.6-27.5,145.3-33.2c17.8-2.7,34.6-5.3,51.9-9.3c37.3-8.7,53.4-28.9,60.4-44.4
	C1437,780.6,1434.4,759.2,1432,748.4z"/>
</svg>
