<?xml version="1.0" encoding="utf-8"?>
<!-- Generator: Adobe Illustrator 27.0.1, SVG Export Plug-In . SVG Version: 6.00 Build 0)  -->
<svg version="1.1" id="lankebanen_Road_Short__Config"
	 xmlns="http://www.w3.org/2000/svg" xmlns:xlink="http://www.w3.org/1999/xlink" x="0px" y="0px" viewBox="0 0 1920 1080"
	 style="enable-background:new 0 0 1920 1080;" xml:space="preserve">
<style type="text/css">
	.st0{fill:none;stroke:#FFFFFF;stroke-width:30;stroke-miterlimit:10;}
</style>
<path class="st0" d="M1401.1,767.8c-8-36.3-27.3-62-57.5-76.3c-19.5-9.3-43.3-13.4-70.8-12.5c-14,0.5-48.5,1.5-64.9-0.1
	c-45.8-4.6-81-31-104.5-78.2c-9.1-18.3-21.5-44.5-33.5-69.8c-13.2-27.9-26.8-56.8-36.4-75.5c-23.5-46.1-45.9-72.4-66.7-93.9
	c-97.7-101.2-154-139-208.6-175.5c-5.1-3.5-10.2-6.8-15.3-10.3c-30.6-20.7-65.1-31.2-99.7-30.5c-28.6,0.6-56.1,9-75.6,23.2
	c-28.3,20.5-45.6,53.2-50,94.8c-4.2,39.7,4.3,74.9,6.9,84.9c8,29.3,23.5,81.9,37.5,106.2c21.2,36.7,48.6,62.7,81.5,77.5
	c48.9,21.9,95.1,33.1,128.7,41.3l5.7,1.4c28,6.8,55.9,18.7,70.1,59.6c8.9,25.4,10.5,47-8,81.2l-1.2,2.1c-12.5,23.2-35.8,66.6-67,81
	c-9.8,4.5-22.3,11.1-31.8,21.5c-12.6,13.8-16.5,30.8-11.2,49.1c9.3,32.5,34.6,47.2,69.5,40.4c20.5-4,31.7-14.5,52.2-33.3
	c6.4-5.8,29-23.8,56.6-10.1c5.4,2.8,22.2,11.1,63.6,40.2c27.5,19.3,56.4,29,86.4,29c13.2,0,26.6-1.9,40.1-5.7l0,0
	c66-18.3,117.8-28.3,163.6-37.1c23-4.4,44.8-8.7,64.8-13.3c34.6-8.1,58.1-24.9,69.8-50.1C1406.8,804.8,1403.8,780.3,1401.1,767.8z"
	/>
</svg>
