<?xml version="1.0" encoding="utf-8"?>
<!-- Generator: Adobe Illustrator 27.0.1, SVG Export Plug-In . SVG Version: 6.00 Build 0)  -->
<svg version="1.1" id="Homestead_Indy_Pits__Config"
	 xmlns="http://www.w3.org/2000/svg" xmlns:xlink="http://www.w3.org/1999/xlink" x="0px" y="0px" viewBox="0 0 1920 1080"
	 style="enable-background:new 0 0 1920 1080;" xml:space="preserve">
<style type="text/css">
	.st0{fill:none;stroke:#FFFFFF;stroke-width:30;stroke-miterlimit:10;}
</style>
<path class="st0" d="M1280.8,903c-5,0-10,0-14.9-0.1c-134.9-2.3-232.8-2.7-311.3-3.1c-137.1-0.6-227.7-1.1-381.9-10.3
	c-81.1-4.9-152.5-21.8-212.3-50.5c-52.7-25.2-96.5-59.4-130.2-101.7c-69.1-86.7-82.1-189-71.1-255.8c9.6-58.4,33.1-109.9,69.7-153
	c32-37.6,74.2-69,125.5-93.4c43.7-20.8,93.5-36.3,148.1-46.2c45.3-8.2,93.5-12.4,139.4-11.9c61.4,0.5,143.3,0.6,230.3,0.7
	c124.9,0.2,254.2,0.3,353.8,1.7l6.4,0.1c43.5,0.5,124.4,1.5,208.9,18.6c103.8,20.9,183.9,60,238.3,116.1
	c58.6,60.6,87.3,141.3,85.2,240c-1.1,50.9-13.7,98.9-37.7,142.4c-23.7,43-57.7,80.6-101.3,111.7c-43.9,31.4-96.6,55.5-156.2,71.6
	C1411.5,895.1,1348.2,903,1280.8,903z"/>
</svg>
