<?xml version="1.0" encoding="utf-8"?>
<!-- Generator: Adobe Illustrator 27.0.1, SVG Export Plug-In . SVG Version: 6.00 Build 0)  -->
<svg version="1.1" id="lankebanen_Road_Long__Config"
	 xmlns="http://www.w3.org/2000/svg" xmlns:xlink="http://www.w3.org/1999/xlink" x="0px" y="0px" viewBox="0 0 1920 1080"
	 style="enable-background:new 0 0 1920 1080;" xml:space="preserve">
<style type="text/css">
	.track-surface{fill:none;stroke:#FFFFFF;stroke-width:30;stroke-miterlimit:10;}
</style>
<path class="track-surface" d="M1363.6,711.8c-6.9-31.4-23.6-53.6-49.7-66c-16.9-8-37.5-11.6-61.2-10.8c-12.1,0.4-41.9,1.3-56.1-0.1
	c-39.6-4-70-26.8-90.4-67.6c-7.9-15.8-18.6-38.5-29-60.4c-11.4-24.1-23.2-49.1-31.5-65.3c-20.3-39.8-39.7-62.6-57.7-81.2
	C903.6,273,854.8,240.2,807.7,208.6c-4.4-3-8.9-6-13.4-9c-26.5-17.9-56.3-27.1-86.2-26.4c-24.7,0.5-48.5,7.8-65.4,20.1
	c-24.5,17.7-39.4,46-43.2,82c-3.6,34.3,3.7,64.9,6,73.4c6.9,25.3,20.3,70.8,32.4,91.8l0,0c18.3,31.7,42,54.3,70.6,67
	c38.3,17.1,76,26.7,103.5,33.6c4.5,1.1,8.7,2.2,12.6,3.2c16.4,4.3,31.8,13.3,43.3,25.4c10.3,10.7,16.2,23,16,32.8
	c-0.8,34.5-30.9,45.6-60.3,52c-92.8,20.1-126.7,28.4-162.6,37.2c-9.8,2.4-20,4.9-31.4,7.7c-28.4,6.8-50.3,23.4-63.1,47.9
	c-15.8,30-14.5,65.2-6.3,86.7c24.4,63.5,93.4,71.4,121.9,71.9c40.4,0.7,89.5,1,136.1,1c33.7,0,66.1-0.1,93-0.4
	c34.8-0.3,60-9.4,78.4-16l3.1-1.1c36.7-13.2,84.5-29.9,108.5-37.2C1163,833.6,1206,826.3,1244,820c19-3.2,36.9-6.2,54.5-10.3
	c37.3-8.7,53.4-28.9,60.4-44.4C1368.6,744,1366,722.7,1363.6,711.8z"/>
</svg>
