<?xml version="1.0" encoding="utf-8"?>
<!-- Generator: Adobe Illustrator 27.0.1, SVG Export Plug-In . SVG Version: 6.00 Build 0)  -->
<svg version="1.1" id="Dual_pit_road_Config" xmlns="http://www.w3.org/2000/svg" xmlns:xlink="http://www.w3.org/1999/xlink"
	 x="0px" y="0px" viewBox="0 0 1920 1080" style="enable-background:new 0 0 1920 1080;" xml:space="preserve">
<style type="text/css">
	.track-surface{fill:none;stroke:#FFFFFF;stroke-width:30;stroke-miterlimit:10;}
</style>
<path class="track-surface" d="M624.8,193.4c-48.8,0-123.7,17.9-196,68.7c-55.2,38.8-124.7,108.7-142.5,222.1c-8.8,56.1-2.2,144.2,43,223.3
	c35.3,61.9,107.7,140.4,252.3,163.1c120,18.9,253.8,17.1,439.1,14.6c69.8-0.9,148.9-2,236.3-2h0.3c8.2,0,200.6-1.8,291.3-104.7
	c61.1-69.3,123.7-171.6,64.7-348.9c-13.3-39.9-45.3-82.7-87.8-117.5c-34.6-28.3-92.1-64.3-169.9-75
	c-165.5-22.8-457.6-33.7-650.9-40.9c-26-1-50.4-1.9-72.6-2.7C629.8,193.4,627.3,193.3,624.8,193.4L624.8,193.4z"/>
</svg>
