<?xml version="1.0" encoding="UTF-8"?><svg xmlns="http://www.w3.org/2000/svg" xmlns:xlink="http://www.w3.org/1999/xlink" contentScriptType="text/ecmascript" zoomAndPan="magnify" contentStyleType="text/css" viewBox="0 0 1920 1080" id="North_Wilkesboro_-_Config" data-name="North Wilkesboro - Config" preserveAspectRatio="xMidYMid meet" version="1.0">
  <defs/>
  <title>active</title>
  <path class="track-surface" d="M 1636.07 391.05 C 1612.13 342.15997 1578.07 298.97998 1534.73 262.71997 C 1516.52 247.46997 1490.79 227.71997 1453.08 209.94997 C 1412.3217 190.85323 1368.5399 179.02536 1323.71 175.0 C 1262.4199 169.32 1180.5399 162.93 1137.94 164.67 C 1120.6499 164.67 920.00995 165.59 909.51996 165.67 C 898.99994 165.56 698.99994 164.09 537.36 195.67 C 506.5985 201.6158 476.51834 210.66196 447.58 222.67 C 412.09 237.5 381.65 255.59 354.52 277.98 C 318.69 307.55002 289.25998 344.56 267.06 387.98 L 266.59 388.98 C 213.08 509.63 220.73 581.73 253.59 672.49 C 254.83 676.07 267.49 711.36 299.11 754.49 C 342.36465 813.2912 400.7234 859.2933 468.0 887.62 L 468.28 887.73 C 471.23 888.92 474.42 890.32 478.12 891.94 C 505.36 903.87 550.93 923.82 650.69 926.71 C 692.28 929.23004 1103.69 934.03 1121.23 934.24005 L 1121.71 934.24005 L 1122.19 934.24005 C 1127.1299 934.06006 1243.6699 929.68005 1303.19 915.57007 L 1303.5199 915.49005 C 1307.8899 914.38007 1313.0499 913.15 1319.0199 911.72003 C 1349.2098 904.50006 1399.7499 892.42004 1451.1099 869.94006 C 1514.1099 842.38007 1562.8599 805.94006 1596.1099 761.73004 L 1596.6798 760.93005 C 1597.6798 759.49005 1599.0698 757.54004 1600.6798 755.29004 C 1619.4098 729.43005 1669.1698 660.74005 1670.3699 528.79004 L 1670.3699 528.61005 C 1670.35 483.76 1658.82 437.49 1636.07 391.05 z"/>
  <style type="text/css">.track-surface{fill:none;stroke:#FFFFFF;stroke-width:30;stroke-miterlimit:10;}</style>
</svg>
