<?xml version="1.0" encoding="utf-8"?>
<!-- Generator: Adobe Illustrator 27.0.0, SVG Export Plug-In . SVG Version: 6.00 Build 0)  -->
<svg version="1.1" id="Layer_1" xmlns="http://www.w3.org/2000/svg" xmlns:xlink="http://www.w3.org/1999/xlink" x="0px" y="0px"
	 viewBox="0 0 1920 1080" style="enable-background:new 0 0 1920 1080;" xml:space="preserve">
<style type="text/css">
	.track-surface{fill:none;stroke:#231F20;stroke-width:20;stroke-miterlimit:10;}
</style>
<path class="track-surface" d="M1767.9,414.1c-8.1-40.4-31.5-118-97.6-183.3c-31-30.7-67.8-54.8-109.4-71.6c-47.1-19-100.9-28.9-159.8-29.2
	c-126.1-0.7-336.1,4.2-521.3,8.4c-109.8,2.5-213.5,4.9-287.5,5.9c-108.6,1.5-200.2,21.4-272.2,59.4c-51.2,27-92,63.4-120.8,107.8
	c-33.8,51.9-52,115.8-54.3,189.8c-2,65.3,12.2,121.1,43.4,170.8c19.3,30.7,45.4,59.1,77.6,84.3c35.6,27.9,79.8,52.9,131.3,74.3
	c139.2,57.7,200.4,76,259.7,93.8c11,3.3,22.4,6.7,34,10.2c24.4,7.5,54.9,15.2,96.2,15.2c0.6,0,1.2,0,1.8,0
	c13.4-0.1,28.5-0.1,44.8-0.2c94.1-0.4,223-0.9,293.1-4.1c2.8-0.1,5.9-0.3,9.1-0.4c36.3-1.5,91.2-3.6,124.3-25.8
	c14.9-10,23.4-27.9,25.2-53.3c3-44.4,9.5-136.7,9.2-184.3c-0.3-35.4-14.7-70.6-40.8-99.1c-32.1-35.2-79.4-58.7-140.4-69.6
	c-9.6-1.8-21.4-3.7-33.9-5.9c-35.5-6.1-79.7-13.5-111.4-21.2c-41.7-10.1-67.5-22.9-76.6-115.5c-1.7-17.3-1.3-52.2-1.1-66.5
	c0.8-45,22.6-68,65.1-68.6l18.9-0.3c114.1-1.5,305.1-4,417.3-3.2c1.3,0,2.4,0,3.8,0c16.8,0,35.8,0,58.1,21.6
	c31.9,30.8,64.9,88,79.1,112.5c4.2,7.2,17.1,32.8,8.7,60c-5.9,18.9-20.9,34.5-44.7,46c-20.6,10-62.6,24.1-84.1,30.7
	c-18.3,5.6-44.2,16.7-64.4,38.6c-24,25.9-34.1,59.8-30,101c3.9,38.8,33.4,63.3,55.3,78.2c4.8,3.3,10.5,7.2,16.8,11.5
	c25.5,17.5,60.4,41.3,79.3,55.2c13.6,10,41.4,25.1,75.1,15.1l0.9-0.3c2.8-1.2,70.1-28.8,131.6-90.4c36.3-36.3,63-76.9,79.2-120.7
	C1776.6,536.6,1780.5,477,1767.9,414.1z"/>
</svg>
