<?xml version="1.0" encoding="utf-8"?>
<!-- Generator: Adobe Illustrator 27.0.0, SVG Export Plug-In . SVG Version: 6.00 Build 0)  -->
<svg version="1.1" id="Layer_1" xmlns="http://www.w3.org/2000/svg" xmlns:xlink="http://www.w3.org/1999/xlink" x="0px" y="0px"
	 viewBox="0 0 1920 1080" style="enable-background:new 0 0 1920 1080;" xml:space="preserve">
<style type="text/css">
	svg {height: 100%;width: 100%;}.track-surface {fill: none;stroke: white;stroke-width: 30;}
</style>
<path class="track-surface" d="M997.1,918c-140.2,0-283.2-1.7-377.2-6.5c-75.2-3.9-150-36.3-205.2-89.1c-30.5-29-54.1-63.2-70.2-101.5
	c-17.6-41.5-25.8-87-24.5-135c1.5-54,14.6-105.4,39.4-152.7c21.2-40.5,50.9-78,88-111.4c80-72,169.5-103.5,204.4-113.7
	c102.4-30.2,239-46.9,374.5-46.1c142.4,0.8,262.9,20.6,339.2,55.6l0,0c85.1,39,148.1,101.8,187.3,186.6
	c31.3,67.7,39.3,131.9,43.5,166.3c13.1,104.5-7.2,188.4-60.1,249.4c-29.3,33.8-67.6,59.2-114,75.6c-44.2,15.6-86,19.5-113.2,20
	C1226.3,916.9,1112.7,918,997.1,918z"/>
</svg>
