<?xml version="1.0" encoding="utf-8"?>
<!-- Generator: Adobe Illustrator 27.0.1, SVG Export Plug-In . SVG Version: 6.00 Build 0)  -->
<svg version="1.1" id="Oval__Config" xmlns="http://www.w3.org/2000/svg" xmlns:xlink="http://www.w3.org/1999/xlink" x="0px"
	 y="0px" viewBox="0 0 1920 1080" style="enable-background:new 0 0 1920 1080;" xml:space="preserve">
<style type="text/css">
	.st0{fill:none;stroke:#FFFFFF;stroke-width:30;stroke-miterlimit:10;}
</style>
<path class="st0" d="M1101.7,877.6c-145,0-297.6-2.9-447.2-5.7c-33.1-0.6-65.8-1.2-97.9-1.8c-35.1-0.6-125.3-8.1-204.5-63.9
	c-38.1-26.8-68.6-61.4-90.5-102.6c-25.3-47.7-39.4-104.8-41.9-169.8c-2.9-76.8,29.6-159.5,87-221.1c28.1-30.2,60.9-54.3,97.4-71.6
	c39.6-18.8,82.5-29,127.7-30.6c324.2-10.8,531.7-10.7,853.9,0.3c44,1.5,85.7,10.8,124,27.5c37.1,16.2,70.1,39.1,98.1,68
	c27.8,28.6,49.9,62.4,65.6,100.3c16,38.5,25.1,80.3,26.9,124.2c2.7,65.1-19.5,161.9-90.2,238.5c-28,30.4-61.2,54.6-98.5,71.9
	c-41.4,19.2-87.9,29.9-138.2,31.9C1288.1,876.4,1196.5,877.6,1101.7,877.6z"/>
</svg>
