<?xml version="1.0" encoding="utf-8"?>
<!-- Generator: Adobe Illustrator 27.0.0, SVG Export Plug-In . SVG Version: 6.00 Build 0)  -->
<svg version="1.1" id="Layer_1" xmlns="http://www.w3.org/2000/svg" xmlns:xlink="http://www.w3.org/1999/xlink" x="0px" y="0px"
	 viewBox="0 0 1920 1080" style="enable-background:new 0 0 1920 1080;" xml:space="preserve">
<style type="text/css">
	.st0{fill:none;stroke:#231F20;stroke-width:20;stroke-miterlimit:10;}
</style>
<path class="st0" d="M1727.3,500.7c-36.7-63.3-113.1-195.4-190.2-269.3c-44.6-42.8-104.8-64.5-174.4-62.4
	c-72.3,2-125.3,9.9-200.1,98c-9.9,11.7-40.3,47.6-71.4,48.5c-14.4,0.5-27.9-6.5-42.1-21c-7.2-7.4-15.8-20.1-24.6-33.1
	c-24.3-36.1-54.5-80.7-102.1-90.4c-36.1-7.4-103-14.6-144.9,20.1c-22.5,18.7-33.6,45.5-33.1,80.2c0.2,16,0.5,37.9,0.7,61.8
	c0.5,52.7,1.1,112.5,2,148.3c1.1,40.3-6.3,68.7-22.1,84.7c-11.3,11.3-27,16.7-48.7,16.5c-36.3-0.5-72.1-7.7-80.7-86.8
	c-4.1-36.7-2.3-102.8-0.9-155.7c0.5-19.2,0.9-37.2,1.1-51.4c0.5-63.3-24.8-104.1-69.4-111.8c-41.7-7.2-156-0.7-171.5,0.2
	c-74.1,1.1-128.2,27.5-161.1,78.2c-21.2,32.7-32.2,74.6-33.1,124.4c-0.7,33.6-1.6,116.3,2.7,158.7c9,93.1,32,163.4,70.1,214.6
	c34.7,46.9,80.9,76.6,141.1,91.3l1.1,0.2c3.8,0.7,95.3,18,131.6,19.4c42.4,1.6,75.9-26.4,79.8-29.5l0.7-0.5
	c59.5-55.4,80-59.5,104.8-59.3c46,0.2,55,19.4,66.5,43.5c7.7,16,16.9,36.1,39.7,42.8c114,34.7,227.6,52.7,337.8,54.1
	c8.1,0,15.8,0.2,23.4,0.2c110.9,0,190.9-9.2,264.1-30.2c51.2-14.6,150.1-50.9,201.3-75.7c66.9-32.5,109.5-77.3,126.7-133.6
	C1776.2,594.7,1739.3,521.2,1727.3,500.7z"/>
</svg>
