<?xml version="1.0" encoding="utf-8"?>
<!-- Generator: Adobe Illustrator 27.0.1, SVG Export Plug-In . SVG Version: 6.00 Build 0)  -->
<svg version="1.1" id="Mini__Config" xmlns="http://www.w3.org/2000/svg" xmlns:xlink="http://www.w3.org/1999/xlink" x="0px"
	 y="0px" viewBox="0 0 1920 1080" style="enable-background:new 0 0 1920 1080;" xml:space="preserve">
<style type="text/css">
	.track-surface{fill:none;stroke:#FFFFFF;stroke-width:30;stroke-miterlimit:10;}
</style>
<path class="track-surface" d="M1053.7,849.4c-172.8,0-358.5-3.6-511.2-6.7c-59.5-1.2-152.7-39-216.4-119.4c-39.6-49.8-81.5-134.1-56.4-252.7
	l0,0c8.5-40.3,28.1-98.3,73.2-147.1c50.4-54.4,119.6-83.7,205.9-87.2c219.7-8.9,585.6-6.9,798.6,0c61.5,2,115.7,15,161,38.6
	c66.8,34.8,112.5,91.6,135.7,168.7c11.7,39.2,16.4,88.2,12.5,134.1c-4.9,58.3-22.7,110.9-51.8,152.3
	c-48.3,69-124.8,106.8-227.4,112.3C1286.3,847.8,1173.2,849.4,1053.7,849.4z"/>
</svg>
