<?xml version="1.0" encoding="utf-8"?>
<!-- Generator: Adobe Illustrator 27.0.1, SVG Export Plug-In . SVG Version: 6.00 Build 0)  -->
<svg version="1.1" id="Daytona_Nascar_Road_-_Config"
	 xmlns="http://www.w3.org/2000/svg" xmlns:xlink="http://www.w3.org/1999/xlink" x="0px" y="0px" viewBox="0 0 1920 1080"
	 style="enable-background:new 0 0 1920 1080;" xml:space="preserve">
<style type="text/css">
	.st0{fill:none;stroke:#FFFFFF;stroke-width:30;stroke-miterlimit:10;}
</style>
<path class="st0" d="M1735.9,322.2c-24.9-52.1-60.2-85.5-79.1-100.8c-94.8-76.8-207.3-77.2-281.7-77.4c-6.2,0-12.1,0-17.7-0.1
	l-34.5-0.4c-132.8-1.4-270.1-2.9-457.9-3.4c-9.6,0-35,0-53.4,21c-12.3,14-20.2,17.4-26.9,18.9c-8.6,2-34.5,4.7-43.9,5.6
	c-23.6,1.5-30.2-5.4-35.4-13.2c-21-31.9-43.2-32.8-59.3-33.4l-2-0.1c-37.3-1.6-149.6-2-150.7-2h-0.3h-0.3
	c-41.6,2.3-81.3,9.4-117.8,21c-31.9,10.1-61.3,23.9-84.8,39.6c-45.1,30.2-79.7,68.8-103,114.9c-20.5,40.6-27.8,78.5-30.2,103.1
	c-5.5,55.1,7.1,117.3,34.5,170.6c16.3,31.8,37.8,60.5,63.8,85.6c29,27.9,63.7,51.3,103.1,69.4l7.1,3.3
	c35.3,16.2,94.4,43.4,127.7,51.7c18.6,4.6,58,11.1,83.4,10.4c13.1-0.4,28,0.4,37.5,15.1c0.8,1.2,1.7,2.6,2.6,4
	c5.9,9.3,13.3,20.9,20.1,26.8c7.8,6.7,31,19.4,34.3,20.8l0,0c74,29.6,184.7,69.1,291.1,69.9c1,0,1.9,0,2.8,0c46,0,102.2-9,162.7-26
	c56-15.8,114.3-37.9,168.7-64c25.3-12.2,47.7-38.9,57-68.1c7-22,5.9-43.2-3.4-59.9c-17.8-32.5-58.7-48.9-121.4-49
	c-12.7,0-23.7,0-48.3-20.4c-14.6-12.2-26.5-17.9-71.1-17.7c-54.3,0.4-131.1-0.6-169.1-4.2c-8.8-0.8-30.7-9.4-30.7-24.7
	c0-5.9,0-21.8,42.2-32.3c30.6-7.6,56.2-9.1,128.4-10.4c64-1.2,153.9-1.2,210.2,1.6c10.1,0.4,62.3,1.7,96.5-22.9
	c3.4-2.4,6.6-4.6,9.6-6.8c29.6-21,49.1-35,124.9-106.8c5.1-4.9,51.1-47.1,80.8-26.2c10.1,7.2,19.1,29.8-0.3,60
	c-38.7,60.4-142.2,143.3-173.1,167.2c-14.2,11-46.1,40.2-36.7,73.5c5.4,19.2,30.2,30.6,58.9,43.8c2.8,1.2,5.5,2.5,8.2,3.8
	c39.8,18.5,73.5,6.6,86,0.5c82.7-39.4,195-109,215.6-258.8C1769.6,433.4,1761.2,375.1,1735.9,322.2z"/>
</svg>
