<?xml version="1.0" encoding="utf-8"?>
<!-- Generator: Adobe Illustrator 27.0.1, SVG Export Plug-In . SVG Version: 6.00 Build 0)  -->
<svg version="1.1" id="Full__Config" xmlns="http://www.w3.org/2000/svg" xmlns:xlink="http://www.w3.org/1999/xlink" x="0px"
	 y="0px" viewBox="0 0 1920 1080" style="enable-background:new 0 0 1920 1080;" xml:space="preserve">
<style type="text/css">
	.track-surface{fill:none;stroke:#FFFFFF;stroke-width:30;stroke-miterlimit:10;}
</style>
<path class="track-surface" d="M1357.4,949.7c-7.7,0-15.7-0.6-24-2c-32.2-5.4-73.8-20.9-110.1-92.6c-22.2-43.9-38.5-135.8-44.5-173.2v-0.3
	c-0.2-1.1-13.9-108-20.6-142.8c-7.1-36.6-36.1-125.3-151.1-161c-50.3-15.6-137-32.8-200.3-45.4c-18.6-3.6-36-7.1-50.3-10.1
	c-27-5.6-52.7-9.8-82.5-14.6c-45.1-7.3-101.3-16.4-184.9-34.5c-1.2-0.3-2.4-0.5-3.6-0.8c-14.2-3-38-8.1-57.6-17.6
	c-32.6-15.7-37.5-36.4-35.9-50.9c2.6-22.2,18.7-32.8,45.4-30l0.6,0.1c0.4,0.1,43.9,7.8,107.5,18.3c57.6,9.5,99.3,16.5,212.8,5.2
	c5.3-0.5,10.6-1.1,16.1-1.5c18.9-1.8,40.2-3.8,73.3-7.7c31.5-3.7,61.2-6.5,132.2-5.7c32.1,0.4,62.6-6.7,93.3-21.4
	c2.6-1.2,5.6-2.8,8.9-4.4c30.6-15.4,81.8-41.1,111.7-15.8c23,19.4,15.3,42.3,0,88c-3.6,10.8-8.7,24.7-14.1,39.5
	c-10.1,27.4-21.4,58.4-26.2,77.7c-6.1,24.8-5.7,56.9,43.9,106.2c12.9,12.8,41.2,35.3,56,46.4c5.5,4.2,13.3,9.5,21.6,15.1
	c10.2,6.9,20.8,14.1,27.8,19.7l0,0c17.6,14.1,29.6,29.9,36.7,48.2c8.5,22.1,9.2,47.5,2.2,75.8c-5.5,22.2-19.6,58.7-31,88.1
	c-4.4,11.2-8.4,21.8-11.4,29.9c-8.7,23.8-14.4,56-4.4,74.6c4.2,7.7,10.9,12.6,20.4,14.9c2.2,0.5,4.6,0.8,7.3,0.8
	c15.2,0,36.7-9.4,46.3-38.4c15.3-46.3,17.7-79.5,12.2-169.3c-2.5-40.5-10.4-79.9-24.9-124c-1.8-5.5-4-12.3-6.4-19.7
	c-5.9-18-13.2-40.4-18.6-56.2c-6.6-19.4-9.3-47.7,3-69c8.8-15.2,23.8-25,44.5-29.1c9.4-1.9,28-3.4,46.5,7
	c18.6,10.5,31.5,29.6,38.2,56.9c5.6,23,15,58.2,24.2,92.2c8.7,32.6,17,63.5,22.3,85c8.9,35.9,14.7,76.8,17.6,125
	c2.6,42.4-1.2,121.4-55.6,173.8C1455.5,916.1,1413.9,949.7,1357.4,949.7z"/>
</svg>
