<?xml version="1.0" encoding="utf-8"?>
<!-- Generator: Adobe Illustrator 27.0.1, SVG Export Plug-In . SVG Version: 6.00 Build 0)  -->
<svg version="1.1" id="Short__Config" xmlns="http://www.w3.org/2000/svg" xmlns:xlink="http://www.w3.org/1999/xlink" x="0px"
	 y="0px" viewBox="0 0 1920 1080" style="enable-background:new 0 0 1920 1080;" xml:space="preserve">
<style type="text/css">
	.track-surface{fill:none;stroke:#FFFFFF;stroke-width:30;stroke-miterlimit:10;}
</style>
<path class="track-surface" d="M1608.8,522.8c0,17-1.4,34.6-4.5,52.7c-11.9,70.7-45.9,162.1-203.4,241.8c-96.5,48.8-298.1,84.6-380.3,97.7
	c-7.2,1.2-15.2,2.5-23.8,4.1c-51,9.2-128.3,23.1-206.9,1.2l0,0c-44.5-12.5-102.4-52.7-123.8-111.5c-13.1-35.9-18.2-94.5,32.4-168.8
	c22.9-33.4,58.2-60.6,99.6-76.4c51-19.3,107.8-21.5,169.4-6.3c48.8,12.1,128.9,43,193.4,68c24.6,9.6,47.9,18.4,65.4,25
	c52.4,19.1,123.1,31.6,163.9,9.8c17-9.2,27.7-23.8,32.8-44.7c7.8-32.2-7.8-92.8-82.6-117.6c-101.8-33.6-174.6-38.9-371.7-26.8
	c-88.9,5.5-175.4,22.9-272.3,54.7c-12.1,3.9-26.8,8.8-43,14.1c-39.7,12.9-88.9,28.9-123.8,40.8C487,595.1,424.9,600.9,378,574
	c-33.4-19.3-54.9-52.2-63.9-97.7c-4.1-20.7-7.4-61.5,15.4-102.2c23.1-40.8,65-69.2,125-83.8c50.6-12.3,127.6-33,202.2-53.1
	c71.7-19.1,139.5-37.5,186.7-49.2c78.7-19.5,168.6-32.2,274.5-38.7c93.2-5.7,266.6,2.5,381.7,122.1
	C1535,307.3,1608.8,398.7,1608.8,522.8z"/>
</svg>
