<?xml version="1.0" encoding="utf-8"?>
<!-- Generator: Adobe Illustrator 27.0.1, SVG Export Plug-In . SVG Version: 6.00 Build 0)  -->
<svg version="1.1" id="RX_Active" xmlns="http://www.w3.org/2000/svg" xmlns:xlink="http://www.w3.org/1999/xlink" x="0px" y="0px"
	 viewBox="0 0 1920 1080" style="enable-background:new 0 0 1920 1080;" xml:space="preserve">
<style type="text/css">
	.st0{fill:none;stroke:#FFFFFF;stroke-width:30;stroke-miterlimit:10;}
</style>
<path class="st0" d="M1401.3,528.4c-2.8-15.1-11.1-28-26.2-40.7c-13.1-11-29.8-15.5-48.4-13.2c-13.8,1.8-28.1,7.4-39.2,15.4
	c-8.7,6.2-16.2,18.2-26.6,34.9c-12.8,20.4-28.8,45.8-52.5,68.8c-39.9,38.7-68.6,39.2-104.5,27c-35.1-11.9-51.7-59.5-67-111.3
	c-13.4-45.4-43.6-185-61.6-268.3c-4.2-19.3-7.8-36-10.2-47c-14.6-66.2-71.1-66.2-112.4-66.2c-12.2,0-28.8,0.1-48,0.1
	c-49,0.2-116.2,0.4-169.9-0.1c-35.3-0.3-61.4,5.9-79.8,19.1c-16.9,12.1-23.7,27.6-28.2,37.9c-10.5,24.1-10.7,107.2-6.8,155.5
	c4.5,55.7,51.7,93.6,94.3,110.5c11,4.4,28.8,9,50.6,13.6c1.1,0.8,2.4,1.4,3.8,1.8L844,505.4l0.7,0.1c0.3,0,31.5,5.1,63.1,28.7
	c41.9,31.4,64.8,79.5,68,142.8l-3.4,98.8v0.3c0,11.3,3.7,20.7,11,28c11.7,11.6,30.5,15.4,48.4,16.7c-0.7,15.7-3.4,30.7-10.2,42.3
	c-5.8,9.9-16.2,16.9-26.7,23c-52.6,30.8-119.7,37.8-189.6,42.7c-50.8,3.6-102.6,3.5-152.8,3.4c-8.2,0-16.4,0-24.5,0
	c-5.5,0-10,4.5-10,10s4.5,10,10,10c8.2,0,16.3,0,24.5,0c8,0,16.1,0,24.2,0c42.9,0,86.7-0.4,130-3.5c72.3-5.1,141.9-12.3,198.3-45.3
	c12.8-7.5,25.8-16.4,33.9-30.2c8.8-15.1,12.1-33.3,13-51.9c1.7,0,3.3,0,4.9,0c5.1,0,9.5,0,12.7,0.2c3.3,0.2,8,0.5,13.5,0.5
	c22.3,0,57.5-4.6,67.9-38.1c7.3-23.4,20.6-36.9,53.1-51.5c20.5-7,42.2-15.8,68.4-28.6l0.3-0.2c0.7-0.4,17.5-9.5,50.3-32.2
	c35-24.3,47.9-46.1,67.3-86.9C1400.7,562.6,1404.3,544.3,1401.3,528.4z"/>
</svg>
