<?xml version="1.0" encoding="utf-8"?>
<!-- Generator: Adobe Illustrator 27.0.1, SVG Export Plug-In . SVG Version: 6.00 Build 0)  -->
<svg version="1.1" id="RX" xmlns="http://www.w3.org/2000/svg" xmlns:xlink="http://www.w3.org/1999/xlink" x="0px" y="0px"
	 viewBox="0 0 1920 1080" style="enable-background:new 0 0 1920 1080;" xml:space="preserve">
<style type="text/css">
	.st0{fill:none;stroke:#FFFFFF;stroke-width:30;stroke-miterlimit:10;}
</style>
<path class="st0" d="M1334.7,677.9c-0.4-8-0.4-27.2-0.4-49.5c0-18.2,0.2-38.5,0-57.3c0.9-9.9,0-20.1-0.6-29.4
	c-0.4-8.9-0.9-16.6-1.7-22.7c0-0.2,0-0.2,0-0.4c-1.1-11.7-2.4-23.6-4.3-35c-8-47.3-24.9-85.4-49.7-112.4
	c-5.8-6.5-12.3-12.5-19.4-17.9c-68.3-52.5-171.6-83.6-180.9-86.4c-73.9-27-178.7-63.8-259.8-86.4c-29-8-56.8-10.4-82.8-6.7
	c-41.9,6.3-79.5,27.9-105.9,60.9c-32.8,40.6-46.9,103.5-34.1,152.8c3.2,12.5,8.9,23.6,14.5,34.1c4.3,8.2,8.4,16,10.8,23.8
	c3.5,10.6,2.6,17.1-2.8,24.9c-22,31.6-27.7,40.6-31.3,56c-6.3,25.9,9.9,38.3,28.5,47.8c9.3,4.8,24.6,10.8,40.8,17.3
	c20.7,8.2,44.1,17.3,56.4,24.4c17.7,10.4,29.4,28.5,44.1,51.6c1.3,2.2,2.8,4.3,4.1,6.5c9.7,15.3,22.5,34.4,35.9,54.5
	c10.2,15.3,20.7,31.1,30.5,45.6c14.7,22.5,45.2,41.9,70.2,41.9c5.4,0,10.8-0.9,15.6-3c1.5-0.6,3.2-1.5,5.2-2.8
	c4.3,12.8,6.9,22.9,7.6,31.1c0.4,6.1,1.1,25.9-8.9,32.2c-5.2,3.2-21.8,8-67-17.9l-92.3-52.5c-7.8-4.5-17.7-1.7-22,6.1
	c-4.3,7.8-1.7,17.7,6.1,22l92.3,52.5c29,16.4,52.9,24.6,72.2,24.6c10.8,0,20.1-2.6,28.1-7.6c17.5-11,25.9-33.1,24-61.8
	c-1.5-20.7-10.4-44.7-26.1-84.5c0-0.4-0.2-0.9-0.2-1.3l-0.2-1.3l-0.4-1.3c-0.4-0.9-40-95.5-61.2-161.2
	c-17.9-55.8-32.4-71.3-60.7-102.2c-7.8-8.2-16.4-17.7-26.6-29.6l-8.2-7.8c-22.3-21-64-60.1-70.9-74.3c-16-33.1-13-59.6,9.5-81.5
	c30.3-29.2,81.9-26.1,114.3-6.5c10.8,6.7,18.6,13.6,26.8,20.7c17.7,15.8,35.9,32.2,80.6,39.5c10.4,1.7,21.8,3.5,33.9,5.2
	c56,8.4,125.8,18.8,162.5,44.5c37.8,26.6,65.5,86.9,63.1,137.4c0,1.9-0.2,4.1-0.4,6.1c-0.2,1.5-0.2,3-0.4,4.5
	c-5.8,65.5-7.1,87.3-7.8,108.5c0,2.4-0.2,5-0.6,7.6c-0.9,10.2-2.2,22.7,4.5,35c11.2,21,36.5,27.2,50.1,30.5
	c37.6,9.1,39.1,9.5,46,9.3c1.7,0,3.9-0.2,10.4,0.4c1.5,0.2,3,0.2,4.5,0.2c12.3,0,19.9-4.8,24.4-9.1
	C1336,716.5,1336,697.7,1334.7,677.9z"/>
</svg>
