<?xml version="1.0" encoding="utf-8"?>
<!-- Generator: Adobe Illustrator 27.0.1, SVG Export Plug-In . SVG Version: 6.00 Build 0)  -->
<svg version="1.1" id="Oval_Active" xmlns="http://www.w3.org/2000/svg" xmlns:xlink="http://www.w3.org/1999/xlink" x="0px"
	 y="0px" viewBox="0 0 1920 1080" style="enable-background:new 0 0 1920 1080;" xml:space="preserve">
<style type="text/css">
	.st0{fill:none;stroke:#FFFFFF;stroke-width:30;stroke-miterlimit:10;}
</style>
<path class="st0" d="M1188.8,920.2c-18.7,0-37-0.8-54.9-1.6l-7.7-0.3c-19.5-0.8-55.4-1.8-96.9-3c-176.3-4.9-339.5-10.1-397.7-20.4
	c-40.1-7.1-77.5-19.1-111.2-35.8c-38.7-19.2-71.3-44-97-73.7c-27.1-31.4-42.7-65.1-57.8-97.7c-3-6.5-6.1-13.3-9.3-19.8
	c-16-33.4-26.1-69.6-29.9-107.5c-3.6-35.9-1.5-72.6,6.1-109c15.2-72,51.8-139,103.1-188.6c58.6-56.7,133.6-92.9,205.8-99.4
	c61.1-5.5,121-3.6,178.9-1.7c18.4,0.6,37.4,1.2,56.1,1.6c80.5,1.6,175.4,4.1,268.7,11.1c8.2,0.6,16.5,1.2,24.8,1.8
	c59,4.2,119.9,8.5,179.2,24.2c72.2,19.1,127.5,51.9,169,100.2c49.9,58,76.6,131.6,77.2,212.7c0.5,71.5-19.9,147-57.5,212.7
	c-50.7,88.6-124.6,149.4-213.8,176l-7,2.1h-6.7c-2.5,0.3-8.5,2.1-12.5,3.4c-7.1,2.1-15.2,4.6-23.9,6h-0.1
	c-17.2,2.8-34.8,4.7-52.2,5.8C1210.8,919.9,1199.7,920.2,1188.8,920.2z"/>
</svg>
