<?xml version="1.0" encoding="utf-8"?>
<!-- Generator: Adobe Illustrator 27.0.0, SVG Export Plug-In . SVG Version: 6.00 Build 0)  -->
<svg version="1.1" id="Layer_1" xmlns="http://www.w3.org/2000/svg" xmlns:xlink="http://www.w3.org/1999/xlink" x="0px" y="0px"
	 viewBox="0 0 1920 1080" style="enable-background:new 0 0 1920 1080;" xml:space="preserve">
<style type="text/css">
	.st0{fill:none;stroke:#231F20;stroke-width:20;stroke-miterlimit:10;}
</style>
<path class="st0" d="M1477,247.7L1477,247.7c-213.9-4-742.9-11.5-1039.4,0c-59,2.2-117.6,28.8-160.2,72.8
	c-37.3,38.2-81.7,109.2-83.4,231.2c-0.9,54.6,24,120.7,64.8,172.2c51,64.8,122.5,102.1,201.5,105.6c131.8,5.8,311.1,8.9,491.7,8.9
	s362.6-3.1,499.3-8.9c37.7-1.8,111-12,174-62.6c46.2-36.8,101.2-108.7,100.7-239.2C1726,416.8,1659.9,250.8,1477,247.7z"/>
</svg>
