<?xml version="1.0" encoding="utf-8"?>
<!-- Generator: Adobe Illustrator 27.0.1, SVG Export Plug-In . SVG Version: 6.00 Build 0)  -->
<svg version="1.1" id="Grand_Prix_-_Config" xmlns="http://www.w3.org/2000/svg" xmlns:xlink="http://www.w3.org/1999/xlink"
	 x="0px" y="0px" viewBox="0 0 1920 1080" style="enable-background:new 0 0 1920 1080;" xml:space="preserve">
<style type="text/css">
	.track-surface{fill:none;stroke:#FFFFFF;stroke-width:30;stroke-miterlimit:10;}
</style>
<path class="track-surface" d="M1574.1,286.8c-2.1-4.6-5.9-8.2-10.6-10.1c-7.3-3-14.1-0.9-16.4-0.1c-2.8,0.9-5.7,1.5-8.8,2.3
	c-5.4,1.1-10.8,2.7-15.9,4.7c-5.3,2.3-10.8,4.2-16.5,6.2c-4.5,1.6-9.1,3.2-13.6,5c-9.9,4-14.4,5.4-21.1,7.6
	c-5.7,1.9-12.8,4.2-25.7,8.9c-11.3,4.1-16.3,6.1-22.6,8.6c-5.8,2.3-13,5.2-28,10.8c-17.3,6.5-35,12.9-51.1,18.6
	c-9.9,3.5-14.5,5-19.4,6.6s-9.8,3.3-20.2,6.9c-16,5.6-24.9,8.9-31.3,11.3c-7.6,2.8-11.5,4.3-19.8,6.8c-19.6,6-35.1,9.2-47.6,11.8
	c-17.5,3.8-35.2,6.7-53,8.7c-15.2,1.8-30.4,2.7-45.6,2.8c-15.8,0-31.6-0.8-47.2-2.4c-18.7-1.7-37.8-4.4-56.9-7.9
	c-27.9-5.1-49-11-61.6-14.5c-17.3-4.8-29.9-8.3-47-14.6c-13.4-5-26.7-11.1-53.3-23.3c-20.3-9.3-30.5-14-40.7-19.1
	c-9.6-4.8-12.7-6.7-20.2-11.1c-6.6-3.9-16.6-9.7-37-21.2l-2.2-1.2c-17-9.5-24.8-13.9-33.6-23.3c-5.5-5.9-10.6-11.4-13-19.9
	c-0.7-2.4-0.7-3.3-0.8-8.5c0-4-0.1-10.1-0.7-20.2c-0.9-16.8-1.9-21.9-3.7-26.9c-2.1-5.7-5.3-10.7-11.7-20.5
	c-4.5-6.9-8.1-11.9-14.9-14.8c-5-2.1-10.4-2.7-15.7-1.8c-11.2,1.8-18.1,9.3-21.4,12.9l-0.2,0.2c-3.5,3.7-7.2,7.1-11.1,10.3
	c-5.3,4.3-10.2,9.1-14.8,14.2c-6.7,7.9-23.7,25.9-57.8,61.8c-4,4.2-17.5,17.8-44.5,44.7C482,312.1,472.4,321.6,466,328
	c-11.5,11.5-13.2,13.2-17.6,17.9c-12.4,13.4-33.1,35.8-55,69.1c-15,22.8-28.4,47.2-37.8,68.8c-14,32.1-11.6,39.7-10.8,42.2
	c7,22.5,60.7,132.7,92.9,196.9c8.5,16.9,23,46.7,38,79.7c4.6,10,9.7,19.8,14.7,29.2c5.7,10.9,11.7,22.2,16.6,33.6
	c6.5,15,15.3,28.9,26,41.2c7,7.9,15.1,15.7,27.6,19.1c4.1,1.1,8.3,1.6,12.6,1.6c3.4,0,6.7-0.3,10-0.9c8.2-1.4,14.3-4.2,24.8-10.2
	c13.7-7.7,26.8-16.3,39.4-25.7c8.6-6.4,14.7-11.2,19.5-19.5c2-3.4,6.6-11.2,6.5-22c0-8-2.7-14-7.8-23.2c-5.7-10.2-10.8-17.5-20-29.9
	C632,777.9,629,774.5,624,770.7c-5.3-4.1-10.5-6.6-19.9-11.3c-3.2-1.6-5.9-2.8-8.5-4.1c-5.3-2.3-10.4-5-15.4-8
	c-3-1.7-5.8-3.8-8.3-6.2c-2.7-2.8-5-5.9-6.8-9.4c-4.3-7.9-6.3-14.6-8.5-22.3l-0.3-1.1c-3.1-10.4-5.1-16.7-6.6-21.3
	c-2.1-6.6-2.9-8.8-3.8-14.6c-2.3-13.9-0.9-17.7-0.3-19.2c3.1-8.1,10.3-13.8,18.9-15c3.3-0.7,6.7-0.7,10,0.1c2.9,0.8,4.8,2.1,7.9,4.3
	c3.4,2.4,6.6,5.3,9.3,8.5c19.9,24.2,30.9,37.5,33.4,41c4.4,6.3,9.3,12.4,14.5,18.1c4.5,5,10.5,11.7,24.8,29.8
	c3.6,4.6,6.8,8.7,9.6,12.3c11,14.2,17.7,22.8,30.1,34.6c16.9,16,26.4,20.8,34.2,23.5c13.3,4.7,27.7,5.7,43,2.9
	c10.5-1.9,19.3-5.7,39.3-17c24.5-13.8,39.7-24,40.3-24.4c14.9-10,19.8-13,26-16.8c7-4.2,15.7-9.5,41.9-26.9
	c28.2-18.7,42-28.4,55.4-37.9c12.5-8.8,24.3-17.2,46.9-32.1l6.5-4.3c11.4-7.5,20.5-18.1,26.2-30.5l0.1-0.3c3.2-7.1,8-17.7,7.1-31.2
	c-0.8-12.3-6-21.1-12-31.3c-2.4-4.2-5.2-8.1-8.4-11.8c-1.7-1.9-3.2-4-4.3-6.2c-4.3-8.3-5.2-15.4-6.9-29.7
	c-0.6-4.5-0.5-13.4-0.4-29.6c0-2.9,0.1-9.5,1.1-10.4c0.4-0.3,0.9-0.5,1.4-0.6c26.8,2.6,55.1,6.9,80,10.7c8.1,1.2,15.7,2.4,22.6,3.4
	l8.5,1.2c38.5,5.6,80.4,11.6,92.4,11.4h1.1c16.1-0.3,31.2-0.6,47.6-11.3l0,0c32.7-21.3,49.3-32.1,60.2-39.3
	c13-8.5,16.9-11.1,29.2-18.8c14.6-9.2,25.2-15.8,35.6-22.2c15-9.3,29.2-18.1,53.9-34c22.8-14.6,32.6-21.1,37.3-24.2
	c2.1-1.6,4.4-2.9,6.7-4.1c8.9-4.5,16.9-10.2,24.7-15.8c6.9-4.9,13.3-9.5,20.3-13.3s11.5-8.8,13.4-15
	C1576.5,296.6,1576.2,291.4,1574.1,286.8z"/>
</svg>
