<?xml version="1.0" encoding="utf-8"?>
<!-- Generator: Adobe Illustrator 27.0.1, SVG Export Plug-In . SVG Version: 6.00 Build 0)  -->
<svg version="1.1" id="National_A_-_Config" xmlns="http://www.w3.org/2000/svg" xmlns:xlink="http://www.w3.org/1999/xlink"
	 x="0px" y="0px" viewBox="0 0 1920 1080" style="enable-background:new 0 0 1920 1080;" xml:space="preserve">
<style type="text/css">
	.st0{fill:none;stroke:#FFFFFF;stroke-width:30;stroke-miterlimit:10;}
</style>
<path class="st0" d="M1389.1,418.2c-9.1-5.1-19.2-6.3-24.7-7h-0.2c-1.3-0.2-3.2-0.4-5.5-0.7c-13.6-1.9-45.4-6.2-82.4-6.2h-0.1
	c-15.8,0-31.6-0.8-47.2-2.4c-18.7-1.7-37.8-4.4-56.9-7.9c-27.9-5.1-49-11-61.6-14.5c-17.3-4.8-29.9-8.3-47-14.6
	c-13.4-5-26.7-11.1-53.3-23.3c-20.3-9.3-30.5-14-40.7-19.1c-9.6-4.8-12.7-6.7-20.2-11.1c-6.6-3.9-16.6-9.7-37-21.2l-2.2-1.3
	c-17-9.5-24.8-13.9-33.6-23.3c-5.5-5.9-10.6-11.4-13-19.9c-0.7-2.4-0.7-3.3-0.8-8.5c0-4-0.1-10.1-0.7-20.2
	c-0.9-16.8-1.9-21.9-3.7-26.9c-2.1-5.7-5.3-10.7-11.7-20.5c-4.5-6.9-8.1-11.9-14.9-14.8c-5-2.1-10.4-2.7-15.7-1.8
	c-11.2,1.8-18.1,9.3-21.4,12.9l-0.2,0.2c-3.5,3.7-7.2,7.1-11.1,10.3c-5.3,4.3-10.2,9.1-14.8,14.2c-6.7,7.9-23.7,25.9-57.8,61.8
	c-4,4.2-17.5,17.8-44.5,44.7c-14.9,14.9-24.4,24.4-30.9,30.8c-11.5,11.5-13.2,13.2-17.6,17.9c-12.4,13.4-33.1,35.8-55,69.1
	c-15,22.8-28.4,47.2-37.8,68.8c-14,32.1-11.6,39.7-10.8,42.2c7,22.5,60.7,132.7,92.9,196.9c8.5,16.9,23,46.7,38,79.7
	c4.6,10,9.7,19.8,14.7,29.2c5.7,10.9,11.7,22.2,16.6,33.6c6.5,15,15.3,28.9,26,41.2c7,7.9,15.1,15.7,27.6,19.1
	c4.1,1.1,8.3,1.6,12.6,1.6c3.4,0,6.7-0.3,10-0.9c8.2-1.4,14.3-4.2,24.8-10.2c13.7-7.7,26.8-16.3,39.4-25.7
	c8.6-6.4,14.7-11.2,19.5-19.5c2-3.4,6.6-11.2,6.5-22c0-8-2.7-14-7.8-23.2c-5.7-10.2-10.8-17.5-20-29.9
	c-13.5-18.2-16.5-21.6-21.5-25.3c-5.3-4.1-10.5-6.6-19.9-11.3c-3.2-1.6-5.9-2.8-8.5-4.1c-5.3-2.3-10.4-5-15.4-8
	c-3-1.7-5.8-3.8-8.3-6.2c-2.7-2.8-5-5.9-6.8-9.4c-4.3-7.9-6.3-14.6-8.5-22.3l-0.3-1.1c-3.1-10.4-5.1-16.7-6.6-21.3
	c-2.1-6.6-2.9-8.8-3.8-14.6c-2.3-13.9-0.9-17.7-0.3-19.2c3.1-8.1,10.3-13.8,18.9-15c3.3-0.7,6.7-0.7,10,0.1c2.9,0.8,4.8,2.1,7.9,4.3
	c3.4,2.4,6.6,5.3,9.3,8.5c19.9,24.2,30.9,37.5,33.4,41c4.4,6.3,9.3,12.4,14.5,18.1c4.5,5,10.5,11.7,24.8,29.8
	c3.6,4.6,6.8,8.7,9.6,12.3c11,14.2,17.7,22.8,30.1,34.6c16.9,16,26.4,20.8,34.2,23.5c13.3,4.7,27.7,5.7,43,2.9
	c10.5-1.9,19.3-5.7,39.3-17c24.5-13.8,39.7-24,40.4-24.4c14.9-10,19.8-13,26-16.8c7-4.2,15.7-9.5,41.9-26.9
	c28.2-18.7,42-28.4,55.4-37.9c12.5-8.8,24.3-17.2,46.9-32.1l3.2-2.1c6.2-4.1,8-5.3,11.4-7.5c3.1-1.9,5.8-4.3,8.1-7.1
	c4.4-5.3,6.6-10.4,8.8-15.3c0.4-1,0.9-2,1.3-3c3.2-7.1,8-17.7,7.1-31.2c-0.8-12.3-6-21.1-12-31.3c-2.4-4.2-5.2-8.1-8.4-11.8
	c-1.7-1.9-3.2-4-4.3-6.2c-4.3-8.3-5.2-15.4-6.9-29.7c-0.6-4.5-0.5-13.4-0.4-29.6c0-2.9,0.1-9.5,1.1-10.4c0.4-0.3,0.9-0.5,1.4-0.6
	c26.8,2.6,55.1,6.9,80,10.7c8.1,1.2,15.7,2.4,22.6,3.4l8.5,1.2c6.6,1,14.8,2.2,23.6,3.4c6.1,0.9,12.6,1.8,18.9,2.6
	c11.5,1.6,20.4-0.3,27.2-5.7c8.4-6.7,12.8-17.9,14.4-36.4C1407.5,437.2,1401.4,425.2,1389.1,418.2z"/>
</svg>
