<?xml version="1.0" encoding="utf-8"?>
<!-- Generator: Adobe Illustrator 27.0.0, SVG Export Plug-In . SVG Version: 6.00 Build 0)  -->
<svg version="1.1" id="Short_A_-_Config" xmlns="http://www.w3.org/2000/svg" xmlns:xlink="http://www.w3.org/1999/xlink" x="0px"
	 y="0px" viewBox="0 0 1920 1080" style="enable-background:new 0 0 1920 1080;" xml:space="preserve">
<style type="text/css">
	.st0{fill:none;stroke:#231F20;stroke-width:10;stroke-miterlimit:10;}
</style>
<path class="st0" d="M1298.5,716.7c-1.5,3.3-3.4,6.4-5.7,9.2c-4.7,6-10.4,11.1-16.9,15.2c-7.8,5-24.2,15.2-46,27.5
	c-26.8,15.1-35.6,18.4-45.2,20.1c-6,1.1-24.2,4.4-44.8-2.9c-7.8-2.7-17.8-7.8-37.1-26.2c-15.5-14.7-23.7-25.2-38.5-44.3
	c-3.9-5-8.2-10.6-13.3-17c-20-25.3-28.7-35-35-42.1c-6.5-7.1-12.5-14.6-18-22.5c-4-5.5-17.4-21.8-46.9-57.5
	c-5.2-6.3-11.2-11.8-17.9-16.6c-4.7-3.4-10.6-7.6-19.3-10c-8.5-2.3-17.4-2.6-26-0.8c-21.2,3.3-39.1,17.7-46.6,37.9
	c-2.7,7.3-4.8,17.3-0.9,40.4c1.6,9.8,3.1,14.2,6.2,23.8c2,6.1,4.7,14.6,8.8,28.4l0.4,1.5c3.3,11.1,6.6,22.5,13.9,35.9
	c3.7,7,8.4,13.5,14,19.2c4.9,4.8,10.5,9,16.4,12.5c7.7,4.7,15.6,8.8,23.9,12.5c3.4,1.6,6.9,3.2,10.9,5.2c12.1,6,17.7,8.8,22.9,12.8
	c3.5,2.7,6.2,5.2,24,29.2c11.9,16.1,18.4,25.3,25.5,38c6.1,10.8,7.1,14.4,7.1,18.5c0,7.1-3.4,12.9-5.2,16
	c-3.4,5.9-7.3,9.5-19.4,18.5c-16.3,12.2-33.3,23.3-51,33.3c-13.1,7.4-18.3,9.6-25,10.7c-6.4,1.3-13,1.1-19.3-0.4
	c-8.2-2.2-15.1-7.2-24.3-17.7c-12.8-14.7-23.2-31.4-31-49.3c-7.1-16.5-15.5-32.4-23.6-47.9c-6.6-12.6-13.5-25.6-19.4-38.6
	c-20.8-45.4-40.7-86.6-52.4-109.9C698.8,589.6,628.6,445,618.7,415.1c0.5-10.8,19.6-64,62.9-129.8c28.8-43.7,56.2-73.3,72.5-91
	c5.6-6,7.9-8.3,23.3-23.6l25.2-25.1v-0.1c1.4-1.2,7.3-4.8,15.4-7.7c4.3-1.5,8.8-2.1,13.3-1.8c4.1,0.1,9.9,0.3,14.5,2.8
	c0.1,0.1,0.2,0.1,0.4,0.2c2.2,1.7,10.8,15.9,13.6,20.5c11.5,19.1,13.2,23.1,13.9,24.6c3,6.7,5.2,13.7,6.7,20.8c1,5,1.5,10,1.6,15.1
	c0.1,2.6,0.2,5.6,0.5,9.3c0,0.8,1.2,18.5,4.1,37.3c1.8,11.6,3.9,24.8,9.1,40.4c4.1,12.5,9.6,23.7,19.2,40
	c11.8,20,21.5,33.1,32.8,48.4c2.6,3.5,5.3,7.2,8.2,11.1c1.2,1.6,1.2,1.7,3.3,4.7c3.4,5,11.5,16.6,35.6,51.3
	c6.2,8.9,6.3,9.1,10.6,14.9c4.6,6.3,14,19.4,41.9,58.4c10.4,14.6,20.3,28.4,37.5,43.9c23.4,21.5,51.7,37,82.4,45.1
	c20,5.9,43,10,55.3,12.2l3.5,0.6c10,1.8,15.1,2.7,21.6,6.2c5.5,3,10.9,7.7,21.6,17.1c1.6,1.4,1.8,1.6,3.2,3
	c1.8,1.7,5.1,4.9,14.1,13.4l1.3,1.2c8.6,8.2,10,9.5,11.3,12.2c1.4,3.2,2.2,6.7,2.4,10.2C1301.5,706.5,1300.6,711.8,1298.5,716.7
	L1298.5,716.7z"/>
</svg>
