<?xml version="1.0" encoding="utf-8"?>
<!-- Generator: Adobe Illustrator 27.0.0, SVG Export Plug-In . SVG Version: 6.00 Build 0)  -->
<svg version="1.1" id="Layer_1" xmlns="http://www.w3.org/2000/svg" xmlns:xlink="http://www.w3.org/1999/xlink" x="0px" y="0px"
	 viewBox="0 0 1920 1080" style="enable-background:new 0 0 1920 1080;" xml:space="preserve">
<style type="text/css">
	svg {height: 100%;width: 100%;}.track-surface {fill: none;stroke: white;stroke-width: 30;}
</style>
<path class="track-surface" d="M1274.7,635.7c-1.2-11.3-9.8-18.5-12.3-20.4c-5.6-4.2-10.7-5-19-6.2c-2.1-0.3-4.5-0.7-7.5-1.2
	c-1.6-0.3-5.5-1-9.6-1.9c-7.7-1.5-17.3-3.4-22.6-4.2c-1.9-0.3-3.9-0.6-6.5-1.1c-13.8-2.4-27.4-5.4-40.9-9.2
	c-14.3-3.9-28.1-9.8-40.8-17.5c-7.8-4.9-15.2-10.6-22.1-16.8c-13.2-11.9-20.7-22.4-29.5-34.7c-24.4-34.2-32.7-45.7-36.7-51.2
	c-3.6-5-3.7-5.1-9-12.7c-21-30.3-28.1-40.5-31.1-44.9c-2-2.8-2.1-3.1-3.3-4.7c-2.6-3.5-5-6.8-7.3-9.9c-9.9-13.3-17.7-23.9-27.3-40.3
	c-8.6-14.7-12.1-22.8-14.7-30.5c-3.9-11.7-5.5-21.8-7-31.5c-2.4-15.4-3.3-30.3-3.3-30.5c-0.2-3.1-0.3-5.6-0.4-7.8
	c-0.1-5.7-0.7-11.3-1.8-16.9c-1.6-7.8-4-15.5-7.2-22.8c-1.3-3.1-3.6-7.8-13.7-24.6c-11.7-19.3-14.8-23.3-21.1-26.8
	c-9.2-5.1-18.7-5.4-23.8-5.5c-6.9-0.3-13.8,0.7-20.4,3c-10.7,3.8-18.7,8.5-23.8,13.8c-8.3,8.3-14.6,14.5-19.5,19.4
	c-14.1,14.1-17,17-22.2,22.6c-14.8,16-39.6,42.9-66,82.8c-18,27.3-34.1,56.6-45.4,82.6c-16.7,38.4-13.9,47.6-13,50.6
	c8.4,27,72.8,159.1,111.5,236.1c10.2,20.3,27.5,56,45.6,95.5c5.5,12,11.6,23.7,17.6,35.1c6.9,13.1,14,26.6,19.9,40.3
	c7.8,18,18.3,34.7,31.2,49.5c8.4,9.5,18.1,18.9,33.1,22.9c4.9,1.3,10,1.9,15.1,1.9c4,0,8-0.4,12-1.1c9.9-1.7,17.1-5.1,29.7-12.2
	c16.4-9.2,32.2-19.5,47.2-30.8c10.3-7.7,17.6-13.5,23.4-23.3c2.4-4,7.9-13.5,7.9-26.4c0-9.6-3.2-16.8-9.3-27.8
	c-6.9-12.2-13-20.9-24-35.8c-16.2-21.8-19.8-25.9-25.7-30.4c-6.4-4.9-12.6-8-23.9-13.6c-3.9-1.9-7.1-3.4-10.2-4.9
	c-6.3-2.8-12.5-6-18.4-9.6c-3.6-2.1-7-4.6-10-7.5c-3.3-3.3-6-7.1-8.1-11.2c-5.2-9.5-7.5-17.5-10.2-26.7l-0.4-1.3
	c-3.7-12.5-6.1-20-7.9-25.5c-2.6-7.9-3.4-10.6-4.6-17.5c-2.8-16.6-1.1-21.2-0.4-23c3.7-9.7,12.4-16.6,22.6-18c4-0.9,8.1-0.8,12,0.1
	c3.4,1,5.7,2.5,9.5,5.2c4.1,2.9,7.8,6.3,11.1,10.2c23.9,29,37.1,45,40.1,49.2c5.3,7.6,11.1,14.9,17.4,21.7
	c5.3,5.9,12.6,14.1,29.7,35.7c4.4,5.5,8.1,10.4,11.5,14.8c13.2,17.1,21.2,27.4,36.1,41.5c20.2,19.2,31.7,24.9,41,28.2
	c15.9,5.6,33.3,6.8,51.6,3.5c12.5-2.3,23.1-6.8,47.1-20.3l6-3.4c10.1-5.7,17.8-15,21.6-26c0.8-2.5,1.4-5,1.8-7.6
	c0.4-4,0.2-8.1-0.6-12c-0.3-1.6-0.6-3.4-0.9-5.8c-1-8.1-1.7-14-0.8-18.4c0.3-1.5,3.3-5.5,13.2-18l2.3-2.8
	C1270.9,652.3,1275.8,646.1,1274.7,635.7z"/>
</svg>
