<?xml version="1.0" encoding="utf-8"?>
<!-- Generator: Adobe Illustrator 27.0.1, SVG Export Plug-In . SVG Version: 6.00 Build 0)  -->
<svg version="1.1" id="Bark_River_-_Config" xmlns="http://www.w3.org/2000/svg" xmlns:xlink="http://www.w3.org/1999/xlink"
	 x="0px" y="0px" viewBox="0 0 1920 1080" style="enable-background:new 0 0 1920 1080;" xml:space="preserve">
<style type="text/css">
	.st0{fill:none;stroke:#FFFFFF;stroke-width:30;stroke-miterlimit:10;}
</style>
<path class="st0" d="M486.3,951.8c-11.8,0-22.9-1.5-38.6-3.7c-21.4-2.9-43.4-5.9-70.1-15.9c-20.6-7.7-34.3-12.8-44.4-27.3
	c-7.7-11-11.6-25-11.8-41.6c-0.1-12.7,2.6-22.2,5.5-30.9c7.6-23,15.4-39.9,23.6-57.8l2.1-4.6c3.9-8.5,8.4-16.8,12.7-24.8
	c6.9-12.8,13.5-25,17.9-37.9l0.3-0.8c2.8-8.1,8-23.3,22.6-30.8c8.3-4.3,17.4-5,23.6-4.8c6.5,0.2,12.4,1.7,21.7,5.4
	c9,3.6,17.7,7.8,26.1,12.6h0.2l2.5,1.6c9.4,6,18.4,12.8,26.7,20.3c4.3,3.9,8.9,7.6,13.6,11c9.5,6.7,29.4,18.5,55.5,21.9
	c15.5,2,31.5,4.2,48.4-4.6c18.4-9.7,30.9-27.8,33.7-48.4c1.7-13-0.9-26-7.6-38.7c-7.7-14.7-18.9-22.5-25.5-27.1
	c-14.5-10.2-27.8-13.7-50-19.2c-25.4-6.2-39.1-9.1-50-11.5c-10.1-2.2-18.1-3.9-30.8-7.2c-50.2-13.1-67.9-23.3-79.6-32.5
	c-11.3-8.8-21.2-19.2-29.4-30.9c-11.7-17-16.7-32.4-25.5-70.1c-5.4-23-10.4-46.2-14.8-69.1c-12.9-66.9-14.1-84-14.8-93.1
	c-1.9-26.1-3.1-41.9,1.5-62.9c3-13.5,8.6-38.7,29-61.2c17.8-19.6,42.2-32.1,72.4-37.1c17.4-2.9,62-6.4,101,23.2
	c23.6,17.9,39.2,41.3,45,67.8c6.9,31.1-1.9,56.6-5.6,67.4c-7.4,21.3-18.1,35-31.6,52.2c-7.7,9.9-16.2,19.2-25.4,27.8
	c-9.7,9.2-18.9,19-27.5,29.2c-26.3,31-28.2,40.8-29.2,45.5c-1.6,8.1-3.1,24.2,5.1,40.2c3.6,7,10.2,16.5,29.5,27.9
	c33.3,19.6,66.5,22.8,79,24h0.2c52,4.9,67.3,7.6,79.6,9.8c11.8,2.1,20.3,3.6,60,6.2c0.8,0,80.3,5,179.1,2c26-0.6,51.9-4.3,77-11
	c17.6-4.8,35.8-9.7,55-22.6c14.6-9.9,23.4-20.2,42.6-42.8c10.3-12.1,16.3-20.3,21.1-26.9c6.7-9.2,12-16.5,23.7-27.3
	c10.8-10,23-21.2,42.8-29.8c10-4.3,27.7-9.7,55.6-10.8c22.8-0.9,71.9,7.7,123.9,16.8c15.4,2.7,31.4,5.5,46.7,8
	c21.6,3.6,40.7,6.4,57.5,8.8c35.6,5.1,61.4,8.9,82.3,16.2c29,10.2,43.1,24.6,53.9,38.7c13,16.9,20.9,36.9,23.4,59.7
	c3.4,31.4-6.2,54.9-12,68.9c-15.9,38.6-41.8,61.4-62.6,79.7c-20,17.6-42.2,32.4-66.1,44.1c-24.9,12-51.4,20.5-78.6,25.5
	c-45.7,8.4-80.7,4.5-108.9,1.4c-31.5-3.5-65.8-12.7-134.2-31c-46-12.3-69-18.5-92.5-26.2c-17.5-5.7-30.5-10.4-40.9-14.2
	c-19.8-7.2-31.8-11.5-53.8-15.4c-36-6.4-63-5.2-75.9-3.9c-12.5,1.2-35.7,3.6-63.8,15.3c-18.3,7.8-35.4,18.1-51,30.6
	c-15.1,12.1-22.4,21-46.5,50.6l-8,9.9c-22.9,28.2-31,37.6-37.4,45.2c-5.8,6.7-9.9,11.6-22.5,27.4l0,0c-1.5,1.8-15.8,18.4-60.9,70.6
	c-8.3,9.7-18.7,21.7-36.7,30.7c-18.2,9.2-35.1,10.7-46.3,11.7C494.7,951.6,490.5,951.8,486.3,951.8z"/>
</svg>
