<?xml version="1.0" encoding="utf-8"?>
<!-- Generator: Adobe Illustrator 27.0.0, SVG Export Plug-In . SVG Version: 6.00 Build 0)  -->
<svg version="1.1" id="IndyCar_2012-2018_-_Config" xmlns="http://www.w3.org/2000/svg" xmlns:xlink="http://www.w3.org/1999/xlink"
	 x="0px" y="0px" viewBox="0 0 1920 1080" style="enable-background:new 0 0 1920 1080;" xml:space="preserve">
<style type="text/css">
	svg {height: 100%;width: 100%;}.track-surface {fill: none;stroke: white;stroke-width: 30;}
</style>
<path class="track-surface" d="M490,842.9c-25.5,0-52.2-7.8-81.6-23.6c-32-17.3-73.4-41.8-98.3-58.2c-1.4-0.9-4.1-2.6-7.4-4.7
	c-47.6-30.2-103.5-67.8-114.1-89.5c-5.9-12.2-3-20.6,0.4-25.5c11.7-16.7,45.4-13.6,49.2-13.2c21.3,2.2,58.8,10.8,83.7,16.5l10.3,2.3
	c10.9,2.5,37.1,3.2,46.3,3.3h0.3c75.2,2.9,230.7,3.5,276.5,3.5c17.2,0,36.6,0.1,73.6-27c24.4-17.8,76.9-57.5,101.3-80.3
	c17.2-16.2,29.2-37,36.7-63.6l0.6-2.1c6.6-23.4,14-50,2.2-94.9c-3.8-14.6-14.1-53.4,4.3-82.7c10.4-16.6,28.2-27.5,52.8-32.3
	c21.7-4.2,41-5.6,86-1c22.7,2.3,66.8,8,91.8,12.2c15.3,2.6,40.9,6.9,67.9,18.5l5.5,2.4c30.7,13.3,59.6,25.9,102.7-12
	c2.1-1.8,4.7-4.1,7.5-6.6c8.2-7.3,18.4-16.5,24.9-21.6c1.4-1.1,2.8-2.2,4.2-3.4c15.3-12.6,38.5-31.6,83.3-16.9
	c16.5,5.4,35.1,11.4,54.8,17.7c46.9,15.1,95.4,30.8,127.2,41.9c10,3.5,23.7,13,29.7,28.5c3.7,9.4,5.8,24.7-4.8,44.4
	c-20,37.4-70.4,97.6-85.3,115.1c-15.7,18.4-43.5,42.7-87.1,54c-25.2,6.5-52.3,11.2-105.9-2.8c-36.4-9.5-95.1-31.9-142.2-49.8
	c-17.3-6.6-33.6-12.8-46.2-17.4c-17.8-6.5-47.3-7.3-73.2,5.4c-23.6,11.6-40.3,32.1-49.5,60.9c-8.1,25.3-1.9,58.3,15.7,84.1
	c14,20.5,41.1,45.7,90.6,49c48,3.1,201.4,3.3,336.7,3.5c107,0.1,208.2,0.3,252.3,1.7l0,0c12.1,0.4,21.7,10.6,21.3,22.7
	c-0.1,2.4-0.6,4.8-1.4,7c-5.6,14.7-19.2,32.3-52.6,32.6c-29.1,0.3-75.7-1.8-116.8-3.7c-13.4-0.6-26-1.2-37-1.6
	c-1.2,0-2.3-0.1-3.5-0.2c-12.2-0.6-24.7-1.2-43.5,11l-1.5,1c-18.7,12.2-36.3,23.7-91.8,16.7c-8.1-1-20.3-3-32.1-4.9
	c-10.1-1.6-19.6-3.2-26.2-4.1c-35.9-4.9-68.7,4.7-97.4,28.5c-3.9,3.3-7.6,6.7-11.5,10.4c-18.9,17.9-40.3,38.2-101,40.6h-0.4
	c-2.2,0-226.6-3.6-301.1-6.1c-7-0.2-16.5-0.7-26.4-1.1c-21.3-0.9-45.3-2-59.8-2h-0.7c-7.5,0-30.1,0.1-30.9-30.8c0-1.5,0-3,0-4.7
	c0.1-6.6,0.2-15.6-3.9-19c-3.2-2.7-10.3-3-19.8-0.9c-31.4,6.9-60.6,17.6-116.9,52.2c-12.9,7.9-33.2,18.7-60.4,20.4
	C495.3,842.9,492.7,843,490,842.9z"/>
</svg>
