<?xml version="1.0" encoding="utf-8"?>
<!-- Generator: Adobe Illustrator 27.0.0, SVG Export Plug-In . SVG Version: 6.00 Build 0)  -->
<svg version="1.1" id="North_-_Config" xmlns="http://www.w3.org/2000/svg" xmlns:xlink="http://www.w3.org/1999/xlink" x="0px"
	 y="0px" viewBox="0 0 1920 1080" style="enable-background:new 0 0 1920 1080;" xml:space="preserve">
<style type="text/css">
	svg {height: 100%;width: 100%;}.track-surface {fill: none;stroke: white;stroke-width: 30;}
</style>
<path class="track-surface" d="M1392,381.7c-14.9-21.9-45.4-25.9-48.7-26.3c-59.2-9.8-92.8-15.4-97-16.2l-0.3,0c-65-9.7-98.2-9.6-136.6-9.4
	c-13.1,0-26.7,0.1-42.4-0.3h-0.2c-8.1,0-21.5,0-30.5-6l-0.3-0.2c-29-17.3-51.9-15.6-61.9-14.7c-25.6,0.4-36.3-7.6-42.8-12.3
	c-1-0.8-2-1.5-3-2.1c-25.3-17.4-33.1-19.2-48.5-16.5l-0.5,0.1l-0.5,0.1c-41,13.1-58.2,28-66.5,35.1c-0.9,0.8-1.8,1.5-2.5,2.1
	l-0.2,0.2c-8,7-13.9,14.4-17.4,22c-3.8,8.4-4.4,17.9-1.6,26.7c1.6,5.1,4.5,15.1,6.3,23.9l0.1,0.4c3.1,11.4-2.3,20-16,25.4
	c-38.5,13.3-91.1,23.4-108.4,26.6l-2.6,0.5c-33.8,5.7-40.3-4.4-45.7-12.5c-0.6-0.9-1.2-1.9-1.8-2.7c-5.1-7.3-20.3-37.4-24.6-70.4
	c-4-28.8,6.2-48.2,11.1-57.5l1.1-2.1c4.9-9.5,23.4-53.7,27.9-66.6l0.5-1.3c3.6-10.2,14.5-41.5,7.4-73.5
	c-2.4-10.2-6.8-19.9-13.2-28.2c-15.1-20.1-30.7-29.2-47.8-27.6h-0.3c-31.9,4.3-37.1,43.2-37.3,44.8c0,0.3-4.4,33.8-5.5,40.8
	c-0.9,5.6-18.9,136.4-20.7,170.3c-1.9,16.9-1.2,87.8-1.1,92.6c-1.7,55.7,14.2,113.8,18.5,126.4c6.3,18.2,78.8,192.7,93.8,228.7
	c2.8,6.6,5.8,13.2,9,19.7l8.1,16.4c3.9,7.8,8.2,15.4,13,22.6c15,22.8,50.6,76.8,58.4,87.1l0.3,0.4c16.8,19,49.3,30.1,96.5,33.1
	c2.8,0.3,5.5,0.5,8.3,0.5c4.4,0,8.9-0.4,13.2-1.3c11.2-2.4,21.2-8.8,28.1-18.1c5.3-7,15.1-20.2,21.3-28.9
	c3.8-5.6,8.7-10.3,14.3-14.1c3.8-2.5,7.8-4.5,12-6.1c29.7-11.4,60.3-20.3,91.4-26.7c12.3-2.3,25.6-4.5,41.5-3.9
	c25.9,1.2,39.4,20.8,47.5,32.6c0.9,1.4,1.9,2.7,2.7,3.8l0.4,0.6c22.4,25.2,49.9,18.5,61.9,8.4c3.6-3.1,8.5-8.5,14.1-14.9
	c7-7.9,15.6-17.7,20.8-20.9c19.5-11.9,41-43.3,41.9-44.6l0.1-0.1c0.1-0.2,10.5-15.9,22.4-20.8c14.9-6.2,23.2-20.3,24.8-23.2
	c9.4-13.3,16-30.7,19.9-42.9c4.7-14.7,5.7-30.3,2.8-45.5c-0.6-3.7-1.7-7.3-3.2-10.7c-9.3-24.5-10.3-36.8-10.1-45.5
	c1.2-24.2,8.4-33.5,15.9-43.4l2.1-2.7c1.5-2,3.6-4.6,6-7.6c12-15.1,30.2-37.8,34.2-53.4c2.1-6.5,2.7-12.7,3.5-20.6
	c0.6-6.4,1.4-14.3,3.3-24.7c1.9-11.2,6.1-21.9,12.3-31.3c3.5-5.3,6.7-10.7,9.5-16.4c2.1-4.1,4.8-8.8,7.5-13.3
	c3.8-6.6,7.2-12.3,8.7-16.4l0.2-0.6C1402.3,410,1400.6,394.3,1392,381.7z"/>
</svg>
