<?xml version="1.0" encoding="utf-8"?>
<!-- Generator: Adobe Illustrator 27.0.0, SVG Export Plug-In . SVG Version: 6.00 Build 0)  -->
<svg version="1.1" id="Layer_1" xmlns="http://www.w3.org/2000/svg" xmlns:xlink="http://www.w3.org/1999/xlink" x="0px" y="0px"
	 viewBox="0 0 1920 1080" style="enable-background:new 0 0 1920 1080;" xml:space="preserve">
<style type="text/css">
	svg {height: 100%;width: 100%;}.track-surface {fill: none;stroke: white;stroke-width: 30;}
</style>
<path class="track-surface" d="M1732.6,419.6c-7.7-38.6-30.1-112.8-93.3-175.3c-29.7-29.4-64.9-52.4-104.6-68.4
	c-45.1-18.2-96.5-27.6-152.8-27.9c-120.6-0.7-321.3,4-498.4,8c-105,2.4-204.1,4.7-274.9,5.6c-103.9,1.4-191.4,20.4-260.2,56.8
	c-49,25.9-87.9,60.6-115.5,103C200.6,371.2,183.1,432.2,181,503c-1.9,62.4,11.7,115.8,41.5,163.3c18.5,29.4,43.4,56.5,74.2,80.6
	c34.1,26.7,76.3,50.6,125.5,71c133.1,55.2,191.6,72.7,248.3,89.7c10.5,3.2,21.4,6.4,32.5,9.8c23.3,7.2,52.5,14.6,92,14.6
	c0.6,0,1.1,0,1.7,0c12.8-0.1,27.3-0.1,42.8-0.2c90-0.4,213.2-0.8,280.3-3.9c3.7-0.2,7.4-0.3,10.8-0.4c26.4-0.8,51.3-1.7,114.5-23.5
	c66-22.9,260.7-102.1,262.6-102.9l0.1-0.1c2.8-1.2,70-30.1,131.7-91.5c36.5-36.2,63.4-76.2,79.9-118.8
	C1740.2,537.4,1744.6,479.8,1732.6,419.6z"/>
</svg>
