<?xml version="1.0" encoding="utf-8"?>
<!-- Generator: Adobe Illustrator 27.0.1, SVG Export Plug-In . SVG Version: 6.00 Build 0)  -->
<svg version="1.1" id="gp_-_config" xmlns="http://www.w3.org/2000/svg" xmlns:xlink="http://www.w3.org/1999/xlink" x="0px"
	 y="0px" viewBox="0 0 1920 1080" style="enable-background:new 0 0 1920 1080;" xml:space="preserve">
<style type="text/css">
	.track-surface{fill:none;stroke:#FFFFFF;stroke-width:30;stroke-miterlimit:10;}
</style>
<path class="track-surface" d="M1609.7,615.6c-1.5-4.1-2.8-7.7-3.7-10.5c-0.4-1.2-0.4-1.2-2.1-6.7c-1.8-6-5.7-18.6-14.3-46.4
	c-1-3.2-1.9-6.1-2.7-8.8c-5.2-17-8-26.4-15.9-37.3c-0.2-0.3-0.4-0.6-0.7-1c-5.9-8.9-13.7-16.3-22.9-21.8
	c-16.1-9.7-37-14.3-61.9-13.8c-18.5,0.4-59.7,2.3-107.4,4.4c-50.5,2.3-107.8,4.9-155.6,6.6l-23.8,0.8c-44.7,1.5-112.2,3.8-149.8,6.1
	l-1.4,0.1c-21.3,1.3-38.1,2.3-71.9,16.2c-16.3,6.7-31.5,15.8-45,26.9l-0.1,0.1c-6.5,5.4-8.9,8.2-20.7,21.9c-5.5,6.3-13,15-24,27.5
	c-16.7,19-18.8,21.1-23.1,23.8c-17.1,11.1-35.2,11.7-42.2,11.4c-11.9-0.4-23.5-3.8-33.9-9.8c-9.6-5.9-15.3-12.9-25.4-27.5
	c-17.8-25.8-29.9-47.3-33.9-54.3l-0.3-0.6c-7-12.4-14.1-23.7-20.3-33.7c-25.4-40.8-40.7-65.3-24.8-105c8-19.9,24.1-29.8,29.4-33.1
	l1.2-0.8c21.3-13.7,39.4-10.9,72.4-5.8c11.8,1.8,25.1,3.9,40.7,5.5c8.2,0.8,19.4,2.6,32.4,4.6c41.2,6.4,97.6,15.2,133.6,6.7
	c75.7-17.9,112.9-60.6,119.6-69c2.3-2.9,4.5-5.6,6.6-8.2c16.8-20.6,31.3-38.3,30.5-66c-0.5-18.1-17.1-33.4-37-34.2
	c-24.1-1-81.7-2.5-108.2-2.9c-42.9-0.6-78.8-2.1-95.4-3.3c-34.6-2.5-61-6.1-76.7-8.2c-19.8-2.7-33.3-4.9-96.1-16.1
	c-29-5.1-48.4-8.6-62.2-11.1c-26.4-4.7-32.7-5.8-47.1-8.1c-47.8-7.6-70.1-10.3-99.4-12.2c-22.7-1.5-74.1-1.5-120.8,1.2
	c-93,5.3-105.5,17-109.6,20.9c-4.5,4.2-5.4,8.6-5.4,11.6c0,11.2,12.9,24.7,49.9,60.4c8.2,7.9,16.6,16,24.8,24.2
	c14.4,14.4,27.1,25.9,39.4,37c14.8,13.4,28.8,26,42.7,41.3c18.2,19.9,35.1,40.9,50.7,62.9c20.7,29.8,33,53.7,51.6,89.8
	c11.1,21.6,16.4,33.1,22.4,46.5c5.8,12.8,12.5,27.3,25.6,53.7c19.7,39.8,29.6,59.8,46,87.5c18.7,31.6,34.1,53.3,57.3,86.1
	c8.5,12.1,31.8,44.4,63,84.7c10.2,13,17.4,22.1,23.3,29.4c12,15,16.4,20.6,23.2,32.2c2.8,4.8,12.5,21.6,21.9,36.6
	c16.1,25.6,19.8,28.2,24.1,29.4c1.7,0.4,3.4,0.6,5.1,0.6c14.2,0,40.3-9.1,40.6-9.2l0,0c45.2-16,92.4-29,138-41.6
	c27.8-7.7,56.6-15.7,84.8-24.2c9.1-2.8,10.7-3.2,20.7-6c13.6-3.8,42-11.9,124.2-35.6c96.9-28,119.4-34.7,126.8-36.9
	c3.5-1,3.5-1.1,6.5-1.8c39.3-10.4,134.5-37,169.2-59.4l2.5-1.6c35.5-22.4,52-36.9,54.9-48.8C1632,681.8,1624.5,657.1,1609.7,615.6z"
	/>
</svg>
