<?xml version="1.0" encoding="utf-8"?>
<!-- Generator: Adobe Illustrator 27.0.1, SVG Export Plug-In . SVG Version: 6.00 Build 0)  -->
<svg version="1.1" id="national_-_config" xmlns="http://www.w3.org/2000/svg" xmlns:xlink="http://www.w3.org/1999/xlink" x="0px"
	 y="0px" viewBox="0 0 1920 1080" style="enable-background:new 0 0 1920 1080;" xml:space="preserve">
<style type="text/css">
	.track-surface{fill:none;stroke:#FFFFFF;stroke-width:30;stroke-miterlimit:10;}
</style>
<path class="track-surface" d="M587.2,878.1c-2.4,0.1-4.8-0.2-7.1-0.8c-5.9-1.7-11.1-5.2-33.3-40.6c-13-20.7-26.5-43.9-30.2-50.5
	c-9.3-16.1-15.5-23.9-32-44.6c-8.1-10.1-18.2-22.8-32.1-40.7c-43.2-55.7-75.4-100.4-87.1-117.1c-32.1-45.4-53.4-75.4-79.2-119.1
	l-0.1-0.2c-12.1-21.4-17.6-45.7-15.5-68.4c2.3-24.7,13.1-46.2,31.1-62.1c19.8-17.4,48.3-26,76.4-23c28.4,3,54.1,17.9,70.8,41.1
	l0.2,0.3c13.8,20.1,21.8,29.8,35.1,38c14.2,8.3,30.3,12.9,46.8,13.5c9.7,0.4,34.7-0.5,58.3-15.8c5.9-3.8,8.8-6.6,31.9-33
	c15.2-17.2,25.5-29.3,33.1-38.1c16.4-19,19.8-22.9,28.7-30.3l0.2-0.1c18.8-15.5,39.8-28,62.3-37.3c46.8-19.2,70-20.6,99.5-22.4
	l1.9-0.1c51.9-3.2,145.3-6.4,207.1-8.5l32.9-1.1c66.2-2.3,145.4-5.9,215.2-9.1c66-3,122.9-5.6,148.5-6.1c34.5-0.8,63.3,5.6,85.6,19
	c12.7,7.5,23.5,17.8,31.7,30.1c0.4,0.5,0.7,1,0.9,1.3c10.9,15.1,14.9,28.1,22,51.6c1.1,3.7,2.3,7.8,3.7,12.2
	c11.9,38.4,17.2,55.8,19.7,64.2c2.3,7.6,2.3,7.6,2.9,9.3c1.3,3.9,3.1,8.8,5.1,14.5c20.5,57.4,30.9,91.4,27,107.3
	c-4,16.4-26.7,36.6-75.8,67.5l-3.4,2.1c-47.9,30.9-179.6,67.7-233.9,82.1c-4.1,1.1-4.2,1.1-9,2.5c-10.3,3.1-41.4,12.4-175.4,51
	c-113.8,32.8-152.9,43.9-171.8,49.2c-13.8,4-16,4.5-28.6,8.4c-38.9,11.8-78.7,22.8-117.2,33.5c-63.1,17.4-128.3,35.5-190.8,57.5
	C642.9,865.5,606.9,878.1,587.2,878.1z"/>
</svg>
