<?xml version="1.0" encoding="utf-8"?>
<!-- Generator: Adobe Illustrator 27.0.0, SVG Export Plug-In . SVG Version: 6.00 Build 0)  -->
<svg version="1.1" id="Layer_1" xmlns="http://www.w3.org/2000/svg" xmlns:xlink="http://www.w3.org/1999/xlink" x="0px" y="0px"
	 viewBox="0 0 1920 1080" style="enable-background:new 0 0 1920 1080;" xml:space="preserve">
<style type="text/css">
	svg {height: 100%;width: 100%;}.track-surface {fill: none;stroke: white;stroke-width: 30;}
</style>
<path class="track-surface" d="M1588.3,469.1c-0.7-1.2-1.5-2.3-2.1-3.5c-9.4-15.4-20.8-29.8-29.2-40.2l-2.2-2.8
	c-12.9-16.2-21.6-22.1-30.8-28.2c-2.2-1.6-4.7-3.1-7.1-4.9c-17.4-12.3-43.2-28.6-76.8-48c-31-18-62.9-4.7-73,11.5
	c-11.9,18.9-9.6,34.7-5.6,44.7c6.9,17.4,23.4,28.8,35.9,32c8.4,2.1,22.6,4.7,34.2,6.6c4,0.7,7.7,1.4,10.6,1.8
	c13.8,2.5,17.5,9.3,19.2,14.9c2.3,7.9-5.4,20.7-11.5,24c-6.7,3.7-16,9-25.8,14.8c-11.9,6.9-24.2,14-32.2,18.3
	c-16.9,8.9-31.6,10.9-43.7,5.8c-11.5-4.8-18-14.8-20.9-20.2c-6.9-13.1-17.4-33.8-27.6-53.8c-7.3-14.3-14.1-27.8-19-37.4
	c-19.4-37.5-49.7-37.5-64.2-37.5c-18.4,0-40.9-0.5-64.7-1.1c-24.2-0.6-49.2-1.2-71.7-1.3c-19-0.1-30.3,1.7-39.4,11.1
	c-3.5,3.7-10.5,11.2-14.1,15.3c-7.2,8.2-13.9,12.6-19.4,12.8c-6.4,0.3-12-4.9-16.8-9.5c-1-0.9-1.8-1.7-2.7-2.5
	c-99.8-87.9-150.8-135.3-191.7-173.3c-24.4-22.6-45.4-42.3-70.4-64.3c-24.6-21.8-52.6-31.2-81.1-27.1c-27.5,3.9-47.5,18.8-54.8,25
	c-25.3,21.4-22.5,50.9-12.6,65.1c3.4,4.8,10.4,13.6,14.3,17.9c4,4.5,4.5,6.7,4.6,7.2c-0.4,0.7-2,1.9-3,2.6l-0.2,0.1
	c-1.7,1.3-4.2,3.1-6.7,5.1c-4.4,3.3-9.2,7-12.1,9c-5.8,4.2-12.8,9.1-20.4,14.6c-26.6,18.9-63.2,44.8-85.3,62.6
	c-25.2,20-51.8,31.8-68.4,36.1c-49.7,13.1-67.4,34.3-73.7,45.7c-9.7,18-12,36.2-6.9,54.1c4.8,16.4,14.8,28.7,22.3,36
	c22.1,21.5,65.4,56.7,90.9,73.9l31.6,21.3c101.9,68.7,255.9,172.6,340.8,228.2c24.3,15.9,30.3,26.7,35.3,38.3
	c1.1,2.4,2.3,5.5,3.6,8.8c5.4,13.5,12.1,30.2,18.9,39.3c18,24.2,32.4,29.8,48.4,30.9c30.5,1.9,47.7-10.2,60.3-19.1
	c0.9-0.6,1.7-1.2,2.5-1.7c15.9-11.1,32.9-13.4,52.2-7.2c14.8,4.8,41.5,15.7,53.8,22.6c12.8,7.2,26,10.8,39.5,10.8
	c12.4,0,25.1-3.1,37.3-9.4c20.2-10.4,40.1-15.3,61-14.9c17.4,0.3,39.2,1.4,60.1,2.3c29.4,1.4,60,2.7,80.2,2.3
	c48.5-1,104.8-8.4,148.5-14.7c39-5.6,65.2-18.1,80.4-38c13.3-17.4,15.2-36.9,15.2-53.6l0.1-25.7c0.3-80.1,0.8-200.9,1.7-266.1
	C1604.1,494.4,1596.4,482.2,1588.3,469.1z"/>
</svg>
