<?xml version="1.0" encoding="utf-8"?>
<!-- Generator: Adobe Illustrator 27.0.1, SVG Export Plug-In . SVG Version: 6.00 Build 0)  -->
<svg version="1.1" id="gp_-_config" xmlns="http://www.w3.org/2000/svg" xmlns:xlink="http://www.w3.org/1999/xlink" x="0px"
	 y="0px" viewBox="0 0 1920 1080" style="enable-background:new 0 0 1920 1080;" xml:space="preserve">
<style type="text/css">
	.st0{fill:none;stroke:#FFFFFF;stroke-width:30;stroke-miterlimit:10;}
</style>
<path class="st0" d="M1192.7,975.2c-15.5,0-30.9,0-44.3-0.1c-11.8,0-21.6,0-28.1,0l0,0c-54.2,0.1-171-0.6-264.8-1.1
	c-58.5-0.3-108.9-0.6-127.1-0.6c-15.3,0-34.8,0-54.6,0c-41,0-83.4,0.1-95.2,0c-14.1-0.2-28.3-10.7-33-24.5
	c-4.3-12.6,0-25.1,11.8-34.4c21.2-16.8,50.7-37.5,65.8-44.8l2.2-1c14.7-7.2,45.4-22.1,92.2-24.7c30.8-1.7,72.6-0.8,106.2,0
	c18.9,0.4,35.1,0.8,46,0.7c6.3-0.1,12.2-0.1,17.3,0c12,0,21.5,0.1,29.1-1.4c16.4-3.2,23.4-11,26.9-29.8
	c4.1-21.9-13.8-33.2-29.5-38.8c-8.1-2.9-29.2-11.6-49.7-20.1c-8.1-3.4-16-6.6-22.6-9.4c-19.8-8.1-26.6-26.2-30.4-41
	c-4.5-17.9-9.4-42.2-13.4-61.7c-2.2-10.8-4.1-20.2-5.6-27.1c-4-18.1-41.9-193-44-217.3c-1.3-15.1-0.6-48.3,0.2-73.6
	c0.2-7.6-3.3-14.8-9.5-19.3c-35.3-25.7-101.8-74.8-112.9-83.5c-20.8-16.3-36.9-55.2-13.2-85.9c22.2-28.7,56.7-31,96.3-31l0,0
	c32.3,0,111.2,13.4,155.4,21.4c7.8,1.4,14.8,6,19.1,12.7c4.3,6.7,5.7,14.9,3.8,22.6l-1,4.1c-1,3.9,0.5,8,3.6,10.5
	c14,10.9,24.9,19.2,30.7,23.3c8.9,6.2,46.8,34.6,68.7,51c7,5.3,16.4,6.1,24.2,2.1c13-6.6,22.3-11.8,26.9-15
	c5.7-3.9,17.6-10.7,31.9-18.2c28.3-14.9,58.5-6.1,75.2,21.7c2.6,4.3,4.7,8.2,6.8,12c1.1,2.1,2.3,4.2,3.5,6.3c2,3.6,5.5,9.8,9.4,17
	c11.4,20.6,30.4,55.1,36.9,64.5l0.5,0.7c8.3,12,16.9,24.5,48.2,33.8l6,1.8c35.5,10.6,72.3,21.6,87.3,31.7
	c14.1,9.5,30.7,27.4,29.9,59.2c-0.6,25.1-7.5,142.5-9,163.7c-0.6,8.9-2.3,34.7-4,62.1c-2.3,37.3-4.8,75.8-5.3,81
	c-0.5,5.2-2,20.6-13,29.4c-6.2,5-14.1,7-23.5,5.8c-10.8-1.3-28.9-4.5-46.4-7.6c-18.6-3.3-37.8-6.7-46-7.4c-18.7-1.7-63-2.2-70.1-0.4
	c-4.9,1.2-20.8,6.4-21,23.9c-0.2,23.5,20,27.3,32.1,27.5c10.9,0.2,28.1-0.2,46.2-0.6c25.7-0.6,52.3-1.1,65.5-0.2
	c13.8,0.9,28.6,7.5,39.6,17.5c13.3,12,20.9,29.1,20.8,47c0.2,39.7-28.5,62.5-56.9,64.5C1271.5,975,1231.5,975.2,1192.7,975.2z"/>
</svg>
