<?xml version="1.0" encoding="utf-8"?>
<!-- Generator: Adobe Illustrator 27.0.1, SVG Export Plug-In . SVG Version: 6.00 Build 0)  -->
<svg version="1.1" id="hickory_-_config" xmlns="http://www.w3.org/2000/svg" xmlns:xlink="http://www.w3.org/1999/xlink" x="0px"
	 y="0px" viewBox="0 0 1920 1080" style="enable-background:new 0 0 1920 1080;" xml:space="preserve">
<style type="text/css">
	.track-surface{fill:none;stroke:#FFFFFF;stroke-width:30;stroke-miterlimit:10;}
</style>
<path class="track-surface" d="M917.3,907.4c4.4,0,8.8,0,13.2,0c4.4,0,9,0.1,13.5,0.2c9,0.2,18,0.4,26.9,0.4c17.9,0,35.8-0.1,53.6-0.2
	s35.5-0.3,53.2-0.7c17.7-0.4,35.3-1,52.7-1.9c17.5-0.9,34.9-2.1,52.2-3.6s34.4-3.4,51.4-5.9c17-2.5,33.7-5.5,50.2-9.1
	c8.3-1.8,16.4-3.8,24.5-5.9l12.1-3.3c4-1.2,8-2.4,11.9-3.7c15.7-5.1,31-11,46.1-17.7c14.8-6.7,29.1-14.4,42.9-23.1
	c13.7-8.5,26.8-18.1,39-28.7c12.2-10.7,23.6-22.3,34.1-34.7c21.1-24.9,38.2-53.8,51.7-84.6l2.5-5.8l2.4-5.9
	c1.6-3.9,3.2-7.8,4.6-11.8c3-7.9,5.7-15.9,8.2-23.8l3.2-11.5l0.8-2.9c0.2-1,0.4-2,0.6-2.9l1.2-5.9l1.2-5.9c0.2-1,0.4-2,0.5-3l0.4-3
	c0.5-4,1.2-8,1.7-12c1.6-16.2,2-32.4,1.1-48.6c-1.2-16.3-3.6-32.5-7.1-48.5c-3.8-16-8.6-31.8-14.4-47.3c-1.5-3.8-3.1-7.6-4.7-11.5
	c-0.8-1.9-1.5-3.8-2.4-5.7l-2.6-5.6l-2.6-5.6c-0.9-1.9-1.7-3.7-2.7-5.6l-5.8-11c-31.9-58-79.4-107.7-135.9-140.3l-5.3-3.1
	c-1.8-1-3.6-1.9-5.4-2.8c-3.6-1.8-7.2-3.7-10.9-5.5l-11.1-5l-2.8-1.2c-0.9-0.4-1.9-0.7-2.8-1.1l-5.7-2.1l-5.7-2.2l-1.4-0.5l-1.4-0.5
	l-2.9-0.9l-11.5-3.6c-7.6-1.8-14.5-4-23.3-5.3l-52.4-9.5l-52.5-9.3c-70-12.3-140-23.1-210-29.9c-70.1-6.1-140.3-8.7-209.5-3.7
	c-17.3,1.2-34.5,2.8-51.6,5.2c-17.1,2.3-34.1,5-50.8,8.4c-33.5,7-66.4,16.2-97.6,28.9l-5.9,2.4c-2,0.8-3.9,1.7-5.8,2.5l-5.8,2.5
	c-1.9,0.8-3.9,1.7-5.7,2.6l-11.3,5.4l-11.1,5.8c-14.7,7.9-28.8,16.7-42.4,26.4c-13.5,9.6-26.4,20.1-38.5,31.5l-4.6,4.3
	c-1.5,1.4-2.9,2.9-4.4,4.4l-4.4,4.4l-2.2,2.2c-0.7,0.7-1.4,1.5-2.1,2.3l-8.3,9.2l-7.9,9.6c-10.4,13-20.1,26.5-28.8,40.7
	c-2.2,3.6-4.2,7.2-6.4,10.8c-1,1.8-2.1,3.6-3.1,5.4l-2.9,5.5l-2.9,5.5l-1.5,2.8l-1.3,2.8l-5.3,11.1c-6.3,14.9-11.4,30.3-15.2,46
	c-3.9,15.9-6.6,32.2-8,48.5l-0.6,6.1c-0.2,2.1-0.2,4.1-0.3,6.2l-0.3,6.2l-0.1,3.1v3.1v12.4l0.5,12.4c1,16.5,3,33,6.1,49.2l2.5,12.2
	l3,12.1l0.8,3l0.9,3l1.8,6c0.6,2,1.1,4,1.8,6l2,5.9c5.2,15.7,11.5,31,18.9,45.9c7.3,14.8,15.7,29.1,24.9,42.7
	c9.3,13.5,19.5,26.4,30.6,38.5l4.2,4.5l2.1,2.2c0.7,0.7,1.5,1.4,2.2,2.2l8.7,8.5l9.1,8.1c1.5,1.4,3.1,2.6,4.7,3.9l4.7,3.8
	c1.6,1.2,3.1,2.6,4.8,3.7l5,3.6l5,3.6c0.8,0.6,1.7,1.2,2.6,1.8l2.7,1.7l10.6,6.9l5.4,3.5c1.8,1.1,3.6,2.4,5.3,3.4
	c27.7,16.9,58.5,29.4,90.7,38.2s66,14.1,100.3,17.3c34.3,3.2,69.2,4.4,104.5,4.8c17.6,0.2,35.3,0.2,53.2,0.1l26.8-0.1L917.3,907.4z"
	/>
</svg>
