<?xml version="1.0" encoding="utf-8"?>
<!-- Generator: Adobe Illustrator 27.0.0, SVG Export Plug-In . SVG Version: 6.00 Build 0)  -->
<svg version="1.1" id="Layer_1" xmlns="http://www.w3.org/2000/svg" xmlns:xlink="http://www.w3.org/1999/xlink" x="0px" y="0px"
	 viewBox="0 0 1920 1080" style="enable-background:new 0 0 1920 1080;" xml:space="preserve">
<style type="text/css">
	svg {height: 100%;width: 100%;}.track-surface {fill: none;stroke: white;stroke-width: 30;}
</style>
<path class="track-surface" d="M1588.4,469.2c-0.7-1.2-1.5-2.3-2.1-3.5c-9.4-15.4-20.8-29.8-29.2-40.2l-2.2-2.8c-12.9-16.2-21.6-22-30.8-28.1
	c-2.3-1.6-4.7-3.1-7.1-4.9c-17.5-12.4-42.7-28.2-76.8-48c-17.9-10.4-34-9.6-44.4-7.2c-12.2,2.9-23.2,10-28.6,18.6
	c-11.9,18.9-9.6,34.7-5.6,44.7c6.9,17.4,23.4,28.8,35.9,32c8.4,2.1,22.6,4.7,34.1,6.6c4.1,0.7,7.7,1.4,10.6,1.8
	c13.8,2.5,17.4,8.9,19.2,14.9c2.3,7.9-5.4,20.7-11.5,24c-6.7,3.7-16.1,9.1-26,14.9c-11.9,6.9-24,14-32,18.2
	c-15.4,8.2-29.1,10.5-40.5,7c-13.3-4.1-20.8-15.2-24.1-21.4c-6.9-13.1-17.4-33.8-27.6-53.8c-7.3-14.3-14.1-27.8-19-37.4
	c-19.4-37.5-49.7-37.5-64.2-37.5c-28.5,0-66.9-0.9-104.2-1.7c-11-0.2-21.9-0.5-32.1-0.7c-12.8-0.3-31.9-0.9-50.3-1.5
	c-17.2-0.6-35-1.2-48.5-1.5c-24.3-0.6-33.2-6.4-42.4-14.1c-54.3-45.6-211.5-192-213.2-193.5l-0.2-0.2
	c-24.6-21.8-52.6-31.2-81.1-27.1c-27.4,3.9-47.4,18.8-54.8,25c-16.4,13.8-20.4,38.1-21.6,72.8c-0.1,1.8-0.1,3.8-0.1,5.7
	c-0.1,14.2-0.3,30.3-14.8,41.9c-15.4,12.4-43.4,33.4-66.1,50.3c-7.2,5.3-13.7,10.3-18.9,14.2l0,0c-25.9,19.5-52.5,31.1-68.6,35.4
	c-49.7,13.1-67.4,34.3-73.7,45.7c-9.7,18-12,36.2-6.9,54.1c4.8,16.4,14.8,28.7,22.3,36c22.1,21.5,65.4,56.7,90.9,73.9l24.4,16.4
	c104,70.2,261.1,176.1,348.1,233c24.3,15.9,30.3,26.7,35.3,38.3c1.1,2.4,2.3,5.6,3.7,8.9c5.4,13.4,12.1,30.1,18.8,39.2
	c18,24.2,32.4,29.8,48.4,30.9c30.5,1.9,47.7-10.2,60.3-19.1c0.9-0.6,1.7-1.2,2.5-1.7c15.9-11.1,32.9-13.4,52.2-7.2
	c14.8,4.8,41.5,15.6,53.8,22.6c12.8,7.2,26,10.8,39.4,10.8c12.5,0,25.1-3.1,37.3-9.4c20.2-10.4,40.2-15.3,61-14.9
	c17.6,0.3,39.5,1.4,60.8,2.3c29.2,1.4,59.5,2.7,79.5,2.3c48.6-1,104.8-8.4,148.5-14.7c39-5.6,65.2-18.1,80.4-38
	c13.3-17.4,15.2-36.9,15.2-53.6l0.1-24c0.3-80.6,0.8-202.2,1.7-267.9C1604.2,494.5,1596.6,482.3,1588.4,469.2z"/>
</svg>
