<?xml version="1.0" encoding="utf-8"?>
<!-- Generator: Adobe Illustrator 27.0.1, SVG Export Plug-In . SVG Version: 6.00 Build 0)  -->
<svg version="1.1" id="International_Reverse_-_Config"
	 xmlns="http://www.w3.org/2000/svg" xmlns:xlink="http://www.w3.org/1999/xlink" x="0px" y="0px" viewBox="0 0 1920 1080"
	 style="enable-background:new 0 0 1920 1080;" xml:space="preserve">
<style type="text/css">
	.track-surface{fill:none;stroke:#FFFFFF;stroke-width:30;stroke-miterlimit:10;}
</style>
<path class="track-surface" d="M1757.9,386.7c-0.6-20.7-9.7-36.1-27.3-45.8c-14-7.8-31.5-10.9-48.3-13.9c-1.6-0.3-3.2-0.6-4.7-0.9
	c-7.3-1.3-15.2-2.7-23.5-4.2c-29.4-5.3-66.1-11.8-100.5-19.6c-39-8.8-71.4-42.8-92.8-65.4l-3-3.2c-4.9-5.2-12.9-15.4-23.6-30.4
	c-14.4-20.1-37.5-32.1-62.2-32.4c-28.7-0.3-67.4-0.6-88.8-0.3c-41.2,0.6-83.3,0.8-125.2,0.8c-31,0-49.3-0.3-70.4-0.5
	c-18.9-0.2-40.3-0.5-75-0.6c-85.1-0.4-127.8-0.7-161,0.8c-11.2,0.5-17.6,0.8-34.8,1.8c-16.7,1-44.6,2.6-98.1,5.5
	c-11.5,0.6-22.1,1.1-31.4,1.7l-25.7,1.4c-47.2,2.6-111.3,5.5-179.2,8.6c-90.5,4.1-184.1,8.4-242.7,12.2c-45.9,3-71.7,15.6-76.8,37.5
	c-5.8,24.7,18.7,49.3,36.6,59.7c28.9,16.9,181,84.1,303.1,138.1l18.7,8.3c118.4,52.4,192.1,92.4,262.9,142.9
	c72.3,51.6,126.4,114.1,150.8,151.9c18.6,29,31.3,59.3,43.6,88.6c4.7,11.2,9.5,22.7,14.5,33.9c17.2,38,54.7,47,92.3,47
	c10.8,0,21.6-0.7,31.9-1.8c51.2-5.1,144.2-26.5,171.5-32.9c33.9-8,198.2-54.7,246.7-76.8c25.1-11.5,39.4-20.8,47.7-31.3
	c9.2-11.5,10.3-23.3,10.7-35.3c0.6-18.1,7-25.1,20.9-40.1l0.5-0.5c6.4-6.9,22.9-20.1,40.6-34.1c20.8-16.5,44.4-35.2,58.2-49.3
	c23.2-23.6,26-47.9,28.5-69.3c0.5-4.4,1-8.7,1.7-12.7C1744.8,522.1,1759.1,432.4,1757.9,386.7z"/>
</svg>
