<?xml version="1.0" encoding="utf-8"?>
<!-- Generator: Adobe Illustrator 27.0.1, SVG Export Plug-In . SVG Version: 6.00 Build 0)  -->
<svg version="1.1" id="International_Reverse_-_Config"
	 xmlns="http://www.w3.org/2000/svg" xmlns:xlink="http://www.w3.org/1999/xlink" x="0px" y="0px" viewBox="0 0 1920 1080"
	 style="enable-background:new 0 0 1920 1080;" xml:space="preserve">
<style type="text/css">
	.st0{fill:none;stroke:#FFFFFF;stroke-width:30;stroke-miterlimit:10;}
</style>
<path class="st0" d="M1748.9,388.4c-0.5-20.5-9.6-35.7-27-45.3c-13.9-7.7-31.1-10.8-47.8-13.8c-1.6-0.3-3.1-0.6-4.7-0.9
	c-7.2-1.3-15-2.7-23.3-4.2c-29.1-5.2-65.3-11.7-99.3-19.4c-38.5-8.7-70.6-42.3-91.8-64.6l-3-3.1c-4.9-5.1-12.7-15.2-23.3-30.1
	c-14.2-19.9-37.1-31.8-61.5-32.1c-28.3-0.3-66.6-0.6-87.8-0.3c-40.7,0.6-82.4,0.8-123.8,0.8c-30.6,0-48.7-0.3-69.6-0.5
	c-18.7-0.2-39.8-0.5-74.1-0.6c-84.1-0.4-126.4-0.6-159.2,0.8c-11.1,0.5-17.4,0.8-34.4,1.8c-16.5,1-44.1,2.6-97,5.4
	c-11.3,0.6-21.8,1.1-31.1,1.7l-25.4,1.4c-46.6,2.6-110.1,5.5-177.2,8.5c-89.5,4.1-182,8.3-239.9,12.1c-45.3,3-70.9,15.4-76,37
	c-5.8,24.4,18.5,48.7,36.1,59.1c28.6,16.7,178.9,83.2,299.7,136.6l18.5,8.2c117.1,51.8,190,91.4,259.9,141.3
	c71.5,51,125,112.8,149.1,150.2c18.4,28.6,30.9,58.6,43.1,87.6c4.6,11.1,9.4,22.5,14.4,33.5c17,37.5,54.1,46.5,91.3,46.5
	c10.7,0,21.4-0.7,31.6-1.7c50.6-5,142.6-26.2,169.5-32.5c33.5-7.9,195.9-54.1,243.9-76c24.8-11.3,38.9-20.6,47.2-30.9
	c9.1-11.3,10.2-23,10.6-34.9c0.6-17.9,6.9-24.8,20.7-39.7l0.5-0.5c6.3-6.8,22.7-19.9,40.1-33.7c20.6-16.3,43.9-34.8,57.5-48.7
	c22.9-23.4,25.7-47.4,28.1-68.5c0.5-4.4,1-8.6,1.6-12.6C1735.9,522.3,1750.1,433.6,1748.9,388.4z"/>
</svg>
