<?xml version="1.0" encoding="utf-8"?>
<!-- Generator: Adobe Illustrator 27.0.1, SVG Export Plug-In . SVG Version: 6.00 Build 0)  -->
<svg version="1.1" id="National_-_Config" xmlns="http://www.w3.org/2000/svg" xmlns:xlink="http://www.w3.org/1999/xlink" x="0px"
	 y="0px" viewBox="0 0 1920 1080" style="enable-background:new 0 0 1920 1080;" xml:space="preserve">
<style type="text/css">
	.st0{fill:none;stroke:#FFFFFF;stroke-width:30;stroke-miterlimit:10;}
</style>
<path class="st0" d="M1687.9,372.5c-0.6-22.6-10.6-39.5-29.8-50c-15.3-8.5-34.4-11.9-52.8-15.2c-1.7-0.3-3.5-0.6-5.2-0.9
	c-8-1.5-16.6-3-25.7-4.6c-32.2-5.7-72.2-12.9-109.8-21.4c-42.6-9.6-78-46.8-101.4-71.4l-3.3-3.5c-5.4-5.6-14.1-16.8-25.8-33.2
	c-15.7-21.9-41-35.1-68-35.4c-31.3-0.4-73.6-0.7-97-0.4c-45,0.6-91,0.9-136.8,0.9c-33.8,0-53.9-0.3-76.9-0.6
	c-20.6-0.2-44-0.5-81.9-0.7c-93-0.5-139.6-0.7-175.9,0.9c-12.2,0.5-19.3,0.9-38,2c-18.2,1.1-48.8,2.8-107.2,6l-34.3,1.8l-28.1,1.5
	c-41.3,2.3-96.2,4.9-144.4,7.1c-55.1,2.8-81.8,27.7-98.2,91.9l-12.2,54.7c-11.4,43.9,7.9,93.8,42.2,109
	c152,67.2,278.3,133.6,346.5,182.3c79,56.4,138.1,124.6,164.8,166c20.4,31.6,34.2,64.7,47.6,96.8c5.1,12.2,10.4,24.8,15.9,37
	c18.8,41.5,59.8,51.4,100.8,51.4c11.8,0,23.6-0.8,34.9-1.9c55.9-5.6,157.5-28.9,187.3-36c37.1-8.8,216.5-59.7,269.5-83.9
	c27.4-12.5,43-22.7,52.1-34.2c10-12.5,11.3-25.4,11.7-38.6c0.7-19.8,7.6-27.4,22.9-43.8l0.5-0.6c7-7.5,25.1-22,44.3-37.2
	c22.7-18,48.5-38.5,63.6-53.9c25.3-25.8,28.4-52.3,31.1-75.7c0.6-4.9,1.1-9.5,1.8-13.9C1673.5,520.5,1689.2,422.5,1687.9,372.5z"/>
</svg>
