<?xml version="1.0" encoding="utf-8"?>
<!-- Generator: Adobe Illustrator 27.0.1, SVG Export Plug-In . SVG Version: 6.00 Build 0)  -->
<svg version="1.1" id="National_Reverse_-_Config" xmlns="http://www.w3.org/2000/svg" xmlns:xlink="http://www.w3.org/1999/xlink"
	 x="0px" y="0px" viewBox="0 0 1920 1080" style="enable-background:new 0 0 1920 1080;" xml:space="preserve">
<style type="text/css">
	.st0{fill:none;stroke:#FFFFFF;stroke-width:30;stroke-miterlimit:10;}
</style>
<path class="st0" d="M1642.2,383.1c-0.6-21.2-10-37-28-46.9c-14.4-7.9-32.2-11.2-49.5-14.3c-1.6-0.3-3.2-0.6-4.9-0.9
	c-7.5-1.4-15.5-2.8-24.1-4.3c-30.1-5.4-67.6-12.1-102.9-20.1c-39.9-9-73.1-43.9-95-66.9l-3.1-3.2c-5-5.3-13.2-15.8-24.2-31.1
	c-14.7-20.6-38.4-32.9-63.7-33.2c-29.4-0.3-69-0.7-90.9-0.4c-42.2,0.6-85.3,0.9-128.2,0.8c-31.7,0-50.5-0.3-72.1-0.5
	c-19.3-0.2-41.2-0.5-76.8-0.7c-87.1-0.4-130.9-0.7-164.9,0.8c-11.5,0.5-18,0.9-35.6,1.9c-17.1,1-45.7,2.6-100.4,5.6l-32.2,1.7
	l-26.3,1.4c-38.7,2.1-90.1,4.6-135.4,6.6c-51.7,2.6-76.7,26-92.1,86.2l-11.4,51.2c-10.7,41.2,7.4,87.9,39.6,102.1
	c142.4,63,260.8,125.2,324.8,170.9c74.1,52.8,129.5,116.8,154.4,155.6c19.1,29.6,32.1,60.7,44.6,90.7c4.8,11.4,9.7,23.3,14.9,34.7
	c17.6,38.9,56,48.1,94.5,48.1c11.1,0,22.1-0.8,32.7-1.8c52.4-5.2,147.7-27.1,175.6-33.7c34.7-8.2,202.9-56,252.6-78.7
	c25.7-11.7,40.3-21.3,48.8-32c9.4-11.7,10.6-23.8,10.9-36.2c0.6-18.6,7.1-25.7,21.4-41.1l0.5-0.5c6.5-7,23.5-20.6,41.5-34.9
	c21.3-16.9,45.5-36,59.6-50.5c23.7-24.2,26.6-49.1,29.2-71c0.5-4.6,1-8.9,1.7-13.1C1628.8,521.7,1643.5,429.9,1642.2,383.1z"/>
</svg>
