<?xml version="1.0" encoding="utf-8"?>
<!-- Generator: Adobe Illustrator 27.0.1, SVG Export Plug-In . SVG Version: 6.00 Build 0)  -->
<svg version="1.1" id="Rallycross_-_Config" xmlns="http://www.w3.org/2000/svg" xmlns:xlink="http://www.w3.org/1999/xlink"
	 x="0px" y="0px" viewBox="0 0 1920 1080" style="enable-background:new 0 0 1920 1080;" xml:space="preserve">
<style type="text/css">
	.st0{fill:none;stroke:#FFFFFF;stroke-width:30;stroke-miterlimit:10;}
</style>
<path class="st0" d="M929.4,796.9c-1.9,0-3.8,0-5.8-0.1c-72-2.1-185.5-38.2-264.4-65.1c-49.9-17-68.3-17.5-87.8-18
	c-5.1-0.1-10.3-0.3-16.2-0.7c-27.8-2-65.1-20.1-95.2-34.7c-3.3-1.6-6.4-3.1-9.4-4.6l0,0c-35.8-17.2-88.2-40.3-130.4-58.9l-24.2-10.7
	c-40-17.7-62.6-75.9-49.2-127.1l14.2-63.8c19.2-74.9,50.2-103.9,114.5-107.2c56.3-2.6,120.3-5.6,168.4-8.3l32.7-1.8l40-2.1
	c68.1-3.7,103.7-5.8,124.9-7c21.8-1.3,30-1.7,44.3-2.3c42.4-1.8,96.7-1.5,205.1-1c44.2,0.2,71.5,0.5,95.5,0.8
	c26.9,0.3,50.2,0.6,89.7,0.7c53.3,0.1,107-0.2,159.5-1c27.3-0.4,76.5,0,113.1,0.4c31.5,0.4,60.9,15.7,79.2,41.3
	c13.7,19.1,23.8,32.1,30.1,38.7l3.9,4c20.8,21.8,49.3,51.7,83.1,69.8l0.1,0.1c15,8.2,25.9,24.8,30,45.6c3.8,19,1.2,39.1-6.9,53.8
	c-16.2,29.5-50.5,45.7-93.8,44.4c-36.6-1.1-70.3-17.3-102.9-33c-28.6-13.7-58.2-28-90-32.2c-66.8-9-114.6,26.1-160.9,60
	c-37,27.1-69.5,74.7-93.3,109.5c-6.7,9.8-13,19-18.5,26.5C1083.4,747.4,1009.5,796.9,929.4,796.9z"/>
</svg>
