<?xml version="1.0" encoding="utf-8"?>
<!-- Generator: Adobe Illustrator 27.0.1, SVG Export Plug-In . SVG Version: 6.00 Build 0)  -->
<svg version="1.1" id="PEC_East_-_Config" xmlns="http://www.w3.org/2000/svg" xmlns:xlink="http://www.w3.org/1999/xlink" x="0px"
	 y="0px" viewBox="0 0 1920 1080" style="enable-background:new 0 0 1920 1080;" xml:space="preserve">
<style type="text/css">
	.track-surface{fill:none;stroke:#FFFFFF;stroke-width:30;stroke-miterlimit:10;}
</style>
<path class="track-surface" d="M1245.3,916.7c-14.3,0-30-2.7-44.1-5.2l-6.4-1.1c-11.1-1.8-23.3-5.1-36.1-8.5c-15.6-4.1-31.7-8.4-45.3-9.9
	c-10.7-1.2-18.6,0.3-27.8,2c-10.6,2-22.6,4.2-39.5,2c-14.2-1.8-24.8-7.5-31.5-16.7c-8-11.2-9.9-26.6-5.9-47.2
	c3.9-19.5,15.7-28,24.9-31.7c12-4.8,25.2-3.8,34.2-2.1c16.5,3.1,25.1,14.3,32.8,24.3c3,4.2,6.4,8.1,9.9,11.8
	c11.7,11.7,30.7,18.2,49,24.4h0.2c25.2,8.6,55.3,10,61.3,5.1c9.8-7.9,17.4-15.5,18.8-35.3c1.1-16.6-16.5-38.5-40.8-68.7
	c-3.7-4.7-7.7-9.5-11.7-14.6c-21-26.5-44.4-51.2-61.5-69.3c-9.2-9.7-16.4-17.4-20.8-22.6c-6-7.3-22.4-24.4-38.2-41
	c-14.7-15.5-28.7-30.1-35-37.5c-7-8.2-29.8-31.5-49.8-52c-16.8-17.2-32.8-33.5-39.3-40.8c-5-5.6-15.2-16.2-27.1-28.6
	c-22.1-23-49.5-51.6-64.5-69.3c-17.6-20.7-26.5-20.3-36.8-19.7c-1.4,0.1-2.7,0.1-4.1,0.2c-14.1,0.3-44.2-1.4-61.3-4.9
	c-15.2-3.2-44.5-18.5-72.8-44.7c-35.8-33.2-56.4-69.1-56.4-98.7c-0.1-18.9,10-36.5,26.4-46s36.6-9.5,53,0s26.4,27,26.4,46
	c0,43.8,13.5,79.6,16.2,86.3c3.9,9.6,15.3,19,20.8,20c7.1,1.3,38.6,0.9,53.7,0.7l7.7-0.1c17.2-0.2,24.5,1.8,32.7,8.8
	c3.2,2.8,18.7,18.5,43.9,44.1c15.6,15.9,31.7,32.3,37.9,38.4c5.6,5.5,31.1,32.1,63.5,65.7c50.3,52.4,112.9,117.5,135.4,139.7
	c33,32.4,72,80.4,98.9,114.9c17,21.8,50.7,75.9,59.7,97.5l0,0c10.5,25.4,0.4,56.2-14.5,72.4C1273.1,913.8,1259.9,916.7,1245.3,916.7
	z"/>
</svg>
