<?xml version="1.0" encoding="utf-8"?>
<!-- Generator: Adobe Illustrator 27.0.1, SVG Export Plug-In . SVG Version: 6.00 Build 0)  -->
<svg version="1.1" id="PEC_Outer_-_Config" xmlns="http://www.w3.org/2000/svg" xmlns:xlink="http://www.w3.org/1999/xlink" x="0px"
	 y="0px" viewBox="0 0 1920 1080" style="enable-background:new 0 0 1920 1080;" xml:space="preserve">
<style type="text/css">
	.st0{fill:none;stroke:#FFFFFF;stroke-width:30;stroke-miterlimit:10;}
</style>
<path class="st0" d="M1328,832.2c-9-21.6-42.7-75.7-59.7-97.5c-26.9-34.5-65.9-82.5-98.9-114.9c-22.5-22.1-85.1-87.3-135.4-139.7
	c-32.3-33.6-57.8-60.2-63.4-65.7c-6.2-6.1-22.3-22.5-37.9-38.4c-25.2-25.6-40.7-41.4-43.9-44.1c-8.1-7-15.5-9-32.7-8.8l-7.7,0.1
	c-15.1,0.2-46.6,0.6-53.7-0.7c-5.4-1-16.9-10.3-20.8-20c-2.7-6.7-16.2-42.5-16.2-86.3c0-14.6-5.9-28.6-16.4-38.7
	c-9.8-9.6-23.2-14.7-36.9-14.1c-44,1.7-87.1,58.6-112.7,111.4c-6.1,12.5-5.5,27.2,1.7,39.1c13.5,22.7,20.9,35.7,21.8,37.6
	c4.2,9.6,7.4,19.6,9.5,29.8c1.7,8.2,1.9,13,2.3,21.8c0.2,3.5,0.3,7.5,0.6,12.5c0.1,1,1.6,24.6,5.5,49.8c2.4,15.5,5.1,33,11.9,53.4
	c4.5,13.6,10.6,27.8,25.2,52.6c15.7,26.7,28.2,43.5,44,64.8c3.5,4.8,7.2,9.7,11.1,15.1l6.5,9.2c12.5,17.8,26.6,37.9,46.3,66.8
	c23.3,34.2,92.5,128,102.7,139.7c11.7,13.5,34.4,22.9,58.7,13.6c3.2-1.2,6.5-2.5,9.7-3.8c16-6.5,31.2-12.6,48.5-10.9
	c29.2,2.8,40.1,9.9,51.6,17.5c5,3.4,10.2,6.5,15.5,9.2c14.3,6.9,31.9,4.2,48.9,1.6c11-1.7,22.3-3.4,31.7-2.4
	c13.7,1.5,29.5,5.7,44.7,9.7c12.1,3.2,24.6,6.5,36.6,8.6l4.4,0.8c14.7,2.7,31.2,5.6,46,5.6c14.8,0,28-2.9,36.3-12
	C1328.4,888.5,1338.5,857.6,1328,832.2z"/>
</svg>
