<?xml version="1.0" encoding="utf-8"?>
<!-- Generator: Adobe Illustrator 27.0.0, SVG Export Plug-In . SVG Version: 6.00 Build 0)  -->
<svg version="1.1" id="Layer_1" xmlns="http://www.w3.org/2000/svg" xmlns:xlink="http://www.w3.org/1999/xlink" x="0px" y="0px"
	 viewBox="0 0 1920 1080" style="enable-background:new 0 0 1920 1080;" xml:space="preserve">
<style type="text/css">
	.st0{fill:none;stroke:#231F20;stroke-width:20;stroke-miterlimit:10;}
</style>
<path class="st0" d="M1414.2,311.2c-0.9-1.5-1.9-3.1-2.8-4.6c-12.4-20.3-27.4-39.2-38.4-52.9l-2.9-3.7c-17-21.4-28.4-28.9-40.5-36.9
	c-2.9-2-6.1-4.1-9.3-6.4c-23-16.4-56.1-37.1-101-63.2c-23.5-13.7-44.7-12.7-58.4-9.5c-16.1,3.8-30.6,13.2-37.6,24.4
	c-15.6,24.8-12.7,45.6-7.4,58.8c9.1,22.9,30.8,37.8,47.2,42.1c11,2.8,29.8,6.1,44.9,8.7c5.4,0.9,10.1,1.8,13.9,2.4
	c18.2,3.3,22.9,11.8,25.3,19.6c3.1,10.4-7.2,27.2-15.1,31.6c-8.8,4.9-21.2,12-34.3,19.6c-15.6,9.1-31.6,18.3-42.1,23.9
	c-20.3,10.7-38.2,13.8-53.3,9.2c-17.5-5.4-27.4-19.9-31.7-28.1c-9.1-17.3-22.9-44.5-36.3-70.8c-9.6-18.8-18.5-36.6-25.1-49.2
	c-25.6-49.3-65.3-49.3-84.5-49.3c-41.7,0-108.7-0.6-179.4-1.8c-14.3-0.3-36.4-1.3-57.8-2.3c-21.4-1-43.5-2-58.2-2.3
	c-17.6-0.3-42.2-3.5-76.2-25.7c-17.1-11.3-43.3-10.5-60,12.9c-13.6,19-9.1,39.6,13.6,61c4.7,4.5,9.5,8.7,14.6,13.3
	c23.4,21,50,44.9,77.3,96c7.3,13.7,16,29.9,25.6,47.7c37.1,69,87.8,163.6,115.7,219.5c0.5,1,1,2,1.5,3.1c4.9,9.6,9.1,17.8,7.4,38.5
	c-0.6,6.9-1.3,16-1.9,25.6c-1.5,21.2-3.5,47.6-5.5,62.4c-2.6,18-13,48.6-34.6,75.6c-4,4.9-9.5,11.4-15.3,18.3
	c-7.5,8.8-15.3,18-20.8,25.1c-2.8,3.6-16.5,22.2-11.8,40.7c1.7,6.3,6,14.8,18,20.1l0,0c21.1,9.1,43.2,18.4,62.3,25.2
	c3.6,1.3,6.9,2.4,10,3.6c25.6,9.2,41.7,15.1,57.1,15.1c12.1,0,24-3.6,39.8-12c26.6-14.2,53.8-20.7,81.1-19.6
	c17.6,0.8,35.8,1.7,53.3,2.6c49.1,2.6,95.5,5,130.7,3.5c91.9-4,136-10.5,178.9-16.9c5.4-0.8,10.7-1.7,16.2-2.4
	c51.3-7.4,85.8-23.8,105.7-50c17.5-22.9,19.9-48.6,19.9-70.6l0.1-31.8c0.4-105.9,1-265.8,2.2-352.2
	C1434.9,344.4,1425,328.3,1414.2,311.2z"/>
</svg>
