<?xml version="1.0" encoding="utf-8"?>
<!-- Generator: Adobe Illustrator 27.0.0, SVG Export Plug-In . SVG Version: 6.00 Build 0)  -->
<svg version="1.1" id="Layer_1" xmlns="http://www.w3.org/2000/svg" xmlns:xlink="http://www.w3.org/1999/xlink" x="0px" y="0px"
	 viewBox="0 0 1920 1080" style="enable-background:new 0 0 1920 1080;" xml:space="preserve">
<style type="text/css">
	svg {height: 100%;width: 100%;}.track-surface {fill: none;stroke: white;stroke-width: 30;}
</style>
<path class="track-surface" d="M1146.7,940c-19.8,0-37.3-11.3-48.7-24.4c-16-17.5-27.8-34-40.3-51.4l-0.1-0.2c-48.1-67.3-64.4-89.9-72.3-100.8
	c-7.2-10-7.5-10.4-18.1-25.6c-41.6-59.7-55.5-79.9-61.4-88.5c-3.8-5.5-3.9-5.6-5.9-8.4c-5-6.8-9.7-13.2-14.3-19.3
	c-20.1-27.2-36.1-48.6-56.1-82.6c-18.6-31.6-26.3-49.7-32.1-67c-8.7-26-12.2-48.3-15.2-68c-5-32-6.9-62.2-7-63.4
	c-0.4-6.4-0.6-11.5-0.8-15.9c-0.5-11.1-0.8-17.2-2.9-27.8c-2.7-13.1-6.7-25.8-12.1-38c-6.3-14.7-16.6-31.2-25.7-45.7
	c-2.5-4-4.8-7.7-7-11.3l0,0c-6.2-10.1-6.4-23.6-0.4-35.9c6.6-13.8,19.3-23.4,32.9-25.1c15.5-2,31.9,2.1,42.9,10.7
	c7.9,5.9,13.1,14.8,14.3,24.6c1,9.9,1.5,19.8,1.5,29.7c0,6.3,0.2,12.6,0.8,18.9c0.8,5.8,3.8,21.1,6.8,36c2.8,14.1,5.8,28.7,7.4,38.4
	c1,6.1,2.7,13.3,4.7,21.6c4.1,17.6,9.3,39.4,10.6,62.3c0.8,14.2,1.8,31.9,4.8,45.7c3.4,16.3,8,21,10.5,22.4
	c4.1,2.3,9.5,4.9,15.3,7.6c21.1,10.1,42.9,20.4,48.8,36.8c5.5,15.3,5.3,40.2,5.1,56.6c0,2.5-0.1,4.9-0.1,6.9
	c0,12.9,1.8,26.2,22.8,35.9c8,3.6,16.5,7.2,24.7,10.7c21.8,9.1,42.4,17.8,53.7,28.2c15.5,14.3,34,35.5,39.4,72.6
	c4.5,31.1,11.1,56.4,17.5,79.1c7.1,25.1,17.4,39,32.4,43.8c5.6,1.8,11.8,3.2,18.3,4.6c21.9,4.9,49.2,11,54.2,37.2
	c4.5,24,4.9,50.5-27.2,64.7C1161.7,938.4,1154.2,940,1146.7,940z"/>
</svg>
