<?xml version="1.0" encoding="utf-8"?>
<!-- Generator: Adobe Illustrator 27.0.1, SVG Export Plug-In . SVG Version: 6.00 Build 0)  -->
<svg version="1.1" id="PEC_Handling_-_Config" xmlns="http://www.w3.org/2000/svg" xmlns:xlink="http://www.w3.org/1999/xlink"
	 x="0px" y="0px" viewBox="0 0 1920 1080" style="enable-background:new 0 0 1920 1080;" xml:space="preserve">
<style type="text/css">
	.track-surface{fill:none;stroke:#FFFFFF;stroke-width:30;stroke-miterlimit:10;}
</style>
<path class="track-surface" d="M1327.7,832.3c-9-21.6-42.7-75.7-59.7-97.5c-26.9-34.5-65.9-82.5-98.9-114.9c-22.5-22.1-85.1-87.3-135.4-139.7
	c-32.3-33.6-57.8-60.2-63.4-65.7c-6.2-6.1-22.3-22.5-37.9-38.4c-25.2-25.6-40.7-41.4-43.9-44.1c-8.1-7-15.5-9-32.7-8.8l-7.7,0.1
	c-15.1,0.2-46.6,0.6-53.7-0.7c-5.4-1-16.9-10.3-20.8-20c-2.7-6.7-16.2-42.5-16.2-86.3c0.1-14-5.5-27.5-15.4-37.4
	c-9.9-9.9-23.4-15.5-37.4-15.4c-39.2,0-75.1,45.8-101.9,85.6c-1.2,1.7-2.2,3.2-3,4.4c-14.8,21.5-14.1,47.7-5.8,62.5
	c4.9,8.7,8.5,14.1,11.3,18.4c4.3,6.1,7.9,12.7,10.8,19.7l0.3,0.7c3.7,8.5,6.5,17.4,8.3,26.6c1.7,8.2,1.9,13,2.3,21.8
	c0.2,3.5,0.3,7.5,0.6,12.5c0.1,1,1.6,24.6,5.5,49.8c2.4,15.5,5.1,33,11.9,53.4c4.5,13.6,10.6,27.8,25.2,52.6
	c15.7,26.7,28.2,43.5,44,64.8c3.5,4.8,7.3,9.8,11.2,15.2c1.6,2.2,1.7,2.3,4.6,6.6c4.7,6.8,15.5,22.6,48.2,69.5
	c8.3,12,8.6,12.3,14.2,20.1c6.2,8.6,19,26.4,56.8,79.1c6.5,9.1,19.3,26.5,31.7,40.5c16.4,18.5,36.1,24,55.4,15.5
	c25.1-11.1,24.9-31.9,21.3-50.7c-3.9-20.6-25.3-25.4-42.5-29.2c-5.2-1.1-10-2.2-14.4-3.6c-11.8-3.8-19.9-14.7-25.5-34.4
	c-5.1-17.8-10.2-37.7-13.8-62.1c-4.2-29.2-18.7-45.8-30.9-57c-8.9-8.2-25-14.9-42.1-22.1c-6.5-2.7-13.1-5.5-19.4-8.4
	c-16.5-7.5-17.9-18-17.9-28.1c0-1.6,0-3.4,0-5.4c0.2-12.9,0.4-32.4-4-44.4c-4.7-12.9-21.8-21-38.3-28.9c-4.5-2.1-8.8-4.2-12-6
	c-1.9-1.1-5.6-4.8-8.2-17.6c-2.3-10.9-3.1-24.8-3.7-35.9c-1-17.9-5.1-35.1-8.3-48.9c-1.5-6.5-2.9-12.2-3.7-17
	c-1.4-8.2-2.7-14.2-3.8-19s-1.9-8.4-2.4-12.6l-0.1-0.6c-1.3-6.8-0.3-8.6,0.1-9.2c0.9-1.4,3.5-3.7,11-6.2c21-7.1,44-9.2,50.2-4.5
	l2.6,1.8c13.1,9.2,32.9,23.1,50.5,26.8c17,3.5,47.2,5.2,61.3,4.9c1.3,0,2.7-0.1,4.1-0.2c10.3-0.5,19.1-1,36.8,19.7
	c15,17.7,42.5,46.3,64.5,69.3c11.8,12.4,22.1,23,27.1,28.6c6.5,7.2,22.5,23.5,39.3,40.8c20,20.5,42.7,43.8,49.8,52
	c6.4,7.4,20.3,22,35,37.5c15.8,16.6,32.2,33.7,38.2,41c4.3,5.2,11.6,12.9,20.8,22.6c17.1,18.1,40.5,42.9,61.5,69.3
	c4.1,5.1,8,10,11.7,14.6c24.3,30.2,41.9,52.1,40.8,68.7c-1.3,19.8-8.9,27.4-18.8,35.3c-6,4.9-36.2,3.4-61.3-5.1h-0.2
	c-18.3-6.2-37.3-12.7-49-24.4c-3.6-3.7-6.9-7.7-9.9-11.8c-7.6-10-16.2-21.2-32.8-24.3c-9-1.7-22.2-2.7-34.2,2.1
	c-9.2,3.7-21,12.2-24.9,31.7c-4.1,20.6-2.2,36.1,5.9,47.2c6.7,9.3,17.3,14.9,31.5,16.7c16.9,2.2,28.9-0.1,39.5-2
	c9.2-1.7,17.1-3.2,27.8-2c13.6,1.5,29.7,5.8,45.3,9.9c12.9,3.4,25,6.6,36.1,8.5l6.4,1.1c14.1,2.4,29.8,5.2,44.1,5.2
	c14.7,0,27.8-2.9,36.1-11.8C1328.1,888.5,1338.2,857.6,1327.7,832.3z"/>
</svg>
