<?xml version="1.0" encoding="utf-8"?>
<!-- Generator: Adobe Illustrator 27.0.0, SVG Export Plug-In . SVG Version: 6.00 Build 0)  -->
<svg version="1.1" id="Layer_1" xmlns="http://www.w3.org/2000/svg" xmlns:xlink="http://www.w3.org/1999/xlink" x="0px" y="0px"
	 viewBox="0 0 1920 1080" style="enable-background:new 0 0 1920 1080;" xml:space="preserve">
<style type="text/css">
	.track-surface{fill:none;stroke:#231F20;stroke-width:20;stroke-miterlimit:10;}
</style>
<path class="track-surface" d="M1731.4,257.6c-3.5-50.8-31.8-78.8-54.8-93.3c-28.9-18.2-62.1-23.4-83.4-22.1c-15.4,1-46.6,3.7-63.2,5.5
	c-26.6,2.8-67.7,7.6-107.5,12.3c-29.2,3.4-56.8,6.7-76.3,8.9l0,0c-61.8,6.9-155.8,16.2-246.7,25.3c-96.4,9.6-196,19.6-261,26.8
	c-68.1,7.6-98.1,16.7-126.8,29.9c-88.4,40.3-123.4,86.4-154.3,127.1c-35.9,47.4-54.1,66.5-77.5,81.6
	c-43.7,28.2-75.5,32.8-103.5,36.8c-4,0.6-7.8,1.1-11.7,1.7c-47.8,7.6-85.7,28.1-112.4,60.7c-26.8,32.6-34.4,67.5-36.5,85.4
	c-5.2,43.7-14.1,116.3-21.3,174.8c-1.8,14.4-3.4,28.1-5,40.3c-3.3,27.3,0.9,47.9,12.7,61.1c15.6,17.6,39.6,17.6,51.2,17.6l67.3-0.2
	c184.2-0.5,413.7-1,555.3,0.2c0.6,0,1.2,0,1.8,0c40.2,0,69.6-10.8,87.6-32c12.8-15.1,19.3-35.1,19.6-59.4
	c0.1-13,1.1-128.7-1.5-184.5c-2.8-59.3,36.3-80.8,59.8-88.4c73.5-23.6,210.8-65,266.5-81.8c24.5-7.4,49.2-14.7,75.6-22.5
	c98-29.1,199.4-59.2,270.5-84.6C1720.8,361.5,1733.9,293.9,1731.4,257.6z"/>
</svg>
