<?xml version="1.0" encoding="utf-8"?>
<!-- Generator: Adobe Illustrator 27.0.0, SVG Export Plug-In . SVG Version: 6.00 Build 0)  -->
<svg version="1.1" id="Layer_1" xmlns="http://www.w3.org/2000/svg" xmlns:xlink="http://www.w3.org/1999/xlink" x="0px" y="0px"
	 viewBox="0 0 1920 1080" style="enable-background:new 0 0 1920 1080;" xml:space="preserve">
<style type="text/css">
	svg {height: 100%;width: 100%;}.track-surface {fill: none;stroke: white;stroke-width: 30;}
</style>
<path class="track-surface" d="M1727.5,259c-3.5-50.6-31.6-78.4-54.5-92.8c-28.8-18.1-61.7-23.3-83-22c-13.9,0.9-39.3,3.2-56.3,4.8l-6.6,0.7
	c-38.1,3.6-50.4,8.8-59.4,25.1c-8.1,14.6-18.3,18.9-25.7,20.1c-10.6,1.6-30.9,3.8-42.9,5.1l-3.6,0.4c-16.9,1.9-21.4-8.4-22.4-11.5
	c-2.4-7.6-9.3-20.1-29.1-18.1c-54.3,5.8-131.3,13.6-212.9,21.8c-108.3,10.8-220.3,22-292.2,30.2c-67.8,7.6-97.6,16.6-126.2,29.7
	c-88,40.1-122.8,86-153.5,126.5c-35.7,47.1-53.8,66.1-77.1,81.2c-43.4,28-75.1,32.6-103,36.6c-4,0.6-7.8,1.1-11.6,1.7
	c-47.5,7.6-85.2,27.9-111.8,60.3c-26.7,32.4-34.2,67.2-36.3,85c-5.1,43.3-14.1,115.7-21.3,173.9c-1.8,14.3-3.4,27.9-4.9,40.1
	c-3.3,27.2,0.9,47.6,12.6,60.8c15.5,17.5,39.4,17.5,50.9,17.5l67-0.2c183.3-0.5,411.5-1,552.5,0.2c0.6,0,1.2,0,1.8,0
	c40,0,69.3-10.7,87.1-31.8c12.7-15,19.2-34.9,19.5-59.1c0.1-12.9,1.1-128.1-1.5-183.6c-2.8-59,36.1-80.4,59.5-88
	c73.1-23.5,209.7-64.7,265.1-81.3c24.3-7.3,49-14.6,75.2-22.4c97.5-29,198.3-58.9,269-84.2C1716.9,362.4,1730,295.1,1727.5,259z"/>
</svg>
