<?xml version="1.0" encoding="utf-8"?>
<!-- Generator: Adobe Illustrator 27.0.0, SVG Export Plug-In . SVG Version: 6.00 Build 0)  -->
<svg version="1.1" id="Layer_1" xmlns="http://www.w3.org/2000/svg" xmlns:xlink="http://www.w3.org/1999/xlink" x="0px" y="0px"
	 viewBox="0 0 1920 1080" style="enable-background:new 0 0 1920 1080;" xml:space="preserve">
<style type="text/css">
	.st0{fill:none;stroke:#231F20;stroke-width:20;stroke-miterlimit:10;}
</style>
<path class="st0" d="M1743.6,652.3c-10.6-41.9-44.6-53.3-72.8-50c-26.2,3.1-59,7.1-93.6,11.5c-57.7,7.2-123,15.4-179.1,21.2l0,0
	c-22.3,2.4-48.9-17.9-55.1-29.7c-18.5-36.3,2.5-67.3,17.9-79.8c44.9-36.6,91.2-82.3,122-112.6l6.2-6.1
	c22.3-21.9,37.7-42.5,47.3-62.9c8.7-18.6,12.3-36.6,11-55.1c-3.1-45.2-28.3-70.1-48.8-83c-25.7-16.2-55.1-20.8-74.2-19.6
	c-12.4,0.8-35.2,2.9-50.3,4.3l-5.9,0.6c-34.1,3.2-45,7.9-53.1,22.4c-7.2,13.1-16.4,16.9-22.9,17.9c-9.5,1.4-27.6,3.4-38.3,4.6
	l-3.2,0.3c-15.1,1.7-19.1-7.5-20-10.3c-2.1-6.8-8.3-18-26-16.1c-48.5,5.2-117.4,12.1-190.4,19.5c-96.8,9.7-196.9,19.7-261.2,27
	c-60.6,6.8-87.2,14.9-112.8,26.6c-78.7,35.9-109.8,76.9-137.2,113.1c-31.9,42.1-48.1,59.1-68.9,72.6c-38.8,25.1-67.1,29.1-92.1,32.7
	c-3.6,0.5-7,1-10.4,1.5c-42.5,6.8-76.2,25-100,53.9c-23.9,29-30.6,60.1-32.5,76c-4.5,38.7-12.5,103.4-18.9,155.4
	c-1.6,12.8-3.1,25-4.4,35.9c-3,24.3,0.8,42.6,11.3,54.4C201,894,222.4,894,232.7,894l59.9-0.2c163.9-0.4,367.9-0.8,493.9,0.2
	c0.5,0,1.1,0,1.6,0c35.8,0,61.9-9.6,77.9-28.5c11.4-13.4,17.2-31.2,17.4-52.8c0.1-11.6,1-114.5-1.4-164.1
	c-2.6-56.2,36.2-73.7,53-78.6c22-6.4,49-15,77.6-24c55.1-17.4,117.7-37.2,159-46.1c19.3-4.2,33.4-1.4,41.9,8
	c11.3,12.7,11.7,36.6,6.3,52.8c-9.2,27.5-28.6,77.5-56.2,144.4c-7.9,19.1-11.7,36.2-11.5,50.7c0.3,13.4,4,24.8,11,33.8
	c14.4,18.2,38.2,21.7,54.3,19.2c27.4-4.3,62.3-9.9,99.2-15.7c114.5-18.2,257.1-40.8,338.3-52.7c47.2-6.9,69.3-26.5,79.5-41.8
	C1744.2,684.5,1747.4,667.5,1743.6,652.3z"/>
</svg>
