<?xml version="1.0" encoding="utf-8"?>
<!-- Generator: Adobe Illustrator 27.0.0, SVG Export Plug-In . SVG Version: 6.00 Build 0)  -->
<svg version="1.1" id="Layer_1" xmlns="http://www.w3.org/2000/svg" xmlns:xlink="http://www.w3.org/1999/xlink" x="0px" y="0px"
	 viewBox="0 0 1920 1080" style="enable-background:new 0 0 1920 1080;" xml:space="preserve">
<style type="text/css">
	.st0{fill:none;stroke:#231F20;stroke-width:20;stroke-miterlimit:10;}
</style>
<path class="st0" d="M1756.8,654.2c-5.3-20.8-16.8-36.2-33.5-44.4c-15.8-7.9-32.1-7.4-40.5-6.5c-26.6,3.1-60,7.3-95.1,11.7
	c-58.7,7.3-125.1,15.6-182.2,21.6c-22.6,2.4-49.8-18.2-56-30.2c-18.7-36.9,2.6-68.3,18.2-81.1c45.6-37.2,92.8-83.7,124.1-114.5
	l6.3-6.2c22.6-22.3,38.4-43.2,48.1-63.9c8.8-18.9,12.5-37.2,11.1-56.1c-3.2-46-28.8-71.3-49.6-84.4c-26.2-16.5-56.2-21.2-75.4-20
	c-12.7,0.8-36,3-51.5,4.5l-5.6,0.5l-166.4,17.5l0,0c-41,4.4-97,10.3-156.5,16.6c-107.3,11.1-228.9,23.9-302.7,32.3
	c-61.6,6.9-88.7,15.1-114.7,27c-80,36.5-111.6,78.2-139.5,115c-32.5,42.9-48.9,60.1-70.1,73.8c-39.5,25.5-68.3,29.6-93.7,33.3
	c-3.6,0.5-7.1,1-10.5,1.6c-43.2,6.9-77.5,25.4-101.7,54.9c-24.3,29.5-31.1,61.1-33,77.2c-4.7,39.5-12.8,105.2-19.3,158.1
	c-1.6,13-3.1,25.4-4.5,36.5c-3,24.7,0.8,43.3,11.5,55.3C188.2,900,210,900,220.4,900l60.9-0.2c166.7-0.4,374.2-0.9,502.3,0.2
	c0.5,0,1.1,0,1.6,0c36.4,0,63-9.8,79.2-28.9c11.6-13.7,17.5-31.7,17.7-53.7c0.1-11.7,1-116.4-1.4-166.9
	c-2.7-57.2,36.8-74.9,53.9-79.9c22.3-6.5,49.7-15.1,78.7-24.3c56.2-17.8,119.7-37.8,162-47c19.6-4.2,34-1.5,42.6,8.1
	c11.5,12.9,11.9,37.2,6.4,53.7c-9.3,28-29.1,78.8-57.2,146.9c-8,19.4-11.9,36.8-11.7,51.6c0.3,13.7,4.1,25.2,11.2,34.4
	c14.6,18.5,38.9,22.1,55.2,19.5c27.7-4.4,63.2-10,100.7-15.9c116.5-18.5,261.5-41.5,344.2-53.6c48-7,70.5-27,80.9-42.5
	C1757.4,687,1760.7,669.7,1756.8,654.2z"/>
</svg>
