<?xml version="1.0" encoding="utf-8"?>
<!-- Generator: Adobe Illustrator 27.0.1, SVG Export Plug-In . SVG Version: 6.00 Build 0)  -->
<svg version="1.1" id="Peverly_-_Config" xmlns="http://www.w3.org/2000/svg" xmlns:xlink="http://www.w3.org/1999/xlink" x="0px"
	 y="0px" viewBox="0 0 1920 1080" style="enable-background:new 0 0 1920 1080;" xml:space="preserve">
<style type="text/css">
	.track-surface{fill:none;stroke:#FFFFFF;stroke-width:30;stroke-miterlimit:10;}
</style>
<path class="track-surface" d="M1474.1,200.5c-67.1-45.1-147.2-66.4-227.4-68.9c-7.4-0.4-30.9-1-38.3-1.4c-104.6-0.8-227.4,1.6-332.1,2.5
	c-68.1,1-136.2,1.3-204.4,1.8c-20.6,0.2-41.2,1.7-61.5,4.7c-195.6,29.8-343,198.8-345.7,396.7c-1,56.8,9.9,113.2,31.9,165.5
	c49.2,116.9,154.1,206.9,277.5,236.8c12.4,3,25.3,5.7,37.9,7.5c6.9,0.7,15.5,2.3,23,2.7c3.5,0.3,11.9,0.8,15.4,1.1
	c7.2,0.3,15.7,0.4,22.8,0.6c181.5-1.5,393.5-3.8,574.7-3.5c118.7,0.8,233.3-52.4,310.2-142.8
	C1716.4,618.1,1676.6,336.1,1474.1,200.5z"/>
</svg>
