<?xml version="1.0" encoding="utf-8"?>
<!-- Generator: Adobe Illustrator 27.0.0, SVG Export Plug-In . SVG Version: 6.00 Build 0)  -->
<svg version="1.1" id="National_-_Config" xmlns="http://www.w3.org/2000/svg" xmlns:xlink="http://www.w3.org/1999/xlink" x="0px"
	 y="0px" viewBox="0 0 1920 1080" style="enable-background:new 0 0 1920 1080;" xml:space="preserve">
<style type="text/css">
	svg {height: 100%;width: 100%;}.track-surface {fill: none;stroke: white;stroke-width: 30;}
</style>
<path class="track-surface" d="M1591.8,641.9l-11.9-98.1c-1.7-15.5-9.1-28.3-20.8-36.1c-12.3-8.3-28.1-10.4-44.4-5.8l-505,139
	c-13.9,3.8-28.3-4.3-32.2-18.3c-0.8-2.7-1.1-5.6-0.9-8.4c4.5-81.9,15.5-278.2,20.4-331.5c3.4-36.5,4.6-63,0.6-82.4
	c-4.7-22.8-17-35.4-37.6-38.5c-14.5-2.2-27.3,0.9-37.2,9c-17.1,13.9-20.8,37.7-21.5,50.7c-0.4,7.1,0.2,14.6,0.8,22.6
	c1.6,21.6,3.3,43.9-14.1,57.9c-9.3,7.8-21.6,11.2-33.5,9.3c-16.5-2.5-32.9-14.2-45-32c-6.6-9.8-12.6-21.6-18.4-33
	c-8.1-16-15.8-31.2-25.6-42.5c-12.5-14.4-27-20.1-43-16.9c-18.9,3.7-30.8,17.6-35.4,41.5c-3.5,18.2-2.4,39.7-1.5,58.7
	c0.3,5.9,0.6,11.5,0.7,16.7c0.5,19.2,1.4,37.9,8.3,55.3c7.5,19.4,21.1,35,42.7,49.4c36.1,24,55.9,53.8,42.3,128
	c-11.4,62.4-51.4,98.1-122.5,109c-56.2,8.7-125,10.6-180.4,12.2c-25.4,0.7-47.3,1.4-64.4,2.5c-37.7,2.5-62.6,26.4-68.3,65.5
	c-0.8,5.3-1.6,10.9-2.5,16.9c-4.3,28.9-9.7,65-13.2,100.7c-2.9,29.7,7.8,47.5,17.3,57.2c11.6,11.8,27.8,18.2,46.1,18.2
	c2,0,4-0.1,6-0.2c35.3-2.6,308.9-32.4,320.4-33.6c33.7-3.4,62.1-26.4,72.5-58.6l7-21.7c6.4-19.5,24.2-33.1,44.7-34.2
	c21.9-1,51.5-2.5,68.5-3.6c28.7-1.9,86.2-10,103.2-12.5l0.7-0.1c38-5.2,423.2-52,540.4-66.2C1578.1,685.3,1594.3,664.7,1591.8,641.9
	z"/>
</svg>
