<?xml version="1.0" encoding="utf-8"?>
<!-- Generator: Adobe Illustrator 27.0.0, SVG Export Plug-In . SVG Version: 6.00 Build 0)  -->
<svg version="1.1" id="Layer_1" xmlns="http://www.w3.org/2000/svg" xmlns:xlink="http://www.w3.org/1999/xlink" x="0px" y="0px"
	 viewBox="0 0 1920 1080" style="enable-background:new 0 0 1920 1080;" xml:space="preserve">
<style type="text/css">
	.track-surface{fill:none;stroke:#231F20;stroke-width:20;stroke-miterlimit:10;}
</style>
<path class="track-surface" d="M1278,318c-0.9-1.5-1.8-2.9-2.7-4.4c-11.9-19.5-26.3-37.7-36.8-50.8l-2.8-3.6c-16.3-20.5-27.2-27.7-38.9-35.5
	c-2.8-2-5.9-3.9-9-6.1c-22.1-15.7-53.9-35.6-96.9-60.6c-22.6-13.1-42.9-12.1-56.1-9.1c-15.5,3.7-29.3,12.6-36.1,23.4
	c-15,23.8-12.1,43.8-7.1,56.4c8.7,22,29.6,36.3,45.3,40.4c7.5,2,17.4,3.7,26.9,5.3c8.5,1.5,17.3,2.9,23.4,4.5
	c15.7,3.9,26.7,14.6,31.5,22.5c0.2,0.4,18,31.3-9.6,59.9c-91.7,95-252.5,238.5-369.9,343.2c-28.2,25.2-54.8,49-77.2,69
	c-9.4,8.6-17.9,17.5-24.8,41.1c-1.6,5.5-4.3,14-6.9,22.3c-2.2,6.9-4.2,13.4-5.6,18c-5.6,19,0.4,54,31.7,72.4
	c8.6,5,16.9,7.7,26.5,7.7c13.4,0,28.8-5.3,49.7-16.1c26.3-13.6,52.5-19.9,77.9-18.8c16.9,0.7,34.4,1.6,51.2,2.5
	c47.1,2.5,91.7,4.8,125.4,3.3c88.2-3.8,130.5-10.1,171.6-16.2c5.2-0.7,10.3-1.6,15.6-2.3c49.2-7.1,82.3-22.8,101.5-48
	c16.8-22,19.1-46.6,19.1-67.7l0.1-30.6c0.4-101.6,1-255.1,2.1-338C1297.8,349.9,1288.3,334.3,1278,318z"/>
</svg>
