<?xml version="1.0" encoding="utf-8"?>
<!-- Generator: Adobe Illustrator 27.0.0, SVG Export Plug-In . SVG Version: 6.00 Build 0)  -->
<svg version="1.1" id="Club_-_Config" xmlns="http://www.w3.org/2000/svg" xmlns:xlink="http://www.w3.org/1999/xlink" x="0px"
	 y="0px" viewBox="0 0 1920 1080" style="enable-background:new 0 0 1920 1080;" xml:space="preserve">
<style type="text/css">
	svg {height: 100%;width: 100%;}.track-surface {fill: none;stroke: white;stroke-width: 30;}
</style>
<path class="track-surface" d="M1298.2,195.7c-4.7-23.1-17.2-35.8-38.1-39c-14.7-2.2-27.6,0.9-37.7,9.1c-17.3,14.1-21.1,38.3-21.8,51.4
	c-0.4,7.2,0.2,14.8,0.8,22.9c1.6,21.9,3.3,44.5-14.3,58.7c-9.5,7.9-21.8,11.3-34,9.4c-16.7-2.5-33.3-14.3-45.6-32.4
	c-6.7-9.9-12.8-21.9-18.6-33.4c-8.2-16.2-16-31.6-26-43.1c-12.7-14.6-27.3-20.4-43.6-17.2c-19.1,3.7-31.2,17.9-35.9,42.1
	c-3.6,18.5-2.5,40.3-1.5,59.5c0.3,6,0.6,11.7,0.7,16.9c0.5,19.5,1.5,38.4,8.4,56.1c7.6,19.6,21.4,35.5,43.3,50.1
	c36.6,24.3,56.6,54.5,42.9,129.8c-11.5,63.3-52.2,99.4-124.2,110.5c-56.9,8.8-126.8,10.8-182.9,12.4c-25.7,0.7-48,1.4-65.3,2.5
	c-38.2,2.6-63.4,26.8-69.2,66.5c-0.8,5.4-1.6,11.1-2.5,17.1c-4.4,29.3-9.9,65.9-13.4,102c-2.9,30.2,7.9,48.2,17.5,58
	c11.7,12,28.1,18.4,46.7,18.4c2,0,4.1-0.1,6.1-0.2c35.8-2.7,313.2-32.8,324.9-34.1c34.1-3.5,63-26.8,73.5-59.4l7.1-22
	c6.5-19.8,24.5-33.5,45.3-34.6c9.3-0.5,14-0.7,17.3-0.8c5.3-0.2,6.7-0.3,16.6-0.9c31-1.9,72.5-14.5,87.3-44
	c10.9-21.8,12.1-50.5,13.4-83.8c0.4-9.2,0.8-18.8,1.4-28.8c4.6-83,15.7-282,20.7-336.1C1300.9,242.3,1302.2,215.4,1298.2,195.7z"/>
</svg>
