<?xml version="1.0" encoding="utf-8"?>
<!-- Generator: Adobe Illustrator 27.0.1, SVG Export Plug-In . SVG Version: 6.00 Build 0)  -->
<svg version="1.1" id="Dirt_Config" xmlns="http://www.w3.org/2000/svg" xmlns:xlink="http://www.w3.org/1999/xlink" x="0px"
	 y="0px" viewBox="0 0 1920 1080" style="enable-background:new 0 0 1920 1080;" xml:space="preserve">
<style type="text/css">
	.st0{fill:none;stroke:#FFFFFF;stroke-width:30;stroke-miterlimit:10;}
</style>
<path class="st0" d="M1266.2,920.3c-89.9,0-171.3,1.1-243.2,2c-60.9,1-116.3,1.7-167.7,1.7c-110.9,0-202.9-3.4-288.8-16.9
	C407,882,326.7,794.6,287.4,725.7c-22.9-40.4-38.4-84.5-45.8-130.3c-6.8-40.6-7.3-81.1-1.6-117.3c8.1-52.1,27.6-101.7,57.2-145.2
	c26.3-38.7,60-72.8,100.7-101.3c70.1-49.2,156.6-78.1,225.9-75.5c22.8,0.9,47.9,1.8,74.6,2.8c199.5,7.4,500.9,18.6,672.5,42.3
	c86.3,11.9,150.1,51.7,188.3,83.1c47.7,39,83.8,87.6,99,133.4c29.3,88,33.7,168.7,13,239.8c-19.1,65.5-55.4,112.4-85,146
	c-42.9,48.7-109.2,83.1-196.9,102.3c-40.5,8.9-81.5,13.7-122.9,14.5L1266.2,920.3z"/>
</svg>
