<?xml version="1.0" encoding="utf-8"?>
<!-- Generator: Adobe Illustrator 27.0.0, SVG Export Plug-In . SVG Version: 6.00 Build 0)  -->
<svg version="1.1" id="Layer_1" xmlns="http://www.w3.org/2000/svg" xmlns:xlink="http://www.w3.org/1999/xlink" x="0px" y="0px"
	 viewBox="0 0 1920 1080" style="enable-background:new 0 0 1920 1080;" xml:space="preserve">
<style type="text/css">
	svg {height: 100%;width: 100%;}.track-surface {fill: none;stroke: white;stroke-width: 30;}
</style>
<path class="track-surface" d="M1745.8,395c-5.3-5.1-12.6-7.9-20-7.5c-74.2,3.7-224.8,9.6-286,12c-23.6,0.9-47.3-1.2-70.3-6.1
	c-89.4-19.4-385.5-83.6-440.7-96.6c-67-15.8-353-78.9-405.5-90.2c-55.4-11.9-95.3-6-142.2,21.1c-17.6,10.2-28.7,19.6-38.6,28
	c-14.4,12.3-24,20.4-46.7,24.2c-32.6,5.4-70.2,25.5-118.4,63.1c-12.6,9.8-15.1,28.2-5.5,41c25.2,33.6,49.8,62.2,65.8,76.7
	c6,5.4,12.5,10.8,19.4,16.5c17,14.1,36.3,30.1,54.3,51.9c21.6,26.3,105,155.9,130,195c2.4,3.7,2.9,8.2,1.5,12.3l-18.3,46.6l-0.1,0.3
	c-5.4,15.2,1.9,32.2,16.6,38.7c29.4,13.1,86.1,36.2,104.6,42.6c4.9,1.7,8.8,3.3,12.6,4.8c16.1,6.5,26.7,10.1,62.5,10.1
	c2.6,0,5.3,0,8.1-0.1c42.6-0.6,80.3-2,110.5-3.2c7.5-0.3,14.6-0.6,21.2-0.8l812.7-29.2c29-1,53.4-21.6,59.3-50.1l47.3-229.9
	c2.1-10.3,10.9-18,21.3-18.9l3.6-0.3c20.1-1.7,36.6-16.7,40.1-36.6c4-22.3,8.8-57.1,9.3-95.9C1754.1,407.2,1751.1,400,1745.8,395
	L1745.8,395z"/>
</svg>
