<?xml version="1.0" encoding="utf-8"?>
<!-- Generator: Adobe Illustrator 27.0.1, SVG Export Plug-In . SVG Version: 6.00 Build 0)  -->
<svg version="1.1" id="gp_-_Config" xmlns="http://www.w3.org/2000/svg" xmlns:xlink="http://www.w3.org/1999/xlink" x="0px"
	 y="0px" viewBox="0 0 1920 1080" style="enable-background:new 0 0 1920 1080;" xml:space="preserve">
<style type="text/css">
	.st0{fill:none;stroke:#FFFFFF;stroke-width:30;stroke-miterlimit:10;}
</style>
<path class="st0" d="M436.5,962.6c-6.8,0-14.5-2.4-21.2-11.5c-6.9-9.1-2.5-19.1,1.7-28.9c1.7-4,3.6-8.2,4.9-12.8
	c2.8-9,2.6-17.1-0.3-21.5c-0.7-1.1-3-4.5-11.1-5.2c-2.6-0.2-5.3-0.4-7.9-0.6c-19.9-1.4-42.4-2.9-62.9-30.8
	c-10.2-13.9-38.5-57.8-45.1-75c-6.1-15.9-15.3-40,0.9-64.9c15.4-23.7,28.3-23.8,56.4-24.2c1.8,0,3.8,0,5.8-0.1
	c31.4-0.5,62.1-12.3,74.7-28.7c15.3-20,20.4-30.2,18.5-47.8c-2.5-23.8-7.5-36.2-9.6-38.5c-2.5-2.8-7.8-7.2-15.1-4.6
	c-3.4,1.2-9.7,4.4-16.9,8.2c-14.8,7.6-35.1,18-54.1,23.4c-1.7,0.5-3.3,1-5.1,1.5c-20.1,5.8-45.4,13.1-69.8,13.1
	c-10.3,0-20.4-1.3-30-4.5c-39.3-13.4-51.8-45.1-53.1-48.6c-2.3-6.2-2.9-16.4,2.3-26.2c3.7-7,11.8-16.3,29.1-20.6
	c8.7-2.2,21.5-5.4,35.4-8.9c28.1-7.1,60-15.1,71.4-18.1c3.8-1,15-4,30.6-8.1c54.3-14.5,167.2-44.6,208.9-54.9
	c32.4-8,107.8-28.5,168.4-45.1c39.4-10.7,70.5-19.2,80.3-21.7c14.8-3.7,152.2-42.3,273.5-76.4c82.8-23.3,161.1-45.3,199.3-55.9
	c36-10,121.7-34.1,184.2-51.7c32.9-9.3,58.9-16.6,66.6-18.7c14.7-4.1,40.2-11.5,60.7-17.5c10.3-3,19.1-5.5,24-7
	c26.6-7.6,44-11.6,53.2-12.2c17.6-1.2,31.5,7,37.1,21.9l0,0c6.4,16.9-3.4,36.2-9.7,46.1c-1.8,2.8-5.3,8.3-9.6,15.1
	c-11.1,17.3-27.8,43.4-34.1,53.2c-0.8,1.3-1.6,2.5-2.3,3.7c-7.8,12.4-14.5,23.1-29.8,32.4c-12.4,7.6-52.3,28.7-76.2,41.3
	c-5,2.7-9.3,4.9-12.4,6.5c-9.4,5-47.3,25.7-84,45.6c-31.1,16.9-60.4,32.9-68,36.9c-9.4,5-30.9,16.9-49.8,27.4
	c-13.5,7.5-25.1,13.9-29.6,16.3c-8.8,4.7-14.2,8.4-15.6,23.6c-1.4,15.1,0.1,37.2,1.3,55c0.3,4.4,0.6,8.6,0.8,12.4
	c1.5,25.4,2.3,51.8-1.8,72.3c-4.7,23.9-22.7,64.3-38.5,86.6c-14.2,19.9-41.8,42.8-76.8,47c-15.3,1.9-68.1,6.1-103.2-17.7
	c-29.4-19.9-37-45.4-43.4-74.3c-6.8-30.6-25.8-114.4-28.7-125.1c-1.1-4-5-12.3-12.3-14.9c-8-2.8-17.9,2.6-24.8,7.6
	c-32.7,23.9-45.5,40.9-55,72.9c-4.6,15.6-10.1,35.8-15.4,55.3c-6.5,23.7-12.6,46.2-16.2,57c-0.5,1.5-1,2.9-1.4,4.3
	c-5.8,17.9-12.4,38.1-38.3,59.7c-9.3,7.8-22.9,19.4-37.2,31.7c-24.8,21.3-52.8,45.4-65.8,55.4c-19.8,15.4-49.6,29.8-77.8,37.8
	c-25.1,7.1-91.1,22.1-121.7,28.4c-29.1,6-87.9,19.6-95.8,21.5l-1.3,0.3C445,961.7,440.9,962.7,436.5,962.6L436.5,962.6z"/>
</svg>
