<?xml version="1.0" encoding="utf-8"?>
<!-- Generator: Adobe Illustrator 27.0.1, SVG Export Plug-In . SVG Version: 6.00 Build 0)  -->
<svg version="1.1" id="NoChicane_-_Config" xmlns="http://www.w3.org/2000/svg" xmlns:xlink="http://www.w3.org/1999/xlink" x="0px"
	 y="0px" viewBox="0 0 1920 1080" style="enable-background:new 0 0 1920 1080;" xml:space="preserve">
<style type="text/css">
	.track-surface{fill:none;stroke:#FFFFFF;stroke-width:30;stroke-miterlimit:10;}
</style>
<path class="track-surface" d="M440.2,959.7c-6.7,0-14.2-2.3-20.8-11.2c-11.2-13-65.4-85.4-75.3-99.4c-10.2-13.9-38.2-57.3-44.7-74.4
	c-6-15.8-15.2-39.7,0.9-64.4c15.3-23.5,28.1-23.7,56-24c1.8,0,3.7,0,5.7-0.1c31.2-0.5,61.7-12.2,74.1-28.5
	c15.2-19.8,20.2-30,18.4-47.5c-2.5-23.6-7.5-36-9.5-38.3c-2.5-2.8-7.8-7.2-15-4.5c-3.4,1.2-9.6,4.4-16.8,8.1
	c-14.7,7.5-34.8,17.8-53.7,23.2c-1.6,0.5-3.3,0.9-5,1.5c-19.9,5.7-45,13-69.3,13c-10.2,0-20.3-1.3-29.7-4.5
	c-39-13.3-51.5-44.8-52.8-48.3c-2.3-6.2-2.8-16.3,2.3-26c3.7-7,11.7-16.1,28.9-20.5c8.6-2.2,21.3-5.4,35.1-8.8
	c27.9-7,59.5-15,70.9-17.9c3.7-1,14.9-4,30.4-8.1c53.9-14.4,166.1-44.3,207.4-54.5c32.2-7.9,107-28.3,167.2-44.7
	c39.1-10.7,70-19.1,79.8-21.5c14.7-3.7,151.2-42,271.5-75.9c82.2-23.1,159.9-45,197.9-55.5c35.7-9.9,120.8-33.9,182.9-51.4
	c32.7-9.2,58.5-16.5,66.2-18.6c14.6-4.1,39.9-11.4,60.3-17.3c10.2-3,18.9-5.5,23.9-6.9c26.4-7.5,43.7-11.5,52.8-12.1
	c17.5-1.2,31.2,6.9,36.8,21.8l0,0c6.3,16.8-3.3,35.9-9.7,45.8c-1.7,2.7-5.2,8.2-9.6,14.9c-11,17.2-27.6,43.1-33.8,52.8
	c-0.8,1.3-1.6,2.5-2.3,3.7c-7.7,12.3-14.4,23-29.6,32.2c-12.3,7.5-52,28.5-75.6,41c-5,2.6-9.2,4.9-12.3,6.5
	c-9.3,5-47,25.5-83.4,45.3c-30.9,16.8-60,32.7-67.5,36.7c-9.3,5-30.6,16.8-49.4,27.2c-13.4,7.4-25,13.8-29.3,16.2
	c-8.7,4.7-14.1,8.3-15.5,23.5c-1.3,15,0.1,36.9,1.3,54.6c0.3,4.4,0.6,8.5,0.8,12.3c1.5,25.2,2.3,51.4-1.8,71.8
	c-4.7,23.7-22.6,63.9-38.3,86c-14.1,19.8-41.5,42.5-76.3,46.7c-15.2,1.8-67.6,6-102.5-17.6c-29.2-19.8-36.8-45.1-43.1-73.8
	c-6.7-30.4-25.6-113.6-28.5-124.2c-1.1-4-5-12.2-12.2-14.8c-8-2.8-17.8,2.6-24.6,7.5c-32.5,23.7-45.2,40.6-54.6,72.4
	c-4.6,15.5-10,35.5-15.3,54.9c-6.4,23.6-12.5,45.9-16.1,56.6c-0.5,1.4-0.9,2.9-1.4,4.3c-5.8,17.7-12.4,37.8-38,59.3
	c-9.3,7.8-22.7,19.3-36.9,31.5c-24.6,21.1-52.4,45-65.3,55C726.6,885.8,697,900.1,669,908c-24.9,7-90.4,22-120.8,28.2
	c-28.9,6-87.3,19.4-95.1,21.3l-1.3,0.3C448.6,958.7,444.6,959.7,440.2,959.7L440.2,959.7z"/>
</svg>
