<?xml version="1.0" encoding="utf-8"?>
<!-- Generator: Adobe Illustrator 27.0.1, SVG Export Plug-In . SVG Version: 6.00 Build 0)  -->
<svg version="1.1" id="Sandown_-_Config" xmlns="http://www.w3.org/2000/svg" xmlns:xlink="http://www.w3.org/1999/xlink" x="0px"
	 y="0px" viewBox="0 0 1920 1080" style="enable-background:new 0 0 1920 1080;" xml:space="preserve">
<style type="text/css">
	.track-surface{fill:none;stroke:#FFFFFF;stroke-width:30;stroke-miterlimit:10;}
</style>
<path class="track-surface" d="M1203.7,880.6c-171.7,0.4-407.2,0.3-577.9,1.7c-52.3,0.4-105-0.9-157-8.4c-75.3-10.8-147-36.2-198.1-95.6
	c-26.1-30.2-38.6-68.3-46.5-106.3c-1.3-6.8-2.8-15.4-3.8-22.3c-3.9-27.2-5.8-54.1-6.3-81.3c-0.5-24.3-0.1-48.2,4.3-72.6
	c5.8-29,17.5-56.5,30.7-82.8c21.3-43.2,49.7-83.2,84.9-116.3c5.3-4.9,11.6-10.8,17.2-15.2c12-10.4,27.9-21,41.9-27.7
	c9.5-4.7,19.4-8.9,29.3-12.5c55.9-20.1,113.7-27.9,172-33.5c148.2-11.7,295.4-8.8,443.6-9.9c30.9,0,79.1,0.3,110.3,0.4
	c27.4,0.2,82.9,0.3,110.4,0.7c58,0.9,117,1,174,16.1c34.3,9,65.7,22,97.3,36.9c80.6,39.5,134.3,119.3,160,203.4
	c5.2,17,9.2,34.7,11.8,52.5c2.6,17.6,4.3,35.6,4.3,53.4c0.1,55.5-16.3,105.8-45.3,152.6c-0.7,1.1-1.4,2.1-2.1,3.2l-4.2,6.3
	c-2.5,3.8-5.9,8.9-8.7,12.5c-1.9,2.5-9.7,12.8-11.4,15c-5.5,6.6-11.3,13.4-16.9,19.9c-74.1,82.8-168,102.8-274.4,107.2
	c-36.7,1.8-75,1.7-111.7,1.9l-13.8,0C1212.9,879.5,1208.3,880.6,1203.7,880.6L1203.7,880.6L1203.7,880.6z"/>
</svg>
