<?xml version="1.0" encoding="utf-8"?>
<!-- Generator: Adobe Illustrator 27.0.1, SVG Export Plug-In . SVG Version: 6.00 Build 0)  -->
<svg version="1.1" id="Indianapolis_Road_2022_-_Config"
	 xmlns="http://www.w3.org/2000/svg" xmlns:xlink="http://www.w3.org/1999/xlink" x="0px" y="0px" viewBox="0 0 1920 1080"
	 style="enable-background:new 0 0 1920 1080;" xml:space="preserve">
<style type="text/css">
	.st0{fill:none;stroke:#FFFFFF;stroke-width:30;stroke-miterlimit:10;}
</style>
<path class="st0" d="M912.3,921.3c-141.6,0-298.3-1-455.9-3.9c-3.3-0.1-6.5-0.3-9.7-0.9c-10.6-1.7-24.9-5.6-32.8-14.4
	c-6.7-7.5-17.1-24.3-11.7-53.7c2-10.7,3.7-30.3-6.9-42.6c-7.9-9.1-21.9-13.4-41.6-12.7c-3.1,0.1-7.4,0.4-12.1,0.7
	c-8.7,0.6-17.7,1.2-23.8,1c-43.8-1.5-71.4-8.7-89.4-23.1c-48.9-39-71.6-109.8-74.1-117.7c-10.8-35.2,2.4-64.6,37-82.7
	c13.6-7.1,25.8-11.2,48.1-11.2s50,0.5,71.7,0.8c9.9,0.2,18.8,0.3,25.8,0.4c25.7-0.7,31-7.4,37.7-15.7c10.9-13.6,22.3-24,61.2-24
	c42.9,0,792.6,4.5,800.1,4.6c3.9,0,6.6-1.9,8.1-3.5c2.4-2.6,3.8-6.2,3.6-10c-0.2-4.3-0.4-9.3-0.7-14.8c-1.5-31.2-3.6-74-0.3-94.9
	c5.6-35.5,27.2-45.6,46.3-54.5c12.1-5.7,23.5-11,33.1-22.4c11.9-14.2,8.9-41.1,6.1-67.1c-2.2-20.5-4.6-41.8-0.1-59.3
	c5.5-21.7,20.7-34.6,45.1-38.3c21.7-3.3,54.4-3.9,85.4-1.4c38.8,3.1,109.8,12.5,145.8,25.9c66.4,24.8,111.6,69.8,134.3,133.8
	c31.8,89.7,27.8,161.5,24,230.9c-1.1,19.2-6.4,44.6-40.1,44.6l0,0c-19.1,0-51.8-1.2-78-2.2c-9.8-0.4-19.2-0.7-26.5-1
	c-8.4-0.3-16.5,2.2-22.7,7.1c-11,8.5-13.2,19.5-6.6,33.7c1.7,3.6,3.9,8.2,6.5,13.6c9.5,19.7,22.6,46.7,26.7,61.9
	c12.5,46.5,3.4,93.2-25.6,131.5c-17.5,23.2-41.9,42.5-70.6,55.8c-29.4,13.8-63.5,21.2-98.4,21.6c-10.3,0.1-22.6,0.3-36.8,0.4
	C1296.7,919.2,1120.9,921.3,912.3,921.3L912.3,921.3z"/>
</svg>
