<?xml version="1.0" encoding="utf-8"?>
<!-- Generator: Adobe Illustrator 27.0.0, SVG Export Plug-In . SVG Version: 6.00 Build 0)  -->
<svg version="1.1" id="Layer_1" xmlns="http://www.w3.org/2000/svg" xmlns:xlink="http://www.w3.org/1999/xlink" x="0px" y="0px"
	 viewBox="0 0 1920 1080" style="enable-background:new 0 0 1920 1080;" xml:space="preserve">
<style type="text/css">
	svg {height: 100%;width: 100%;}.track-surface {fill: none;stroke: white;stroke-width: 30;}
</style>
<path class="track-surface" d="M1663.3,913.2c-8.3,0-16.9-1.5-25.6-4.6c-43.6-15.1-213.4-69.7-363.2-117.8c-32.9-10.6-64.6-20.8-93.5-30
	C1026.4,711,806.5,638.4,746.2,618c-6.8-2.3-13.3-4.6-19.6-6.8c-46.3-16.4-76.9-27.2-109.2,0.9c-38.8,33.7-71.6,35.5-92.3,31.1
	c-26.4-5.6-48.2-24.5-61.4-53c-13.9-29.8-9.8-66.1,10.3-92.5c21.8-28.5,58.7-40.7,101.2-33.5c35.6,6,329.3,51.4,367,56.9
	c47.7,6.9,64-20.4,69.3-44.6c3.3-15,1.1-29-6.3-40.3c-8.8-13.5-24.9-22.9-46.6-27.3c-32.5-6.6-107.7-23.1-174.1-37.7
	c-54.5-12-106-23.3-125.7-27.3c-22.7-4.6-49.5-10.6-73.2-15.9c-22.1-5-43-9.6-56.9-12.4c-2.7-0.5-5.4-1.1-7.9-1.6
	c-23.3-4.8-37.4-7.8-67.4,9.6c-24.9,14.5-47.8,29.3-64.6,40c-8,5.1-14.9,9.6-20.3,12.9c-13.5,8.3-15.8,12.3-20.7,35.7
	c-5.1,24.7-15.7,81.1-18,100.9c-2,17.3-2.4,21.4,12.5,41.4c17.8,23.9,21,53.3,9,82.7c-13.6,33.4-41.6,52.1-78.6,52.6
	c-21.9,0.3-42.6-7.7-58.4-22.3c-16.8-15.7-26.3-37.9-26.6-62.7c-0.4-32.1,1.8-70.8,3.8-104.8c0.9-16.6,1.8-32.2,2.4-45.8
	c0.4-10.5,0.7-19.9,0.9-28.3c0.8-25.8,1.2-42.8,4.5-54.6c5.5-19.7,23.5-32.8,38.6-41.9c12.2-7.4,14-15.4,13.4-37.3
	c-0.6-21.7-1.3-48.8,32.8-86.3c15.6-17.2,34.8-28.8,56.9-34.7c22.8-6,43.1-4.3,56.2-1.9c19.6,3.7,60.6,13,100.3,22.1
	c22.7,5.2,44.2,10.1,59.8,13.5c18.8,4.1,61.8,14,107.4,24.5c58.2,13.4,124.1,28.5,152.8,34.7c21.9,4.7,59.7,13.3,103.4,23.3
	c59.7,13.6,127.4,29.1,181.4,40.6c91.9,19.7,96.1,21.6,113.5,50.2l1.6,2.6c13.8,22.6,18.1,36.3,24,55.3c1.6,5.2,3.3,10.6,5.4,16.8
	c1.6,4.8,3,9.6,4.3,14.3c7.6,26.5,13.2,41.7,38,46.1c39,6.9,166.4,26.7,201.7,32c52.8,7.9,108.9,16.8,125.4,22.3
	c20.1,6.8,42.1,18.3,52.3,52.4c3.6,11.9,9.7,31.8,16.3,52.9c10.1,32.6,20.5,66.2,23.4,76.9c1.6,6,4.7,15.8,8.1,26.2
	c6.3,19.7,13.4,42,15,53.6c2.6,18.5-3.2,51.8-24,67.8C1693.7,907.8,1678.9,913.2,1663.3,913.2z"/>
</svg>
