<?xml version="1.0" encoding="utf-8"?>
<!-- Generator: Adobe Illustrator 27.0.0, SVG Export Plug-In . SVG Version: 6.00 Build 0)  -->
<svg version="1.1" id="Layer_1" xmlns="http://www.w3.org/2000/svg" xmlns:xlink="http://www.w3.org/1999/xlink" x="0px" y="0px"
	 viewBox="0 0 1920 1080" style="enable-background:new 0 0 1920 1080;" xml:space="preserve">
<style type="text/css">
	svg {height: 100%;width: 100%;}.track-surface {fill: none;stroke: white;stroke-width: 30;}
</style>
<path class="track-surface" d="M1366.8,685.3c-0.4-0.8-0.9-1.8-1.3-2.6c-28.2-54.3-83.4-158.6-112.2-210.3c-26.5-47.6-47.8-66.3-66.6-83
	c-5.1-4.5-10.1-8.9-14.7-13.6c-12-12-5.7-21.9-2.4-25.6c6.4-7.1,9.4-14.4,9-21.9c-0.6-11.7-9.4-19.4-14.5-24
	c-0.7-0.6-1.3-1.1-1.9-1.6c-105.9-100-118.5-111-146.2-135c-9.4-8.1-21-18.2-38.7-33.9c-26-23.1-55.7-33.1-86-28.7
	c-29.1,4.1-50.3,19.9-58.1,26.5c-26.8,22.7-23.9,54-13.4,69c3.6,5,11,14.5,15.1,18.9c4.2,4.7,4.7,7.1,4.8,7.6
	c-0.4,0.7-2.2,2.1-3.2,2.8l-0.2,0.1c-1.9,1.3-4.4,3.3-7.1,5.4c-4.6,3.5-9.8,7.4-12.9,9.6c-6.2,4.4-13.5,9.7-21.6,15.4
	c-28.2,20.1-66.9,47.5-90.4,66.3c-26.6,21.2-54.9,33.7-72.5,38.4c-52.6,13.9-71.5,36.3-78,48.4c-10.3,19-12.8,38.4-7.3,57.3
	c5,17.4,15.7,30.4,23.7,38.2c23.4,22.8,69.3,60.1,96.3,78.4l32.2,21.7c108.5,72.9,272.2,183.4,362.5,242.4
	c25.7,16.9,32.1,28.3,37.4,40.6c1.1,2.6,2.4,5.9,3.8,9.4c5.8,14.3,12.9,32,20,41.6c20.5,27.5,39.7,30.8,50.1,32.5l0,0
	c2.5,0.4,5,0.6,7.8,0.6c13.5,0,29.2-4.7,37.5-8.8c10.4-5,24.6-14.9,38.4-24.5c7.6-5.3,14.8-10.3,20.1-13.5
	c26.2-16.1,43.2-30.4,55.4-46.5c12.8-16.9,9.7-35.9,8.3-44.2c-3-18.3,7-23.1,9-23.8c15.5-5.8,20.1-21.6,21.1-26.4c2-8.9,3-23,4-35.4
	c0.4-5.6,0.8-10.8,1.2-14.6C1378.7,707.3,1372.7,696.1,1366.8,685.3z"/>
</svg>
