<?xml version="1.0" encoding="utf-8"?>
<!-- Generator: Adobe Illustrator 27.0.0, SVG Export Plug-In . SVG Version: 6.00 Build 0)  -->
<svg version="1.1" id="Layer_1" xmlns="http://www.w3.org/2000/svg" xmlns:xlink="http://www.w3.org/1999/xlink" x="0px" y="0px"
	 viewBox="0 0 1920 1080" style="enable-background:new 0 0 1920 1080;" xml:space="preserve">
<style type="text/css">
	svg {height: 100%;width: 100%;}.track-surface {fill: none;stroke: white;stroke-width: 30;}
</style>
<path class="track-surface" d="M428.1,954c-7.9,0-16.1-1-24.4-3c-67.9-16.2-73.4-73.9-71.7-115.8c2.1-49.6,18.5-99.9,45.1-138.1
	c26.8-38.5,95.5-120.7,128.7-157.4c6.3-7,18.1-20.2,33.1-36.9c61.5-68.7,176.1-196.5,208.8-228.3l3.1-3
	c39.5-38.3,73.6-71.4,132.9-102.4l3.8-2c57.5-30.1,95.4-50,146.9-37.2c32.8,8.1,62.7,34.4,77.6,49.4c23.5,23.6,41.1,49.9,47.2,70.3
	c6.4,21.6,6.7,44,0.9,63c-6.8,22.1-21.4,39.2-42.4,49.6c-25,12.4-71.6,26.3-112.7,38.6c-25,7.5-48.7,14.6-60.7,19.4
	c-28.7,11.6-40.7,26.9-41.4,52.8c-0.8,28.2-1.7,63.3-34.1,89.2c-18.7,15-39.2,20.9-57.2,26.2c-10.8,3.1-21,6.1-29.9,10.6
	c-23.3,11.9-28.9,17.6-30.5,45.7c-2,34.1-1.7,65.7,23.1,78.5c30.9,16,56.6,17,76.3,3.2c23.5-16.6,31.7-33.8,37.9-57.9
	c6.3-24.6,21.1-82.1,52-112.7c28.2-28,93.9-79.1,118.6-98.3l0.8-0.6c14.3-11.1,47.7-39.2,77.1-64c20.5-17.3,38.3-32.2,47.1-39.3
	c15.1-12.2,28.6-19.5,41.3-22.3c18.6-4.1,35.7,1.6,49.3,16.6c9.2,10.1,17.9,27.1,7,50.7c-6.7,14.6-19.1,27.9-29.1,38.7
	c-1,1.1-2,2.1-2.9,3.1c-1.7,1.8-3.6,3.9-5.6,6c-20.9,22.5-55.8,60.3-77.6,92.7c-21.9,32.7-29,64.6-35.9,95.6
	c-0.4,1.9-0.8,3.8-1.3,5.7c-6.8,30.3-13,58.5-15.3,71.6c-1.4,7.9-0.9,19.7,5,27.1c4.2,5.3,10.9,8.1,20.3,8.5
	c36.9,1.7,166,5.4,188.3,5c2.9-0.1,5.9,0,8.8,0c19.6,0.2,36.5,0.3,47.8-21.4c1.8-3.5,3.6-7.1,5.6-11c15.1-29.9,33.8-67.2,63.6-78.2
	c35.1-13,82.4-11.6,108.9,21c26.7,32.9,32.3,65,18.2,104.1c-14.8,40.9-45.4,63.1-88.6,64.2c-90.2,2.3-247.4,1.7-413.9,0.9
	c-193.5-0.8-393.6-1.7-533.8,1.6l0,0c-7.9,0.2-14.3,5.5-15.6,12.9c-3.2,18.3-7.3,33.5-12.3,45.1c-3.7,8.5-14.6,29.9-36.5,45.5
	C464.6,948.4,446.9,954,428.1,954L428.1,954z"/>
</svg>
