<?xml version="1.0" encoding="utf-8"?>
<!-- Generator: Adobe Illustrator 27.0.0, SVG Export Plug-In . SVG Version: 6.00 Build 0)  -->
<svg version="1.1" id="Layer_1" xmlns="http://www.w3.org/2000/svg" xmlns:xlink="http://www.w3.org/1999/xlink" x="0px" y="0px"
	 viewBox="0 0 1920 1080" style="enable-background:new 0 0 1920 1080;" xml:space="preserve">
<style type="text/css">
	.st0{fill:none;stroke:#231F20;stroke-width:20;stroke-miterlimit:10;}
</style>
<path class="st0" d="M1656,909.3c-8.2,0-16.7-1.5-25.4-4.5c-43.1-14.9-211.2-68.9-359.5-116.6c-32.6-10.5-63.9-20.5-92.5-29.7
	c-153-49.2-370.6-121.1-430.3-141.3c-6.7-2.3-13.2-4.6-19.4-6.8c-4.4-1.6-8.7-3.1-12.9-4.5c-27.7-8.9-85.8-27.3-109.5-34.8
	c-1.2-0.4-2.4,0.3-2.8,1.4c-3.5,11-8.2,26-10.8,34.8c-5.9,19.6-16.4,31.2-32.3,35.2c-0.3,0.1-0.6,0.1-0.9,0.2
	c-19.3,3.2-38.1-0.3-54.3-10.1c-15.4-9.3-28.1-24.2-36.8-42.9c-13.7-29.5-9.7-65.5,10.2-91.5c21.5-28.2,58-40.3,100.2-33.2
	c35.2,6,325.8,50.9,363.2,56.3c47.2,6.8,63.4-20.2,68.6-44.1c3.3-14.9,1.1-28.7-6.2-39.9c-8.7-13.4-24.7-22.7-46.1-27
	c-32.2-6.5-106.6-22.9-172.3-37.3c-54-11.9-104.9-23.1-124.4-27.1c-22.5-4.6-49-10.5-72.4-15.8c-21.9-4.9-42.6-9.5-56.3-12.2
	c-2.7-0.5-5.3-1.1-7.8-1.6c-23.1-4.8-37.1-7.7-66.7,9.5c-24.6,14.3-47.3,28.9-63.9,39.6c-7.9,5.1-14.7,9.5-20.1,12.8
	c-13.4,8.2-15.7,12.2-20.5,35.4c-5,24.4-15.6,80.2-17.8,99.8c-1.9,17.1-2.4,21.2,12.4,41c17.6,23.7,20.8,52.8,9,81.9
	c-13.5,33.1-41.1,51.6-77.8,52c-21.7,0.3-42.2-7.6-57.8-22.1c-16.7-15.5-26-37.6-26.3-62.1c-0.4-31.8,1.8-70,3.7-103.7
	c0.9-16.4,1.8-31.9,2.3-45.3c0.4-10.4,0.7-19.7,0.9-28c0.7-25.5,1.2-42.4,4.5-54c5.4-19.5,23.3-32.4,38.2-41.5
	c12.1-7.3,13.8-15.2,13.2-36.9c-0.6-21.5-1.3-48.3,32.4-85.5c15.4-17,34.4-28.5,56.3-34.3c22.5-5.9,42.7-4.3,55.6-1.8
	c19.4,3.6,60,12.9,99.3,21.9c22.5,5.1,43.7,10,59.2,13.4c18.6,4.1,61.2,13.9,106.3,24.2c57.6,13.2,122.8,28.2,151.2,34.3
	c21.7,4.6,59,13.2,102.3,23c59.1,13.5,126.1,28.8,179.5,40.2c90.9,19.5,95.1,21.3,112.3,49.7l1.6,2.6c13.6,22.4,17.9,36,23.7,54.8
	c1.6,5.2,3.3,10.5,5.3,16.6c1.6,4.8,3,9.5,4.3,14.1c7.6,26.2,13,41.2,37.6,45.6c38.6,6.8,164.6,26.4,199.6,31.7
	c52.2,7.8,107.8,16.6,124.1,22.1c19.9,6.7,41.7,18.2,51.7,51.8c3.5,11.8,9.6,31.5,16.1,52.4c10,32.2,20.3,65.5,23.1,76.1
	c1.6,5.9,4.7,15.7,8,25.9c6.2,19.5,13.3,41.5,14.9,53c2.5,18.3-3.2,51.3-23.7,67.1C1686.1,904,1671.5,909.3,1656,909.3z"/>
</svg>
