<?xml version="1.0" encoding="utf-8"?>
<!-- Generator: Adobe Illustrator 27.0.0, SVG Export Plug-In . SVG Version: 6.00 Build 0)  -->
<svg version="1.1" id="Layer_1" xmlns="http://www.w3.org/2000/svg" xmlns:xlink="http://www.w3.org/1999/xlink" x="0px" y="0px"
	 viewBox="0 0 1920 1080" style="enable-background:new 0 0 1920 1080;" xml:space="preserve">
<style type="text/css">
	svg {height: 100%;width: 100%;}.track-surface {fill: none;stroke: white;stroke-width: 30;}
</style>
<path class="track-surface" d="M1659.3,934c-10.2,0-20.7-1.9-31.5-5.6c-53.5-18.5-262-85.5-445.9-144.6c-40.4-13-79.3-25.5-114.8-36.9
	c-189.8-61.1-459.7-150.2-533.8-175.3c-8.4-2.8-16.4-5.7-24.1-8.4c-56.8-20.1-94.4-33.4-134,1.1c-47.7,41.4-88,43.6-113.4,38.2
	c-32.4-6.9-59.1-30-75.4-65.1c-17-36.6-12.1-81.2,12.6-113.5c26.7-35,72-50,124.3-41.2c43.7,7.4,404.2,63.1,450.6,69.8
	c58.5,8.5,78.6-25.1,85.1-54.8c4.1-18.4,1.4-35.6-7.7-49.5c-10.8-16.6-30.6-28.2-57.2-33.5c-32.2-6.5-97.6-20.8-157.3-33.9
	c0,0,0,0,0,0c-41.6-9.1-61.3-38.9-54.2-81.6c3.1-18.7,11.7-32.8,25.3-42c21.8-14.6,50-12.3,69.9-7.8c20.9,4.7,44.8,10.2,70.3,16
	c73.3,16.7,156.4,35.7,222.7,49.9c112.8,24.2,118,26.5,139.3,61.6l2,3.2c16.9,27.7,22.2,44.6,29.4,67.9c2,6.4,4.1,13,6.6,20.6
	c2,5.9,3.7,11.8,5.3,17.6c9.4,32.5,16.2,51.1,46.6,56.5c47.9,8.5,204.2,32.8,247.6,39.3c64.8,9.7,133.7,20.6,154,27.4
	c24.7,8.3,51.7,22.5,64.2,64.3c4.4,14.6,11.9,39,20,64.9c12.4,40,25.2,81.3,28.7,94.5c2,7.4,5.8,19.4,9.9,32.2
	c7.7,24.2,16.5,51.5,18.5,65.8c3.1,22.7-3.9,63.6-29.5,83.3C1696.5,927.5,1678.4,934,1659.3,934z"/>
</svg>
