<?xml version="1.0" encoding="utf-8"?>
<!-- Generator: Adobe Illustrator 27.0.0, SVG Export Plug-In . SVG Version: 6.00 Build 0)  -->
<svg version="1.1" id="Layer_1" xmlns="http://www.w3.org/2000/svg" xmlns:xlink="http://www.w3.org/1999/xlink" x="0px" y="0px"
	 viewBox="0 0 1920 1080" style="enable-background:new 0 0 1920 1080;" xml:space="preserve">
<style type="text/css">
	svg {height: 100%;width: 100%;}.track-surface {fill: none;stroke: white;stroke-width: 30;}
</style>
<path class="track-surface" d="M732.8,934c-32.4,0-63-11.9-86.4-33.7c-25.4-23.6-39.6-57.2-40-94.5c-0.6-48.4,2.7-106.6,5.7-158
	c1.4-25,2.8-48.6,3.6-69c0.6-15.8,1-30,1.4-42.6c1.1-38.9,1.9-64.6,6.8-82.3c8.3-29.8,35.5-49.4,58.2-63.2
	c18.4-11.2,21.1-23.2,20.2-56.2c-0.9-32.8-2-73.6,49.4-130.1c23.5-25.9,52.4-43.5,85.8-52.3c34.3-9,65-6.5,84.7-2.8
	c29.5,5.6,91.4,19.7,151.2,33.3c34.2,7.8,66.6,15.2,90.2,20.3c13.7,3,36.4,8.1,71.7,16.2c77.2,17.7,83.9,64.1,75.9,99.8
	c-11.6,51.9-62.5,78.7-123.7,65.3l-0.1,0c-28.5-6.4-50.9-11.3-67.2-14.5c-4.1-0.8-8.1-1.6-11.9-2.4c-35.2-7.3-56.4-11.7-101.5,14.5
	c-37.5,21.8-72.1,44.1-97.3,60.3c-12,7.7-22.4,14.4-30.5,19.4c-20.6,12.7-23.8,18.2-31.2,53.9c-7.7,37.2-23.7,122.2-27.1,152.1
	c-3,26.1-3.7,32.2,18.8,62.4c26.9,36.1,31.7,80.4,13.6,124.7c-20.5,50.4-62.6,78.5-118.5,79.2C733.9,934,733.4,934,732.8,934z"/>
</svg>
