<?xml version="1.0" encoding="utf-8"?>
<!-- Generator: Adobe Illustrator 27.0.1, SVG Export Plug-In . SVG Version: 6.00 Build 0)  -->
<svg version="1.1" id="Barber_Full_Config" xmlns="http://www.w3.org/2000/svg" xmlns:xlink="http://www.w3.org/1999/xlink" x="0px"
	 y="0px" viewBox="0 0 1920 1080" style="enable-background:new 0 0 1920 1080;" xml:space="preserve">
<style type="text/css">
	.st0{fill:none;stroke:#FFFFFF;stroke-width:30;stroke-miterlimit:10;}
</style>
<path class="st0" d="M1662.5,928.8c-10.9,0.1-21.7-0.9-32.4-3c-25.6-5.2-44.4-16.6-55.8-33.8c-7.8-11.8-12-25.9-12.6-43.1
	c-1.1-26.1,0.4-80.9,1.5-109.2c1.3-35.6-9.1-68.8-28-88.9c-12-12.8-26.5-19.5-43-19.8c-180.5-4.1-496.3-4.7-726.8-5.1
	c-49-0.1-94.2-0.2-133.8-0.3h-0.4c-52.2,0-71.4,25.9-84.4,54c-3.2,7-7.1,15.6-11.2,24.7c-20,44.2-47.3,104.7-69.8,136.7
	c-30.9,43.9-64,52.8-92.3,55.8c-4.5,0.5-9,0.7-13.5,0.7c-36,0-62.5-15.3-79.1-29c-21.5-17.8-37.5-42.7-41.8-65.1
	c-14.6-75.8,29.5-116.4,48.4-133.7c25.1-23.1,84.2-72.1,115.9-93.4c67.3-45.2,104.3-44.8,140.1-44.4h5.9
	c82.8,0.5,205.5-1.5,324.3-3.3c94.8-1.5,192.9-3.1,267.3-3.3c20.9-0.1,35.5-4.8,43.4-14s7.4-21.1,6.4-27.4
	c-7.4-47.3-34.1-61.7-53.6-68.4c-32.6-11.2-88.7-21.6-125.8-28.5c-6.6-1.2-12.6-2.3-17.8-3.3c-61.2-11.7-107.4-5.2-144.5,2.7
	c-55.7,11.9-141.3,27.3-224.1,42.2c-77.9,14-158.5,28.5-211.5,39.7l-4.7,1c-36.9,7.8-105.7,22.2-142.6,26.3
	c-37.9,4.1-57.1-4.9-69.5-13.1c-20.6-13.7-33.4-31.9-43.8-47.9c-11.2-17.2-25.7-18.3-39.8-19.3c-7.1-0.5-13.9-1-19.7-3.7
	c-16.6-7.7-27.5-20.4-31.6-36.7c-6.5-26.2,5.8-55.1,15.7-68.2c36.3-47.9,86.3-52.1,120.8-51.1c68.6,2,180,2.4,278.2,2.7
	c61.7,0.2,119.9,0.4,163.1,0.9c24.7,0.3,38.2-4.7,48.2-9.7s24-15.3,32.4-21.4l2.6-2c58.7-42.8,111.2-29.3,131-21.4
	c160.2,63.1,445.9,168.4,641.9,239.3c18.8,6.8,29.1,5.5,40.6,1c22.9-9,81.7-29.6,107.1-31.9c33.5-3,61.6,2.4,83.3,16.1
	c19.2,12.1,30.3,28.5,37.9,41.5c29.1,49.8,107.7,190.2,108.5,191.6c24.6,43.7,23.5,92.6-3.2,141.4c-20.9,38.2-53.5,68.8-75.2,83.5
	C1749.2,918.1,1700.2,928.8,1662.5,928.8z"/>
</svg>
