<?xml version="1.0" encoding="utf-8"?>
<!-- Generator: Adobe Illustrator 27.0.0, SVG Export Plug-In . SVG Version: 6.00 Build 0)  -->
<svg version="1.1" id="Layer_1" xmlns="http://www.w3.org/2000/svg" xmlns:xlink="http://www.w3.org/1999/xlink" x="0px" y="0px"
	 viewBox="0 0 1920 1080" style="enable-background:new 0 0 1920 1080;" xml:space="preserve">
<style type="text/css">
	.st0{fill:none;stroke:#231F20;stroke-width:20;stroke-miterlimit:10;}
</style>
<path class="st0" d="M552.3,223.1c160.1-13.6,322.5-21.5,483.1-28.8c70.1-2.6,145.8-6,215.8-6.4c18.3-0.1,38.2-0.1,56.5,0.8
	c140.7,6.8,261.1,56.7,343.2,175.5c21.7,30.4,42.7,62,56.5,96.9c18.7,47,21.6,99.8,9.4,148.8c-8.7,35.4-25,68.6-44.5,99.1
	c-29,44.8-65.9,85.3-111.1,114.2c-32.2,20.6-68,35.3-105,44.6c-83.3,20.6-169.6,19.1-254.6,21.4c-179,2.7-358,4.4-537.1,0.8
	l-27.4-0.9l-3.4-0.1l-3.6-0.2l-7.1-0.4c-83.4-4.4-163.7-23.7-239.9-59c-110.4-52.1-191.1-142.4-186.9-270.7
	c3-97.4,57.7-190.9,133-250.5C392.3,258,473,230.7,552.3,223.1L552.3,223.1L552.3,223.1z"/>
</svg>
