<?xml version="1.0" encoding="utf-8"?>
<!-- Generator: Adobe Illustrator 27.0.0, SVG Export Plug-In . SVG Version: 6.00 Build 0)  -->
<svg version="1.1" id="Layer_1" xmlns="http://www.w3.org/2000/svg" xmlns:xlink="http://www.w3.org/1999/xlink" x="0px" y="0px"
	 viewBox="0 0 1920 1080" style="enable-background:new 0 0 1920 1080;" xml:space="preserve">
<style type="text/css">
	svg {height: 100%;width: 100%;}.track-surface {fill: none;stroke: white;stroke-width: 30;}
</style>
<path class="track-surface" d="M1160.1,946c-3.8,0-7.7-0.9-11.2-2.7c-15-7.6-26.3-14.1-33.8-19.2c-11.1-7.7-33-28.4-49.3-44.4
	c-4.6-4.5-6.9-10.7-6.5-17.1c0.5-6.4,3.7-12.2,8.9-16l3-2.2c1.3-0.9,1.6-2.2,1.7-2.9c0.1-0.7,0.1-2-0.9-3.3
	c-23.9-29.7-103.3-128.6-124.4-154.4c-9.4-11.5-32.4-40.6-59-74.2c-44.4-56-99.6-125.8-109.4-136.4l-1.7-1.9
	c-14.8-16.1-28.9-31.3-61.1-32c-50.5-1-104.1-1.5-113.4-1.5c-17.2,0-25.5,3.5-29.4,6.5c-10.6,8-38.8,26.2-76.4,26.2
	c-1.6,0-3.3,0-4.9-0.1c-21.9-0.9-40.7-5.7-57.5-14.7c-19-10.1-35-25.7-47.7-46.3c-26.9-43.5-22.2-94.1-5.6-125
	c16.5-30.7,38.7-45.4,93-71.6c6.5-3.1,12.6-6.1,18.4-8.9c42.7-20.8,68.5-33.4,112-41.5c42.9-8,96.9-11.8,144.5-15.1
	c6.4-0.4,12.6-0.9,18.6-1.3c17.3-1.3,37.3-2.9,58.5-4.6c39.9-3.3,81.2-6.7,104.7-7.3c35-1,63.1,1.4,111.6,9.4
	c31,5.1,65.8,15.1,96.6,23.9c16.6,4.8,32.3,9.2,46.3,12.7c31.9,7.9,190.1,48.8,256.6,66c8.9,2.3,15.3,9.7,16.5,18.7
	c1.2,9.1-3.3,17.8-11.3,22.3c-4.7,2.6-9.8,4.4-15.2,5.3l-97.9,16.1c-6.7,1.1-13.5,1.3-20.3,0.5l-122.3-14.1
	c-3.4-0.4-6.9-0.9-10.3-1.5l-17.1-3.1c-9.6-1.8-19.4-2.5-29.1-2.2l-286.6,8.5c-12.8,0.4-25-5-33.2-14.8
	c-7.9-9.3-19.9-21.6-32.4-27.1c-21.2-9.2-37.4-14.4-99.7-5.7c-64.5,9-111.9,27.3-125.3,40.7c-10.5,10.5-26.2,31.4-14,54.2
	c3.5,6.5,8.8,10.6,15.7,12.1c10.4,2.3,23.9-1.4,34.5-9.4c21.2-16,55-36.7,103.8-31.2c25.4,2.8,46.3,10,66.6,16.9
	c17.6,6,35.8,12.2,57.6,15.9c40.8,6.9,98.5,4.4,144.8,2.4c7.2-0.3,14.1-0.6,20.7-0.9c52.9-2,213.9-5.1,215.5-5.1
	c14.2-0.3,30.7,1.6,45.5,17.8c1.7,1.9,3.4,3.8,5.2,5.8c10.7,12,22.7,25.5,38.3,30.2c18,5.4,65,4.3,100.7-2.3
	c27.6-5.1,85-23.7,109.5-31.6c5.5-1.8,9.5-3.1,11.6-3.7c0.8-0.2,1.6-0.5,2.3-0.7c6.9-2.2,14-4.4,21.1-0.7
	c7.1,3.7,10.3,11.8,12.1,17.5c7,22.3-0.4,50.6-20.8,79.6c-21.8,31-65,67.9-107.4,103c-5.4,4.5-11.2,9.3-17.4,14.3
	c-42.9,35.1-101.6,83.1-134.3,129c-31.1,43.6-40.9,80.2-48.1,107c-1.4,5.2-2.7,10.2-4.1,14.7c-6,20.1-23.8,74.2-33.9,104.5
	c-2.3,6.8-7.4,12.3-14,15.1C1166.5,945.4,1163.3,946,1160.1,946L1160.1,946z"/>
</svg>
