<?xml version="1.0" encoding="utf-8"?>
<!-- Generator: Adobe Illustrator 27.0.0, SVG Export Plug-In . SVG Version: 6.00 Build 0)  -->
<svg version="1.1" id="Grand_West_-_Config" xmlns="http://www.w3.org/2000/svg" xmlns:xlink="http://www.w3.org/1999/xlink"
	 x="0px" y="0px" viewBox="0 0 1920 1080" style="enable-background:new 0 0 1920 1080;" xml:space="preserve">
<style type="text/css">
	.st0{fill:none;stroke:#231F20;stroke-width:10;stroke-miterlimit:10;}
</style>
<path class="st0" d="M1776.2,441.8c-0.5-12.1-14.6-33.3-24.2-43.4c-9.8-10.4-20.9-15-35.8-15c-12.9,0-64.3,8.7-81.4,11.7
	c-14.1,2.6-28,6.1-41.6,10.6l-0.2,0.1c-0.7,0.3-67.8,25-86.3,31.7c-2.5,0.9-4.9,1.9-7.7,3c-25.9,10.8-46,1.5-46.8,1.1l-0.1-0.1
	c-4.5-2-108.5-50.2-127-57.8c-30.9-13.4-61.4-8.6-64.3-8.1c-2.1,0.3-26.2,3.5-36.4,4.7h-0.3c-25.6,4.4-47-4.1-55.1-7.2l-1.4-0.6
	c-26.7-10.8-54.1-6.6-55.2-6.5c-1.7,0.3-40.8,6.3-52,9.1h-0.1c-21.6,5.8-52.3,0-52.6-0.1h-0.2c-1.6-0.3-157.2-25.8-166.8-27.7
	l-0.3,0c-62.3-9.2-94.2-9.1-131-9c-12.6,0-25.6,0.1-40.7-0.3h-0.2c-7.7,0-20.6,0-29.2-5.7l-0.3-0.2c-27.9-16.6-49.8-14.9-59.4-14.1
	c-24.6,0.4-34.9-7.3-41.1-11.8c-1-0.7-1.9-1.4-2.8-2c-24.3-16.7-31.7-18.4-46.6-15.8l-0.5,0.1l-0.4,0.1
	c-39.3,12.6-55.9,26.8-63.8,33.7c-0.9,0.8-1.7,1.5-2.4,2l-0.2,0.2c-7.7,6.7-13.3,13.8-16.7,21.1c-3.7,8.1-4.2,17.2-1.6,25.7
	c1.5,4.9,4.3,14.4,6.1,22.9l0.1,0.4c3,11-2.2,19.2-15.4,24.4c-37,12.8-87.4,22.4-104,25.6l-2.5,0.5c-32.4,5.5-38.7-4.2-43.8-12
	c-0.6-0.9-1.2-1.8-1.7-2.6c-4.9-7-19.5-35.9-23.6-67.5c-3.9-27.6,6-46.2,10.7-55.2c0.4-0.7,0.7-1.4,1-2c4.7-9.1,22.4-51.5,26.8-63.9
	l0.4-1.3c3.4-9.8,13.9-39.9,7.1-70.5c-2.3-9.8-6.6-19.1-12.6-27.1c-14.5-19.3-29.5-28-45.9-26.5h-0.3c-30.6,4.1-35.6,41.4-35.8,43
	c0,0.3-4.2,32.4-5.2,39.1c-0.8,5.4-18.1,130.9-19.8,163.4c-1.8,16.3-1.1,84.3-1.1,88.8c-1.7,53.4,13.6,109.2,17.8,121.2
	c6.1,17.5,75.6,184.9,90,219.5c2.7,6.4,5.6,12.7,8.6,18.9l7.8,15.8c3.7,7.5,7.9,14.7,12.5,21.7c17.9,27.1,48.9,74.1,56.1,83.6
	l0.3,0.4c16.1,18.2,47.3,28.9,92.6,31.7c2.7,0.3,5.3,0.5,8,0.5c4.3,0,8.5-0.4,12.7-1.3c10.8-2.3,20.4-8.5,27-17.4
	c5.1-6.8,14.4-19.3,20.4-27.7c3.7-5.3,8.4-9.9,13.8-13.5c3.6-2.4,7.5-4.3,11.5-5.8c28.5-10.9,57.8-19.5,87.7-25.6
	c11.8-2.2,24.5-4.4,39.8-3.7c24.8,1.1,37.8,20,45.5,31.2c0.9,1.4,1.8,2.6,2.6,3.7l0.4,0.5c21.5,24.1,47.9,17.7,59.4,8
	c3.5-2.9,8.1-8.2,13.5-14.3c6.7-7.6,15-17,20-20.1c12.8-8,26.9-26.9,36.3-39.3c2.2-2.9,4.1-5.4,5.6-7.3c5.2-6.5,9.9-10,16.3-13.6
	c11.5-6.6,21.3-15.8,28.6-27c12-18.4,17.1-36.7,19.5-45.5c0.3-1,0.5-1.9,0.7-2.6c5.8-17.9,0.3-35.1-2.1-42.4
	c-0.2-0.7-0.4-1.2-0.5-1.7l-0.2-0.5c-9.1-23.8-10-35.6-9.8-44.1c1.1-23.2,8-32.2,15.3-41.6l2-2.6c1.4-1.9,3.4-4.4,5.8-7.3
	c11.5-14.5,28.9-36.3,32.8-51.3c2-6.3,2.6-12.2,3.3-19.7c0.6-6.1,1.4-13.7,3.1-23.7c2.2-13.3,7.9-25.8,16.4-36.3l0.5-0.7
	c17-17.9,36.5-23.9,44.9-26.5c1-0.3,1.8-0.6,2.5-0.8c17.9-4.8,25.6-1.4,33.7,2.3c1.2,0.5,2.3,1.1,3.5,1.5c15.7,7.9,24.8,4.3,27.2,3
	c1.6-0.8,15.2-7.3,26.5-11.1c9.4-3.1,17,1.4,21.5,4.2l1.1,0.7c6.6,4.3,14,7.5,21.7,9.2c5,1.3,21,2.7,41.3,4.3
	c7.9,0.7,14.6,1.2,17.4,1.6h0.3c64.4,4.6,124.6,19.4,136,22.4l2.4,0.6c9.5,2.4,21.4,5.3,25.7,17.9c3.9,15.4-4.8,24.1-12.9,28.7
	c-1.6,0.9-3.3,1.7-5.1,2.4c-5.9,2.5-13.3,5.7-20.3,16.5c-6.7,9.8-6.8,32.7-6.8,37.7c-0.8,18.7-17.8,27.2-25,30
	c-3,1.1-6.1,2.5-9.5,4.1c-14.5,6.8-62.9,29.5-74.9,35c-1.5,0.7-2.9,1.4-4,2c-10.5,5.5-21.8,9.2-33.4,11.1c-1.4,0.2-4.9,0.7-9.6,1.4
	c-18.8,2.6-57.7,7.9-79.8,12.6c-26.6,5-54.3,19.1-70.9,27.4c-22,10.5-23.8,31.6-19.7,43.2l0.1,0.3c7.8,19.3,20.5,25.9,29.7,28.1
	c6.2,1.5,12.6,1.4,18.8-0.2l22.9-8c97.3-35.2,218.7-79.4,245-90.8c142.7-56.5,276.4-131,280.9-133.4
	c56.6-29.3,143.8-73.8,152.2-76.5l0.7-0.3c0.9-0.4,2.1-0.9,3.3-1.4C1761.7,466.2,1777.9,459.4,1776.2,441.8z"/>
</svg>
