<?xml version="1.0" encoding="utf-8"?>
<!-- Generator: Adobe Illustrator 27.0.0, SVG Export Plug-In . SVG Version: 6.00 Build 0)  -->
<svg version="1.1" id="North_-_Config" xmlns="http://www.w3.org/2000/svg" xmlns:xlink="http://www.w3.org/1999/xlink" x="0px"
	 y="0px" viewBox="0 0 1920 1080" style="enable-background:new 0 0 1920 1080;" xml:space="preserve">
<style type="text/css">
	.st0{fill:none;stroke:#231F20;stroke-width:10;stroke-miterlimit:10;}
</style>
<path class="st0" d="M1388.6,382.9c-14.8-21.8-45-25.7-48.3-26.1c-58.7-9.7-92-15.3-96.3-16l-0.3,0c-64.5-9.6-97.4-9.5-135.5-9.4
	c-13,0-26.5,0.1-42-0.3h-0.2c-8,0-21.3,0-30.2-5.9l-0.3-0.2c-28.8-17.2-51.5-15.4-61.4-14.6c-25.4,0.4-36.1-7.5-42.5-12.2
	c-1-0.8-2-1.5-2.9-2.1c-25.1-17.3-32.8-19-48.2-16.4l-0.5,0.1l-0.5,0.1c-40.7,13-57.8,27.7-66,34.8c-0.9,0.8-1.8,1.5-2.5,2.1
	l-0.2,0.2c-7.9,6.9-13.7,14.3-17.2,21.9c-3.8,8.3-4.4,17.8-1.6,26.5c1.6,5.1,4.5,14.9,6.3,23.7l0.1,0.4c3.1,11.4-2.3,19.8-15.9,25.2
	c-38.2,13.2-90.4,23.2-107.5,26.4l-2.6,0.5c-33.5,5.7-40-4.4-45.3-12.4c-0.6-0.9-1.2-1.8-1.8-2.7c-5-7.2-20.1-37.1-24.5-69.8
	c-4-28.5,6.2-47.8,11-57.1l1.1-2c4.8-9.4,23.2-53.2,27.7-66.1l0.5-1.3c3.6-10.2,14.4-41.2,7.3-72.9c-2.3-10.2-6.8-19.7-13.1-28
	c-15-20-30.5-28.9-47.4-27.4h-0.3c-31.6,4.2-36.8,42.9-37,44.5c0,0.3-4.4,33.5-5.4,40.5c-0.9,5.5-18.7,135.4-20.5,169
	c-1.8,16.8-1.2,87.1-1.1,91.8c-1.7,55.2,14.1,112.9,18.4,125.4c6.3,18.1,78.1,191.2,93.1,226.9c2.8,6.6,5.7,13.1,8.9,19.5l8.1,16.3
	c3.8,7.7,8.1,15.2,12.9,22.5c14.9,22.6,50.2,76.2,58,86.4l0.3,0.4c16.6,18.9,48.9,29.9,95.8,32.8c2.7,0.3,5.5,0.5,8.3,0.5
	c4.4,0,8.8-0.4,13.1-1.3c11.2-2.4,21-8.8,27.9-17.9c5.2-7,14.9-20,21.1-28.7c3.8-5.5,8.6-10.2,14.2-13.9c3.7-2.4,7.7-4.5,11.9-6
	c29.5-11.3,59.8-20.1,90.7-26.5c12.2-2.3,25.4-4.5,41.2-3.9c25.7,1.1,39.1,20.7,47.1,32.3c0.9,1.4,1.8,2.7,2.7,3.8l0.4,0.6
	c22.3,25,49.5,18.3,61.4,8.3c3.6-3,8.4-8.5,14-14.8c6.9-7.8,15.5-17.5,20.6-20.8c19.3-11.8,40.7-42.9,41.6-44.3l0.1-0.1
	c0.1-0.2,10.4-15.8,22.2-20.7c14.7-6.1,23-20.2,24.6-23.1c9.4-13.2,15.9-30.4,19.8-42.6c4.7-14.6,5.6-30.1,2.8-45.1
	c-0.6-3.7-1.7-7.2-3.2-10.6c-9.2-24.3-10.3-36.5-10-45.2c1.2-24,8.3-33.3,15.8-43l2.1-2.7c1.5-1.9,3.5-4.6,6-7.6
	c11.9-15,29.9-37.5,34-53c2.1-6.5,2.7-12.6,3.4-20.4c0.6-6.3,1.4-14.2,3.2-24.5c1.8-11.1,6-21.7,12.2-31.1
	c3.5-5.2,6.6-10.6,9.4-16.2c2.1-4,4.8-8.7,7.4-13.2c3.8-6.6,7.1-12.2,8.7-16.3l0.2-0.6C1398.8,411,1397.1,395.5,1388.6,382.9z"/>
</svg>
