<?xml version="1.0" encoding="utf-8"?>
<!-- Generator: Adobe Illustrator 27.0.0, SVG Export Plug-In . SVG Version: 6.00 Build 0)  -->
<svg version="1.1" id="South_-_Config" xmlns="http://www.w3.org/2000/svg" xmlns:xlink="http://www.w3.org/1999/xlink" x="0px"
	 y="0px" viewBox="0 0 1920 1080" style="enable-background:new 0 0 1920 1080;" xml:space="preserve">
<style type="text/css">
	.track-surface{fill:none;stroke:#231F20;stroke-width:10;stroke-miterlimit:10;}
</style>
<path class="track-surface" d="M1647.8,299.3c-1-21.3-25.8-58.8-42.9-76.8c-17.4-18.3-36.9-26.5-63.2-26.5c-22.8,0-113.7,15.3-143.8,20.7
	c-24.9,4.5-49.5,10.7-73.5,18.6l-0.3,0.1c-1.2,0.4-119.8,44.2-152.6,56.1c-4.4,1.6-8.6,3.3-13.5,5.3c-45.8,19.1-81.3,2.6-82.8,1.9
	l-0.2-0.1c-7.9-3.6-191.8-88.7-224.5-102.2c-54.7-23.7-108.5-15.2-113.6-14.3c-2.5,0.3-23.9,3.2-42.8,5.6
	c-19.7,2.5-38.7,8.2-56.5,17c-21.4,10.7-39.5,22.9-53.7,36.3c-15.3,14.3-20.3,32.2-13.8,49c8.9,23.1,37.7,39.5,70,40.1
	c1.7,0,3.5,0,5.1,0.2c112.7,8.4,217.7,34.2,237.6,39.3l4.2,1c16.9,4.2,37.8,9.3,45.3,31.6c6.9,27.3-8.6,42.7-22.8,50.8
	c-2.9,1.6-5.9,3-8.9,4.2c-10.5,4.5-23.6,10.1-35.9,29.2c-11.9,17.4-12.1,57.8-12,66.7c-1.5,33.1-31.5,48.1-44.2,53.1
	c-5.3,2-10.8,4.4-16.8,7.2c-25.7,12.1-111.2,52.2-132.3,61.9c-2.7,1.2-5.2,2.5-7.1,3.6c-18.5,9.6-38.5,16.2-59.1,19.5
	c-2.5,0.4-8.6,1.2-17,2.4c-33.2,4.5-102,14-141.1,22.3c-47.1,8.9-96.1,33.7-125.4,48.6h-0.2c-2.2,1.2-22,11.9-31.6,28.7v0.1
	c-0.6,1.2-15.3,28.8,4.7,63.6c16.2,28.2,41.6,35.9,60.7,35.9c5.9,0,11.7-0.7,17.4-2.3l40.5-14.2c172-62.2,386.6-140.4,433-160.5
	c252.3-99.8,488.7-231.4,496.5-235.7c100.1-51.7,254.2-130.4,268.9-135.3l1.3-0.5c1.6-0.8,3.7-1.6,5.9-2.5
	C1622.2,342.4,1650.8,330.4,1647.8,299.3z"/>
</svg>
