<?xml version="1.0" encoding="utf-8"?>
<!-- Generator: Adobe Illustrator 27.0.0, SVG Export Plug-In . SVG Version: 6.00 Build 0)  -->
<svg version="1.1" id="Layer_1" xmlns="http://www.w3.org/2000/svg" xmlns:xlink="http://www.w3.org/1999/xlink" x="0px" y="0px"
	 viewBox="0 0 1920 1080" style="enable-background:new 0 0 1920 1080;" xml:space="preserve">
<style type="text/css">
	.st0{fill:none;stroke:#231F20;stroke-width:20;stroke-miterlimit:10;}
</style>
<path class="st0" d="M834.5,205.7c-2.1,0.7-12.4,2.9-31.9-7.1l-0.9-0.4c-2.4-1-4.9-2.1-7.3-3.2c-19.4-8.8-43.6-19.7-92.2-6.4
	l-0.8,0.2c-1.4,0.5-3.1,1-5.1,1.6c-18.7,5.8-57.6,17.7-95.5,51.6c-8.3,7.5-15.9,15.9-22.5,25l-4.6,6.2l-0.4,0.5
	c-15.2,22.8-25.3,48.5-29.8,75.5c-4,22.6-5.8,39.6-7,53.2c-1.5,15.1-2.6,26.1-6,36.8l-0.3,0.9c-6.6,26.1-44.8,74-65.3,99.7
	c-5.1,6.4-9.6,12-12.8,16.3c-1.3,1.8-2.7,3.6-4.1,5.4c-16.9,21.9-36,46.8-38.8,105.8v0.2c-0.6,21,1.6,50,22.9,105.9l0.3,0.9l0.4,0.8
	c4.2,7.9,8.2,34.7,9.1,61.1c0.7,22.3,14.4,52.7,50.2,65c5.4,1.9,11,2.8,16.7,2.9c19.8,0,35.9-12.4,45.4-26.2
	c8.3-14,25.4-20.3,40.8-14.9c5.2,1.7,10.4,3.6,15.4,5.9c5.4,2.3,10.9,4.6,17.3,6.7c16,5.4,33.5,4.2,48.6-3.4
	c15.4-8,22.7-19.5,30.5-31.7l2.4-3.7l0.4-0.7c6.2-11,21.1-20.7,26.6-23.5c34.3-17.3,91.6-46.3,144.8-56.4h0.3
	c46.6-9.9,129.7-21.3,169.7-26.7c10.4-1.4,17.9-2.5,21.1-3c28.2-4.6,55.6-13.6,81-26.8c1.9-1,4.5-2.4,7.1-3.6
	c25.7-11.8,129.8-60.6,161.1-75.3c6.7-3.2,12.8-5.8,18.6-8c16.4-6.3,70-31.5,72.4-90.7v-0.8c-0.3-20.8,2.5-54.6,9.6-64.8l0.3-0.5
	c10.2-16,19.2-19.8,30.7-24.7c4.7-1.9,9.4-4.1,13.8-6.6c17.3-9.9,55.7-38.7,41.3-94.5l-0.3-0.9c-14-42.6-52.6-52.2-75.7-57.8
	l-4.9-1.2c-24.6-6.3-154.4-38.3-293.8-48.6l-2.8-0.2l0,0c-6.6-0.8-20.7-1.9-38.6-3.5c-28.1-2.3-75.3-6.3-84.1-8.6l-0.5-0.1
	c-13.6-3-26.5-8.5-38.2-16.2l-2.5-1.6c-11.1-6.8-37.2-22.8-70.2-11.8L834.5,205.7z"/>
</svg>
