<?xml version="1.0" encoding="utf-8"?>
<!-- Generator: Adobe Illustrator 27.0.0, SVG Export Plug-In . SVG Version: 6.00 Build 0)  -->
<svg version="1.1" id="Laguna_Seca_-_Config" xmlns="http://www.w3.org/2000/svg" xmlns:xlink="http://www.w3.org/1999/xlink"
	 x="0px" y="0px" viewBox="0 0 1920 1080" style="enable-background:new 0 0 1920 1080;" xml:space="preserve">
<style type="text/css">
	svg {height: 100%;width: 100%;}.track-surface {fill: none;stroke: white;stroke-width: 30;}
</style>
<path class="track-surface" d="M1343.4,316.3l-211.3-209.1l0,0c-1.4-1.4-12.9-11.9-34-9.2c-20.2,2.3-65.7,10.4-67.6,10.7h-0.2
	c-1.7,0.3-41.2,8.9-70.4,28.3c-8.2,5.3-126.5,86.2-133,90.7c-2.7,1.7-37.4,23.8-66.5,52.4c-5.6,5-13.8,8.4-21.1,11.1
	c-8.4,3.1-48.8,18-52.6,19.4c-7.6,2.1-20.1,9.4-20.4,23.9v0.3c0.1,6.5,3.2,13.3,6.2,19.9c2.1,4.6,4.9,10.9,4.5,13.5v0.2
	c-0.3,2.5-4.5,12.8-7.8,16.2c-0.9,1-4.6,4.4-19.2,17.2c-10.7,9.3-22.2,17.7-34.4,25c-11.8,7.2-28.6,18.7-41.5,33
	c-25.5,25.5-29.3,52.4-29.3,66.2c0,0.5,0,1.1,0,1.8c-0.2,9.8-0.8,35.9,23.6,55.4c18.2,14.3,139.1,106.4,140.3,107.3
	c0.2,0.1,16.8,13.4,13.3,31.8c-4.1,17.7-8,24.4-8.4,25.1l-0.2,0.3l-96.6,195.3c-1.6,2.7-8.7,15.7-2.3,26.8c5.3,9,16.8,13,35.4,12.1
	c22,0,249,0.5,294.4,0.6h0.3c8.8,0,17.5-0.9,26.1-2.7l159.2-32.8l0.3-0.1c19.4-5.6,37.6-14.5,53.8-26.4
	c22.9-16.5,121.5-90.6,122.6-91.4c1.2-1,29.4-23.1,21.2-48.1c-8.3-28.2-34.1-38-48.4-37.5c-13.8,0.5-25.7,6.5-32.6,16.5
	c-6.4,9.3-29,40.3-36.6,47.9c-7.8,7.8-49,39.6-59.2,44.5l-0.5,0.2c-7.3,4.2-36.1,17.8-48.1,23.4c-7,3.4-14.8,4.7-22.5,3.7l-1.2-0.2
	c-9.9-1.7-18.4-8.2-22.7-17.3c-13.4-27.3-44.1-103.9-44.5-104.6l-28.9-65.9c-3.2-7.2-5.1-14.9-5.5-22.8
	c-0.6-12.8,1.5-30.7,15.5-43.1l0.4-0.4c14.7-15.1,62.8-56,82.8-72.9c8.5-7.2,17.4-13.8,26.8-19.7c11.8-7.5,29.7-18.3,47.6-26.7
	c3.5-1.7,7.3-3.2,11.6-4.8c31.2-11.2,166.8-59.9,173.5-62.3c4.1-1.2,35.6-11.7,39.8-54.7v-0.3
	C1376.1,367.8,1366.6,340.3,1343.4,316.3z"/>
</svg>
