<?xml version="1.0" encoding="utf-8"?>
<!-- Generator: Adobe Illustrator 27.0.0, SVG Export Plug-In . SVG Version: 6.00 Build 0)  -->
<svg version="1.1" id="Layer_1" xmlns="http://www.w3.org/2000/svg" xmlns:xlink="http://www.w3.org/1999/xlink" x="0px" y="0px"
	 viewBox="0 0 1920 1080" style="enable-background:new 0 0 1920 1080;" xml:space="preserve">
<style type="text/css">
	.st0{fill:none;stroke:#231F20;stroke-width:20;stroke-miterlimit:10;}
</style>
<path class="st0" d="M1622.7,697.7l-1.3-0.9c-16.2-10.4-37.3-21.7-57.8-32.4c-13-6.8-25.1-13.2-35.4-19.2
	c-35.2-20.2-43-41.3-50.1-59.9c-14.3-37.9-32.4-98.7-49.9-157.5c-14.5-49-28.3-95.3-39.6-127.4c-12.4-35.2-46.2-74.8-137.7-63.3
	c-53.7,6.6-80.1,36-97,61c-20.9,30.7-38.6,31.5-55.4,32.4c-99.5,5.1-244,10.2-349.1-4.9c-30.3-4.3-50.3-18.1-59.5-41.1
	c-22.8-57.1-95.5-51.6-98.7-51.1l-216.5,25.8l-1.3,0.2C283.7,281.7,240,320.4,240,378.2c0,64.6,73.1,98.2,112.3,101.9
	C471,491.1,715,490.5,762.8,490.3c103.4-0.6,119.1,12.6,143.4,32.6c67.3,56,103.8,57.3,142.4,58.8c73.7,3,95.1,9.4,124.5,18.3
	l5.3,1.7c83.1,25.1,133.2,85.2,177.3,138.1c45.8,55,89.3,107.2,159,107.2c10.4,0,21.5-1.3,33.2-3.6c25.6-5.5,87-30.7,114.7-49
	c15.3-10,17.5-23.7,17.5-30.7C1679.4,737.9,1650.6,715.8,1622.7,697.7z"/>
</svg>
