<?xml version="1.0" encoding="utf-8"?>
<!-- Generator: Adobe Illustrator 27.0.0, SVG Export Plug-In . SVG Version: 6.00 Build 0)  -->
<svg version="1.1" id="Layer_1" xmlns="http://www.w3.org/2000/svg" xmlns:xlink="http://www.w3.org/1999/xlink" x="0px" y="0px"
	 viewBox="0 0 1920 1080" style="enable-background:new 0 0 1920 1080;" xml:space="preserve">
<style type="text/css">
	.st0{fill:none;stroke:#231F20;stroke-width:20;stroke-miterlimit:10;}
</style>
<path class="st0" d="M1675.7,579.7l-59.6-188.2l-0.3-0.8c-14.8-42.2-55.5-89.7-165.1-75.9c-64.4,7.9-96.1,43.2-116.3,73.1
	c-25.1,36.8-46.3,37.8-66.5,38.9c-119.9,6.1-293.7,12-418.8-5.9c-35.8-5.1-60.6-22.2-71.3-49.3c-27.6-68.5-114.5-61.6-118.4-61.4
	l-259.7,30.9l-1.5,0.3C290.4,368.2,238,414.8,238,484c0,77.5,87.7,117.9,134.7,122.2c143.4,13.5,435.4,12.5,492.4,12.3
	c124-0.8,143.2,15.1,172.1,39.1c79,65.7,121.2,70.6,171.8,70.6c64.4,0,111,7.2,146.7,22.8c17.4,7.7,63.4,19.2,86.7,19.2
	c0.5,0,0.8,0,1.3,0c71.3-1.8,104.3-26.6,130.6-46.5c2.3-1.8,4.6-3.3,6.9-5.1c17.9-13.3,31.7-19.7,44.2-25.3
	c12.3-5.6,24-11,34.5-21.2C1689,643.8,1683.7,601.1,1675.7,579.7z"/>
</svg>
