<?xml version="1.0" encoding="utf-8"?>
<!-- Generator: Adobe Illustrator 27.0.0, SVG Export Plug-In . SVG Version: 6.00 Build 0)  -->
<svg version="1.1" id="Layer_1" xmlns="http://www.w3.org/2000/svg" xmlns:xlink="http://www.w3.org/1999/xlink" x="0px" y="0px"
	 viewBox="0 0 1920 1080" style="enable-background:new 0 0 1920 1080;" xml:space="preserve">
<style type="text/css">
	.track-surface{fill:none;stroke:#231F20;stroke-width:20;stroke-miterlimit:10;}
</style>
<path class="track-surface" d="M1224.7,284.1c50.3-12.5,118.8-24.7,167.5-2.9c64.3,28.6,162.8,83.6,237.9,141.5c2.9,2.2,5.8,4.5,8.6,6.5
	c23.2,17.3,43.4,32.3,69.3,97c5.9,14.5,9.5,36.3,0.5,49.9c-7,10.6-21.7,16.1-43.6,16.5c-5,0.1-11-0.4-17.2-0.8
	c-36.8-2.6-98.4-7.1-119.9,87.4c-3.6,15.6-10.4,33.9-47,52.3c-33.3,16.8-87,34.7-128.7,30.2l-3.6-0.4c-44.8-4.9-80.1-8.8-162.4-58.7
	c-28.5-17.3-59-42.1-123.4-112.1c-1.1-1.2-2.1-2.2-3.2-3.4c-18.5-20.3-37.6-41.5-116.3-43.6c-67.9-1.7-176.5,0.7-263.8,2.6
	c-36.6,0.8-71.2,1.6-97.8,2c-49.2,0.7-105.9,11.6-154.7,133.7c-23.5,58.7-53.1,115-110,127.7c-11.9,2.6-31.7,1.5-51.9-9.6
	c-15.2-8.3-35.6-25.3-47.1-58.6c-9.4-27.2-34.5-121.2,35.8-188.8c6.7-6.5,69.3-63.8,175.8-75.4c6.9-0.8,15.7-1.1,25.6-1.1
	c25.1,0,56.1,2.1,73.4,4.2l0.7,0.1c17.7,2.2,47.4,5.9,76.7-14c19.5-13.2,56.4-35.1,78-41.3l0,0c118.9-34.1,232.1-62.2,332-87.1
	c49.4-12.3,93.7-23.4,133.2-33.7L1224.7,284.1z"/>
</svg>
