<?xml version="1.0" encoding="utf-8"?>
<!-- Generator: Adobe Illustrator 27.0.0, SVG Export Plug-In . SVG Version: 6.00 Build 0)  -->
<svg version="1.1" id="Layer_1" xmlns="http://www.w3.org/2000/svg" xmlns:xlink="http://www.w3.org/1999/xlink" x="0px" y="0px"
	 viewBox="0 0 1920 1080" style="enable-background:new 0 0 1920 1080;" xml:space="preserve">
<style type="text/css">
	.track-surface{fill:none;stroke:#231F20;stroke-width:20;stroke-miterlimit:10;}
</style>
<path class="track-surface" d="M920.2,946c-8.6,0-17.1-3.2-23.7-9.4c-11.1-10.4-14.1-27.2-7.3-40.8l44.6-89l19-39.2
	c13.1-26.9,9.6-59.5-8.8-83.1l-90.7-112.4c-13.5-16.8-36.3-23.4-56.7-16.4l-2.5,0.8c-24.8,8.4-44.2,27.4-53,52.1l-46.5,132.1
	c-4.7,13.5-15.3,23.7-28.9,28c-13.6,4.3-28.1,2.1-39.8-6.2l-47.6-33.8c-18.8-13.3-24.9-37.9-14.5-58.4l82.8-164.3
	c6.3-12.5,17.9-16,31-9.5c2.8,1.4,6.4,3,10.5,4.8c3.8,1.6,8,0.8,10.9-2.1l37.3-37.2c6.2-6.2,14.7-9.1,23.3-8.2l74.5,8.3
	c15.4,1.7,29.7,9.7,39.3,21.8l142.4,180.6c4.5,5.7,12.1,7.4,18.6,4.3c7.2-3.5,10.5-12,7.6-19.4l-48.5-122.8l-67.2-165.9
	c-5.9-13.4-17-39.6-27.6-64.8c-12.7-30-25.8-61.1-30.2-70.4c-2.8-6-7.6-17.2-14.2-33.6c-5.3-13-3.7-27.7,4.1-39.4
	c7.8-11.7,20.9-18.6,35-18.6H1034c16.4,0,30.3,11.7,33.1,27.9c2.4,13.8-1.9,24.5-13.1,32.8l-29.6,22c-16.6,12.3-25.8,31.9-24.8,52.5
	l2.1,42.1c0.3,4.8,0.6,9.3,0.8,13.7c1.8,32.6,2.9,50.5,11.5,67.3c7.3,14.3,24.8,39.3,59.2,45.4c12.6,2.3,77.5,11.3,134.7,19.3
	c37,5.1,68.9,9.6,82.4,11.6c35,5.2,63.4,31.4,68.9,63.6c5,28.8,0.8,52.9-12.6,73.6c-11.7,18-28.9,31.2-45.5,43.9
	c-5.3,4.1-10.8,8.3-16,12.6c-36.6,30.2-340.9,274.4-344,276.9l-0.3,0.3C934.5,943.8,927.4,946,920.2,946L920.2,946z"/>
</svg>
