<?xml version="1.0" encoding="utf-8"?>
<!-- Generator: Adobe Illustrator 27.0.0, SVG Export Plug-In . SVG Version: 6.00 Build 0)  -->
<svg version="1.1" id="Layer_1" xmlns="http://www.w3.org/2000/svg" xmlns:xlink="http://www.w3.org/1999/xlink" x="0px" y="0px"
	 viewBox="0 0 1920 1080" style="enable-background:new 0 0 1920 1080;" xml:space="preserve">
<style type="text/css">
	.st0{fill:none;stroke:#231F20;stroke-width:20;stroke-miterlimit:10;}
</style>
<path class="st0" d="M918.9,960c-8.9,0-17.7-3.3-24.6-9.7c-11.5-10.8-14.6-28.1-7.5-42.2l46.1-92.1l19.7-40.6
	c13.5-27.9,10-61.6-9.1-86l-93.9-116.3c-14-17.3-37.6-24.2-58.6-17l-2.5,0.9c-25.7,8.7-45.7,28.4-54.9,53.9l-48.1,136.6
	c-4.9,14-15.8,24.5-29.9,29c-14.1,4.5-29.1,2.1-41.2-6.4l-49.2-34.9c-19.4-13.8-25.7-39.2-15-60.4l89.3-177.2
	c16.9-33.6,53.4-53.3,90.8-49.2l99.7,11.1c15.9,1.8,30.7,10,40.6,22.6l147.3,186.9c4.6,5.9,12.6,7.7,19.3,4.4
	c7.4-3.6,10.9-12.4,7.8-20l-50.2-127.1l-69.5-171.6c-6.1-13.9-17.5-40.9-28.6-67.1c-13.1-31.1-26.7-63.2-31.2-72.9
	c-2.9-6.2-7.8-17.8-14.7-34.7c-5.5-13.5-3.9-28.7,4.2-40.7s21.6-19.2,36.2-19.2h145.3c16.9,0,31.4,12.1,34.3,28.8
	c2.5,14.2-1.9,25.3-13.5,33.9l-30.7,22.7c-17.1,12.7-26.7,33-25.7,54.3l2.1,43.5c0.3,5,0.6,9.7,0.8,14.1c1.9,33.7,3,52.3,11.9,69.6
	c7.6,14.8,25.6,40.6,61.3,47c13.1,2.3,80.2,11.7,139.4,19.9c38.3,5.3,71.3,9.9,85.3,12c36.2,5.4,65.5,32.4,71.3,65.8
	c5.2,29.8,0.9,54.7-13.1,76.1c-12.1,18.6-29.9,32.2-47.1,45.4c-5.5,4.2-11.2,8.6-16.6,13c-37.9,31.3-352.7,283.9-355.8,286.4
	l-0.4,0.3C933.6,957.7,926.2,960,918.9,960L918.9,960z"/>
</svg>
