<?xml version="1.0" encoding="utf-8"?>
<!-- Generator: Adobe Illustrator 27.0.0, SVG Export Plug-In . SVG Version: 6.00 Build 0)  -->
<svg version="1.1" id="Layer_1" xmlns="http://www.w3.org/2000/svg" xmlns:xlink="http://www.w3.org/1999/xlink" x="0px" y="0px"
	 viewBox="0 0 1920 1080" style="enable-background:new 0 0 1920 1080;" xml:space="preserve">
<style type="text/css">
	.st0{fill:none;stroke:#231F20;stroke-width:20;stroke-miterlimit:10;}
</style>
<path class="st0" d="M789.2,759.8c-7.1,0-12.7-1.7-16.9-5.1c-3.1-2.5-6.9-7.2-7.7-15.3c-0.2-2.8-0.7-7.2-1.2-12.2
	c-0.5-4.7-1-9.9-1.5-15.1c-1-9.8-1.9-19.4-2.3-24.6c-0.8-9.1-1.7-13.2-12.7-15.3c-7.5-1.5-27.4-5.6-48.5-10
	c-28-5.8-59.7-12.4-70.4-14.5c-13.6-2.6-38.8-4-54.4,15.7c-16.4,20.8-44.3,57.7-54.8,71.6c-1.8,2.4-3.1,4.1-3.7,4.9
	c-4.3,5.6-14.2,18.7-35.8,11.3c-25.2-8.2-50.2-18.7-74.2-31.2c-61.4-31.9-113.1-77.4-140.9-109.4c-23.1-26.5-82.6-115.1-90.8-129.6
	c-31.6-55.6-5.9-93.2,5.1-109.2c15.2-22.3,49.3-42,84.7-49.1c23-4.6,65.4-1.9,78.9,7.4c9.4,6.5,14.8,14.9,15.3,23.8
	c0.4,6-1.5,15.2-12.1,24.5c-13.9,12.2-20.4,22.2-20,30.6c0.4,7.9,6.4,16.3,15.9,27.5c15.8,18.4,55.6,73.4,68.9,93.7
	c12.2,18.6,53.3,72.2,63.2,85c3.3,4.2,8.3,6.7,14,6.8c6.1,0.2,12-2.4,16.2-7.1c11-12.6,38.2-45.8,52.5-83c12-31.1,15.3-57,10.5-81.5
	c-3-15.6-11.8-41.6-18.2-60.6c-2.6-7.6-4.8-14.3-6.2-18.9c-4-13.1-1.5-26.9,6.7-36.9c8.2-10,21.1-14.9,35.4-13.4
	c23.6,2.3,54.7,5.9,68.7,8c21,3.2,38.8,14,54.4,32.7c18,21.6,36.3,51,51,74.6c5.7,9.2,10.7,17.1,14.9,23.4
	c3.5,5.2,6.9,10.9,10.5,16.9c11.6,19.1,24.7,40.8,40.1,47.7c17.1,7.6,37.2,4.9,62.5,1.4c4.9-0.7,10-1.4,15.3-2
	c1.8-0.2,4.2-0.5,6.2-0.7l4.3-0.5c29.4-3.4,78.7-9.2,94.9-22.5c21.3-17.5,29.6-30.4,37.2-72.9c6.4-35.9,8.7-45.6,10.3-52.6
	c0.2-0.9,0.4-1.7,0.6-2.5c1.9-8.2,4-17.6,12.6-22.8c6.3-3.8,14.2-4.2,24.8-1.4c76.8,20.7,318.5,82,360.3,90.5
	c32,6.5,98.7,23.8,125.8,30.9c11.8,3.1,22.1,10.4,29,20.5l24.5,35.9c0.3,0.5,31,47.3,39.2,59.3c1.6,2.3,2.9,4.3,4.1,6.1
	c3.4,5.3,5,7.7,7.2,8.9c2.8,1.6,8.1,2.7,17.9,3.6c17.8,1.7,35,3.8,42.9,5.4c11.7,2.3,17.7,8.9,18.2,20.2
	c0.6,11.2-5.8,19.1-17.5,21.5c-4,0.9-31.3,3.6-95,9.9c-26.1,2.6-50.7,5-63.1,6.3c-5.9,0.6-16.4,1.8-29.7,3.2l-16.8,1.8
	c-34.8,3.7-81.2,8.6-120.3,12.8c-38.1,4.1-62.5,6.7-72.4,7.9c-14.5,1.7-77.5,9.1-146.1,17.2c-42,5-79.7,9.4-106.1,12.6
	c-24.9,3-39.9,4.8-46,5.6c-9.7,1.2-41.5,5.3-81.7,10.3c-55,6.9-123.4,15.5-170.6,21.6C793.8,759.7,791.4,759.8,789.2,759.8
	L789.2,759.8z"/>
</svg>
