<?xml version="1.0" encoding="utf-8"?>
<!-- Generator: Adobe Illustrator 27.0.0, SVG Export Plug-In . SVG Version: 6.00 Build 0)  -->
<svg version="1.1" id="Layer_1" xmlns="http://www.w3.org/2000/svg" xmlns:xlink="http://www.w3.org/1999/xlink" x="0px" y="0px"
	 viewBox="0 0 1920 1080" style="enable-background:new 0 0 1920 1080;" xml:space="preserve">
<style type="text/css">
	svg {height: 100%;width: 100%;}.track-surface {fill: none;stroke: white;stroke-width: 30;}
</style>
<path class="track-surface" d="M567.4,862.1c-31.9,0-57.9-18.2-68-38c-7-13.6-15.8-38.1-22.8-57.7c-1-2.8-2-5.5-2.9-8.1
	c-5.5-15.1-14.7-28.8-44.6-26.2c-23.5,2-55.6,6.5-84,10.5c-19.2,2.7-37.3,5.2-50.9,6.8c-43.7,4.9-74.9-17.8-79.5-57.8
	c-0.9-7.4-1.9-16.4-3.1-26.2c-3.8-31.9-8.5-71.7-9.4-85.6c-2.3-35.2,16.1-54.6,56.1-59.4l7.4-0.9c50.3-5.9,134.5-15.7,162.3-38.5
	c36.4-29.9,50.7-52,63.6-124.6c11-61.3,14.8-77.9,17.6-90c0.3-1.5,0.6-2.8,1-4.2c3.2-14.1,6.8-30,21.5-38.9
	c10.8-6.5,24.2-7.2,42.3-2.3c131.3,35.4,544.5,140.2,616,154.8c54.8,11.2,168.7,40.7,215.1,52.8c20.2,5.3,37.8,17.7,49.5,35
	l41.9,61.4c0.5,0.8,53,80.9,67.1,101.4c2.7,3.9,4.9,7.4,6.9,10.4c5.9,9,8.6,13.1,12.4,15.3c4.7,2.8,13.9,4.6,30.6,6.2
	c30.4,2.9,59.9,6.6,73.3,9.2c20,3.9,30.2,15.2,31.2,34.6c1,19.2-9.9,32.6-29.9,36.8c-6.9,1.5-53.5,6.2-162.4,16.9
	c-44.6,4.4-86.6,8.5-107.9,10.8c-10.1,1.1-28,3-50.8,5.4l-28.8,3.1c-59.4,6.3-138.9,14.7-205.7,21.9h-0.2c-13.8,1.4-28-0.4-41-5
	l-103.4-36.7c-18.3-6.5-38.1-8.8-57.4-6.5l-137.9,15.7c-0.7,0.1-1.2,0.4-1.6,0.9c-0.4,0.5-0.6,1.1-0.4,1.8
	c2.8,17.5,4.5,29.4,5.1,35.4c1.7,16.4-6.8,25.2-12,29c-7.7,5.6-17.2,7.3-24.7,8.2c-71.8,8.5-136.3,16.1-181.4,21.5
	C574.2,861.9,570.8,862.1,567.4,862.1L567.4,862.1z"/>
</svg>
