<?xml version="1.0" encoding="utf-8"?>
<!-- Generator: Adobe Illustrator 27.0.0, SVG Export Plug-In . SVG Version: 6.00 Build 0)  -->
<svg version="1.1" id="Layer_1" xmlns="http://www.w3.org/2000/svg" xmlns:xlink="http://www.w3.org/1999/xlink" x="0px" y="0px"
	 viewBox="0 0 1920 1080" style="enable-background:new 0 0 1920 1080;" xml:space="preserve">
<style type="text/css">
	.track-surface{fill:none;stroke:#231F20;stroke-width:20;stroke-miterlimit:10;}
</style>
<path class="track-surface" d="M949,906c-6,0-12.8-1.1-20.5-3.7c-42.6-13.9-84.8-31.6-125.3-52.6c-103.7-53.8-191-130.8-238-184.8
	c-39-44.8-139.4-194.3-153.4-219c-53.3-93.9-9.9-157.4,8.6-184.5c25.7-37.6,83.2-71,143.1-83c38.9-7.8,110.5-3.2,133.3,12.5
	c15.8,10.9,25,25.2,25.9,40.1c0.6,10.2-2.5,25.7-20.4,41.4c-23.4,20.5-34.5,37.5-33.8,51.7c0.7,13.3,10.8,27.6,26.8,46.4
	c26.7,31.1,93.9,124,116.3,158.3c20.6,31.4,90,122,106.8,143.5c5.5,7,14.1,11.2,23.6,11.5c10.4,0.3,20.3-4.1,27.3-12
	c18.6-21.2,64.6-77.4,88.7-140.2c20.2-52.6,25.9-96.3,17.8-137.6c-5.2-26.3-19.9-70.3-30.7-102.4c-4.3-12.9-8.1-24.1-10.5-31.9
	c-6.8-22.1-2.6-45.5,11.3-62.4c13.8-16.8,35.6-25.1,59.8-22.7c39.8,4,92.4,9.9,116,13.5c35.4,5.5,65.5,23.6,91.8,55.3
	c30.4,36.5,61.3,86.1,86.2,125.9c9.6,15.5,18,28.8,25.1,39.6c5.9,8.9,11.6,18.4,17.7,28.4c10.4,17.3,21.2,35.1,33,50.1l0.2,0.2
	c1.9,2.6,4,5.2,6,7.9c15.6,20.3,33.2,43.4,42.8,62c14.4,28.1,16.6,70.6-24.8,98.3c-9.5,6.4-21.1,14.4-33.4,22.9
	c-32.9,22.8-67,46.4-84.6,54.7c-19.7,9.3-60,23.3-107.6,13.4c-40.2-8.4-79.4-16.5-94.4-19.3c-23-4.4-65.6-6.8-91.9,26.6
	c-27.7,35.1-74.8,97.5-92.6,121c-3.1,4-5.2,6.9-6.3,8.3C983.4,890.6,971.7,906,949,906L949,906z"/>
</svg>
