<?xml version="1.0" encoding="utf-8"?>
<!-- Generator: Adobe Illustrator 27.0.0, SVG Export Plug-In . SVG Version: 6.00 Build 0)  -->
<svg version="1.1" id="Layer_1" xmlns="http://www.w3.org/2000/svg" xmlns:xlink="http://www.w3.org/1999/xlink" x="0px" y="0px"
	 viewBox="0 0 1920 1080" style="enable-background:new 0 0 1920 1080;" xml:space="preserve">
<style type="text/css">
	svg {height: 100%;width: 100%;}.track-surface {fill: none;stroke: white;stroke-width: 30;}
</style>
<path class="track-surface" d="M627.8,908c-36.5,0-66.1-20.8-77.7-43.4c-7.9-15.5-18-43.5-26.1-66c-1.2-3.2-2.3-6.3-3.3-9.2
	c-6.2-17.3-16.8-32.9-50.9-29.9c-26.8,2.3-63.6,7.5-96,12c-21.9,3.1-42.6,6-58.2,7.7c-49.9,5.6-85.5-20.3-90.8-66
	c-1-8.4-2.2-18.7-3.5-29.9c-4.3-36.5-9.7-81.9-10.7-97.8c-2.6-40.2,18.4-62.4,64-67.8l8.4-1c57.5-6.7,153.6-17.9,185.4-44
	c41.5-34.1,57.9-59.4,72.7-142.3c12.5-70,16.9-89,20.1-102.8c0.4-1.7,0.7-3.2,1.1-4.8c3.7-16.1,7.8-34.3,24.6-44.4
	c12.3-7.4,27.7-8.2,48.4-2.7c150,40.5,622,160.1,703.7,176.8c62.6,12.8,192.7,46.5,245.7,60.4c23.1,6.1,43.2,20.3,56.6,40l48.5,71
	l0.6,1.3c27.7,57.1,25.6,122.4-5.6,179c-30.9,56-85.9,94.8-143.5,101.2l-33,3.5c-67.9,7.2-158.6,16.9-234.9,25h-0.2
	c-15.8,1.5-32-0.4-46.9-5.7l-118.1-41.9c-20.9-7.4-43.5-10-65.6-7.5l-157.5,18c-0.8,0.1-1.4,0.4-1.8,1.1c-0.5,0.6-0.6,1.3-0.5,2.1
	c3.1,20,5.1,33.6,5.8,40.4c1.9,18.7-7.8,28.8-13.7,33.1c-8.7,6.4-19.7,8.4-28.2,9.4c-82.1,9.7-155.7,18.4-207.2,24.5
	C635.5,907.8,631.6,908,627.8,908L627.8,908z"/>
</svg>
