<?xml version="1.0" encoding="utf-8"?>
<!-- Generator: Adobe Illustrator 27.0.0, SVG Export Plug-In . SVG Version: 6.00 Build 0)  -->
<svg version="1.1" id="Layer_1" xmlns="http://www.w3.org/2000/svg" xmlns:xlink="http://www.w3.org/1999/xlink" x="0px" y="0px"
	 viewBox="0 0 1920 1080" style="enable-background:new 0 0 1920 1080;" xml:space="preserve">
<style type="text/css">
	svg {height: 100%;width: 100%;}.track-surface {fill: none;stroke: white;stroke-width: 30;}
</style>
<path class="track-surface" d="M1772.5,663c-0.3-6.8-0.5-13.2-0.6-18.4c-1.2-62.7-4.8-185.8-7.4-250.6c0-0.9-0.1-1.7-0.1-2.7
	c-0.3-12.1-0.7-32.3-35.8-42.4c-26-7.5-103.8-35.1-104.6-35.2l0,0c-30.1-10.5-76.2-25.4-120.7-39.7c-18.7-6.1-36.5-11.8-52.2-16.9
	c-42.7-13.9-64.6,4.2-79.1,16.1c-1.3,1.1-2.7,2.2-4,3.2c-6.2,4.8-15.9,13.5-23.6,20.4c-2.7,2.4-5.2,4.7-7.2,6.4
	c-40.9,36-68.5,24-97.6,11.4c-1.7-0.8-3.5-1.5-5.2-2.3c-25.5-10.9-49-14.9-64.6-17.6c-23.7-4-65.6-9.4-87.2-11.6
	c-42.8-4.3-61.1-3-81.7,1c-23.4,4.6-40.3,14.9-50.2,30.7c-17.4,27.7-7.7,64.7-4.1,78.6c11.2,42.7,4.2,67.8-2,90.2l-0.6,2
	c-7,25.3-18.4,45.1-34.9,60.4c-23.2,21.7-73.1,59.4-96.2,76.3c-35.2,25.7-53.7,25.7-69.9,25.7c-43.4-0.1-190.8-0.6-262.7-3.3
	c-47.4-1.8-68.8-16.2-89.4-30.1l-2.9-1.9c-40.8-27.5-117.8-80.1-159.5-108.8c-34.9-24.1-62-12.4-74.7,4.9c-8.4,11.5-9.7,25.4-3.6,39
	c4.7,10.5,12.8,19.1,19,23.7c47.7,35.5,134.6,98.9,178.9,130.4c37.9,27,116.8,83,160.4,105.5c29.9,15.4,55,21,76.2,21
	c27.9,0,49.1-9.8,66.1-20.2c53.6-32.9,83.3-42.3,111.4-49.7c73.3-19.4,135.9-15.7,176.4-11.1c39.8,4.5,92.4,27.6,127.1,43
	c4.1,1.8,8,3.5,11.6,5.1c50.5,22,76,25.6,105.6,24.4c57.6-2.3,78-21.6,96-38.6c3.7-3.5,7.1-6.7,10.9-9.9
	c27.3-22.7,58.4-31.8,92.5-27.2c6.3,0.9,15.3,2.3,24.8,3.9c11.2,1.8,22.9,3.7,30.6,4.7c52.8,6.7,69.5-4.3,87.3-15.8l1.4-1
	c17.9-11.6,29.7-11,41.3-10.5c1.1,0.1,2.3,0.1,3.3,0.2h0.3c0.4,0,41.3,0.3,59.2,2.5c10.3,1.2,18.1,2.9,39.3,16.7l1.7,1
	c12,7.8,26.9,17.4,36.4,23.1c8.9,5.3,27.8,10.7,43.2,3.6c7.5-3.4,17.1-11.2,20-28.7C1774.7,722.7,1773.4,689.6,1772.5,663z"/>
</svg>
