<?xml version="1.0" encoding="utf-8"?>
<!-- Generator: Adobe Illustrator 27.0.0, SVG Export Plug-In . SVG Version: 6.00 Build 0)  -->
<svg version="1.1" id="Layer_1" xmlns="http://www.w3.org/2000/svg" xmlns:xlink="http://www.w3.org/1999/xlink" x="0px" y="0px"
	 viewBox="0 0 1920 1080" style="enable-background:new 0 0 1920 1080;" xml:space="preserve">
<style type="text/css">
	.st0{fill:none;stroke:#231F20;stroke-width:20;stroke-miterlimit:10;}
</style>
<path class="st0" d="M1443.9,908c-22.6,0-43.6-6-62.3-17.8c-44-27.8-327.8-198.7-377.1-228c-27.7-16.5-90.1-55.4-140.2-86.6
	c-32.1-20-59.9-37.3-68.1-42.2c-12.3-7.3-37.1-19.1-65.2-15.6c-17.1,2.1-40.2,11.4-54,30.9c-20.3,29-38.3,55.6-59.1,86.4
	c-16.2,24-34.6,51.2-56.3,82.7c-11.7,17-28.2,29.9-48.8,38.1c-18.6,7.4-40.2,10.8-62.5,9.6c-54.3-2.8-103.6-30.4-125.6-70.5
	c-22-40.2-28.1-79.3-17.5-113.1c10.1-32.3,35.6-59.4,73.5-78.3c80.7-40.2,135.3-68.6,188.4-97.9c18-9.9,28.2-24.9,28.1-41.1
	c-0.1-18.8-13.9-36.6-38.8-50c-15.9-8.5-28.2-21.2-35.7-36.6c-7.8-16.2-10.3-34.7-7.2-55.1c2.9-19.6,11.6-34.4,25.2-42.8
	c15.8-9.8,37.6-10.7,63-2.5c57,18.4,96.3,41.8,117,69.8c8.7,11.8,13.7,24.7,18.5,37.1c8.6,22.3,15.5,39.9,40.5,45.5
	c36.7,8.2,64.1-5.5,88.2-17.6c3.3-1.7,6.5-3.2,9.7-4.8c1.7-0.8,3.4-1.6,5.1-2.5c26.7-13,63.2-30.8,123.7-7.8
	c37.6,14.3,82.6,31.8,122.3,47.3c24,9.4,46.8,18.2,63.8,24.8c42.6,16.4,88.3,28.7,184.2,39.5c41.9,4.7,79,15,110.2,30.7
	c26.8,13.4,43.9,28,54.4,37.9c5.7,5.3,25.6,24.8,43.8,53.7c18.7,29.7,28.9,58.6,30.4,85.9c3,56.6,6.4,120.7-7.2,165.6
	c-14,46-42.8,81.7-83.4,103.1c-23.6,12.5-46.8,19.8-68.9,21.8C1451.8,907.8,1447.8,908,1443.9,908L1443.9,908z"/>
</svg>
