<?xml version="1.0" encoding="utf-8"?>
<!-- Generator: Adobe Illustrator 27.0.0, SVG Export Plug-In . SVG Version: 6.00 Build 0)  -->
<svg version="1.1" id="chicago_-_config" xmlns="http://www.w3.org/2000/svg" xmlns:xlink="http://www.w3.org/1999/xlink" x="0px"
	 y="0px" viewBox="0 0 1920 1080" style="enable-background:new 0 0 1920 1080;" xml:space="preserve">
<style type="text/css">
	.st0{fill:none;stroke:#231F20;stroke-width:10;stroke-miterlimit:10;}
</style>
<path class="st0" d="M966.9,902H635.6c-100.3,0-151.3-1.9-214.6-43.7c-28-18.5-59.5-42.6-90-66c-26.9-20.6-52.3-40.1-73.8-54.6
	c-18-12.1-28.8-32.4-28.8-54.1v-94.1c0.1-22.8,16.9-42,39.4-45.2c18.1-2.5,32.8-3.8,43.6-3.8h655.2c13.3,0,24.1-10.8,24.1-24.1
	V223.6c0-25.2,20.4-45.6,45.6-45.6h119.5c13,0,25.1,6.6,32,17.6c33.3,52.1,90.6,83.3,153.3,83.3c62.8,0,120.1-31.1,153.3-83.3
	c7-11,19-17.6,32-17.6h119.3c25.2,0,45.6,20.4,45.6,45.6v292.8c0,25.2-20.4,45.6-45.6,45.6h-609.3c-13.3,0-24.1,10.8-24.1,24.1
	v270.3C1012.5,881.6,992.1,902,966.9,902z"/>
</svg>
