<?xml version="1.0" encoding="utf-8"?>
<!-- Generator: Adobe Illustrator 27.0.0, SVG Export Plug-In . SVG Version: 6.00 Build 0)  -->
<svg version="1.1" id="Layer_1" xmlns="http://www.w3.org/2000/svg" xmlns:xlink="http://www.w3.org/1999/xlink" x="0px" y="0px"
	 viewBox="0 0 1920 1080" style="enable-background:new 0 0 1920 1080;" xml:space="preserve">
<style type="text/css">
	.track-surface{fill:none;stroke:#231F20;stroke-width:20;stroke-miterlimit:10;}
</style>
<path class="track-surface" d="M475.2,851.2c-26.2,0-53.7-8-83.9-24.3c-32.9-17.8-75.4-43-101-59.8c-1.4-0.9-4.2-2.7-7.6-4.8
	c-48.9-31-106.4-69.7-117.3-92c-6.1-12.5-3.1-21.2,0.4-26.2c12-17.2,46.7-14,50.6-13.6c21.9,2.3,60.4,11.1,86,17
	c3.9,0.9,7.5,1.7,10.6,2.5c11.2,2.5,38.1,3.3,47.6,3.4h0.3c77.4,3,237.1,3.6,284.2,3.6c17.7,0,37.6,0.1,75.6-27.7
	c25.1-18.3,79-59.1,104.1-82.5c17.7-16.6,30-38,37.7-65.4l0.6-2.2c6.8-24,14.4-51.4,2.3-97.5c-4-15-14.5-54.9,4.4-85
	c10.7-17.1,29-28.3,54.3-33.2c22.3-4.3,42.1-5.8,88.4-1c23.3,2.4,68.7,8.2,94.3,12.5c15.7,2.7,42,7.1,69.8,18.9
	c1.8,0.8,3.8,1.6,5.7,2.5c31.6,13.7,61.3,26.6,105.5-12.3c2.2-1.8,4.8-4.2,7.7-6.8c8.4-7.5,18.9-17,25.6-22.2
	c1.4-1.1,2.9-2.3,4.3-3.5c15.7-12.9,39.6-32.5,85.6-17.4c17,5.5,36.1,11.7,56.3,18.2c48.2,15.5,98,31.7,130.6,43.1
	c10.3,3.6,24.4,13.4,30.5,29.3c3.7,9.7,6,25.4-4.9,45.6c-20.7,38.4-72.4,100.3-87.7,118.3c-16.1,18.9-44.7,43.9-89.5,55.5
	c-25.9,6.7-53.7,11.5-108.8-2.9c-37.4-9.8-97.7-32.8-146.1-51.2c-17.8-6.8-34.5-13.2-47.5-17.9c-18.3-6.7-48.6-7.5-75.2,5.5
	c-24.3,11.9-41.4,33-50.9,62.6c-8.3,26-2,59.9,16.1,86.4c14.4,21.1,42.2,47,93.1,50.4c88,5.8,194.2,6.7,264.4,2.3
	c8.1-0.5,18.4-2.1,35.6-5.4c4.6-1,138.6-30,183.5-39.5c8.4-1.7,19.9-4.1,32.2-6.5c21.6-4.3,46.1-9.1,60.7-12.6
	c8.4-2,24.4-3.9,37.1,5.2c9.2,6.7,14.7,17.5,16.1,32.2c1.3,14,1.4,41.7,1,56.1c-0.1,3.3,0,7.6,0,12.3c0.2,15.4,0.5,32.8-3.1,43.8
	c-4.2,12.9-12.8,22.1-24.9,26.5c-14.9,5.4-32.5,2.2-42.1-3.9c-1.3-0.8-2.8-1.7-4.4-2.8c-10.8-6.7-27-16.9-35.4-23.4
	c-17.9-13.8-26.6-16.9-35.1-17.4c-13.5-0.8-37.1-1.5-56-2.2c-6.2-0.2-11.7-0.4-16.2-0.5c-1.3,0-2.6-0.1-3.9-0.2
	c-12.4-0.6-25.3-1.2-44.5,11.3l-1.5,1c-19.2,12.5-37.3,24.4-94.3,17.1c-8.3-1-20.9-3.1-33-5c-10.4-1.6-20.1-3.3-26.9-4.2
	c-36.9-5-70.6,4.8-100.1,29.4c-4,3.4-7.8,6.9-11.8,10.7c-19.4,18.4-41.4,39.3-103.8,41.7h-0.3h-0.3c-2.4,0-232.9-3.7-309.4-6.3
	c-7.2-0.2-17-0.7-27.1-1.1c-21.9-0.9-46.7-2.1-61.5-2.1h-0.1h-0.6c-7.7,0-30.9,0.1-31.8-31.7c0-1.5,0-3.2,0-4.8
	c0.1-6.8,0.2-16-4-19.5c-3.3-2.8-10.6-3.1-20.3-0.9c-32.3,7.1-62.3,18.1-120.1,53.6c-13.3,8.1-34.1,19.2-62.1,21
	C480.7,851.1,478,851.2,475.2,851.2z"/>
</svg>
