<?xml version="1.0" encoding="utf-8"?>
<!-- Generator: Adobe Illustrator 27.0.0, SVG Export Plug-In . SVG Version: 6.00 Build 0)  -->
<svg version="1.1" id="Grand_West_-_Config" xmlns="http://www.w3.org/2000/svg" xmlns:xlink="http://www.w3.org/1999/xlink"
	 x="0px" y="0px" viewBox="0 0 1920 1080" style="enable-background:new 0 0 1920 1080;" xml:space="preserve">
<style type="text/css">
	svg {height: 100%;width: 100%;}.track-surface {fill: none;stroke: white;stroke-width: 30;}
</style>
<path class="track-surface" d="M1779.9,441.4c-0.5-12.1-14.7-33.4-24.4-43.6c-9.9-10.4-20.9-15.1-35.9-15.1c-12.9,0-64.6,8.7-81.7,11.8
	c-14.2,2.6-28.1,6.1-41.8,10.6l-0.2,0.1c-0.7,0.3-68.1,25.1-86.7,31.9c-2.5,0.9-4.9,1.9-7.7,3c-26,10.8-46.2,1.5-47,1.1l-0.1-0.1
	c-4.5-2.1-109-50.4-127.6-58.1c-31.1-13.5-61.7-8.6-64.6-8.1c-2.1,0.3-26.3,3.5-36.6,4.7h-0.3c-25.8,4.4-47.3-4.1-55.3-7.3l-1.4-0.6
	c-26.8-10.9-54.3-6.7-55.4-6.5c-1.7,0.3-40.9,6.3-52.3,9.1h-0.1c-21.7,5.9-52.5,0-52.8-0.1h-0.2c-1.6-0.3-157.9-26-167.5-27.8
	l-0.3,0c-62.6-9.3-94.6-9.2-131.6-9.1c-12.7,0-25.7,0.1-40.8-0.3h-0.2c-7.8,0-20.7,0-29.4-5.8l-0.3-0.2c-28-16.7-50.1-15-59.7-14.2
	c-24.7,0.4-35-7.3-41.3-11.9c-1-0.7-1.9-1.4-2.8-2c-24.4-16.8-31.9-18.5-46.8-15.9l-0.5,0.1l-0.4,0.1
	c-39.5,12.7-56.1,26.9-64.1,33.8c-0.9,0.8-1.7,1.5-2.4,2l-0.2,0.2c-7.7,6.7-13.4,13.9-16.8,21.2c-3.7,8.1-4.3,17.3-1.6,25.8
	c1.5,4.9,4.4,14.5,6.1,23l0.1,0.4c3,11-2.2,19.3-15.4,24.5c-37.1,12.9-87.8,22.5-104.5,25.7l-2.5,0.5c-32.5,5.5-38.9-4.2-44-12.1
	c-0.6-0.9-1.2-1.8-1.7-2.6c-4.9-7-19.6-36-23.8-67.8c-3.9-27.7,6-46.5,10.7-55.4c0.4-0.7,0.7-1.4,1-2c4.7-9.1,22.5-51.7,26.9-64.2
	l0.4-1.3c3.5-9.9,14-40.1,7.1-70.9c-2.3-9.9-6.6-19.1-12.7-27.2c-14.6-19.4-29.6-28.1-46.1-26.6h-0.3c-30.7,4.1-35.8,41.6-36,43.2
	c0,0.3-4.2,32.6-5.3,39.3c-0.8,5.4-18.2,131.5-19.9,164.2c-1.8,16.3-1.1,84.7-1.1,89.2c-1.7,53.6,13.7,109.7,17.9,121.8
	c6.1,17.6,75.9,185.8,90.4,220.5c2.7,6.4,5.6,12.8,8.7,19l7.9,15.8c3.7,7.5,7.9,14.8,12.5,21.8c18,27.3,49.1,74.4,56.3,84l0.3,0.4
	c16.2,18.3,47.5,29.1,93,31.9c2.7,0.3,5.4,0.5,8,0.5c4.3,0,8.5-0.4,12.7-1.3c10.9-2.3,20.5-8.5,27.1-17.4
	c5.1-6.8,14.5-19.4,20.5-27.8c3.7-5.4,8.4-10,13.8-13.6c3.6-2.4,7.5-4.3,11.5-5.9c28.6-10.9,58.1-19.6,88.1-25.7
	c11.8-2.2,24.6-4.4,40-3.7c24.9,1.1,38,20.1,45.7,31.4c0.9,1.4,1.8,2.6,2.6,3.7l0.4,0.5c21.6,24.3,48.1,17.8,59.7,8.1
	c3.5-3,8.2-8.2,13.6-14.4c6.7-7.6,15.1-17.1,20.1-20.2c12.9-8.1,27.1-27,36.5-39.5c2.2-2.9,4.1-5.4,5.6-7.3c5.2-6.6,10-10,16.4-13.7
	c11.6-6.6,21.4-15.9,28.7-27.1c12.1-18.5,17.1-36.9,19.6-45.7c0.3-1,0.5-1.9,0.7-2.6c5.9-18,0.3-35.2-2.1-42.6
	c-0.2-0.7-0.4-1.2-0.5-1.7l-0.2-0.5c-9.1-23.9-10.1-35.8-9.9-44.3c1.1-23.4,8.1-32.3,15.4-41.8l2-2.6c1.4-1.9,3.4-4.4,5.8-7.4
	c11.6-14.5,29.1-36.5,33-51.5c2-6.3,2.6-12.3,3.4-19.8c0.6-6.1,1.4-13.8,3.1-23.8c2.3-13.4,7.9-25.9,16.4-36.4l0.5-0.7
	c17.1-18,36.7-24.1,45.1-26.6c1-0.3,1.8-0.6,2.5-0.8c18-4.9,25.7-1.4,33.9,2.3c1.2,0.5,2.3,1.1,3.5,1.6c15.8,8,24.9,4.3,27.3,3
	c1.6-0.8,15.3-7.4,26.7-11.2c9.5-3.2,17.1,1.5,21.6,4.2l1.1,0.7c6.7,4.4,14.1,7.5,21.8,9.2c5,1.3,21.1,2.7,41.5,4.4
	c7.9,0.7,14.7,1.2,17.5,1.6h0.3c64.7,4.6,125.2,19.5,136.6,22.5l2.4,0.6c9.6,2.4,21.5,5.3,25.8,18c3.9,15.5-4.9,24.3-13,28.9
	c-1.6,0.9-3.3,1.7-5.1,2.4c-6,2.5-13.4,5.7-20.4,16.6c-6.8,9.9-6.9,32.8-6.8,37.9c-0.8,18.8-17.9,27.4-25.1,30.2
	c-3,1.1-6.1,2.5-9.6,4.1c-14.6,6.9-63.2,29.6-75.2,35.2c-1.5,0.7-3,1.5-4,2c-10.5,5.5-21.9,9.2-33.6,11.1c-1.4,0.2-4.9,0.7-9.7,1.4
	c-18.9,2.6-58,7.9-80.2,12.7c-26.7,5.1-54.5,19.1-71.2,27.6c-22.1,10.6-23.9,31.8-19.8,43.4l0.1,0.3c7.8,19.4,20.6,26,29.9,28.2
	c6.2,1.5,12.7,1.4,18.9-0.2l23-8.1c97.8-35.3,219.7-79.8,246.1-91.2c143.3-56.8,277.7-131.6,282.1-134
	c56.9-29.4,144.5-74.1,152.9-76.9l0.7-0.3c0.9-0.4,2.1-0.9,3.3-1.4C1765.3,465.8,1781.6,459,1779.9,441.4z"/>
</svg>
