<?xml version="1.0" encoding="utf-8"?>
<!-- Generator: Adobe Illustrator 27.0.1, SVG Export Plug-In . SVG Version: 6.00 Build 0)  -->
<svg version="1.1" id="Bend_-_Config" xmlns="http://www.w3.org/2000/svg" xmlns:xlink="http://www.w3.org/1999/xlink" x="0px"
	 y="0px" viewBox="0 0 1920 1080" style="enable-background:new 0 0 1920 1080;" xml:space="preserve">
<style type="text/css">
	.track-surface{fill:none;stroke:#FFFFFF;stroke-width:30;stroke-miterlimit:10;}
</style>
<path class="track-surface" d="M1396.4,1020.4c-57.4,0-135.8-1.8-206.1-3.4c-47.8-1.1-92.9-2.1-125.7-2.5c-130.9-1.3-387.4-4.8-525.2-6.7
	l-3.7,0c-26.1-0.4-77-2.2-102.1-3.3c-27.9-1.3-74.5-3.4-90.2-71.8c-10.7-46.6-23-126.8-27.3-169.7c-3.2-31.5-3.9-93.5-3.6-125.1
	c0-1,0-2.2,0-3.4c0-13.3,0-35.5,15.6-49.8c10.8-9.8,26.8-13.8,47.8-11.8c26.1,2.4,78,10.1,104.6,14.3c34.2,5.5,80,12.9,103.8,17.4
	l0.4,0.1c4.1,0.9,101.7,23.1,133.1,31.2c31.6,8.2,46.1,12.8,141.8,47.3l0.4,0.1c22,8.9,60.5,23.7,91.4,35.6c10,3.8,19,7.3,26.2,10.1
	l8.3,3.2c33.5,13,60,23.2,126,42.9l3.3,1c36.8,11,78.6,23.5,127.5,34.3c2.5,0.6,5.1,1.2,7.8,1.9c11.1,2.8,23.6,6,30.2,1.2
	c4.7-3.5,7.5-12,8.1-24.8c0-6.7-0.8-141.8-4-188v-0.7c-1-14.4-1.8-27.9-34.2-27.4c-33,0.6-91.8,3.2-123.2,4.9
	c-21.6,1.1-43.4-0.7-73.4-35.4c-48-55.4-120.6-153.1-168.2-219.9c-0.9-1.2-1.7-2.5-2.6-3.9c-4-6-8.5-12.9-14.8-13.9
	c-5.3-0.9-12.7,2.2-21.4,8.9c-4.6,4.2-48.6,44.1-91.8,62.9c-21.4,9.3-40.6,13-57.5,13c-31,0-54.5-12.4-70.7-25.4
	c-26.7-21.5-39.2-48.9-39.6-50l-0.2-0.5c-5.8-15.4-17.5-55.5,0.3-94.5c12.8-28.1,37.9-49.1,74.5-62.4c22.9-8.4,66.6-15.4,95.5-20.1
	l8.1-1.3h0.2c0.7-0.1,66.8-9.2,87.5-15.3c5.7-1.6,6.8-4.3,7.1-6.8c1.6-11.6,3.4-23.2,5.8-30.1c3.8-10.5,10-17.6,18.3-21.1
	c12.5-5.3,25.5-0.9,34.2,3c14.3,6.3,52.2,22.9,69.8,31.7c15.8,7.9,46.5,25.6,60.9,35.8c30,21.2,83.8,66.7,108.1,87.7
	c17.8,15.4,43.6,39.8,61,59.3c25.2,28.3,51.9,50.4,79.3,65.7c9.6,5.4,18.3,10.4,26.8,15.3c32.6,18.9,60.7,35.2,119.4,57.1
	c20.8,7.8,56.1,18.9,87.2,28.7c14.2,4.5,27.7,8.7,37.7,12c30.4,10,44.1,36.2,36.4,70.3c-4.7,21.1-17.3,49.5-29.4,76.9l-2.8,6.3
	c-7.5,17.1-26.7,40.6-45.7,55.8c-24.4,19.6-46.6,43.7-43.7,87.1l0.1,2.3c0.5,8.4,0.6,8.8,8.9,41.7c2.5,9.9,6.3,24.1,10.3,39.1
	c4.5,16.7,9.1,34,11.9,45.4l0.2,0.6c7.2,28.8,22.2,88.9-22.1,122.2c-13.4,10.1-30.8,13.7-69,14.2
	C1415.8,1020.4,1406.4,1020.4,1396.4,1020.4z"/>
</svg>
