<?xml version="1.0" encoding="utf-8"?>
<!-- Generator: Adobe Illustrator 27.0.1, SVG Export Plug-In . SVG Version: 6.00 Build 0)  -->
<svg version="1.1" id="Road_Course_-_Config" xmlns="http://www.w3.org/2000/svg" xmlns:xlink="http://www.w3.org/1999/xlink"
	 x="0px" y="0px" viewBox="0 0 1920 1080" style="enable-background:new 0 0 1920 1080;" xml:space="preserve">
<style type="text/css">
	.track-surface{fill:none;stroke:#FFFFFF;stroke-width:30;stroke-miterlimit:10;}
</style>
<path class="track-surface" d="M1088.4,986.2h-0.2L744,984.8l-0.9-0.2c-0.7-0.1-71.6-14-165.9-45.1c-87.1-28.7-212.7-78.4-316.6-152.2
	c-16.5-11.9-51.2-50.8-79.7-109.3c-23.8-48.9-49.7-125.7-38.1-214.5c11-83.8,42.6-156,93.9-214.5c53.5-61.1,126.4-104.6,216.6-129.5
	l0.3-0.1c52.2-12.6,133.2-25.7,178.5-25.7c42.5,0,720.1,6.1,726.9,6.2h0.8c5.8,0.5,144.3,13.8,218.1,69.4c3.6,2.7,7.2,5.4,11,8.3
	c37.5,28,84.1,62.7,122.3,116.8c45.3,64,67.7,139.2,68.7,230c0.1,2.6,0.7,35.1-12.1,81.6c-12,43.5-38.5,108.1-97,168.5
	c-3,3.1-44.1,31.7-90.2,57.4c-65.3,36.3-117,54.8-153.7,54.8h-0.2c-20.4,0-36.4-5.8-47.6-17.2l-0.1-0.2c-24.3-26-32.3-56-22.5-84.4
	c9.6-27.9,36.6-51.3,64-55.6c36.8-5.8,110.7-24.2,121.8-27c20.7-13.7,33.1-37,32.8-61.9c0-43.1-60.1-78.3-60.7-78.7l-0.1-0.1
	c-1.7-1-40.5-24.5-47.2-79.2c-5.3-8.9-25.3-29.1-67.5-35c-1.5-0.2-5.3-0.8-11.7-1.8c-141.9-22.2-268-36.7-375.1-43.1
	c-35.4-0.4-128.3-13.7-210.2-25.5c-56.6-8.1-110.1-15.8-127.9-16.6c-15.1-0.7-37.2,4.1-54.3,19.8c-15.1,13.9-23.2,33.3-24,57.7
	c0,1.4,0.1,3.1,0.1,4.9c0.2,14.2,0.5,40.7,13.7,63.5c15.9,27.5,46.5,41.4,91,41.4c117.7,0,429.8,0.9,441.3,1
	c5.4-0.3,55.5-1.7,101.1,38.3c42.6,37.4,66.8,97.9,72,179.9v0.4v0.4c-0.4,22.3-5.4,79.6-41.6,130.7c-17.9,25.4-41.7,46-69.4,60.2
	c-32.6,16.8-71.7,26-116.4,27.2L1088.4,986.2z"/>
</svg>
