<?xml version="1.0" encoding="utf-8"?>
<!-- Generator: Adobe Illustrator 27.0.1, SVG Export Plug-In . SVG Version: 6.00 Build 0)  -->
<svg version="1.1" id="Oval_-_Config" xmlns="http://www.w3.org/2000/svg" xmlns:xlink="http://www.w3.org/1999/xlink" x="0px"
	 y="0px" viewBox="0 0 1920 1080" style="enable-background:new 0 0 1920 1080;" xml:space="preserve">
<style type="text/css">
	.st0{fill:none;stroke:#FFFFFF;stroke-width:30;stroke-miterlimit:10;}
</style>
<path class="st0" d="M1198.3,986.4h-1L744,984.6l-0.9-0.2c-0.7-0.1-71.6-14-165.9-45.1c-87.1-28.7-212.7-78.4-316.6-152.2
	c-16.5-11.9-51.2-50.8-79.7-109.3c-23.8-48.9-49.7-125.7-38.1-214.5c11-83.8,42.6-156,93.9-214.5c53.5-61.1,126.4-104.6,216.6-129.5
	l0.3-0.1c52.2-12.6,133.3-25.7,178.5-25.7c42.5,0,720.1,6.1,726.9,6.2h0.8c5.8,0.5,144.3,13.8,218.1,69.4c3.6,2.7,7.2,5.4,11,8.3
	c37.5,28,84.1,62.7,122.3,116.8c45.3,64,67.7,139.2,68.7,230c0.1,3.9,1.2,65-33.6,140.5c-21,45.3-50.3,86.2-86.4,120.6
	c-45.7,43.8-103.3,79.5-171.3,105.8l-0.2,0.1c-53.1,19.4-230.8,83.6-289.3,94.9L1198.3,986.4z"/>
</svg>
