<?xml version="1.0" encoding="utf-8"?>
<!-- Generator: Adobe Illustrator 27.0.0, SVG Export Plug-In . SVG Version: 6.00 Build 0)  -->
<svg version="1.1" id="Grand_East_-_Config" xmlns="http://www.w3.org/2000/svg" xmlns:xlink="http://www.w3.org/1999/xlink"
	 x="0px" y="0px" viewBox="0 0 1920 1080" style="enable-background:new 0 0 1920 1080;" xml:space="preserve">
<style type="text/css">
	.st0{fill:none;stroke:#231F20;stroke-width:10;stroke-miterlimit:10;}
</style>
<path class="st0" d="M1772.5,442.2c-0.5-12-14.6-33.1-24.1-43.2c-9.8-10.3-20.8-14.9-35.6-14.9c-12.8,0-64,8.6-81,11.7
	c-14,2.5-27.9,6-41.4,10.5l-0.2,0.1c-0.7,0.2-67.5,24.9-85.9,31.6c-2.5,0.9-4.8,1.9-7.6,3c-25.8,10.7-45.8,1.5-46.6,1.1l-0.1-0.1
	c-4.5-2-108-49.9-126.5-57.6c-30.8-13.4-61.1-8.6-64-8.1c-1.4,0.2-13.5,1.8-24.1,3.2c-11.1,1.4-21.8,4.6-31.8,9.6
	c-12.1,6-22.3,12.9-30.3,20.5c-8.6,8.1-11.4,18.1-7.8,27.6c5,13,21.2,22.3,39.4,22.6c1,0,2,0,2.9,0.1
	c63.5,4.7,122.6,19.3,133.8,22.2l2.4,0.6c9.5,2.3,21.3,5.3,25.5,17.8c3.9,15.4-4.8,24-12.8,28.6c-1.6,0.9-3.3,1.7-5,2.4
	c-5.9,2.5-13.3,5.7-20.2,16.4c-6.7,9.8-6.8,32.6-6.7,37.5c-0.8,18.6-17.7,27.1-24.9,29.9c-3,1.1-6.1,2.5-9.5,4.1
	c-14.5,6.8-62.6,29.4-74.5,34.8c-1.5,0.7-2.9,1.4-4,2c-10.4,5.4-21.7,9.1-33.3,11c-1.4,0.2-4.8,0.7-9.6,1.3
	c-18.7,2.6-57.4,7.9-79.5,12.5c-26.5,5-54.1,19-70.6,27.4h-0.1c-1.2,0.6-12.3,6.6-17.7,16l-1,1.6c-3,4.8-4.8,7.6-8.3,9.6
	c-3.9,2.2-8.6,2.6-12.9,1.1c-2.4-0.8-4.6-1.7-6.9-2.7c-2.8-1.2-5.7-2.3-8.6-3.2c-12.7-4.1-26.6,0.9-33.7,12.2
	c-1.7,2.5-6.5,8.1-13.4,5.7c-10.2-3.5-14-11.6-14.2-17.9c-0.1-2.5-1-24.4-5.6-33.7c-8.9-23.4-9.9-35.2-9.6-43.5
	c1.1-23.1,8-32,15.2-41.4l2-2.6c1.4-1.9,3.4-4.4,5.7-7.3c11.5-14.4,28.8-36.2,32.7-51c2-6.2,2.6-12.2,3.3-19.6
	c0.6-6.1,1.3-13.6,3.1-23.6c1.8-10.7,5.8-20.9,11.8-29.9c3.3-5,6.4-10.2,9.1-15.6c2-3.9,4.6-8.4,7.1-12.7c3.7-6.3,6.8-11.8,8.4-15.6
	l0.2-0.6c5-17.5,3.3-32.5-4.9-44.6c-14.2-21-43.3-24.8-46.5-25.1c-56.6-9.3-88.6-14.7-92.7-15.5l-0.3,0c-62.2-9.3-93.8-9.2-130.5-9
	c-12.5,0-25.5,0.1-40.5-0.2h-0.2c-7.7,0-20.6,0-29.1-5.7l-0.3-0.2c-27.7-16.5-49.6-14.9-59.1-14.1c-24.5,0.4-34.7-7.2-40.9-11.8
	c-1-0.7-1.9-1.4-2.8-2c-24.2-16.6-31.6-18.3-46.4-15.8l-0.5,0.1l-0.4,0.1c-39.2,12.6-55.6,26.7-63.5,33.5c-0.9,0.8-1.7,1.5-2.4,2
	l-0.2,0.2c-7.6,6.6-13.2,13.7-16.6,21c-3.7,8-4.2,17.1-1.6,25.5c1.5,4.9,4.3,14.4,6,22.8l0.1,0.4c3,10.9-2.2,19.1-15.3,24.3
	c-36.8,12.7-87,22.3-103.5,25.5l-2.5,0.5c-32.2,5.5-38.5-4.2-43.6-12c-0.6-0.9-1.2-1.8-1.7-2.6c-4.8-6.9-19.4-35.7-23.5-67.2
	c-3.9-27.5,5.9-46,10.6-54.9c0.4-0.7,0.7-1.4,1-2c4.7-9,22.3-51.3,26.6-63.6l0.4-1.3c3.4-9.8,13.8-39.7,7-70.2
	c-2.3-9.8-6.5-19-12.6-27c-14.4-19.2-29.4-27.9-45.6-26.4h-0.3c-30.5,4.1-35.4,41.2-35.6,42.8c0,0.3-4.2,32.3-5.2,39
	c-0.8,5.3-18.1,130.3-19.8,162.7c-1.8,16.2-1.1,83.9-1.1,88.4c-1.7,53.2,13.5,108.7,17.7,120.7c6.1,17.4,75.2,184.1,89.6,218.5
	c2.7,6.3,5.5,12.7,8.6,18.8l7.8,15.7c3.7,7.5,7.8,14.7,12.4,21.6c17.8,27,48.6,73.8,55.8,83.2l0.3,0.4c16,18.2,47.1,28.8,92.2,31.6
	c2.6,0.3,5.3,0.5,8,0.5c4.2,0,8.5-0.4,12.6-1.3c10.7-2.3,20.3-8.5,26.8-17.3c5-6.7,14.3-19.2,20.3-27.6c3.7-5.3,8.3-9.9,13.7-13.4
	c3.6-2.3,7.4-4.3,11.4-5.8c28.4-10.8,57.6-19.4,87.3-25.5c11.7-2.2,24.4-4.4,39.6-3.7c24.7,1.1,37.6,19.9,45.3,31.1
	c0.9,1.4,1.8,2.6,2.6,3.7l0.4,0.5c21.4,24,47.7,17.6,59.2,8c3.5-2.9,8.1-8.2,13.5-14.2c6.7-7.5,15-16.9,19.9-20l0.4-0.2
	c0.2-0.1,19.4-14,42.6-21.6c24.4-7.9,204.7-72.7,212.3-75.4l22.5-7.9c96.9-35,217.8-79.1,243.9-90.4
	c142.1-56.3,275.3-130.4,279.7-132.8c56.4-29.1,143.2-73.4,151.5-76.2l0.7-0.3c0.9-0.4,2.1-0.9,3.3-1.4
	C1758.1,466.5,1774.2,459.7,1772.5,442.2z"/>
</svg>
