<?xml version="1.0" encoding="utf-8"?>
<!-- Generator: Adobe Illustrator 27.0.0, SVG Export Plug-In . SVG Version: 6.00 Build 0)  -->
<svg version="1.1" id="South_-_Config" xmlns="http://www.w3.org/2000/svg" xmlns:xlink="http://www.w3.org/1999/xlink" x="0px"
	 y="0px" viewBox="0 0 1920 1080" style="enable-background:new 0 0 1920 1080;" xml:space="preserve">
<style type="text/css">
	svg {height: 100%;width: 100%;}.track-surface {fill: none;stroke: white;stroke-width: 30;}
</style>
<path class="track-surface" d="M1683.8,286.7c-1-22.5-27.2-61.9-45.1-80.8c-18.3-19.3-38.8-27.9-66.5-27.9c-23.9,0-119.7,16.1-151.3,21.8
	c-26.2,4.7-52.1,11.3-77.4,19.6l-0.3,0.1c-1.2,0.5-126.1,46.6-160.6,59.1c-4.6,1.7-9,3.5-14.3,5.6c-48.2,20.1-85.6,2.7-87.1,2
	l-0.2-0.1c-8.3-3.8-201.9-93.3-236.3-107.6c-57.5-24.9-114.2-16-119.6-15.1c-2.7,0.3-25.1,3.3-45,5.9c-20.7,2.6-40.8,8.6-59.5,17.9
	c-22.5,11.2-41.6,24.1-56.5,38.3c-16,15.1-21.4,33.9-14.5,51.6c9.4,24.3,39.7,41.6,73.7,42.2c1.8,0,3.7,0,5.4,0.2
	c118.6,8.8,229.1,36,250,41.4l4.4,1.1c17.7,4.4,39.8,9.8,47.7,33.3c7.3,28.7-9,44.9-24,53.5c-3,1.7-6.2,3.1-9.4,4.4
	c-11.1,4.7-24.8,10.6-37.8,30.7C847,502.1,846.8,544.6,847,554c-1.6,34.8-33.1,50.7-46.6,55.9c-5.5,2.1-11.3,4.6-17.7,7.6
	c-27.1,12.7-117,54.9-139.2,65.1c-2.8,1.3-5.5,2.7-7.5,3.7c-19.5,10.1-40.5,17-62.2,20.5c-2.6,0.4-9,1.3-17.9,2.5
	c-34.9,4.8-107.3,14.7-148.5,23.4c-49.5,9.4-101.1,35.5-131.9,51.1h-0.2c-2.3,1.2-23.2,12.5-33.3,30.2v0.1c-0.7,1.2-16.1,30.3,5,67
	c17.1,29.7,43.7,37.7,63.9,37.7c6.2,0,12.3-0.8,18.3-2.4l42.6-15c181-65.4,406.9-147.8,455.7-168.9
	c265.5-105.1,514.2-243.5,522.5-248.1c105.3-54.4,267.5-137.2,283-142.4l1.3-0.5c1.7-0.8,3.9-1.7,6.2-2.7
	C1656.8,332.1,1687,319.4,1683.8,286.7z"/>
</svg>
