<?xml version="1.0" encoding="utf-8"?>
<!-- Generator: Adobe Illustrator 27.0.0, SVG Export Plug-In . SVG Version: 6.00 Build 0)  -->
<svg version="1.1" id="Layer_1" xmlns="http://www.w3.org/2000/svg" xmlns:xlink="http://www.w3.org/1999/xlink" x="0px" y="0px"
	 viewBox="0 0 1920 1080" style="enable-background:new 0 0 1920 1080;" xml:space="preserve">
<style type="text/css">
	svg {height: 100%;width: 100%;}.track-surface {fill: none;stroke: white;stroke-width: 30;}
</style>
<path class="track-surface" d="M1573.2,759.5c-23.4-30.1-62.5-33.6-74-34.1c-221.6-7.3-643.2-15.5-883.1-18.3c-57.8-0.7-72.8-20.9-79.8-40.9
	c-12.5-34.9,25.9-79.3,48-94.1c50.4-33.6,67.5-85.1,62-118.8c-11.6-72.8,18.6-96.4,47.9-112.9c9.8-5.5,24.8-11.5,39.4-17.3
	c19.6-7.8,38.2-15.3,48.9-23.1c27.4-20.1,34.4-46.4,35.6-65c1.7-26.9-8.6-55.5-25.4-71.1c-60.7-56.7-166-37.2-191-29.1
	c-59.2,19.6-116.2,76.3-135.3,134.6c-18,54.5-47.7,143.6-76.3,229.9c-18.8,56.5-38.2,114.9-54,162.2l0,0c-10.3,30.9-7.5,59,8.3,83.4
	c32.9,50.9,113.5,69.1,149.3,75v0.5l16.5,1.7c141.6,14.1,404.9,38.7,579.1,54.8l57.2,5.3c75,7,103.2,16.8,137.8,30.9
	c48.5,19.9,90.4,37.2,119.7,40.6c7.1,0.8,14.3,1.2,21.3,1.2c36.7,0,72.3-11,102.2-31.6c30.9-21.4,53-51.4,59.3-80.1
	C1593.9,808.7,1589.4,780.6,1573.2,759.5z"/>
</svg>
