<?xml version="1.0" encoding="utf-8"?>
<!-- Generator: Adobe Illustrator 27.0.0, SVG Export Plug-In . SVG Version: 6.00 Build 0)  -->
<svg version="1.1" id="Layer_1" xmlns="http://www.w3.org/2000/svg" xmlns:xlink="http://www.w3.org/1999/xlink" x="0px" y="0px"
	 viewBox="0 0 1920 1080" style="enable-background:new 0 0 1920 1080;" xml:space="preserve">
<style type="text/css">
	.st0{fill:none;stroke:#231F20;stroke-width:20;stroke-miterlimit:10;}
</style>
<path class="st0" d="M1668.3,377.4c-2.4-36.6-11.2-64.5-26.6-85.4c-15-20.4-34.5-30.9-49.7-37.8c-7.4-3.4-18.9-7.7-29.9-11.9
	c-9.8-3.8-19.1-7.3-25.3-10c-30.7-13.3-38.5-17.1-52-35.9c-11.3-15.5-22.5-39.9-34.4-65.5l-3.3-7.1c-15.3-33.1-54.9-46.2-87.3-44.5
	c-45.8,2.4-67.4,19.4-77.5,33.2c-10.5,14.3-14,32.4-9.7,49.6c6.9,26.6,31.6,33.9,45,37.7l0.6,0.2c25.7,7.5,49.3,28.7,55.8,40.5
	c7.5,13.6,9.5,24.8,5.7,33.2c-6.6,15-31.1,21-41.6,23.4c-5.2,1.2-11.7,2.9-18.6,4.6c-21.8,5.5-51.7,12.9-68.3,15.7
	c-49.1,8.5-88,33.7-115.9,74.8c-17.4,25.7-32.8,51.3-46.4,74c-13.6,22.8-25.5,42.4-36.7,58c-16.6,23.1-53,70.5-73.2,96.7
	c-32.8,42.6-46.9,74.6-58.2,100.2c-6.1,13.8-11.3,25.7-18.2,36.2c-34.3,52.4-92.6,51.1-150.6,41.9c-37.1-5.8-95.9-16.7-152.8-27.3
	c-34.9-6.5-67.8-12.5-92.8-16.9c-55.5-9.7-87.9-3.6-122.2,2.8c-2.2,0.4-4.3,0.8-6.6,1.2c-33,6.1-62.8,19.3-86,37.9
	c-21.2,16.9-35.3,37.1-39.7,56.6c-4.1,18.3-1.9,33.6,6.8,45.3c15.6,21,47.1,23.2,59.1,24.1c86.8,6,200.5,13.3,320.9,21
	c279,17.8,595.4,37.9,786.5,56c6.8,0.7,13.4,0.9,19.7,0.9c33.9,0,62.7-9,85.5-27c20.3-16,35.9-38.7,48-69.6
	c5.2-13.3,11.8-35,17.7-54.2c3.4-11.2,6.7-21.7,9.2-29.3c11.2-33.5,21.4-71.5,25.4-94.5c4.2-24.5,8.6-53.3,13.4-86.8
	c4.8-32.9,10.3-70.2,16.8-110C1672.1,462,1670.8,412.7,1668.3,377.4z"/>
</svg>
