<?xml version="1.0" encoding="utf-8"?>
<!-- Generator: Adobe Illustrator 27.0.0, SVG Export Plug-In . SVG Version: 6.00 Build 0)  -->
<svg version="1.1" id="Layer_1" xmlns="http://www.w3.org/2000/svg" xmlns:xlink="http://www.w3.org/1999/xlink" x="0px" y="0px"
	 viewBox="0 0 1920 1080" style="enable-background:new 0 0 1920 1080;" xml:space="preserve">
<style type="text/css">
	.st0{fill:none;stroke:#231F20;stroke-width:20;stroke-miterlimit:10;}
</style>
<path class="st0" d="M1638,334.8c-78.8-84.3-199.4-117.1-278.7-119.6c-133.9-4.1-336.8-7.7-523.4-7.7c-120.4,0-234.1,1.5-318.2,5.2
	c-130.4,5.8-206.2,72.6-246.8,127.5c-22.8,30.8-41,66.9-52.6,104.2c-10.2,32.7-15.1,66.1-13.9,93.9c2.5,56.6,15.7,107.5,39.3,151.2
	c20.5,38.1,49,71,84.6,97.7c78.1,58.6,165.2,70,199.1,72.2c164.8,10.7,449.3,13.1,670.9,13.1c59.9,0,115.3-0.2,162.4-0.4l0,0
	c50.9-0.2,135.9-16.2,207.8-60.3c42.1-25.8,75.9-58.5,100.2-97.2c28.8-45.6,44.5-99.7,46.8-160.7
	C1718.7,467,1692.6,393.3,1638,334.8z"/>
</svg>
