<?xml version="1.0" encoding="utf-8"?>
<!-- Generator: Adobe Illustrator 27.0.0, SVG Export Plug-In . SVG Version: 6.00 Build 0)  -->
<svg version="1.1" id="Layer_1" xmlns="http://www.w3.org/2000/svg" xmlns:xlink="http://www.w3.org/1999/xlink" x="0px" y="0px"
	 viewBox="0 0 1920 1080" style="enable-background:new 0 0 1920 1080;" xml:space="preserve">
<style type="text/css">
	svg {height: 100%;width: 100%;}.track-surface {fill: none;stroke: white;stroke-width: 30;}
</style>
<path class="track-surface" d="M1517.3,783.9c-0.5-22.5-14.3-41.3-26.1-50.7c-21.9-17.4-61.7-57.3-79-79c-2.3-2.8-4.6-5.6-7-8.3
	c-4.4-5.1-9.4-10.8-10.9-14.5c-4.6-11.5-11.7-28-19.1-45.4c-7.8-18.2-15.8-37-20.7-49.3c-8.7-21.9-8.4-24.6-7.7-31.7
	c0.9-10.6,2.2-18.9,3.2-26.2c1.2-8.9,2.3-15.9,2.4-23.1c0.3-22,0.8-50.1,1.4-79.7c1.5-72.4,3.2-154.2,1.5-204.1
	c-1.7-51.1-36.7-55.7-51.6-55.3c-11,0.3-28.5,0.1-45.3-0.2c-12.9-0.2-25.2-0.4-33.8-0.3c-30.6,0.3-49.5,8.5-64.9,16
	c-13,6.5-32.3,13.9-49.1,20.4c-3.7,1.4-7.2,2.7-10.5,4.1c-24.8,9.6-42.1,11.6-56.1,6.3c-1.2-0.5-2.6-1-4.2-1.5
	c-9.9-3.7-24.9-9.1-33.9-14.2c-8.4-4.8-14.1-10.4-16.6-14c-2.6-3.8-6.8-9.4-10.8-14.9c-3.7-5-7.5-10.2-9.8-13.7
	c-11.4-16.3-24.1-24.9-37.4-25.5c-13-0.6-25.8,6.3-37.8,20.7C867.7,130.2,815,183,776.5,221.6c-7.6,7.6-14.8,14.8-21.2,21.2
	c-20.1,20.2-47.5,39.1-63.3,46.4c-27.3,12.9-87.3,31.6-120.9,40.9c-20.5,5.8-39.4,15.1-56.4,27.9c-30,22.3-55.8,47.8-72.9,72.2
	c-12.1,17.3-17.7,36-15.5,51.6c1,7.2-1.7,10.9-2.9,12.3c-15.2,15.7-20.8,21.5-20.7,33.5c0.3,21.6,19,31.7,36.1,31.9
	c24.6,0.3,243.7,2.7,347.9,0l0,0c41-1.1,79.7-10.3,115.1-27.2c33.2-15.9,58.5-36.2,74.6-50.2c49.7-42.9,80.8-110.3,82.6-114.2
	c17.6-36.7,26-39.3,31.6-41l0.3-0.1c17-5.2,34.5,3.5,47.9,11.6c3.1,1.9,7.4,5.3,11.8,8.9c4.7,3.8,10,8.1,15.5,11.8
	c9.1,6.2,20.1,9.8,29.4,9.6c1.3,0,3.1,0,5.1,0c5.2,0,11.1,0,15-0.4c10.6-1,18.5,0.8,23.5,5.4c6.7,6.2,7,16,6.9,19
	c-0.2,8.7-0.2,21.1-0.3,34.3c0,13.4-0.1,27.2-0.3,36c-0.6,16.9,0.6,33.9,3.5,50.7c3.2,17.7,8.9,41.5,14.9,66.7
	c8.4,35.2,17.1,71.5,20.1,95.7c4.2,33.6-2.7,60.7-20.2,80.6c-21.2,24.1-54.1,32.6-75.9,32.6c-65.1,0.2-135.2-0.4-209.4-1
	c-140-1.2-284.8-2.5-419.1,1.4c-50.4,1.4-83.6,33.8-93.2,63.2c-11.7,35.9-2.9,58.4,7.3,75.6c9.4,15.9,34.1,33.4,50.4,44.9
	c2.6,1.8,5,3.5,7,5c26.1,19,44.1,18.8,54.8,18.6c0.8,0,1.6,0,2.4,0c276.9-0.8,609.7,1.5,816.7,4.2c0.4,0,0.8,0,1.2,0
	c19,0,33-5.8,42-17.4c7.5-9.8,9.8-21.7,11.3-30.5c0.4-2.2,0.8-4.2,1.2-5.9c1.8-7.4,3.3-17.8,4.7-27.9c0.9-6.3,1.7-12.4,2.5-16.6
	c10.5-55.7,12-57,23.8-67.2C1513.2,816.5,1517.5,796.9,1517.3,783.9z"/>
</svg>
