<?xml version="1.0" encoding="utf-8"?>
<!-- Generator: Adobe Illustrator 27.0.0, SVG Export Plug-In . SVG Version: 6.00 Build 0)  -->
<svg version="1.1" id="Layer_1" xmlns="http://www.w3.org/2000/svg" xmlns:xlink="http://www.w3.org/1999/xlink" x="0px" y="0px"
	 viewBox="0 0 1920 1080" style="enable-background:new 0 0 1920 1080;" xml:space="preserve">
<style type="text/css">
	.track-surface{fill:none;stroke:#231F20;stroke-width:20;stroke-miterlimit:10;}
</style>
<path class="track-surface" d="M1696,605.4c-0.6-30.2-19.3-55.5-35.1-68.1c-29.4-23.3-82.9-77-106.1-106.1c-3-3.8-6.3-7.6-9.5-11.3
	c-6-6.8-12.6-14.5-14.6-19.4c-4.4-11-10.8-25.5-17.5-40.7c-13.2-30.1-28.3-64.2-34.4-85.5c-5.7-19.9-8-29.7-10-38.2
	c-0.8-3.3-1.5-6.5-2.4-9.9c-1.8-7.1-4.8-19-12.6-28.7c-6.8-8.4-19.5-17.8-41.6-14.5c-7.4,1.1-17,3.7-26.5,6.1
	c-5.8,1.5-11.3,2.9-15.3,3.8c-17.9,3.8-42,21.2-35.4,53.4c4.2,20.3,10.5,46.2,17.1,73.7c11.9,48.9,25.4,104.5,29.8,140.6
	c5.6,45.1-3.7,81.5-27.1,108.3c-28.5,32.3-72.8,43.9-102.1,43.9c-87.5,0.3-181.7-0.5-281.5-1.4c-188.2-1.6-382.8-3.3-563.4,1.9
	c-52.6,1.5-95.6,30.2-124.4,82.8c-14.2,26-39.1,77.7-50.1,103.2c-12,27.5-12.6,50.8-1.4,67.5c11.4,17,33.9,25.4,66.7,24.7
	c36.4-0.6,146.3,0.4,147.5,0.4h0.1c372.3-1.1,819.5,2,1097.8,5.6c0.5,0,1.1,0,1.6,0c25.5,0,44.4-7.9,56.3-23.3
	c10.1-13.2,13.2-29.2,15.3-41c0.5-2.9,1-5.7,1.6-8c2.4-10,4.4-24.1,6.3-37.8c1.1-8.5,2.3-16.4,3.4-22.1c14.1-74.8,16.1-76.6,32-90.3
	C1690.5,649.4,1696.4,623,1696,605.4z"/>
</svg>
