<?xml version="1.0" encoding="utf-8"?>
<!-- Generator: Adobe Illustrator 27.0.0, SVG Export Plug-In . SVG Version: 6.00 Build 0)  -->
<svg version="1.1" id="Layer_1" xmlns="http://www.w3.org/2000/svg" xmlns:xlink="http://www.w3.org/1999/xlink" x="0px" y="0px"
	 viewBox="0 0 1920 1080" style="enable-background:new 0 0 1920 1080;" xml:space="preserve">
<style type="text/css">
	svg {height: 100%;width: 100%;}.track-surface {fill: none;stroke: white;stroke-width: 30;}
</style>
<path class="track-surface" d="M1695.9,389.3c0-19.7-0.1-42.1,0-77.8c0.1-29-7.6-51.3-22.9-66.2c-17.6-17.2-40.7-20.3-56.8-19.7
	c-17.1,0.4-44,0.1-70-0.3c-20-0.3-38.9-0.6-52.3-0.4c-47.2,0.4-76.5,13.1-100.3,24.8c-20.1,10.1-49.8,21.4-75.9,31.5
	c-5.7,2.2-11.1,4.2-16.2,6.3c-38.3,14.9-65,17.9-86.7,9.8c-1.9-0.7-4.1-1.6-6.6-2.3c-15.3-5.7-38.5-14.1-52.3-22
	c-13-7.4-21.9-16-25.7-21.6c-4.1-5.8-10.5-14.6-16.6-23c-5.7-7.7-11.5-15.7-15.2-21.1c-17.6-25.2-37.2-38.5-57.9-39.4
	c-20.1-0.9-39.9,9.8-58.4,31.9C942.5,246.8,861.1,328.4,801.6,388c-11.8,11.8-22.9,22.9-32.8,32.9c-31,31.2-73.5,60.3-97.8,71.7
	c-42.1,20-134.8,48.8-186.9,63.3c-31.6,8.9-60.9,23.3-87.2,43.1c-46.3,34.4-86.4,74-112.7,111.5c-18.7,26.7-27.4,55.7-23.9,79.7
	c1.6,11.1-2.6,16.9-4.5,18.9c-23.5,24.2-32.2,33.2-31.9,51.7c0.4,33.4,29.3,49,55.8,49.3c24.6,0.3,175.8,2,322.7,2
	c79.7,0,158.3-0.4,214.8-2c63.4-1.7,123.2-15.9,177.8-42c51.3-24.6,90.4-56,115.3-77.5c76.8-66.3,124.8-170.2,127.7-176.5
	c27.3-56.7,40.2-60.8,48.8-63.4l0.4-0.1c26.2-8,53.3,5.4,74,17.9c4.8,2.9,11.4,8.2,18.2,13.7c7.3,5.8,15.4,12.5,23.9,18.2
	c14.1,9.6,31,15.2,45.5,14.9c3.2,0,8.6,0.1,13.7,0.4c6.1,0.3,11.8,0.6,16.2,0.4l0,0c23.8-0.6,52.8,0,80.7,0.4
	c26.7,0.4,51.9,0.9,70.5,0.4c34.4-0.9,49.7-18.9,56.6-34c7.6-16.6,7.6-35.3,7.7-47.7c0-1.9,0-3.5,0-5.1
	C1696.2,451,1696.1,426.3,1695.9,389.3z"/>
</svg>
