<?xml version="1.0" encoding="utf-8"?>
<!-- Generator: Adobe Illustrator 27.0.0, SVG Export Plug-In . SVG Version: 6.00 Build 0)  -->
<svg version="1.1" id="Layer_1" xmlns="http://www.w3.org/2000/svg" xmlns:xlink="http://www.w3.org/1999/xlink" x="0px" y="0px"
	 viewBox="0 0 1920 1080" style="enable-background:new 0 0 1920 1080;" xml:space="preserve">
<style type="text/css">
	.st0{fill:none;stroke:#231F20;stroke-width:20;stroke-miterlimit:10;}
</style>
<path class="st0" d="M1781.1,645.1c-1.3-13.7-6.4-23.8-15.1-30.1c-11.9-8.6-26.8-6.7-34.7-4.9c-13.6,3.2-36.5,7.8-56.7,11.8
	c-11.4,2.3-22.3,4.4-30.2,6.2c-42,8.8-167.5,36-171.7,36.9c-16,3.1-25.6,4.6-33.3,5.1c-65.7,4.1-165,3.3-247.3-2.1
	c-47.6-3.1-73.6-27.3-87.1-47.1c-16.9-24.9-22.9-56.6-15.1-80.8c8.8-27.7,24.8-47.4,47.6-58.5c24.8-12.2,53.3-11.4,70.3-5.2
	c12.2,4.4,28,10.4,44.6,16.8c45.3,17.2,101.5,38.6,136.5,47.8c51.5,13.5,77.6,8.9,101.8,2.7c32.8-8.3,61.7-26.2,83.8-51.9
	c14.3-16.9,62.8-74.7,82-110.6c10.2-18.9,8.1-33.6,4.6-42.7c-5.8-14.8-19-24-28.5-27.4c-30.5-10.7-77.1-25.7-122.1-40.2
	c-18.9-6.2-36.9-11.9-52.8-17.1c-43.2-14-65.4,4.2-80.1,16.2c-1.3,1.2-2.7,2.2-4,3.3c-6.2,4.9-16.1,13.6-23.9,20.7
	c-2.7,2.4-5.2,4.7-7.2,6.4c-41.4,36.4-69.3,24.3-98.7,11.5c-1.7-0.8-3.6-1.5-5.3-2.3c-26-11.1-50.6-15.3-65.3-17.7
	c-23.9-4-66.3-9.5-88.2-11.7c-43.4-4.3-61.8-3.1-82.7,1c-23.6,4.6-40.8,15.1-50.8,31c-17.6,28.1-7.8,65.5-4.1,79.5
	c11.3,43.2,4.2,68.6-2,91.2l-0.6,2c-7.1,25.6-18.6,45.7-35.3,61.1c-23.4,21.9-73.9,60.1-97.4,77.2c-35.5,26-54.2,26-70.7,26
	c-43.9-0.1-193.1-0.6-265.8-3.4c-48-1.8-69.5-16.4-90.4-30.5l-2.9-1.9c-41.3-27.8-119.3-81-161.4-110.1c-35.3-24.4-62.8-12.5-75.6,5
	c-8.5,11.6-9.8,25.7-3.7,39.4c4.7,10.6,13,19.3,19.2,23.9l0,0c44.2,32.9,132.9,97.8,181,131.9c38.4,27.3,118.1,84,162.3,106.7
	c30.3,15.6,55.7,21.2,77.1,21.2c28.3,0,49.7-9.9,66.9-20.5c54-33.2,83-42.4,112.8-50.3c74.2-19.6,137.5-15.9,178.5-11.2
	c40.3,4.5,93.4,28,128.6,43.5c4.1,1.8,8.1,3.6,11.7,5.2c51,22.3,76.9,25.9,106.8,24.7c58.3-2.3,78.9-21.8,97.2-39
	c3.7-3.6,7.2-6.8,11-10c27.6-23,59.1-32.2,93.6-27.5c6.3,0.9,15.5,2.3,25.1,3.9c11.3,1.8,23.2,3.7,31,4.7c53.4,6.8,70.4-4.3,88.3-16
	l1.4-1c18.1-11.7,30.1-11.2,41.8-10.6c1.2,0.1,2.3,0.1,3.4,0.2c10.5,0.4,22.6,1,35.5,1.5c39.6,1.8,84.5,3.8,112.5,3.6
	c35.9-0.4,52.6-11.2,54.3-35C1782.1,684.3,1782.3,658.1,1781.1,645.1z"/>
</svg>
