<?xml version="1.0" encoding="utf-8"?>
<!-- Generator: Adobe Illustrator 27.0.1, SVG Export Plug-In . SVG Version: 6.00 Build 0)  -->
<svg version="1.1" id="Barber_ShortA_Config" xmlns="http://www.w3.org/2000/svg" xmlns:xlink="http://www.w3.org/1999/xlink"
	 x="0px" y="0px" viewBox="0 0 1920 1080" style="enable-background:new 0 0 1920 1080;" xml:space="preserve">
<style type="text/css">
	.st0{fill:none;stroke:#FFFFFF;stroke-width:30;stroke-miterlimit:10;}
</style>
<path class="st0" d="M1558.8,821.3c-10.9,0.1-21.7-0.9-32.4-3c-25.6-5.2-44.4-16.6-55.8-33.8c-7.8-11.8-12-25.9-12.7-43.1
	c-1.1-26.1,0.5-80.9,1.5-109.2c1.3-35.6-9.1-68.8-28-88.9c-12-12.8-26.5-19.5-43-19.8c-180.5-4.1-496.3-4.7-726.8-5.1
	c-49-0.1-94.2-0.2-133.8-0.3h-0.4c-52.2,0-71.4,25.9-84.4,54c-3.2,7-7.1,15.6-11.2,24.7c-20,44.2-47.3,104.7-69.8,136.7
	c-30.9,43.9-64,52.8-92.3,55.8c-42.9,4.5-74-12.9-92.6-28.3c-21.5-17.8-37.5-42.7-41.8-65.1C120.9,620,165,579.5,183.9,562.2
	c25.1-23.1,84.2-72.1,115.9-93.4c67.3-45.2,104.3-44.8,140.1-44.4h5.9c73.7,0.4,173-1.3,278.2-3.1c108.1-1.9,219.8-3.8,313.5-3.5
	c1.3,0,2.7,0,4.1,0c13.4,0.2,31.7,0.4,41.9-10.8c7.9-8.7,10.7-23.9,8.3-45.3l-0.1-1c-2.2-19.9-7.4-66.5,35.1-92.2
	c12.4-7.5,40.7-14.2,64.7-5.8c59.3,20.9,198,72.6,200.8,73.7c18.8,6.8,29.1,5.5,40.5,1c22.9-9,81.7-29.6,107.1-31.9
	c33.5-3,61.6,2.4,83.3,16.1c19.2,12.1,30.3,28.5,37.9,41.5c29.1,49.8,107.7,190.2,108.5,191.6c24.6,43.7,23.5,92.6-3.2,141.4
	c-20.9,38.2-53.5,68.8-75.2,83.5C1645.5,810.6,1596.5,821.3,1558.8,821.3z"/>
</svg>
